<svg width="60" height="60" viewBox="0 0 60 60" fill="none" xmlns="http://www.w3.org/2000/svg">
<path d="M43.876 53.3579C43.564 53.6692 43.1348 53.8247 42.706 53.8247H10.181C9.75184 53.8247 9.32298 53.6692 9.01098 53.3579C8.69897 53.0465 8.54297 52.6186 8.54297 52.1906V8.80946C8.54297 8.38148 8.69897 7.9535 9.01098 7.64216C9.32298 7.33082 9.75184 7.17529 10.181 7.17529H37.8345L44.3437 13.6839V52.1906C44.3437 52.6186 44.1877 53.0465 43.876 53.3579Z" fill="#EEF0F2"/>
<path d="M39.5978 13.6845C39.136 13.6845 38.6739 13.5163 38.3379 13.1806C38.002 12.8446 37.834 12.3826 37.834 11.9207V7.17529L44.3432 13.6845H39.5978Z" fill="#E0E0E0"/>
<path d="M15.2325 43.291H17.9125C18.2825 43.291 18.5825 43.6952 18.5825 44.1938V45.3977C18.5825 45.8964 18.2825 46.3006 17.9125 46.3006H15.2325C14.8625 46.3006 14.5625 45.8964 14.5625 45.3977V44.1938C14.5625 43.6952 14.8625 43.291 15.2325 43.291Z" fill="#BCC4CD"/>
<path d="M15.3655 37.2717H21.7895C22.233 37.2717 22.5925 37.6759 22.5925 38.1746V39.3784C22.5925 39.8771 22.233 40.2813 21.7895 40.2813H15.3655C14.922 40.2813 14.5625 39.8771 14.5625 39.3784V38.1746C14.5625 37.6759 14.922 37.2717 15.3655 37.2717Z" fill="#BCC4CD"/>
<path d="M15.5654 31.2524H27.5996C28.1535 31.2524 28.6025 31.6567 28.6025 32.1553V33.3592C28.6025 33.8578 28.1535 34.2621 27.5996 34.2621H15.5654C15.0115 34.2621 14.5625 33.8578 14.5625 33.3592V32.1553C14.5625 31.6567 15.0115 31.2524 15.5654 31.2524Z" fill="#BCC4CD"/>
<path d="M15.4187 25.2332H32.2563C32.7292 25.2332 33.1125 25.6374 33.1125 26.136V27.3399C33.1125 27.8386 32.7292 28.2428 32.2563 28.2428H15.4187C14.9458 28.2428 14.5625 27.8386 14.5625 27.3399V26.136C14.5625 25.6374 14.9458 25.2332 15.4187 25.2332Z" fill="#BCC4CD"/>
<path d="M15.4328 19.2139H37.7694C38.25 19.2139 38.6396 19.6181 38.6396 20.1168V21.3206C38.6396 21.8193 38.25 22.2235 37.7694 22.2235H15.4328C14.9521 22.2235 14.5625 21.8193 14.5625 21.3206V20.1168C14.5625 19.6181 14.9521 19.2139 15.4328 19.2139Z" fill="#BCC4CD"/>
<path d="M15.4575 13.1946H25.6011C26.0954 13.1946 26.4961 13.5988 26.4961 14.0975V15.3013C26.4961 15.8 26.0954 16.2042 25.6011 16.2042H15.4575C14.9632 16.2042 14.5625 15.8 14.5625 15.3013V14.0975C14.5625 13.5988 14.9632 13.1946 15.4575 13.1946Z" fill="#237BB7"/>
<path d="M53.5241 26.3661C55.1228 24.7721 55.1228 22.1637 53.5241 20.5701C51.9254 18.9761 49.309 18.9761 47.7099 20.5701L47.2744 21.0045L53.0878 26.8009L53.5241 26.3661Z" fill="#CC0000"/>
<path d="M49.1709 26.8034L51.1235 28.756L30.9721 48.907L29.0195 46.9544L49.1709 26.8034Z" fill="#68ACDA"/>
<path d="M47.2291 24.8722L49.1817 26.8248L29.0307 46.9761L27.0781 45.0236L47.2291 24.8722Z" fill="#94C4E4"/>
<path d="M45.2877 22.9418L47.2403 24.8943L27.0893 45.0454L25.1367 43.0928L45.2877 22.9418Z" fill="#C0DCEE"/>
<path d="M47.2612 20.9954L53.0852 26.8193L51.1384 28.7661L45.3145 22.9421L47.2612 20.9954Z" fill="#ECECEC"/>
<path d="M51.1548 24.8784L53.1073 26.8309L51.1606 28.7781L49.208 26.8255L51.1548 24.8784Z" fill="#C8C8C8"/>
<path d="M23 50.9999L30.9457 48.875L25.1315 43.0786L23 50.9999Z" fill="#ECECEC"/>
<path d="M23 51L30.9457 48.8751L29.0076 46.9428L23 51Z" fill="#C8C8C8"/>
<path d="M25.6646 50.2756L23 50.9521L23.6783 48.2955" fill="#505050"/>
<path d="M52.4114 19.797C50.861 19.0726 49.0198 19.3143 47.7601 20.5701L47.3242 21.0045L51.2003 24.8686L51.6358 24.4342C52.8473 23.1785 53.138 21.2945 52.4114 19.797Z" fill="#DB4C4C"/>
</svg>
