<svg width="60" height="60" viewBox="0 0 60 60" fill="none" xmlns="http://www.w3.org/2000/svg">
<path d="M45.876 52.3579C45.564 52.6692 45.1348 52.8247 44.706 52.8247H12.181C11.7518 52.8247 11.323 52.6692 11.011 52.3579C10.699 52.0465 10.543 51.6186 10.543 51.1906V7.80946C10.543 7.38148 10.699 6.9535 11.011 6.64216C11.323 6.33082 11.7518 6.17529 12.181 6.17529H39.8345L46.3437 12.6839V51.1906C46.3437 51.6186 46.1877 52.0465 45.876 52.3579Z" fill="#EEF0F2"/>
<path d="M54.6921 27.0828C54.487 26.8778 54.2438 26.7749 53.9628 26.7749C53.6819 26.7749 53.4391 26.8778 53.2335 27.0828L51.1267 29.1739C49.9707 28.0825 48.6469 27.2368 47.156 26.6373C45.6652 26.0377 44.1305 25.738 42.5529 25.738C39.5815 25.738 36.9885 26.6373 34.7735 28.4365C32.5584 30.2353 31.0998 32.5824 30.3975 35.4783V35.5916C30.3975 35.7321 30.4487 35.8537 30.5514 35.9563C30.6541 36.059 30.7756 36.1102 30.916 36.1102H34.1412C34.379 36.1102 34.5409 35.9859 34.6275 35.7375C35.0812 34.6571 35.3674 34.0251 35.4864 33.8413C36.2426 32.6096 37.2475 31.6425 38.5009 30.9402C39.7544 30.238 41.105 29.8867 42.5527 29.8867C44.7247 29.8867 46.61 30.6269 48.2092 32.1071L45.9723 34.3436C45.7675 34.5489 45.6645 34.7921 45.6645 35.0731C45.6645 35.354 45.7675 35.5971 45.9723 35.8024C46.1778 36.0077 46.421 36.1103 46.702 36.1103H53.9628C54.2437 36.1103 54.4869 36.0077 54.6921 35.8024C54.8972 35.5971 54.9998 35.354 54.9998 35.0731V27.8122C54.9998 27.5312 54.8979 27.2882 54.6921 27.0828Z" fill="#E88921"/>
<path d="M54.0735 40.2595H50.9618C50.7241 40.2595 50.562 40.3837 50.4758 40.6323C50.0222 41.7128 49.7356 42.3445 49.6169 42.5283C48.8605 43.7597 47.8556 44.7271 46.6025 45.4294C45.3489 46.1319 43.9984 46.4828 42.5506 46.4828C41.5026 46.4828 40.4923 46.2885 39.52 45.8996C38.5475 45.5103 37.6776 44.9592 36.9106 44.246L39.1311 42.0257C39.3363 41.8206 39.439 41.5772 39.439 41.2964C39.439 41.0156 39.3363 40.7721 39.1311 40.5672C38.9257 40.3617 38.6827 40.2589 38.4018 40.2589H31.1409C30.8598 40.2589 30.6166 40.3617 30.4114 40.5672C30.2061 40.7722 30.1035 41.0156 30.1035 41.2965V48.5574C30.1035 48.8381 30.2061 49.0815 30.4114 49.2867C30.6169 49.4916 30.86 49.5948 31.1409 49.5948C31.4218 49.5948 31.6648 49.4917 31.8702 49.2867L33.9609 47.1958C35.1171 48.2976 36.4326 49.146 37.9075 49.7402C39.3824 50.3347 40.9085 50.6315 42.4859 50.6315C45.4466 50.6315 48.0288 49.7321 50.233 47.9332C52.4371 46.1343 53.885 43.7868 54.5768 40.8912C54.5876 40.8697 54.5927 40.8318 54.5927 40.778C54.5927 40.6373 54.5412 40.5162 54.4386 40.4131C54.3359 40.311 54.2142 40.2595 54.0735 40.2595Z" fill="#E88921"/>
<path d="M41.5978 12.6845C41.136 12.6845 40.6739 12.5163 40.3379 12.1806C40.002 11.8446 39.834 11.3826 39.834 10.9207V6.17529L46.3432 12.6845H41.5978Z" fill="#E0E0E0"/>
<path d="M17.5657 42.291H21.5786C22.1326 42.291 22.5818 42.6952 22.5818 43.1938V44.3977C22.5818 44.8964 22.1326 45.3006 21.5786 45.3006H17.5657C17.0117 45.3006 16.5625 44.8964 16.5625 44.3977V43.1938C16.5625 42.6952 17.0117 42.291 17.5657 42.291Z" fill="#BCC4CD"/>
<path d="M17.4654 36.2717H24.6885C25.1872 36.2717 25.5914 36.6759 25.5914 37.1746V38.3784C25.5914 38.8771 25.1872 39.2813 24.6885 39.2813H17.4654C16.9667 39.2813 16.5625 38.8771 16.5625 38.3784V37.1746C16.5625 36.6759 16.9667 36.2717 17.4654 36.2717Z" fill="#BCC4CD"/>
<path d="M17.4224 30.2524H27.7412C28.2161 30.2524 28.6011 30.6567 28.6011 31.1553V32.3592C28.6011 32.8578 28.2161 33.2621 27.7412 33.2621H17.4224C16.9475 33.2621 16.5625 32.8578 16.5625 32.3592V31.1553C16.5625 30.6567 16.9475 30.2524 17.4224 30.2524Z" fill="#BCC4CD"/>
<path d="M17.3265 24.2332H32.3515C32.7735 24.2332 33.1155 24.6374 33.1155 25.136V26.3399C33.1155 26.8386 32.7735 27.2428 32.3515 27.2428H17.3265C16.9045 27.2428 16.5625 26.8386 16.5625 26.3399V25.136C16.5625 24.6374 16.9045 24.2332 17.3265 24.2332Z" fill="#BCC4CD"/>
<path d="M17.4328 18.2139H39.7694C40.25 18.2139 40.6396 18.6181 40.6396 19.1168V20.3206C40.6396 20.8193 40.25 21.2235 39.7694 21.2235H17.4328C16.9521 21.2235 16.5625 20.8193 16.5625 20.3206V19.1168C16.5625 18.6181 16.9521 18.2139 17.4328 18.2139Z" fill="#BCC4CD"/>
<path d="M17.4575 12.1946H27.6011C28.0954 12.1946 28.4961 12.5988 28.4961 13.0975V14.3013C28.4961 14.8 28.0954 15.2042 27.6011 15.2042H17.4575C16.9632 15.2042 16.5625 14.8 16.5625 14.3013V13.0975C16.5625 12.5988 16.9632 12.1946 17.4575 12.1946Z" fill="#237BB7"/>
</svg>
