<svg width="60" height="60" viewBox="0 0 60 60" fill="none" xmlns="http://www.w3.org/2000/svg">
<path fill-rule="evenodd" clip-rule="evenodd" d="M30 55C16.1929 55 5 43.8071 5 30C5 16.1929 16.1929 5 30 5C43.8071 5 55 16.1929 55 30C55 43.8071 43.8071 55 30 55ZM32.2727 33.122C36.1937 32.1128 39.0909 28.5535 39.0909 24.3175C39.0909 19.2967 35.0207 15.2266 30 15.2266C24.9792 15.2266 20.9091 19.2967 20.9091 24.3175H25.4545C25.4545 21.8071 27.4896 19.772 30 19.772C32.5104 19.772 34.5454 21.8071 34.5454 24.3175C34.5454 26.8279 32.5104 28.8629 30 28.8629H27.7272V35.9084H32.2727V33.122ZM29.9995 44.7724C31.6312 44.7724 32.954 43.4496 32.954 41.8178C32.954 40.1861 31.6312 38.8633 29.9995 38.8633C28.3677 38.8633 27.0449 40.1861 27.0449 41.8178C27.0449 43.4496 28.3677 44.7724 29.9995 44.7724Z" fill="#237BB7"/>
</svg>
