<svg width="60" height="60" viewBox="0 0 60 60" fill="none" xmlns="http://www.w3.org/2000/svg">
<circle cx="47.3634" cy="27.8181" r="8.1818" fill="#E88921"/>
<path d="M50.0905 29.1819H44.6362C43.8181 29.1819 43.2725 28.6364 43.2725 27.8182C43.2725 27 43.8181 26.4546 44.6362 26.4546H50.0905C50.9087 26.4546 51.4543 27 51.4543 27.8182C51.4543 28.6364 50.9087 29.1819 50.0905 29.1819Z" fill="white"/>
<circle cx="29.6359" cy="14.1818" r="8.1818" fill="#E88921"/>
<path d="M32.3639 15.5455H26.9097C26.0915 15.5455 25.5459 15 25.5459 14.1819C25.5459 13.3637 26.0915 12.8182 26.9097 12.8182H32.3639C33.1821 12.8182 33.7277 13.3637 33.7277 14.1819C33.7277 15 33.1821 15.5455 32.3639 15.5455Z" fill="white"/>
<path d="M46.8556 39.8133L30.5109 41.2533C29.0164 41.3492 27.5223 41.0614 26.1214 40.2933L21.638 37.6055H32.1921C32.8625 37.6077 33.5059 37.3352 33.9795 36.8485C34.453 36.3618 34.7174 35.7013 34.7139 35.0137C34.7139 33.7656 33.8733 32.7097 32.6592 32.4219L23.2257 30.5975C20.9848 30.1175 18.6498 29.9257 16.3147 29.9257H8.5625V43.8451L23.8796 50.4691C25.5608 51.141 27.4288 51.141 29.2035 50.661L49.6574 42.4052C49.6574 40.8692 48.3498 39.6214 46.8556 39.8133Z" fill="#F2BD99"/>
<path d="M11.8742 47.8388H7.35826C6.81635 47.8388 6.45508 47.4575 6.45508 46.8854V28.7717C6.45508 28.1996 6.81635 27.8182 7.35826 27.8182H11.8742C12.4161 27.8182 12.7774 28.1996 12.7774 28.7717V46.8854C12.7774 47.4575 12.4161 47.8388 11.8742 47.8388Z" fill="#237BB7"/>
</svg>
