<svg width="84" height="36" viewBox="0 0 84 36" fill="none" xmlns="http://www.w3.org/2000/svg">
<rect width="84" height="26" rx="3" fill="#E6F2F3"/>
<path d="M16.0732 13.7949C16.0254 11.6484 14.4053 10.1172 12.334 10.1172C10.167 10.1172 8.52637 11.792 8.52637 13.877C8.52637 15.9688 10.1396 17.6367 12.3682 17.6367C13.8242 17.6367 15.0205 16.9258 15.6426 15.7705L14.4053 15.2441C13.9609 15.9619 13.2021 16.3652 12.3613 16.3652C11.1035 16.3652 10.0645 15.4424 9.99609 14.0957H16.0596L16.0732 13.7949ZM12.3408 11.3271C13.4277 11.3271 14.2891 12.0039 14.5078 13.0566H10.085C10.3652 12.0107 11.2334 11.3271 12.3408 11.3271ZM17.6523 14.4854H22.5537V13.2344H17.6523V14.4854ZM32.4043 17.5H34.0723L29.9092 7H28.1797L24.0166 17.5H25.6914L26.5596 15.2305H31.5361L32.4043 17.5ZM27.1064 13.8086L29.0479 8.72266L30.9961 13.8086H27.1064ZM38.543 17.6436C39.6914 17.6436 40.5801 17.1719 41.1543 16.4473V17.5H42.6787V7H41.1611L41.1543 11.3135C40.5801 10.582 39.6846 10.1035 38.543 10.1035C36.6152 10.1035 34.9678 11.7441 34.9678 13.8701C34.9678 16.0029 36.6152 17.6436 38.543 17.6436ZM38.8779 16.2832C37.5518 16.2832 36.4854 15.251 36.4854 13.8701C36.4854 12.4961 37.5518 11.4707 38.8779 11.4707C40.2109 11.4707 41.2568 12.4961 41.2568 13.8701C41.2568 15.251 40.2109 16.2832 38.8779 16.2832ZM49.8838 10.2607L47.7305 15.668L45.584 10.2607H43.957L47.1562 17.5H48.2979L51.5107 10.2607H49.8838ZM53.5684 8.75684C54.0811 8.75684 54.5186 8.33301 54.5186 7.81348C54.5186 7.27344 54.0811 6.86328 53.5684 6.86328C53.0488 6.86328 52.6113 7.27344 52.6113 7.81348C52.6113 8.33301 53.0488 8.75684 53.5684 8.75684ZM52.7959 17.5H54.3135V10.2607H52.7959V17.5ZM58.7637 17.6367C60.3428 17.6367 61.4775 16.8438 61.4775 15.3604C61.4775 13.918 60.377 13.4941 59.3721 13.1865C58.4971 12.9199 57.6768 12.7422 57.6768 12.1201C57.6768 11.6143 58.1348 11.334 58.7842 11.334C59.3174 11.334 59.9873 11.5322 60.541 11.9355L61.293 10.8623C60.5957 10.3906 59.7275 10.124 58.8594 10.124C57.4512 10.124 56.2207 10.835 56.2207 12.2637C56.2207 13.6855 57.4033 14.0547 58.4355 14.376C59.2627 14.6289 59.9805 14.8271 59.9805 15.4766C59.9805 16.0576 59.4951 16.3789 58.7705 16.3789C57.998 16.3789 57.1436 15.9961 56.6035 15.5312L55.8721 16.6934C56.5625 17.1992 57.5742 17.6367 58.7637 17.6367ZM70.1045 13.7949C70.0566 11.6484 68.4365 10.1172 66.3652 10.1172C64.1982 10.1172 62.5576 11.792 62.5576 13.877C62.5576 15.9688 64.1709 17.6367 66.3994 17.6367C67.8555 17.6367 69.0518 16.9258 69.6738 15.7705L68.4365 15.2441C67.9922 15.9619 67.2334 16.3652 66.3926 16.3652C65.1348 16.3652 64.0957 15.4424 64.0273 14.0957H70.0908L70.1045 13.7949ZM66.3721 11.3271C67.459 11.3271 68.3203 12.0039 68.5391 13.0566H64.1162C64.3965 12.0107 65.2646 11.3271 66.3721 11.3271ZM73.1875 11.5459V10.2607H71.7041V17.5H73.2285V13.7881C73.2285 12.1885 74.2197 11.6484 75.6963 11.6484V10.1924C74.4795 10.2266 73.6113 10.8281 73.1875 11.5459Z" fill="#02737D"/>
</svg>
