<svg width="89" height="36" viewBox="0 0 89 36" fill="none" xmlns="http://www.w3.org/2000/svg">
<rect width="89" height="26" rx="3" fill="#E6F2F3"/>
<path d="M16.0732 13.7949C16.0254 11.6484 14.4053 10.1172 12.334 10.1172C10.167 10.1172 8.52637 11.792 8.52637 13.877C8.52637 15.9688 10.1396 17.6367 12.3682 17.6367C13.8242 17.6367 15.0205 16.9258 15.6426 15.7705L14.4053 15.2441C13.9609 15.9619 13.2021 16.3652 12.3613 16.3652C11.1035 16.3652 10.0645 15.4424 9.99609 14.0957H16.0596L16.0732 13.7949ZM12.3408 11.3271C13.4277 11.3271 14.2891 12.0039 14.5078 13.0566H10.085C10.3652 12.0107 11.2334 11.3271 12.3408 11.3271ZM17.6523 14.4854H22.5537V13.2344H17.6523V14.4854ZM27.9404 17.6367C29.7383 17.6367 31.2627 16.625 31.2627 14.6699C31.2627 12.7422 29.7998 12.0449 28.4463 11.4707C27.2363 10.9648 26.2178 10.582 26.2178 9.55664C26.2178 8.70898 26.9014 8.26465 27.7148 8.26465C28.501 8.26465 29.2803 8.56543 30.0732 9.37207L30.9756 8.26465C30.1553 7.4375 29.0547 6.86328 27.7285 6.86328C26.0127 6.86328 24.6523 7.92969 24.6523 9.7002C24.6523 11.5186 26.0605 12.1611 27.4688 12.7627C28.6514 13.2686 29.6768 13.6855 29.6768 14.752C29.6768 15.6748 28.918 16.2354 27.8994 16.2354C26.8535 16.2354 25.8691 15.6611 25.2061 14.8135L24.1875 15.9756C25.0557 16.9531 26.4639 17.6367 27.9404 17.6367ZM39.999 13.7949C39.9512 11.6484 38.3311 10.1172 36.2598 10.1172C34.0928 10.1172 32.4521 11.792 32.4521 13.877C32.4521 15.9688 34.0654 17.6367 36.2939 17.6367C37.75 17.6367 38.9463 16.9258 39.5684 15.7705L38.3311 15.2441C37.8867 15.9619 37.1279 16.3652 36.2871 16.3652C35.0293 16.3652 33.9902 15.4424 33.9219 14.0957H39.9854L39.999 13.7949ZM36.2666 11.3271C37.3535 11.3271 38.2148 12.0039 38.4336 13.0566H34.0107C34.291 12.0107 35.1592 11.3271 36.2666 11.3271ZM43.082 11.5459V10.2607H41.5986V17.5H43.123V13.7881C43.123 12.1885 44.1143 11.6484 45.5908 11.6484V10.1924C44.374 10.2266 43.5059 10.8281 43.082 11.5459ZM52.0029 10.2607L49.8496 15.668L47.7031 10.2607H46.0762L49.2754 17.5H50.417L53.6299 10.2607H52.0029ZM55.6875 8.75684C56.2002 8.75684 56.6377 8.33301 56.6377 7.81348C56.6377 7.27344 56.2002 6.86328 55.6875 6.86328C55.168 6.86328 54.7305 7.27344 54.7305 7.81348C54.7305 8.33301 55.168 8.75684 55.6875 8.75684ZM54.915 17.5H56.4326V10.2607H54.915V17.5ZM61.9697 17.623C63.248 17.623 64.3691 17.0488 65.0664 16.1465L63.9248 15.2305C63.501 15.8662 62.8037 16.2627 61.9629 16.2627C60.6162 16.2627 59.5771 15.2441 59.5771 13.877C59.5771 12.5029 60.6162 11.4912 61.9629 11.4912C62.8037 11.4912 63.501 11.8809 63.9248 12.5166L65.0664 11.6006C64.3691 10.6982 63.248 10.124 61.9697 10.124C59.7959 10.124 58.1006 11.7441 58.1006 13.877C58.1006 16.0029 59.7959 17.623 61.9697 17.623ZM73.4678 13.7949C73.4199 11.6484 71.7998 10.1172 69.7285 10.1172C67.5615 10.1172 65.9209 11.792 65.9209 13.877C65.9209 15.9688 67.5342 17.6367 69.7627 17.6367C71.2188 17.6367 72.415 16.9258 73.0371 15.7705L71.7998 15.2441C71.3555 15.9619 70.5967 16.3652 69.7559 16.3652C68.498 16.3652 67.459 15.4424 67.3906 14.0957H73.4541L73.4678 13.7949ZM69.7354 11.3271C70.8223 11.3271 71.6836 12.0039 71.9023 13.0566H67.4795C67.7598 12.0107 68.6279 11.3271 69.7354 11.3271ZM77.2344 17.6367C78.8135 17.6367 79.9482 16.8438 79.9482 15.3604C79.9482 13.918 78.8477 13.4941 77.8428 13.1865C76.9678 12.9199 76.1475 12.7422 76.1475 12.1201C76.1475 11.6143 76.6055 11.334 77.2549 11.334C77.7881 11.334 78.458 11.5322 79.0117 11.9355L79.7637 10.8623C79.0664 10.3906 78.1982 10.124 77.3301 10.124C75.9219 10.124 74.6914 10.835 74.6914 12.2637C74.6914 13.6855 75.874 14.0547 76.9062 14.376C77.7334 14.6289 78.4512 14.8271 78.4512 15.4766C78.4512 16.0576 77.9658 16.3789 77.2412 16.3789C76.4688 16.3789 75.6143 15.9961 75.0742 15.5312L74.3428 16.6934C75.0332 17.1992 76.0449 17.6367 77.2344 17.6367Z" fill="#02737D"/>
</svg>
