<svg width="192" height="36" viewBox="0 0 192 36" fill="none" xmlns="http://www.w3.org/2000/svg">
<rect width="192" height="26" rx="3" fill="#E6F2F3"/>
<path d="M15.6562 17.5H17.4062L14.6309 12.7832C15.7861 12.3867 16.5928 11.3408 16.5928 10.0215C16.5928 8.35352 15.3486 7 13.4551 7H9.43555V17.5H11.0488V12.9541H13.1201L15.6562 17.5ZM11.0488 8.42188H13.3252C14.3369 8.42188 15.0137 9.06445 15.0137 10.0215C15.0137 11.0059 14.3369 11.5732 13.3252 11.5732H11.0488V8.42188ZM21.8701 17.6367C23.7705 17.6367 24.9805 16.6318 24.9805 14.9297V10.2607H23.4766V14.8545C23.4766 15.832 22.793 16.2764 21.8701 16.2764C20.9541 16.2764 20.2637 15.832 20.2637 14.8545V10.2607H18.7598V14.9297C18.7598 16.6318 19.9697 17.6367 21.8701 17.6367ZM30.791 10.124C29.834 10.124 29.082 10.5547 28.6172 11.293V10.2607H27.0928V17.5H28.6172V13.3643C28.624 12.0791 29.3691 11.4434 30.3467 11.4434C31.2832 11.4434 31.9668 11.915 31.9668 13.3164V17.5H33.4912V13.0977C33.4912 11.1221 32.3701 10.124 30.791 10.124ZM42.6035 17.6436C43.752 17.6436 44.6406 17.1719 45.2148 16.4473V17.5H46.7393V10.2607H45.2217L45.2148 11.3135C44.6406 10.582 43.7451 10.1035 42.6035 10.1035C40.6758 10.1035 39.0283 11.7441 39.0283 13.8701C39.0283 16.0029 40.6758 17.6436 42.6035 17.6436ZM42.9385 16.2832C41.6123 16.2832 40.5459 15.251 40.5459 13.8701C40.5459 12.4961 41.6123 11.4707 42.9385 11.4707C44.2715 11.4707 45.3174 12.4961 45.3174 13.8701C45.3174 15.251 44.2715 16.2832 42.9385 16.2832ZM52.7207 10.124C51.7637 10.124 51.0117 10.5547 50.5469 11.293V10.2607H49.0225V17.5H50.5469V13.3643C50.5537 12.0791 51.2988 11.4434 52.2764 11.4434C53.2129 11.4434 53.8965 11.915 53.8965 13.3164V17.5H55.4209V13.0977C55.4209 11.1221 54.2998 10.124 52.7207 10.124ZM60.5137 17.6436C61.6621 17.6436 62.5508 17.1719 63.125 16.4473V17.5H64.6494V7H63.1318L63.125 11.3135C62.5508 10.582 61.6553 10.1035 60.5137 10.1035C58.5859 10.1035 56.9385 11.7441 56.9385 13.8701C56.9385 16.0029 58.5859 17.6436 60.5137 17.6436ZM60.8486 16.2832C59.5225 16.2832 58.4561 15.251 58.4561 13.8701C58.4561 12.4961 59.5225 11.4707 60.8486 11.4707C62.1816 11.4707 63.2275 12.4961 63.2275 13.8701C63.2275 15.251 62.1816 16.2832 60.8486 16.2832ZM81.4316 11.8125H76.8994V13.2139H79.7295C79.333 14.916 77.8906 16.0986 75.9971 16.0986C73.7549 16.0986 72.1348 14.4033 72.1348 12.2773C72.1348 10.083 73.8369 8.40137 75.9834 8.40137C77.3232 8.40137 78.4854 9.05762 79.1621 10.0557L80.5703 9.26953C79.6064 7.81348 77.9316 6.86328 75.9902 6.86328C72.9209 6.86328 70.5215 9.22852 70.5215 12.25C70.5215 15.2715 72.9209 17.6367 75.9902 17.6367C79.0664 17.6367 81.4521 15.2715 81.4521 12.2363C81.4521 12.0859 81.4453 11.9355 81.4316 11.8125ZM84.6445 11.5459V10.2607H83.1611V17.5H84.6855V13.7881C84.6855 12.1885 85.6768 11.6484 87.1533 11.6484V10.1924C85.9365 10.2266 85.0684 10.8281 84.6445 11.5459ZM91.6514 17.6367C93.8252 17.6367 95.5205 16.0098 95.5205 13.877C95.5205 11.751 93.8252 10.124 91.6514 10.124C89.4775 10.124 87.7822 11.751 87.7822 13.877C87.7822 16.0098 89.4775 17.6367 91.6514 17.6367ZM91.6445 16.2695C90.3184 16.2695 89.2588 15.2441 89.2588 13.877C89.2588 12.5234 90.3184 11.4912 91.6445 11.4912C92.9707 11.4912 94.0371 12.5303 94.0371 13.877C94.0371 15.2305 92.9707 16.2695 91.6445 16.2695ZM106.314 10.2607L104.585 15.3945L102.568 10.2607H101.604L99.5879 15.3945L97.8584 10.2607H96.2383L98.877 17.5068H100.066L102.09 12.3594L104.1 17.5068H105.282L107.941 10.2607H106.314ZM116.268 17.6436C117.416 17.6436 118.305 17.1719 118.879 16.4473V17.5H120.403V10.2607H118.886L118.879 11.3135C118.305 10.582 117.409 10.1035 116.268 10.1035C114.34 10.1035 112.692 11.7441 112.692 13.8701C112.692 16.0029 114.34 17.6436 116.268 17.6436ZM116.603 16.2832C115.276 16.2832 114.21 15.251 114.21 13.8701C114.21 12.4961 115.276 11.4707 116.603 11.4707C117.936 11.4707 118.981 12.4961 118.981 13.8701C118.981 15.251 117.936 16.2832 116.603 16.2832ZM132.421 12.0654C133.193 11.6348 133.638 10.8965 133.638 9.83691C133.638 8.12793 132.353 7 130.473 7H127V17.5H131.307C133.166 17.5 134.403 16.3516 134.403 14.6631C134.403 13.2549 133.617 12.3936 132.421 12.0654ZM132.106 9.95996C132.106 10.8486 131.437 11.5254 130.432 11.5254H128.579V8.42188H130.432C131.642 8.42188 132.106 9.07812 132.106 9.95996ZM131.095 16.0576H128.579V12.8926H131.095C132.147 12.8926 132.817 13.6104 132.817 14.4785C132.817 15.3467 132.25 16.0576 131.095 16.0576ZM139.134 17.6367C141.034 17.6367 142.244 16.6318 142.244 14.9297V10.2607H140.74V14.8545C140.74 15.832 140.057 16.2764 139.134 16.2764C138.218 16.2764 137.527 15.832 137.527 14.8545V10.2607H136.023V14.9297C136.023 16.6318 137.233 17.6367 139.134 17.6367ZM146.482 17.6367C148.062 17.6367 149.196 16.8438 149.196 15.3604C149.196 13.918 148.096 13.4941 147.091 13.1865C146.216 12.9199 145.396 12.7422 145.396 12.1201C145.396 11.6143 145.854 11.334 146.503 11.334C147.036 11.334 147.706 11.5322 148.26 11.9355L149.012 10.8623C148.314 10.3906 147.446 10.124 146.578 10.124C145.17 10.124 143.939 10.835 143.939 12.2637C143.939 13.6855 145.122 14.0547 146.154 14.376C146.981 14.6289 147.699 14.8271 147.699 15.4766C147.699 16.0576 147.214 16.3789 146.489 16.3789C145.717 16.3789 144.862 15.9961 144.322 15.5312L143.591 16.6934C144.281 17.1992 145.293 17.6367 146.482 17.6367ZM151.664 8.75684C152.177 8.75684 152.614 8.33301 152.614 7.81348C152.614 7.27344 152.177 6.86328 151.664 6.86328C151.145 6.86328 150.707 7.27344 150.707 7.81348C150.707 8.33301 151.145 8.75684 151.664 8.75684ZM150.892 17.5H152.409V10.2607H150.892V17.5ZM158.391 10.124C157.434 10.124 156.682 10.5547 156.217 11.293V10.2607H154.692V17.5H156.217V13.3643C156.224 12.0791 156.969 11.4434 157.946 11.4434C158.883 11.4434 159.566 11.915 159.566 13.3164V17.5H161.091V13.0977C161.091 11.1221 159.97 10.124 158.391 10.124ZM170.142 13.7949C170.094 11.6484 168.474 10.1172 166.402 10.1172C164.235 10.1172 162.595 11.792 162.595 13.877C162.595 15.9688 164.208 17.6367 166.437 17.6367C167.893 17.6367 169.089 16.9258 169.711 15.7705L168.474 15.2441C168.029 15.9619 167.271 16.3652 166.43 16.3652C165.172 16.3652 164.133 15.4424 164.064 14.0957H170.128L170.142 13.7949ZM166.409 11.3271C167.496 11.3271 168.357 12.0039 168.576 13.0566H164.153C164.434 12.0107 165.302 11.3271 166.409 11.3271ZM173.908 17.6367C175.487 17.6367 176.622 16.8438 176.622 15.3604C176.622 13.918 175.521 13.4941 174.517 13.1865C173.642 12.9199 172.821 12.7422 172.821 12.1201C172.821 11.6143 173.279 11.334 173.929 11.334C174.462 11.334 175.132 11.5322 175.686 11.9355L176.438 10.8623C175.74 10.3906 174.872 10.124 174.004 10.124C172.596 10.124 171.365 10.835 171.365 12.2637C171.365 13.6855 172.548 14.0547 173.58 14.376C174.407 14.6289 175.125 14.8271 175.125 15.4766C175.125 16.0576 174.64 16.3789 173.915 16.3789C173.143 16.3789 172.288 15.9961 171.748 15.5312L171.017 16.6934C171.707 17.1992 172.719 17.6367 173.908 17.6367ZM180.43 17.6367C182.009 17.6367 183.144 16.8438 183.144 15.3604C183.144 13.918 182.043 13.4941 181.038 13.1865C180.163 12.9199 179.343 12.7422 179.343 12.1201C179.343 11.6143 179.801 11.334 180.45 11.334C180.983 11.334 181.653 11.5322 182.207 11.9355L182.959 10.8623C182.262 10.3906 181.394 10.124 180.525 10.124C179.117 10.124 177.887 10.835 177.887 12.2637C177.887 13.6855 179.069 14.0547 180.102 14.376C180.929 14.6289 181.646 14.8271 181.646 15.4766C181.646 16.0576 181.161 16.3789 180.437 16.3789C179.664 16.3789 178.81 15.9961 178.27 15.5312L177.538 16.6934C178.229 17.1992 179.24 17.6367 180.43 17.6367Z" fill="#02737D"/>
</svg>
