<svg width="126" height="36" viewBox="0 0 126 36" fill="none" xmlns="http://www.w3.org/2000/svg">
<rect width="126" height="26" rx="3" fill="#E6F2F3"/>
<path d="M12.2725 17.6367C14.0703 17.6367 15.5947 16.625 15.5947 14.6699C15.5947 12.7422 14.1318 12.0449 12.7783 11.4707C11.5684 10.9648 10.5498 10.582 10.5498 9.55664C10.5498 8.70898 11.2334 8.26465 12.0469 8.26465C12.833 8.26465 13.6123 8.56543 14.4053 9.37207L15.3076 8.26465C14.4873 7.4375 13.3867 6.86328 12.0605 6.86328C10.3447 6.86328 8.98438 7.92969 8.98438 9.7002C8.98438 11.5186 10.3926 12.1611 11.8008 12.7627C12.9834 13.2686 14.0088 13.6855 14.0088 14.752C14.0088 15.6748 13.25 16.2354 12.2314 16.2354C11.1855 16.2354 10.2012 15.6611 9.53809 14.8135L8.51953 15.9756C9.3877 16.9531 10.7959 17.6367 12.2725 17.6367ZM20.9814 11.4297V10.2607H19.1973V8.25781H17.6729V10.2607H16.4902V11.4297H17.6729V15.3809C17.6729 16.7549 18.5479 17.5 19.874 17.5H20.9678V16.2764H20.1816C19.6006 16.2764 19.1973 15.9072 19.1973 15.2031V11.4297H20.9814ZM25.5137 17.6436C26.6621 17.6436 27.5508 17.1719 28.125 16.4473V17.5H29.6494V10.2607H28.1318L28.125 11.3135C27.5508 10.582 26.6553 10.1035 25.5137 10.1035C23.5859 10.1035 21.9385 11.7441 21.9385 13.8701C21.9385 16.0029 23.5859 17.6436 25.5137 17.6436ZM25.8486 16.2832C24.5225 16.2832 23.4561 15.251 23.4561 13.8701C23.4561 12.4961 24.5225 11.4707 25.8486 11.4707C27.1816 11.4707 28.2275 12.4961 28.2275 13.8701C28.2275 15.251 27.1816 16.2832 25.8486 16.2832ZM33.416 11.5459V10.2607H31.9326V17.5H33.457V13.7881C33.457 12.1885 34.4482 11.6484 35.9248 11.6484V10.1924C34.708 10.2266 33.8398 10.8281 33.416 11.5459ZM41.3252 11.4297V10.2607H39.541V8.25781H38.0166V10.2607H36.834V11.4297H38.0166V15.3809C38.0166 16.7549 38.8916 17.5 40.2178 17.5H41.3115V16.2764H40.5254C39.9443 16.2764 39.541 15.9072 39.541 15.2031V11.4297H41.3252ZM49.9863 17.6436C51.1348 17.6436 52.0234 17.1719 52.5977 16.4473V17.5H54.1221V10.2607H52.6045L52.5977 11.3135C52.0234 10.582 51.1279 10.1035 49.9863 10.1035C48.0586 10.1035 46.4111 11.7441 46.4111 13.8701C46.4111 16.0029 48.0586 17.6436 49.9863 17.6436ZM50.3213 16.2832C48.9951 16.2832 47.9287 15.251 47.9287 13.8701C47.9287 12.4961 48.9951 11.4707 50.3213 11.4707C51.6543 11.4707 52.7002 12.4961 52.7002 13.8701C52.7002 15.251 51.6543 16.2832 50.3213 16.2832ZM66.1396 12.0654C66.9121 11.6348 67.3564 10.8965 67.3564 9.83691C67.3564 8.12793 66.0713 7 64.1914 7H60.7188V17.5H65.0254C66.8848 17.5 68.1221 16.3516 68.1221 14.6631C68.1221 13.2549 67.3359 12.3936 66.1396 12.0654ZM65.8252 9.95996C65.8252 10.8486 65.1553 11.5254 64.1504 11.5254H62.2979V8.42188H64.1504C65.3604 8.42188 65.8252 9.07812 65.8252 9.95996ZM64.8135 16.0576H62.2979V12.8926H64.8135C65.8662 12.8926 66.5361 13.6104 66.5361 14.4785C66.5361 15.3467 65.9688 16.0576 64.8135 16.0576ZM72.8525 17.6367C74.7529 17.6367 75.9629 16.6318 75.9629 14.9297V10.2607H74.459V14.8545C74.459 15.832 73.7754 16.2764 72.8525 16.2764C71.9365 16.2764 71.2461 15.832 71.2461 14.8545V10.2607H69.7422V14.9297C69.7422 16.6318 70.9521 17.6367 72.8525 17.6367ZM80.2012 17.6367C81.7803 17.6367 82.915 16.8438 82.915 15.3604C82.915 13.918 81.8145 13.4941 80.8096 13.1865C79.9346 12.9199 79.1143 12.7422 79.1143 12.1201C79.1143 11.6143 79.5723 11.334 80.2217 11.334C80.7549 11.334 81.4248 11.5322 81.9785 11.9355L82.7305 10.8623C82.0332 10.3906 81.165 10.124 80.2969 10.124C78.8887 10.124 77.6582 10.835 77.6582 12.2637C77.6582 13.6855 78.8408 14.0547 79.873 14.376C80.7002 14.6289 81.418 14.8271 81.418 15.4766C81.418 16.0576 80.9326 16.3789 80.208 16.3789C79.4355 16.3789 78.5811 15.9961 78.041 15.5312L77.3096 16.6934C78 17.1992 79.0117 17.6367 80.2012 17.6367ZM85.3828 8.75684C85.8955 8.75684 86.333 8.33301 86.333 7.81348C86.333 7.27344 85.8955 6.86328 85.3828 6.86328C84.8633 6.86328 84.4258 7.27344 84.4258 7.81348C84.4258 8.33301 84.8633 8.75684 85.3828 8.75684ZM84.6104 17.5H86.1279V10.2607H84.6104V17.5ZM92.1094 10.124C91.1523 10.124 90.4004 10.5547 89.9355 11.293V10.2607H88.4111V17.5H89.9355V13.3643C89.9424 12.0791 90.6875 11.4434 91.665 11.4434C92.6016 11.4434 93.2852 11.915 93.2852 13.3164V17.5H94.8096V13.0977C94.8096 11.1221 93.6885 10.124 92.1094 10.124ZM103.86 13.7949C103.812 11.6484 102.192 10.1172 100.121 10.1172C97.9541 10.1172 96.3135 11.792 96.3135 13.877C96.3135 15.9688 97.9268 17.6367 100.155 17.6367C101.611 17.6367 102.808 16.9258 103.43 15.7705L102.192 15.2441C101.748 15.9619 100.989 16.3652 100.148 16.3652C98.8906 16.3652 97.8516 15.4424 97.7832 14.0957H103.847L103.86 13.7949ZM100.128 11.3271C101.215 11.3271 102.076 12.0039 102.295 13.0566H97.8721C98.1523 12.0107 99.0205 11.3271 100.128 11.3271ZM107.627 17.6367C109.206 17.6367 110.341 16.8438 110.341 15.3604C110.341 13.918 109.24 13.4941 108.235 13.1865C107.36 12.9199 106.54 12.7422 106.54 12.1201C106.54 11.6143 106.998 11.334 107.647 11.334C108.181 11.334 108.851 11.5322 109.404 11.9355L110.156 10.8623C109.459 10.3906 108.591 10.124 107.723 10.124C106.314 10.124 105.084 10.835 105.084 12.2637C105.084 13.6855 106.267 14.0547 107.299 14.376C108.126 14.6289 108.844 14.8271 108.844 15.4766C108.844 16.0576 108.358 16.3789 107.634 16.3789C106.861 16.3789 106.007 15.9961 105.467 15.5312L104.735 16.6934C105.426 17.1992 106.438 17.6367 107.627 17.6367ZM114.148 17.6367C115.728 17.6367 116.862 16.8438 116.862 15.3604C116.862 13.918 115.762 13.4941 114.757 13.1865C113.882 12.9199 113.062 12.7422 113.062 12.1201C113.062 11.6143 113.52 11.334 114.169 11.334C114.702 11.334 115.372 11.5322 115.926 11.9355L116.678 10.8623C115.98 10.3906 115.112 10.124 114.244 10.124C112.836 10.124 111.605 10.835 111.605 12.2637C111.605 13.6855 112.788 14.0547 113.82 14.376C114.647 14.6289 115.365 14.8271 115.365 15.4766C115.365 16.0576 114.88 16.3789 114.155 16.3789C113.383 16.3789 112.528 15.9961 111.988 15.5312L111.257 16.6934C111.947 17.1992 112.959 17.6367 114.148 17.6367Z" fill="#02737D"/>
</svg>
