<svg width="845" height="320" viewBox="0 0 845 320" fill="none" xmlns="http://www.w3.org/2000/svg">
<g clip-path="url(#clip0_9356_120475)">
<rect width="845" height="320" transform="matrix(-1 0 0 1 845 0)" fill="#F2FAF4"/>
<path d="M144.007 319.843C144.007 319.843 65.8656 235.299 130.78 143.777C188.381 62.5783 255.552 68.1187 304.828 101.074C325.81 115.108 386.315 102.799 437.822 20.1625C508.053 -92.5281 751.503 -24.1872 707.128 149.187C685.654 233.078 772.51 236.135 728.239 320L144.007 319.843Z" fill="#E6F2F3"/>
<g opacity="0.5">
<path d="M336.469 274.165L323.827 297.974" stroke="#9EBBE3" stroke-width="2"/>
<path d="M301.69 250.336L287.809 264.825" stroke="#9EBBE3" stroke-width="2"/>
<path d="M282.421 271.864L262.741 290.285" stroke="#9EBBE3" stroke-width="2"/>
<path d="M254.247 297.737L243.06 308.707" stroke="#9EBBE3" stroke-width="2"/>
<path d="M254.899 231.264L230.873 240.779" stroke="#9EBBE3" stroke-width="2"/>
<path d="M273.506 180.979L251.452 181.538" stroke="#9EBBE3" stroke-width="2"/>
<path d="M245.574 184.88L220.364 185.48" stroke="#9EBBE3" stroke-width="2"/>
<path d="M204.695 186.518L192.076 186.709" stroke="#9EBBE3" stroke-width="2"/>
<path d="M274.817 143.265L251.834 136.836" stroke="#9EBBE3" stroke-width="2"/>
<path d="M292.434 109.312L274.838 95.8438" stroke="#9EBBE3" stroke-width="2"/>
<path d="M270.907 90.0448L249.792 73.8832" stroke="#9EBBE3" stroke-width="2"/>
<path d="M239.234 65.8018L228.677 57.721" stroke="#9EBBE3" stroke-width="2"/>
<path d="M290.482 308.728L282.401 319.285" stroke="#9EBBE3" stroke-width="2"/>
<path d="M230.784 216.323L218.557 219.465" stroke="#9EBBE3" stroke-width="2"/>
<path d="M241.906 109.703L231.762 104.728" stroke="#9EBBE3" stroke-width="2"/>
<path d="M274.23 67.4743L266.778 58.9808" stroke="#9EBBE3" stroke-width="2"/>
<path d="M526.454 62.483L539.096 38.6746" stroke="#9EBBE3" stroke-width="2"/>
<path d="M557.712 83.6194L577.392 65.1982" stroke="#9EBBE3" stroke-width="2"/>
<path d="M580.087 61.6783L597.074 46.7762" stroke="#9EBBE3" stroke-width="2"/>
<path d="M608.673 38.913L619.86 27.9428" stroke="#9EBBE3" stroke-width="2"/>
<path d="M604.916 105.798L628.941 96.2834" stroke="#9EBBE3" stroke-width="2"/>
<path d="M588.979 152.393L614.185 151.763" stroke="#9EBBE3" stroke-width="2"/>
<path d="M623.601 151.255L642.515 150.86" stroke="#9EBBE3" stroke-width="2"/>
<path d="M658.225 150.13L670.844 149.939" stroke="#9EBBE3" stroke-width="2"/>
<path d="M614.605 202.507L637.588 208.937" stroke="#9EBBE3" stroke-width="2"/>
<path d="M567.381 227.75L588.496 243.911" stroke="#9EBBE3" stroke-width="2"/>
<path d="M592.015 246.605L609.611 260.073" stroke="#9EBBE3" stroke-width="2"/>
<path d="M623.274 267.742L633.831 275.822" stroke="#9EBBE3" stroke-width="2"/>
<path d="M571.397 43.8662L579.477 33.3087" stroke="#9EBBE3" stroke-width="2"/>
<path d="M631.594 187.605L644.432 189.06" stroke="#9EBBE3" stroke-width="2"/>
</g>
<path d="M519.86 51.7996C518.296 43.6558 510.46 38.0769 502.257 39.2662L330.925 64.1082C322.722 65.2976 317.184 72.8156 318.484 80.9977L352.615 295.866C353.945 304.237 361.91 310.099 370.303 308.882L548.583 283.032C556.975 281.816 562.54 273.992 560.939 265.661L519.86 51.7996Z" fill="#066075"/>
<path d="M511.999 53.8747C511.17 49.5873 507.043 46.6524 502.724 47.2786L333.223 71.8551C328.904 72.4814 325.986 76.4377 326.665 80.7467L360.302 294.032C360.999 298.448 365.198 301.542 369.624 300.9L546.497 275.255C550.923 274.613 553.855 270.485 553.006 266.091L511.999 53.8747Z" fill="#B3D8DC"/>
<path d="M504.175 44.271L330.527 66.9847L366.297 290.029L544.945 269.315L504.175 44.271Z" fill="#93C5CA"/>
<rect width="175.055" height="225" transform="matrix(-0.991964 0.129751 0.158979 0.986863 504.175 44.2711)" fill="#F2FAF4"/>
<rect width="136.749" height="12.1445" rx="1.21447" transform="matrix(-0.992123 0.128755 0.159912 0.986741 491.097 74.2234)" fill="#DAE6F1"/>
<rect width="136.749" height="12.1445" rx="1.21447" transform="matrix(-0.992123 0.128755 0.159912 0.986741 495.952 104.183)" fill="#DAE6F1"/>
<rect width="136.749" height="48.5782" rx="1.21447" transform="matrix(-0.992123 0.128755 0.159912 0.986741 500.807 134.141)" fill="#DAE6F1"/>
<rect width="136.749" height="48.5782" rx="1.21447" transform="matrix(-0.992123 0.128755 0.159912 0.986741 511.489 200.051)" fill="#DAE6F1"/>
<path d="M487.68 170.672L480.723 164.587L482.958 162.308L486.239 165.185L490.904 151.787L493.96 152.636L487.68 170.672Z" fill="#B8C9E8"/>
<path d="M497.68 235.672L490.723 229.587L492.958 227.308L496.239 230.185L500.904 216.787L503.96 217.636L497.68 235.672Z" fill="#B8C9E8"/>
<path fill-rule="evenodd" clip-rule="evenodd" d="M424.124 22.3147C423.933 21.2268 422.892 20.4733 421.799 20.6318L397.813 24.1095C396.72 24.268 395.989 25.2785 396.18 26.3664L398.726 40.8802L383.436 43.0971C382.343 43.2556 381.611 44.266 381.802 45.354L382.821 51.1589L361.062 54.3137C359.969 54.4722 359.238 55.4826 359.429 56.5706L361.465 68.1814C361.656 69.2693 362.697 70.0228 363.79 69.8643L473.411 53.97C474.505 53.8115 475.236 52.801 475.045 51.7131L473.008 40.1023C472.818 39.0143 471.777 38.2609 470.683 38.4193L448.925 41.5742L447.907 35.7692C447.716 34.6813 446.675 33.9278 445.582 34.0863L426.67 36.8284L424.124 22.3147ZM407.865 33.7622C408.247 35.9381 410.329 37.4451 412.515 37.1281C414.701 36.8111 416.164 34.7902 415.782 32.6143C415.401 30.4384 413.319 28.9314 411.133 29.2484C408.946 29.5654 407.483 31.5863 407.865 33.7622Z" fill="#2C4153"/>
<path d="M326.125 170.902L363.961 176.917L355.34 231.148L337.826 219.313L317.505 225.134L326.125 170.902Z" fill="#B94F53"/>
<path d="M387.949 155.6L357.287 178.568L390.208 222.518L400.18 203.879L420.87 199.549L387.949 155.6Z" fill="#B94F53"/>
<path d="M403.494 119.03C396.417 112.23 390.828 105.062 386.635 96.6277C384.077 91.6041 378.973 88.5259 373.336 88.6055C363.796 88.8618 355.003 87.3545 345.657 84.1423C340.489 82.3957 334.787 83.807 331.03 87.7626C324.23 94.8394 317.062 100.429 308.628 104.621C303.604 107.18 300.526 112.283 300.605 117.92C300.831 127.337 299.354 136.253 296.142 145.599C294.396 150.768 295.807 156.47 299.763 160.227C306.839 167.027 312.429 174.194 316.621 182.629C319.18 187.652 324.283 190.731 329.92 190.651C339.46 190.395 348.253 191.902 357.599 195.114C362.768 196.861 368.47 195.449 372.227 191.494C379.026 184.417 386.194 178.828 394.629 174.635C399.652 172.077 402.731 166.973 402.651 161.336C402.395 151.796 403.902 143.003 407.114 133.657C408.861 128.489 407.449 122.787 403.494 119.03ZM363.042 185.742C337.629 192.032 311.804 176.454 305.514 151.042C299.225 125.629 314.803 99.8038 340.215 93.5142C365.627 87.2246 391.422 102.679 397.742 128.215C404.032 153.627 388.454 179.453 363.042 185.742Z" fill="#D49C4B"/>
<g filter="url(#filter0_i_9356_120475)">
<path d="M305.515 151.041C311.804 176.454 337.63 192.032 363.042 185.742C388.454 179.453 404.032 153.627 397.743 128.215C391.422 102.679 365.628 87.2245 340.215 93.5141C314.803 99.8037 299.225 125.629 305.515 151.041Z" fill="#FED980"/>
</g>
<g filter="url(#filter1_i_9356_120475)">
<path d="M311.019 149.679C316.558 172.058 339.3 185.776 361.679 180.237C384.058 174.698 397.777 151.956 392.238 129.577C386.672 107.089 363.956 93.4795 341.577 99.0183C319.199 104.557 305.48 127.3 311.019 149.679Z" fill="#FED980"/>
</g>
<path d="M349.799 167.01L331.67 149.844L337.209 143.742L345.761 151.856L356.744 115.41L364.583 117.942L349.799 167.01Z" fill="#03A895"/>
<g clip-path="url(#clip1_9356_120475)">
<path d="M93.628 290.422C93.628 290.422 76.7898 331.927 74.2691 355.134C74.2691 355.134 149.106 366.113 178.329 360.311L182.351 358.192C182.351 358.192 178.833 306.94 170.845 295.71C162.857 284.48 93.628 290.422 93.628 290.422Z" fill="white"/>
<path d="M90.2615 294.823C90.2615 294.823 77.5796 336.106 77.5796 359.871V419.401L107.038 442.703L126.61 366.448L127.937 370.822C127.937 370.822 129.315 423.635 124.834 442.703L157.693 446.006L176.833 366.688C176.833 366.688 183.477 317.863 168.106 290.026L153.436 274.656L90.2615 294.823Z" fill="#486885"/>
<g style="mix-blend-mode:multiply" opacity="0.4">
<path d="M90.2615 294.823C90.2615 294.823 77.5796 336.106 77.5796 359.871V419.401L87.1022 426.932C88.2729 378.955 100.955 304.391 104.013 290.422L90.2615 294.823Z" fill="#486885"/>
</g>
<g style="mix-blend-mode:multiply" opacity="0.6">
<g style="mix-blend-mode:multiply" opacity="0.6">
<path d="M171.002 315.041C169.221 318.583 167.294 322.059 165.473 325.579C164.566 327.33 163.681 329.099 162.857 330.89C162.171 332.267 161.63 333.713 161.244 335.202C161.001 335.966 160.989 336.785 161.21 337.556C161.31 337.807 161.478 338.025 161.696 338.186C161.914 338.347 162.173 338.444 162.443 338.465C163.128 338.509 163.815 338.403 164.454 338.153C165.336 337.842 166.196 337.47 167.025 337.037C168.901 336.1 170.694 335.012 172.531 333.991L173.147 333.651C173.366 333.539 173.147 333.21 172.957 333.327C171.159 334.298 169.411 335.364 167.602 336.318C166.767 336.768 165.909 337.174 165.031 337.534C164.365 337.824 163.658 338.012 162.936 338.092C162.679 338.117 162.42 338.09 162.174 338.014C162.077 337.976 161.985 337.927 161.899 337.868L161.86 337.841C161.841 337.819 161.821 337.798 161.799 337.779L161.743 337.718C161.703 337.679 161.743 337.718 161.703 337.668C161.56 337.457 161.473 337.213 161.451 336.959C161.419 336.572 161.438 336.182 161.507 335.799C161.762 334.499 162.178 333.236 162.745 332.039C163.541 330.259 164.426 328.502 165.283 326.767C167.047 323.314 168.924 319.922 170.694 316.474C170.907 316.056 171.12 315.637 171.327 315.219C171.439 315.007 171.108 314.812 171.002 315.029V315.041Z" fill="#486885"/>
</g>
</g>
<path d="M102.389 186.19C102.389 186.19 81.3606 196.047 76.6217 199.813C71.8828 203.579 68.5891 219.578 66.931 225.938C65.273 232.298 57.2572 261.708 57.2572 261.708L54.4172 263.125L53 268.046L54.4172 274.182L56.5458 279.125C56.5458 279.125 69.3621 267.544 77.7196 272.157L82.0216 273.245L84.6655 261.943L83.4556 261.837L89.2364 242.177C92.9091 251.612 94.4394 261.74 93.7176 271.834C92.4684 288.308 87.7295 303.749 87.2646 312.854C86.7997 321.958 85.8474 367.859 85.8474 367.859C85.8474 367.859 153.676 375.391 172.111 366.448C172.111 366.448 172.274 347.146 172.313 340.557C172.352 333.969 167.389 282.422 167.389 282.422L169.277 264.302C169.277 264.302 170.145 263.36 172.313 263.594C174.481 263.828 183.219 265.474 184.877 268.771L187.006 261.943L183.219 257.006C183.219 257.006 174.004 211.344 167.624 207.355C161.244 203.367 152.707 185.23 152.707 185.23L102.389 186.19Z" fill="white"/>
<g style="mix-blend-mode:multiply">
<path d="M143.515 284.782C143.515 284.782 160.404 287.766 164.527 287.465C168.649 287.164 154.024 283.315 154.024 283.315L143.039 280.877L143.515 284.782Z" fill="#CEDCEA"/>
</g>
<g style="mix-blend-mode:multiply">
<g style="mix-blend-mode:multiply">
<path d="M160.942 261.351C161.289 261.558 161.675 261.798 162.096 262.099C164.896 264.079 166.812 267.181 167.697 266.98C168.276 266.865 168.872 266.865 169.45 266.98L169.714 264.319L172.593 263.611L177.701 264.804C177.928 263.634 178.061 262.448 178.099 261.256C178.323 255.845 174.553 253.017 176.122 247.84C176.794 245.72 173.164 241.703 173.836 238.914C174.509 234.68 173.164 229.028 171.596 225.263C170.251 222.206 168.005 219.612 164.415 221.263L163.053 236.091C163.726 241.502 158.807 243.622 157.452 248.799C156.556 252.565 159.468 255.622 160.37 259.399C160.578 260.007 160.751 260.676 160.942 261.351Z" fill="#CEDCEA"/>
</g>
</g>
<g style="mix-blend-mode:multiply" opacity="0.4">
<g style="mix-blend-mode:multiply" opacity="0.4">
<path d="M176.021 247.823C176.732 245.703 172.907 241.686 173.612 238.897C174.324 234.663 172.907 229.012 171.254 225.246C170.941 224.55 170.566 223.884 170.134 223.254C169.984 223.343 169.853 223.461 169.749 223.601C169.645 223.741 169.57 223.9 169.529 224.069C168.901 226.111 169.613 229.558 169.927 231.6C170.333 234.169 170.543 236.765 170.554 239.366C170.554 241.876 169.529 243.527 168.823 245.803C167.876 248.939 168.112 252.392 168.263 255.605C168.504 258.59 169.338 262.461 169.182 265.362L169.288 264.319L172.313 263.583L177.69 264.777C177.93 263.608 178.07 262.421 178.11 261.229C178.34 255.828 174.369 252.983 176.021 247.823Z" fill="#CEDCEA"/>
</g>
</g>
<g style="mix-blend-mode:multiply">
<g style="mix-blend-mode:multiply">
<path d="M107.828 250.936C104.534 249.078 100.255 246.612 98.6077 243.014C96.7984 239.042 95.9414 234.328 94.3562 230.183C92.6757 226.418 91.5218 224.047 90.1046 228.51C88.7378 232.822 89.0347 237.592 89.27 242.233C92.9246 251.642 94.4546 261.736 93.7512 271.8C92.4685 288.307 87.7296 303.749 87.2646 312.854C86.7997 321.958 85.8474 367.859 85.8474 367.859C85.8474 367.859 88.4802 368.15 92.8326 368.551C93.3479 366.677 93.2079 364.791 93.3927 362.621C93.7008 359.603 93.768 356.641 94.3282 353.6C96.5583 341.757 99.8195 330.13 104.075 318.851C107.895 308.686 110.685 300.179 109.738 289.44C109.234 283.744 109.178 278.283 111.122 273.05C113.116 267.622 115.104 261.335 113.289 255.354C112.572 252.883 110.068 252.202 107.828 250.936Z" fill="#CEDCEA"/>
</g>
</g>
<g style="mix-blend-mode:multiply" opacity="0.4">
<path d="M95.3252 315.498L74.8908 279.688L94.7482 318.31C95.0301 318.8 95.4953 319.159 96.0421 319.308C96.589 319.458 97.1731 319.385 97.6666 319.107L126.134 300.508L98.2436 316.296C97.9994 316.434 97.7302 316.523 97.4513 316.558C97.1725 316.593 96.8895 316.573 96.6185 316.499C96.3475 316.425 96.0938 316.298 95.8719 316.126C95.65 315.955 95.4642 315.741 95.3252 315.498Z" fill="#CEDCEA"/>
</g>
<path d="M130.861 224.878C133.461 222.524 137.365 213.721 139.264 210.636C140.956 208.042 142.812 205.559 144.82 203.199C145.868 201.911 148.181 199.975 148.181 198.178C148.221 195.467 144.764 194.563 143.7 192.466C142.07 189.219 147.431 187.953 145.902 184.884C144.636 182.34 139.381 183.328 137.141 183.367C135.953 187.116 136.446 191.495 136.144 195.383C135.886 198.764 135.197 202.044 134.967 205.425C134.648 210.078 133.808 214.635 133.791 219.372" fill="#CEDCEA"/>
<path d="M108.186 185.23C108.629 185.023 109.025 184.729 109.351 184.365C110.595 182.653 110.505 178.787 110.673 176.739C111.122 171.267 110.309 166.14 109.878 160.751C110.192 164.656 105.957 164.048 103.89 162.324C102.294 160.74 99.4928 156.037 101.369 153.839C102.63 152.271 104.993 154.151 106.724 153.526C108.461 152.74 109.878 149.917 110.645 148.506C112.696 144.428 112.063 139.881 113.48 135.641C116.841 125.912 129.03 127.625 136.648 131.178C134.782 128.372 133.662 125.622 129.741 124.183C125.316 122.442 119.804 122.442 115.86 125.282C109.878 123.708 104.837 126.397 100.579 130.302C94.1209 136.439 91.9139 145.839 91.9139 154.291C92.0316 162.149 90.3617 169.933 87.0294 177.057C84.5087 182.552 80.7276 190.24 82.4641 196.516C84.6655 196.203 87.8192 194.909 89.7461 194.044C94.7371 191.813 104.394 187.216 108.186 185.23Z" fill="#2C4153"/>
<path d="M169.742 229.938C169.271 226.485 170.862 223.193 171.792 220.052C173.842 213.464 173.999 203.735 168.168 199.026C166.594 197.615 163.759 197.146 162.342 195.573C160.925 193.849 161.552 191.026 161.395 188.828C161.082 183.808 158.875 179.412 155.234 175.802C152.086 172.511 147.358 170.781 144.518 167.334C143.863 166.448 143.501 165.382 143.482 164.282C143.513 164.705 143.433 165.128 143.252 165.511C143.07 165.894 142.793 166.224 142.445 166.469C140.382 167.928 137.948 168.781 135.421 168.929C135 171.832 134.738 174.756 134.637 177.688C134.488 179.098 134.456 180.518 134.542 181.933C134.805 184.516 134.805 184.516 135.007 185.197C136.127 189.102 138.233 191.038 140.916 194.641C145.168 200.443 147.375 206.094 148.473 213.157C149.419 219.902 150.052 226.803 155.25 231.985C158.875 235.751 162.028 237.475 167.064 237.318C169.59 237.162 175.102 236.376 175.102 232.766C172.105 232.761 170.218 233.235 169.742 229.938Z" fill="#2C4153"/>
<path d="M143.907 155.875C143.907 151.329 142.961 147.875 141.543 143.641C140.283 139.401 140.916 136.422 137.919 132.813C137.469 132.28 137.05 131.721 136.665 131.139C129.046 127.603 116.858 125.89 113.497 135.602C112.079 139.842 112.712 144.389 110.662 148.472C109.878 149.884 108.455 152.707 106.741 153.493C105.01 154.118 102.646 152.238 101.386 153.806C99.4927 156.037 102.294 160.74 103.89 162.313C105.935 164.037 110.192 164.667 109.878 160.74C110.309 166.151 111.122 171.256 110.673 176.734C110.505 178.77 110.595 182.642 109.351 184.354C109.025 184.72 108.629 185.018 108.186 185.23C109.307 185.721 110.427 186.848 112.399 188.516C116.65 192.126 120.745 194.792 123.899 199.673C126.106 202.809 126.733 205.95 127.523 209.715C128.15 212.538 128.643 217.09 130.357 219.439C133.511 217.09 134.138 212.694 134.138 209.085C134.138 200.159 134.497 180.6 134.637 177.699C134.738 174.768 135 171.844 135.421 168.941C137.948 168.792 140.381 167.939 142.445 166.48C142.799 166.231 143.081 165.894 143.263 165.502C143.445 165.111 143.52 164.679 143.482 164.249C143.258 161.588 143.907 158.224 143.907 155.875Z" fill="#F2BD99"/>
<g style="mix-blend-mode:multiply" opacity="0.4">
<g style="mix-blend-mode:multiply" opacity="0.4">
<path d="M109.878 160.74L109.755 162.107C109.878 161.662 109.92 161.199 109.878 160.74Z" fill="#C9887E"/>
</g>
<g style="mix-blend-mode:multiply" opacity="0.4">
<path d="M134.637 177.671C134.739 174.747 135.001 171.831 135.421 168.935C134.57 168.935 133.741 168.89 132.878 168.89C125.159 168.89 115.155 167.005 109.878 160.729C110.309 166.14 111.122 171.244 110.673 176.717C110.505 178.759 110.595 182.631 109.351 184.343C109.026 184.71 108.63 185.008 108.186 185.219C109.307 185.71 110.427 186.837 112.399 188.505C116.65 192.114 120.745 194.781 123.899 199.662C126.106 202.797 126.733 205.938 127.523 209.704C128.15 212.527 128.643 217.079 130.357 219.428C133.511 217.079 134.138 212.683 134.138 209.073C134.138 200.125 134.497 180.583 134.637 177.671Z" fill="#C9887E"/>
</g>
</g>
<path d="M126.576 210.636C125.786 206.87 125.159 203.735 122.952 200.594C119.804 195.729 115.704 193.063 111.452 189.437C109.508 187.763 108.366 186.647 107.24 186.156C107.684 185.944 108.08 185.644 108.405 185.275C109.004 184.449 109.295 183.11 109.452 181.721C106.713 183.155 97.9636 188.081 96.9105 189.654C99.9801 190.48 106.125 192.36 106.125 192.36L111.166 193.436C109.838 194.847 108.366 196.116 106.775 197.224C111.307 200.266 115.369 203.951 118.829 208.164C121.243 211.38 123.487 214.718 125.551 218.167C126.968 220.521 129.097 222.758 130.867 224.861C132.29 222.858 127.209 213.464 126.576 210.636Z" fill="#CEDCEA"/>
<g style="mix-blend-mode:multiply" opacity="0.4">
<g style="mix-blend-mode:multiply" opacity="0.4">
<path d="M134.984 168.215C134.122 166.324 131.45 165.175 130.217 163.457C128.677 161.326 127.943 158.765 126.739 156.455C126.179 155.401 125.814 154.514 124.873 153.806C124.089 153.248 123.12 152.835 122.297 152.277C121.277 151.631 120.369 150.824 119.608 149.889C118.762 148.746 118.667 147.178 118.672 145.661C118.678 145.053 118.457 144.466 118.052 144.011C117.648 143.557 117.088 143.268 116.482 143.2C115.016 143.078 113.604 142.59 112.376 141.783C112.096 144.076 111.76 146.358 110.696 148.478C109.912 149.889 108.494 152.712 106.775 153.499C105.044 154.123 102.68 152.243 101.42 153.811C99.4928 156.031 102.294 160.74 103.89 162.313C105.94 164.037 110.192 164.667 109.878 160.74C110.309 166.151 111.122 171.256 110.673 176.728C110.505 178.77 110.595 182.642 109.351 184.349C109.027 184.718 108.631 185.018 108.186 185.23C109.307 185.721 110.427 186.842 112.399 188.516C114.023 189.894 115.625 191.138 117.166 192.421C118.118 191.679 118.247 190.413 118.846 188.99C120.851 184.282 122.51 178.748 126.643 175.339C128.47 173.794 136.525 171.562 134.984 168.215Z" fill="#C9887E"/>
</g>
</g>
<g style="mix-blend-mode:multiply" opacity="0.4">
<g style="mix-blend-mode:multiply" opacity="0.4">
<path d="M110.399 180.801C110.36 181.141 110.309 181.481 110.253 181.81C110.561 180.059 110.567 178.028 110.673 176.728C111.122 171.256 110.309 166.129 109.878 160.74C110.069 163.139 108.556 163.836 106.887 163.618C106.108 163.524 105.565 169.571 103.711 174.592C102.686 177.197 101.666 182.776 101.128 186.19C104.226 184.176 108.601 181.738 110.399 180.801Z" fill="#2C4153"/>
</g>
</g>
<g style="mix-blend-mode:multiply" opacity="0.4">
<g style="mix-blend-mode:multiply" opacity="0.4">
<path d="M109.912 183.161C109.856 183.317 109.811 183.484 109.749 183.629C109.811 183.484 109.856 183.317 109.912 183.161Z" fill="#2C4153"/>
</g>
</g>
<g style="mix-blend-mode:multiply" opacity="0.4">
<g style="mix-blend-mode:multiply" opacity="0.4">
<path d="M110.22 181.978C110.169 182.251 110.113 182.536 110.046 182.764C110.136 182.519 110.164 182.251 110.22 181.978Z" fill="#2C4153"/>
</g>
</g>
<g style="mix-blend-mode:multiply" opacity="0.4">
<g style="mix-blend-mode:multiply" opacity="0.4">
<path d="M97.8571 188.734C98.9326 187.155 107.654 182.229 110.399 180.801C110.36 181.141 110.309 181.481 110.253 181.811C110.561 180.059 110.567 178.028 110.673 176.728C111.122 171.256 110.309 166.129 109.878 160.74C110.192 164.645 105.957 164.037 103.89 162.313C102.294 160.74 99.4928 156.037 101.369 153.839C102.63 152.271 104.993 154.151 106.724 153.527C108.461 152.74 109.878 149.917 110.645 148.506C111.827 146.163 112.119 143.652 112.421 141.148C111.564 139.033 108.64 136.83 106.982 135.798C105.458 134.918 103.758 134.383 102.003 134.23C100.248 134.078 98.4805 134.312 96.8265 134.916C93.2303 140.64 91.8971 147.747 91.8971 154.313C92.0167 162.163 90.3526 169.938 87.0294 177.057C84.5087 182.552 80.7276 190.24 82.4641 196.516C84.6655 196.204 87.8192 194.909 89.7461 194.045C92.3564 192.873 96.2495 191.054 99.9129 189.308C99.1567 189.091 98.4453 188.89 97.8571 188.734Z" fill="#2C4153"/>
</g>
</g>
<g style="mix-blend-mode:multiply" opacity="0.4">
<g style="mix-blend-mode:multiply" opacity="0.4">
<path d="M109.912 183.161C109.856 183.317 109.811 183.484 109.749 183.629C109.811 183.484 109.856 183.317 109.912 183.161Z" fill="#2C4153"/>
</g>
</g>
<g style="mix-blend-mode:multiply" opacity="0.4">
<g style="mix-blend-mode:multiply" opacity="0.4">
<path d="M168.168 199.026C166.594 197.615 163.759 197.146 162.342 195.573C160.925 193.849 161.552 191.026 161.395 188.828C161.208 185.777 160.286 182.814 158.707 180.193C159.121 182.591 159.387 185.013 159.502 187.445C159.502 190.58 159.188 193.581 160.449 196.544C162.028 200.449 165.02 200.778 168.487 202.507C169.994 203.245 171.303 204.33 172.307 205.67C171.655 203.081 170.208 200.758 168.168 199.026Z" fill="#2C4153"/>
</g>
</g>
<g style="mix-blend-mode:multiply" opacity="0.4">
<g style="mix-blend-mode:multiply" opacity="0.4">
<path d="M161.709 233.235C157.138 230.25 153.833 224.13 153.833 219.584C153.833 212.99 153.043 209.386 152.45 202.044C152.091 197.581 149.767 191.066 147.375 187.261C144.484 182.653 140.602 173.13 135.555 168.913H135.421C135 171.816 134.738 174.74 134.637 177.671C134.488 179.081 134.456 180.501 134.542 181.916C134.805 184.499 134.805 184.499 135.007 185.18C136.127 189.085 138.233 191.021 140.916 194.625C145.168 200.427 147.375 206.078 148.473 213.14C149.419 219.885 150.052 226.786 155.25 231.968C158.875 235.734 162.028 237.458 167.064 237.302C168.991 237.179 172.666 236.688 174.279 234.864C169.422 236.052 163.126 234.016 161.709 233.235Z" fill="#2C4153"/>
</g>
</g>
<g style="mix-blend-mode:multiply" opacity="0.4">
<g style="mix-blend-mode:multiply" opacity="0.4">
<path d="M135.477 165.683C132.878 167.685 129.926 168.505 126.615 168.622C129.486 169.201 132.417 169.429 135.343 169.303C135.343 169.18 135.382 169.052 135.399 168.935C137.925 168.786 140.359 167.934 142.423 166.475C142.544 166.381 142.657 166.276 142.759 166.162C143.069 165.697 143.3 165.185 143.442 164.645C143.454 164.513 143.454 164.381 143.442 164.249C143.414 163.948 143.403 163.635 143.398 163.312C140.233 160.757 137.908 163.724 135.477 165.683Z" fill="#C9887E"/>
</g>
</g>
<g style="mix-blend-mode:multiply" opacity="0.4">
<g style="mix-blend-mode:multiply" opacity="0.4">
<path d="M134.329 149.259C134.642 149.995 135.04 150.375 135.74 150.291C136.575 150.196 137.157 149.393 137.796 148.941C138.541 148.383 138.978 148.478 139.807 148.64C141.588 148.941 141.594 146.246 140.25 145.37C137.706 143.708 134.021 148.478 134.329 149.259Z" fill="#C9887E"/>
</g>
</g>
<g style="mix-blend-mode:multiply" opacity="0.4">
<g style="mix-blend-mode:multiply" opacity="0.4">
<path d="M135.544 141.583C135.808 142.966 138.799 144.199 139.863 145.075C140.793 145.839 141.656 147.262 140.63 148.455C140.793 147.011 140.63 145.928 139.191 144.857C138.149 144.076 135.639 143.239 135.544 141.583Z" fill="#C9887E"/>
</g>
</g>
<g style="mix-blend-mode:multiply" opacity="0.4">
<g style="mix-blend-mode:multiply" opacity="0.4">
<path d="M134.474 147.702C133.354 148.997 135.079 151.356 136.715 150.085C135.69 150.269 134.368 148.779 134.474 147.702Z" fill="#C9887E"/>
</g>
</g>
<g style="mix-blend-mode:multiply" opacity="0.4">
<g style="mix-blend-mode:multiply" opacity="0.4">
<path d="M136.67 149.276C137.073 149.198 138.423 148.082 138.25 147.507C137.97 146.721 136.827 147.981 136.642 148.411C136.642 148.411 136.194 149.097 136.67 149.276Z" fill="#C9887E"/>
</g>
</g>
<g style="mix-blend-mode:multiply" opacity="0.4">
<g style="mix-blend-mode:multiply" opacity="0.4">
<path d="M139.46 147.909C139.617 146.665 140.177 146.754 140.418 147.909C140.726 149.281 139.348 148.656 139.46 147.909Z" fill="#C9887E"/>
</g>
</g>
<g opacity="0.8">
<path opacity="0.8" d="M131.83 140.601C131.926 140.288 132.049 139.903 131.713 139.742C131.366 139.612 131.005 139.524 130.637 139.479C129.949 139.306 129.24 139.229 128.531 139.251C126.819 139.29 125.152 139.806 123.719 140.74C123.159 141.114 121.361 142.648 121.361 142.972C121.983 142.715 122.588 142.352 123.21 142.096C124.081 141.766 124.974 141.494 125.882 141.281C127.545 140.939 129.26 140.939 130.923 141.281C131.134 141.31 131.347 141.255 131.517 141.127C131.687 141 131.8 140.81 131.83 140.601Z" fill="#2C4153"/>
</g>
<path opacity="0.8" d="M137.023 138.124C136.869 138.19 136.735 138.294 136.632 138.425C136.529 138.557 136.462 138.712 136.435 138.877C136.435 139.011 136.385 139.178 136.368 139.385C136.295 140.037 136.889 139.942 137.578 139.602C138.582 139.159 139.68 138.967 140.776 139.044C140.776 139.044 140.602 137.566 140.143 137.527C139.079 137.571 138.028 137.772 137.023 138.124Z" fill="#2C4153"/>
<g style="mix-blend-mode:multiply" opacity="0.6">
<g style="mix-blend-mode:multiply" opacity="0.6">
<path d="M89.6452 238.59C89.8474 237.125 90.1317 235.672 90.4967 234.239C90.8489 232.697 91.4913 231.236 92.39 229.932C92.8494 229.294 93.4617 228.78 94.1713 228.437L94.0312 228.381C94.2372 229.196 94.2791 230.044 94.1545 230.875C94.0153 231.876 93.7846 232.861 93.4655 233.82C92.8157 235.873 91.9419 237.854 91.1408 239.845C90.7385 240.8 90.3889 241.776 90.0934 242.769C90.092 242.79 90.0981 242.812 90.1107 242.829C90.1233 242.847 90.1417 242.86 90.1626 242.866C90.1836 242.872 90.2059 242.87 90.226 242.862C90.246 242.853 90.2624 242.838 90.2726 242.819C90.8858 240.923 91.5982 239.061 92.4068 237.24C93.2771 235.292 93.9145 233.25 94.3057 231.154C94.4759 230.217 94.4435 229.254 94.2105 228.331C94.2065 228.317 94.1994 228.304 94.1896 228.293C94.1799 228.283 94.1678 228.274 94.1542 228.269C94.1407 228.263 94.1261 228.261 94.1116 228.262C94.0971 228.263 94.083 228.268 94.0705 228.275C92.7373 228.883 91.8691 230.172 91.2697 231.455C90.6176 232.953 90.1457 234.522 89.8637 236.13C89.7069 236.928 89.578 237.725 89.4604 238.529C89.4604 238.652 89.6228 238.702 89.6452 238.579V238.59Z" fill="#CEDCEA"/>
</g>
</g>
<g style="mix-blend-mode:multiply" opacity="0.6">
<g style="mix-blend-mode:multiply" opacity="0.6">
<path d="M87.5839 241.826C86.6476 240.533 85.8231 239.163 85.1192 237.731C84.3095 236.204 83.7426 234.561 83.4388 232.861C83.293 232.009 83.3043 231.137 83.4724 230.289L83.3323 230.345C84.6823 231.059 85.5729 232.448 86.2731 233.754C87.0664 235.27 87.7279 236.85 88.2505 238.479C88.5082 239.243 88.7434 240.013 88.9843 240.777C89.0235 240.894 89.2083 240.844 89.1691 240.727C88.6986 239.232 88.2337 237.731 87.6567 236.264C87.0825 234.664 86.2788 233.155 85.2705 231.784C84.7827 231.13 84.1649 230.583 83.4556 230.178C83.4425 230.171 83.4282 230.168 83.4136 230.168C83.3991 230.168 83.3847 230.17 83.3714 230.176C83.3581 230.182 83.3462 230.191 83.3366 230.202C83.3269 230.212 83.3198 230.225 83.3155 230.239C83.059 231.819 83.2153 233.439 83.7693 234.942C84.3348 236.615 85.0863 238.221 86.0099 239.728C86.4524 240.482 86.9341 241.212 87.4439 241.921C87.5167 242.016 87.6791 241.921 87.6063 241.826H87.5839Z" fill="#CEDCEA"/>
</g>
</g>
<g style="mix-blend-mode:multiply" opacity="0.6">
<g style="mix-blend-mode:multiply" opacity="0.6">
<path d="M80.8845 261.853C79.7642 261.853 78.6775 261.971 77.5684 261.987C76.3824 262.069 75.1922 261.913 74.0674 261.53C73.5324 261.336 73.0786 260.969 72.7791 260.487L72.695 260.626C74.7751 260.312 76.9006 260.503 78.8903 261.184C79.4624 261.408 80.0088 261.692 80.5204 262.032C80.6268 262.099 80.7221 261.937 80.6212 261.87C78.8106 260.746 76.6968 260.202 74.566 260.314C73.9386 260.314 73.3168 260.375 72.695 260.442C72.6784 260.443 72.6623 260.448 72.6482 260.457C72.634 260.466 72.6222 260.478 72.6139 260.492C72.6056 260.506 72.601 260.523 72.6005 260.539C72.6 260.556 72.6036 260.572 72.611 260.587C73.1712 261.535 74.2915 261.898 75.3166 262.054C76.5713 262.205 77.8383 262.227 79.0976 262.121C79.6914 262.088 80.2907 262.049 80.8845 262.043C80.8985 262.047 80.9132 262.047 80.9273 262.044C80.9414 262.041 80.9547 262.035 80.9661 262.026C80.9775 262.017 80.9867 262.005 80.993 261.993C80.9994 261.98 81.0026 261.965 81.0026 261.951C81.0026 261.937 80.9994 261.922 80.993 261.909C80.9867 261.897 80.9775 261.885 80.9661 261.876C80.9547 261.867 80.9414 261.861 80.9273 261.858C80.9132 261.855 80.8985 261.855 80.8845 261.859V261.853Z" fill="#CEDCEA"/>
</g>
</g>
<g style="mix-blend-mode:multiply" opacity="0.6">
<g style="mix-blend-mode:multiply" opacity="0.6">
<path d="M58.9881 262.037C61.0606 262.037 63.1948 261.931 65.217 262.484C65.7742 262.63 66.3107 262.845 66.8134 263.125V262.975C64.2087 265.206 60.5565 264.877 57.4476 265.764C56.5842 266.008 55.764 266.385 55.0166 266.88C54.9157 266.947 55.0166 267.109 55.1118 267.042C57.9126 265.162 61.5088 265.586 64.5784 264.459C65.4426 264.15 66.2449 263.691 66.9479 263.103C66.9585 263.094 66.967 263.083 66.9728 263.07C66.9787 263.058 66.9817 263.044 66.9817 263.03C66.9817 263.017 66.9787 263.003 66.9728 262.99C66.967 262.978 66.9585 262.967 66.9479 262.958C65.1049 261.92 62.8699 261.842 60.7862 261.842H58.9993C58.9748 261.842 58.9512 261.852 58.9339 261.869C58.9166 261.886 58.9068 261.91 58.9068 261.934C58.9068 261.959 58.9166 261.982 58.9339 261.999C58.9512 262.017 58.9748 262.026 58.9993 262.026L58.9881 262.037Z" fill="#CEDCEA"/>
</g>
</g>
<g style="mix-blend-mode:multiply" opacity="0.6">
<g style="mix-blend-mode:multiply" opacity="0.6">
<path d="M68.8187 219.578C69.0092 221.81 68.1129 223.946 67.6144 226.077C67.3313 227.141 67.2142 228.242 67.2671 229.341C67.3839 230.333 67.656 231.3 68.0737 232.208C68.4515 233.008 68.7154 233.857 68.8579 234.73C68.9445 235.79 68.7815 236.856 68.3818 237.843C67.5805 239.784 66.546 241.622 65.301 243.315C64.068 245.004 63.0536 246.841 62.2817 248.783C62.1921 249.028 62.1137 249.274 62.0465 249.525C62.0432 249.537 62.0423 249.549 62.0439 249.562C62.0454 249.574 62.0495 249.586 62.0557 249.597C62.062 249.608 62.0703 249.617 62.0802 249.625C62.0902 249.633 62.1015 249.638 62.1137 249.642C62.1258 249.645 62.1385 249.646 62.151 249.644C62.1635 249.643 62.1755 249.639 62.1864 249.633C62.1973 249.626 62.2069 249.618 62.2146 249.608C62.2223 249.598 62.228 249.587 62.2313 249.575C62.8868 247.566 63.8545 245.672 65.0993 243.963C66.3332 242.26 67.4076 240.449 68.309 238.551C68.7569 237.58 69.0191 236.534 69.082 235.466C69.079 234.577 68.8981 233.697 68.5499 232.878C68.1607 232.018 67.8313 231.133 67.564 230.228C67.3477 229.121 67.3649 227.981 67.6144 226.881C68.0289 224.711 68.9588 222.619 69.0092 220.393C69.026 220.127 69.026 219.861 69.0092 219.595C69.0092 219.478 68.8075 219.478 68.8187 219.595V219.578Z" fill="#CEDCEA"/>
</g>
</g>
<g style="mix-blend-mode:multiply" opacity="0.6">
<g style="mix-blend-mode:multiply" opacity="0.6">
<path d="M179.673 255.89C178.48 255.89 177.293 255.762 176.105 255.722C174.86 255.635 173.609 255.742 172.397 256.04C171.805 256.196 171.253 256.476 170.778 256.861C170.761 256.879 170.752 256.903 170.752 256.927C170.752 256.952 170.761 256.976 170.778 256.994C171.427 257.469 172.179 257.785 172.974 257.915C173.92 258.098 174.879 258.212 175.842 258.255C176.822 258.317 177.802 258.344 178.783 258.423C179.786 258.51 180.782 258.67 181.763 258.902C183.173 259.191 184.524 259.718 185.757 260.459C185.857 260.526 185.958 260.358 185.852 260.297C184.784 259.651 183.625 259.169 182.412 258.869C181.389 258.593 180.346 258.397 179.292 258.283C177.36 258.077 175.41 258.149 173.495 257.826C172.569 257.732 171.682 257.41 170.912 256.888V257.022C171.849 256.352 172.969 255.984 174.122 255.968C175.353 255.907 176.586 255.928 177.814 256.029C178.43 256.068 179.051 256.107 179.673 256.107C179.698 256.107 179.723 256.097 179.741 256.08C179.758 256.062 179.768 256.038 179.768 256.013C179.768 255.987 179.758 255.963 179.741 255.945C179.723 255.928 179.698 255.918 179.673 255.918V255.89Z" fill="#CEDCEA"/>
</g>
</g>
<g style="mix-blend-mode:multiply" opacity="0.6">
<g style="mix-blend-mode:multiply" opacity="0.6">
<path d="M177.847 237.653C178.122 239.511 177.791 241.335 177.522 243.176C177.287 244.744 177.186 246.356 177.954 247.801C178.525 248.781 179.31 249.622 180.25 250.261C180.351 250.333 180.446 250.166 180.351 250.094C179.492 249.506 178.767 248.746 178.222 247.862C177.828 247.18 177.596 246.416 177.545 245.631C177.433 243.996 177.886 242.373 178.06 240.755C178.183 239.703 178.172 238.64 178.026 237.592C178.026 237.469 177.825 237.519 177.847 237.642V237.653Z" fill="#CEDCEA"/>
</g>
</g>
<g style="mix-blend-mode:multiply" opacity="0.6">
<g style="mix-blend-mode:multiply" opacity="0.6">
<path d="M168.896 262.573C169.03 259.901 168.605 257.223 168.375 254.568C168.145 251.912 168.011 248.989 168.823 246.361C169.246 244.93 170.016 243.623 171.064 242.557L170.901 242.512C171.545 244.186 171.361 246.071 171.097 247.784C170.795 249.776 170.274 251.728 169.792 253.686C169.557 254.646 169.327 255.611 169.17 256.587C169.17 256.704 169.333 256.755 169.35 256.637C169.652 254.774 170.184 252.95 170.621 251.114C171.14 249.192 171.44 247.218 171.517 245.229C171.552 244.28 171.406 243.334 171.086 242.44C171.081 242.424 171.072 242.41 171.06 242.399C171.049 242.388 171.034 242.381 171.018 242.377C171.003 242.373 170.986 242.373 170.971 242.377C170.955 242.381 170.941 242.389 170.929 242.401C169.992 243.352 169.272 244.494 168.817 245.748C168.372 247.017 168.114 248.344 168.05 249.686C167.871 252.52 168.257 255.349 168.521 258.16C168.682 259.625 168.74 261.1 168.694 262.573C168.694 262.696 168.879 262.696 168.885 262.573H168.896Z" fill="#CEDCEA"/>
</g>
</g>
<g style="mix-blend-mode:multiply" opacity="0.6">
<g style="mix-blend-mode:multiply" opacity="0.6">
<path d="M81.4334 199.389C82.5017 201.743 83.4111 204.166 84.1558 206.641C84.9288 209.09 85.4889 211.584 86.0491 214.094C86.6092 216.605 86.9789 219.154 87.3486 221.698C87.7183 224.242 88.0432 226.842 88.3625 229.419C88.6818 231.996 88.9899 234.473 89.3428 237C89.3876 237.318 89.438 237.642 89.4828 237.965C89.4828 238.083 89.6845 238.032 89.6677 237.915C89.2924 235.343 88.9675 232.761 88.6482 230.183C88.3289 227.606 88.0208 225.09 87.6623 222.546C87.3038 220.002 86.8949 217.436 86.402 214.898C85.909 212.359 85.3209 209.877 84.6039 207.389C83.8933 204.939 83.0309 202.536 82.0216 200.192C81.8871 199.891 81.7583 199.59 81.6183 199.294C81.5678 199.182 81.4054 199.294 81.4558 199.389H81.4334Z" fill="#CEDCEA"/>
</g>
</g>
<path d="M128.621 222.674C128.929 225.592 129.136 228.515 129.265 231.444C129.394 234.373 129.45 237.279 129.472 240.197C129.495 243.115 129.472 246.021 129.506 248.939C129.506 251.7 129.556 254.467 129.506 257.229C129.467 260.096 129.366 262.969 129.147 265.825C129.119 266.205 129.091 266.584 129.058 266.941C129.058 267.187 129.416 267.187 129.439 266.941C129.685 264.051 129.814 261.15 129.87 258.25C129.92 255.46 129.898 252.721 129.87 249.954C129.87 247.064 129.87 244.175 129.836 241.285C129.803 238.395 129.78 235.427 129.668 232.504C129.556 229.581 129.371 226.674 129.108 223.773C129.075 223.4 129.035 223.026 128.996 222.658C128.996 222.418 128.593 222.418 128.615 222.658L128.621 222.674Z" fill="#CEDCEA"/>
<path d="M133.102 267.956C133.511 264.625 133.713 261.271 133.707 257.915C133.757 253.842 133.668 249.77 133.517 245.703C133.371 241.759 133.164 237.809 132.917 233.871C132.73 230.914 132.521 227.959 132.29 225.006C132.29 224.75 132.245 224.487 132.228 224.231C132.2 224.123 132.2 224.01 132.228 223.902C132.357 223.422 132.497 222.948 132.643 222.473C132.861 221.754 133.091 221.04 133.354 220.337C133.55 219.732 133.819 219.153 134.155 218.613C134.205 218.543 134.261 218.478 134.323 218.418C134.362 218.384 134.43 218.362 134.402 218.362C134.642 218.362 134.648 217.96 134.402 217.983C133.97 218.027 133.713 218.58 133.545 218.92C133.231 219.57 132.961 220.241 132.738 220.928C132.503 221.609 132.29 222.301 132.088 222.992C131.981 223.299 131.893 223.612 131.825 223.93C131.817 224.183 131.833 224.438 131.875 224.688L131.942 225.525C131.993 226.161 132.043 226.803 132.088 227.439C132.206 229.006 132.318 230.568 132.419 232.136C132.676 236.019 132.889 239.905 133.057 243.795C133.231 247.94 133.343 252.091 133.332 256.247C133.366 259.775 133.207 263.302 132.856 266.813C132.816 267.164 132.777 267.516 132.727 267.862C132.693 268.102 133.063 268.208 133.096 267.962L133.102 267.956Z" fill="#CEDCEA"/>
<path d="M136.67 194.139L142.804 187.808C142.804 187.808 136.188 182.865 134.771 181.671L134.525 181.476C134.362 188.354 134.155 198.268 134.155 205.325C134.155 208.934 132.878 212.739 130.357 219.405C128.626 217.057 128.15 212.504 127.523 209.682C126.733 205.916 126.106 202.775 123.899 199.64C120.745 194.775 116.65 192.109 112.399 188.483C110.455 186.809 109.307 185.693 108.186 185.197C108.626 184.999 109.022 184.717 109.351 184.366C109.951 183.534 110.242 182.195 110.399 180.812C107.654 182.229 98.9326 187.155 97.8571 188.734C100.927 189.554 107.072 191.439 107.072 191.439L112.079 192.516C110.757 193.918 109.293 195.18 107.71 196.282C112.244 199.328 116.305 203.019 119.765 207.238C122.18 210.455 124.424 213.795 126.487 217.246C127.904 219.595 129.086 222.775 130.856 224.895C132.279 222.892 133.343 220.432 134.402 218.2C136.765 213.497 145.873 197.135 145.873 197.135L136.67 194.139Z" fill="white"/>
<path d="M130.167 219.422C130.307 222.406 130.475 225.391 130.643 228.348C130.828 231.544 131.007 234.741 131.153 237.943C131.298 241.145 131.422 244.292 131.466 247.471C131.506 250.534 131.5 253.608 131.27 256.648C131.001 260.146 130.57 263.678 130.951 267.181C130.996 267.594 131.052 268.001 131.119 268.408C131.158 268.648 131.528 268.548 131.489 268.308C130.929 264.827 131.27 261.284 131.556 257.803C131.814 254.696 131.886 251.594 131.858 248.476C131.83 245.357 131.724 242.216 131.584 239.092C131.444 235.968 131.27 232.677 131.085 229.469C130.917 226.457 130.744 223.45 130.598 220.437L130.548 219.4C130.548 219.16 130.156 219.16 130.167 219.4V219.422Z" fill="#CEDCEA"/>
<g style="mix-blend-mode:multiply">
<g style="mix-blend-mode:multiply">
<path d="M109.514 186.039L109.571 186.085L109.514 186.039Z" fill="#CEDCEA"/>
</g>
</g>
<g style="mix-blend-mode:multiply">
<g style="mix-blend-mode:multiply">
<path d="M112.376 188.516L111.53 187.78L112.376 188.516Z" fill="#CEDCEA"/>
</g>
</g>
<g style="mix-blend-mode:multiply">
<g style="mix-blend-mode:multiply">
<path d="M112.376 188.516C112.936 188.99 113.497 189.448 114.057 189.9C113.497 189.448 112.936 188.99 112.376 188.516Z" fill="#CEDCEA"/>
</g>
</g>
<g style="mix-blend-mode:multiply">
<g style="mix-blend-mode:multiply">
<path d="M107.71 196.282C109.293 195.18 110.757 193.918 112.079 192.516L107.072 191.439C107.072 191.439 100.91 189.554 97.8571 188.734C98.0603 188.464 98.2975 188.222 98.5629 188.014C92.2724 191.043 80.0778 197.057 76.6329 199.813C71.9052 203.578 68.6003 219.578 66.9422 225.938C65.2842 232.297 57.2572 261.708 57.2572 261.708L54.4172 263.125L53 268.046L54.4172 274.182L56.5458 279.125C58.5745 277.362 60.7629 275.789 63.0828 274.428C61.5928 270.573 60.7301 266.316 60.943 262.573C61.0214 261.223 62.7579 261.731 62.9595 260.342C64.8753 247.299 71.8548 233.067 75.2045 222.669C76.7785 218.591 80.8733 210.161 83.2595 207.651C87.3094 203.394 97.7003 208.906 103.985 208.594C110.007 208.147 112.483 206.273 113.76 201.001C111.841 199.307 109.821 197.731 107.71 196.282Z" fill="#CEDCEA"/>
</g>
</g>
<g style="mix-blend-mode:multiply">
<g style="mix-blend-mode:multiply">
<path d="M110.069 186.502L110.287 186.686L110.069 186.502Z" fill="#CEDCEA"/>
</g>
</g>
<g style="mix-blend-mode:multiply">
<g style="mix-blend-mode:multiply">
<path d="M110.696 187.043L110.993 187.3L110.696 187.043Z" fill="#CEDCEA"/>
</g>
</g>
<g style="mix-blend-mode:multiply">
<g style="mix-blend-mode:multiply">
<path d="M112.376 188.516C110.433 186.842 109.284 185.727 108.164 185.23C108.615 185.025 109.019 184.731 109.351 184.366C109.951 183.534 110.242 182.195 110.399 180.812C107.654 182.229 98.9326 187.155 97.8571 188.734C100.927 189.554 107.072 191.439 107.072 191.439L112.079 192.516C110.757 193.918 109.293 195.18 107.71 196.282C109.831 197.732 111.86 199.31 113.788 201.007C114.371 198.234 114.746 195.422 114.908 192.594L115.911 191.4C114.768 190.463 113.592 189.526 112.376 188.516Z" fill="#CEDCEA"/>
</g>
</g>
<path d="M95.3252 316.435C95.6061 316.926 96.0709 317.286 96.6179 317.437C97.1648 317.588 97.7494 317.516 98.2436 317.238L126.134 301.451C126.378 301.313 126.593 301.128 126.766 300.907C126.939 300.687 127.067 300.434 127.142 300.164C127.217 299.894 127.238 299.612 127.203 299.334C127.168 299.056 127.079 298.788 126.94 298.544L106.506 262.735C106.367 262.491 106.181 262.278 105.959 262.106C105.737 261.934 105.484 261.808 105.213 261.734C104.942 261.66 104.659 261.64 104.38 261.674C104.101 261.709 103.832 261.799 103.588 261.937L75.6918 277.725C75.4476 277.863 75.2331 278.048 75.0607 278.269C74.8883 278.49 74.7612 278.743 74.6868 279.013C74.6125 279.283 74.5922 279.564 74.6272 279.842C74.6622 280.12 74.7518 280.388 74.8908 280.631L95.3252 316.435Z" fill="#E9BB66"/>
<path d="M107.083 276.297L86.2956 288.062" stroke="white" stroke-width="2.72" stroke-miterlimit="10"/>
<path d="M111.312 283.705L90.5191 295.471" stroke="white" stroke-width="2.72" stroke-miterlimit="10"/>
<path d="M115.536 291.114L94.7483 302.879" stroke="white" stroke-width="2.72" stroke-miterlimit="10"/>
<path d="M108.528 276.258L87.2086 288.33" stroke="white" stroke-width="2.72" stroke-miterlimit="10"/>
<path d="M112.864 283.856L91.5442 295.922" stroke="white" stroke-width="2.72" stroke-miterlimit="10"/>
<path d="M117.199 291.454L95.8798 303.52" stroke="white" stroke-width="2.72" stroke-miterlimit="10"/>
<path d="M106.506 262.735C106.367 262.491 106.181 262.278 105.959 262.106C105.737 261.934 105.484 261.808 105.213 261.734C104.942 261.66 104.659 261.64 104.38 261.674C104.101 261.709 103.832 261.799 103.587 261.937L101.347 263.198L106.215 299.984C106.411 301.144 107.514 302.349 108.679 302.154L126.492 297.797L106.506 262.735Z" fill="#DFAB58"/>
<g style="mix-blend-mode:multiply">
<path d="M143.263 291.671L136.413 251.059C136.366 250.782 136.266 250.518 136.117 250.28C135.968 250.043 135.774 249.837 135.545 249.674C135.316 249.511 135.057 249.395 134.783 249.332C134.509 249.269 134.225 249.261 133.948 249.307L102.294 254.601C101.735 254.697 101.237 255.008 100.909 255.468C100.58 255.928 100.448 256.499 100.54 257.056L101.352 263.192L103.593 261.931C103.837 261.793 104.107 261.704 104.385 261.669C104.664 261.634 104.947 261.654 105.218 261.728C105.489 261.802 105.743 261.929 105.965 262.101C106.187 262.272 106.372 262.486 106.511 262.729L126.52 297.791L141.504 294.126C141.782 294.08 142.047 293.98 142.286 293.832C142.524 293.683 142.731 293.49 142.895 293.262C143.058 293.034 143.175 292.776 143.238 292.503C143.301 292.23 143.31 291.948 143.263 291.671Z" fill="#CEDCEA"/>
</g>
<path d="M107.402 297.674C107.498 298.231 107.811 298.727 108.273 299.055C108.734 299.383 109.307 299.516 109.867 299.426L141.51 294.126C142.069 294.032 142.568 293.72 142.897 293.26C143.225 292.8 143.357 292.228 143.263 291.671L136.413 251.059C136.366 250.782 136.266 250.518 136.117 250.28C135.968 250.043 135.774 249.837 135.545 249.674C135.316 249.511 135.057 249.395 134.783 249.332C134.509 249.269 134.225 249.261 133.948 249.307L102.294 254.601C101.735 254.697 101.237 255.008 100.909 255.468C100.58 255.928 100.448 256.499 100.54 257.056L107.402 297.674Z" fill="#E9BB66"/>
<path d="M132.279 263.99L108.702 267.934" stroke="white" stroke-width="2.72" stroke-miterlimit="10"/>
<path d="M133.696 272.391L110.119 276.341" stroke="white" stroke-width="2.72" stroke-miterlimit="10"/>
<path d="M135.113 280.793L111.536 284.743" stroke="white" stroke-width="2.72" stroke-miterlimit="10"/>
<path d="M69.0876 291.208C69.2565 291.37 69.4446 291.511 69.6478 291.627C68.6003 290.823 68.2754 290.567 69.0876 291.208Z" fill="#C9887E"/>
<path d="M127.433 308.96C126.094 307.961 119.636 304.988 117.81 304.106C115.306 302.896 108.618 296.625 108.931 295.052C109.245 293.641 111.609 292.073 112.852 291.286C114.583 290.171 118.364 287.677 115.373 286.578C113.009 285.797 106.708 288.62 104.501 289.406C97.7283 291.917 92.53 291.917 87.6455 285.953C85.6065 283.432 83.4107 281.044 81.4838 278.45C80.2742 276.872 79.2058 275.192 78.2909 273.429C78.0781 273 77.8932 272.57 77.7308 272.135C71.289 268.581 62.2145 274.634 58.3831 277.608C58.3831 277.725 58.4223 277.847 58.4559 277.97C58.9712 280.079 60.2596 281.97 61.6207 283.627C63.5757 285.998 69.7598 291.51 69.6758 291.604C73.2831 294.316 85.4497 303.32 92.2836 305.858C93.7456 306.416 101.022 312.921 102.59 313.863C104.159 314.806 105.907 315.347 107.52 316.229C109.188 317.063 110.992 317.598 112.847 317.808C113.844 317.964 120.342 319.632 120.129 317.25C121.249 317.4 122.369 317.874 123.49 317.808C124.167 317.821 124.824 317.578 125.327 317.127C125.837 316.636 125.708 316.151 125.742 315.52C126.447 315.481 127.052 315.459 127.523 314.868C127.993 314.276 127.775 313.495 127.814 312.815C128.934 312.815 129.444 311.883 129.209 310.856C129.024 310.103 128.061 309.406 127.433 308.96Z" fill="#F2BD99"/>
<g style="mix-blend-mode:multiply" opacity="0.4">
<g style="mix-blend-mode:multiply" opacity="0.4">
<path d="M109.688 296.754C109.161 296.023 108.859 295.415 108.931 295.08C109.245 293.669 111.609 292.101 112.852 291.314C113.413 290.952 115.239 289.468 115.939 288.899C114.522 288.776 109.581 291.66 108.758 292.837C107.52 294.762 108.158 295.772 109.688 296.754Z" fill="#C9887E"/>
</g>
</g>
<g style="mix-blend-mode:multiply" opacity="0.4">
<g style="mix-blend-mode:multiply" opacity="0.4">
<path d="M129.136 312.006C128.955 312.065 128.767 312.099 128.576 312.106C128.03 312.032 127.507 311.842 127.041 311.548C125.547 310.804 124.018 310.128 122.454 309.518C120.599 308.804 119.272 308.106 117.373 307.498L112.029 304.865C113.06 305.652 116.65 308.084 117.832 308.552C119.014 309.021 127.321 312.458 127.629 312.709L127.809 312.859C128.092 312.874 128.373 312.799 128.611 312.646C128.849 312.493 129.033 312.269 129.136 312.006Z" fill="#C9887E"/>
</g>
</g>
<g style="mix-blend-mode:multiply" opacity="0.4">
<g style="mix-blend-mode:multiply" opacity="0.4">
<path d="M125.641 314.471C124.812 314.153 117.446 311.431 116.572 311.057C115.911 310.773 109.8 307.643 109.8 307.643C111.699 308.625 114.169 310.55 115.508 311.174C116.846 311.799 122.79 313.875 124.341 314.7C124.823 314.951 125.305 315.353 125.798 315.554C126.094 315.581 126.393 315.545 126.675 315.449C126.957 315.353 127.215 315.198 127.433 314.996C127.486 314.933 127.533 314.866 127.573 314.795C126.918 314.768 126.269 314.659 125.641 314.471Z" fill="#C9887E"/>
</g>
</g>
<g style="mix-blend-mode:multiply" opacity="0.4">
<g style="mix-blend-mode:multiply" opacity="0.4">
<path d="M116.695 317.875C115.099 317.729 113.681 316.993 112.147 316.552C108.092 315.427 104.377 313.33 101.324 310.444C100.131 309.328 99.1959 307.967 97.8347 306.991C96.1332 305.851 94.2217 305.058 92.2108 304.659C92.1324 304.659 89.7909 304.279 89.2532 304.519C90.2392 305.028 91.2528 305.483 92.2892 305.88C93.7512 306.438 101.028 312.943 102.596 313.886C104.164 314.829 105.912 315.37 107.525 316.251C109.194 317.086 110.997 317.62 112.852 317.83C113.844 317.986 120.274 319.632 120.134 317.272C119.944 318.137 117.222 317.93 116.695 317.875Z" fill="#C9887E"/>
</g>
</g>
<g style="mix-blend-mode:multiply" opacity="0.4">
<g style="mix-blend-mode:multiply" opacity="0.4">
<path d="M125.462 317.004C124.672 316.948 123.887 317.294 123.07 317.138C121.181 316.718 119.347 316.085 117.603 315.252C116.986 314.968 112.001 313.06 111.138 312.547C110.875 312.396 107.038 310.511 107.038 310.511C108.719 312.184 116.398 315.492 116.785 315.665C117.619 316.033 118.902 316.904 120.331 317.3C120.723 317.367 121.12 317.456 121.512 317.556C121.736 317.556 122.106 317.679 122.425 317.752L122.616 317.785C122.892 317.831 123.171 317.85 123.451 317.841C123.86 317.831 124.263 317.742 124.638 317.579C124.906 317.408 125.164 317.222 125.411 317.021L125.462 317.004Z" fill="#C9887E"/>
</g>
</g>
<g style="mix-blend-mode:multiply" opacity="0.4">
<g style="mix-blend-mode:multiply" opacity="0.4">
<path d="M128.621 309.931L128.279 309.763C128.047 309.593 127.758 309.518 127.472 309.555C127.187 309.591 126.926 309.736 126.744 309.958C126.352 310.667 126.98 311.136 127.456 311.526C127.932 311.917 128.442 312.313 129.03 312.235C129.148 312.035 129.226 311.813 129.257 311.584C129.289 311.354 129.275 311.12 129.215 310.896C129.108 310.526 128.903 310.193 128.621 309.931Z" fill="#C9887E"/>
</g>
</g>
<g style="mix-blend-mode:multiply" opacity="0.4">
<g style="mix-blend-mode:multiply" opacity="0.4">
<path d="M125.433 312.251C124.448 312.368 124.845 313.367 125.433 313.858C126.059 314.338 126.785 314.673 127.556 314.84C127.915 314.326 127.803 313.657 127.803 313.049C127.075 312.628 126.269 312.357 125.433 312.251Z" fill="#C9887E"/>
</g>
</g>
<g style="mix-blend-mode:multiply" opacity="0.4">
<g style="mix-blend-mode:multiply" opacity="0.4">
<path d="M122.123 315.649C122.095 316.859 124.078 317.116 125.293 317.194C125.293 317.194 125.293 317.194 125.321 317.166C125.486 316.993 125.608 316.785 125.679 316.558C125.75 316.33 125.767 316.09 125.73 315.855C124.801 315.225 122.162 313.83 122.123 315.649Z" fill="#C9887E"/>
</g>
</g>
<g style="mix-blend-mode:multiply" opacity="0.4">
<g style="mix-blend-mode:multiply" opacity="0.4">
<path d="M119.569 316.435C118.857 316.273 116.925 315.258 116.768 316.63C116.639 317.746 118.628 317.981 119.793 318.07C119.882 317.997 119.955 317.907 120.008 317.806C120.06 317.704 120.092 317.593 120.101 317.478L119.569 316.435Z" fill="#C9887E"/>
</g>
</g>
<g style="mix-blend-mode:multiply" opacity="0.4">
<g style="mix-blend-mode:multiply" opacity="0.4">
<path d="M112.494 286.684C112.3 286.771 112.133 286.909 112.014 287.085C111.894 287.26 111.826 287.465 111.816 287.677C111.855 288.62 113.351 288.464 114.057 288.307C114.617 288.207 115.883 287.861 116.398 287.314C116.161 286.955 115.801 286.693 115.384 286.578C114.427 286.379 113.434 286.416 112.494 286.684Z" fill="#C9887E"/>
</g>
</g>
<g style="mix-blend-mode:multiply" opacity="0.4">
<g style="mix-blend-mode:multiply" opacity="0.4">
<path d="M96.6472 309.122C95.6677 307.197 94.0981 305.634 92.1659 304.659C82.6153 299.928 72.5382 288.687 66.8638 281.435C65.3006 279.274 64.0293 276.918 63.0828 274.428C61.4404 275.392 59.863 276.461 58.3607 277.63C58.3607 277.747 58.3999 277.87 58.4335 277.992C58.9488 280.101 60.2372 281.992 61.5983 283.649C63.5533 286.02 69.7374 291.532 69.6534 291.627C73.2607 294.338 85.4273 303.342 92.2612 305.88C92.9221 306.12 94.7146 307.537 96.6472 309.122Z" fill="#C9887E"/>
</g>
</g>
<path d="M136.413 251.059C136.33 250.568 136.077 250.122 135.699 249.798C135.32 249.474 134.839 249.292 134.34 249.285L125.652 279.488C125.578 279.758 125.559 280.04 125.595 280.318C125.632 280.596 125.723 280.863 125.863 281.106C126.004 281.349 126.191 281.561 126.414 281.732C126.638 281.902 126.893 282.027 127.164 282.098L142.092 284.737L136.413 251.059Z" fill="#DFAB58"/>
<path d="M128.33 276.352C128.257 276.623 128.238 276.905 128.275 277.182C128.311 277.46 128.402 277.727 128.543 277.97C128.683 278.212 128.87 278.425 129.093 278.595C129.316 278.766 129.57 278.891 129.842 278.963L160.83 287.248C161.101 287.32 161.384 287.339 161.663 287.302C161.942 287.266 162.21 287.175 162.454 287.035C162.697 286.895 162.911 286.709 163.082 286.487C163.253 286.265 163.378 286.012 163.451 285.741L174.172 245.965C174.245 245.695 174.264 245.413 174.227 245.135C174.191 244.858 174.1 244.59 173.959 244.348C173.819 244.105 173.632 243.893 173.409 243.722C173.186 243.552 172.932 243.427 172.66 243.354L141.672 235.07C141.401 234.998 141.118 234.979 140.839 235.015C140.56 235.052 140.292 235.143 140.048 235.282C139.805 235.422 139.591 235.609 139.42 235.831C139.249 236.053 139.124 236.306 139.051 236.576L128.33 276.352Z" fill="#E9BB66"/>
<path d="M165.014 256.018L141.924 249.842" stroke="white" stroke-width="2.72" stroke-miterlimit="10"/>
<path d="M162.796 264.247L139.706 258.071" stroke="white" stroke-width="2.72" stroke-miterlimit="10"/>
<path d="M160.583 272.475L137.488 266.299" stroke="white" stroke-width="2.72" stroke-miterlimit="10"/>
<path d="M183.723 267.164C183.829 267.224 183.912 267.316 183.96 267.426C184.009 267.537 184.02 267.66 183.992 267.778C183.46 269.792 181.006 278.483 178.329 279.833C175.298 281.362 167.484 281.457 167.484 281.457H154.791L146.949 277.647C146.395 277.378 145.925 276.966 145.586 276.454C145.248 275.941 145.055 275.347 145.028 274.735C144.984 274.475 144.994 274.209 145.057 273.953C145.119 273.697 145.233 273.456 145.392 273.245C145.392 273.245 144.563 269.948 145.75 269.597C145.75 269.597 144.445 267.477 145.509 266.3C145.509 266.3 145.157 263.125 146.809 262.885C148.435 262.537 150.032 262.067 151.587 261.48C151.825 261.395 152.084 261.387 152.327 261.456C152.57 261.525 152.785 261.668 152.943 261.865C153.076 261.994 153.17 262.159 153.213 262.34C153.257 262.52 153.249 262.709 153.189 262.885L150.948 264.453H159.351C159.351 264.453 154.629 261.34 156.634 259.945C156.634 259.945 158.315 260.102 161.25 262.082C164.185 264.063 166.33 266.623 167.154 266.969C167.75 267.18 168.401 267.18 168.997 266.969L169.389 263.722L171.103 263.633C172.661 263.556 174.222 263.71 175.735 264.09L177.808 264.609C179.036 264.921 180.225 265.368 181.354 265.943L183.723 267.164Z" fill="#F2BD99"/>
<g style="mix-blend-mode:multiply" opacity="0.4">
<path d="M173.108 267.075C175.612 266.651 177.197 265.959 177.69 264.581L175.73 264.09C174.217 263.707 172.656 263.553 171.097 263.633L169.383 263.722L168.991 266.963C168.991 266.963 170.268 267.56 173.108 267.075Z" fill="#C9887E"/>
</g>
<g style="mix-blend-mode:multiply" opacity="0.4">
<path d="M155.071 281.435C155.081 281.042 155.149 280.653 155.273 280.28C155.743 279.398 156.276 279.694 156.158 278.69C156.096 278.165 155.743 277.87 155.923 277.223C156.158 276.458 156.746 276.28 156.746 275.516C156.595 275.094 156.477 274.661 156.393 274.221C156.332 273.396 156.808 273.044 157.043 272.336C157.278 271.627 156.864 271.159 156.981 270.394C157.099 269.63 158.225 268.866 157.637 268.046C157.278 267.571 155.923 267.103 155.329 266.986C153.794 266.69 146.859 264.431 146.82 262.863L146.495 262.964C145.218 263.521 145.521 266.277 145.521 266.277C144.456 267.454 145.756 269.574 145.756 269.574C144.58 269.926 145.403 273.223 145.403 273.223C145.254 273.411 145.144 273.628 145.082 273.86C145.019 274.093 145.005 274.335 145.039 274.573C145.051 275.216 145.24 275.843 145.587 276.385C145.934 276.928 146.425 277.364 147.005 277.647L154.791 281.435H155.071Z" fill="#C9887E"/>
</g>
<g style="mix-blend-mode:multiply" opacity="0.4">
<path d="M156.46 261.758C157.278 263.086 159.345 264.453 159.345 264.453H153.497V264.481C153.497 264.481 159.609 266.294 160.454 266.3C163.944 266.327 157.116 262.155 156.46 261.758Z" fill="#C9887E"/>
</g>
<g style="mix-blend-mode:multiply" opacity="0.4">
<path d="M156.169 260.559C156.169 260.559 157.032 261.619 157.805 261.725C158.365 261.803 158.595 261.028 158.662 260.609C158.019 260.291 157.335 260.066 156.628 259.94C156.402 260.081 156.238 260.302 156.169 260.559Z" fill="#C9887E"/>
</g>
<g style="mix-blend-mode:multiply" opacity="0.4">
<path d="M145.7 269.496L145.761 269.597C145.611 269.654 145.48 269.752 145.381 269.879C145.282 270.006 145.22 270.157 145.201 270.316L153.077 272.615L145.7 269.496Z" fill="#C9887E"/>
</g>
<g style="mix-blend-mode:multiply" opacity="0.4">
<path d="M145.521 266.3C145.506 266.323 145.489 266.346 145.47 266.367L152.887 268.966L145.493 265.842C145.498 266.116 145.521 266.3 145.521 266.3Z" fill="#C9887E"/>
</g>
<g style="mix-blend-mode:multiply" opacity="0.4">
<path d="M152.416 276.776L145.386 273.184C145.387 273.204 145.387 273.225 145.386 273.245C145.178 273.467 145.057 273.756 145.044 274.06L152.416 276.776Z" fill="#C9887E"/>
</g>
<g style="mix-blend-mode:multiply" opacity="0.4">
<path d="M153.268 262.701L153.111 262.054L149.19 264.035L150.965 264.459L153.206 262.891C153.235 262.831 153.256 262.767 153.268 262.701Z" fill="#C9887E"/>
</g>
</g>
<path d="M725.64 175.776L726.59 176.367V181.551L737.516 188.819L754.31 176.601V169.608C754.31 169.608 759.769 163.207 760.361 159.057C760.361 159.057 765.695 151.106 761.545 149.331C761.545 149.331 765.578 135.695 755.71 128.345C755.71 128.345 745.868 121.935 742.075 119.568C738.283 117.201 727.682 117.326 724.048 121.235C720.714 124.794 720.714 128.586 723.931 131.903C723.931 131.903 719.664 134.512 718.831 142.813C718.466 144.808 718.306 146.836 718.356 148.864C718.597 150.881 717.881 153.864 717.647 155.031C717.414 156.198 718.589 168.783 720.789 172.108C722.99 175.434 725.64 175.776 725.64 175.776Z" fill="#E09980"/>
<g style="mix-blend-mode:multiply" opacity="0.4">
<path d="M757.777 164.874C759.006 163.113 759.884 161.132 760.361 159.039C760.361 159.039 765.695 151.088 761.545 149.313C761.545 149.313 763.695 142.029 761.011 135.245L748.143 139.02C748.143 139.02 739.058 149.447 737.725 151.58C736.391 153.714 735.225 153.855 737.283 159.198C739.342 164.54 740.542 170.199 736.683 170.199L735.291 170.591C740.542 171.249 751.602 171.624 753.343 163.557C753.512 165.239 753.202 166.934 752.452 168.449C754.285 167.241 756.069 166.04 757.777 164.874Z" fill="#E09980"/>
</g>
<path d="M723.973 131.895C723.784 132.025 723.603 132.167 723.432 132.32L723.973 131.895Z" fill="#A7BED6"/>
<path d="M755.737 128.345C755.737 128.345 745.894 121.935 742.102 119.568C738.309 117.201 727.708 117.326 724.074 121.235C720.741 124.794 720.741 128.586 723.958 131.903C723.958 131.903 731.575 125.769 739.576 127.994C747.577 130.22 746.244 133.153 744.652 136.796C744.652 136.796 748.919 137.779 749.186 141.796C749.452 145.813 749.186 152.023 749.186 152.023L752.261 153.689L757.162 152.339C757.162 152.339 759.662 148.389 761.546 149.372C761.546 149.331 765.58 135.695 755.737 128.345Z" fill="#1A3B4C"/>
<path opacity="0.4" d="M749.96 137.771C748.293 134.854 744.651 136.788 744.651 136.788C744.651 136.788 748.918 137.771 749.185 141.789C749.452 145.806 749.185 152.015 749.185 152.015C750.285 146.014 751.627 140.688 749.96 137.771Z" fill="#A7BED6"/>
<g style="mix-blend-mode:multiply" opacity="0.6">
<path d="M761.545 149.331V149.264C761.545 149.148 761.637 148.939 761.704 148.648C762.162 146.647 763.162 140.813 760.987 135.313L748.144 139.022C748.764 139.81 749.128 140.77 749.185 141.772C749.452 145.772 749.185 151.998 749.185 151.998L752.261 153.665L757.161 152.315C757.161 152.315 759.678 148.348 761.545 149.331Z" fill="#A7BED6"/>
</g>
<g opacity="0.4">
<path opacity="0.4" d="M737.068 127.602C736.647 127.35 736.296 126.997 736.047 126.575C735.798 126.153 735.659 125.675 735.642 125.185C735.66 124.237 736.004 123.324 736.618 122.601C736.905 122.239 737.261 121.937 737.666 121.714C738.071 121.491 738.516 121.351 738.976 121.301C740.269 121.196 741.57 121.323 742.818 121.676C744.26 122.01 745.677 122.51 747.144 122.676C747.277 122.676 747.219 122.901 747.086 122.885C744.677 122.543 742.385 121.501 739.926 121.46C738.934 121.378 737.948 121.676 737.168 122.293C736.485 122.908 736.032 123.737 735.884 124.643C735.792 125.181 735.862 125.735 736.084 126.233C736.307 126.732 736.672 127.153 737.134 127.444C737.251 127.519 737.134 127.702 737.034 127.627L737.068 127.602Z" fill="#A7BED6"/>
</g>
<g opacity="0.4">
<path opacity="0.4" d="M730.357 128.435C727.515 128.193 727.199 124.426 727.782 122.276C728.615 119.25 732.116 118.642 734.816 118.525C736.674 118.478 738.532 118.531 740.384 118.684C740.517 118.684 740.517 118.9 740.384 118.892C738.85 118.8 737.317 118.692 735.783 118.709C734.213 118.666 732.646 118.875 731.141 119.325C730.503 119.498 729.91 119.805 729.401 120.227C728.892 120.648 728.479 121.173 728.19 121.767C727.736 122.925 727.615 124.186 727.84 125.409C728.082 126.776 728.849 128.126 730.341 128.26C730.474 128.26 730.474 128.476 730.341 128.468L730.357 128.435Z" fill="#A7BED6"/>
</g>
<g style="mix-blend-mode:multiply">
<path d="M727.715 155.189L727.64 154.889C727.64 154.889 727.64 153.306 725.974 154.106C725.082 154.531 725.048 155.347 725.357 156.214C725.5 156.081 725.608 155.915 725.674 155.731C725.865 155.172 727.182 155.164 727.715 155.189Z" fill="#E09980"/>
</g>
<g style="mix-blend-mode:multiply">
<path d="M722.357 155.44C721.824 155.49 721.524 156.19 722.115 157.273C722.741 156.856 723.716 156.29 723.957 156.565L723.416 155.973C723.299 155.802 723.14 155.663 722.955 155.57C722.77 155.476 722.564 155.432 722.357 155.44Z" fill="#E09980"/>
</g>
<g style="mix-blend-mode:multiply" opacity="0.4">
<path d="M729.709 153.139C729.561 152.87 729.33 152.657 729.05 152.53C723.883 150.255 722.383 152.772 722.383 152.772C722.099 153.3 721.77 153.802 721.399 154.272C721.213 154.493 721.056 154.736 720.932 154.997C720.932 155.097 720.932 155.197 720.932 155.297C721.055 156.115 721.281 156.913 721.607 157.673C721.607 157.673 723.641 156.173 723.999 156.589C724.358 157.006 725.483 156.473 725.716 155.756C725.95 155.039 727.983 155.222 727.983 155.222C730.567 155.372 730.109 153.897 729.709 153.139Z" fill="#E09980"/>
</g>
<g style="mix-blend-mode:multiply">
<path d="M724.658 141.421C724.639 141.411 724.618 141.405 724.596 141.405C724.574 141.405 724.553 141.411 724.533 141.421C724.515 141.434 724.5 141.452 724.49 141.472C724.48 141.492 724.475 141.515 724.475 141.537L724.733 145.046C724.791 145.795 724.641 146.545 724.3 147.213C723.466 148.88 721.891 151.98 721.566 152.497C721.125 153.206 720.099 154.097 720.499 155.831C720.899 157.564 721.566 157.656 721.566 157.656C721.566 157.656 720.691 155.564 720.933 154.989C721.05 154.724 721.204 154.477 721.391 154.256C721.83 153.71 722.207 153.117 722.516 152.489C723.38 150.815 724.145 149.093 724.808 147.33C725.051 146.911 725.158 146.428 725.117 145.946C725.117 145.213 724.95 142.713 724.908 141.871C724.905 141.781 724.881 141.694 724.837 141.616C724.794 141.538 724.733 141.471 724.658 141.421Z" fill="#E09980"/>
</g>
<g style="mix-blend-mode:multiply">
<path d="M729.975 153.856C729.975 153.806 729.975 153.765 729.975 153.723C729.915 153.524 729.837 153.332 729.742 153.148C729.675 153.035 729.594 152.931 729.5 152.84C729.833 154.115 729.267 154.648 728.667 154.865C728.525 154.865 727.783 155.198 727.783 155.198H728.617C728.725 155.207 728.834 155.207 728.942 155.198C729.908 155.006 730.083 154.415 729.975 153.856Z" fill="#E09980"/>
</g>
<path d="M727.749 142.671C727.749 142.671 727.157 142.471 727.107 141.529C727.057 140.588 727.657 139.863 729.608 139.354C732.353 138.704 735.235 138.946 737.834 140.046C738.002 140.13 738.142 140.261 738.235 140.425C738.329 140.588 738.372 140.775 738.359 140.963C738.359 141.371 738.125 141.796 737.25 141.921C735.517 142.121 727.749 142.671 727.749 142.671Z" fill="#1A3B4C"/>
<path d="M718.44 145.23C719.831 144.31 721.423 143.738 723.082 143.563C723.082 143.563 724.457 141.604 722.682 140.979C720.907 140.354 719.215 141.921 718.79 142.454C718.365 142.988 718.065 145.046 718.44 145.23Z" fill="#A7BED6"/>
<path d="M718.44 145.23C719.831 144.31 721.423 143.738 723.082 143.563C723.082 143.563 724.457 141.604 722.682 140.979C720.907 140.354 719.215 141.921 718.79 142.454C718.365 142.988 718.065 145.046 718.44 145.23Z" fill="#1A3B4C"/>
<path d="M736.701 145.188L735.776 145.246L735.951 146.913C736.016 147.495 735.909 148.084 735.643 148.605L735.418 149.022C735.163 149.509 734.78 149.918 734.31 150.203C733.84 150.488 733.3 150.639 732.751 150.639H729.584C728.87 150.623 728.172 150.429 727.552 150.076C726.932 149.722 726.41 149.22 726.033 148.613L725.791 147.88C725.62 147.342 725.592 146.769 725.708 146.217C725.825 145.664 726.084 145.152 726.458 144.73C726.716 144.551 726.996 144.408 727.292 144.305L736.701 143.438V145.188ZM735.376 146.855L735.201 145.255L734.993 144.838C734.905 144.674 734.774 144.538 734.613 144.445C734.453 144.353 734.269 144.307 734.084 144.313L727.967 144.655C727.667 144.672 727.378 144.773 727.133 144.946C725.3 145.963 726.65 148.48 726.65 148.48C726.942 148.996 727.378 149.417 727.905 149.689C728.432 149.961 729.027 150.074 729.617 150.014H732.692C733.784 150.014 734.301 149.872 734.809 148.905L735.018 148.497C735.294 147.999 735.418 147.431 735.376 146.863V146.855Z" fill="#71A2D0"/>
<path d="M713.539 146.19L721.873 145.306C722.162 145.348 722.443 145.432 722.706 145.556C723.129 145.904 723.463 146.346 723.683 146.847C723.904 147.348 724.003 147.893 723.973 148.44L723.915 149.182C723.736 149.813 723.396 150.388 722.926 150.847C722.457 151.306 721.875 151.634 721.24 151.799L718.489 152.382C717.993 152.477 717.479 152.427 717.009 152.24C716.54 152.052 716.134 151.734 715.839 151.323L715.564 150.965C715.213 150.501 714.994 149.951 714.931 149.373L714.747 147.765L713.914 147.881L713.539 146.19ZM716.039 150.765L716.306 151.123C716.512 151.465 716.835 151.721 717.214 151.844C717.593 151.968 718.004 151.952 718.373 151.799L721.048 151.232C721.587 151.163 722.092 150.932 722.495 150.568C722.899 150.205 723.182 149.727 723.307 149.198C723.307 149.198 723.965 146.54 722.156 145.864C721.917 145.745 721.646 145.702 721.381 145.739L715.989 146.573C715.823 146.608 715.671 146.69 715.551 146.81C715.431 146.93 715.349 147.082 715.314 147.248L715.214 147.681L715.397 149.273C715.474 149.82 715.699 150.336 716.047 150.765H716.039Z" fill="#71A2D0"/>
<path d="M722.824 145.939C724.027 146.153 725.267 145.935 726.324 145.322L726.216 146.214C726.216 146.214 725.708 146.889 723.291 146.698C722.757 146.197 722.824 145.939 722.824 145.939Z" fill="#71A2D0"/>
<path d="M736.701 143.413L758.162 150.972L757.287 152.114L736.701 145.188V143.413Z" fill="#71A2D0"/>
<g style="mix-blend-mode:multiply" opacity="0.6">
<path d="M753.36 163.559C753.36 163.559 754.552 172.218 744.709 172.46C744.709 172.46 725.882 171.985 725.448 174.127C725.448 174.127 724.665 174.36 725.615 175.793C726.565 177.227 721.565 173.893 721.565 173.893C721.565 173.893 721.956 170.101 724.44 169.859C727.247 169.623 730.073 169.743 732.849 170.218C735.216 170.676 751.227 173.443 753.36 163.559Z" fill="#E09980"/>
</g>
<g opacity="0.6">
<g style="mix-blend-mode:multiply" opacity="0.6">
<path d="M728.891 179.535C728.911 179.551 728.936 179.559 728.962 179.559C728.987 179.559 729.012 179.551 729.032 179.535C729.042 179.526 729.049 179.515 729.054 179.503C729.059 179.49 729.062 179.477 729.062 179.464C729.062 179.451 729.059 179.438 729.054 179.426C729.049 179.414 729.042 179.403 729.032 179.393L726.532 176.585V178.127L728.891 179.535Z" fill="#E09980"/>
</g>
</g>
<path d="M754.969 176.134L737.467 188.819L726.158 181.318L725.157 188.819C725.157 188.819 708.339 199.137 705.672 199.312C705.672 199.312 707.088 213.547 706.555 216.747C705.977 222.018 706.098 227.343 706.913 232.583C707.805 237.742 711.364 249.31 709.414 250.727C708.305 251.503 707.34 252.468 706.563 253.577C706.563 253.577 707.814 260.694 707.28 262.828C706.547 267.064 706.547 271.394 707.28 275.63C708.164 280.63 708.522 280.805 707.28 286.673C706.038 292.54 706.388 294.857 707.28 295.391L709.23 300.199L734.317 301.441C736.696 301.267 739.081 301.694 741.251 302.683C744.276 304.283 750.144 304.817 752.811 305.183C755.478 305.55 773.805 306.25 773.805 306.25L785.898 305.358L787.682 299.524C787.682 299.524 792.124 296.682 791.591 290.273C791.057 283.864 791.591 271.938 791.591 271.938C791.591 271.938 782.315 243.959 782.315 241.475C782.315 238.992 784.815 196.17 789.607 190.361C788.712 189.603 787.579 189.184 786.407 189.177C784.448 189.177 767.913 187.394 765.571 185.977C763.229 184.56 755.645 182.06 754.969 176.134Z" fill="#CEDCEA"/>
<g style="mix-blend-mode:multiply" opacity="0.4">
<path d="M764.587 305.842C769.396 306.067 773.822 306.234 773.822 306.234L785.915 305.342L787.698 299.508C787.698 299.508 792.141 296.666 791.607 290.257C791.074 283.848 791.607 271.921 791.607 271.921C791.607 271.921 782.314 243.959 782.314 241.476C782.314 238.992 784.815 196.17 789.607 190.361C788.712 189.603 787.579 189.185 786.406 189.178C785.573 189.178 782.239 188.869 778.489 188.411L778.322 188.819C778.322 188.819 776.797 231.9 768.496 235.533C760.195 239.167 768.954 260.762 769.329 265.095C770.028 272.146 770.332 279.23 770.238 286.315C770.238 299.15 768.796 300.8 766.662 303.334C764.92 305.451 764.637 305.792 764.587 305.842Z" fill="#BBCDE0"/>
</g>
<g style="mix-blend-mode:multiply" opacity="0.4">
<path d="M783.09 229.549L782.006 217.931C782.688 209.563 784.749 201.365 788.107 193.67C788.425 192.478 788.947 191.35 789.649 190.336C789.029 189.814 788.291 189.451 787.499 189.277L787.357 189.877C787.357 189.877 778.056 205.713 780.381 227.316C781.948 228.599 783.09 229.549 783.09 229.549Z" fill="#A7BED6"/>
</g>
<path d="M726.182 181.293L725.182 188.818L727.816 198.511L735.1 189.902L737.492 188.818L726.182 181.293Z" fill="white"/>
<path d="M760.455 183.235C757.871 181.66 755.329 179.426 754.971 176.134L737.468 188.819L748.145 194.87C748.145 194.87 757.738 186.935 760.455 183.235Z" fill="white"/>
<path d="M760.454 183.235L734.15 206.521L722.54 190.419L719.248 192.369L733.267 211.947C733.267 211.947 760.92 189.352 763.862 185.277L760.454 183.235Z" fill="#A7BED6"/>
<path d="M734.151 206.521L760.455 183.235C757.871 181.66 755.329 179.426 754.971 176.134L737.468 188.819L726.159 181.318L725.158 188.819C725.158 188.819 724.117 189.46 722.516 190.419L734.151 206.521Z" fill="white"/>
<path d="M734.15 206.521L739.734 201.579L738.509 197.978H732.734L730.575 201.554L734.15 206.521Z" stroke="white" stroke-miterlimit="10"/>
<path d="M737.492 188.819L735.1 189.903L731.658 193.97L732.733 197.979H738.509L742.934 191.92L737.492 188.819Z" fill="#71A2D0"/>
<path d="M765.121 217.056L758.712 212.998C758.712 212.998 749.777 206.013 748.061 202.855C746.344 199.696 743.277 196.354 742.477 196.245C741.676 196.137 731.058 193.903 730.192 194.579C729.325 195.254 726.666 196.504 726.233 197.737C725.799 198.971 722.707 202.154 722.782 204.138L723.274 206.188C723.274 206.188 722.691 211.089 725.216 209.889C725.216 209.889 724.608 212.731 725.516 213.031C726.424 213.331 728.208 212.881 728.316 212.039C728.425 211.197 728.758 209.43 728.758 209.43L733.717 209.847C734.855 211.09 735.902 212.413 736.851 213.806C738.718 216.465 743.41 221.157 745.869 221.407C747.483 221.612 749.046 222.115 750.478 222.89L751.703 225.899C751.703 225.899 759.979 228.066 760.187 228.174C760.395 228.283 765.121 217.056 765.121 217.056Z" fill="#E09980"/>
<path d="M756.57 212.364L756.27 212.131C756.206 212.076 756.125 212.046 756.041 212.046C755.957 212.046 755.875 212.076 755.812 212.131L754.736 213.114C754.671 213.181 754.635 213.271 754.635 213.364C754.635 213.458 754.671 213.548 754.736 213.614L755.036 213.948L756.57 212.364Z" fill="#EEF5FB"/>
<path d="M764.562 215.548L764.704 213.723L761.129 210.939L759.953 211.522C761.045 211.63 762.076 212.076 762.902 212.797C763.729 213.519 764.309 214.48 764.562 215.548Z" fill="#71A2D0"/>
<path d="M754.237 217.289C754.237 217.289 751.737 221.457 749.395 222.915L751.112 225.165C753.043 224.311 754.874 223.246 756.571 221.99L757.504 221.615C756.618 221.259 755.846 220.668 755.27 219.906C754.695 219.143 754.338 218.239 754.237 217.289Z" fill="#71A2D0"/>
<g style="mix-blend-mode:multiply" opacity="0.4">
<path d="M762.787 212.288L762.328 211.947C762.328 211.947 752.86 223.615 750.66 224.607L750.994 225.24C754.752 222.615 760.87 214.805 762.787 212.288Z" fill="#71A2D0"/>
</g>
<path d="M764.704 216.781C764.704 217.82 764.396 218.835 763.819 219.698C763.242 220.562 762.422 221.235 761.463 221.632C760.503 222.03 759.448 222.134 758.429 221.931C757.41 221.728 756.475 221.228 755.741 220.494C755.006 219.76 754.506 218.824 754.304 217.806C754.101 216.787 754.205 215.731 754.602 214.772C755 213.812 755.673 212.992 756.536 212.415C757.4 211.838 758.415 211.53 759.453 211.53C760.143 211.529 760.826 211.664 761.464 211.928C762.102 212.191 762.681 212.578 763.169 213.066C763.656 213.554 764.043 214.133 764.307 214.771C764.57 215.408 764.705 216.091 764.704 216.781Z" fill="#EEF5FB"/>
<path d="M763.979 216.781C763.979 217.671 763.715 218.541 763.22 219.281C762.726 220.021 762.023 220.598 761.201 220.939C760.378 221.279 759.473 221.369 758.6 221.195C757.727 221.021 756.925 220.593 756.296 219.963C755.666 219.334 755.238 218.532 755.064 217.659C754.89 216.786 754.98 215.881 755.32 215.058C755.661 214.236 756.238 213.533 756.978 213.039C757.718 212.544 758.588 212.28 759.478 212.28C760.07 212.279 760.655 212.395 761.202 212.621C761.748 212.846 762.245 213.178 762.663 213.596C763.081 214.014 763.413 214.511 763.638 215.057C763.864 215.604 763.98 216.189 763.979 216.781Z" fill="#CEDCEA"/>
<g style="mix-blend-mode:multiply" opacity="0.6">
<path d="M762.104 212.223C761.271 213.248 758.204 216.965 755.437 220.074C755.596 220.266 755.768 220.447 755.953 220.615C758.67 217.623 761.346 214.223 762.621 212.548C762.455 212.429 762.283 212.32 762.104 212.223Z" fill="#EEF5FB"/>
</g>
<path d="M763.387 211.496C763.387 211.496 754.728 223.165 750.402 225.665V225.898L757.986 234.791H758.52C758.736 236.372 759.328 237.878 760.245 239.183C761.72 241.2 767.354 247.009 768.579 249.385C769.804 251.76 778.839 263.195 780.139 263.553C780.676 263.666 781.183 263.895 781.623 264.223C782.063 264.551 782.427 264.971 782.689 265.453C783.164 266.337 786.132 270.904 789.274 272.387C792.416 273.871 803.2 274.821 805.517 271.912C807.834 269.004 812.752 264.411 809.901 255.244C807.051 246.076 808.068 243.034 807.651 240.658C807.149 237.937 806.436 235.259 805.517 232.649C804.926 231.291 804.626 226.307 805.101 223.281C805.576 220.256 804.334 219.072 804.334 219.072C804.334 219.072 804.684 216.464 804.809 214.905C804.934 213.347 799.35 186.443 789.624 190.36C785.367 198.989 782.774 208.342 781.981 217.931L783.064 229.549C783.064 229.549 773.555 221.681 772.013 221.214L771.955 219.698C771.955 219.698 766.587 213.013 763.387 211.496Z" fill="white"/>
<g style="mix-blend-mode:multiply" opacity="0.4">
<path d="M750.403 225.64C751.377 225.032 752.28 224.316 753.095 223.507L753.453 223.948L760.579 232.616C760.579 232.616 762.246 237.883 762.329 237.85C762.412 237.817 771.172 247.376 772.039 251.368C772.905 255.361 782.232 261.37 782.232 261.37C782.232 261.37 791.483 263.303 789.149 265.07C788.074 265.904 785.815 266.404 783.532 266.695C783.123 266.095 782.84 265.628 782.698 265.403C782.436 264.921 782.072 264.501 781.632 264.173C781.192 263.845 780.685 263.616 780.148 263.503C778.848 263.145 769.83 251.702 768.588 249.335C767.346 246.968 761.704 241.15 760.254 239.133C759.337 237.828 758.745 236.322 758.529 234.741H757.995L750.411 225.848L750.403 225.64Z" fill="#DBE7EF"/>
</g>
<g style="mix-blend-mode:multiply" opacity="0.4">
<g style="mix-blend-mode:multiply" opacity="0.4">
<path d="M789.299 272.362C786.74 271.154 784.298 267.903 783.223 266.253C785.957 266.387 789.424 266.712 792.633 267.087C793.828 267.215 795.036 267.091 796.181 266.723C797.325 266.356 798.379 265.752 799.276 264.952C800.173 264.152 800.892 263.173 801.387 262.078C801.882 260.982 802.142 259.796 802.15 258.594C802.209 251.635 802.334 243.084 802.626 240.917V240.808C801.9 239.666 802.626 236.124 802.417 234.766C801.852 231.204 800.91 227.712 799.608 224.348C798.667 221.639 797.525 218.931 796.691 216.122C795.958 213.722 796.066 211.121 796.166 208.621C796.275 205.596 796.9 201.745 795.858 198.828C794.933 196.519 790.749 194.953 788.14 193.611C788.899 191.86 789.457 190.76 789.607 190.469L789.774 190.352C799.417 186.701 804.951 213.397 804.834 214.93C804.717 216.464 804.359 219.097 804.359 219.097C804.359 219.097 805.601 220.289 805.126 223.306C804.651 226.323 804.951 231.315 805.543 232.674C806.461 235.284 807.175 237.962 807.676 240.683C808.093 243.059 807.084 246.076 809.926 255.268C812.768 264.461 807.851 269.029 805.543 271.937C803.234 274.846 792.441 273.846 789.299 272.362Z" fill="#DBE7EF"/>
</g>
</g>
<g style="mix-blend-mode:multiply" opacity="0.4">
<path d="M780.598 230.266L777.314 224.907C780.181 227.133 783.09 229.55 783.09 229.55L782.006 217.932C782.154 215.587 782.433 213.253 782.84 210.939L786.557 228.166L793.225 244.71L780.598 230.266Z" fill="#DBE7EF"/>
</g>
<path d="M786.574 204.205C789.074 203.155 791.2 201.321 793.867 200.763C794.645 200.605 795.443 200.563 796.234 200.638C796.253 200.64 796.272 200.647 796.287 200.658C796.303 200.67 796.315 200.685 796.323 200.703C796.331 200.721 796.333 200.741 796.331 200.76C796.328 200.779 796.321 200.798 796.309 200.813C795.228 202.003 793.965 203.013 792.566 203.805C791.127 204.676 789.638 205.464 788.107 206.164C787.982 206.222 787.874 206.039 787.999 205.98C789.504 205.296 790.967 204.525 792.383 203.672C793.796 202.879 795.071 201.863 796.159 200.663L796.234 200.846C794.861 200.734 793.481 200.96 792.216 201.505C791.038 202.047 789.891 202.656 788.783 203.33C788.102 203.721 787.401 204.074 786.682 204.388C786.557 204.438 786.449 204.255 786.574 204.205Z" fill="#E1E9FE"/>
<path d="M804.542 221.105C801.459 219.28 798.825 216.822 795.825 214.88C795.807 214.87 795.793 214.857 795.782 214.84C795.772 214.823 795.767 214.804 795.767 214.784C795.767 214.764 795.772 214.745 795.782 214.728C795.793 214.711 795.807 214.697 795.825 214.688C797.375 214.397 798.973 214.497 800.475 214.98C801.309 215.188 802.142 215.421 802.917 215.613C803.309 215.705 803.701 215.796 804.101 215.863C804.301 215.863 804.717 215.863 804.859 216.063C804.871 216.082 804.877 216.103 804.877 216.126C804.877 216.148 804.871 216.169 804.859 216.188C804.809 216.23 804.509 216.188 804.509 216.238C804.509 216.288 804.284 216.313 804.309 216.188C804.32 216.148 804.342 216.111 804.373 216.083C804.404 216.055 804.443 216.036 804.484 216.03H804.634C804.692 216.03 804.767 216.03 804.709 216.03V216.155C804.709 216.205 804.551 216.155 804.517 216.155H804.326L803.784 216.063C803.401 215.996 803.026 215.905 802.642 215.813C801.892 215.63 801.159 215.421 800.409 215.23C798.957 214.766 797.414 214.669 795.916 214.946V214.755C798.908 216.705 801.55 219.164 804.626 220.98C804.742 221.047 804.626 221.23 804.526 221.164L804.542 221.105Z" fill="#E1E9FE"/>
<path d="M783.323 230.19C784.907 232.074 786.657 233.841 787.757 236.091C788.04 236.684 788.285 237.293 788.491 237.916C788.724 238.625 788.899 239.342 789.116 240.058C789.574 241.534 790.191 242.959 790.699 244.417C791.328 245.966 791.612 247.632 791.533 249.301C791.532 249.317 791.528 249.333 791.52 249.347C791.513 249.361 791.502 249.373 791.49 249.383C791.477 249.392 791.462 249.399 791.447 249.402C791.431 249.405 791.415 249.405 791.399 249.401C791.066 249.335 790.816 248.935 790.641 248.668C790.295 248.135 789.989 247.578 789.724 247.001C789.058 245.567 788.491 244.092 787.924 242.617C787.699 242.025 787.474 241.425 787.241 240.825C787.191 240.7 787.391 240.65 787.441 240.775C787.907 241.942 788.332 243.134 788.799 244.301C789.307 245.668 789.915 246.997 790.616 248.276C790.791 248.568 791.074 249.168 791.449 249.243L791.316 249.343C791.399 247.862 791.172 246.38 790.649 244.992C790.174 243.551 789.574 242.15 789.091 240.708C788.607 239.267 788.332 237.95 787.749 236.633C787.294 235.594 786.709 234.616 786.007 233.724C785.107 232.574 784.107 231.499 783.165 230.391C783.082 230.282 783.223 230.14 783.315 230.24L783.323 230.19Z" fill="#E1E9FE"/>
<path d="M780.79 263.254C781.468 263.322 782.151 263.336 782.832 263.295C783.74 263.295 784.649 263.22 785.557 263.204C787.322 263.056 789.099 263.249 790.791 263.77C791.409 263.969 791.943 264.368 792.308 264.904C792.447 265.083 792.523 265.302 792.523 265.529C792.523 265.755 792.447 265.975 792.308 266.154C791.905 266.516 791.397 266.74 790.858 266.796C790.114 266.922 789.362 266.986 788.608 266.987C786.999 266.987 785.399 266.837 783.79 266.837C783.657 266.837 783.657 266.621 783.79 266.629C785.107 266.629 786.424 266.762 787.741 266.779C788.528 266.797 789.316 266.769 790.1 266.696C790.703 266.664 791.295 266.514 791.841 266.254C791.937 266.214 792.024 266.156 792.096 266.082C792.169 266.008 792.226 265.92 792.264 265.824C792.302 265.727 792.32 265.624 792.318 265.521C792.315 265.417 792.292 265.315 792.25 265.221C791.952 264.647 791.445 264.211 790.833 264.004C789.222 263.477 787.522 263.276 785.832 263.412C784.866 263.412 783.89 263.47 782.915 263.504C782.198 263.545 781.479 263.529 780.765 263.454C780.632 263.454 780.69 263.229 780.823 263.254H780.79Z" fill="#E1E9FE"/>
<path d="M766.629 227.165C768.721 225.248 770.905 223.356 771.938 220.63C771.988 220.505 772.188 220.564 772.138 220.689C771.096 223.447 768.904 225.373 766.779 227.315C766.679 227.406 766.529 227.256 766.629 227.165Z" fill="#E1E9FE"/>
<g style="mix-blend-mode:multiply" opacity="0.4">
<g style="mix-blend-mode:multiply" opacity="0.4">
<path d="M709.348 264.213C710.564 267.321 711.94 270.355 713.415 273.38C714.89 276.406 716.407 279.215 717.94 282.148C718.26 282.724 718.523 283.33 718.724 283.957C718.849 284.301 718.891 284.669 718.849 285.032C718.732 285.59 718.182 285.649 717.707 285.54C716.886 285.287 716.116 284.892 715.432 284.374C714.398 283.656 713.441 282.835 712.573 281.923C710.733 279.969 709.242 277.714 708.164 275.256L707.739 274.289C707.689 274.164 707.864 274.056 707.914 274.181C708.9 276.618 710.255 278.889 711.931 280.915C712.791 281.929 713.755 282.851 714.807 283.665C715.523 284.237 716.303 284.724 717.132 285.115C717.482 285.274 718.357 285.649 718.599 285.115C718.693 284.795 718.679 284.452 718.557 284.14C718.38 283.527 718.137 282.934 717.832 282.373C716.374 279.581 714.89 276.814 713.49 274.039C711.915 270.863 710.439 267.638 709.148 264.338C709.106 264.213 709.306 264.154 709.348 264.279V264.213Z" fill="#BBCDE0"/>
</g>
</g>
<g style="mix-blend-mode:multiply" opacity="0.4">
<g style="mix-blend-mode:multiply" opacity="0.4">
<path d="M735.042 301.359C732.383 301.584 730.041 299.692 728.282 297.891C726.149 295.603 724.37 293.007 723.007 290.19C722.373 288.953 721.843 287.665 721.423 286.34C721.416 286.32 721.416 286.299 721.421 286.278C721.427 286.258 721.439 286.24 721.456 286.227C721.473 286.214 721.493 286.207 721.514 286.206C721.535 286.206 721.556 286.212 721.573 286.223C723.807 287.173 725.649 288.899 727.407 290.491C728.357 291.324 729.308 292.157 730.316 292.991C731.325 293.824 732.491 294.558 733.65 295.283C735 296.166 736.383 297 737.817 297.783C737.925 297.85 737.817 298.033 737.709 297.966C735.277 296.586 732.918 295.081 730.641 293.458C728.616 291.966 726.857 290.124 724.899 288.582C723.868 287.718 722.728 286.995 721.507 286.432L721.657 286.315C722.484 288.873 723.665 291.302 725.165 293.533C726.011 294.85 726.955 296.101 727.991 297.275C728.934 298.356 730.022 299.301 731.224 300.083C732.356 300.856 733.706 301.242 735.075 301.184C735.208 301.184 735.208 301.384 735.075 301.392L735.042 301.359Z" fill="#BBCDE0"/>
</g>
</g>
<path d="M674.359 317.268C675.332 317.937 676.459 318.347 677.634 318.46C678.801 318.643 679.976 318.685 681.143 318.785C681.409 318.785 681.409 319.219 681.143 319.202C678.784 319.002 676.025 319.077 674.058 317.535C673.85 317.368 674.15 317.077 674.359 317.243V317.268Z" fill="#E1E9FE"/>
<path d="M773.822 306.233C773.822 306.233 755.486 305.525 752.828 305.167C750.169 304.808 744.293 304.275 741.268 302.666C739.097 301.677 736.713 301.25 734.334 301.424L709.247 300.183V309.067H718.765L732.933 309.9C732.933 309.9 740.901 308.917 743.918 310.734C746.935 312.551 755.653 314.409 760.42 313.693C765.187 312.976 768.271 312.509 769.338 312.742C770.405 312.976 788.432 313.851 788.432 313.851L785.882 305.392L773.822 306.233Z" fill="#486885"/>
<g style="mix-blend-mode:multiply" opacity="0.6">
<path d="M773.822 306.233C773.822 306.233 755.486 305.525 752.828 305.167C750.169 304.808 744.293 304.275 741.268 302.666C739.097 301.677 736.713 301.25 734.334 301.424L709.247 300.183V309.067H718.765L732.933 309.9C732.933 309.9 740.901 308.917 743.918 310.734C746.935 312.551 755.653 314.409 760.42 313.693C765.187 312.976 768.271 312.509 769.338 312.742C770.405 312.976 788.432 313.851 788.432 313.851L785.882 305.392L773.822 306.233Z" fill="#405D78"/>
</g>
<path d="M769.372 312.692C768.305 312.459 765.204 312.934 760.454 313.642C755.703 314.351 746.96 312.459 743.952 310.684C740.943 308.909 732.967 309.85 732.967 309.85L718.799 309.017H709.281V306.925C709.281 306.925 705.013 316.426 703.83 317.376C702.647 318.326 705.73 320.343 703.83 321.052C701.93 321.76 689.178 331.845 689.036 333.262C688.895 334.678 677.71 347.73 677.71 347.73L665.75 364.299C664.272 366.35 663.476 368.813 663.475 371.341V383.343L703.972 387.252L705.78 379.542C706.255 377.545 707.23 375.7 708.614 374.183L729.067 351.797L731.433 349.422L732.117 363.891L730.45 401.804C730.45 401.804 756.612 408.129 762.312 406.704C762.312 406.704 774.456 371.958 776.114 368.874C777.773 365.791 780.531 361.048 780.581 359.857C780.631 358.665 785.882 346.58 786.574 343.021C787.266 339.462 789.674 324.169 786.574 313.676C781.948 313.459 770.23 312.884 769.372 312.692Z" fill="#486885"/>
<path d="M686.094 325.411C686.094 325.411 683.252 328.453 682.76 329.503C682.269 330.553 681.194 335.662 677.501 336.796C673.809 337.929 668.175 339.254 666.667 340.721C665.158 342.188 663.408 344.822 661.091 343.463C658.774 342.105 661.441 338.971 661.441 338.971L666.308 334.579C666.308 334.579 656.307 334.629 653.957 335.029C651.606 335.429 646.147 337.437 644.522 336.696C644.314 336.635 644.121 336.529 643.958 336.387C643.794 336.244 643.664 336.067 643.576 335.869C643.488 335.67 643.444 335.455 643.448 335.238C643.451 335.021 643.502 334.807 643.597 334.612C643.597 334.612 641.805 332.945 644.431 331.662L645.731 331.012C645.731 331.012 644.731 328.836 649.54 328.461C649.54 328.461 649.089 326.911 651.456 326.678C653.823 326.444 656.315 326.094 659.733 325.569C662.733 325.111 670.876 325.611 671.984 324.269C672.51 323.508 672.902 322.662 673.143 321.769C673.735 319.897 674.803 318.211 676.243 316.876L677.243 315.96L683.911 319.993C683.911 319.993 688.761 322.31 686.094 325.411Z" fill="#E09980"/>
<path d="M707.305 262.82C707.295 262.229 707.337 261.638 707.43 261.053C707.307 258.538 707.028 256.033 706.597 253.552C707.373 252.443 708.338 251.479 709.447 250.702C711.405 249.285 707.847 237.717 706.947 232.558C706.131 227.318 706.01 221.994 706.588 216.723C707.047 213.981 706.071 203.163 705.755 200.104C703.88 200.054 700.854 201.021 697.187 206.046C690.961 214.589 685.219 239.667 685.219 243.551C685.219 247.435 683.26 255.819 683.444 259.912C683.627 264.004 684.685 271.83 682.377 276.455C680.068 281.081 675.434 301.175 676.326 303.842C677.218 306.509 674.259 308.843 674.551 309.676C674.843 310.51 668.608 315.235 672.526 317.319L671.167 324.261C671.167 324.261 675.618 332.087 687.002 330.662L689.503 320.528V319.277C689.503 319.277 695.337 308.959 697.204 304.517C699.071 300.075 702.846 292.424 703.038 285.84C703.038 285.84 704.813 283.181 705.705 281.398C706.171 280.464 706.622 276.714 706.922 272.646C706.597 269.369 706.726 266.062 707.305 262.82Z" fill="white"/>
<g style="mix-blend-mode:multiply" opacity="0.4">
<path d="M684.052 321.794L685.386 321.036C685.59 318.356 686.433 315.764 687.844 313.477C690.136 309.943 695.554 284.098 697.012 281.389C698.471 278.681 701.388 260.97 701.238 260.345C701.088 259.72 703.471 249.51 704.246 249.31C705.021 249.11 702.088 240.517 702.138 237.867C702.188 235.217 705.696 236.592 705.696 236.592L706.355 227.274C706.457 229.053 706.652 230.825 706.938 232.583C707.83 237.742 711.389 249.31 709.439 250.727C708.33 251.504 707.365 252.468 706.588 253.577C707.02 256.058 707.299 258.563 707.422 261.078C707.329 261.663 707.287 262.254 707.297 262.845C706.709 266.117 706.58 269.455 706.913 272.763C706.613 276.83 706.163 280.581 705.696 281.514C704.805 283.298 703.029 285.957 703.029 285.957C702.846 292.541 699.112 300.183 697.195 304.634C695.278 309.084 689.494 319.394 689.494 319.394V320.644L686.994 330.779C684.262 331.17 681.477 330.945 678.843 330.12L684.052 321.794Z" fill="#DBE7EF"/>
</g>
<path d="M676.877 306.1C677.786 306.1 678.677 305.917 679.586 305.859C680.153 305.859 680.944 305.817 681.253 306.384C681.398 306.681 681.442 307.018 681.378 307.342C681.323 307.819 681.182 308.283 680.961 308.709C680.458 309.485 679.833 310.174 679.111 310.751C678.212 311.443 677.58 312.423 677.319 313.526C677.319 313.66 677.094 313.601 677.119 313.476C677.411 311.576 679.177 310.626 680.319 309.309C680.612 308.974 680.838 308.587 680.986 308.167C681.153 307.744 681.218 307.287 681.178 306.834C681.061 306.125 680.303 306.084 679.719 306.109C678.761 306.109 677.819 306.35 676.86 306.35C676.727 306.35 676.727 306.15 676.86 306.142L676.877 306.1Z" fill="#E1E9FE"/>
<path d="M684.985 261.362C686.144 264.429 688.378 267.071 688.986 270.346C689.069 270.805 689.386 272.163 688.669 272.355C688.541 272.372 688.411 272.363 688.286 272.328C688.162 272.294 688.046 272.235 687.944 272.155C687.611 271.937 687.303 271.683 687.027 271.396C686.245 270.59 685.554 269.698 684.969 268.738C684.963 268.715 684.966 268.69 684.975 268.669C684.985 268.647 685.002 268.629 685.022 268.618C685.043 268.607 685.067 268.602 685.091 268.606C685.114 268.61 685.136 268.621 685.152 268.638C685.638 269.437 686.196 270.191 686.819 270.888C687.096 271.203 687.397 271.495 687.719 271.763C687.927 271.957 688.183 272.093 688.461 272.155C689.178 272.23 688.786 270.546 688.728 270.246C688.382 268.745 687.82 267.303 687.061 265.962C686.206 264.498 685.446 262.981 684.785 261.42C684.744 261.295 684.944 261.245 684.994 261.362H684.985Z" fill="#E1E9FE"/>
<path d="M708.822 249.726C706.139 246.392 703.096 243.267 701.396 239.291C700.901 238.111 700.518 236.886 700.254 235.633C700.249 235.614 700.249 235.595 700.254 235.576C700.259 235.558 700.269 235.541 700.282 235.527C700.296 235.514 700.313 235.504 700.331 235.499C700.35 235.494 700.369 235.494 700.388 235.499C702.388 235.941 703.838 237.475 704.905 239.141C706.057 241.105 707.047 243.159 707.864 245.284C708.288 246.337 708.781 247.362 709.339 248.351C709.406 248.468 709.231 248.576 709.164 248.459C708.189 246.622 707.321 244.729 706.564 242.792C705.792 240.769 704.647 238.908 703.188 237.308C702.404 236.516 701.414 235.958 700.329 235.699L700.454 235.574C700.906 237.715 701.711 239.766 702.838 241.642C703.947 243.402 705.189 245.074 706.555 246.642C707.389 247.609 708.222 248.568 708.972 249.551C709.056 249.651 708.906 249.801 708.822 249.693V249.726Z" fill="#E1E9FE"/>
<g style="mix-blend-mode:multiply" opacity="0.6">
<path d="M708.588 308.459C708.588 308.459 711.389 309.384 717.673 309.084C723.957 308.784 726.182 309.859 730.349 309.742C734.517 309.626 742.176 309.151 744.626 311.043C747.076 312.934 757.511 314.093 760.462 313.651C763.412 313.209 771.446 312.226 775.213 313.118C778.981 314.01 786.598 313.718 786.598 313.718" stroke="#405D78" stroke-miterlimit="10"/>
</g>
<path d="M744.177 305.859L740.143 305.525" stroke="#EEF5FB" stroke-width="2" stroke-miterlimit="10" stroke-linecap="round"/>
<path d="M719.157 300.683V311.034H722.833L723.124 300.875L719.157 300.683Z" fill="#405D78"/>
<path d="M764.579 305.859V316.219H768.246L768.538 306.059L764.579 305.859Z" fill="#405D78"/>
<path d="M752.827 305.168C751.935 305.051 750.669 304.909 749.277 304.709L748.552 314.711L752.21 314.977L753.202 305.226L752.827 305.168Z" fill="#405D78"/>
<path d="M739.217 309.867C737.759 309.867 735.092 309.417 735.225 306.7C735.4 302.974 735.533 301.399 735.533 301.399C734.8 301.399 734.333 301.399 734.333 301.399L731.666 301.266C731.666 301.266 731.5 308.492 732.2 309.8C733.033 311.417 736.242 311.909 739.159 312.042C739.399 312.043 739.631 311.954 739.809 311.792C739.9 311.703 739.973 311.597 740.023 311.48C740.073 311.362 740.1 311.236 740.101 311.109V310.784C740.093 310.549 739.998 310.325 739.835 310.155C739.672 309.986 739.452 309.883 739.217 309.867Z" fill="#EEF5FB"/>
<g style="mix-blend-mode:multiply" opacity="0.6">
<path d="M777.313 305.959C777.313 305.959 779.422 313.793 777.313 313.46C777.313 313.46 782.047 311.593 777.313 305.959Z" fill="#405D78"/>
</g>
<g style="mix-blend-mode:multiply" opacity="0.4">
<g style="mix-blend-mode:multiply" opacity="0.4">
<path d="M703.972 320.662C706.014 319.887 708.139 318.278 710.431 318.762C710.454 318.769 710.473 318.784 710.487 318.803C710.5 318.823 710.507 318.846 710.506 318.87C710.497 319.525 710.305 320.164 709.952 320.715C709.598 321.266 709.097 321.707 708.506 321.987C707.141 322.733 705.713 323.358 704.238 323.854C703.509 324.122 702.81 324.469 702.155 324.887C702.046 324.962 701.938 324.779 702.046 324.704C703.244 324.008 704.516 323.448 705.839 323.037C707.247 322.615 708.536 321.87 709.606 320.862C709.847 320.597 710.032 320.287 710.151 319.949C710.27 319.611 710.32 319.252 710.297 318.895L710.373 318.995C709.233 318.828 708.069 319.014 707.039 319.528C706.014 319.945 705.038 320.495 704.005 320.887C703.88 320.937 703.822 320.737 703.947 320.687L703.972 320.662Z" fill="#486885"/>
</g>
</g>
<path d="M787.082 301.5C774.672 306.259 745.702 301.067 743.951 300.191C742.201 299.316 737.709 297.875 735.892 299.116C734.075 300.358 730.991 300.041 728.283 298.5C725.574 296.958 708.205 297.624 708.205 297.624L709.247 300.191L734.333 301.433C736.712 301.259 739.097 301.686 741.268 302.675C744.293 304.275 750.16 304.809 752.827 305.175C755.494 305.542 773.822 306.242 773.822 306.242L785.915 305.35L787.082 301.5Z" fill="#A7BED6"/>
<path d="M706.58 216.78C706.002 222.052 706.123 227.376 706.939 232.616C707.714 237.1 710.489 246.392 709.931 249.701H710.006C713.614 248.818 710.006 231.924 710.006 231.924C709.131 227.292 708.876 222.563 709.247 217.864C709.697 210.755 708.414 201.478 707.972 198.561C707.258 198.948 706.491 199.228 705.697 199.395C705.697 199.395 707.114 213.547 706.58 216.78Z" fill="#A7BED6"/>
<path d="M718.381 148.855C718.359 148.511 718.359 148.166 718.381 147.822L714.172 146.346L713.947 147.897L718.465 149.563C718.415 149.313 718.406 149.08 718.381 148.855Z" fill="#71A2D0"/>
<g style="mix-blend-mode:multiply" opacity="0.4">
<path d="M765.121 367.483C765.183 364.987 764.675 362.51 763.637 360.24C762.254 357.448 768.354 355.24 771.688 351.464C775.022 347.689 771.963 331.92 771.688 331.545C771.413 331.17 770.855 317.043 770.855 317.043V313.618V311.501C770.855 310.226 767.129 307.509 767.129 307.509C767.029 307.25 766.946 307 766.862 306.742C770.963 306.925 774.363 307.058 774.363 307.058L786.482 306.167L788.982 314.618C788.982 314.618 777.039 314.051 772.021 313.709C775.805 313.968 783.54 314.359 787.107 314.543C790.207 325.036 787.79 340.329 787.107 343.888C786.423 347.447 781.156 359.54 781.106 360.724C781.056 361.907 778.306 366.658 776.647 369.741C774.988 372.825 762.312 406.738 762.312 406.738C760.328 407.238 753.502 406.088 747.568 405.779C751.552 397.87 765.062 367.991 765.121 367.483ZM771.855 313.693H771.438H771.855Z" fill="#486885"/>
</g>
</g>
<defs>
<filter id="filter0_i_9356_120475" x="304.12" y="92.1121" width="95.0178" height="95.025" filterUnits="userSpaceOnUse" color-interpolation-filters="sRGB">
<feFlood flood-opacity="0" result="BackgroundImageFix"/>
<feBlend mode="normal" in="SourceGraphic" in2="BackgroundImageFix" result="shape"/>
<feColorMatrix in="SourceAlpha" type="matrix" values="0 0 0 0 0 0 0 0 0 0 0 0 0 0 0 0 0 0 127 0" result="hardAlpha"/>
<feOffset dy="1.21447"/>
<feComposite in2="hardAlpha" operator="arithmetic" k2="-1" k3="1"/>
<feColorMatrix type="matrix" values="0 0 0 0 0.899879 0 0 0 0 0.733068 0 0 0 0 0.491788 0 0 0 1 0"/>
<feBlend mode="normal" in2="shape" result="effect1_innerShadow_9356_120475"/>
</filter>
<filter id="filter1_i_9356_120475" x="309.791" y="97.7837" width="83.6756" height="83.6819" filterUnits="userSpaceOnUse" color-interpolation-filters="sRGB">
<feFlood flood-opacity="0" result="BackgroundImageFix"/>
<feBlend mode="normal" in="SourceGraphic" in2="BackgroundImageFix" result="shape"/>
<feColorMatrix in="SourceAlpha" type="matrix" values="0 0 0 0 0 0 0 0 0 0 0 0 0 0 0 0 0 0 127 0" result="hardAlpha"/>
<feOffset dx="2" dy="2"/>
<feComposite in2="hardAlpha" operator="arithmetic" k2="-1" k3="1"/>
<feColorMatrix type="matrix" values="0 0 0 0 0.899879 0 0 0 0 0.733068 0 0 0 0 0.491788 0 0 0 1 0"/>
<feBlend mode="normal" in2="shape" result="effect1_innerShadow_9356_120475"/>
</filter>
<clipPath id="clip0_9356_120475">
<rect width="845" height="320" fill="white" transform="matrix(-1 0 0 1 845 0)"/>
</clipPath>
<clipPath id="clip1_9356_120475">
<rect width="134" height="323" fill="white" transform="translate(53 123)"/>
</clipPath>
</defs>
</svg>
