<svg width="80" height="80" viewBox="0 0 80 80" fill="none" xmlns="http://www.w3.org/2000/svg">
<path fill-rule="evenodd" clip-rule="evenodd" d="M66.5531 14.2313C66.9109 14.5875 67.3861 14.7844 67.8906 14.7859C68.3953 14.7844 68.8686 14.5875 69.2236 14.2297C69.5798 13.8734 69.7767 13.3984 69.7767 12.8922C69.7752 12.3906 69.5798 11.9172 69.2266 11.5594C68.8719 11.2016 68.3969 11.0016 67.8906 11C66.8498 11.0031 66.0016 11.8516 66 12.8922C66 13.3984 66.1969 13.8734 66.5531 14.2313ZM67.2484 12.8922C67.25 12.5453 67.5438 12.2516 67.8906 12.25C68.2344 12.2516 68.5266 12.5453 68.5266 12.8922C68.5252 13.2516 68.2455 13.5344 67.8906 13.5359C67.5281 13.5328 67.2517 13.2563 67.2484 12.8922ZM28.4728 27.2008C30.7885 18.866 38.433 12.75 47.504 12.75C58.4116 12.75 67.254 21.5924 67.254 32.5C67.254 43.4076 58.4116 52.25 47.504 52.25C46.688 52.25 45.884 52.2006 45.0945 52.1046C44.6833 52.0546 44.3095 52.3474 44.2595 52.7586C44.2095 53.1698 44.5023 53.5436 44.9135 53.5936C45.7629 53.6969 46.6274 53.75 47.504 53.75C59.2401 53.75 68.754 44.2361 68.754 32.5C68.754 20.7639 59.2401 11.25 47.504 11.25C37.7418 11.25 29.5189 17.8322 27.0276 26.7992C26.9167 27.1983 27.1503 27.6117 27.5494 27.7226C27.9485 27.8335 28.3619 27.5999 28.4728 27.2008ZM47.5708 14.9363C47.1566 14.9363 46.8208 15.2721 46.8208 15.6863C46.8208 16.1005 47.1566 16.4363 47.5708 16.4363C56.4426 16.4363 63.6346 23.6283 63.6346 32.5001C63.6346 32.9143 63.9704 33.2501 64.3846 33.2501C64.7988 33.2501 65.1346 32.9143 65.1346 32.5001C65.1346 22.7999 57.271 14.9363 47.5708 14.9363ZM53.3358 36.8719C53.3358 37.6079 53.1358 38.2879 52.7358 38.9119C52.3518 39.5359 51.7998 40.0479 51.0798 40.4479C50.3758 40.8479 49.5598 41.0959 48.6318 41.1919V43.9039C48.6318 44.1119 48.5598 44.2799 48.4158 44.4079C48.2878 44.5519 48.1198 44.6239 47.9118 44.6239C47.7038 44.6239 47.5278 44.5519 47.3838 44.4079C47.2558 44.2799 47.1918 44.1119 47.1918 43.9039V41.2159C46.1838 41.1519 45.2798 40.9279 44.4798 40.5439C43.6798 40.1599 42.9038 39.5999 42.1518 38.8639C41.9598 38.7039 41.8638 38.5119 41.8638 38.2879C41.8638 38.0959 41.9358 37.9199 42.0798 37.7599C42.2398 37.5999 42.4158 37.5199 42.6078 37.5199C42.7998 37.5199 42.9758 37.5999 43.1358 37.7599C44.2558 38.9759 45.6078 39.6559 47.1918 39.7999V33.0799C45.6878 32.6159 44.5358 32.0399 43.7358 31.3519C42.9358 30.6639 42.5358 29.6559 42.5358 28.3279C42.5358 27.1599 42.9598 26.1839 43.8078 25.3999C44.6558 24.5999 45.7838 24.1359 47.1918 24.0079V22.1599C47.1918 21.9519 47.2558 21.7839 47.3838 21.6559C47.5278 21.5119 47.7038 21.4399 47.9118 21.4399C48.1198 21.4399 48.2878 21.5119 48.4158 21.6559C48.5598 21.7839 48.6318 21.9519 48.6318 22.1599V23.9839C49.4798 24.0639 50.2718 24.2639 51.0078 24.5839C51.7438 24.9039 52.3358 25.3279 52.7838 25.8559C53.0238 26.1279 53.1438 26.3599 53.1438 26.5519C53.1438 26.7279 53.0638 26.8959 52.9038 27.0559C52.7438 27.1999 52.5678 27.2719 52.3758 27.2719C52.2158 27.2719 52.0798 27.2159 51.9678 27.1039C51.5998 26.6559 51.1198 26.2799 50.5278 25.9759C49.9358 25.6719 49.3038 25.4879 48.6318 25.4239V31.9519C49.6238 32.2559 50.4478 32.5919 51.1038 32.9599C51.7758 33.3119 52.3118 33.8079 52.7118 34.4479C53.1278 35.0719 53.3358 35.8799 53.3358 36.8719ZM44.0238 28.2799C44.0238 29.0799 44.2958 29.7199 44.8398 30.1999C45.3998 30.6799 46.1838 31.1039 47.1918 31.4719V25.4239C46.2318 25.5359 45.4638 25.8479 44.8878 26.3599C44.3118 26.8559 44.0238 27.4959 44.0238 28.2799ZM48.6318 39.7759C49.5758 39.6479 50.3438 39.3279 50.9358 38.8159C51.5278 38.2879 51.8238 37.6399 51.8238 36.8719C51.8078 36.0399 51.5278 35.3759 50.9838 34.8799C50.4398 34.3679 49.6558 33.9199 48.6318 33.5359V39.7759ZM20 19.4C20.0016 20.7297 21.0844 21.8109 22.4141 21.8125C23.7406 21.8109 24.8187 20.7297 24.8203 19.4C24.8187 18.7562 24.5672 18.1531 24.1125 17.7016C23.6594 17.25 23.0562 17.0016 22.4141 17C21.7703 17.0016 21.1656 17.25 20.7094 17.7C20.2516 18.1516 20 18.7562 20 19.4ZM21.25 19.4C21.2516 18.7562 21.7625 18.2516 22.4141 18.25C23.0609 18.2516 23.5688 18.7562 23.5703 19.4C23.5688 20.0391 23.05 20.5609 22.4141 20.5625C21.7734 20.5609 21.2516 20.0391 21.25 19.4ZM67.4063 52.8125C66.0813 52.8109 65.0014 51.7344 65 50.4141C65 49.7734 65.2563 49.15 65.7047 48.7031C66.1502 48.2562 66.7689 48 67.4047 48H67.4064C68.0502 48.0016 68.6547 48.2516 69.1094 48.7031C69.5674 49.1578 69.8188 49.7656 69.8205 50.4141C69.8172 51.7344 68.7344 52.8109 67.4063 52.8125ZM67.4063 49.25C66.7609 49.2531 66.2531 49.7641 66.25 50.4141C66.2516 51.0469 66.7703 51.5625 67.4063 51.5625C68.0358 51.5625 68.5686 51.0359 68.5703 50.4141C68.5688 49.7641 68.0578 49.2531 67.4063 49.25Z" fill="url(#paint0_linear)"/>
<path fill-rule="evenodd" clip-rule="evenodd" d="M13 61.9933V34H12.999L13 61.9933ZM16 66.8C13.3533 66.8 11.199 64.6465 11.2 62.0001V34C11.2 31.3535 13.3534 29.2 16 29.2H38.007C40.6535 29.2 42.807 31.3535 42.807 34V62C42.807 64.6465 40.6535 66.8 38.007 66.8H16ZM12.799 34V34.2L12.8 62C12.8 63.7645 14.2355 65.2 16 65.2H38.007C39.7714 65.2 41.207 63.7645 41.207 62V34C41.207 32.2355 39.7714 30.8 38.007 30.8H15.999C14.2345 30.8 12.799 32.2355 12.799 34ZM35.0059 42.8H19.0009C17.4574 42.8 16.2009 41.5435 16.2009 40V37C16.2009 35.4565 17.4574 34.2 19.0009 34.2H35.0059C36.5495 34.2 37.8059 35.4555 37.8059 37V40C37.8059 41.5436 36.5504 42.8 35.0059 42.8ZM19.0009 35.8C18.3396 35.8 17.8009 36.3374 17.8009 37V40C17.8009 40.6615 18.3395 41.2 19.0009 41.2H35.0059C35.6673 41.2 36.2059 40.6626 36.2059 40V37C36.2059 36.3387 35.6685 35.8 35.0059 35.8H19.0009ZM35.0048 47.2H37.0058C37.4482 47.2 37.8058 47.5583 37.8058 48C37.8058 48.4415 37.4474 48.8 37.0058 48.8H35.0048C34.5633 48.8 34.2048 48.4415 34.2048 48C34.2048 47.5585 34.5633 47.2 35.0048 47.2ZM35.0048 53.2H37.0058C37.4482 53.2 37.8058 53.5583 37.8058 54C37.8058 54.4415 37.4474 54.8 37.0058 54.8H35.0048C34.5633 54.8 34.2048 54.4415 34.2048 54C34.2048 53.5585 34.5633 53.2 35.0048 53.2ZM35.0048 59.2H37.0058C37.4482 59.2 37.8058 59.5583 37.8058 60C37.8058 60.4415 37.4474 60.8 37.0058 60.8H35.0048C34.5633 60.8 34.2048 60.4415 34.2048 60C34.2048 59.5585 34.5633 59.2 35.0048 59.2ZM29.0039 47.2H31.0039C31.4463 47.2 31.8039 47.5583 31.8039 48C31.8039 48.4415 31.4454 48.8 31.0039 48.8H29.0039C28.5623 48.8 28.2039 48.4415 28.2039 48C28.2039 47.5585 28.5623 47.2 29.0039 47.2ZM23.0029 47.2H25.0029C25.4444 47.2 25.8029 47.5585 25.8029 48C25.8029 48.4415 25.4444 48.8 25.0029 48.8H23.0029C22.5613 48.8 22.2029 48.4415 22.2029 48C22.2029 47.5585 22.5613 47.2 23.0029 47.2ZM19.8009 48C19.8009 48.4415 19.4425 48.8 19.0009 48.8H17.0009C16.5594 48.8 16.2009 48.4415 16.2009 48C16.2009 47.5585 16.5594 47.2 17.0009 47.2H19.0009C19.4425 47.2 19.8009 47.5585 19.8009 48ZM29.0039 53.2H31.0039C31.4463 53.2 31.8039 53.5583 31.8039 54C31.8039 54.4415 31.4454 54.8 31.0039 54.8H29.0039C28.5623 54.8 28.2039 54.4415 28.2039 54C28.2039 53.5585 28.5623 53.2 29.0039 53.2ZM23.0029 53.2H25.0029C25.4444 53.2 25.8029 53.5585 25.8029 54C25.8029 54.4415 25.4444 54.8 25.0029 54.8H23.0029C22.5613 54.8 22.2029 54.4415 22.2029 54C22.2029 53.5585 22.5613 53.2 23.0029 53.2ZM19.8009 54C19.8009 54.4415 19.4425 54.8 19.0009 54.8H17.0009C16.5594 54.8 16.2009 54.4415 16.2009 54C16.2009 53.5585 16.5594 53.2 17.0009 53.2H19.0009C19.4425 53.2 19.8009 53.5585 19.8009 54ZM29.0039 59.2H31.0039C31.4463 59.2 31.8039 59.5583 31.8039 60C31.8039 60.4415 31.4454 60.8 31.0039 60.8H29.0039C28.5623 60.8 28.2039 60.4415 28.2039 60C28.2039 59.5585 28.5623 59.2 29.0039 59.2ZM23.0029 59.2H25.0029C25.4444 59.2 25.8029 59.5585 25.8029 60C25.8029 60.4415 25.4444 60.8 25.0029 60.8H23.0029C22.5613 60.8 22.2029 60.4415 22.2029 60C22.2029 59.5585 22.5613 59.2 23.0029 59.2ZM19.8009 60C19.8009 60.4415 19.4425 60.8 19.0009 60.8H17.0009C16.5594 60.8 16.2009 60.4415 16.2009 60C16.2009 59.5585 16.5594 59.2 17.0009 59.2H19.0009C19.4425 59.2 19.8009 59.5585 19.8009 60Z" fill="#313840"/>
<defs>
<linearGradient id="paint0_linear" x1="36.5" y1="17" x2="34.3753" y2="26.0765" gradientUnits="userSpaceOnUse">
<stop stop-color="#D55B17"/>
<stop offset="1" stop-color="#D99227"/>
</linearGradient>
</defs>
</svg>
