<svg width="90" height="90" viewBox="0 0 90 90" fill="none" xmlns="http://www.w3.org/2000/svg">
<g clip-path="url(#clip0_10065_63675)">
<rect x="38" width="52" height="16" rx="2.32639" fill="#CDE5E8"/>
<rect x="63" y="22" width="27" height="12" rx="2.32639" fill="#E9BB66"/>
<rect x="63" y="40" width="27" height="12" rx="2.32639" fill="#CDE5E8"/>
<path d="M52 16V43C52 44.6569 53.3431 46 55 46H63" stroke="#CDE5E8" stroke-width="2" stroke-linejoin="round"/>
<path d="M52 16V25C52 26.6569 53.3431 28 55 28H63" stroke="#E9BB66" stroke-width="2" stroke-linejoin="round"/>
<path d="M47.6711 40.2821C47.6711 42.4867 49.2291 44.2708 51.1475 44.2708C53.066 44.2708 54.624 42.4867 54.624 40.2821C54.624 38.0775 53.0695 36.2969 51.1475 36.2969C49.2256 36.2969 47.6711 38.081 47.6711 40.2821Z" fill="url(#paint0_linear_10065_63675)"/>
<path d="M47.6711 40.2821C47.6711 42.4867 49.2291 44.2708 51.1475 44.2708C53.066 44.2708 54.624 42.4867 54.624 40.2821C54.624 38.0775 53.0695 36.2969 51.1475 36.2969C49.2256 36.2969 47.6711 38.081 47.6711 40.2821Z" fill="url(#paint1_linear_10065_63675)"/>
<path d="M32.6312 60.2438L31.8328 61.0882C31.8328 60.3816 31.8328 59.6503 31.8328 58.9189L32.6136 59.5902L32.6772 60.1202L32.6312 60.2438Z" fill="#7172D0"/>
<path d="M22.0005 65.8323C17.4465 73.3116 20.7357 76.6998 20.7357 76.6998C22.0745 77.6531 23.6854 78.1488 25.3285 78.1129V91.3969C16.966 92.4145 12.2919 93.7252 12.2919 93.7252C6.36759 94.3152 0.40442 94.4097 -5.53557 94.0078L-5.58856 80.9358L-6.03018 70.0648C-6.03018 70.0648 -4.5322 54.9048 -1.53976 50.2801C1.45267 45.6555 5.62865 45.8003 5.62865 45.8003L5.93249 45.8957L5.59686 47.3584C5.59686 47.3584 8.54689 52.3681 15.8425 50.6758L16.1958 48.9906C16.452 49.0135 16.7098 49.0135 16.966 48.9906C18.2661 48.8775 20.8699 49.5594 21.52 50.0787C21.7991 50.3049 23.8906 52.089 26.1871 54.0498C24.9753 58.7133 23.1452 64.6488 23.1452 64.6488L22.0005 65.8323Z" fill="#81BFC4"/>
<path d="M32.6312 60.2438L31.8328 61.0882C31.8328 60.3816 31.8328 59.6503 31.8328 58.9189L32.6136 59.5902L32.6772 60.1202L32.6312 60.2438Z" fill="#7172D0"/>
<path d="M22.0005 65.8333C17.4464 73.3126 20.7356 76.7007 20.7356 76.7007C22.0745 77.6541 23.6853 78.1498 25.3285 78.1139L24.7491 93.659C16.3865 94.6765 12.2918 95.4255 12.2918 95.4255C6.35588 96.1397 0.366223 96.2982 -5.59919 95.899V80.9227L-6.03021 70.0658C-6.03021 70.0658 -4.53223 54.9058 -1.53979 50.2811C1.45264 45.6564 5.62862 45.8013 5.62862 45.8013L5.93246 45.8967L5.59683 47.3593C5.59683 47.3593 8.54687 52.3691 15.8425 50.6768L16.1958 48.9916C16.452 49.0145 16.7097 49.0145 16.966 48.9916C18.2661 48.8785 20.8699 49.5604 21.52 50.0797C21.7991 50.3058 23.8906 52.09 26.187 54.0508C24.9752 58.7143 23.1451 64.6497 23.1451 64.6497L22.0005 65.8333Z" fill="white"/>
<path d="M17.4889 76.6826L13.1752 75.1563C9.62099 73.8527 4.58649 70.892 2.48437 66.5995C0.382245 62.3069 2.13107 59.0672 2.13107 55.8698C2.17565 53.7333 2.50597 51.6123 3.11324 49.5634L6.74161 49.1395L2.75994 46.4368C1.48807 46.4085 0.0784073 49.03 -1.54677 50.2877C-6.03719 53.75 -8.96603 66.5995 -8.96603 66.5995L-10.7325 80.7914L-12.6015 98.4563C-4.10111 99.0216 10.3629 95.63 12.3061 95.4356C12.3061 95.4356 12.0517 87.331 11.7549 85.9743C11.4581 84.6177 10.8646 82.9254 11.0483 80.6077C11.232 78.2901 17.4889 76.6826 17.4889 76.6826Z" fill="#CEDCEA"/>
<path d="M21.4812 50.0889C21.4812 50.0889 24.9046 57.01 23.6398 62.7652L26.2472 67.2415L33.0305 60.0024C33.0305 60.0024 23.336 50.8273 21.4812 50.0889Z" fill="#CEDCEA"/>
<path d="M6.88995 76.7103C6.88995 76.7103 22.3467 77.9221 23.5727 77.9221C24.7986 77.9221 19.5062 73.6825 19.5062 73.6825L6.92528 73.0996L6.88995 76.7103Z" fill="#3598A1"/>
<g style="mix-blend-mode:multiply" opacity="0.6">
<g style="mix-blend-mode:multiply" opacity="0.6">
<path d="M7.47997 66.0794C7.89333 67.8459 7.55063 69.6124 7.2044 71.3789C6.85817 73.1453 6.4978 74.8447 6.81577 76.5829C6.98182 77.5156 7.16907 78.4413 7.31745 79.374C7.46584 80.3067 7.57536 81.2111 7.67075 82.1332C7.85093 84.0516 7.87213 85.9771 7.88273 87.9026C7.89333 89.8281 7.92159 91.7182 8.33848 93.5765C8.38795 93.8062 8.44447 94.0358 8.50807 94.2619C8.5122 94.2721 8.51985 94.2805 8.52962 94.2855C8.5394 94.2906 8.55066 94.2919 8.56135 94.2894C8.57204 94.2868 8.58146 94.2805 8.58789 94.2716C8.59432 94.2626 8.59734 94.2517 8.59639 94.2408C8.07704 92.3859 7.99579 90.4499 7.97459 88.535C7.95339 86.6201 7.97459 84.6487 7.80854 82.7056C7.65239 80.8712 7.39646 79.0466 7.04188 77.2401C6.94163 76.7793 6.86615 76.3134 6.81577 75.8445C6.78398 75.4094 6.78398 74.9725 6.81577 74.5373C6.88801 73.6382 7.01901 72.7449 7.20793 71.8629C7.54357 70.1741 7.94279 68.4394 7.70255 66.7118C7.67075 66.4892 7.62836 66.2702 7.5789 66.0547C7.57358 66.0462 7.56565 66.0397 7.55632 66.0362C7.54699 66.0326 7.53675 66.0322 7.52717 66.035C7.51759 66.0378 7.50918 66.0437 7.50321 66.0517C7.49725 66.0597 7.49405 66.0694 7.4941 66.0794H7.47997Z" fill="#CEDCEA"/>
</g>
</g>
<path d="M23.548 28.8066C24.1557 29.1988 25.1696 30.3329 24.0497 33.2547C24.0497 33.2547 23.2512 30.8204 22.7283 29.6122C23.0345 29.3794 23.3099 29.1087 23.548 28.8066Z" fill="#2C2D53"/>
<path d="M6.09505 33.2548C6.09505 33.2548 2.72458 22.9597 13.267 21.2426C23.8094 19.5256 27.1728 27.39 21.9016 30.121C19.1916 30.6825 16.4258 30.9291 13.6592 30.8559C9.60683 30.6686 6.82638 32.1348 6.09505 33.2548Z" fill="#2C2D53"/>
<path d="M7.19375 34.4988C8.92491 34.8521 9.21815 36.7705 9.21815 36.7705L11.0694 33.2552L11.3026 30.941C12.0847 30.8509 12.8729 30.826 13.6591 30.8669C16.4257 30.9401 19.1915 30.6935 21.9016 30.132C22.2256 29.9665 22.5321 29.7688 22.8166 29.542C23.3748 31.0329 24.5584 34.3574 24.357 35.2583C24.0991 36.4278 22.0499 42.5292 20.9265 43.9424C20.0185 45.0871 18.7607 47.0302 18.312 47.7298C18.261 47.811 18.1908 47.8786 18.1077 47.9266C18.0246 47.9747 17.931 48.0017 17.8351 48.0053C17.0614 48.0407 15.0829 48.1113 14.5353 48.0053C13.9877 47.8993 10.8645 45.0094 9.39127 43.6386C9.15171 43.4161 8.96061 43.1466 8.82992 42.8469C8.69922 42.5472 8.63173 42.2238 8.63168 41.8968V39.8548C8.63168 39.8548 7.10543 40.2434 6.15859 38.4416C5.21175 36.6397 5.46259 34.1313 7.19375 34.4988Z" fill="#C9887E"/>
<path d="M13.4401 30.8563C13.3836 31.8526 13.3412 33.4247 13.5108 33.6826C13.5108 33.6826 11.9986 33.778 11.6559 34.5094C11.3132 35.2407 10.8257 38.4168 10.8257 38.4168H9.4125C9.4125 38.4168 8.88255 35.6364 7.94631 35.0004C7.19378 34.4846 6.45539 34.3327 6.25754 34.626C6.11269 34.845 6.09149 33.9194 6.19748 33.0997C7.04187 32.0363 9.67394 30.7291 13.4401 30.8563Z" fill="#C9887E"/>
<path d="M13.4401 30.8563C13.3836 31.8526 13.3412 33.4247 13.5108 33.6826C13.5108 33.6826 11.9986 33.778 11.6559 34.5094C11.3132 35.2407 10.8257 38.4168 10.8257 38.4168H9.4125C9.4125 38.4168 8.88255 35.6364 7.94631 35.0004C7.19378 34.4846 6.45539 34.3327 6.25754 34.626C6.11269 34.845 6.09149 33.9194 6.19748 33.0997C7.04187 32.0363 9.67394 30.7291 13.4401 30.8563Z" fill="url(#paint2_linear_10065_63675)"/>
<path d="M7.35984 39.6699C7.75379 39.8641 8.2002 39.9248 8.63171 39.843V41.8851C8.63177 42.212 8.69925 42.5355 8.82995 42.8352C8.96065 43.1348 9.15174 43.4044 9.3913 43.6269C10.8646 44.9977 14.016 47.8664 14.5353 47.9936C15.1359 48.0593 15.7406 48.0794 16.3442 48.0537L15.8213 50.6752C8.53279 52.3675 5.57568 47.3577 5.57568 47.3577L7.35984 39.6699Z" fill="#C9887E"/>
<path d="M31.6315 67.722C31.7799 66.4571 31.8293 63.9205 31.8329 61.087L32.6313 60.2426C32.6313 60.2426 35.811 49.9016 36.5706 45.7998H41.2023C41.3083 50.057 41.5097 60.285 41.1529 63.3022C40.6971 67.139 38.8776 72.4102 38.0297 72.9932C37.1818 73.5761 33.5781 74.4064 30.6104 72.5162C31.0765 70.9475 31.4179 69.3444 31.6315 67.722Z" fill="#C9887E"/>
<g style="mix-blend-mode:multiply" opacity="0.4">
<path d="M32.0943 72.1346C32.0943 72.1346 34.4614 68.2943 35.1397 66.5985C35.705 65.1853 37.6128 50.6047 38.2487 45.7998H36.5706C35.8145 49.9016 32.6313 60.2426 32.6313 60.2426L31.8328 61.087C31.8328 63.9134 31.7798 66.4571 31.6315 67.722C31.4168 69.3445 31.0742 70.9476 30.6069 72.5162C30.9942 72.761 31.4034 72.9691 31.8293 73.138C31.8994 72.799 31.9878 72.464 32.0943 72.1346Z" fill="#C9887E"/>
</g>
<path d="M37.9272 69.9342L43.5164 68.0229V53.8203L37.9272 54.7919V69.9342Z" fill="#025057"/>
<path d="M38.4359 44.6528C38.6479 45.4513 39.118 46.1573 39.7729 46.6608C40.4279 47.1644 41.231 47.4372 42.0572 47.4368H47.0987V32.7891H40.8666C40.3828 32.7899 39.9129 32.9503 39.5296 33.2454C39.1464 33.5405 38.8712 33.9539 38.7468 34.4213L38.4394 35.5731C37.6433 38.5471 37.6421 41.6781 38.4359 44.6528Z" fill="#025057"/>
<path d="M43.9298 33.9085C44.3526 33.5167 44.8515 33.216 45.3955 33.0252C45.9394 32.8343 46.5168 32.7574 47.0918 32.7991L63.4071 33.9968C64.2453 34.0592 65.029 34.4361 65.601 35.052C66.173 35.6679 66.491 36.4773 66.4914 37.3178V43.4581C66.4921 44.0969 66.2535 44.7129 65.8225 45.1844C65.3915 45.6559 64.7995 45.9488 64.1631 46.0054L58.6941 46.4965C58.2403 46.5379 57.7872 46.4105 57.4215 46.1386C57.0558 45.8668 56.8032 45.4697 56.7121 45.0232L56.5354 44.1541C56.5111 44.0391 56.448 43.936 56.3567 43.862C56.2653 43.788 56.1513 43.7477 56.0338 43.7478H55.9101C55.7991 43.7481 55.6912 43.7844 55.6026 43.8513C55.5141 43.9182 55.4496 44.0121 55.419 44.1188L54.9915 45.6203C54.8894 45.9815 54.68 46.3033 54.3911 46.543C54.1022 46.7827 53.7473 46.9291 53.3734 46.9628L48.4767 47.4009C47.73 47.4681 46.9774 47.3791 46.2669 47.1394C45.5565 46.8997 44.9038 46.5147 44.3504 46.0088C43.797 45.5029 43.355 44.8873 43.0527 44.2012C42.7503 43.5151 42.5942 42.7735 42.5943 42.0237V36.9786C42.5939 36.4026 42.7123 35.8326 42.9421 35.3044C43.1718 34.7761 43.5081 34.3009 43.9298 33.9085Z" fill="#3598A1"/>
<path d="M48.5933 35.6494H51.1335C48.9042 35.6494 47.0988 37.7233 47.0988 40.2776C47.0988 42.832 48.9042 44.9129 51.1335 44.9129H48.5933C46.3604 44.9129 44.5515 42.839 44.5515 40.2776C44.5515 37.7162 46.3604 35.6494 48.5933 35.6494Z" fill="#025057"/>
<path d="M47.0988 40.2815C47.0988 42.8394 48.9041 44.9097 51.1335 44.9097C53.3628 44.9097 55.1717 42.8394 55.1717 40.2815C55.1717 37.7236 53.3628 35.6533 51.1335 35.6533C48.9041 35.6533 47.0988 37.7272 47.0988 40.2815Z" fill="#81BFC4"/>
<path d="M47.6711 40.2821C47.6711 42.4867 49.2291 44.2708 51.1475 44.2708C53.066 44.2708 54.624 42.4867 54.624 40.2821C54.624 38.0775 53.0695 36.2969 51.1475 36.2969C49.2256 36.2969 47.6711 38.081 47.6711 40.2821Z" fill="#025057"/>
<path d="M61.3791 36.0811H63.3294C61.3085 36.0811 59.6727 37.9606 59.6727 40.2782C59.6727 42.5959 61.3085 44.4754 63.3294 44.4754H61.3791C59.3547 44.4754 57.7154 42.5959 57.7154 40.2747C57.7154 37.9535 59.3547 36.0811 61.3791 36.0811Z" fill="#025057"/>
<path d="M59.6832 40.2818C59.6832 42.5994 61.319 44.4789 63.3399 44.4789C65.3607 44.4789 67 42.5994 67 40.2818C67 37.9641 65.3537 36.0811 63.3293 36.0811C61.3049 36.0811 59.6832 37.9641 59.6832 40.2818Z" fill="#81BFC4"/>
<path d="M60.1179 40.2819C60.1179 42.3169 61.5558 43.9668 63.3293 43.9668C65.1029 43.9668 66.5444 42.3169 66.5444 40.2819C66.5444 38.247 65.1064 36.6006 63.3293 36.6006C61.5522 36.6006 60.1179 38.2505 60.1179 40.2819Z" fill="#025057"/>
<path d="M55.91 43.7481H56.0337C56.1512 43.748 56.2652 43.7883 56.3566 43.8623C56.4479 43.9362 56.511 44.0394 56.5354 44.1544L56.712 45.0235C56.7793 45.3568 56.9372 45.6652 57.1685 45.9145C57.3998 46.1639 57.6954 46.3446 58.0227 46.4367L54.9915 45.6206L55.4189 44.1049C55.4516 44.0006 55.517 43.9095 55.6054 43.8452C55.6939 43.781 55.8007 43.7469 55.91 43.7481Z" fill="#026770"/>
<path d="M39.0931 33.6895C38.93 33.9086 38.8101 34.1568 38.7398 34.4208L38.4324 35.5725C37.6375 38.5469 37.6375 41.6779 38.4324 44.6523C38.6124 45.3291 38.9798 45.9414 39.4923 46.4188L18.7007 42.4654C18.1441 42.3593 17.6419 42.0623 17.2808 41.6257C16.9196 41.1891 16.7221 40.6402 16.7222 40.0735V37.8902C16.7216 37.2805 16.9494 36.6928 17.3608 36.2428C17.7722 35.7929 18.3372 35.5134 18.9445 35.4595L39.0931 33.6895Z" fill="#026770"/>
<path d="M37.9519 38.1615C37.8837 38.7728 37.8471 39.3871 37.8424 40.0022L16.6445 38.0167C16.6064 38.0125 16.5695 38.0007 16.5361 37.9819C16.5027 37.963 16.4735 37.9376 16.4502 37.9071C16.4269 37.8768 16.4102 37.842 16.4011 37.8049C16.3919 37.7678 16.3906 37.7293 16.3972 37.6916C16.4182 37.5885 16.4752 37.4963 16.5581 37.4315C16.641 37.3667 16.7443 37.3337 16.8494 37.3383L37.9519 38.1615Z" fill="#025057"/>
<path d="M53.3734 46.977C53.8192 46.9351 54.2346 46.733 54.5428 46.4082V52.3012H51.5998V47.136L53.3734 46.977Z" fill="#3598A1"/>
<path d="M51.0133 52.3008H53.9563L33.0305 56.4838H28.9393L51.0133 52.3008Z" fill="white" stroke="#025057" stroke-width="0.356814" stroke-miterlimit="10"/>
<path d="M53.3734 46.9767C53.5748 46.9563 53.7716 46.9039 53.9564 46.8213V52.3009H51.0134V47.1887L53.3734 46.9767Z" fill="#3598A1"/>
<path d="M33.6135 55.2122L54.5428 51.0186V52.301L33.6135 56.4841V55.2122Z" fill="#3598A1"/>
<path d="M29.5222 55.0778L50.9392 51.1562H54.3026L33.0305 56.484L29.5222 55.0778Z" fill="#3598A1"/>
<path d="M29.5222 39.2256L33.6134 39.6142V56.4842H29.5222V39.2256Z" fill="#3598A1"/>
<path d="M28.9393 39.2256L33.0305 39.6142V56.4842H28.9393V39.2256Z" fill="#025057"/>
<path d="M43.4598 65.8779L47.8443 67.436L42.7709 69.1742L35.8957 71.672H32.5182L37.9272 65.8779" fill="#025057"/>
<path d="M46.311 65.041L51.1476 66.5991L45.6185 68.3373L35.8957 71.6724L40.7218 66.7545" fill="#3598A1"/>
<path d="M40.7218 69.9342L46.3109 68.0229V53.8203L40.7218 54.7919V69.9342Z" fill="#3598A1"/>
<path d="M35.8957 75.1555L50.6918 69.584V66.5986L35.8957 71.672V75.1555Z" fill="#3598A1"/>
<path d="M51.144 66.5986H50.6918V69.5416H51.144V66.5986Z" fill="#3598A1"/>
<path d="M36.4928 75.1555L51.1476 69.5416V66.5986L36.4928 71.672V75.1555Z" fill="#3598A1"/>
<path d="M36.4928 71.0469H35.8957V75.1592H36.4928V71.0469Z" fill="#025057"/>
<path d="M5.98199 45.6201L5.58277 47.3513C5.99088 47.9734 6.49395 48.5277 7.07368 48.9941C3.17681 46.5175 5.98199 45.6201 5.98199 45.6201Z" fill="#02737D"/>
<path d="M51.6387 36.4941C53.0519 37.01 54.0517 38.5079 54.0517 40.2815C54.0512 40.5781 54.0216 40.8739 53.9634 41.1647H52.1015L50.5222 38.4302L51.6387 36.4941Z" fill="#02737D"/>
<path d="M47.6711 40.6953H48.8617L49.9993 42.6173L49.3705 43.7301C48.8797 43.3822 48.4726 42.9293 48.1786 42.4043C47.8847 41.8794 47.7113 41.2956 47.6711 40.6953Z" fill="#02737D"/>
<path d="M60.2556 41.3377L61.199 41.1787L62.6121 42.9028L62.2871 43.7649C61.7818 43.548 61.3347 43.2153 60.9818 42.7937C60.6289 42.372 60.3801 41.8733 60.2556 41.3377Z" fill="#02737D"/>
<path d="M53.4441 40.2821C53.4441 38.3107 52.1934 36.6749 50.5506 36.3569C50.7424 36.3174 50.9377 36.2973 51.1335 36.2969C53.0554 36.2969 54.6099 38.0634 54.6099 40.2821C54.6099 42.5008 53.0554 44.2708 51.1335 44.2708C50.9377 44.2687 50.7426 44.2486 50.5506 44.2107C52.1934 43.8892 53.4441 42.257 53.4441 40.2821Z" fill="#025057"/>
<path d="M64.1524 36.8193C64.8106 37.1273 65.3629 37.623 65.7401 38.2441C66.1173 38.8652 66.3024 39.5839 66.2722 40.3099C66.2682 40.547 66.2446 40.7833 66.2016 41.0165H64.5093L63.1173 38.6035L64.1524 36.8193Z" fill="#02737D"/>
<path d="M65.6646 40.32C65.6822 38.4475 64.474 36.893 62.8983 36.6492C63.0406 36.6239 63.1848 36.6109 63.3293 36.6104C65.0958 36.6104 66.5443 38.2603 66.5443 40.2917C66.5443 42.3232 65.1064 43.9766 63.3293 43.9766C63.1813 43.9743 63.0337 43.9614 62.8877 43.9378C64.4422 43.6798 65.6505 42.1607 65.6646 40.32Z" fill="#025057"/>
<g style="mix-blend-mode:multiply" opacity="0.4">
<path d="M7.19375 34.4986C8.92491 34.8519 9.21462 36.7703 9.21462 36.7703L11.0694 33.255L11.3026 30.9409C12.0847 30.8507 12.8729 30.8259 13.6591 30.8667C14.1043 30.8879 14.553 30.895 14.9981 30.8914C14.9981 30.9374 14.9804 30.9833 14.9698 31.0328C14.5643 31.6934 14.3497 32.4534 14.3497 33.2285C14.3497 34.0036 14.5643 34.7636 14.9698 35.4242C16.383 37.6924 14.6554 39.6638 14.6554 39.6638L13.5107 41.1724V46.8817L13.2281 47.0513C12.0339 46.0585 10.3558 44.5181 9.39127 43.6208C9.15171 43.3983 8.96061 43.1287 8.82992 42.829C8.69922 42.5294 8.63173 42.2059 8.63168 41.879V39.8369C8.63168 39.8369 7.10543 40.2256 6.15859 38.4237C5.21175 36.6219 5.46259 34.1312 7.19375 34.4986Z" fill="#C9887E"/>
</g>
<g style="mix-blend-mode:multiply" opacity="0.6">
<path d="M8.6317 39.843V41.8851C8.63176 42.212 8.69925 42.5355 8.82994 42.8352C8.96064 43.1348 9.15173 43.4044 9.39129 43.6269C10.642 44.7892 13.0974 47.0397 14.129 47.7604C13.4224 48.0078 12.5957 48.4105 12.2954 49.0217C12.0075 49.6442 11.7517 50.281 11.5288 50.9295C10.3407 50.7909 9.19593 50.4006 8.17063 49.7847C7.14533 49.1688 6.26309 48.3414 5.58273 47.3577L7.34923 39.6699C7.74626 39.8664 8.19679 39.9272 8.6317 39.843Z" fill="#C9887E"/>
</g>
<g style="mix-blend-mode:multiply" opacity="0.4">
<path d="M10.0555 23.7332C17.1568 20.5889 15.0017 30.5236 15.0017 30.5236L14.8497 30.8769C14.4541 30.8769 14.0584 30.8769 13.6627 30.8522C9.61033 30.6543 6.82987 32.1205 6.09854 33.2405C5.56258 31.4112 5.45379 29.4833 5.78057 27.6054C6.77951 25.9107 8.27053 24.5601 10.0555 23.7332Z" fill="#C9887E"/>
</g>
<path d="M14.129 50.6233L14.5389 52.2874L16.1499 51.708L15.8213 49.7295L14.129 50.6233Z" fill="#C9887E"/>
<path d="M6.2823 44.5596L3.10263 45.404C3.8636 46.1369 4.69158 46.7969 5.57571 47.3754C5.86817 46.452 6.10414 45.5116 6.2823 44.5596Z" fill="black"/>
<path d="M14.5388 52.2872L14.4187 51.6583C14.507 51.1178 14.4576 50.5066 13.7121 50.6408H13.5708V51.0895C13.5708 51.0895 13.7651 52.4674 13.8746 52.9337C13.9347 53.1917 16.595 59.6817 16.701 60.2152C17.503 60.3707 19.0681 61.9817 19.8807 62.1266L16.1251 51.7219L14.5388 52.2872Z" fill="#02737D"/>
<path d="M16.3442 48.0508L18.3086 48.4429L17.3264 50.6228L16.1499 51.7074L15.8214 50.6758L16.3442 48.0508Z" fill="black"/>
<path d="M19.9054 51.1567L18.3085 48.4434L17.3264 50.6232L18.3085 50.7963L19.9054 51.1567Z" fill="#02737D"/>
<g style="mix-blend-mode:multiply" opacity="0.4">
<path d="M13.1751 75.1562C11.7639 74.6307 10.4038 73.9767 9.1122 73.2024L6.92528 73.1035L6.88995 76.7248C6.88995 76.7248 11.1295 77.0569 15.3232 77.3714C16.5138 76.9333 17.4889 76.6824 17.4889 76.6824L13.1751 75.1562Z" fill="#3598A1"/>
</g>
<g style="mix-blend-mode:multiply">
<g style="mix-blend-mode:multiply">
<path d="M6.66381 72.8242C4.93619 71.7183 3.48414 70.1568 1.59399 69.3265C1.1231 69.1144 0.620668 68.9807 0.106609 68.9308C0.100752 68.9303 0.0948574 68.931 0.0892988 68.933C0.0837401 68.9349 0.0786418 68.9379 0.0743228 68.9419C0.0700039 68.9459 0.0665575 68.9507 0.0642095 68.9561C0.0618615 68.9615 0.0606634 68.9673 0.0606839 68.9732C0.0591154 69.4339 0.181119 69.8865 0.413982 70.2839C0.647788 70.6594 0.951173 70.9868 1.30782 71.2485C2.05682 71.8314 2.92946 72.2271 3.72085 72.75C4.15399 73.0168 4.53375 73.3618 4.8408 73.7675C4.8726 73.8134 4.95032 73.7675 4.91853 73.7215C4.39918 72.9902 3.57599 72.538 2.8164 72.0999C2.05681 71.6618 1.15944 71.1884 0.618895 70.4359C0.313538 70.0095 0.150352 69.4977 0.152539 68.9732L0.110145 69.0191C1.07701 69.1486 1.99757 69.5125 2.79167 70.079C3.67139 70.6443 4.48397 71.312 5.31069 71.9515C5.73818 72.2801 6.1692 72.6051 6.62496 72.8948C6.67089 72.9266 6.71681 72.8489 6.66735 72.8206L6.66381 72.8242Z" fill="#DBE7EF"/>
</g>
</g>
<path d="M23.6752 62.2987C24.4981 60.9017 25.1528 59.4122 25.6254 57.8612L25.4558 57.8365C25.6074 59.2663 25.5021 60.7117 25.1449 62.1044C25.0387 62.5077 24.9077 62.9042 24.7527 63.2914C24.7139 63.3939 24.8799 63.4398 24.9188 63.3374C25.4518 61.97 25.7146 60.5122 25.6925 59.0448C25.6925 58.642 25.6678 58.2393 25.6289 57.8365C25.6263 57.8171 25.6174 57.7992 25.6036 57.7854C25.5897 57.7717 25.5717 57.7629 25.5523 57.7604C25.5329 57.758 25.5133 57.7621 25.4964 57.772C25.4796 57.782 25.4666 57.7972 25.4593 57.8153C24.9906 59.3559 24.342 60.8358 23.5268 62.2245C23.4667 62.3199 23.6151 62.4047 23.6752 62.3128V62.2987Z" fill="#DBE7EF"/>
<g style="mix-blend-mode:multiply">
<g style="mix-blend-mode:multiply">
<path d="M2.3642 57.3809C3.0418 58.5327 3.54652 59.7778 3.86218 61.0764C3.95404 61.4297 4.03883 61.783 4.12009 62.1363L4.19428 62.0939C3.44017 61.2497 2.73253 60.3652 2.0745 59.4442C2.03917 59.3982 1.97557 59.4618 2.0109 59.5042C2.66805 60.4259 3.37573 61.3105 4.13069 62.1539C4.13631 62.1638 4.14561 62.171 4.15654 62.174C4.16747 62.1769 4.17914 62.1755 4.18898 62.1698C4.19882 62.1642 4.20602 62.1549 4.209 62.144C4.21199 62.1331 4.2105 62.1214 4.20488 62.1115C3.93747 60.8122 3.52629 59.5467 2.97894 58.3383C2.81741 57.9994 2.63815 57.6692 2.44192 57.3491C2.41013 57.3032 2.33593 57.3491 2.3642 57.395V57.3809Z" fill="#DBE7EF"/>
</g>
</g>
<path d="M-7.91684 85.6598H-3.05899L57.0193 65.0908H54.2778L-7.91684 85.6598Z" fill="white"/>
<path d="M-3.27808 85.6386L57.0193 65.0166V67.9313L-3.27808 90.818V85.6386Z" fill="#EEF5FB"/>
<path d="M41.9583 74.804L40.7853 75.2562V74.1822L41.9618 73.6699L41.9583 74.804Z" fill="#BBCDE0"/>
<path d="M56.1114 68.278L57.1183 67.9141V68.9598L56.1114 69.3485V68.278Z" fill="#BBCDE0"/>
<path d="M52.6102 70.6984L51.6739 71.0587V70.0059L52.6102 69.5996V70.6984Z" fill="#BBCDE0"/>
<path d="M47.6569 72.6054L46.6324 73.0011V71.9659L47.6604 71.5137L47.6569 72.6054Z" fill="#BBCDE0"/>
<path d="M35.4894 77.298L34.1292 77.8209V76.6868L35.4964 76.1074L35.4894 77.298Z" fill="#BBCDE0"/>
<path d="M4.48752 95.436V87.8719L7.51175 86.7236V95.2982C6.61084 95.3476 5.59687 95.3936 4.48752 95.436Z" fill="#BBCDE0"/>
<path d="M7.51166 95.2975V86.7654L9.7233 85.8574L9.69503 95.1527C9.07676 95.1986 8.34544 95.2516 7.51166 95.2975Z" fill="white"/>
<path d="M56.1114 91.5497V68.2674L57.1183 67.9141V91.6133L56.1114 91.5497Z" fill="white"/>
<path d="M51.674 91.3868V69.9981L52.6102 69.5918L52.5749 91.408L51.674 91.3868Z" fill="white"/>
<path d="M44.615 91.3231V72.6407L46.6324 71.874V91.3054C45.9505 91.3125 45.2792 91.316 44.615 91.3231Z" fill="#BBCDE0"/>
<path d="M49.6566 91.3416V70.7266L51.6739 69.96V91.3875L49.6566 91.3416Z" fill="#BBCDE0"/>
<path d="M54.2954 91.4794V68.9672L56.1114 68.2783V91.5501C55.5002 91.5289 54.896 91.5006 54.2954 91.4794Z" fill="#BBCDE0"/>
<path d="M46.6324 91.3135V71.9704L47.6605 71.5146L47.6004 91.3205L46.6324 91.3135Z" fill="white"/>
<path d="M38.5666 91.4783V74.944L40.7853 74.0996V91.4112C40.0328 91.4182 39.2908 91.4465 38.5666 91.4783Z" fill="#BBCDE0"/>
<path d="M40.7854 91.3984V74.1822L41.9618 73.6699L41.8876 91.3701L40.7854 91.3984Z" fill="white"/>
<path d="M31.5078 91.9028V77.6154L34.1292 76.6191V91.7191C33.2319 91.7792 32.3557 91.8463 31.5078 91.9028Z" fill="#BBCDE0"/>
<path d="M34.1292 91.7187V76.6858L35.4929 76.1064L35.4399 91.6516L34.1292 91.7187Z" fill="white"/>
<path d="M15.1677 94.1992V83.8158L17.9941 82.7559V93.6692C16.9342 93.8459 15.9732 94.0225 15.1677 94.1992Z" fill="#BBCDE0"/>
<path d="M17.9941 93.6698V82.8235L19.8348 82.0498L19.7924 93.3553C19.16 93.4472 18.5594 93.5497 17.9941 93.6698Z" fill="white"/>
<path d="M24.2474 92.6867V80.3707L26.6675 79.4521V92.3935C25.8302 92.4889 25.0211 92.5878 24.2474 92.6867Z" fill="#BBCDE0"/>
<path d="M26.6675 92.3946V79.4851L28.2679 78.8174L28.2397 92.2215L26.6675 92.3946Z" fill="white"/>
<path d="M28.2679 80.0812L26.6675 80.696V79.4841L28.2679 78.8164V80.0812Z" fill="#BBCDE0"/>
<path d="M19.8348 83.3313L17.9976 84.0379V82.8226L19.8383 82.0488L19.8348 83.3313Z" fill="#BBCDE0"/>
<path d="M7.51169 86.7654L9.72333 85.8574L9.71979 87.2282L7.51169 88.0797V86.7654Z" fill="#BBCDE0"/>
<path d="M43.4597 65.8779L47.8442 67.436L42.7708 69.1742L35.8956 71.672H32.5181L37.9271 65.8779" fill="#025057"/>
<path d="M46.3108 65.041L51.1475 66.5991L45.6184 68.3373L35.8956 71.6724L40.7217 66.7545" fill="#3598A1"/>
<path d="M40.7217 69.9342L46.3109 68.0229V53.8203L40.7217 54.7919V69.9342Z" fill="#3598A1"/>
<path d="M35.8956 75.1555L50.6917 69.584V66.5986L35.8956 71.672V75.1555Z" fill="#3598A1"/>
<path d="M51.144 66.5986H50.6918V69.5416H51.144V66.5986Z" fill="#3598A1"/>
<path d="M36.4927 75.1555L51.1475 69.5416V66.5986L36.4927 71.672V75.1555Z" fill="#3598A1"/>
<path d="M2.94715 56.1134C5.69228 51.8739 10.9635 55.0076 10.9635 55.0076C12.094 55.4634 23.1063 64.3099 23.1063 64.3099L22.0005 65.4794C17.4465 72.9587 20.7357 76.3468 20.7357 76.3468C21.1195 76.6231 21.5302 76.8598 21.9617 77.0534H20.7357C11.7266 75.4918 5.47677 70.5457 3.65375 68.2704C1.83073 65.9952 0.205561 60.3424 2.94715 56.1134Z" fill="#EEF5FB"/>
<path d="M19.7959 70.7324C19.7676 70.7324 22.0181 65.4576 22.0005 65.4788C15.8849 73.4846 2.12745 58.7132 2.12745 58.7132L2.53021 56.8301C0.389219 60.9637 1.93313 66.1289 3.6537 68.2805C5.47671 70.5557 10.5713 76.106 20.7357 77.0635H21.9616C21.5302 76.8699 21.1194 76.6331 20.7357 76.3569C20.7357 76.3569 19.008 74.5621 19.7959 70.7324Z" fill="#CEDCEA"/>
<path d="M20.6403 62.3417L20.0397 61.8648L19.9054 61.7588C17.188 66.0268 15.5164 70.876 15.0264 75.9119C15.3797 76.0462 15.7612 76.1733 16.1393 76.297C16.3866 70.9269 20.8876 62.5431 20.8911 62.5396L20.6403 62.3417Z" fill="#3598A1"/>
<path d="M31.6314 47.9804C31.6314 47.9804 32.0871 63.5255 31.6314 67.3694C31.1756 71.2132 29.3526 76.4774 28.5082 77.0639C27.6638 77.6503 23.7634 78.5583 20.7357 76.3573C20.7357 76.3573 17.4465 72.9691 22.0005 65.4898L23.1063 64.3204C23.1063 64.3204 27.141 51.213 27.2046 48.6587C27.2046 48.6587 27.4024 47.9698 26.7523 46.9735C26.1023 45.9772 24.1485 41.2253 23.9542 40.8331C23.7599 40.441 23.3253 38.7875 23.6398 38.088C23.9542 37.3885 25.0812 35.5761 25.6359 34.6716C25.7259 34.5141 25.8489 34.3779 25.9965 34.2724C26.1441 34.1669 26.3127 34.0946 26.4909 34.0604C26.8373 33.9915 27.1957 34.0159 27.5296 34.1311L29.3526 32.6508C29.4476 32.5751 29.5572 32.5201 29.6746 32.489C29.792 32.458 29.9145 32.4517 30.0345 32.4706C30.3136 32.5165 30.6245 32.6296 30.5891 32.9122C30.5891 32.9122 31.7621 32.8309 31.4335 33.4845L30.7269 34.2971C30.7269 34.2971 31.6384 34.1982 31.1156 35.0461C30.5927 35.894 29.9461 37.1271 29.9461 37.1271C29.7195 37.5371 29.5451 37.9739 29.4268 38.4272C29.3597 38.8829 29.554 40.4445 29.9461 40.9639C30.3383 41.4832 31.8398 42.9176 31.8398 42.9176C31.8398 42.9176 32.5394 44.4015 31.6314 47.9804Z" fill="#C9887E"/>
<g style="mix-blend-mode:multiply" opacity="0.4">
<path d="M27.6603 38.2564C27.6603 38.2564 28.5259 35.9529 29.1619 35.476C29.7978 34.999 30.7906 34.2041 30.7906 34.2041" stroke="#C9887E" stroke-width="0.356814" stroke-miterlimit="10"/>
</g>
<g style="mix-blend-mode:multiply" opacity="0.4">
<path d="M26.2471 38.1337C26.2471 38.1337 27.148 35.756 27.3459 35.6218C27.5437 35.4875 29.395 34.0143 29.395 34.0143L30.5892 32.9014" stroke="#C9887E" stroke-width="0.356814" stroke-miterlimit="10"/>
</g>
<g style="mix-blend-mode:multiply" opacity="0.4">
<path d="M25.3321 37.4417L26.2471 35.1735L29.5116 32.499" stroke="#C9887E" stroke-width="0.356814" stroke-miterlimit="10"/>
</g>
<g style="mix-blend-mode:multiply" opacity="0.4">
<path d="M23.1063 64.3099C23.1063 64.3099 27.141 51.2025 27.2046 48.6482C27.2046 48.6482 27.4024 47.9593 26.7524 46.963C26.1023 45.9667 24.1486 41.2148 23.9542 40.8226C23.7599 40.4305 23.3254 38.777 23.6398 38.0775C23.9542 37.378 25.0813 35.5656 25.6359 34.6611C25.7265 34.5041 25.8497 34.3682 25.9971 34.2628C26.1446 34.1574 26.313 34.0848 26.4909 34.0499C26.8373 33.981 27.1958 34.0054 27.5296 34.1206L29.3526 32.6438C29.4469 32.5668 29.5564 32.5106 29.6739 32.4789C29.7914 32.4472 29.9143 32.4408 30.0345 32.4601C30.3136 32.506 30.6245 32.6191 30.5892 32.9017C30.5892 32.9017 31.7621 32.8204 31.4336 33.474L30.727 34.2866C30.727 34.2866 31.0803 34.3714 31.1721 34.3785L28.9463 36.9717C27.4272 41.0346 29.123 42.7198 29.9285 46.0832C30.734 49.4466 26.6923 62.9956 26.6923 62.9956C22.8732 74.983 25.1307 77.7529 25.1307 77.7529C23.5571 77.7471 22.024 77.2533 20.7428 76.3397C20.7428 76.3397 17.4536 72.9516 22.0076 65.4722L23.1063 64.3099Z" fill="#C9887E"/>
</g>
<g style="mix-blend-mode:multiply" opacity="0.6">
<g style="mix-blend-mode:multiply" opacity="0.6">
<path d="M24.0001 59.706C24.2213 59.0442 24.3717 58.3609 24.4488 57.6675C24.5619 56.9002 24.5619 56.1206 24.4488 55.3534C24.4015 55.0047 24.2811 54.67 24.0955 54.3712C24.0916 54.3638 24.0857 54.3576 24.0786 54.3533C24.0714 54.349 24.0632 54.3467 24.0548 54.3467C24.0465 54.3467 24.0383 54.349 24.0311 54.3533C24.024 54.3576 24.0181 54.3638 24.0142 54.3712C23.7457 55.4805 24.0955 56.6217 24.099 57.7381C24.0971 57.7449 24.0967 57.7521 24.098 57.7591C24.0993 57.7661 24.1022 57.7727 24.1065 57.7784C24.1108 57.7841 24.1163 57.7887 24.1227 57.7918C24.1291 57.795 24.1361 57.7967 24.1432 57.7967C24.1503 57.7967 24.1573 57.795 24.1637 57.7918C24.17 57.7887 24.1756 57.7841 24.1798 57.7784C24.1841 57.7727 24.187 57.7661 24.1883 57.7591C24.1896 57.7521 24.1893 57.7449 24.1873 57.7381C24.1873 56.6288 23.834 55.4947 24.099 54.3959H24.0178C24.3958 54.9471 24.4453 55.689 24.4523 56.3355C24.4504 57.1124 24.3663 57.8869 24.2015 58.6461C24.1329 58.99 24.0408 59.3288 23.9259 59.66C23.9047 59.713 23.993 59.7378 24.0107 59.6848L24.0001 59.706Z" fill="#CEDCEA"/>
</g>
</g>
<path d="M2.94715 56.1134C5.69228 51.8739 10.9635 55.0076 10.9635 55.0076C12.094 55.4634 23.1063 64.3099 23.1063 64.3099L22.0005 65.4794C17.4465 72.9587 20.7357 76.3468 20.7357 76.3468C21.1195 76.6231 21.5302 76.8598 21.9617 77.0534H20.7357C11.7266 75.4918 5.47677 70.5457 3.65375 68.2704C1.83073 65.9952 0.205561 60.3424 2.94715 56.1134Z" fill="#EEF5FB"/>
<path d="M23.1063 64.3096C23.1063 64.3096 12.094 55.4771 10.9634 55.0073C10.9634 55.0073 7.74136 50.6476 4.84784 49.3545L3.10962 49.5594C2.50234 51.6083 2.17202 53.7292 2.12745 55.8658C2.12745 58.0315 1.33253 60.2184 1.46678 62.7339C2.13098 65.2988 2.9789 67.4328 3.6537 68.2771C5.47672 70.5524 11.7266 75.4985 20.7357 77.0601H21.9616C21.5302 76.8665 21.1194 76.6298 20.7357 76.3535C20.7357 76.3535 17.4465 72.9654 22.0005 65.4861L23.1063 64.3096Z" fill="#EEF5FB"/>
<path d="M19.7959 70.7324C19.7676 70.7324 22.0181 65.4576 22.0004 65.4788C15.8848 73.4846 1.48795 56.8301 1.48795 56.8301C-0.65657 60.9637 1.93311 66.1289 3.65367 68.2805C5.47669 70.5557 10.5712 76.106 20.7356 77.0635H21.9616C21.5301 76.8699 21.1194 76.6331 20.7356 76.3569C20.7356 76.3569 19.008 74.5621 19.7959 70.7324Z" fill="#CEDCEA"/>
<path d="M20.6403 62.3417L20.0397 61.8648L19.9054 61.7588C17.188 66.0268 15.5164 70.876 15.0264 75.9119C15.3797 76.0462 15.7612 76.1733 16.1393 76.297C16.3866 70.9269 20.8876 62.5431 20.8911 62.5396L20.6403 62.3417Z" fill="#3598A1"/>
<path d="M31.6314 47.9804C31.6314 47.9804 32.0871 63.5255 31.6314 67.3694C31.1756 71.2132 29.3526 76.4774 28.5082 77.0639C27.6638 77.6503 23.7634 78.5583 20.7357 76.3573C20.7357 76.3573 17.4465 72.9691 22.0005 65.4898L23.1063 64.3204C23.1063 64.3204 27.141 51.213 27.2046 48.6587C27.2046 48.6587 27.4024 47.9698 26.7523 46.9735C26.1023 45.9772 24.1485 41.2253 23.9542 40.8331C23.7599 40.441 23.3253 38.7875 23.6398 38.088C23.9542 37.3885 25.0812 35.5761 25.6359 34.6716C25.7259 34.5141 25.8489 34.3779 25.9965 34.2724C26.1441 34.1669 26.3127 34.0946 26.4909 34.0604C26.8373 33.9915 27.1957 34.0159 27.5296 34.1311L29.3526 32.6508C29.4476 32.5751 29.5572 32.5201 29.6746 32.489C29.792 32.458 29.9145 32.4517 30.0345 32.4706C30.3136 32.5165 30.6245 32.6296 30.5891 32.9122C30.5891 32.9122 31.7621 32.8309 31.4335 33.4845L30.7269 34.2971C30.7269 34.2971 31.6384 34.1982 31.1156 35.0461C30.5927 35.894 29.9461 37.1271 29.9461 37.1271C29.7195 37.5371 29.5451 37.9739 29.4268 38.4272C29.3597 38.8829 29.554 40.4445 29.9461 40.9639C30.3383 41.4832 31.8398 42.9176 31.8398 42.9176C31.8398 42.9176 32.5394 44.4015 31.6314 47.9804Z" fill="#C9887E"/>
<g style="mix-blend-mode:multiply" opacity="0.4">
<path d="M27.6603 38.2564C27.6603 38.2564 28.5259 35.9529 29.1619 35.476C29.7978 34.999 30.7906 34.2041 30.7906 34.2041" stroke="#C9887E" stroke-width="0.356814" stroke-miterlimit="10"/>
</g>
<g style="mix-blend-mode:multiply" opacity="0.4">
<path d="M26.2471 38.1337C26.2471 38.1337 27.148 35.756 27.3459 35.6218C27.5437 35.4875 29.395 34.0143 29.395 34.0143L30.5892 32.9014" stroke="#C9887E" stroke-width="0.356814" stroke-miterlimit="10"/>
</g>
<g style="mix-blend-mode:multiply" opacity="0.4">
<path d="M25.3321 37.4417L26.2471 35.1735L29.5116 32.499" stroke="#C9887E" stroke-width="0.356814" stroke-miterlimit="10"/>
</g>
<g style="mix-blend-mode:multiply" opacity="0.4">
<path d="M23.1063 64.3099C23.1063 64.3099 27.141 51.2025 27.2046 48.6482C27.2046 48.6482 27.4024 47.9593 26.7524 46.963C26.1023 45.9667 24.1486 41.2148 23.9542 40.8226C23.7599 40.4305 23.3254 38.777 23.6398 38.0775C23.9542 37.378 25.0813 35.5656 25.6359 34.6611C25.7265 34.5041 25.8497 34.3682 25.9971 34.2628C26.1446 34.1574 26.313 34.0848 26.4909 34.0499C26.8373 33.981 27.1958 34.0054 27.5296 34.1206L29.3526 32.6438C29.4469 32.5668 29.5564 32.5106 29.6739 32.4789C29.7914 32.4472 29.9143 32.4408 30.0345 32.4601C30.3136 32.506 30.6245 32.6191 30.5892 32.9017C30.5892 32.9017 31.7621 32.8204 31.4336 33.474L30.727 34.2866C30.727 34.2866 31.0803 34.3714 31.1721 34.3785L28.9463 36.9717C27.4272 41.0346 29.123 42.7198 29.9285 46.0832C30.734 49.4466 26.6923 62.9956 26.6923 62.9956C22.8732 74.983 25.1307 77.7529 25.1307 77.7529C23.5571 77.7471 22.024 77.2533 20.7428 76.3397C20.7428 76.3397 17.4536 72.9516 22.0076 65.4722L23.1063 64.3099Z" fill="#C9887E"/>
</g>
<g style="mix-blend-mode:multiply" opacity="0.6">
<g style="mix-blend-mode:multiply" opacity="0.6">
<path d="M24.0001 59.706C24.2213 59.0442 24.3717 58.3609 24.4488 57.6675C24.5619 56.9002 24.5619 56.1206 24.4488 55.3534C24.4015 55.0047 24.2811 54.67 24.0955 54.3712C24.0916 54.3638 24.0857 54.3576 24.0786 54.3533C24.0714 54.349 24.0632 54.3467 24.0548 54.3467C24.0465 54.3467 24.0383 54.349 24.0311 54.3533C24.024 54.3576 24.0181 54.3638 24.0142 54.3712C23.7457 55.4805 24.0955 56.6217 24.099 57.7381C24.0971 57.7449 24.0967 57.7521 24.098 57.7591C24.0993 57.7661 24.1022 57.7727 24.1065 57.7784C24.1108 57.7841 24.1163 57.7887 24.1227 57.7918C24.1291 57.795 24.1361 57.7967 24.1432 57.7967C24.1503 57.7967 24.1573 57.795 24.1637 57.7918C24.17 57.7887 24.1756 57.7841 24.1798 57.7784C24.1841 57.7727 24.187 57.7661 24.1883 57.7591C24.1896 57.7521 24.1893 57.7449 24.1873 57.7381C24.1873 56.6288 23.834 55.4947 24.099 54.3959H24.0178C24.3958 54.9471 24.4453 55.689 24.4523 56.3355C24.4504 57.1124 24.3663 57.8869 24.2015 58.6461C24.1329 58.99 24.0408 59.3288 23.9259 59.66C23.9047 59.713 23.993 59.7378 24.0107 59.6848L24.0001 59.706Z" fill="#CEDCEA"/>
</g>
</g>
<path d="M20.6403 62.3417L20.0397 61.8648L19.9054 61.7588C17.188 66.0268 15.5164 70.876 15.0264 75.9119C15.3797 76.0462 15.7612 76.1733 16.1393 76.297C16.3866 70.9269 20.8876 62.5431 20.8911 62.5396L20.6403 62.3417Z" fill="#3598A1"/>
<path d="M31.6314 47.9804C31.6314 47.9804 32.0871 63.5255 31.6314 67.3694C31.1756 71.2132 29.3526 76.4774 28.5082 77.0639C27.6638 77.6503 23.7634 78.5583 20.7357 76.3573C20.7357 76.3573 17.4465 72.9691 22.0005 65.4898L23.1063 64.3204C23.1063 64.3204 27.141 51.213 27.2046 48.6587C27.2046 48.6587 27.4024 47.9698 26.7523 46.9735C26.1023 45.9772 24.1485 41.2253 23.9542 40.8331C23.7599 40.441 23.3253 38.7875 23.6398 38.088C23.9542 37.3885 25.0812 35.5761 25.6359 34.6716C25.7259 34.5141 25.8489 34.3779 25.9965 34.2724C26.1441 34.1669 26.3127 34.0946 26.4909 34.0604C26.8373 33.9915 27.1957 34.0159 27.5296 34.1311L29.3526 32.6508C29.4476 32.5751 29.5572 32.5201 29.6746 32.489C29.792 32.458 29.9145 32.4517 30.0345 32.4706C30.3136 32.5165 30.6245 32.6296 30.5891 32.9122C30.5891 32.9122 31.7621 32.8309 31.4335 33.4845L30.7269 34.2971C30.7269 34.2971 31.6384 34.1982 31.1156 35.0461C30.5927 35.894 29.9461 37.1271 29.9461 37.1271C29.7195 37.5371 29.5451 37.9739 29.4268 38.4272C29.3597 38.8829 29.554 40.4445 29.9461 40.9639C30.3383 41.4832 31.8398 42.9176 31.8398 42.9176C31.8398 42.9176 32.5394 44.4015 31.6314 47.9804Z" fill="#C9887E"/>
<g style="mix-blend-mode:multiply" opacity="0.4">
<path d="M27.6603 38.2564C27.6603 38.2564 28.5259 35.9529 29.1619 35.476C29.7978 34.999 30.7906 34.2041 30.7906 34.2041" stroke="#C9887E" stroke-width="0.356814" stroke-miterlimit="10"/>
</g>
<g style="mix-blend-mode:multiply" opacity="0.4">
<path d="M26.2471 38.1337C26.2471 38.1337 27.148 35.756 27.3459 35.6218C27.5437 35.4875 29.395 34.0143 29.395 34.0143L30.5892 32.9014" stroke="#C9887E" stroke-width="0.356814" stroke-miterlimit="10"/>
</g>
<g style="mix-blend-mode:multiply" opacity="0.4">
<path d="M25.3321 37.4417L26.2471 35.1735L29.5116 32.499" stroke="#C9887E" stroke-width="0.356814" stroke-miterlimit="10"/>
</g>
<g style="mix-blend-mode:multiply" opacity="0.4">
<path d="M23.1063 64.3099C23.1063 64.3099 27.141 51.2025 27.2046 48.6482C27.2046 48.6482 27.4024 47.9593 26.7524 46.963C26.1023 45.9667 24.1486 41.2148 23.9542 40.8226C23.7599 40.4305 23.3254 38.777 23.6398 38.0775C23.9542 37.378 25.0813 35.5656 25.6359 34.6611C25.7265 34.5041 25.8497 34.3682 25.9971 34.2628C26.1446 34.1574 26.313 34.0848 26.4909 34.0499C26.8373 33.981 27.1958 34.0054 27.5296 34.1206L29.3526 32.6438C29.4469 32.5668 29.5564 32.5106 29.6739 32.4789C29.7914 32.4472 29.9143 32.4408 30.0345 32.4601C30.3136 32.506 30.6245 32.6191 30.5892 32.9017C30.5892 32.9017 31.7621 32.8204 31.4336 33.474L30.727 34.2866C30.727 34.2866 31.0803 34.3714 31.1721 34.3785L28.9463 36.9717C27.4272 41.0346 29.123 42.7198 29.9285 46.0832C30.734 49.4466 26.6923 62.9956 26.6923 62.9956C22.8732 74.983 25.1307 77.7529 25.1307 77.7529C23.5571 77.7471 22.024 77.2533 20.7428 76.3397C20.7428 76.3397 17.4536 72.9516 22.0076 65.4722L23.1063 64.3099Z" fill="#C9887E"/>
</g>
<g style="mix-blend-mode:multiply" opacity="0.6">
<g style="mix-blend-mode:multiply" opacity="0.6">
<path d="M24.0001 59.706C24.2213 59.0442 24.3717 58.3609 24.4488 57.6675C24.5619 56.9002 24.5619 56.1206 24.4488 55.3534C24.4015 55.0047 24.2811 54.67 24.0955 54.3712C24.0916 54.3638 24.0857 54.3576 24.0786 54.3533C24.0714 54.349 24.0632 54.3467 24.0548 54.3467C24.0465 54.3467 24.0383 54.349 24.0311 54.3533C24.024 54.3576 24.0181 54.3638 24.0142 54.3712C23.7457 55.4805 24.0955 56.6217 24.099 57.7381C24.0971 57.7449 24.0967 57.7521 24.098 57.7591C24.0993 57.7661 24.1022 57.7727 24.1065 57.7784C24.1108 57.7841 24.1163 57.7887 24.1227 57.7918C24.1291 57.795 24.1361 57.7967 24.1432 57.7967C24.1503 57.7967 24.1573 57.795 24.1637 57.7918C24.17 57.7887 24.1756 57.7841 24.1798 57.7784C24.1841 57.7727 24.187 57.7661 24.1883 57.7591C24.1896 57.7521 24.1893 57.7449 24.1873 57.7381C24.1873 56.6288 23.834 55.4947 24.099 54.3959H24.0178C24.3958 54.9471 24.4453 55.689 24.4523 56.3355C24.4504 57.1124 24.3663 57.8869 24.2015 58.6461C24.1329 58.99 24.0408 59.3288 23.9259 59.66C23.9047 59.713 23.993 59.7378 24.0107 59.6848L24.0001 59.706Z" fill="#CEDCEA"/>
</g>
</g>
<g style="mix-blend-mode:multiply" opacity="0.4">
<path d="M18.4675 67.7432C17.9458 67.8397 17.4145 67.8741 16.8847 67.8456C15.9109 70.4401 15.286 73.1524 15.0264 75.9114L15.5528 76.0951C15.7471 76.1517 15.9449 76.2011 16.1428 76.2541C16.27 73.6821 17.3617 70.4353 18.4675 67.7432Z" fill="#3598A1"/>
</g>
<path d="M3.10964 45.3877L1.92963 48.3342L12.0128 54.7289C12.0128 54.7289 12.7759 55.2906 12.6169 54.093C12.4579 52.8953 12.843 51.4644 13.3235 51.2065L13.8146 50.9451L14.235 50.7578" fill="#02737D"/>
<path d="M6.64614 76.915C6.11375 76.3937 5.52067 75.9382 4.87965 75.5583C4.24397 75.1664 3.55825 74.8622 2.84112 74.6539C2.82457 74.6498 2.80722 74.6507 2.79115 74.6563C2.77507 74.6619 2.76096 74.672 2.75051 74.6855C2.74006 74.6989 2.73371 74.7151 2.73224 74.732C2.73076 74.749 2.73422 74.766 2.74219 74.7811C3.64664 76.3144 4.78779 77.6816 5.85828 79.0984C6.16212 79.4976 6.46242 79.9039 6.74506 80.3172C6.80866 80.4091 6.96411 80.3172 6.89698 80.2289C5.89361 78.7698 4.73126 77.4273 3.71729 75.9893C3.42759 75.5724 3.14848 75.145 2.89058 74.7069L2.79165 74.8376C3.49454 75.0419 4.16616 75.3414 4.78779 75.7279C5.41638 76.0978 5.9977 76.5426 6.51895 77.0528C6.60021 77.134 6.7274 77.0068 6.64614 76.9291V76.915Z" fill="#CEDCEA"/>
<g style="mix-blend-mode:multiply">
<g style="mix-blend-mode:multiply">
<path d="M7.04184 77.4918C7.48699 77.6154 7.93568 77.7214 8.36671 77.8875C8.80961 78.0208 9.20146 78.2857 9.49019 78.6471L9.51492 78.5835C8.85333 78.6533 8.18474 78.6127 7.53645 78.4633C7.47993 78.4633 7.45873 78.5411 7.51526 78.5517C8.17931 78.6997 8.86299 78.7391 9.53966 78.6683C9.54606 78.6665 9.55197 78.6633 9.55691 78.6589C9.56184 78.6544 9.56567 78.6489 9.56808 78.6427C9.57048 78.6365 9.5714 78.6298 9.57076 78.6232C9.57012 78.6166 9.56794 78.6103 9.56439 78.6046C9.2869 78.2464 8.90947 77.9784 8.47976 77.8345C8.02048 77.6507 7.53999 77.5412 7.06657 77.4034C7.0551 77.4009 7.04309 77.4028 7.03301 77.4089C7.02293 77.4149 7.01555 77.4246 7.01238 77.4359C7.00921 77.4472 7.0105 77.4593 7.01598 77.4697C7.02146 77.4801 7.03071 77.488 7.04184 77.4918Z" fill="#DBE7EF"/>
</g>
</g>
</g>
<defs>
<linearGradient id="paint0_linear_10065_63675" x1="54.6134" y1="40.2821" x2="47.6605" y2="40.2821" gradientUnits="userSpaceOnUse">
<stop stop-color="white"/>
<stop offset="1" stop-color="white" stop-opacity="0"/>
</linearGradient>
<linearGradient id="paint1_linear_10065_63675" x1="-14922.8" y1="1787.29" x2="-15137.3" y2="1779.71" gradientUnits="userSpaceOnUse">
<stop stop-color="white"/>
<stop offset="1" stop-color="white" stop-opacity="0"/>
</linearGradient>
<linearGradient id="paint2_linear_10065_63675" x1="9.82232" y1="30.1179" x2="9.82232" y2="38.3038" gradientUnits="userSpaceOnUse">
<stop stop-color="#2C2D53"/>
<stop offset="1" stop-color="#2C2D53" stop-opacity="0"/>
</linearGradient>
<clipPath id="clip0_10065_63675">
<rect width="90" height="90" fill="white"/>
</clipPath>
</defs>
</svg>
