<svg width="40" height="40" viewBox="0 0 40 40" fill="none" xmlns="http://www.w3.org/2000/svg">
<path d="M22.1829 33.7539C22.1829 35.2782 24.2048 36.6667 24.394 36.6667C24.5832 36.6667 26.6052 35.2782 26.6052 33.7539C26.6052 32.6744 25.7715 29.5455 25.1269 27.8292C24.9099 27.9746 24.6549 28.0522 24.394 28.0522C24.1332 28.0522 23.8781 27.9746 23.6611 27.8292C23.0187 29.5476 22.1829 32.6723 22.1829 33.7539ZM23.6175 26.3394C23.721 26.4434 23.844 26.526 23.9793 26.5823C24.1146 26.6387 24.2597 26.6677 24.4061 26.6677C24.5526 26.6678 24.6977 26.6389 24.8331 26.5826C24.9684 26.5263 25.0914 26.4439 25.195 26.3399C25.2986 26.2359 25.3809 26.1124 25.437 25.9765C25.4931 25.8406 25.522 25.695 25.522 25.5478C25.5221 25.4007 25.4933 25.255 25.4372 25.1191C25.3812 24.9832 25.2991 24.8597 25.1956 24.7556C24.9864 24.5454 24.7027 24.4273 24.4069 24.4272C24.111 24.4271 23.8273 24.5451 23.618 24.7551C23.4087 24.9651 23.2911 25.25 23.291 25.5471C23.2909 25.8442 23.4083 26.1292 23.6175 26.3394ZM32.0671 22.963C31.7902 22.7758 31.4525 22.7018 31.1231 22.7562C30.7937 22.8106 30.4974 22.9893 30.2947 23.2557C30.092 23.5221 29.9983 23.8562 30.0327 24.1897C30.0671 24.5232 30.227 24.8309 30.4797 25.05C31.905 26.1358 33.0597 27.5392 33.8528 29.1497C34.6459 30.7601 35.0556 32.5336 35.0497 34.3302C35.0497 35.0558 35.6339 35.6457 36.3564 35.6498C36.7042 35.6487 37.0374 35.5092 37.2829 35.2619C37.5284 35.0145 37.6663 34.6795 37.6663 34.3302C37.6733 32.1294 37.1712 29.9571 36.1996 27.9845C35.2279 26.0119 33.8133 24.2929 32.0671 22.963Z" fill="#1E6BA0"/>
<path d="M33.0506 13.0051C33.0551 10.6844 32.227 8.43969 30.7178 6.68219C29.2086 4.9247 27.1195 3.77206 24.8331 3.43539C22.5467 3.09872 20.216 3.60057 18.268 4.84901C16.32 6.09745 14.885 8.0089 14.226 10.2333C13.6332 12.2238 13.6963 14.3534 14.4058 16.3051C15.1154 18.2567 16.4334 19.9261 18.1639 21.0649C15.5301 22.1338 13.2724 23.9652 11.6779 26.3262C10.0833 28.6871 9.22391 31.471 9.20898 34.3238C9.2254 34.6617 9.37063 34.9803 9.61458 35.2136C9.85852 35.447 10.1825 35.5771 10.5194 35.5771C10.8562 35.5771 11.1802 35.447 11.4242 35.2136C11.6681 34.9803 11.8133 34.6617 11.8298 34.3238C11.837 27.8875 17.0297 22.6705 23.4387 22.6612C24.7013 22.6612 25.9515 22.4114 27.118 21.9261C28.2845 21.4408 29.3444 20.7296 30.2372 19.8329C31.1299 18.9362 31.8381 17.8718 32.3211 16.7002C32.8042 15.5287 33.0528 14.2731 33.0527 13.0051H33.0506ZM16.4423 13.0051C16.4178 12.0824 16.5745 11.1639 16.9035 10.302C17.2325 9.44016 17.7272 8.6518 18.3596 7.98195C18.9919 7.31211 19.7494 6.7739 20.5889 6.39807C21.4284 6.02223 22.3333 5.81613 23.2521 5.79152C24.1709 5.76691 25.0855 5.92428 25.9437 6.25464C26.8019 6.585 27.5869 7.08189 28.2539 7.71693C28.9209 8.35197 29.4568 9.11273 29.831 9.95577C30.2053 10.7988 30.4105 11.7076 30.435 12.6303C30.4846 14.4938 29.7951 16.3007 28.5182 17.6536C27.8859 18.3235 27.1284 18.8618 26.2889 19.2377C25.4495 19.6136 24.5446 19.8197 23.6258 19.8444C21.7703 19.8943 19.971 19.2018 18.6238 17.9194C17.2767 16.6369 16.492 14.8696 16.4423 13.0061V13.0051Z" fill="#1E6BA0"/>
<path d="M13.4807 19.9227C13.4786 19.6102 13.3579 19.3102 13.1434 19.0839C12.9288 18.8575 12.6365 18.7218 12.3258 18.7043C11.1243 18.3963 10.059 17.6955 9.29782 16.7124C8.53666 15.7292 8.12289 14.5197 8.12173 13.2744C8.12286 12.144 8.46388 11.0402 9.10012 10.1077C9.73636 9.17514 10.6382 8.45728 11.6875 8.04808C12.0804 7.16067 12.5732 6.34217 13.1543 5.5957C11.5529 5.70802 10.027 6.32252 8.79207 7.35249C7.55709 8.38245 6.67535 9.77587 6.27126 11.3361C5.86718 12.8964 5.96116 14.5446 6.53995 16.0484C7.11874 17.5521 8.15311 18.8353 9.49708 19.717C7.38982 20.5723 5.58349 22.0378 4.30785 23.927C3.03221 25.8161 2.34491 28.0437 2.33337 30.3262C2.33337 30.6056 2.44389 30.8735 2.6406 31.0711C2.83731 31.2686 3.10411 31.3796 3.38231 31.3796C3.6605 31.3796 3.9273 31.2686 4.12401 31.0711C4.32072 30.8735 4.43124 30.6056 4.43124 30.3262C4.43742 28.1193 5.22316 25.9861 6.64862 24.3064C8.07408 22.6267 10.0468 21.5095 12.2156 21.1535C12.3797 21.1584 12.5432 21.1302 12.6963 21.0705C12.8495 21.0108 12.9891 20.9208 13.107 20.8059C13.2248 20.6911 13.3186 20.5536 13.3826 20.4017C13.4466 20.2498 13.4796 20.0866 13.4797 19.9216L13.4807 19.9227Z" fill="#1E6BA0"/>
</svg>
