<svg width="80" height="80" viewBox="0 0 80 80" fill="none" xmlns="http://www.w3.org/2000/svg">
<path fill-rule="evenodd" clip-rule="evenodd" d="M34.0242 37.374H39.3179C40.6903 37.374 41.8667 38.5269 41.8667 39.872V57.1021C41.8667 58.5112 40.6903 59.6001 39.3179 59.6001H14.5488C13.111 59.6001 12 58.4472 12 57.1021V39.872C12 38.4628 13.1764 37.374 14.5488 37.374H19.7771V37.3099C19.7771 35.1962 21.5416 33.4668 23.6983 33.4668H30.103C32.2597 33.4668 34.0242 35.1962 34.0242 37.3099V37.374ZM23.6983 35.3883C22.5873 35.3883 21.6724 36.2851 21.6724 37.374L32.129 37.438V37.374C32.129 36.2851 31.214 35.3883 30.103 35.3883H23.6983ZM29.8416 48.1988V51.0171H23.6983V48.1347L17.5551 48.0707L13.8953 45.3805V57.1021C13.8953 57.4223 14.1567 57.7426 14.5488 57.7426H39.3832C39.71 57.7426 40.0368 57.4864 40.0368 57.1021V45.4445L35.7234 48.2628L29.8416 48.1988ZM13.8299 43.1387L18.1433 46.2772L35.0045 46.4053L39.9061 43.2027V39.872C39.9061 39.5517 39.6446 39.2315 39.2525 39.2315H14.4834C14.1567 39.2315 13.8299 39.4877 13.8299 39.872V43.1387ZM27.9463 49.2236V48.2628H25.5282V49.2236H27.9463ZM46.5331 39.0664C46.0177 39.0664 45.5998 39.4843 45.5998 39.9997C45.5998 40.5152 46.0177 40.9331 46.5331 40.9331H55.6665C56.1819 40.9331 56.5998 40.5152 56.5998 39.9997C56.5998 39.4843 56.1819 39.0664 55.6665 39.0664H46.5331ZM46.5331 44.6668C46.0177 44.6668 45.5998 45.0847 45.5998 45.6002C45.5998 46.1156 46.0177 46.5335 46.5331 46.5335H55.6665C56.1819 46.5335 56.5998 46.1156 56.5998 45.6002C56.5998 45.0847 56.1819 44.6668 55.6665 44.6668H46.5331ZM45.5998 51.1999C45.5998 50.6844 46.0177 50.2666 46.5331 50.2666H55.6665C56.1819 50.2666 56.5998 50.6844 56.5998 51.1999C56.5998 51.7154 56.1819 52.1332 55.6665 52.1332H46.5331C46.0177 52.1332 45.5998 51.7154 45.5998 51.1999Z" fill="url(#paint0_linear)"/>
<path fill-rule="evenodd" clip-rule="evenodd" d="M66.8709 26.5996L66.8717 26.6024L66.8722 26.6042V65.5914C66.8722 66.7533 65.9239 67.7 64.7613 67.7H28.4105C27.2478 67.7 26.2996 66.7533 26.2996 65.5914V61.3H27.569V65.5914C27.569 66.0558 27.9461 66.4329 28.4105 66.4329H64.7636C65.228 66.4329 65.6051 66.0558 65.6051 65.5914V27.2205H52.4919C52.1422 27.2205 51.8583 26.9352 51.8583 26.587V13.5718H28.4105C27.9461 13.5718 27.569 13.9488 27.569 14.4133V31.7H26.2996V14.4109C26.2996 13.2486 27.2482 12.3 28.4105 12.3H52.2165C52.7773 12.3 53.3082 12.5201 53.7145 12.9281L66.6061 26.0563V26.0606L66.6918 26.148C66.7531 26.2107 66.8016 26.3045 66.8357 26.4315L66.8377 26.4382C66.8438 26.4591 66.8479 26.4795 66.8509 26.5053C66.8559 26.5475 66.8666 26.5846 66.8709 26.5996ZM66.6061 25.9382V25.944C66.606 25.9383 66.6061 25.9358 66.6061 25.9382ZM53.1278 14.1324V25.9487H64.7318L53.1278 14.1324Z" fill="#313840"/>
<defs>
<linearGradient id="paint0_linear" x1="34.2792" y1="37.8023" x2="42.4368" y2="48.4482" gradientUnits="userSpaceOnUse">
<stop stop-color="#D55B17"/>
<stop offset="1" stop-color="#D99227"/>
</linearGradient>
</defs>
</svg>
