<svg width="540" height="312" viewBox="0 0 540 312" fill="none" xmlns="http://www.w3.org/2000/svg">
<path d="M2.197e-05 64.7108C0.00700687 38.9326 15.3142 15.6161 38.9682 5.35275C62.6223 -4.91056 90.1133 -0.163811 108.953 17.4368C109.125 17.6005 109.336 17.8189 109.57 18.0762C133.588 44.1953 174.233 45.9196 200.378 21.9286C214.278 9.14534 232.485 2.06488 251.372 2.09727C254.073 2.13856 256.764 2.42306 259.414 2.9473C278.378 6.48983 294.581 18.7231 303.177 35.9892L304.487 38.6329C319.116 67.9857 351.981 83.4694 383.938 76.0653L385.787 75.6364C422.163 64.9974 461.426 72.1018 491.764 94.812C522.102 117.522 539.973 153.187 540 191.076C540 191.349 540 191.622 540 191.903C540 192.184 540 192.449 540 192.722C540 258.239 486.872 311.351 421.335 311.351H419.689C412.996 311.258 405.031 310.135 396.287 308.302C309.673 290.047 220.379 288.401 133.151 303.452C122.16 305.37 112.027 306.509 103.508 306.509C74.9151 306.493 47.8275 293.694 29.6649 271.617C11.5024 249.54 4.1688 220.499 9.67297 192.449C16.7227 156.552 14.4697 119.448 3.12813 84.6669C1.04993 78.2189 -0.00555306 71.4853 2.197e-05 64.7108Z" fill="#E6F2F3"/>
<path d="M376.054 239.108C376.188 239.108 376.297 238.999 376.297 238.865C376.297 238.73 376.188 238.622 376.054 238.622C375.92 238.622 375.811 238.73 375.811 238.865C375.811 238.999 375.92 239.108 376.054 239.108Z" fill="#9955EE"/>
<path d="M161.179 130.378H192.983C200.321 130.378 206.27 136.259 206.27 143.514C206.27 150.768 200.321 156.649 192.983 156.649H161.179C153.841 156.649 147.892 150.768 147.892 143.514C147.892 136.259 153.841 130.378 161.179 130.378Z" fill="#113757"/>
<path d="M164.104 130.378H195.896C203.238 130.378 209.189 136.259 209.189 143.514C209.189 150.768 203.238 156.649 195.896 156.649H164.104C156.762 156.649 150.811 150.768 150.811 143.514C150.811 136.259 156.762 130.378 164.104 130.378Z" fill="#084E8A"/>
<path d="M197.514 115.784L202.378 108.973" stroke="#084E8A" stroke-width="2"/>
<path d="M206.27 123.568L213.081 118.703" stroke="#084E8A" stroke-width="2"/>
<path d="M214.054 117.73L219.892 113.838" stroke="#084E8A" stroke-width="2"/>
<path d="M223.784 111.892L227.676 108.973" stroke="#084E8A" stroke-width="2"/>
<path d="M219.892 132.324L227.676 130.378" stroke="#084E8A" stroke-width="2"/>
<path d="M213.081 146.014L220.865 146.851" stroke="#084E8A" stroke-width="2"/>
<path d="M223.784 147.079L229.622 147.731" stroke="#084E8A" stroke-width="2"/>
<path d="M234.487 148.15L238.378 148.607" stroke="#084E8A" stroke-width="2"/>
<path d="M218.919 162.487L225.73 165.405" stroke="#084E8A" stroke-width="2"/>
<path d="M203.351 168.324L209.189 174.162" stroke="#084E8A" stroke-width="2"/>
<path d="M210.162 175.135L215.027 180" stroke="#084E8A" stroke-width="2"/>
<path d="M218.919 182.919L221.838 185.838" stroke="#084E8A" stroke-width="2"/>
<path d="M159.568 173.189L154.703 180" stroke="#084E8A" stroke-width="2"/>
<path d="M149.838 164.432L144.973 168.324" stroke="#084E8A" stroke-width="2"/>
<path d="M143.027 170.27L136.216 175.135" stroke="#084E8A" stroke-width="2"/>
<path d="M133.297 177.081L129.405 180" stroke="#084E8A" stroke-width="2"/>
<path d="M136.216 156.649L128.432 158.595" stroke="#084E8A" stroke-width="2"/>
<path d="M144 141.932L137.189 141.203" stroke="#084E8A" stroke-width="2"/>
<path d="M135.243 141.991L127.459 141.144" stroke="#084E8A" stroke-width="2"/>
<path d="M122.595 140.823L118.703 140.366" stroke="#084E8A" stroke-width="2"/>
<path d="M145.946 130.378L139.135 127.459" stroke="#084E8A" stroke-width="2"/>
<path d="M152.757 120.649L147.892 115.784" stroke="#084E8A" stroke-width="2"/>
<path d="M146.919 113.838L141.081 108" stroke="#084E8A" stroke-width="2"/>
<path d="M138.162 105.081L135.243 102.162" stroke="#084E8A" stroke-width="2"/>
<path d="M212.108 111.892L215.027 108.973" stroke="#084E8A" stroke-width="2"/>
<path d="M224.757 158.595L228.649 159.568" stroke="#084E8A" stroke-width="2"/>
<path d="M144 181.946L141.081 184.865" stroke="#084E8A" stroke-width="2"/>
<path d="M129.405 151.064L125.513 151.531" stroke="#084E8A" stroke-width="2"/>
<path d="M137.189 118.703L134.27 116.757" stroke="#084E8A" stroke-width="2"/>
<path d="M148.865 107.027L146.919 104.108" stroke="#084E8A" stroke-width="2"/>
<path d="M166.73 135.355L193.785 135.318L193.808 151.261L166.752 151.299L166.73 135.355Z" fill="white"/>
<path d="M173.856 144L186.168 143.985L193.622 135.243L166.378 135.282L173.856 144Z" fill="white"/>
<path d="M166.378 135.282L173.856 144L186.168 143.985L193.622 135.243" stroke="#084E8A"/>
<path d="M193.622 150.811L186.811 143.027" stroke="#084E8A"/>
<path d="M166.378 150.811L173.189 143.027" stroke="#084E8A"/>
<path d="M364.941 101.179C365.832 96.6655 363.456 95.8989 360.986 96.2118C359.757 96.3987 358.558 96.7512 357.422 97.2599C355.489 98.1554 353.205 97.777 351.662 96.3056C350.63 95.2292 349.684 94.0732 348.833 92.8483C348.739 92.6763 348.638 92.5276 348.536 92.3477C347.968 91.3682 347.337 90.4275 346.644 89.5318C345.12 87.6054 343.387 85.8531 341.478 84.3068C341.064 83.9235 340.697 83.5872 340.392 83.3369C338.532 81.7725 332.576 79.9734 336.875 73.0041C341.173 66.0347 359.814 63.3909 370.6 68.5925C381.386 73.7941 386.872 82.3278 387.654 94.6865C388.436 107.045 392.461 115.29 394.813 118.528C397.166 121.766 397.94 129.416 397.854 132.459C397.768 135.501 400.3 140.5 402.363 142.76C404.427 145.021 413.634 165.819 400.105 174.549C400.105 174.549 391.671 181.119 382.363 175.526C382.363 175.526 392.852 161.103 380.299 150.606C368.271 140.547 362.823 145.537 356.852 129.635C356.333 128.256 356.035 126.804 355.969 125.333C355.797 121.242 355.531 112.176 356.274 106.756C356.25 106.74 363.566 108.109 364.941 101.179Z" fill="#2C2D53"/>
<path d="M336.836 72.9884C336.836 72.9884 335.788 76.6256 341.314 79.465C344.921 81.2284 347.392 84.6989 347.879 88.687C348.012 90.0637 353.303 98.6522 360.119 96.3682" stroke="#404178" stroke-width="0.73"/>
<path d="M335.796 74.9987C335.796 74.9987 335.984 78.4716 340.251 80.7243C342.36 81.8383 344.147 83.4759 345.441 85.4801C346.5 87.0741 347.316 88.8165 347.864 90.6504C347.864 90.6504 350.92 97.9639 357.008 96.7124" stroke="#404178" stroke-width="0.73"/>
<path d="M336.249 79.465C334.565 82.829 333.586 86.5025 333.373 90.2592C333.373 90.2592 333.045 95.4217 327.488 100.983C327.488 100.983 326.316 102.164 326.972 102.884C327.629 103.603 330.434 104.644 330.434 104.644C330.434 104.644 329.52 108.179 328.926 108.962C328.926 108.962 329.583 110.143 330.434 110.276C330.434 110.276 328.926 111.511 329.121 112.106C329.585 112.864 330.136 113.565 330.763 114.194C330.91 114.838 330.976 115.498 330.958 116.158C330.825 116.549 329.583 119.951 332.982 120.413C336.382 120.874 346.379 123.416 351.936 115.829L356.25 106.74C356.25 106.74 363.566 108.117 364.941 101.179C366.317 94.2406 359.97 96.1413 357.422 97.2677C354.875 98.3941 351.74 97.9169 348.536 92.3634C345.331 86.8098 340.822 83.986 340.173 83.1335C339.524 82.2809 336.382 80.7087 336.249 79.465Z" fill="#F9D0B4"/>
<path d="M333.451 88.6948C335.735 88.5838 337.93 89.5902 339.337 91.3934L339.493 92.6136C339.493 92.6136 336.195 90.1263 333.303 90.6503C333.326 90.6503 332.404 89.2893 333.451 88.6948Z" fill="#1A2B4C"/>
<g style="mix-blend-mode:multiply" opacity="0.6">
<path d="M350.951 95.7503C343.268 86.8411 337.781 82.8988 335.366 81.4126C335.859 80.2002 336.249 79.465 336.249 79.465C336.382 80.7087 339.516 82.2809 340.157 83.1256C340.798 83.9704 345.316 86.7941 348.52 92.3555C349.196 93.5668 350.021 94.6888 350.974 95.6955L350.951 95.7503Z" fill="#F9D0B4"/>
</g>
<g style="mix-blend-mode:multiply" opacity="0.6">
<path d="M380.26 150.59C369.248 141.376 363.746 144.794 358.321 133.21C356.817 129.999 355.979 126.515 355.859 122.971C355.711 118.379 355.625 111.238 356.242 106.74C358.174 107.046 360.152 106.723 361.885 105.817C360.356 113.572 361.733 121.619 365.754 128.423C372.515 139.506 407.178 157.231 382.324 175.511C382.324 175.511 392.852 161.095 380.26 150.59Z" fill="#F9D0B4"/>
</g>
<path d="M399.049 202.442C410.296 212.454 407.295 231.93 407.295 231.93C407.295 231.93 405.068 234.277 404.278 231.93C403.489 229.584 403.239 222.247 402.84 221.598C402.441 220.948 401.41 209.567 394.868 204.202C395.134 202.097 399.049 202.442 399.049 202.442Z" fill="#DBE7EF"/>
<path d="M340.017 188.753L345.175 161.549C345.175 161.549 348.387 142.635 359.806 136.041C364.785 144.254 370.24 142.228 380.237 150.59C392.789 161.095 382.3 175.511 382.3 175.511C385.217 177.321 388.664 178.077 392.07 177.654L393.805 203.951C393.805 203.951 400.113 224.202 394.884 227.081C394.884 227.081 392.008 227.738 390.569 227.081C389.131 226.424 386.263 223.045 384.317 224.21C382.371 225.376 379.479 227.738 372.812 226.033C366.145 224.328 360.658 221.34 358.439 220.417C356.219 219.494 346.902 215.285 340.048 217.695C340.048 217.695 331.185 209.818 338.54 194.229L340.017 188.753Z" fill="white"/>
<path d="M363.933 140.797C364.583 141.293 365.267 141.742 365.981 142.142C358.829 140.828 350.294 147.281 350.294 147.281C353.241 142.009 363.777 140.812 363.933 140.797Z" fill="#DBE7EF"/>
<path d="M391.343 177.724C391.82 183.786 393.07 200.408 392.648 202.911C392.326 200.514 391.704 198.167 390.796 195.926C389.655 193.509 387.568 182.378 387.764 177.552C388.945 177.755 390.147 177.812 391.343 177.724Z" fill="#DBE7EF"/>
<path d="M348.677 171.326L370.037 175.644L363.378 201.761C363.333 201.933 363.193 202.064 363.019 202.097C355.203 203.615 347.965 199.704 346.551 198.867C346.397 198.777 346.309 198.606 346.324 198.429L348.677 171.326Z" fill="#E9BB66"/>
<path d="M371.686 172.319C371.686 172.092 371.335 171.897 371.116 171.858L349.278 167.853C349.055 167.812 348.831 167.919 348.724 168.119L347.629 170.536C347.571 170.663 347.571 170.808 347.629 170.935C347.694 171.056 347.808 171.145 347.942 171.177L370.748 175.792C370.946 175.821 371.148 175.788 371.327 175.698C371.436 175.612 371.686 175.479 371.686 175.339V172.319Z" fill="#475885"/>
<path d="M368.888 168.096C368.848 167.909 368.7 167.764 368.513 167.728L352.655 164.802C352.458 164.77 352.261 164.863 352.162 165.037L350.318 168.401L369.576 171.615L368.888 168.096Z" fill="#475885"/>
<path d="M349.208 134.602C349.208 125.286 345.3 120.577 345.3 120.577C348.038 119.824 350.434 118.15 352.084 115.837L356.336 106.748C355.75 111.042 356.047 117.621 356.406 122.212C356.639 125.236 357.176 128.229 358.009 131.145C358.4 132.806 358.999 134.412 359.791 135.924C350.599 140.82 347.168 156.386 347.168 156.386C346.183 144.52 338.993 142.948 338.993 142.948C339.352 136.37 349.208 134.602 349.208 134.602Z" fill="#F9D0B4"/>
<path d="M340.017 143.355C339.759 143.261 339.509 143.151 339.235 143.05C339.454 143.12 339.704 143.214 340.017 143.355Z" fill="#DBE7EF"/>
<path d="M334.288 135.29C337.109 129.932 348.356 129.033 348.559 129.033C348.918 130.865 349.096 132.727 349.091 134.594C349.091 134.594 339.345 136.354 338.93 142.878C331.974 139.694 334.288 135.29 334.288 135.29Z" fill="#DBE7EF"/>
<path d="M319.258 216.224C319.974 211.067 321 205.958 322.33 200.924C322.33 200.924 325.01 191.045 324.549 188.167C324.088 185.288 322.791 182.738 323.181 179.148C323.572 175.558 323.377 173.586 325.143 171.326C326.91 169.065 327.199 162.925 326.417 160.5C325.636 158.076 321.579 150.559 322.298 149.385C322.939 148.329 330.231 142.854 331.794 141.681C331.456 144.234 331.339 146.812 331.443 149.385C331.443 149.385 334.194 142.823 338.844 142.885C338.844 142.885 338.844 142.932 338.844 142.956C338.844 142.979 344.792 144.246 346.66 153.296C346.543 156.05 346.332 159.178 345.957 162.088C344.972 169.676 344.777 170.129 344.652 172.358C344.526 174.588 344.143 183.544 342.83 186.547C341.517 189.551 337.523 198.194 336.937 200.416C336.351 202.637 336.085 211.007 338.962 214.018C341.838 217.03 341.681 217.554 341.681 217.554C341.681 217.554 338.633 217.225 337.719 218.336L337.266 219.055C337.266 219.055 332.49 219.908 330.27 221.402C328.051 222.896 326.542 224.734 323.408 224.085C320.274 223.436 318.476 222.966 319.258 216.224Z" fill="white"/>
<path d="M338.922 142.87C338.922 142.87 338.922 142.917 338.922 142.94C338.922 142.963 344.87 144.231 346.738 153.281C346.621 156.034 346.41 159.163 346.035 162.073C345.05 169.66 344.855 170.113 344.73 172.343C344.604 174.572 344.222 183.528 342.908 186.532C341.595 189.535 337.602 198.179 337.015 200.4C336.429 202.621 336.163 210.991 339.04 214.002C341.916 217.014 341.76 217.538 341.76 217.538" stroke="#DBE7EF" stroke-width="0.98"/>
<path d="M335.796 142.87C335.796 142.87 335.796 142.917 335.796 142.94C335.796 142.963 341.744 144.231 343.612 153.281C343.495 156.034 343.284 159.163 342.901 162.073C341.924 169.66 341.728 170.113 341.595 172.343C341.463 174.572 341.095 183.528 339.774 186.532C338.454 189.535 334.475 198.179 333.889 200.4C333.303 202.621 333.037 210.991 335.913 214.002C338.79 217.014 338.633 217.538 338.633 217.538" stroke="#DBE7EF" stroke-width="0.98"/>
<path d="M330.325 144.419C330.145 143.667 330.381 142.876 330.943 142.346L331.888 141.431C331.52 144.057 331.39 146.712 331.498 149.362L330.325 144.419Z" fill="#DBE7EF"/>
<path d="M338.876 142.885C338.431 142.683 337.998 142.455 337.578 142.205C339.121 142.947 340.619 143.781 342.064 144.7C335.03 141.892 331.482 149.393 331.482 149.393C331.482 149.393 334.233 142.823 338.876 142.885Z" fill="#DBE7EF"/>
<path d="M334.757 134.547C334.581 134.796 334.425 135.058 334.288 135.329C334.288 135.329 331.982 139.717 338.868 142.909C334.217 142.846 331.466 149.409 331.466 149.409C331.107 136.737 334.757 134.547 334.757 134.547Z" fill="white"/>
<path d="M322.329 149.385C321.61 150.559 325.659 158.083 326.448 160.5C327.238 162.917 326.902 169.104 325.143 171.357C323.385 173.61 323.58 175.542 323.181 179.179C323.008 181.376 323.274 183.586 323.963 185.679C310.911 192.969 285.251 193.697 285.251 193.697C289.159 181.526 286.814 167.603 286.814 167.603C291.316 167.603 298.773 165.045 304.259 162.909C309.746 160.774 323.22 148.47 323.22 148.47C322.889 148.739 322.59 149.046 322.329 149.385Z" fill="white"/>
<path d="M320.813 187.001C318.32 186.5 316.413 184.6 314.693 182.855C312.974 181.111 311.497 179.398 309.488 178.162C309.414 178.124 309.323 178.137 309.263 178.196C309.202 178.254 309.186 178.345 309.222 178.42C311.333 182.55 314.905 185.265 318.469 188.073C318.656 188.221 318.93 187.955 318.742 187.807C315.202 185.014 311.645 182.331 309.551 178.233L309.293 178.491C313.357 180.923 315.803 186.313 320.712 187.337C320.946 187.392 321.048 187.025 320.813 186.97V187.001Z" fill="#DBE7EF"/>
<path d="M309.441 190.341C306.823 189.559 305.291 187.056 303.814 184.92C302.43 182.91 300.961 180.845 298.702 179.766C298.643 179.733 298.571 179.734 298.512 179.767C298.453 179.801 298.416 179.862 298.413 179.93C298.241 182.105 299.82 184.138 301.133 185.718C302.774 187.697 304.689 189.434 306.51 191.248C306.682 191.42 306.956 191.147 306.776 190.975C305.142 189.348 303.446 187.791 301.922 186.055C300.5 184.443 298.608 182.238 298.796 179.93L298.507 180.094C303.251 182.363 304.197 189.097 309.34 190.709C309.441 190.737 309.546 190.677 309.574 190.576C309.602 190.474 309.543 190.369 309.441 190.341Z" fill="#DBE7EF"/>
<path d="M286.056 165.53H279.804L277.256 164.466C277.256 164.466 271.785 163.269 269.612 164.466C267.439 165.663 274.903 175.644 267.455 193.697L285.298 195.496C285.298 195.496 289.589 177.099 286.056 165.53Z" fill="white"/>
<path d="M286.846 167.571C287.66 167.56 288.472 167.492 289.276 167.368C290.84 176.387 288.081 188.542 286.736 193.603L285.275 193.665C289.198 181.494 286.846 167.571 286.846 167.571Z" fill="#DBE7EF"/>
<path d="M280.968 165.459C282.008 169.887 284.196 174.744 281.578 179.046H281.906C279.35 175.479 280.343 170.301 280.171 166.195C280.153 166.104 280.072 166.038 279.98 166.038C279.887 166.038 279.807 166.104 279.788 166.195C279.983 170.364 279.006 175.581 281.578 179.242C281.614 179.298 281.676 179.331 281.742 179.331C281.808 179.331 281.87 179.298 281.906 179.242C284.587 174.83 282.399 169.902 281.343 165.358C281.307 165.264 281.207 165.213 281.11 165.239C281.013 165.266 280.952 165.361 280.968 165.459Z" fill="#DBE7EF"/>
<path d="M278.397 194.299C278.983 190.631 279.741 187.001 279.585 183.262C279.58 183.178 279.521 183.106 279.439 183.085C279.357 183.063 279.271 183.097 279.225 183.168C277.467 185.836 277.607 189.215 276.099 191.999C275.982 192.211 276.31 192.406 276.427 192.187C277.944 189.41 277.811 186.023 279.554 183.356L279.202 183.262C279.358 186.962 278.616 190.56 278.03 194.213C278.03 194.455 278.358 194.557 278.397 194.315V194.299Z" fill="#DBE7EF"/>
<path fill-rule="evenodd" clip-rule="evenodd" d="M267.431 168.596C267.771 167.23 268.394 165.951 269.26 164.842C268.478 167.141 274.325 176.958 267.431 193.665C262.327 196.606 267.017 170.708 267.431 168.596Z" stroke="#DBE7EF" stroke-width="0.98"/>
<path d="M192.212 146.507C192.47 145.529 194.893 145.787 194.893 145.787C194.893 145.787 204.272 149.315 207.828 151.669C211.384 154.024 219.2 156.973 221.162 157.755C223.123 158.537 227.828 159.718 230.767 159.131C233.706 158.545 238.216 161.478 238.216 161.478L244.101 162.847L269.776 168.752C271.485 175.892 271.105 183.373 268.682 190.302C265.555 189.856 262.03 187.713 256.176 185.515C248.986 182.801 236.504 175.01 234.292 173.5C232.08 171.991 230.501 172.397 228.602 173.117C226.703 173.837 221.154 173.508 216.972 172.397C212.791 171.287 206.906 170.434 206.906 170.434C202.787 170.763 201.481 170.043 201.028 168.87C200.575 167.696 203.31 166.906 204.881 166.382C206.452 165.858 209.915 165.991 212.463 165.139C215.011 164.286 213.377 162.651 212.924 162.065C212.47 161.478 207.171 156.441 207.171 156.441C207.171 156.441 196.776 150.817 195.799 150.355C194.822 149.894 191.985 147.485 192.212 146.507Z" fill="#F9D0B4"/>
<g style="mix-blend-mode:multiply" opacity="0.6">
<path d="M205.045 170.52C203.279 170.52 202.255 170.223 201.661 169.738C202.818 169.981 203.967 170.239 205.045 170.52Z" fill="#F9D0B4"/>
</g>
<g style="mix-blend-mode:multiply" opacity="0.6">
<path d="M204.037 159.194C203.388 158.021 207.046 159.718 207.046 159.718L209.391 164.842L209.962 165.679C210.345 165.624 210.743 165.553 211.103 165.483C210.462 165.616 209.813 165.71 209.157 165.788L206.476 159.883L204.037 159.194Z" fill="#F9D0B4"/>
</g>
<g style="mix-blend-mode:multiply" opacity="0.6">
<path d="M204.49 159.327C204.49 159.327 204.787 165.999 202.427 167.055C200.067 168.111 201.646 163.191 201.646 163.191L202.818 159.57L203.334 158.396L205.03 158.936L204.49 159.327Z" fill="#F9D0B4"/>
</g>
<path d="M200.247 156.292C200.247 154.853 203.373 154.36 203.373 154.36L207.203 156.425C207.203 156.425 212.494 161.462 212.955 162.049C213.416 162.636 215.042 164.271 212.494 165.123C211.668 165.384 210.821 165.57 209.962 165.678L209.368 164.834L207.023 159.71C207.023 159.71 203.365 158.013 204.014 159.186C204.662 160.36 204.014 162.722 204.014 162.722C203.952 163.968 203.72 165.199 203.326 166.382C202.771 167.689 200.747 166.774 200.2 166.382C199.653 165.991 200.723 162.471 200.856 161.541C200.989 160.61 200.247 157.755 200.247 156.292Z" fill="#F9D0B4"/>
<g style="mix-blend-mode:multiply" opacity="0.6">
<path d="M212.932 162.073C213.33 162.589 214.495 164.177 213.174 165.061C213.072 164.975 210.087 165.843 209.993 165.686C209.899 165.53 211.955 165.303 212.666 163.903C212.048 160.727 202.81 154.094 202.802 154.086L207.179 156.433C207.179 156.433 212.47 161.486 212.932 162.073Z" fill="#F9D0B4"/>
</g>
<path d="M385.606 158.06C387.74 164.317 385.208 170.45 383.543 173.516C384.41 168.557 385.098 162.941 385.606 158.06Z" fill="#DBE7EF"/>
<path d="M361.643 184.67C361.643 184.67 377.587 180.149 378.009 172.327C378.275 167.384 378.205 156.347 378.119 148.901C378.807 149.417 379.526 149.972 380.26 150.59C392.812 161.095 382.324 175.511 382.324 175.511C382.582 175.667 382.832 175.808 383.105 175.941C385.217 177.083 387.568 177.71 389.967 177.771H390.046C390.358 177.771 390.663 177.771 390.968 177.771H391.195C391.46 177.771 391.734 177.732 391.976 177.701L392.515 177.631L392.726 184.037L392.484 184.365L393.782 203.99C393.782 203.99 400.089 224.241 394.86 227.12C394.86 227.12 391.984 227.777 390.546 227.12C389.108 226.463 386.239 223.084 384.293 224.249C382.511 225.313 379.963 227.339 374.531 226.439C382.902 223.6 376.423 212.571 374.266 209.466C373.531 208.418 373.562 206.22 374.07 203.459C373.39 196.63 370.85 186.321 361.643 184.67Z" fill="#DBE7EF"/>
<path d="M400.065 174.533C413.595 165.796 404.38 145.005 402.324 142.744C400.88 141.035 399.718 139.104 398.885 137.027C403.176 139.107 406.584 141.939 407.295 145.756C409.507 157.622 414.736 179.93 414.736 179.93C414.736 179.93 423.106 204.452 423.622 207.307C424.138 210.162 426.749 220.025 423.622 221.253C423.622 221.253 424.146 222.497 421.535 224.187C418.925 225.876 407.295 231.899 407.295 231.899C407.295 231.899 410.296 212.422 399.049 202.41C399.049 202.41 395.141 202.074 394.868 204.17L392.523 203.646L386.904 178.334C392.015 177.99 400.065 174.533 400.065 174.533Z" fill="white"/>
<path d="M410.164 200.134C410.164 200.134 397.854 201.972 395.775 202.95L394.931 203.951L392.508 203.435L393.172 200.924L410.164 200.134Z" fill="#DBE7EF"/>
<path d="M423.419 223.084C423.7 221.516 423.7 219.911 423.419 218.344C423.271 217.327 423.013 215.285 421.747 214.996C421.646 214.971 421.542 215.029 421.512 215.129C420.863 218.125 422.755 220.964 422.684 223.944C422.684 224.048 422.768 224.132 422.872 224.132C422.976 224.132 423.06 224.048 423.06 223.944C422.988 222.32 422.699 220.712 422.2 219.165C421.935 218.254 421.786 217.313 421.754 216.365C421.754 216.146 421.754 215.942 421.754 215.723C421.754 215.504 421.637 215.379 421.864 215.457C422.09 215.536 422.239 215.856 422.341 216.028C422.857 217.185 423.123 218.438 423.122 219.705C423.241 220.797 423.207 221.9 423.021 222.982C422.966 223.217 423.333 223.318 423.388 223.084H423.419Z" fill="#DBE7EF"/>
<path d="M415.447 227.816C413.806 222.763 414.032 217.295 412.055 212.329C410.492 208.324 408.554 204.029 405.068 201.307C404.88 201.159 404.607 201.433 404.802 201.581C408.366 204.366 410.445 208.957 411.953 213.119C413.681 217.898 413.517 223.099 415.08 227.918C415.108 228.019 415.213 228.079 415.314 228.051C415.416 228.023 415.475 227.917 415.447 227.816Z" fill="#DBE7EF"/>
<path d="M419.707 221.723C422.974 219.759 416.83 206.024 416.83 206.024C417.878 207.072 419.574 208.511 420.879 208.511C421.012 205.109 414.478 202.363 411.86 201.049C409.241 199.735 408.593 193.462 410.164 190.31C411.117 188.378 407.623 177.795 404.747 169.832C404.903 169.582 405.044 169.331 405.177 169.05C405.232 168.964 405.279 168.87 405.333 168.776C405.458 168.541 405.568 168.291 405.685 168.048C405.732 167.947 405.779 167.845 405.818 167.743C405.927 167.493 406.029 167.232 406.123 166.961C406.123 166.867 406.193 166.766 406.224 166.672C406.318 166.406 406.412 166.132 406.49 165.89V165.733C406.769 164.749 406.97 163.745 407.092 162.729C407.131 162.424 407.154 162.119 407.178 161.806V161.595C407.178 161.298 407.178 161.009 407.217 160.711C407.217 160.633 407.217 160.547 407.217 160.469C407.217 160.172 407.217 159.874 407.217 159.577C407.221 159.515 407.221 159.452 407.217 159.39C407.189 158.048 407.068 156.71 406.857 155.385V155.267C406.811 154.978 406.764 154.696 406.709 154.407L406.662 154.18L406.498 153.398C406.498 153.32 406.498 153.241 406.443 153.163C406.381 152.889 406.326 152.624 406.256 152.381C406.256 152.326 406.256 152.272 406.217 152.225C405.99 151.333 405.74 150.472 405.482 149.659C405.478 149.628 405.478 149.596 405.482 149.565C405.412 149.346 405.333 149.135 405.255 148.916C405.23 148.823 405.198 148.731 405.161 148.642C405.099 148.447 405.029 148.259 404.958 148.071L404.841 147.766C404.778 147.594 404.708 147.422 404.638 147.258C404.567 147.093 404.56 147.046 404.513 146.945L404.325 146.475L404.184 146.163C404.106 145.975 404.02 145.803 403.942 145.631C403.864 145.459 403.786 145.294 403.708 145.138L403.575 144.856L403.403 144.52C403.356 144.442 403.315 144.361 403.278 144.278C403.215 144.176 403.168 144.082 403.114 143.988L403.012 143.777L402.856 143.519L402.754 143.355L402.606 143.128C402.577 143.096 402.551 143.062 402.527 143.026C402.457 142.924 402.387 142.846 402.332 142.776C402.277 142.705 402.019 142.424 401.855 142.22L401.683 141.994L401.386 141.595L401.16 141.266C401.074 141.149 400.996 141.024 400.91 140.898C400.824 140.773 400.738 140.632 400.659 140.5L400.448 140.163L400.355 139.999L401.918 138.779C404.708 140.632 406.748 142.932 407.279 145.818C409.491 157.684 414.72 179.993 414.72 179.993C414.72 179.993 423.091 204.514 423.607 207.369C424.123 210.224 426.733 220.088 423.607 221.316C423.607 221.316 424.13 222.56 421.52 224.249C418.909 225.939 407.279 231.962 407.279 231.962C407.578 229.68 407.695 227.378 407.631 225.078C407.631 225.078 416.44 223.686 419.707 221.723Z" fill="#DBE7EF"/>
<path d="M285.275 193.665C286.094 191.072 286.677 188.409 287.018 185.71L287.448 185.523L288.065 187.971C296.866 188.464 304.478 188.972 302.415 186.884C300.351 184.795 302.219 183.035 306.057 185.523C309.895 188.01 314.092 184.302 312.677 182.949C311.262 181.596 310.637 180.47 315.076 181.706C319.516 182.941 320.759 180.517 320.759 180.517L322.322 173.477C326.91 162.737 324.971 157.051 324.541 156.057C325.323 157.849 326.105 159.53 326.441 160.461C327.222 162.886 326.894 169.065 325.135 171.318C323.377 173.571 323.572 175.503 323.174 179.14C323.001 181.337 323.266 183.547 323.955 185.64C310.934 192.938 285.275 193.665 285.275 193.665Z" fill="#DBE7EF"/>
<path d="M324.471 155.924L324.479 155.932L324.471 155.924Z" fill="#DBE7EF"/>
<g style="mix-blend-mode:multiply" opacity="0.6">
<path d="M215.284 168.878C221.748 169.527 227.633 170.677 232.533 168.729C234.406 169.21 236.104 170.211 237.434 171.615C238.841 173.18 254.371 181.221 265.282 185.531C265.887 185.768 266.566 185.724 267.137 185.411C267.707 185.099 268.11 184.55 268.236 183.911C269.534 177.31 269.408 172.1 268.697 168.33L269.776 168.76C271.485 175.9 271.105 183.38 268.682 190.31C268.338 190.252 267.986 190.182 267.626 190.099H267.673C267.376 190.028 267.079 189.942 266.767 189.848C264.062 189.011 260.874 187.29 256.184 185.523C248.994 182.808 236.512 175.018 234.3 173.508C232.088 171.999 230.509 172.405 228.61 173.125C226.711 173.845 221.161 173.516 216.98 172.405C212.799 171.295 206.913 170.442 206.913 170.442C202.802 170.771 201.489 170.051 201.036 168.878C205.778 168.506 210.542 168.506 215.284 168.878Z" fill="#F9D0B4"/>
</g>
<g style="mix-blend-mode:multiply" opacity="0.4">
<path d="M370.748 175.691L370.037 175.448L365.113 174.666V170.88L363.464 170.458V166.766L365.027 167.071L368.568 167.736C368.755 167.736 368.88 167.736 368.92 167.955L369.592 171.326L371.155 171.725C371.366 171.772 371.71 172.108 371.71 172.327V175.346C371.71 175.487 371.452 175.565 371.35 175.651C371.16 175.733 370.948 175.747 370.748 175.691Z" fill="#474985"/>
</g>
<g style="mix-blend-mode:multiply" opacity="0.6">
<path d="M363.042 202.082C362.62 202.168 362.206 202.238 361.784 202.285L361.541 202.324C361.018 202.379 360.494 202.418 359.978 202.426H359.478C359.118 202.426 358.759 202.426 358.399 202.426H357.884C357.54 202.426 357.204 202.371 356.868 202.332H356.594C358.861 195.809 365.074 174.728 365.074 174.728L369.998 175.714L363.355 201.831C363.299 201.962 363.182 202.056 363.042 202.082Z" fill="#E9BB66"/>
</g>
<g style="mix-blend-mode:multiply" opacity="0.6">
<path d="M368.458 181.831L368.224 182.738L366.379 182.441C364.729 181.232 363.193 179.873 361.791 178.381C363.862 179.575 366.005 180.638 368.208 181.565L368.458 181.831Z" fill="#F9D0B4"/>
</g>
<path d="M362.456 193.055C362.456 193.055 357.618 192.14 354.742 191.616C351.865 191.092 351.342 189.528 351.74 188.745C352.139 187.963 355.789 187.963 356.703 187.963C357.618 187.963 362.956 188.745 362.956 188.745L369.357 190.591L364.519 186.915C364.519 186.915 354.609 185.233 353.436 184.451C352.874 184.099 352.967 183.325 353.218 182.644C353.531 181.794 354.336 181.225 355.242 181.213H357.884L362.573 181.768L369.498 182.91L368.193 181.534C368.193 181.534 358.587 177.529 359.736 176.058C360.213 175.448 360.736 175.01 362.698 175.503C365.31 176.423 367.867 177.491 370.358 178.702C370.957 178.98 371.441 179.459 371.725 180.055L375.25 187.439C375.25 187.439 377.861 197.647 378.517 199.211C379.174 200.776 382.957 201.699 387.271 202.403C388.506 202.606 390.397 202.989 392.492 203.427V203.662L394.837 204.186C394.853 204.104 394.874 204.023 394.899 203.943C397.424 204.483 399.964 205.046 401.785 205.422C407.498 212.939 407.827 223.342 407.561 228.59C402.606 227.511 396.931 222.497 396.931 222.497C390.39 218.023 378.502 213.111 376.407 212.555C374.312 212 370.787 207.588 369.615 205.367C368.443 203.146 365.434 201.456 363.988 200.916C362.542 200.377 358.368 200.001 356.414 199.211C354.46 198.421 354.069 196.99 354.976 196.34C355.883 195.691 359.806 196.857 361.635 196.99C363.464 197.123 367.388 197.123 367.388 197.123C367.294 195.949 362.456 193.055 362.456 193.055Z" fill="#F9D0B4"/>
<g style="mix-blend-mode:multiply" opacity="0.6">
<path d="M365.137 200.134C367.869 201.12 370.201 202.978 371.772 205.422C374.258 209.427 379.721 211.75 381.37 212.305L407.405 221.074C407.66 223.573 407.722 226.089 407.592 228.598C402.637 227.519 396.963 222.505 396.963 222.505C390.421 218.031 378.533 213.119 376.438 212.563C374.344 212.008 370.819 207.596 369.646 205.375C368.474 203.153 365.465 201.464 364.019 200.924C362.573 200.384 358.399 200.009 356.445 199.219C354.992 198.64 354.406 197.702 354.562 196.99C354.593 197.013 356.399 198.445 365.137 200.134Z" fill="#F9D0B4"/>
</g>
<path d="M354.656 197.749C354.718 197.886 354.794 198.017 354.882 198.14C354.794 198.017 354.718 197.886 354.656 197.749Z" fill="#F9D0B4"/>
<g style="mix-blend-mode:multiply" opacity="0.6">
<path d="M366.434 189.754L364.378 189.16L363.933 187.971L357.172 185.523C360.416 186.227 364.519 186.923 364.519 186.923L366.7 188.589L366.434 189.754Z" fill="#F9D0B4"/>
</g>
<g style="mix-blend-mode:multiply" opacity="0.6">
<path d="M364.597 196.966L361.049 193.642C358.277 193.491 355.589 192.64 353.233 191.17C353.707 191.376 354.202 191.525 354.71 191.616C357.587 192.132 362.425 193.048 362.425 193.048C362.425 193.048 363.808 193.877 365.105 194.823L364.597 196.966Z" fill="#F9D0B4"/>
</g>
<g style="mix-blend-mode:multiply" opacity="0.6">
<path d="M356.446 199.219C358.243 199.946 361.917 200.338 363.62 200.783L363.378 201.745C363.331 201.918 363.193 202.05 363.019 202.09H362.815L360.283 201.409C356.719 200.165 355.367 198.789 354.882 198.1C355.295 198.606 355.834 198.992 356.446 199.219Z" fill="#F9D0B4"/>
</g>
<path d="M323.478 246.643C324.746 239.203 325.181 231.645 324.776 224.108C327.05 224.108 328.418 222.622 330.302 221.347C332.521 219.846 337.297 219.001 337.297 219.001L337.75 218.289C338.33 217.783 339.075 217.505 339.845 217.507L340.017 217.671C340.243 217.593 340.486 217.538 340.72 217.475C341.052 217.474 341.383 217.49 341.713 217.522C341.712 217.426 341.685 217.331 341.635 217.249C348.262 215.911 356.352 219.548 358.407 220.377C360.627 221.293 366.114 224.288 372.781 225.994C379.447 227.699 382.324 225.344 384.285 224.171C386.247 222.998 389.116 226.392 390.538 227.042C390.872 227.112 391.214 227.133 391.554 227.104C405.568 253.98 384.254 306.474 384.254 306.474L353.773 301.78L319.383 297.087C315.475 259.08 320.946 261.951 323.478 246.643Z" fill="#084E8A"/>
<g style="mix-blend-mode:multiply" opacity="0.4">
<path d="M381.988 225.54C381.988 225.54 385.614 250.281 375.532 305.073" stroke="#084E8A" stroke-width="0.98"/>
</g>
<g style="mix-blend-mode:multiply" opacity="0.4">
<path d="M378.83 226.518C378.83 226.518 381.347 250.695 371.905 304.44" stroke="#084E8A" stroke-width="0.98"/>
</g>
<g style="mix-blend-mode:multiply" opacity="0.4">
<path d="M341.533 274.552C341.978 272.065 345.152 270.688 347.176 269.702C348.72 268.891 350.334 268.221 351.998 267.7C352.845 267.368 353.761 267.252 354.663 267.364C355.898 267.692 354.96 269.006 354.343 269.452C352.506 270.79 350.247 271.392 348.34 272.581C347.055 273.483 345.88 274.533 344.839 275.71C343.733 276.86 342.881 278.229 342.338 279.73C342.26 279.965 342.627 280.067 342.705 279.832C343.394 278.027 344.509 276.417 345.957 275.139C347.023 274.04 348.245 273.104 349.583 272.362C350.841 271.728 352.123 271.173 353.35 270.492C354.132 270.07 355.179 269.554 355.515 268.67C356.211 266.855 354.148 266.824 352.952 267.059C351.092 267.491 349.295 268.162 347.606 269.053C345.355 270.133 341.674 271.627 341.166 274.435C341.119 274.677 341.486 274.779 341.533 274.536V274.552Z" fill="#084E8A"/>
</g>
<g style="mix-blend-mode:multiply" opacity="0.4">
<path d="M343.698 284.908C338.938 285.315 332.615 285.566 331.974 291.573C331.974 291.682 332.068 291.753 332.162 291.76C334.108 291.948 336.07 290.978 337.766 290.157C339.845 289.14 341.822 287.881 343.979 287.028C344.206 286.942 344.104 286.575 343.878 286.661C341.728 287.49 339.759 288.733 337.695 289.75C336.566 290.346 335.376 290.821 334.147 291.166C333.638 291.375 333.084 291.453 332.537 291.393C332.295 291.44 332.256 291.346 332.412 291.096C332.435 290.932 332.466 290.771 332.506 290.611C332.568 290.346 332.647 290.084 332.74 289.828C334.303 285.542 339.954 285.597 343.729 285.276C343.972 285.276 343.979 284.869 343.729 284.893L343.698 284.908Z" fill="#084E8A"/>
</g>
<g style="mix-blend-mode:multiply" opacity="0.4">
<path d="M342.182 280.661C339.305 280.012 336.992 276.993 333.897 277.321C333.838 277.325 333.784 277.353 333.748 277.4C333.712 277.446 333.698 277.506 333.709 277.564C334.444 281.076 338.993 280.833 341.689 281.623C341.755 281.642 341.825 281.623 341.874 281.575C341.922 281.528 341.942 281.458 341.925 281.392C341.907 281.326 341.857 281.274 341.791 281.256C339.251 280.474 334.757 280.771 334.077 277.462L333.897 277.705C336.914 277.384 339.243 280.387 342.08 281.037C342.322 281.084 342.424 280.716 342.182 280.661Z" fill="#084E8A"/>
</g>
<g style="mix-blend-mode:multiply" opacity="0.4">
<path d="M379.627 256.656C376.431 256.061 373.187 255.647 369.951 255.349C367.741 255.127 365.521 255.025 363.3 255.044C361.596 255 359.895 255.222 358.259 255.701C357.204 256.069 356.141 256.765 356.25 258.048C356.253 258.132 356.31 258.204 356.391 258.228C359.697 258.83 363.097 258.228 366.411 258.001C369.897 257.719 373.695 257.586 376.735 259.565C376.946 259.698 377.134 259.37 376.931 259.237C373.445 256.953 369.029 257.36 365.082 257.719C362.943 257.977 360.789 258.095 358.634 258.071C358.084 258.064 357.536 258.017 356.993 257.931C356.617 257.868 356.641 258.001 356.625 257.665C356.671 257.283 356.868 256.937 357.172 256.702C357.929 256.163 358.812 255.829 359.736 255.733C361.069 255.514 362.418 255.412 363.769 255.428C366.688 255.442 369.603 255.632 372.499 255.999C374.844 256.272 377.189 256.601 379.533 257.031C379.776 257.078 379.877 256.71 379.635 256.663L379.627 256.656Z" fill="#084E8A"/>
</g>
<g style="mix-blend-mode:multiply" opacity="0.4">
<path d="M378.002 262.538C372.233 262.702 366.207 260.582 360.65 262.96C360.424 263.054 360.65 263.382 360.846 263.289C366.317 260.942 372.327 263.077 378.002 262.921C378.244 262.921 378.252 262.53 378.002 262.538Z" fill="#084E8A"/>
</g>
<g style="mix-blend-mode:multiply" opacity="0.4">
<path d="M376.634 271.369C373.672 271.511 370.748 272.094 367.958 273.097C365.613 273.965 362.815 275.444 362.526 278.228C362.526 278.338 362.62 278.408 362.714 278.424C364.808 278.682 366.512 277.329 368.31 276.484C370.787 275.334 373.679 275.702 376.298 275.076C376.532 275.021 376.43 274.654 376.196 274.709C374.391 275.131 372.546 275.139 370.725 275.413C369.301 275.66 367.934 276.167 366.692 276.907C365.956 277.348 365.168 277.697 364.347 277.947C364.167 277.994 363.167 278.268 363.011 278.072C362.854 277.876 363.011 277.759 363.011 277.611C363.294 276.631 363.911 275.782 364.754 275.209C366.572 273.932 368.638 273.052 370.819 272.628C372.724 272.161 374.668 271.868 376.626 271.752C376.876 271.752 376.876 271.353 376.626 271.369H376.634Z" fill="#084E8A"/>
</g>
<g style="mix-blend-mode:multiply" opacity="0.4">
<path d="M334.452 228.598C334.452 228.598 330.63 266.519 343.893 283.735L345.113 285.096L342.635 299.841" stroke="#084E8A" stroke-width="0.98"/>
</g>
<g style="mix-blend-mode:multiply" opacity="0.4">
<path d="M370.108 304.127C371.186 296.18 372.296 286.426 372.585 283.547C373.038 279.05 372.265 272.026 371.303 270.485C370.342 268.944 369.428 262.076 371.303 261.967C373.179 261.857 373.046 257.884 373.046 257.884L371.303 255.631C371.303 255.631 370.233 255.529 373.461 251.071C375.735 247.942 374.922 234.199 374.242 226.322C379.877 227.339 382.472 225.258 384.285 224.179C386.247 223.005 389.116 226.4 390.538 227.049C390.872 227.119 391.214 227.141 391.554 227.112C402.496 248.145 390.382 289.688 384.614 306.724L370.108 304.127Z" fill="#084E8A"/>
</g>
<g style="mix-blend-mode:multiply" opacity="0.4">
<path d="M353.264 226.69C353.264 226.69 357.696 249.96 378.533 252.119" stroke="#084E8A" stroke-width="0.98"/>
</g>
<g style="mix-blend-mode:multiply" opacity="0.4">
<path d="M356.117 226.69C357.11 231.218 360.572 243.382 369.959 249.162L366.833 247.926C357.032 241.356 353.898 229.396 353.366 227.073L356.117 226.69Z" fill="#084E8A"/>
</g>
<path d="M324.776 224.343C327.05 224.343 328.418 222.724 330.302 221.449C332.521 219.947 337.297 219.055 337.297 219.055L337.75 218.32C338.331 217.815 339.075 217.537 339.845 217.538C339.899 217.594 339.956 217.646 340.017 217.694C340.243 217.616 340.486 217.561 340.72 217.491C341.298 217.491 341.728 217.491 341.634 217.264C348.262 215.927 356.352 219.572 358.407 220.393C360.166 221.113 363.972 223.146 368.787 224.812C360.424 226.087 349.138 227.941 346.691 228.004C342.721 228.137 324.87 233.268 324.87 233.268C325.002 229.161 324.909 226.439 324.776 224.343Z" fill="#474985"/>
<g style="mix-blend-mode:multiply" opacity="0.4">
<path d="M346.676 229.193C343.26 229.31 331.208 232.431 324.792 234.144C324.952 230.832 324.937 227.513 324.745 224.202C327.019 224.202 328.387 222.638 330.27 221.394C332.49 219.892 337.266 219.048 337.266 219.048L337.719 218.328C338.3 217.822 339.044 217.544 339.814 217.546L339.985 217.71C340.216 217.63 340.451 217.563 340.689 217.507C341.02 217.506 341.352 217.521 341.682 217.554C341.681 217.457 341.654 217.362 341.603 217.28C348.231 215.942 356.321 219.58 358.376 220.409C360.432 221.238 365.535 224.022 371.741 225.759C361.987 227.261 349.466 229.099 346.676 229.193Z" fill="#084E8A"/>
</g>
<path d="M346.785 216.764C346.785 216.764 346.246 227.503 347.231 229.169C346.307 229.512 345.323 229.662 344.339 229.607C343.206 229.412 342.33 220.072 343.698 216.764L346.785 216.764Z" fill="#084E8A"/>
<path d="M340.017 217.82C340.017 217.82 339.821 227.503 340.564 230.812H337.914C337.914 230.812 336.703 224.406 337.297 219.235C337.297 219.235 339.079 217.303 340.017 217.82Z" fill="#FED980"/>
<path d="M336.578 229.177C336.578 229.177 336.335 233.198 333.975 233.589C331.615 233.98 328.785 234.574 327.722 230.546C327.047 227.6 326.753 224.579 326.847 221.558C326.847 221.558 327.441 219.212 332.318 219.212H335.015C335.015 219.212 330.114 220.448 329.919 222.708C329.723 224.969 329.637 230.679 332.263 230.436C333.775 230.331 335.247 229.902 336.578 229.177Z" fill="#FED980"/>
<g style="mix-blend-mode:multiply" opacity="0.4">
<path fill-rule="evenodd" clip-rule="evenodd" d="M384.981 260.574L387.748 236.436L395.001 237.828C396.931 248.349 395.829 261.13 393.602 273.23L384.981 260.574Z" stroke="#084E8A" stroke-width="0.98"/>
</g>
<g style="mix-blend-mode:multiply" opacity="0.4">
<path d="M332.13 291.612C332.529 287.521 335.585 286.183 338.922 285.628L339.43 280.99C337.023 280.559 334.334 280.027 333.897 277.556C335.812 277.29 337.633 278.729 339.555 279.832L339.876 276.899C340.48 278.241 341.161 279.546 341.916 280.81L342.127 280.864L342.041 281.005C342.607 281.952 343.225 282.866 343.893 283.743L345.113 284.916L342.83 300.216L338.141 299.434V293.958L338.485 289.469C336.171 290.65 333.819 291.784 332.13 291.612Z" fill="#084E8A"/>
</g>
<g style="mix-blend-mode:multiply" opacity="0.4">
<path d="M337.75 218.32C338.331 217.814 339.075 217.536 339.845 217.538L340.017 217.702C340.248 217.623 340.482 217.555 340.72 217.499C341.052 217.498 341.383 217.513 341.713 217.546C341.712 217.449 341.685 217.354 341.635 217.272C348.262 215.934 356.352 219.572 358.407 220.401C360.627 221.316 366.114 224.312 372.781 226.017C375.18 226.742 377.73 226.812 380.166 226.22C380.166 226.22 377.345 234.12 356.625 224.061C347.59 219.681 341.65 218.586 337.359 218.922L337.75 218.32Z" fill="#084E8A"/>
<path d="M325.784 224.093C324.557 224.718 323.869 224.625 323.541 224.093C324.281 224.246 325.044 224.246 325.784 224.093Z" fill="#084E8A"/>
</g>
<path d="M364.941 101.179C365.832 96.6655 363.456 95.8989 360.986 96.2118C359.757 96.3987 358.558 96.7512 357.422 97.2599C355.489 98.1554 353.205 97.777 351.662 96.3056C350.63 95.2292 349.684 94.0732 348.833 92.8483C348.739 92.6763 348.638 92.5276 348.536 92.3477C347.968 91.3682 347.337 90.4275 346.644 89.5318C345.12 87.6054 343.387 85.8531 341.478 84.3068C341.064 83.9235 340.697 83.5872 340.392 83.3369C338.532 81.7725 332.576 79.9734 336.875 73.0041C341.173 66.0347 359.814 63.3909 370.6 68.5925C381.386 73.7941 386.872 82.3278 387.654 94.6865C388.436 107.045 392.461 115.29 394.813 118.528C397.166 121.766 397.94 129.416 397.854 132.459C397.768 135.501 400.3 140.5 402.363 142.76C404.427 145.021 413.634 165.819 400.105 174.549C400.105 174.549 391.671 181.119 382.363 175.526C382.363 175.526 392.852 161.103 380.299 150.606C368.271 140.547 362.823 145.537 356.852 129.635C356.333 128.256 356.035 126.804 355.969 125.333C355.797 121.242 355.531 112.176 356.274 106.756C356.25 106.74 363.566 108.109 364.941 101.179Z" fill="#2C2D53"/>
<g style="mix-blend-mode:multiply" opacity="0.6">
<path d="M330.958 116.158C330.825 116.549 329.629 119.842 332.834 120.382C333.015 119.202 333.396 118.062 333.959 117.01C335.155 114.726 339.704 110.197 341.213 108.719C341.529 108.397 341.793 108.028 341.994 107.624L343.972 103.752C344.328 103.055 344.483 102.272 344.417 101.492L344.292 99.9272C344.227 99.1128 343.925 98.3353 343.424 97.6901L339.516 92.598L339.024 88.7809C338.922 87.9606 339.156 87.1339 339.673 86.4891L341.166 84.6118L340.978 84.3302C340.978 84.3302 348.161 60.0822 371.303 70.2507C387.146 77.2905 383.543 95.2809 380.167 105.246C380.167 105.246 369.373 121.524 378.533 136.643C387.693 151.763 401.637 164.935 383.09 175.933L382.519 175.221C383.895 173.164 391.781 160.234 380.26 150.59C368.232 140.531 362.784 145.521 356.813 129.619C356.3 128.239 356.005 126.788 355.938 125.317C355.766 121.226 355.5 112.161 356.242 106.74L351.928 115.829C346.371 123.416 336.375 120.867 332.975 120.413C329.575 119.959 330.825 116.549 330.958 116.158Z" fill="#F9D0B4"/>
</g>
<g style="mix-blend-mode:multiply" opacity="0.6">
<path d="M334.608 90.5879C334.608 90.5879 332.81 97.4008 328.355 102.321L331.482 104.089C331.482 104.089 332.349 103.173 331.857 102.321C331.497 101.695 333.834 95.6956 335.069 92.6138C335.507 91.5422 339.509 92.6138 339.509 92.6138L334.608 90.5879Z" fill="#F9D0B4"/>
</g>
<g style="mix-blend-mode:multiply" opacity="0.6">
<path d="M362.456 193.055C362.456 193.055 357.618 192.14 354.742 191.616C352.397 191.194 351.615 190.052 351.615 189.269C351.615 189.269 352.96 190.576 358.149 191.108C363.339 191.639 367.638 194.072 367.411 197.13C367.294 195.949 362.456 193.055 362.456 193.055Z" fill="#F9D0B4"/>
</g>
<g style="mix-blend-mode:multiply" opacity="0.6">
<path d="M358.759 184.49C363.347 185.038 365.137 186.055 365.137 186.055C365.137 186.055 368.951 188.354 369.381 190.63L364.543 186.954C364.543 186.954 354.609 185.233 353.436 184.451C352.874 184.099 352.967 183.325 353.218 182.644C353.218 182.668 354.179 183.95 358.759 184.49Z" fill="#F9D0B4"/>
</g>
<g style="mix-blend-mode:multiply" opacity="0.6">
<path d="M371.686 186.884L369.514 182.934L368.208 181.557C368.208 181.557 358.603 177.552 359.752 176.082C359.752 176.082 364.339 179.101 367.567 180.219C370.795 181.338 371.686 186.884 371.686 186.884Z" fill="#F9D0B4"/>
</g>
<g style="mix-blend-mode:multiply" opacity="0.6">
<path d="M362.37 176.676C361.548 176.49 360.758 176.185 360.025 175.769C360.471 175.331 361.111 175.104 362.722 175.511L362.925 175.565L363.433 175.753C363.433 175.753 363.151 176.723 362.37 176.676Z" fill="#F9D0B4"/>
</g>
<g style="mix-blend-mode:multiply" opacity="0.6">
<path d="M351.74 188.761C351.85 188.534 352.233 188.378 352.733 188.26L354.562 188.464C354.751 188.487 354.922 188.589 355.031 188.745C355.14 188.903 355.18 189.098 355.14 189.285C355.069 189.619 354.942 189.939 354.765 190.232C354.312 190.975 352.366 190.302 351.842 190.044C351.593 189.661 351.555 189.178 351.74 188.761Z" fill="#F9D0B4"/>
</g>
<g style="mix-blend-mode:multiply" opacity="0.6">
<path d="M353.507 182.011C353.616 181.792 353.999 181.635 354.499 181.518L356.328 181.721C356.517 181.744 356.688 181.847 356.797 182.003C356.91 182.159 356.95 182.355 356.907 182.543C356.835 182.877 356.708 183.197 356.532 183.489C356.086 184.271 354.132 183.552 353.616 183.301C353.36 182.919 353.319 182.431 353.507 182.011Z" fill="#F9D0B4"/>
</g>
<g style="mix-blend-mode:multiply" opacity="0.6">
<path d="M355.007 196.348C355.053 196.316 355.103 196.29 355.156 196.27C355.156 196.27 357.211 196.708 357.204 197.428C357.196 198.147 356.922 198.875 354.656 197.748C354.398 197.26 354.55 196.656 355.007 196.348Z" fill="#F9D0B4"/>
</g>
<g style="mix-blend-mode:multiply" opacity="0.6">
<path d="M356.344 122.204C356.581 125.229 357.123 128.221 357.962 131.137C358.355 132.799 358.956 134.405 359.752 135.916C358.301 136.705 356.983 137.716 355.844 138.912C352.413 133.851 349.982 121.367 349.443 118.395C350.39 117.661 351.229 116.797 351.936 115.829L356.25 106.74C355.656 111.034 355.984 117.613 356.344 122.204Z" fill="#F9D0B4"/>
</g>
<g style="mix-blend-mode:multiply" opacity="0.6">
<path d="M401.332 142.213C401.332 142.213 396.759 133.123 389.147 127.351C381.534 121.578 379.565 119.372 379.135 107.014C379.135 107.014 380.581 117.354 397.674 129.033L401.332 142.213Z" fill="#F9D0B4"/>
</g>
<path d="M364.558 107.264C364.558 107.264 361.229 124.105 372.499 144.966L372.429 145.342C370.428 144.293 368.646 143.535 367.028 142.698C366.592 141.412 366.081 140.153 365.496 138.928C360.807 129.048 358.634 120.781 364.558 107.264Z" fill="#2C2D53"/>
<path d="M195.397 43.7838L172.216 32.1082L197.514 39.1651L195.397 43.7838Z" fill="#FED980"/>
<path d="M206.27 35.908L172.216 33.0812L198.317 39.892L206.27 35.908Z" fill="#FED980"/>
<path d="M197.514 30.1621L172.216 32.2128L194.517 34.054L197.514 30.1621Z" fill="#E9BB66"/>
<g style="mix-blend-mode:multiply" opacity="0.4">
<path d="M220.865 47.1759C220.864 36.0711 228.03 26.2148 238.648 22.718C249.267 19.2212 260.947 22.8706 267.634 31.774C278.878 34.2361 287.145 43.7576 287.938 55.1607C288.731 66.5638 281.861 77.1225 271.063 81.0949C260.266 85.0673 248.123 81.5038 241.237 72.3423C229.34 69.7344 220.869 59.2692 220.865 47.1759H220.865Z" fill="#CEDCEA"/>
</g>
<path d="M197.901 47.6141L199.753 50.0566C200.245 50.7159 200.773 51.3492 201.335 51.9537C204.224 55.0721 206.977 58.2442 210.308 60.9325L211.954 62.2536L213.893 63.9203C216.378 65.9787 219.084 65.2721 221.988 63.6515C222.607 63.3657 223.207 63.0425 223.784 62.6837C223.784 62.6837 220.437 59.9494 218.174 58.1367L216.172 56.5468L214.059 55.0951C211.052 53.0367 207.927 51.201 205.102 48.9044L199.745 44.7568L197.514 47.2838" fill="#F2BD99"/>
<path d="M237.127 41.459C239.257 40.2887 241.934 40.8945 243.34 42.8647C244.746 44.8349 244.43 47.5378 242.606 49.1369C242.411 49.3725 242.193 49.5885 241.955 49.7818C237.236 54.129 232.064 57.9665 226.525 61.2296L222.503 63.5944C222.153 63.8768 221.75 64.0881 221.317 64.2163C219.448 62.7957 218.233 60.6903 217.946 58.3734L218.109 58.2276L220.891 56.0854C226.174 51.9826 231.1 47.4469 235.616 42.5262C235.769 42.3619 235.937 42.2128 236.119 42.0809C236.119 42.0809 236.786 41.6739 237.127 41.459Z" fill="#F2BD99"/>
<path d="M193.886 39.1189C193.833 39.0076 193.734 38.7531 193.651 38.5463C193.571 38.3465 193.659 38.1167 193.848 38.0294C193.914 38.0016 193.987 38.0016 194.053 38.0294C194.122 38.055 194.177 38.1099 194.205 38.1805L195.039 40.2004L195.198 40.1129L193.841 36.6934C193.714 36.3982 193.771 36.0524 193.985 35.8187C194.041 35.7617 194.121 35.7379 194.197 35.755C194.27 35.7714 194.33 35.8253 194.356 35.8982L195.911 40.0573L196.086 39.9936L194.372 35.5642C194.323 35.4615 194.323 35.3408 194.372 35.2381C194.423 35.1347 194.514 35.0594 194.622 35.0314H194.721C194.856 35.0081 194.991 35.0787 195.054 35.2063L197.034 39.6358L197.224 39.5642L195.396 35.429C195.366 35.3692 195.366 35.2979 195.396 35.2381C195.421 35.1811 195.467 35.1378 195.525 35.1188C195.823 35.0324 196.138 35.1746 196.283 35.4608C196.882 36.6537 198.339 39.5801 198.369 39.6755L200.432 46.0374L197.611 47.6756L197.368 47.111L193.886 39.1189Z" fill="#F2BD99"/>
<path d="M194.595 43.2499C194.601 43.0809 194.691 42.9288 194.831 42.8534C194.973 42.7822 195.14 42.8012 195.265 42.9029C195.928 43.4565 196.963 44.2 197.611 44.0596C198.708 43.82 198.654 46.8438 198.106 47.6369C197.908 47.9178 196.91 46.5794 196.91 46.5794L194.686 43.6465C194.626 43.5644 194.593 43.4623 194.595 43.3573V43.2499Z" fill="#F2BD99"/>
<path d="M261.664 82.7027C258.089 82.7031 254.553 81.9562 251.283 80.5098C251.651 78.2542 252.003 75.8106 252.113 74.3069C252.363 70.8608 243.697 61.9402 242.46 59.6767C241.223 57.4133 236.432 40.88 236.432 40.88C236.432 40.88 250.031 33.98 253.874 32.1082L266.635 32.5546C269.004 40.0866 270.596 47.8415 271.387 55.6981C271.387 55.6981 272.671 57.2645 277.125 61.6817C279.724 64.1207 282.064 66.8214 284.108 69.7408C279.483 77.7675 270.924 82.7105 261.664 82.7027Z" fill="#BBCDE0"/>
<path d="M233.807 12.7855C235.982 10.4053 237.447 8.38999 240.898 7.89808C245.836 7.14265 250.561 10.2017 251.929 15.0388C252.272 16.5013 252.357 18.0133 252.181 19.5057C252.055 20.7751 252.33 20.2991 253.315 20.8306C254.116 21.2345 254.824 21.8019 255.395 22.4968C257.143 24.6573 257.351 27.6918 255.915 30.0739C252.701 35.3104 244.46 33.303 243.955 27.1779C236.077 28.5902 229.774 19.8548 233.784 12.7537C233.807 12.7775 232.917 14.3723 233.807 12.7855Z" fill="#2C2D53"/>
<path d="M244.764 20.5873C245.686 22.9738 245.079 25.6806 243.226 27.4448C241.373 29.2091 238.64 29.6832 236.301 28.646C233.962 27.6089 232.478 25.2647 232.543 22.7072C232.607 20.1497 234.206 17.8828 236.594 16.9641C239.85 15.711 243.507 17.3324 244.764 20.5873Z" fill="#2C2D53"/>
<path d="M249.076 25.9948C249.296 29.6443 242.834 33.0161 242.834 33.0161L240.544 33.857C239.286 34.3184 237.876 33.9528 236.994 32.9367C235.696 31.4373 234.043 29.1365 233.901 26.9468L233.657 25.733C233.502 24.8372 233.592 23.9156 233.917 23.0673L234.051 22.7103C234.269 22.1561 234.249 21.5354 233.996 20.9966C233.423 19.7883 233.358 18.3983 233.815 17.1409C234.737 14.6471 237.034 12.9384 239.67 12.7853L241.544 12.6663C243.298 12.5376 245.03 13.1178 246.359 14.2788C247.688 15.4398 248.504 17.0862 248.627 18.8545L249.076 25.9948Z" fill="#F2BD99"/>
<path d="M242.453 33.5597C242.453 33.5597 248.653 30.2744 248.442 26.7185V26.2701L252.973 33.0109L245.829 40.8647L245.073 39.9912L241.297 33.9926L242.453 33.5597Z" fill="#F2BD99"/>
<path d="M250.621 20.7307C250.013 20.1439 248.943 20.4523 248.108 21.4003L248.284 25.2974C249.094 25.2002 249.819 24.7367 250.262 24.0334C251.119 22.8824 251.281 21.4003 250.621 20.7307Z" fill="#F2BD99"/>
<g style="mix-blend-mode:multiply" opacity="0.6">
<path d="M250.621 20.7307C250.013 20.1439 248.943 20.4523 248.108 21.4003L248.284 25.2974C249.094 25.2002 249.819 24.7367 250.262 24.0334C251.119 22.8824 251.281 21.4003 250.621 20.7307Z" fill="#F9D0B4"/>
</g>
<g style="mix-blend-mode:multiply" opacity="0.6">
<path d="M245.189 31.9088C247.042 30.6294 249.158 28.7141 249.026 26.7145V26.2701L253.946 32.9507L248.969 37.9458L245.189 31.9088Z" fill="#F9D0B4"/>
</g>
<g style="mix-blend-mode:multiply" opacity="0.6">
<path d="M244.248 23.4214C243.74 22.6852 243.436 21.8361 243.366 20.9549C243.366 18.0126 245.393 15.6572 246.134 14.9117C246.291 14.7452 246.39 14.6579 246.39 14.6579L246.53 14.5945C247.766 15.7338 248.51 17.2801 248.614 18.9247L249.075 26.0623C249.289 29.3853 243.696 32.4782 242.707 33.0017L242.542 33.081L242.27 28.3225L244.248 23.4214Z" fill="#F9D0B4"/>
</g>
<g style="mix-blend-mode:multiply" opacity="0.6">
<path d="M248.507 27.1118C248.585 26.8802 248.643 26.6426 248.682 26.4015C248.643 26.6426 248.585 26.8802 248.507 27.1118Z" fill="#F9D0B4"/>
</g>
<g style="mix-blend-mode:multiply" opacity="0.6">
<path d="M248.587 26.3772C248.607 26.6298 248.607 26.8835 248.587 27.1361C248.607 26.8835 248.607 26.6298 248.587 26.3772Z" fill="#F9D0B4"/>
</g>
<g style="mix-blend-mode:multiply" opacity="0.6">
<path d="M246.96 30.3518C246.765 30.5562 246.551 30.7508 246.337 30.9454C246.551 30.7702 246.794 30.5756 246.96 30.3518Z" fill="#F9D0B4"/>
</g>
<g style="mix-blend-mode:multiply" opacity="0.6">
<path d="M248.804 28.3623C248.677 28.5969 248.538 28.8243 248.385 29.0433C248.538 28.8243 248.677 28.5969 248.804 28.3623Z" fill="#F9D0B4"/>
</g>
<g style="mix-blend-mode:multiply" opacity="0.6">
<path d="M248.444 28.0702C248.558 27.8496 248.659 27.6221 248.745 27.3891C248.659 27.6221 248.558 27.8496 248.444 28.0702Z" fill="#F9D0B4"/>
</g>
<g style="mix-blend-mode:multiply" opacity="0.6">
<path d="M246.313 30.9405C246.54 30.7524 246.764 30.5578 246.984 30.3567C246.764 30.5578 246.54 30.7524 246.313 30.9405Z" fill="#F9D0B4"/>
</g>
<g style="mix-blend-mode:multiply" opacity="0.6">
<path d="M253.339 32.4777L248.633 25.6808L248.17 19.1023C248.064 17.4812 247.347 15.9597 246.162 14.8415L250.79 12.6487C251.315 13.4668 251.706 14.3622 251.951 15.3019C252.293 16.7404 252.378 18.2276 252.202 19.6954C252.076 20.944 252.351 20.4757 253.331 20.9986C254.128 21.3958 254.833 21.9539 255.402 22.6374C257.142 24.7623 257.349 27.7469 255.919 30.0898C254.955 31.6506 254.272 33.7107 252.782 34.0541L252.405 33.4844L253.339 32.4777Z" fill="#F9D0B4"/>
</g>
<g style="mix-blend-mode:multiply" opacity="0.6">
<path d="M247.335 29.9872C247.539 29.7828 247.724 29.5785 247.909 29.3645C247.724 29.5785 247.539 29.7828 247.335 29.9872Z" fill="#F9D0B4"/>
</g>
<g style="mix-blend-mode:multiply" opacity="0.6">
<path d="M247.364 29.0336C247.547 28.8221 247.719 28.6013 247.879 28.372C247.719 28.6013 247.547 28.8221 247.364 29.0336Z" fill="#F9D0B4"/>
</g>
<path d="M266.399 61.2972H266.22L261.119 62.7207C256.965 63.853 252.783 64.8128 248.572 65.6L241.352 67.0882L240.324 70.4527L242.162 70.938L247.653 71.027C253.161 70.7887 258.647 70.1563 264.071 69.1344L267.388 68.5116H267.482H267.568L266.999 64.9206L266.399 61.2972Z" fill="#F2BD99"/>
<path d="M260.757 36.6761C260.859 34.1689 262.868 32.1715 265.35 32.1096C267.833 32.0478 269.937 33.9427 270.161 36.4418C270.24 36.7383 270.292 37.0415 270.315 37.3476C271.336 43.761 271.675 50.2661 271.328 56.7522L271.065 61.4374C271.105 61.89 271.058 62.3463 270.926 62.7805C268.701 63.5356 266.269 63.3613 264.172 62.2964C264.172 62.2261 264.172 62.1558 264.172 62.0778L263.917 58.5404C263.47 51.7894 262.457 45.0889 260.888 38.5111C260.861 38.2881 260.861 38.0626 260.888 37.8396C260.813 37.456 260.769 37.0669 260.757 36.6761H260.757Z" fill="#F2BD99"/>
<path d="M235.46 71.1783L234.603 71.6294C233.562 72.1774 232.436 72.5805 231.264 72.8254L230.557 72.9614C230.178 73.0237 229.805 72.8266 229.677 72.496L229.622 72.3456L230.816 72.009C231.929 71.6845 232.987 71.2192 233.959 70.6269L234.902 70.054L235.46 71.1783Z" fill="#F2BD99"/>
<path d="M236.433 72.0854L235.37 74.0558L235.27 76.1483C235.254 76.4737 235.048 76.7469 234.767 76.816L234.595 76.8648L234.488 74.0558C234.483 73.9537 234.495 73.8515 234.523 73.7546L235.406 71.027L236.433 72.0854Z" fill="#F2BD99"/>
<path d="M236.727 68.5422L234.487 70.0633L234.779 71.3487C234.877 71.7894 235.179 72.1587 235.595 72.345C235.944 72.5079 236.315 72.6205 236.696 72.6797L236.511 73.9727C236.494 74.1101 236.516 74.2494 236.573 74.3758L237.181 75.6992C237.218 75.7744 237.281 75.8339 237.358 75.8665C237.437 75.9004 237.526 75.9004 237.605 75.8665C237.865 75.7459 237.981 75.4425 237.866 75.182L237.351 74.0639L237.543 73.387C237.649 73.0187 237.94 72.7308 238.313 72.6265C238.433 72.6016 238.552 72.5685 238.667 72.5276L239.529 72.231C240.503 71.8933 241.355 71.2795 241.978 70.4664L242.201 70.1774L242.27 67.1351L241.092 67.272L236.727 68.5422Z" fill="#F2BD99"/>
<path d="M236.432 69.5311L236.197 70.7671C235.322 72.1229 234.264 73.3596 233.053 74.4445L232.715 74.7421C232.424 74.9777 232 74.9777 231.709 74.7421L231.568 74.62L232.228 73.857C233.305 72.6261 234.278 71.312 235.136 69.9278L235.67 69.0809L236.432 69.5311Z" fill="#F2BD99"/>
<path d="M271.459 62.975C271.459 62.975 270.477 70.5894 264.215 67.2703L263.676 64.8181L269.238 59.3513L271.459 62.975Z" fill="#F2BD99"/>
<g style="mix-blend-mode:multiply" opacity="0.6">
<path d="M251.027 65.1892C255.118 63.9726 261.787 61.7399 264.428 59.3513L264.649 62.1478L261.361 62.9638C257.932 63.8094 254.503 64.5438 251.027 65.1892Z" fill="#BBCDE0"/>
</g>
<g style="mix-blend-mode:multiply" opacity="0.6">
<path d="M264.268 61.268L271.593 54.4865L271.684 55.3938C271.684 55.3938 272.938 56.9582 277.288 61.3697C279.826 63.8056 282.111 66.5028 284.108 69.4184C282.481 72.2884 280.336 74.8155 277.785 76.8648C275.423 75.0189 272.258 72.2734 271.669 70.357C270.698 67.2283 261.73 62.6368 261.73 62.6368L264.268 61.268Z" fill="#BBCDE0"/>
</g>
<path d="M230.594 21.4054H254.919L252.879 16.526C252.604 15.8753 252.411 15.1914 252.306 14.4908C252.219 13.8053 252.061 13.1312 251.835 12.4797C251.456 11.5523 250.905 10.7087 250.211 9.99594C248.785 8.55309 246.851 7.7562 244.844 7.78454H240.654C237.614 7.74474 234.853 9.58369 233.662 12.4397C233.436 13.0966 233.278 13.7761 233.192 14.4668C233.087 15.152 232.895 15.8202 232.619 16.4538L230.594 21.4054Z" fill="#BBCDE0"/>
<path d="M229.622 15.0556C229.757 17.4966 231.683 19.4164 234.039 19.4594C235.667 19.4265 237.16 18.5181 237.984 17.0611C238.104 16.8463 238.32 16.7081 238.559 16.6927C238.793 16.6834 239.013 16.8055 239.135 17.012C239.957 18.4592 241.461 19.3421 243.08 19.3285C244.165 19.3242 245.203 18.8705 245.965 18.0682C246.726 17.266 247.147 16.1815 247.134 15.0556V13.7214C247.15 13.1542 246.931 12.6071 246.534 12.2177C246.136 11.8284 245.597 11.6339 245.052 11.6832H232.13C230.915 11.6832 229.622 12.5017 229.622 13.7214L229.622 15.0556Z" fill="#A7BED6"/>
<path d="M228.649 15.0558C228.797 17.5036 230.745 19.4215 233.12 19.4594C234.754 19.4249 236.255 18.517 237.083 17.0612C237.2 16.8419 237.42 16.7021 237.662 16.6928C237.894 16.6848 238.112 16.8069 238.232 17.012V17.0693C239.062 18.5232 240.562 19.4282 242.196 19.4594C244.467 19.3707 246.24 17.4008 246.16 15.0558V13.7216C246.185 13.1574 245.972 12.6097 245.577 12.2191C245.182 11.8285 244.643 11.6332 244.099 11.6834H231.193C229.972 11.6834 228.649 12.5019 228.649 13.7216V15.0558Z" fill="#E5EFF9"/>
<path fill-rule="evenodd" clip-rule="evenodd" d="M231.848 11.6757H244.957C245.545 11.6863 246.105 11.9327 246.514 12.3606C246.922 12.7886 247.146 13.3629 247.135 13.9574V15.2439C247.135 17.5721 245.267 19.4594 242.963 19.4594C241.323 19.4516 239.805 18.5808 238.959 17.1615C238.838 16.9532 238.617 16.8251 238.378 16.8251C238.139 16.8251 237.918 16.9532 237.798 17.1615C236.951 18.5808 235.434 19.4516 233.794 19.4594C231.49 19.4594 229.622 17.5721 229.622 15.2439V13.925C229.62 13.3278 229.853 12.7544 230.271 12.3321C230.689 11.9098 231.257 11.6735 231.848 11.6757ZM246.382 13.9248C246.382 13.1294 245.744 12.4846 244.957 12.4846H231.848C231.47 12.4931 231.111 12.653 230.849 12.9292C230.588 13.2054 230.446 13.5752 230.454 13.9572V15.2923C230.454 17.1736 231.964 18.6987 233.826 18.6987C235.193 18.6977 236.46 17.9732 237.165 16.7891C237.435 16.3392 237.917 16.0634 238.438 16.0609C238.937 16.0607 239.402 16.3167 239.672 16.7406C240.377 17.9234 241.644 18.6476 243.011 18.6501C243.906 18.6523 244.764 18.2941 245.397 17.6548C246.03 17.0155 246.384 16.1478 246.382 15.2437V13.9248Z" fill="#A7BED6"/>
<path d="M252.52 14.5945C252.63 15.5675 252.776 16.5404 252.973 16.5404H247.135V14.5945H252.52Z" fill="#A7BED6"/>
<path d="M246.162 40.865L255.892 32.7091L254.021 29.1893L246.925 35.8216L246.162 40.865Z" fill="#BBCDE0"/>
<path d="M264.076 68.6431L267.241 68.0929V67.9553L267.661 67.8942C270.502 67.5045 271.087 63.3095 271.103 63.1949C271.226 62.7964 271.269 62.3788 271.23 61.9647L271.625 56.4325H272.045C272.155 56.5548 272.274 56.6923 272.432 56.8528L272.068 61.9341C272.113 62.4052 272.062 62.8802 271.918 63.3325C271.918 63.5311 271.293 67.9171 268.128 68.6048V68.6965L267.771 68.7959H267.637L264.266 69.3842C259.629 70.1942 257.326 70.4234 253.504 70.8055L251.344 71.0271C251.249 70.8055 251.138 70.5763 251.027 70.3394V70.2553L253.401 70.0032C257.207 69.6822 259.502 69.453 264.076 68.6431Z" fill="#A7BED6"/>
<path d="M244.216 66.7566L248.94 65.8377C253.199 65.0654 257.45 64.1696 261.638 63.0885L264.929 62.239L264.716 59.2196C264.217 52.5404 263.145 45.9143 261.512 39.4116C261.457 39.1914 261.426 38.9663 261.418 38.7397C261.418 38.7397 261.418 37.9675 261.418 37.5891C261.551 35.1069 263.609 33.1433 266.142 33.0826C268.676 33.0219 270.829 34.8845 271.085 37.3574C271.171 37.6501 271.229 37.95 271.259 38.2532C272.305 44.595 272.653 51.0286 272.298 57.4434L272.038 62.0768C272.076 62.5244 272.027 62.9749 271.896 63.4051C271.896 63.4051 271.306 67.9999 268.133 68.4401L264.614 69.2124C259.129 70.1891 253.581 70.7954 248.011 71.0271L244.216 70.9731V66.7566Z" fill="#BBCDE0"/>
<path d="M246.162 65.1891L247.135 71.0269" stroke="#A7BED6"/>
<path d="M242.038 66.4987L246.329 65.8298L247.18 71.2944L242.889 71.9633L242.038 66.4987Z" fill="#BBCDE0"/>
<g style="mix-blend-mode:multiply" opacity="0.6">
<path d="M254.919 36.1056L265.853 36.9731C265.988 36.9687 266.106 36.8763 266.154 36.7388L267.55 33.3469C267.59 33.2428 267.55 33.2341 267.55 33.1387C267.55 33.0433 267.399 33.0953 267.296 33.0953H256.227L254.919 36.1056Z" fill="#BBCDE0"/>
</g>
<path d="M254.919 35.0271H265.915C266.03 35.0271 266.138 35.0271 266.192 34.9446L267.55 32.286C267.589 32.2036 267.55 32.2173 267.55 32.1417C267.55 32.0662 267.404 32.1417 267.303 32.1417H256.547L254.919 35.0271Z" fill="#A7BED6"/>
<path d="M237.127 41.459C239.257 40.2887 241.934 40.8945 243.34 42.8647C244.746 44.8349 244.43 47.5378 242.606 49.1369C242.411 49.3725 242.193 49.5885 241.955 49.7818C237.236 54.129 232.064 57.9665 226.525 61.2296L222.503 63.5944C222.153 63.8768 221.75 64.0881 221.317 64.2163C219.448 62.7957 218.233 60.6903 217.946 58.3734L218.109 58.2276L220.891 56.0854C226.174 51.9826 231.1 47.4469 235.616 42.5262C235.769 42.3619 235.937 42.2128 236.119 42.0809C236.119 42.0809 236.786 41.6739 237.127 41.459Z" fill="#BBCDE0"/>
<path d="M203.223 47.6757L204.51 48.7027C207.277 51.0368 210.339 52.8886 213.284 54.9737L215.354 56.4442L217.315 58.0548C219.532 59.891 222.842 62.6374 222.811 62.6608C222.245 63.0242 221.657 63.3517 221.051 63.6411C218.206 65.2828 215.555 65.9753 213.121 63.9134L211.222 62.2251L209.61 60.8868C206.44 58.2337 203.796 55.1215 201.045 52.0483C200.835 51.8071 200.634 51.5581 200.432 51.2702L203.223 47.6757Z" fill="#BBCDE0"/>
<g style="mix-blend-mode:multiply" opacity="0.6">
<path d="M220.865 63.994C227.887 58.4381 238.082 47.6757 238.082 47.6757L239.351 51.8743C235.326 55.3223 231.013 58.4184 226.458 61.1287L222.341 63.5733C221.982 63.8652 221.57 64.0837 221.127 64.2162C221.031 64.1448 220.968 64.0733 220.865 63.994Z" fill="#BBCDE0"/>
</g>
<path d="M240.324 37.2632L243.73 36.973L246.162 40.8649L242.859 40.6045L240.324 37.2632Z" fill="#BBCDE0"/>
<path d="M246.162 40.865L253.946 64.2163" stroke="#A7BED6"/>
<path d="M204.324 47.6757L201.405 52.5405" stroke="#A7BED6"/>
<path d="M204.324 47.6757L201.405 52.5405" stroke="#A7BED6"/>
<path d="M242.757 57.2312C242.779 57.3 242.828 57.3563 242.89 57.3875C242.955 57.4113 243.026 57.4113 243.091 57.3875L248.911 55.1293C249.043 55.0779 249.112 54.9256 249.067 54.7855L246.647 47.8545C246.595 47.7148 246.448 47.6426 246.313 47.6904L240.492 49.9486C240.425 49.9703 240.371 50.0217 240.344 50.0893C240.318 50.1543 240.318 50.2274 240.344 50.2924L242.757 57.2312Z" fill="#A7BED6"/>
<path d="M240.324 52.5405L247.135 49.6216L240.324 52.5405Z" fill="#A7BED6"/>
<g style="mix-blend-mode:multiply" opacity="0.6">
<path d="M254.81 54.3105C254.865 54.4482 255.009 54.5183 255.142 54.4726L261.556 52.0416C261.626 52.0184 261.682 51.9615 261.707 51.8876C261.737 51.8155 261.737 51.7328 261.707 51.6607L258.459 43.9543C258.406 43.818 258.263 43.7501 258.134 43.8003L252.166 46.1665C252.035 46.223 251.968 46.38 252.015 46.5231L254.81 54.3105Z" fill="#A7BED6"/>
</g>
<g style="mix-blend-mode:multiply" opacity="0.6">
<path d="M252.973 48.6485L259.784 45.7296" stroke="#A7BED6"/>
</g>
<path d="M251.027 45.7297L257.838 42.8108" stroke="#A7BED6"/>
<path d="M254.45 53.3368C254.475 53.4039 254.522 53.4593 254.583 53.493C254.647 53.5204 254.719 53.5204 254.783 53.493L260.588 51.2354C260.719 51.184 260.788 51.0318 260.743 50.8917L258.329 43.9626C258.278 43.8229 258.131 43.7507 257.996 43.7986L252.169 46.064C252.038 46.1154 251.969 46.2676 252.014 46.4077L254.45 53.3368Z" fill="#A7BED6"/>
<g style="mix-blend-mode:multiply" opacity="0.6">
<path d="M253.009 40.8414C253.081 40.8729 253.163 40.8729 253.236 40.8414C253.319 40.8414 253.38 40.8414 253.417 40.7864L257.838 31.8293H255.87L253.856 29.1893L247.309 35.53L247.135 37.4707L253.009 40.8414Z" fill="#BBCDE0"/>
</g>
<path d="M204.324 47.6757L201.405 52.5405L204.324 47.6757Z" fill="#BBCDE0"/>
<path d="M201.405 52.5404L197.514 49.975L201.326 45.7296" fill="#BBCDE0"/>
<path d="M252.888 40.7876C252.962 40.8592 253.069 40.8834 253.166 40.8507C253.268 40.826 253.347 40.7476 253.376 40.6458L255.892 31.7343L253.832 29.1893L247.135 35.6031L252.888 40.7876Z" fill="#BBCDE0"/>
<g style="mix-blend-mode:multiply" opacity="0.6">
<path d="M236.69 41.8233L242.557 37.9459L245.189 39.0401L237.883 44.7095C237.787 44.7725 237.665 44.7725 237.569 44.7095L235.459 43.1237L236.69 41.8233Z" fill="#BBCDE0"/>
</g>
<path d="M242.333 36.973L245.189 38.9047L237.259 43.7337C237.156 43.8005 237.023 43.8005 236.92 43.7337L234.622 42.1504C234.537 42.0909 234.487 41.9952 234.487 41.8931C234.487 41.7911 234.537 41.6953 234.622 41.6358" fill="#A7BED6"/>
<g style="mix-blend-mode:multiply" opacity="0.6">
<path d="M240.682 36L244.284 36.882L245.189 38.1635L243.782 41.6463C243.754 41.7252 243.685 41.7869 243.597 41.8122C243.515 41.8464 243.42 41.8464 243.338 41.8122L238.378 39.6788L239.048 39.3019L240.682 36Z" fill="#BBCDE0"/>
</g>
<path d="M240.88 36L244.216 36.8957L243.689 41.5657C243.68 41.6676 243.618 41.7577 243.526 41.8031C243.433 41.8494 243.323 41.8494 243.231 41.8031L239.351 39.3456L240.88 36Z" fill="#BBCDE0"/>
<g style="mix-blend-mode:multiply" opacity="0.6">
<path d="M263.822 61.8009L264.942 61.5112L264.713 58.4495C264.73 57.5695 264.654 56.6902 264.484 55.8263C264.484 55.4896 264.429 55.1451 264.39 54.8084C263.815 49.267 262.851 43.7723 261.504 38.3646C261.449 38.1414 261.417 37.9131 261.409 37.6834C261.409 37.6834 261.409 36.8299 261.409 36.4305C261.475 35.9008 261.583 35.3771 261.733 34.8644H266.085C266.203 34.8644 266.313 34.8644 266.369 34.7705L267.591 32.1082C269.488 32.6563 270.866 34.2846 271.084 36.2348C271.17 36.5341 271.228 36.8408 271.257 37.1509C272.305 43.5813 272.653 50.1049 272.298 56.6094L272.038 61.3076C272.074 61.7614 272.026 62.218 271.896 62.6544C271.896 62.6544 271.304 67.3135 268.127 67.7598L264.603 68.5428C260.755 69.2397 256.876 69.7331 252.973 70.0541C257.546 68.0495 261.985 65.3011 263.822 61.8009Z" fill="#BBCDE0"/>
</g>
<path d="M240.324 35.0912L241.864 34.054L243.243 35.9999L240.324 35.0912Z" fill="#BBCDE0"/>
<path d="M249.048 71.1656C249.3 71.8442 249.692 72.486 250.209 73.0654C250.298 73.1555 250.36 73.1971 250.369 73.211C250.688 73.0307 250.936 72.2334 251.113 71.0686L252 71.027C251.743 72.58 251.335 73.6755 250.706 73.8904C250.602 73.9265 250.491 73.9454 250.378 73.9459C250.015 73.9177 249.689 73.7621 249.491 73.523C248.867 72.8174 248.399 72.0345 248.108 71.2072L249.048 71.1656Z" fill="#012C30"/>
<path d="M247.217 66.1622C245.887 58.9532 245.009 51.6806 244.588 44.3801C244.49 42.9374 244.03 41.5347 243.243 40.2803L243.423 38.9189C244.629 40.5171 245.345 42.3812 245.496 44.3175C245.911 51.5737 246.783 58.802 248.108 65.9666L247.217 66.1622Z" fill="#012C30"/>
<path d="M251.042 65.1892C251.136 61.4687 250.944 57.7469 250.467 54.0481C249.82 50.1808 249.273 41.2664 249.081 37.9459L250.093 38.7272C250.312 42.4852 250.823 50.3839 251.415 53.9387C251.856 57.6242 252.048 61.3285 251.99 65.0329L251.042 65.1892Z" fill="#012C30"/>
<g style="mix-blend-mode:multiply" opacity="0.6">
<path d="M245.191 79.3733C245.177 79.5683 245.239 79.7612 245.366 79.9087C245.493 80.0562 245.672 80.1461 245.865 80.1581L255.928 80.7545C256.128 80.7703 256.325 80.6989 256.47 80.5583C256.61 80.4193 256.693 80.2313 256.702 80.0325L256.865 73.6053C256.867 73.4248 256.791 73.2525 256.656 73.1345C256.509 73.0122 256.319 72.9556 256.129 72.9775H245.896C245.493 72.9775 245.191 73.1737 245.191 73.5897V79.3733Z" fill="#BBCDE0"/>
</g>
<rect x="245.189" y="72.9729" width="10.7027" height="7.78378" rx="0.95" fill="#084E8A"/>
<rect x="246.162" y="74.9189" width="2.91892" height="2.91892" fill="white"/>
<path d="M254.919 75.4054H251.027" stroke="white"/>
<path d="M254.919 77.3512H251.027" stroke="white"/>
<path d="M254.919 78.3243H251.027" stroke="white"/>
<rect x="249.081" y="72.9729" width="1.94595" height="0.972973" fill="#012C30"/>
<g style="mix-blend-mode:multiply" opacity="0.4">
<path d="M38.4004 31.6707C39.7998 31.6702 41.1974 31.77 42.5826 31.9694C48.2408 32.7671 54.0045 32.311 59.4682 30.6333C71.0471 27.0394 83.6562 30.2739 92.0964 39.0031C100.537 47.7324 103.378 60.478 99.4499 71.9845C95.5215 83.4911 85.4883 91.8098 73.4872 93.5107C70.7327 93.9176 68.0089 94.511 65.3342 95.287C62.9596 95.9777 60.4994 96.327 58.0271 96.3244C52.1845 96.3244 49.412 95.0983 45.778 93.1806C43.5196 91.9341 40.9931 91.2571 38.4161 91.2078C22.0357 91.2078 8.75681 77.8817 8.75681 61.4432C8.75681 45.0047 22.0357 31.6786 38.4161 31.6786L38.4004 31.6707Z" fill="#CEDCEA"/>
</g>
<path d="M44.6449 35.6093L47.6461 30.7955L57.8901 37.1837L54.8889 41.9975L44.6449 35.6093Z" fill="#BBCDE0"/>
<path d="M69.9927 48.6487C73.1342 53.1698 75.8121 57.9975 77.9856 63.0582C79.6517 67.1313 80.9642 70.7396 81.9152 73.4024C84.6816 70.6923 87.3721 67.9086 89.9866 65.0514L95.2758 59.4578L95.7788 58.9299C96.6281 58.1522 97.7899 57.8145 98.9225 58.016L103.559 58.859L108.754 59.119C109.202 59.1663 110.216 59.4657 109.878 59.7729C109.242 60.348 105.949 60.608 105.949 60.608L99.952 61.3958L96.2661 67.5961C92.2264 73.4418 91.0476 78.2555 86.7407 84.0855C85.8976 84.9721 84.9914 85.7962 84.0293 86.5514C82.9762 87.3727 81.6302 87.7187 80.3128 87.5065C78.9955 87.2944 77.8252 86.5433 77.0817 85.4327C77.0817 85.4327 70.3385 75.8132 67.022 68.5967C63.4067 60.7183 59.3985 52.7139 59.3514 52.4067L69.9927 48.6487Z" fill="#C9887E"/>
<path d="M65.722 42.8108C65.722 42.8108 71.4381 42.7326 80.7568 65.577L69.0203 72.973L65.77 67.1485L64.8333 64.6702C62.7598 59.1975 60.6303 53.7248 61.4949 47.9551L65.722 42.8108Z" fill="#BBCDE0"/>
<path d="M67.1351 70.0541L79.7838 63.2433" stroke="#A7BED6"/>
<path d="M80.4993 62.2703L82.7027 67.7103L68.5982 74.9189L66.1621 69.7789L80.4993 62.2703Z" fill="#BBCDE0"/>
<g style="mix-blend-mode:multiply" opacity="0.6">
<path d="M71.027 73.7175L68.6 74.919L66.0031 69.8305L66.9578 69.3593L65.8171 67.3255L64.8705 64.8362C62.7752 59.3393 60.6233 53.8424 61.497 48.0471L64.2153 44.7568L64.6117 44.8903C64.6117 44.8903 66.3834 65.2209 69.1987 70.388C70.0967 72.0135 70.663 73.0658 71.027 73.7175Z" fill="#BBCDE0"/>
</g>
<path d="M57.6348 96.3243C53.3946 96.2959 49.226 95.2148 45.4936 93.1755C43.2501 91.921 40.7383 91.2401 38.1763 91.1918C35.5304 91.2316 32.8913 90.9085 30.3308 90.2314L26.6178 51.8478L25.2973 44.3065L40.763 37.9459H45.7578L50.4651 39.6856L65.9153 43.7633L66.1328 47.4395C66.428 52.6429 64.4006 83.3513 64.4083 95.4111C62.2005 96.0191 59.9226 96.3262 57.6348 96.3243Z" fill="#BBCDE0"/>
<path d="M44.7567 40.8649C44.7567 41.4023 45.1923 41.8379 45.7297 41.8379C46.2671 41.8379 46.7027 41.4023 46.7027 40.8649C46.7027 40.3276 46.2671 39.892 45.7297 39.892C45.4717 39.892 45.2242 39.9945 45.0417 40.1769C44.8592 40.3594 44.7567 40.6069 44.7567 40.8649Z" fill="#BBCDE0"/>
<g style="mix-blend-mode:multiply" opacity="0.6">
<path d="M28.4742 48.6487L42.8108 42.1405L38.0853 38.9189L24.3244 43.7067L28.4742 48.6487Z" fill="#BBCDE0"/>
</g>
<path d="M28.2983 46.7027L42.8108 41.9396L38.0853 38.9189L24.3244 43.4081L28.2983 46.7027Z" fill="#A7BED6"/>
<g style="mix-blend-mode:multiply" opacity="0.6">
<path d="M64.2376 46.7027L52.5405 43.3727L56.5044 38.9189L68.1081 43.1331L64.2376 46.7027Z" fill="#BBCDE0"/>
</g>
<path d="M65.1873 46.7027L53.5135 42.5051L57.4074 38.9189L69.0811 43.1331L65.1873 46.7027Z" fill="#A7BED6"/>
<rect x="54.4865" y="54.4865" width="10.7027" height="13.6216" fill="#A7BED6"/>
<g style="mix-blend-mode:multiply" opacity="0.6">
<path d="M56.4324 68.1081H61.2973V54.4865H57.9375L56.4324 68.1081Z" fill="#BBCDE0"/>
</g>
<rect x="58.3783" y="54.4865" width="2.91892" height="13.6216" fill="#BBCDE0"/>
<g style="mix-blend-mode:multiply" opacity="0.6">
<path d="M53.5135 61.4099L58.2937 63.2433H61.4299L66.1622 60.0266V55.4595H53.5135V61.4099Z" fill="#BBCDE0"/>
</g>
<path d="M53.5135 59.1064L58.2937 62.2703H61.4299L66.1622 59.1064V55.4595H53.5135V59.1064Z" fill="#BBCDE0"/>
<g style="mix-blend-mode:multiply" opacity="0.6">
<path d="M58.3783 58.3782C58.3783 58.9156 58.814 59.3512 59.3513 59.3512C59.8887 59.3512 60.3243 58.9156 60.3243 58.3782C60.3243 57.8409 59.8887 57.4053 59.3513 57.4053C59.0933 57.4053 58.8458 57.5078 58.6633 57.6903C58.4809 57.8727 58.3783 58.1202 58.3783 58.3782H58.3783Z" fill="#BBCDE0"/>
</g>
<path d="M46.7027 34.2291C46.7027 34.2291 48.5207 36.1136 52.5405 35.9945L52.0318 34.054C52.0318 34.054 48.5041 34.9226 46.7027 34.2291Z" fill="#F48B35"/>
<path d="M41.0183 10.519L48.7649 8.84927C51.2843 8.31063 53.8429 10.1805 54.4865 13.043L51.4099 13.697C46.5987 14.7743 44.6836 18.4447 46.5516 25.0392L47.0696 27.2245C40.2256 20.807 45.0839 35.0271 45.0839 35.0271C42.644 33.7377 40.414 32.0986 38.4675 30.164C36.358 28.1441 34.8983 25.5626 34.2685 22.7384C33.2325 17.0058 36.0266 11.5886 41.0183 10.519Z" fill="#2C2D53"/>
<path d="M44.3208 14.8774L54.6518 12.6487L55.8189 17.322L56.6726 21.1779C56.3863 21.5376 56.2721 22.0016 56.3593 22.4504L56.4533 22.8977C56.7311 23.2657 57.0608 23.5929 57.4324 23.8694C57.8977 24.3637 58.424 24.799 58.9989 25.1649L59.2338 25.3346H59.2808C59.3174 25.3702 59.342 25.4159 59.3513 25.4657C59.3506 25.5185 59.328 25.5686 59.2887 25.6045L57.871 26.877C58.2391 27.6481 58.3644 31.6429 58.3644 31.6429L57.0486 33.7636C55.9269 33.8989 54.8131 34.092 53.7119 34.342L54.8163 40.9125L43.3025 41.8379L40.6551 29.9617L40.475 29.1905L39.0808 22.9517C38.2652 19.2977 40.6104 15.684 44.3208 14.8774Z" fill="#C9887E"/>
<path d="M45.5562 14.2487C45.2867 16.7911 45.345 19.3557 45.7297 21.8844C45.7297 21.8844 39.6908 17.5268 39.1208 25.2974L36.9729 18.8285L42.0783 13.6217L45.5562 14.2487Z" fill="#331177"/>
<path d="M39.9109 26.2704L42.938 24.5436L45.5512 25.5781L45.7298 21.689C45.7298 21.689 39.5052 19.6977 39.9109 26.2704Z" fill="url(#paint0_linear)"/>
<path d="M38.4179 26.7518L38.4276 26.7615H38.447L38.4179 26.7518Z" fill="url(#paint1_linear)"/>
<path d="M45.7298 14.86C45.2451 17.0978 45.1619 19.4094 45.4841 21.6786C45.4841 21.6786 39.1639 19.5192 40.2731 27.2433L37.541 26.361L36 24.1165L37.6527 18.6989L42.2533 13.6217L45.7298 14.86Z" fill="#2C2D53"/>
<path d="M40.1555 23.2183C40.771 22.1835 42.3173 22.1078 43.7435 22.9743L44.7568 28.1311C43.6853 28.3726 42.5727 28.0944 41.6943 27.3655C40.163 26.2131 39.4725 24.3539 40.1555 23.2183Z" fill="#C9887E"/>
<g style="mix-blend-mode:multiply" opacity="0.4">
<path d="M56.4324 22.3783L58.2379 24.4598C58.3267 24.5664 58.3776 24.7174 58.3783 24.8761C58.3776 25.0367 58.3239 25.1888 58.2312 25.2924L57.4957 26.1161C57.3963 26.2305 57.2655 26.285 57.1345 26.2667C57.0065 26.251 56.8885 26.1681 56.8069 26.0364C56.6531 25.7884 56.5394 25.4961 56.7199 25.3721C57.0677 25.1064 56.4324 22.3783 56.4324 22.3783Z" fill="#C9887E"/>
</g>
<path d="M52.295 38.9189L55.4595 40.6223L53.3176 44.2689L52.7056 44.7568L49.6216 39.2166L52.295 38.9189Z" fill="#C9887E"/>
<path d="M39.8919 33.0812H41.5364L41.8379 35.0271L39.8919 33.0812Z" fill="#A7BED6"/>
<path d="M29.9403 67.0526C29.6429 68.2032 29.2438 69.3849 28.8917 70.5199C27.4283 75.3244 25.8945 79.9578 24.2434 82.5C24.1593 83.6606 24.2838 84.8268 24.6112 85.944L26.0354 88.5406C21.5386 86.5568 17.6076 83.4956 14.5946 79.6313C14.6706 75.5769 15.0683 71.5347 15.7841 67.5424C16.9566 61.7395 18.6942 56.0635 20.9724 50.5946L28.7978 53.4166C29.9238 57.2921 30.3582 61.3335 30.0812 65.3578L29.9403 67.0526Z" fill="#C9887E"/>
<g style="mix-blend-mode:multiply" opacity="0.4">
<path d="M29.9403 67.0526C29.6429 68.2032 29.2438 69.3849 28.8917 70.5199C27.4283 75.3244 25.8945 79.9578 24.2434 82.5C24.1593 83.6606 24.2838 84.8268 24.6112 85.944L26.0354 88.5406C21.5386 86.5568 17.6076 83.4956 14.5946 79.6313C14.6706 75.5769 15.0683 71.5347 15.7841 67.5424C16.9566 61.7395 18.6942 56.0635 20.9724 50.5946L28.7978 53.4166C29.9238 57.2921 30.3582 61.3335 30.0812 65.3578L29.9403 67.0526Z" fill="#C9887E"/>
</g>
<path d="M25.0225 44.7568C18.9579 51.6084 15.0096 59.9439 13.6216 68.8262L28.4348 73.946L29.888 67.5731L30.0807 64.9825C30.4849 59.2423 29.3808 53.4965 26.8691 48.27L25.0225 44.7568Z" fill="#BBCDE0"/>
<path d="M28.2163 71.027L14.5946 66.1621" stroke="#A7BED6"/>
<path d="M52.5406 95.3514L51.7306 44.2175L49.6216 39.892" fill="#A7BED6"/>
<path d="M55.2556 40.865L52.5405 44.7569L55.4594 41.6268L55.2556 40.865Z" fill="#A7BED6"/>
<path d="M13.3277 65.1891L11.6757 70.5324L27.974 75.8918L29.1892 70.7011L13.3277 65.1891Z" fill="#BBCDE0"/>
<path d="M55.7115 40.865L56.6131 52.0748C58.7435 67.0574 55.903 76.865 55.903 76.865C55.6716 66.7088 51.6502 52.6558 49.7193 46.4505C49.0933 44.4401 47.6536 42.7626 45.7298 41.8024V41.8024" stroke="#012C30"/>
<path d="M57.9815 37.9459L58.3774 42.4741C58.387 42.5886 58.3253 42.6985 58.2164 42.7607C58.1075 42.823 57.9689 42.8275 57.8552 42.7725L54.4865 41.5416L57.9815 37.9459Z" fill="#BBCDE0"/>
<g style="mix-blend-mode:multiply" opacity="0.6">
<path d="M57.9815 37.9459L58.3774 42.4741C58.387 42.5886 58.3253 42.6985 58.2164 42.7607C58.1075 42.823 57.9689 42.8275 57.8552 42.7725L54.4865 41.5416L57.9815 37.9459Z" fill="#BBCDE0"/>
</g>
<rect x="36" y="54.4865" width="10.7027" height="13.6216" fill="#A7BED6"/>
<g style="mix-blend-mode:multiply" opacity="0.6">
<path d="M37.946 68.1081H42.8108V54.4865H39.4489L37.946 68.1081Z" fill="#BBCDE0"/>
</g>
<rect x="39.8919" y="54.4865" width="2.91892" height="13.6216" fill="#BBCDE0"/>
<g style="mix-blend-mode:multiply" opacity="0.6">
<path d="M35.027 61.4099L39.7992 63.2433H42.9354L47.6757 60.0266V55.4595H35.027V61.4099Z" fill="#BBCDE0"/>
</g>
<path d="M35.027 59.1064L39.7992 62.2703H42.9354L47.6757 59.1064V55.4595H35.027V59.1064Z" fill="#BBCDE0"/>
<g style="mix-blend-mode:multiply" opacity="0.6">
<path d="M39.8919 58.3782C39.8919 58.9156 40.3275 59.3512 40.8649 59.3512C41.4023 59.3512 41.8379 58.9156 41.8379 58.3782C41.8379 57.8409 41.4023 57.4053 40.8649 57.4053C40.6068 57.4053 40.3594 57.5078 40.1769 57.6903C39.9944 57.8727 39.8919 58.1202 39.8919 58.3782Z" fill="#BBCDE0"/>
</g>
<path d="M50.0882 39.892L52.5405 44.7568L48.6486 42.0585L50.0882 39.892Z" fill="#A7BED6"/>
<g style="mix-blend-mode:multiply" opacity="0.6">
<path d="M14.2682 66.2265L15.121 66.5257C16.8014 58.4954 20.4451 51.0134 25.7223 44.7568L25.8397 44.9852V44.8356L28.6876 47.3313L32.0283 46.174C32.5291 52.5747 33.4288 63.6599 33.8357 66.2265C34.4303 69.8954 35.0249 71.7376 35.909 80.3035C36.175 82.8543 36.6366 87.8143 36.973 91.4595C34.8829 91.3312 32.8116 90.9856 30.7922 90.4282L29.2274 74.4696L28.7032 76.7134L12.6487 71.47L14.2682 66.2265Z" fill="#BBCDE0"/>
</g>
<g style="mix-blend-mode:multiply" opacity="0.4">
<path d="M27.2432 75.8919L15.5676 74.2072C15.6202 73.4897 15.6954 72.7487 15.7782 72L27.2432 75.8919Z" fill="#C9887E"/>
</g>
<g style="mix-blend-mode:multiply" opacity="0.4">
<path d="M71.9238 74.1859C73.47 76.1803 78.982 83.3287 80.2112 83.6728C85.2671 85.0806 95.7964 64.2767 97.2885 62.9002C98.7805 61.5237 98.7109 59.2243 105.081 60.9293L100.334 61.5862L96.7087 67.7414C92.7351 73.5446 91.5754 78.3232 87.339 84.1108C86.5096 84.991 85.6182 85.8091 84.6719 86.5588C83.636 87.3741 82.312 87.7176 81.0161 87.507C79.7203 87.2964 78.5692 86.5507 77.8378 85.4482C77.8378 85.4482 74.2276 80.2472 71.027 74.6474L71.9238 74.1859Z" fill="#C9887E"/>
</g>
<g style="mix-blend-mode:multiply" opacity="0.4">
<path d="M36.5663 18.5835L38.1048 15.4648C38.3061 15.056 38.6081 14.7069 38.9817 14.4513L41.8972 12.2448C42.3073 11.9196 42.8017 11.7219 43.3204 11.6757H45.4435C45.9018 11.7301 46.3515 11.8427 46.782 12.0109L48.6898 12.6035C49.9263 12.9525 50.9047 13.9119 51.2898 15.153L52.6899 19.5892C52.9664 20.5127 52.8951 21.5072 52.4899 22.3804L51.8899 23.6513C51.8208 23.8075 51.8208 23.9862 51.8899 24.1425L52.4283 25.4991L52.2283 26.4035C51.9008 27.7929 52.3705 29.2511 53.4438 30.1771L57.4054 33.6232L54.1284 34.2079L49.6821 32.8357C49.4629 32.7547 49.2173 32.8098 49.0523 32.977C48.8873 33.1442 48.8329 33.3932 48.9128 33.6154L52.5591 44.7567L43.9127 41.755L41.4741 29.9587L39.2587 29.1791L36.4894 23.1601C35.8109 21.7055 35.8393 20.0137 36.5663 18.5835Z" fill="#C9887E"/>
</g>
<path d="M47.0303 44.6127C46.9768 44.6873 46.8944 44.7377 46.8019 44.7524C46.7094 44.7671 46.6147 44.7448 46.5395 44.6906L36.9729 37.8652L40.0867 33.0812L50.5946 39.4936L47.0303 44.6127Z" fill="#BBCDE0"/>
<path d="M33.223 18.4581C32.7962 16.0545 33.3406 13.5794 34.7362 11.5782C36.1318 9.57705 38.2641 8.21398 40.6633 7.78935L45.4304 6.95319C50.4289 6.06713 55.1983 9.40812 56.0847 14.4167L56.4324 16.3677L33.563 20.4324L33.223 18.4581Z" fill="#BBCDE0"/>
<path d="M63.2433 15.5675L34.0541 20.4324" stroke="#A7BED6"/>
<path d="M53.0955 10.7026C52.4849 11.5898 52.3695 12.7462 52.7921 13.7449C53.2146 14.7435 54.1123 15.4363 55.1538 15.5675L56.4324 15.3324" stroke="#A7BED6"/>
<path d="M54.4865 11.6757C54.925 12.5636 55.254 13.5506 55.4594 14.5946" stroke="#A7BED6"/>
<path d="M63.2433 15.5675L34.0541 20.4324" stroke="#A7BED6"/>
<g style="mix-blend-mode:multiply" opacity="0.6">
<path d="M40.6868 8.33741L43.7867 7.78381C47.8031 9.88572 50.662 13.699 51.5675 18.1618L33.557 21.4054L33.2237 19.0663C32.3367 14.0261 35.6776 9.21634 40.6868 8.32182V8.33741Z" fill="#BBCDE0"/>
</g>
<g style="mix-blend-mode:multiply" opacity="0.6">
<path d="M49.6228 82.9032C49.6111 83.1097 49.687 83.3117 49.8328 83.4623C49.9833 83.6117 50.1938 83.689 50.4084 83.6739L60.5195 83.0166C60.9178 83.0189 61.2535 82.7287 61.2973 82.3442V76.723C61.2886 76.296 60.9563 75.941 60.5195 75.892H50.9217C50.5279 75.9143 50.2136 76.2196 50.1906 76.6022L49.6228 82.9032Z" fill="#BBCDE0"/>
</g>
<rect x="50.5946" y="75.892" width="10.7027" height="7.78378" rx="0.95" fill="#084E8A"/>
<rect x="52.5405" y="76.8647" width="2.91892" height="2.91892" fill="white"/>
<path d="M60.3243 78.3243H56.4324" stroke="white"/>
<path d="M60.3243 79.2973H56.4324" stroke="white"/>
<path d="M60.3243 81.2433H56.4324" stroke="white"/>
<rect x="55.4595" y="75.892" width="0.972973" height="0.972973" fill="#012C30"/>
<g style="mix-blend-mode:multiply" opacity="0.6">
<path d="M29.1159 54.4865C29.1159 54.4865 31.3099 66.6254 29.3436 70.8153L29.6397 71.8528L28.1897 76.8648L25.2973 75.9071L29.1159 54.4865Z" fill="#BBCDE0"/>
</g>
<path d="M68.5029 215.027L94.3783 212.951L68.1081 210.162L68.5029 215.027Z" fill="#FED980"/>
<path d="M62.2702 203.351L94.3783 213.081L68.1144 210.135L62.2702 203.351Z" fill="#FED980"/>
<path d="M71.027 201.405L94.3784 213.081L72.42 206.48L71.027 201.405Z" fill="#E9BB66"/>
<g style="mix-blend-mode:multiply" opacity="0.4">
<path d="M172.04 239.132C168.77 233.2 166.157 226.926 164.248 220.422C164.187 220.199 164.115 219.98 164.03 219.765C159.247 207.609 145.781 201.396 133.488 205.674C127.43 207.794 121.01 208.672 114.609 208.257C113.947 208.21 113.284 208.187 112.614 208.187C96.0945 208.187 82.7027 221.642 82.7027 238.239C82.7027 254.837 96.0945 268.291 112.614 268.291C114.414 268.289 116.211 268.127 117.983 267.806C124.925 266.547 132.085 267.929 138.069 271.681C147.458 277.541 159.603 276.284 167.606 268.625C175.61 260.965 177.449 248.838 172.079 239.132H172.04Z" fill="#CEDCEA"/>
</g>
<path d="M138.17 233.745C131.446 237.379 124.426 240.406 117.19 242.793L114.362 243.717L112.808 243.964L109.132 242.499C104.713 240.741 100.364 238.8 96.0854 236.676L90.3274 234.238C89.3824 233.842 88.3114 233.919 87.429 234.446L83.8546 236.572L79.643 238.38C79.2856 238.556 78.5396 239.121 78.9126 239.281C79.6119 239.567 82.3782 238.787 82.3782 238.787L87.6466 237.632L91.8349 240.818C96.9172 244.28 102.227 247.378 107.726 250.09L111.082 251.755H111.183L111.277 251.802C113.017 252.44 116.716 251.332 116.716 251.332L118.208 251.046L121.06 250.496C128.11 249.13 134.998 246.994 141.605 244.124C142.112 243.945 142.59 243.693 143.027 243.375L138.512 233.514C138.435 233.665 138.271 233.697 138.17 233.745Z" fill="#F6C7BD"/>
<path d="M143.959 242.179C141.322 242.694 138.767 240.973 138.253 238.337C137.739 235.7 139.459 233.146 142.096 232.631C144.733 232.117 147.287 233.837 147.802 236.474C148.049 237.74 147.783 239.052 147.062 240.122C146.341 241.193 145.225 241.932 143.959 242.179Z" fill="#F7A562"/>
<path d="M140.21 232.045C140.57 231.9 140.943 231.787 141.323 231.71C144.511 231.018 147.691 232.912 148.611 236.051C149.531 239.191 147.879 242.51 144.824 243.659L115.904 252.774C114.855 253.104 113.719 253.021 112.729 252.54L105.081 248.864L106.972 241.629L113.834 243.354L140.21 232.045Z" fill="white"/>
<path d="M105.455 240.324C105.964 240.419 108.973 241.206 108.973 241.206L105.396 250.054L102.162 248.921L105.455 240.324Z" fill="white"/>
<path d="M145.673 225.526C144.442 230.478 139.43 233.496 134.477 232.266C129.524 231.037 126.505 226.025 127.733 221.073C128.962 216.12 133.973 213.1 138.926 214.328C143.88 215.559 146.9 220.571 145.673 225.526Z" fill="#2C2D53"/>
<path d="M123.839 243.243C123.723 244.551 123.88 245.865 124.306 247.135L123.839 243.243Z" fill="white"/>
<path d="M125.231 250.823C127.428 256.198 126.298 262.787 124.883 267.531C129.621 267.791 134.217 269.251 138.245 271.776C141.517 273.829 145.233 275.056 149.077 275.351C157.697 232.908 142.972 227.596 142.972 227.596C140.117 226.186 139.313 226.817 135.591 227.019C132.032 227.237 127.598 233.64 126.198 236.366C125.563 237.589 124.867 238.882 124.194 240.09C123.725 240.953 123.52 241.937 123.606 242.917C123.428 244.864 123.853 247.443 125.231 250.823Z" fill="white"/>
<path d="M123.839 243.243C123.723 244.551 123.88 245.865 124.306 247.135L123.839 243.243Z" fill="white"/>
<path d="M136.924 205.231C136.122 208.422 133.877 210.592 131.88 210.09C129.883 209.588 128.889 206.608 129.675 203.417C130.461 200.227 132.714 198.057 134.711 198.559C136.708 199.061 137.702 202.041 136.924 205.231Z" fill="#2C2D53"/>
<g style="mix-blend-mode:multiply" opacity="0.6">
<path d="M137.031 206.684C136.427 209.055 134.261 210.565 132.203 210.067C130.145 209.569 128.954 207.254 129.566 204.884C130.178 202.513 132.327 201.002 134.394 201.5C136.46 201.999 137.634 204.313 137.031 206.684Z" fill="#F9D0B4"/>
</g>
<path d="M143.647 204.947C142.201 203.314 140.136 202.38 137.968 202.378C135.89 202.399 133.905 203.254 132.451 204.754C130.996 206.255 130.19 208.279 130.211 210.38C130.211 210.945 130.27 211.509 130.388 212.061C129.987 212.715 129.411 213.239 128.725 213.571C128.57 213.643 128.462 213.79 128.44 213.961C128.41 214.133 128.468 214.309 128.594 214.428L129.364 215.206C129.123 216.622 129.058 218.063 129.172 219.495C129.23 220.777 130.133 221.86 131.373 222.134C132.057 222.282 132.796 222.453 133.412 222.608L134.774 222.951L133.843 226.711L141.539 228.649L144.109 218.273L144.294 217.495L145.764 211.501C146.341 209.087 145.522 206.551 143.647 204.947Z" fill="#F6C7BD"/>
<path d="M147.013 200.337L140.143 198.625C138.886 198.321 137.557 198.522 136.454 199.181C135.35 199.841 134.563 200.905 134.27 202.134L136.488 202.664C141.539 203.885 143.59 207.395 141.675 213.332L141.794 214.413C148.936 208.928 142.872 223.486 143.55 223.65C148.784 224.91 153.045 216.989 154.345 211.877C155.068 209.392 154.685 206.725 153.289 204.529C151.894 202.334 149.616 200.812 147.013 200.337Z" fill="#2C2D53"/>
<path d="M133.297 200.432C133.297 200.432 133.84 213.145 143.963 214.001C154.086 214.857 148.055 205.126 148.055 205.126L133.297 200.432Z" fill="#2C2D53"/>
<path d="M128.432 232.541L138.162 229.622" stroke="#DBE7EF"/>
<path d="M137.577 225.73L129.358 227.985L128.432 232.541L138.162 229.798L137.577 225.73Z" fill="white"/>
<path d="M124.556 248.182L113.934 250.201L103.239 246.162L102.162 249.078L105.249 250.201L105.544 249.421L112.179 252.54C113.194 253.021 114.357 253.104 115.433 252.774L125.513 249.655C125.003 248.852 124.556 248.182 124.556 248.182Z" fill="#DBE7EF"/>
<path d="M106.054 249.081L108 243.243L107.383 249.081H106.054Z" fill="#DBE7EF"/>
<path d="M137.189 232.541C138.522 230.78 139.323 229.677 139.372 229.622L140.108 229.999C139.953 230.204 139.29 231.109 138.252 232.493L137.189 232.541Z" fill="#037E8A"/>
<path d="M122.68 244.216H123.561C121.672 248.95 120.132 252.589 118.346 255.357C113.854 262.296 111.64 265.595 110.529 267.137C114.941 264.423 122.934 253.761 129.378 244.463L130.378 244.501C123.053 255.079 113.584 267.631 109.322 268.541L109.203 268.063L108.973 267.831C109.06 267.746 110.068 266.667 117.632 254.925C119.346 252.296 120.838 248.796 122.68 244.216Z" fill="#037E8A"/>
<path d="M144.741 214.449C144.157 213.485 141.914 214.497 140.492 215.252L140.108 218.819C141.153 219.07 142.251 218.845 143.128 218.2C144.657 217.18 145.379 215.501 144.741 214.449Z" fill="#F6C7BD"/>
<path d="M141.081 216C141.39 215.206 142.26 214.821 143.027 215.138L141.081 216Z" fill="#F6C7BD"/>
<path d="M133.322 235.25C134.221 232.903 136.069 231.057 138.4 230.177C140.731 229.298 143.323 229.469 145.521 230.647L145.721 230.756L147.258 231.619C147.258 231.619 151.317 232.715 151.724 243.944C152.016 252.124 151.163 267.575 150.679 275.351C146.265 275.335 141.942 274.075 138.196 271.712C135.775 270.191 133.139 269.052 130.378 268.337L131.039 258.594C129.765 250.745 130.552 242.695 133.322 235.25Z" fill="#A7BED6"/>
<g style="mix-blend-mode:multiply" opacity="0.4">
<path d="M141.118 236.432L150.538 239.97C152.22 247.156 152.117 258.47 150.72 276.324C146.414 275.852 142.245 274.541 138.449 272.464C138.19 271.213 138.09 269.935 138.148 268.659C138.202 267.71 138.326 266.767 138.52 265.836C138.801 264.599 138.83 263.319 138.606 262.07C138.267 260.152 137.777 257.188 137.367 253.737C136.798 248.933 132.274 246.307 130.378 245.403C130.69 243.04 131.189 240.706 131.871 238.421C137.217 237.392 141.118 236.432 141.118 236.432Z" fill="#A7BED6"/>
</g>
<path d="M136.825 233.96C129.258 235.033 121.614 235.437 113.979 235.168L110.96 235.064L109.396 234.755L106.4 232.109C102.811 228.932 99.3614 225.58 95.9983 222.109L91.3603 217.827C90.5988 217.13 89.5593 216.836 88.5525 217.033L84.4543 217.788L79.8711 218.01C79.4722 218.058 78.5727 218.328 78.8699 218.598C79.4409 219.114 82.3191 219.352 82.3191 219.352L87.6922 220.091L90.5782 224.571C94.238 229.582 98.2281 234.335 102.521 238.798L105.149 241.514L105.227 241.594L105.305 241.665C106.737 242.873 110.639 243.135 110.639 243.135L112.141 243.381L115.027 243.858C122.155 245.032 129.386 245.431 136.598 245.049C137.127 245.056 137.654 244.983 138.162 244.835L137.177 234.024C137.06 233.997 136.943 233.976 136.825 233.96Z" fill="#F6C7BD"/>
<path d="M140.297 232.885C140.688 232.867 141.08 232.888 141.467 232.946C144.737 233.372 147.113 236.203 146.906 239.426C146.7 242.65 143.981 245.167 140.682 245.189L110.13 243.913C109.021 243.87 107.971 243.413 107.194 242.638L101.189 236.658L105.467 230.594L111.386 234.499L140.297 232.885Z" fill="white"/>
<path d="M105.15 228.649C105.58 228.898 108 230.528 108 230.528L101.751 237.405L99.2433 235.39L105.15 228.649Z" fill="white"/>
<path d="M101.463 233.514L99.2433 236.21L101.776 238.378L104.108 235.641L101.463 233.514Z" fill="#DBE7EF"/>
<path d="M121.622 267.43C123.2 264.162 125.468 253.946 125.468 253.946L126.486 257.597L126.036 267.568C124.571 267.391 123.094 267.345 121.622 267.43Z" fill="#A7BED6"/>
<path d="M111.133 276.948C111.013 277.125 110.829 277.245 110.62 277.283C110.412 277.324 110.195 277.278 110.021 277.155L101.536 271.298C101.361 271.179 101.241 270.993 101.202 270.784C101.164 270.574 101.21 270.357 101.331 270.183L104.84 265.003C104.958 264.824 105.143 264.701 105.353 264.662C105.562 264.623 105.778 264.671 105.952 264.796L114.46 270.653C114.637 270.772 114.759 270.959 114.798 271.171C114.836 271.382 114.789 271.601 114.665 271.776L111.133 276.948Z" fill="#084E8A"/>
<path d="M105.081 267.568L108.973 269.513" stroke="white"/>
<path d="M104.108 268.541L108 270.486" stroke="white"/>
<path d="M103.135 270.486L107.027 272.432" stroke="white"/>
<path d="M108.672 272.418L110.167 270.242L112.343 271.737L110.849 273.913L108.672 272.418Z" fill="white"/>
<path d="M110.07 266.594L108.973 268.098L110.74 269.513L111.892 268.203L110.07 266.594Z" fill="#037E8A"/>
<g style="mix-blend-mode:multiply" opacity="0.4">
<path d="M104.108 245.37C101.765 244.028 89.3091 237.034 87.5676 237.421L91.7769 240.452C95.5434 242.871 99.435 245.102 103.437 247.135L104.108 245.37Z" fill="#F6C7BD"/>
</g>
<g style="mix-blend-mode:multiply" opacity="0.4">
<path d="M88.5405 219.892L91.4252 224.215C94.1196 227.792 96.986 231.216 100.024 234.486L101.189 233.107C99.3052 230.34 88.5405 219.892 88.5405 219.892Z" fill="#F6C7BD"/>
</g>
<path d="M214.054 140.108H217.213C241.631 140.108 261.73 120.253 261.73 95.8672V87.5676" stroke="#FDB04E" stroke-width="2" stroke-dasharray="4"/>
<path d="M108.973 53.5135C117.125 44.0559 128.98 36.6249 143.123 33.1781C151.032 31.2137 159.24 30.6598 167.351 31.543" stroke="#FDB04E" stroke-width="1.5" stroke-dasharray="4"/>
<path d="M60.1258 207.243C60.1258 207.243 44.4348 205.726 42.8108 186.716V175.091C44.4662 155.315 70.1366 154.486 70.1366 154.486C90.4408 154.705 103.135 138.308 103.135 122.185C103.135 122.185 103.205 110.091 101.205 100.359L100.256 97.6444C96.7993 87.7396 96.9548 76.937 100.695 67.1351" stroke="#E9BB66" stroke-width="2" stroke-dasharray="4"/>
<path d="M101.37 238.034L101.189 237.771L105.123 233.514C105.123 233.514 103.911 240.316 104.336 240.316C112.525 243.485 141.057 236.915 141.057 236.915L145.895 238.604C145.963 239.103 145.963 239.608 145.895 240.106C145.43 242.967 142.893 245.104 139.861 245.189L109.252 243.935C108.115 243.891 107.035 243.444 106.224 242.681L101.37 238.034Z" fill="#EEF5FB"/>
<path d="M155.691 233.698C154.719 231.822 154.466 229.659 154.98 227.611C155.548 225.344 155.224 222.947 154.073 220.91C152.815 218.664 152.61 215.982 153.51 213.571C153.717 213.021 153.894 212.459 154.041 211.89C154.653 209.437 154.26 206.842 152.949 204.677C151.638 202.513 149.517 200.955 147.052 200.348L140.118 198.628C137.53 197.992 134.913 199.562 134.27 202.138L136.389 202.667C141.338 203.889 141.791 206.652 139.915 212.591L140.274 215.626C144.488 212.233 144.902 213.711 144.699 215.626C144.582 216.731 143.836 217.669 142.784 218.039C140.167 218.917 138.218 221.118 137.671 223.813C136.709 227.705 137.671 230.919 140.798 233.028C140.298 233.81 139.926 234.667 139.696 235.565C138.789 239.252 140.429 243.093 143.725 245.001C147.02 246.91 151.185 246.43 153.955 243.823C156.726 241.216 157.442 237.104 155.714 233.721L155.691 233.698Z" fill="#2C2D53"/>
<g style="mix-blend-mode:multiply" opacity="0.4">
<path d="M130.378 221.881C130.593 221.993 130.82 222.077 131.056 222.131C131.748 222.279 132.496 222.45 133.118 222.606L134.496 222.949L133.554 226.716H133.601L137.104 225.686C136.762 228.556 138.078 231.372 140.497 232.946C139.999 233.73 139.629 234.588 139.4 235.489C138.662 238.423 139.522 241.531 141.664 243.666C143.806 245.8 146.912 246.646 149.838 245.891C138.435 245.891 142.661 233.469 142.661 233.469C141.597 232.192 141.119 230.524 141.346 228.876V228.658L142.404 224.4L143.961 218.271L144.148 217.491L145.635 211.486C146.216 209.071 145.387 206.533 143.494 204.928C142.12 203.409 140.205 202.493 138.162 202.378C135.438 205.264 132.387 209.467 133.679 212.859L132.612 214.754L132.9 217.389C132.9 217.389 133.609 219.167 133.398 219.651C133.188 220.134 130.378 221.881 130.378 221.881Z" fill="#F6C7BD"/>
</g>
<g style="mix-blend-mode:multiply" opacity="0.4">
<path d="M135.53 246.162L135.423 247.135H136.036L135.53 246.162Z" fill="#F6C7BD"/>
</g>
<defs>
<linearGradient id="paint0_linear" x1="38.5356" y1="19.8946" x2="38.6202" y2="26.723" gradientUnits="userSpaceOnUse">
<stop stop-color="#161A1D"/>
<stop offset="1" stop-color="#331177" stop-opacity="0.01"/>
</linearGradient>
<linearGradient id="paint1_linear" x1="38.3012" y1="26.8156" x2="38.3197" y2="26.8097" gradientUnits="userSpaceOnUse">
<stop stop-color="#161A1D"/>
<stop offset="1" stop-color="#331177" stop-opacity="0.01"/>
</linearGradient>
</defs>
</svg>
