<svg width="48" height="48" viewBox="0 0 48 48" fill="none" xmlns="http://www.w3.org/2000/svg">
<mask id="path-1-inside-1_4201_63211" fill="white">
<path fill-rule="evenodd" clip-rule="evenodd" d="M40.3374 27.9084C40.488 28.1343 40.7357 28.2565 40.9882 28.2565C41.1371 28.2563 41.2876 28.2138 41.4208 28.1248C43.0366 27.0478 44.0013 25.2453 44.0013 23.3033V15.0138C44.0013 14.4164 43.6741 13.8702 43.1474 13.5881C42.6205 13.3062 41.9844 13.3372 41.4876 13.6686L39.8129 14.785C39.4538 15.0244 39.3568 15.5094 39.5961 15.8684C39.8356 16.2275 40.3205 16.3245 40.6796 16.0851L42.3543 14.9688C42.3658 14.9611 42.3818 14.9506 42.41 14.9659C42.4388 14.9813 42.4388 15.0002 42.4388 15.0139V23.3034C42.4388 24.7217 41.7343 26.0382 40.5541 26.825C40.1951 27.0643 40.0981 27.5493 40.3374 27.9084ZM6.58044 28.1253C6.71359 28.2142 6.8642 28.2567 7.0131 28.2567C7.26545 28.2567 7.51326 28.1344 7.66391 27.9089C7.90311 27.5499 7.80621 27.0649 7.44716 26.8255C6.26702 26.0387 5.56249 24.7222 5.56249 23.304V15.0145V15.0145C5.56249 15.0007 5.56249 14.9816 5.59124 14.9665C5.61985 14.9514 5.63547 14.9617 5.64686 14.9692L5.64703 14.9693L7.3217 16.0857C7.68076 16.3252 8.16577 16.2282 8.40512 15.869C8.64437 15.5099 8.54732 15.0248 8.18842 14.7855L6.51389 13.6691C6.01655 13.3377 5.38061 13.3066 4.85405 13.5887C4.32718 13.8705 4 14.4168 4 15.0143V23.3038C4 25.2456 4.96469 27.048 6.58044 28.1253Z"/>
</mask>
<path fill-rule="evenodd" clip-rule="evenodd" d="M40.3374 27.9084C40.488 28.1343 40.7357 28.2565 40.9882 28.2565C41.1371 28.2563 41.2876 28.2138 41.4208 28.1248C43.0366 27.0478 44.0013 25.2453 44.0013 23.3033V15.0138C44.0013 14.4164 43.6741 13.8702 43.1474 13.5881C42.6205 13.3062 41.9844 13.3372 41.4876 13.6686L39.8129 14.785C39.4538 15.0244 39.3568 15.5094 39.5961 15.8684C39.8356 16.2275 40.3205 16.3245 40.6796 16.0851L42.3543 14.9688C42.3658 14.9611 42.3818 14.9506 42.41 14.9659C42.4388 14.9813 42.4388 15.0002 42.4388 15.0139V23.3034C42.4388 24.7217 41.7343 26.0382 40.5541 26.825C40.1951 27.0643 40.0981 27.5493 40.3374 27.9084ZM6.58044 28.1253C6.71359 28.2142 6.8642 28.2567 7.0131 28.2567C7.26545 28.2567 7.51326 28.1344 7.66391 27.9089C7.90311 27.5499 7.80621 27.0649 7.44716 26.8255C6.26702 26.0387 5.56249 24.7222 5.56249 23.304V15.0145V15.0145C5.56249 15.0007 5.56249 14.9816 5.59124 14.9665C5.61985 14.9514 5.63547 14.9617 5.64686 14.9692L5.64703 14.9693L7.3217 16.0857C7.68076 16.3252 8.16577 16.2282 8.40512 15.869C8.64437 15.5099 8.54732 15.0248 8.18842 14.7855L6.51389 13.6691C6.01655 13.3377 5.38061 13.3066 4.85405 13.5887C4.32718 13.8705 4 14.4168 4 15.0143V23.3038C4 25.2456 4.96469 27.048 6.58044 28.1253Z" fill="url(#paint0_linear_4201_63211)"/>
<path d="M40.9882 28.2565L40.9882 28.5565L40.9885 28.5565L40.9882 28.2565ZM40.3374 27.9084L40.587 27.742L40.587 27.742L40.3374 27.9084ZM41.4208 28.1248L41.2544 27.8752L41.2541 27.8754L41.4208 28.1248ZM43.1474 13.5881L43.289 13.3237L43.2889 13.3236L43.1474 13.5881ZM41.4876 13.6686L41.654 13.9182L41.654 13.9182L41.4876 13.6686ZM39.8129 14.785L39.9793 15.0346L39.9793 15.0346L39.8129 14.785ZM39.5961 15.8684L39.3465 16.0348L39.3465 16.0349L39.5961 15.8684ZM40.6796 16.0851L40.5132 15.8355L40.5131 15.8355L40.6796 16.0851ZM42.3543 14.9688L42.1886 14.7187L42.1879 14.7191L42.3543 14.9688ZM42.41 14.9659L42.2672 15.2297L42.2688 15.2306L42.41 14.9659ZM40.5541 26.825L40.3877 26.5753L40.3877 26.5753L40.5541 26.825ZM6.58044 28.1253L6.74702 27.8758L6.74687 27.8757L6.58044 28.1253ZM7.66391 27.9089L7.91334 28.0756L7.91358 28.0753L7.66391 27.9089ZM7.44716 26.8255L7.61358 26.5759L7.61356 26.5758L7.44716 26.8255ZM5.59124 14.9665L5.73109 15.2319L5.73109 15.2319L5.59124 14.9665ZM5.64686 14.9692L5.48201 15.2198L5.48206 15.2198L5.64686 14.9692ZM5.64703 14.9693L5.81344 14.7196L5.81183 14.7186L5.64703 14.9693ZM7.3217 16.0857L7.4882 15.8361L7.48811 15.8361L7.3217 16.0857ZM8.40512 15.869L8.65477 16.0353L8.65477 16.0353L8.40512 15.869ZM8.18842 14.7855L8.02201 15.0351L8.02201 15.0351L8.18842 14.7855ZM6.51389 13.6691L6.6803 13.4195L6.68025 13.4195L6.51389 13.6691ZM4.85405 13.5887L4.99556 13.8532L4.9957 13.8531L4.85405 13.5887ZM40.9882 27.9565C40.8318 27.9565 40.6797 27.881 40.587 27.742L40.0878 28.0748C40.2963 28.3877 40.6396 28.5565 40.9882 28.5565V27.9565ZM41.2541 27.8754C41.1718 27.9304 41.0796 27.9564 40.9879 27.9565L40.9885 28.5565C41.1947 28.5563 41.4034 28.4973 41.5875 28.3742L41.2541 27.8754ZM43.7013 23.3033C43.7013 25.145 42.7867 26.8538 41.2544 27.8752L41.5872 28.3744C43.2865 27.2417 44.3013 25.3456 44.3013 23.3033H43.7013ZM43.7013 15.0138V23.3033H44.3013V15.0138H43.7013ZM43.0058 13.8526C43.435 14.0824 43.7013 14.5271 43.7013 15.0138H44.3013C44.3013 14.3058 43.9132 13.6579 43.289 13.3237L43.0058 13.8526ZM41.654 13.9182C42.0589 13.6482 42.5766 13.623 43.0059 13.8527L43.2889 13.3236C42.6645 12.9895 41.91 13.0262 41.3211 13.419L41.654 13.9182ZM39.9793 15.0346L41.654 13.9182L41.3212 13.419L39.6465 14.5354L39.9793 15.0346ZM39.8458 15.702C39.6983 15.4808 39.7581 15.1821 39.9793 15.0346L39.6465 14.5354C39.1495 14.8667 39.0153 15.5379 39.3465 16.0348L39.8458 15.702ZM40.5131 15.8355C40.292 15.983 39.9933 15.9233 39.8458 15.702L39.3465 16.0349C39.6778 16.5317 40.349 16.6661 40.846 16.3347L40.5131 15.8355ZM42.1879 14.7191L40.5132 15.8355L40.846 16.3348L42.5207 15.2184L42.1879 14.7191ZM42.5529 14.7021C42.4889 14.6675 42.4084 14.6475 42.321 14.6638C42.2448 14.678 42.1915 14.7168 42.1886 14.7187L42.52 15.2189C42.5287 15.2131 42.4891 15.2428 42.4308 15.2537C42.3613 15.2666 42.3029 15.2491 42.2672 15.2297L42.5529 14.7021ZM42.7388 15.0139C42.7388 15.0108 42.7418 14.9441 42.7108 14.8721C42.6756 14.79 42.6142 14.7348 42.5513 14.7013L42.2688 15.2306C42.2347 15.2124 42.1876 15.1743 42.1596 15.109C42.1358 15.0537 42.1388 15.0033 42.1388 15.0139H42.7388ZM42.7388 23.3034V15.0139H42.1388V23.3034H42.7388ZM40.7205 27.0746C41.9842 26.2322 42.7388 24.822 42.7388 23.3034H42.1388C42.1388 24.6214 41.4844 25.8443 40.3877 26.5753L40.7205 27.0746ZM40.587 27.742C40.4396 27.5208 40.4993 27.222 40.7205 27.0746L40.3877 26.5753C39.8908 26.9066 39.7565 27.5779 40.0878 28.0748L40.587 27.742ZM7.0131 27.9567C6.92157 27.9567 6.82928 27.9307 6.74702 27.8758L6.41386 28.3748C6.59791 28.4977 6.80683 28.5567 7.0131 28.5567V27.9567ZM7.41447 27.7422C7.32169 27.8811 7.16929 27.9567 7.0131 27.9567V28.5567C7.36161 28.5567 7.70482 28.3877 7.91334 28.0756L7.41447 27.7422ZM7.28073 27.0751C7.5019 27.2225 7.56166 27.5213 7.41424 27.7426L7.91358 28.0753C8.24457 27.5784 8.11052 26.9072 7.61358 26.5759L7.28073 27.0751ZM5.26249 23.304C5.26249 24.8225 6.01715 26.2327 7.28075 27.0751L7.61356 26.5758C6.5169 25.8448 5.86249 24.6219 5.86249 23.304H5.26249ZM5.26249 15.0145V23.304H5.86249V15.0145H5.26249ZM5.26249 15.0145V15.0145H5.86249V15.0145H5.26249ZM5.45138 14.7011C5.38739 14.7348 5.32561 14.7905 5.29033 14.8728C5.2595 14.9448 5.26249 15.0114 5.26249 15.0145H5.86249C5.86249 15.0038 5.86548 15.054 5.84184 15.1091C5.81374 15.1747 5.76634 15.2133 5.73109 15.2319L5.45138 14.7011ZM5.81171 14.7185C5.80894 14.7167 5.75551 14.6781 5.67921 14.6642C5.5927 14.6485 5.51375 14.6682 5.45138 14.7011L5.73109 15.2319C5.69734 15.2497 5.64049 15.267 5.5718 15.2545C5.51331 15.2439 5.47339 15.2141 5.48201 15.2198L5.81171 14.7185ZM5.81183 14.7186L5.81166 14.7185L5.48206 15.2198L5.48222 15.2199L5.81183 14.7186ZM7.48811 15.8361L5.81343 14.7197L5.48062 15.2189L7.1553 16.3353L7.48811 15.8361ZM8.15547 15.7026C8.00799 15.9239 7.70932 15.9837 7.4882 15.8361L7.1552 16.3352C7.65219 16.6668 8.32354 16.5324 8.65477 16.0353L8.15547 15.7026ZM8.02201 15.0351C8.24303 15.1825 8.30289 15.4814 8.15547 15.7026L8.65477 16.0353C8.98585 15.5385 8.85162 14.8671 8.35482 14.5359L8.02201 15.0351ZM6.34748 13.9188L8.02201 15.0351L8.35483 14.5359L6.6803 13.4195L6.34748 13.9188ZM4.9957 13.8531C5.4245 13.6235 5.94207 13.6486 6.34753 13.9188L6.68025 13.4195C6.09103 13.0269 5.33672 12.9898 4.71239 13.3242L4.9957 13.8531ZM4.3 15.0143C4.3 14.5274 4.56629 14.0829 4.99556 13.8532L4.71254 13.3242C4.08806 13.6582 3.7 14.3062 3.7 15.0143H4.3ZM4.3 23.3038V15.0143H3.7V23.3038H4.3ZM6.74687 27.8757C5.21454 26.854 4.3 25.1453 4.3 23.3038H3.7C3.7 25.346 4.71483 27.2419 6.41401 28.3749L6.74687 27.8757Z" fill="white" mask="url(#path-1-inside-1_4201_63211)"/>
<mask id="path-3-inside-2_4201_63211" fill="white">
<path fill-rule="evenodd" clip-rule="evenodd" d="M17.6337 35.7378C19.5471 36.976 21.7479 37.6303 23.998 37.6303C26.2482 37.6303 28.4488 36.9758 30.3624 35.7378L38.6275 30.3898C38.8501 30.2457 38.9844 29.9988 38.9844 29.7339V16.5909C38.9844 16.1593 38.6347 15.8097 38.2031 15.8097C35.539 15.8097 31.6816 14.4269 27.3415 11.9163C26.3053 11.3169 25.1491 11 23.998 11C22.8469 11 21.6909 11.3169 20.6545 11.9163C16.3145 14.4269 12.4572 15.8097 9.79293 15.8097C9.36157 15.8097 9.01172 16.1593 9.01172 16.5909V29.7339C9.01172 29.9988 9.14607 30.2457 9.36857 30.3898L17.6337 35.7378ZM18.4824 34.4258L10.5742 29.3088V17.3417C14.1815 17.0695 18.4215 15.0131 21.4368 13.2687C22.2357 12.8066 23.1213 12.5623 23.998 12.5623C24.8749 12.5623 25.7604 12.8067 26.5591 13.2687C29.5742 15.013 33.8147 17.0692 37.4219 17.3417V29.3088L29.5136 34.4258C27.8535 35.5 25.9463 36.0679 23.998 36.0679C22.0498 36.0679 20.1426 35.5 18.4824 34.4258ZM15.5238 19.8764C15.6291 20.2095 15.9368 20.4226 16.2686 20.4225C16.3466 20.4225 16.426 20.4108 16.5042 20.3861C16.5477 20.3723 20.8905 19.0123 23.9981 19.0123C27.1011 19.0123 31.4489 20.3725 31.4923 20.3862C31.9028 20.5151 32.3425 20.2878 32.4723 19.8762C32.6021 19.4649 32.374 19.026 31.9626 18.8962C31.7754 18.8371 27.3439 17.4498 23.998 17.4498C20.652 17.4498 16.2205 18.8371 16.0335 18.8962C15.6221 19.026 15.3938 19.4648 15.5238 19.8764ZM23.9981 30.6844C20.652 30.6844 16.2206 29.297 16.0336 29.238C15.6222 29.1081 15.394 28.6693 15.5239 28.258C15.6536 27.8465 16.0922 27.6186 16.5039 27.748C16.5475 27.7618 20.895 29.1219 23.9979 29.1219C27.1056 29.1219 31.4485 27.7619 31.4919 27.7482C31.904 27.6182 32.3424 27.8466 32.4721 28.2579C32.6021 28.6694 32.3738 29.1081 31.9624 29.238C31.7755 29.297 27.344 30.6844 23.9981 30.6844ZM16.4765 25.0957H31.5173C31.9488 25.0957 32.2985 24.746 32.2985 24.3145C32.2985 23.8829 31.9488 23.5332 31.5173 23.5332H16.4765C16.0451 23.5332 15.6953 23.8829 15.6953 24.3145C15.6953 24.746 16.0451 25.0957 16.4765 25.0957Z"/>
</mask>
<path fill-rule="evenodd" clip-rule="evenodd" d="M17.6337 35.7378C19.5471 36.976 21.7479 37.6303 23.998 37.6303C26.2482 37.6303 28.4488 36.9758 30.3624 35.7378L38.6275 30.3898C38.8501 30.2457 38.9844 29.9988 38.9844 29.7339V16.5909C38.9844 16.1593 38.6347 15.8097 38.2031 15.8097C35.539 15.8097 31.6816 14.4269 27.3415 11.9163C26.3053 11.3169 25.1491 11 23.998 11C22.8469 11 21.6909 11.3169 20.6545 11.9163C16.3145 14.4269 12.4572 15.8097 9.79293 15.8097C9.36157 15.8097 9.01172 16.1593 9.01172 16.5909V29.7339C9.01172 29.9988 9.14607 30.2457 9.36857 30.3898L17.6337 35.7378ZM18.4824 34.4258L10.5742 29.3088V17.3417C14.1815 17.0695 18.4215 15.0131 21.4368 13.2687C22.2357 12.8066 23.1213 12.5623 23.998 12.5623C24.8749 12.5623 25.7604 12.8067 26.5591 13.2687C29.5742 15.013 33.8147 17.0692 37.4219 17.3417V29.3088L29.5136 34.4258C27.8535 35.5 25.9463 36.0679 23.998 36.0679C22.0498 36.0679 20.1426 35.5 18.4824 34.4258ZM15.5238 19.8764C15.6291 20.2095 15.9368 20.4226 16.2686 20.4225C16.3466 20.4225 16.426 20.4108 16.5042 20.3861C16.5477 20.3723 20.8905 19.0123 23.9981 19.0123C27.1011 19.0123 31.4489 20.3725 31.4923 20.3862C31.9028 20.5151 32.3425 20.2878 32.4723 19.8762C32.6021 19.4649 32.374 19.026 31.9626 18.8962C31.7754 18.8371 27.3439 17.4498 23.998 17.4498C20.652 17.4498 16.2205 18.8371 16.0335 18.8962C15.6221 19.026 15.3938 19.4648 15.5238 19.8764ZM23.9981 30.6844C20.652 30.6844 16.2206 29.297 16.0336 29.238C15.6222 29.1081 15.394 28.6693 15.5239 28.258C15.6536 27.8465 16.0922 27.6186 16.5039 27.748C16.5475 27.7618 20.895 29.1219 23.9979 29.1219C27.1056 29.1219 31.4485 27.7619 31.4919 27.7482C31.904 27.6182 32.3424 27.8466 32.4721 28.2579C32.6021 28.6694 32.3738 29.1081 31.9624 29.238C31.7755 29.297 27.344 30.6844 23.9981 30.6844ZM16.4765 25.0957H31.5173C31.9488 25.0957 32.2985 24.746 32.2985 24.3145C32.2985 23.8829 31.9488 23.5332 31.5173 23.5332H16.4765C16.0451 23.5332 15.6953 23.8829 15.6953 24.3145C15.6953 24.746 16.0451 25.0957 16.4765 25.0957Z" fill="#313840"/>
<path d="M17.6337 35.7378L17.4707 35.9897L17.4707 35.9897L17.6337 35.7378ZM30.3624 35.7378L30.5253 35.9897L30.5253 35.9897L30.3624 35.7378ZM38.6275 30.3898L38.4645 30.1379L38.4645 30.1379L38.6275 30.3898ZM27.3415 11.9163L27.1912 12.1759L27.1912 12.1759L27.3415 11.9163ZM20.6545 11.9163L20.5043 11.6566L20.5042 11.6566L20.6545 11.9163ZM9.36857 30.3898L9.20554 30.6416L9.2056 30.6416L9.36857 30.3898ZM10.5742 29.3088H10.2742V29.472L10.4112 29.5607L10.5742 29.3088ZM18.4824 34.4258L18.3194 34.6777L18.3194 34.6777L18.4824 34.4258ZM10.5742 17.3417L10.5516 17.0426L10.2742 17.0635V17.3417H10.5742ZM21.4368 13.2687L21.587 13.5284L21.587 13.5284L21.4368 13.2687ZM26.5591 13.2687L26.7093 13.0091L26.7093 13.0091L26.5591 13.2687ZM37.4219 17.3417H37.7219V17.0635L37.4445 17.0426L37.4219 17.3417ZM37.4219 29.3088L37.5848 29.5607L37.7219 29.472V29.3088H37.4219ZM29.5136 34.4258L29.6766 34.6777L29.6766 34.6777L29.5136 34.4258ZM16.2686 20.4225L16.2686 20.1225L16.2685 20.1225L16.2686 20.4225ZM15.5238 19.8764L15.2377 19.9667L15.2378 19.9668L15.5238 19.8764ZM16.5042 20.3861L16.5945 20.6721L16.5947 20.6721L16.5042 20.3861ZM31.4923 20.3862L31.4018 20.6722L31.4024 20.6724L31.4923 20.3862ZM32.4723 19.8762L32.1862 19.7859L32.1862 19.786L32.4723 19.8762ZM31.9626 18.8962L31.8723 19.1823L31.8724 19.1823L31.9626 18.8962ZM16.0335 18.8962L16.1237 19.1823L16.1239 19.1823L16.0335 18.8962ZM16.0336 29.238L16.1239 28.9519L16.1239 28.9519L16.0336 29.238ZM15.5239 28.258L15.8099 28.3483L15.81 28.3482L15.5239 28.258ZM16.5039 27.748L16.5941 27.4619L16.5938 27.4618L16.5039 27.748ZM31.4919 27.7482L31.4017 27.4621L31.4013 27.4622L31.4919 27.7482ZM32.4721 28.2579L32.186 28.3481L32.186 28.3482L32.4721 28.2579ZM31.9624 29.238L31.8721 28.9519L31.872 28.9519L31.9624 29.238ZM23.998 37.3303C21.8065 37.3303 19.6622 36.6931 17.7966 35.486L17.4707 35.9897C19.432 37.2588 21.6893 37.9303 23.998 37.9303V37.3303ZM30.1994 35.486C28.3337 36.693 26.1896 37.3303 23.998 37.3303V37.9303C26.3068 37.9303 28.5639 37.2587 30.5253 35.9897L30.1994 35.486ZM38.4645 30.1379L30.1994 35.486L30.5253 35.9897L38.7905 30.6416L38.4645 30.1379ZM38.6844 29.7339C38.6844 29.8971 38.6017 30.0491 38.4645 30.1379L38.7905 30.6416C39.0986 30.4423 39.2844 30.1005 39.2844 29.7339H38.6844ZM38.6844 16.5909V29.7339H39.2844V16.5909H38.6844ZM38.2031 16.1097C38.469 16.1097 38.6844 16.325 38.6844 16.5909H39.2844C39.2844 15.9936 38.8004 15.5097 38.2031 15.5097V16.1097ZM27.1912 12.1759C31.5432 14.6934 35.4576 16.1097 38.2031 16.1097V15.5097C35.6205 15.5097 31.82 14.1603 27.4917 11.6566L27.1912 12.1759ZM23.998 11.3C25.0942 11.3 26.1989 11.6018 27.1912 12.1759L27.4917 11.6566C26.4118 11.0319 25.204 10.7 23.998 10.7V11.3ZM20.8046 12.176C21.7973 11.6018 22.9019 11.3 23.998 11.3V10.7C22.792 10.7 21.5844 11.0319 20.5043 11.6566L20.8046 12.176ZM9.79293 16.1097C12.5387 16.1097 16.4529 14.6934 20.8047 12.1759L20.5042 11.6566C16.1761 14.1603 12.3757 15.5097 9.79293 15.5097V16.1097ZM9.31172 16.5909C9.31172 16.3251 9.52721 16.1097 9.79293 16.1097V15.5097C9.19594 15.5097 8.71172 15.9936 8.71172 16.5909H9.31172ZM9.31172 29.7339V16.5909H8.71172V29.7339H9.31172ZM9.53161 30.1379C9.39445 30.0491 9.31172 29.897 9.31172 29.7339H8.71172C8.71172 30.1006 8.8977 30.4423 9.20554 30.6416L9.53161 30.1379ZM17.7966 35.486L9.53155 30.1379L9.2056 30.6416L17.4707 35.9897L17.7966 35.486ZM10.4112 29.5607L18.3194 34.6777L18.6454 34.174L10.7372 29.0569L10.4112 29.5607ZM10.2742 17.3417V29.3088H10.8742V17.3417H10.2742ZM21.2866 13.0091C18.2743 14.7517 14.0855 16.7759 10.5516 17.0426L10.5968 17.6409C14.2775 17.3631 18.5688 15.2745 21.587 13.5284L21.2866 13.0091ZM23.998 12.2623C23.0657 12.2623 22.1286 12.5219 21.2866 13.0091L21.587 13.5284C22.3427 13.0912 23.1769 12.8623 23.998 12.8623V12.2623ZM26.7093 13.0091C25.8675 12.5221 24.9305 12.2623 23.998 12.2623V12.8623C24.8193 12.8623 25.6533 13.0914 26.4089 13.5284L26.7093 13.0091ZM37.4445 17.0426C33.9107 16.7756 29.7215 14.7516 26.7093 13.0091L26.4089 13.5284C29.427 15.2744 33.7187 17.3628 37.3993 17.6409L37.4445 17.0426ZM37.7219 29.3088V17.3417H37.1219V29.3088H37.7219ZM29.6766 34.6777L37.5848 29.5607L37.2589 29.0569L29.3507 34.174L29.6766 34.6777ZM23.998 36.3679C26.005 36.3679 27.9687 35.7828 29.6766 34.6777L29.3507 34.174C27.7383 35.2173 25.8875 35.7679 23.998 35.7679V36.3679ZM18.3194 34.6777C20.0274 35.7828 21.991 36.3679 23.998 36.3679V35.7679C22.1085 35.7679 20.2578 35.2173 18.6454 34.174L18.3194 34.6777ZM16.2685 20.1225C16.064 20.1226 15.8746 19.9909 15.8099 19.7859L15.2378 19.9668C15.3836 20.4281 15.8096 20.7227 16.2688 20.7225L16.2685 20.1225ZM16.4139 20.1C16.3654 20.1153 16.3165 20.1225 16.2686 20.1225V20.7225C16.3767 20.7225 16.4866 20.7062 16.5945 20.6721L16.4139 20.1ZM23.9981 18.7123C20.8371 18.7123 16.4512 20.0882 16.4137 20.1L16.5947 20.6721C16.5947 20.6721 16.5948 20.6721 16.595 20.672C16.5952 20.6719 16.5955 20.6718 16.5959 20.6717C16.5966 20.6715 16.5976 20.6712 16.5989 20.6708C16.6015 20.67 16.6051 20.6689 16.6097 20.6674C16.6189 20.6645 16.6322 20.6604 16.6493 20.6552C16.6836 20.6447 16.7333 20.6296 16.7971 20.6105C16.9246 20.5725 17.1083 20.5187 17.3374 20.4545C17.7958 20.326 18.4353 20.1559 19.1696 19.9863C20.6437 19.6459 22.4794 19.3123 23.9981 19.3123V18.7123ZM31.5828 20.1002C31.5453 20.0883 27.1545 18.7123 23.9981 18.7123V19.3123C25.5145 19.3123 27.3503 19.6459 28.8251 19.9864C29.5597 20.156 30.1997 20.3261 30.6585 20.4546C30.8878 20.5188 31.0717 20.5726 31.1993 20.6107C31.2632 20.6297 31.3129 20.6448 31.3472 20.6554C31.3644 20.6606 31.3777 20.6647 31.3869 20.6676C31.3915 20.669 31.3951 20.6701 31.3977 20.6709C31.399 20.6713 31.4 20.6717 31.4007 20.6719C31.4015 20.6721 31.4018 20.6722 31.4018 20.6722L31.5828 20.1002ZM32.1862 19.786C32.1064 20.0389 31.8355 20.1795 31.5822 20.1L31.4024 20.6724C31.97 20.8507 32.5785 20.5367 32.7584 19.9664L32.1862 19.786ZM31.8724 19.1823C32.1256 19.2622 32.2662 19.5325 32.1862 19.7859L32.7584 19.9665C32.9381 19.3973 32.6224 18.7898 32.0529 18.6101L31.8724 19.1823ZM23.998 17.7498C27.291 17.7498 31.6802 19.1217 31.8723 19.1823L32.0529 18.6102C31.8707 18.5526 27.3968 17.1498 23.998 17.1498V17.7498ZM16.1239 19.1823C16.3158 19.1217 20.705 17.7498 23.998 17.7498V17.1498C20.5991 17.1498 16.1253 18.5526 15.9431 18.6102L16.1239 19.1823ZM15.8099 19.786C15.7298 19.5324 15.8704 19.2623 16.1237 19.1823L15.9432 18.6101C15.3737 18.7898 15.0578 19.3971 15.2377 19.9667L15.8099 19.786ZM15.9432 29.5241C16.1253 29.5816 20.5991 30.9844 23.9981 30.9844V30.3844C20.7049 30.3844 16.3158 29.0125 16.1239 28.9519L15.9432 29.5241ZM15.2378 28.1677C15.0581 28.7369 15.3738 29.3443 15.9433 29.5241L16.1239 28.9519C15.8705 28.8719 15.73 28.6016 15.8099 28.3483L15.2378 28.1677ZM16.5938 27.4618C16.0246 27.2829 15.4174 27.5979 15.2377 28.1678L15.81 28.3482C15.8898 28.095 16.1597 27.9543 16.4139 28.0342L16.5938 27.4618ZM23.9979 28.8219C20.9483 28.8219 16.644 27.4776 16.5941 27.4619L16.4137 28.0341C16.451 28.0459 20.8416 29.4219 23.9979 29.4219V28.8219ZM31.4013 27.4622C31.4013 27.4622 31.401 27.4623 31.4002 27.4625C31.3995 27.4627 31.3985 27.463 31.3972 27.4634C31.3947 27.4642 31.3911 27.4654 31.3865 27.4668C31.3772 27.4697 31.3639 27.4738 31.3468 27.479C31.3125 27.4895 31.2629 27.5046 31.1991 27.5237C31.0716 27.5617 30.8879 27.6155 30.6587 27.6797C30.2003 27.8082 29.5609 27.9783 28.8265 28.1479C27.3524 28.4883 25.5167 28.8219 23.9979 28.8219V29.4219C27.159 29.4219 31.5449 28.0461 31.5825 28.0341L31.4013 27.4622ZM32.7582 28.1676C32.5787 27.5983 31.9717 27.2822 31.4017 27.4621L31.5822 28.0343C31.8362 27.9541 32.1061 28.0949 32.186 28.3481L32.7582 28.1676ZM32.0527 29.5241C32.6221 29.3444 32.9381 28.7371 32.7582 28.1675L32.186 28.3482C32.2661 28.6017 32.1255 28.8719 31.8721 28.9519L32.0527 29.5241ZM23.9981 30.9844C27.3969 30.9844 31.8708 29.5816 32.0528 29.524L31.872 28.9519C31.6803 29.0125 27.291 30.3844 23.9981 30.3844V30.9844ZM31.5173 24.7957H16.4765V25.3957H31.5173V24.7957ZM31.9985 24.3145C31.9985 24.5803 31.7831 24.7957 31.5173 24.7957V25.3957C32.1145 25.3957 32.5985 24.9117 32.5985 24.3145H31.9985ZM31.5173 23.8332C31.7831 23.8332 31.9985 24.0485 31.9985 24.3145H32.5985C32.5985 23.7172 32.1145 23.2332 31.5173 23.2332V23.8332ZM16.4765 23.8332H31.5173V23.2332H16.4765V23.8332ZM15.9953 24.3145C15.9953 24.0486 16.2108 23.8332 16.4765 23.8332V23.2332C15.8795 23.2332 15.3953 23.7171 15.3953 24.3145H15.9953ZM16.4765 24.7957C16.2108 24.7957 15.9953 24.5803 15.9953 24.3145H15.3953C15.3953 24.9117 15.8795 25.3957 16.4765 25.3957V24.7957Z" fill="white" mask="url(#path-3-inside-2_4201_63211)"/>
<defs>
<linearGradient id="paint0_linear_4201_63211" x1="23.9821" y1="15.8618" x2="27.7586" y2="23.6352" gradientUnits="userSpaceOnUse">
<stop stop-color="#D55B17"/>
<stop offset="1" stop-color="#D99227"/>
</linearGradient>
</defs>
</svg>
