<svg width="104" height="114" viewBox="0 0 104 114" fill="none" xmlns="http://www.w3.org/2000/svg">
<g filter="url(#filter0_d_24915_124394)">
<rect width="23.4429" height="26.335" rx="4" transform="matrix(-0.866025 -0.5 -0.707107 0.707107 90.1787 14.7744)" fill="#E6F1FC"/>
<rect x="-0.393283" y="0.0517767" width="22.9429" height="25.835" rx="3.75" transform="matrix(-0.866025 -0.5 -0.707107 0.707107 89.4814 14.5929)" stroke="white" stroke-opacity="0.3" stroke-width="0.5"/>
</g>
<g clip-path="url(#clip0_24915_124394)">
<path fill-rule="evenodd" clip-rule="evenodd" d="M61.0203 18.6687L70.644 8.38818L80.663 14.3488L80.3504 14.6828L70.7246 8.95603L61.4135 18.9026C60.7211 19.6423 60.8656 20.6618 61.7364 21.1798C62.5138 21.6424 63.6453 21.482 64.2635 20.8215L65.427 19.5786L74.095 24.7355L73.0658 25.835C72.2007 26.7591 70.6176 26.9836 69.5297 26.3363L61.4237 21.5138C60.3359 20.8666 60.1553 19.5928 61.0203 18.6687ZM69.8736 12.5816L70.1862 12.2477L74.1257 14.5914L73.8131 14.9254L69.8736 12.5816ZM68.262 14.3032L68.5746 13.9692L72.5141 16.313L72.2015 16.647L68.262 14.3032ZM66.6506 16.0245L66.9633 15.6906L70.9028 18.0343L70.5901 18.3683L66.6506 16.0245ZM73.3893 24.8357L65.5075 20.1466L64.6567 21.0555C64.2463 21.4939 63.6593 21.76 63.0504 21.832L62.8686 21.8535L69.8423 26.0025C70.7131 26.5205 71.9803 26.3408 72.6727 25.6011L73.3893 24.8357Z" fill="#313840" stroke="#313840" stroke-width="0.4" stroke-linejoin="round"/>
<path fill-rule="evenodd" clip-rule="evenodd" d="M77.5779 19.9868L74.3278 23.4587L73.1762 21.8802L70.9503 21.4493L74.2004 17.9774C74.1216 17.3666 74.3284 16.7172 74.8407 16.17C75.879 15.0608 77.7792 14.7914 79.0849 15.5682C80.3907 16.345 80.6075 17.8739 79.5692 18.9831C79.0569 19.5303 78.3348 19.8732 77.5779 19.9868ZM74.9083 18.1756C75.0332 18.5585 75.3093 18.9056 75.7276 19.1544C76.1458 19.4033 76.6417 19.5155 77.1378 19.502C77.8584 19.4825 78.5791 19.1978 79.0624 18.6816C79.8782 17.8101 79.7079 16.6088 78.6819 15.9984C77.656 15.3881 76.1629 15.5998 75.3471 16.4713C74.8639 16.9875 74.7267 17.6193 74.9083 18.1756ZM75.3248 19.5848C75.7554 19.841 76.2507 19.9834 76.7584 20.0194L74.4162 22.5215L73.6101 21.4165L72.0519 21.1149L74.3942 18.6128C74.5819 18.9906 74.8941 19.3286 75.3248 19.5848Z" fill="url(#paint0_linear_24915_124394)"/>
</g>
<path d="M72.6971 61.1974C72.71 61.1974 72.7225 61.1922 72.7316 61.1831C72.7408 61.1739 72.746 61.1615 72.746 61.1485C72.746 61.1355 72.7408 61.1231 72.7316 61.1139C72.7225 61.1048 72.71 61.0996 72.6971 61.0996C72.6841 61.0996 72.6717 61.1048 72.6625 61.1139C72.6533 61.1231 72.6482 61.1355 72.6482 61.1485C72.6482 61.1615 72.6533 61.1739 72.6625 61.1831C72.6717 61.1922 72.6841 61.1974 72.6971 61.1974Z" fill="#5D5D5D"/>
<path d="M78.6348 90.1721L76.4475 89.7476L78.7536 90.2325V90.1721H78.6348Z" fill="#CEDCEA"/>
<path d="M84.0092 90.1074H78.7532V90.1718H84.0092V90.1074Z" fill="#DBE7EF"/>
<g style="mix-blend-mode:multiply" opacity="0.4">
<path d="M70.8332 47.333C70.8332 47.333 70.9237 48.0333 70.2798 47.8079C70.3133 47.8724 70.362 47.9278 70.4218 47.9692C70.4815 48.0106 70.5505 48.0368 70.6226 48.0456C70.6948 48.0543 70.768 48.0453 70.8359 48.0193C70.9038 47.9933 70.9643 47.9511 71.0123 47.8965C71.0499 47.8601 71.0789 47.8157 71.097 47.7665C71.1151 47.7174 71.1219 47.6648 71.1169 47.6127C71.1096 47.5403 71.0773 47.4727 71.0255 47.4217C70.9737 47.3706 70.9057 47.3392 70.8332 47.333Z" fill="#F6C7BD"/>
</g>
<path d="M72.0967 39.0289C72.0967 39.0289 69.9275 39.8338 70.018 42.6127L70.1991 44.0576C70.1991 44.0576 70.2957 44.8806 69.9878 45.444C69.6277 46.106 69.1829 46.919 69.1829 46.919C69.1829 46.919 69.0018 47.5509 69.6055 47.6112C70.2092 47.6716 70.3883 47.9432 70.3883 47.9432L70.4487 51.9779C70.4487 51.9779 70.2676 53.3643 73.4892 52.6419C76.7109 51.9195 77.6767 51.1951 78.9706 48.6355C78.9706 48.6355 79.2181 49.5792 79.8601 49.2391C81.3049 48.4725 81.983 46.4622 80.6871 45.1744C80.6871 45.1744 79.5723 44.6029 79.0612 46.1986C79.0612 46.1986 78.2563 47.4623 77.3447 47.0719C76.4332 46.6816 73.8514 46.1986 74.0023 41.3189C73.9943 41.3209 74.115 38.7613 72.0967 39.0289Z" fill="#F6C7BD"/>
<path d="M85.2874 57.3131C84.2632 56.8321 81.9752 56.5907 81.5526 54.2423C81.2568 52.5943 80.635 49.8475 80.2909 48.3564C80.1652 48.6056 80.0016 48.8336 79.806 49.0326C79.2647 49.5135 78.9628 48.6402 78.9628 48.6402C77.7917 50.9563 76.8902 51.7693 74.3447 52.4373C74.6928 53.3066 75.0751 54.7836 74.6264 55.9286C73.9644 57.6149 72.2117 57.6149 71.3746 57.5545C70.5375 57.4942 69.8694 58.1582 69.8694 58.1582C69.8694 58.1582 72.1573 59.2428 75.5903 59.3032C79.0232 59.3636 83.0578 59.8425 86.1265 58.3474C86.1265 58.3474 86.3117 57.796 85.2874 57.3131Z" fill="#F6C7BD"/>
<g style="mix-blend-mode:multiply" opacity="0.4">
<path d="M85.2874 57.3131C84.2632 56.8322 81.9752 56.5907 81.5526 54.2424C81.2568 52.5944 80.8282 50.2823 80.4841 48.7912C80.3151 49.0991 79.9931 49.0729 79.8523 49.1936C79.309 49.6746 78.9628 48.6362 78.9628 48.6362C77.7917 50.9524 76.8902 51.7653 74.3447 52.4334C74.6928 53.3027 75.0751 54.7797 74.6264 55.9247C73.9644 57.611 72.2117 57.611 71.3746 57.5506C70.5375 57.4902 69.8694 58.1543 69.8694 58.1543C69.8694 58.1543 72.1573 59.2389 75.5903 59.2992C79.0232 59.3596 83.0578 59.8426 86.1265 58.3474C86.1265 58.3474 86.3117 57.7961 85.2874 57.3131Z" fill="#F6C7BD"/>
</g>
<g style="mix-blend-mode:multiply" opacity="0.4">
<path d="M85.287 57.3125C84.2627 56.8316 81.9748 56.5901 81.5522 54.2418C81.2886 52.7749 80.7674 50.4406 80.4132 48.8912C80.2362 49.0924 79.9746 49.0924 79.8518 49.197C79.3085 49.678 78.9624 48.6396 78.9624 48.6396C77.7913 50.9558 76.8898 51.7687 74.3442 52.4368C74.3644 52.4878 74.3845 52.5401 74.4046 52.5938C74.465 52.7547 74.5233 52.9318 74.5777 53.119C74.797 52.9761 78.0207 50.8894 78.6304 51.5091C79.2401 52.1289 80.8902 55.3043 81.2463 55.755C81.6025 56.2058 82.0512 57.1093 83.0574 57.4715C83.81 57.7452 84.8684 58.0188 85.5405 58.6064C85.7417 58.528 85.943 58.4414 86.1301 58.3468C86.1261 58.3468 86.3112 57.7955 85.287 57.3125Z" fill="#F6C7BD"/>
</g>
<path d="M85.949 45.3883C84.7417 41.5932 82.4557 35.4497 76.6745 36.6551C76.6745 36.6551 72.9397 35.993 70.2895 38.281C67.9231 40.3255 68.8347 44.7625 69.4746 46.3824C69.6295 46.1047 69.8187 45.7606 69.9877 45.4487C70.2956 44.8853 70.199 44.0623 70.199 44.0623L70.0179 42.6174C69.9273 39.8465 72.0966 39.0296 72.0966 39.0296C74.1088 38.7579 73.9941 41.3175 73.9941 41.3175C73.8513 46.2013 76.433 46.6762 77.3365 47.0786C78.24 47.4811 79.053 46.2053 79.053 46.2053C79.0711 46.147 79.0912 46.0947 79.1113 46.0423L79.1294 45.994C79.1435 45.9598 79.1576 45.9256 79.1737 45.8934C79.1803 45.877 79.1876 45.8608 79.1959 45.8451C79.212 45.8129 79.226 45.7827 79.2421 45.7526L79.2623 45.7163C79.2844 45.6761 79.3085 45.6399 79.3307 45.6037C79.3528 45.5715 79.3749 45.5433 79.3971 45.5151C79.4045 45.5046 79.4126 45.4945 79.4212 45.4849L79.4715 45.4266L79.4977 45.4004L79.552 45.3481L79.5742 45.328L79.6506 45.2696H79.6607C79.8087 45.1735 79.9786 45.1166 80.1546 45.1043C80.3307 45.092 80.5069 45.1246 80.6668 45.1992C81.9627 46.487 81.2846 48.4973 79.8398 49.264C79.1979 49.6061 78.9504 48.6603 78.9504 48.6603L78.8457 48.8615C78.8155 48.9219 78.7833 48.9802 78.7531 49.0366C78.7531 50.6947 78.4936 54.2061 76.4914 56.8301C76.4914 56.8301 78.3587 55.5644 79.8036 55.0835C81.2484 54.6025 84.0293 53.8761 85.285 51.89C85.287 51.892 87.1544 49.1835 85.949 45.3883Z" fill="#2C3553"/>
<path d="M83.239 78.2136L83.0579 76.4669L88.7204 76.2858L88.5997 74.7807L89.3824 74.3581C90.4067 73.7544 90.5274 71.5872 90.3463 70.5026C90.1652 69.418 89.9861 66.1661 89.805 65.5645" stroke="#2C3553" stroke-miterlimit="10"/>
<g style="mix-blend-mode:multiply">
<path d="M66.9814 83.2803L68.5068 83.4996C68.7888 83.542 69.0769 83.5115 69.3439 83.4111L75.4149 81.1674L74.4087 79.7588L66.9814 83.2803Z" fill="#01221E"/>
<path d="M66.9814 83.2803L68.5068 83.4996C68.7888 83.542 69.0769 83.5115 69.3439 83.4111L75.4149 81.1674L74.4087 79.7588L66.9814 83.2803Z" stroke="#01221E" stroke-miterlimit="10"/>
</g>
<path d="M68.2669 84.6333L54.2031 82.0234L54.2253 81.0615L68.3957 83.5084L68.2669 84.6333Z" fill="#475885"/>
<path d="M74.7829 81.3786L69.4584 83.4492C69.1197 83.5818 68.7473 83.6023 68.396 83.5076H68.3678L68.2974 84.1998L68.7179 84.2541L69.6878 83.8517C69.6878 83.8517 73.6661 82.4692 74.5314 82.1855C75.3967 81.9018 75.4409 81.6462 75.4409 81.6462C75.5295 81.3363 74.9117 81.3685 74.7829 81.3786Z" fill="#25345A"/>
<path d="M54.4555 81.0648C54.4484 81.0637 54.4419 81.0603 54.4368 81.0553C54.4318 81.0502 54.4285 81.0437 54.4273 81.0367C54.4269 81.0296 54.4287 81.0226 54.4322 81.0166C54.4358 81.0105 54.4411 81.0056 54.4474 81.0025L60.8424 78.3483C61.0578 78.2578 61.289 78.2113 61.5226 78.2114C61.5899 78.2116 61.6571 78.2163 61.7238 78.2255L74.1375 79.7247L66.8168 83.0288L54.4555 81.0648Z" fill="white"/>
<path d="M61.5225 78.4132C61.5851 78.4132 61.6476 78.4172 61.7096 78.4253L73.409 79.8339L66.8087 82.8221L55.0873 80.9607L60.9228 78.5339C61.114 78.4539 61.3193 78.4128 61.5265 78.4132H61.5225ZM61.5265 78.0107C61.2669 78.0112 61.0099 78.0625 60.7699 78.1617L54.3749 80.8179C54.3272 80.8365 54.2871 80.8704 54.2608 80.9143C54.2344 80.9582 54.2234 81.0096 54.2294 81.0604C54.2353 81.1112 54.258 81.1587 54.2938 81.1952C54.3296 81.2318 54.3765 81.2555 54.4272 81.2626L66.859 83.2386L74.892 79.6165L61.762 78.0289C61.6838 78.0202 61.6052 78.0154 61.5265 78.0148V78.0107Z" fill="#01221E"/>
<path d="M61.7097 78.4257C61.647 78.4176 61.5838 78.4135 61.5206 78.4136C61.3133 78.4131 61.108 78.4542 60.9169 78.5343L55.0813 80.9491L66.8088 82.8225L73.4191 79.8403L61.7097 78.4257Z" fill="#F9FAFA"/>
<path d="M70.4873 79.4863L64.0601 82.388L66.7988 82.8227L73.4091 79.8405L70.4873 79.4863Z" fill="white"/>
<path d="M70.3098 79.6514L64.5305 82.2613L66.9935 82.6537L72.9378 79.9693L70.3098 79.6514Z" fill="#E5EFF9"/>
<path d="M66.3784 81.3416L58.782 80.1343L56.9609 80.8889L64.6659 82.1143L66.3784 81.3416Z" fill="#3598A1"/>
<path d="M66.6075 81.2419L69.8271 79.791L62.2308 78.8714C62.1805 78.8684 62.1301 78.8684 62.0799 78.8714C61.916 78.8709 61.7537 78.9037 61.603 78.968L59.0132 80.0425L66.6075 81.2419Z" fill="#E5EFF9"/>
<g style="mix-blend-mode:multiply" opacity="0.4">
<path d="M74.6082 83.9707C74.4794 84.1236 73.7792 84.3732 73.3324 84.3872C72.7711 84.4042 72.2113 84.4553 71.6562 84.5402C71.5549 84.575 71.4572 84.6195 71.3644 84.673C71.1481 84.7895 70.9093 84.8582 70.6642 84.8742C70.1651 84.9084 69.3159 84.9587 68.7606 84.9487C67.2151 84.9245 67.3359 84.2766 67.3359 84.2766C67.3359 84.2766 67.2312 83.7996 68.0522 84.0975" stroke="#FDE5D2" stroke-miterlimit="10"/>
</g>
<path d="M78.156 81.1716C78.156 81.1716 77.8783 81.4312 77.6308 80.9885C77.3833 80.5458 76.5703 79.8274 76.0209 79.6926L74.6888 79.6121C74.6888 79.6121 72.2278 79.2821 72.1352 80.1897C72.1352 80.1897 71.8093 81.0549 73.3245 81.1737L74.56 81.2924C74.56 81.2924 75.3408 81.2119 75.2422 81.556C75.2422 81.556 75.1999 81.8095 74.3327 82.0953C73.4654 82.381 69.4891 83.7614 69.4891 83.7614L68.5192 84.1639L68.0564 84.1055C68.0564 84.1055 67.5272 83.9466 67.3581 84.0271C67.3581 84.0271 66.4345 83.534 66.2856 83.6387C66.1367 83.7433 65.9616 84.178 66.9396 84.8863C67.6377 85.2503 68.4053 85.4615 69.1913 85.5061C70.5898 85.6147 73.9302 85.1922 73.9302 85.1922C73.9302 85.1922 76.9003 84.7173 77.5261 84.508C77.9995 84.4188 78.4646 84.2902 78.9166 84.1236C79.5473 83.8843 80.2161 83.7609 80.8906 83.7594C81.6191 83.7453 86.525 83.2221 87.6982 81.4131C88.8713 79.6041 88.7928 79.6906 88.652 78.7972C88.5111 77.9037 88.0483 74.0361 88.0483 74.0361L84.5469 74.2917L82.8063 75.0845C82.8063 75.0845 83.2772 76.2718 83.3255 76.8614C83.3379 77.3999 83.3042 77.9384 83.2249 78.4712C83.2249 78.4712 82.1181 78.9843 81.0637 79.582L78.156 81.1716Z" fill="#F6C7BD"/>
<g style="mix-blend-mode:multiply" opacity="0.4">
<path d="M74.687 79.6128C74.687 79.6128 75.1579 80.2165 75.0352 80.5787C74.9124 80.9409 74.188 81.2166 74.188 81.2166C74.188 81.2166 75.5543 81.1341 75.2404 81.5567C75.2404 81.5567 76.319 80.953 75.8441 80.4056C75.5252 80.0551 75.1291 79.7836 74.687 79.6128Z" fill="#F6C7BD"/>
</g>
<g style="mix-blend-mode:multiply" opacity="0.4">
<path d="M76.3914 83.0748C76.3914 83.0748 75.1961 83.9682 74.1055 84.1192C73.4657 84.2089 72.8188 84.2372 72.1737 84.2037C72.1737 84.2037 71.1193 84.9945 70.6625 84.8738C70.2057 84.753 69.7046 84.5759 69.7046 84.5759C69.7046 84.5759 69.4491 84.8617 68.3926 84.5759C67.3362 84.2902 68.0666 84.5518 68.0666 84.5518C68.0666 84.5518 67.475 84.8939 68.0666 85.3165C68.437 85.4143 68.8155 85.4776 69.1975 85.5056C70.5961 85.6143 73.9364 85.1917 73.9364 85.1917C73.9364 85.1917 76.5886 84.7691 77.4076 84.5437C77.8175 84.0914 78.107 83.5432 78.2494 82.9496C78.3918 82.356 78.3826 81.7361 78.2226 81.147L78.1642 81.1792C78.1642 81.1792 77.8865 81.4388 77.639 80.9961C77.3915 80.5534 76.5786 79.835 76.0292 79.7002C76.4276 80.1581 76.6759 80.7271 76.7407 81.3306C76.8054 81.934 76.6835 82.5428 76.3914 83.0748Z" fill="#F6C7BD"/>
</g>
<g style="mix-blend-mode:multiply" opacity="0.4">
<path d="M73.3907 80.0051C73.3082 79.8662 72.8655 79.7898 72.4972 79.7495C72.4025 79.7834 72.3187 79.8423 72.2546 79.9198C72.1905 79.9974 72.1485 80.0908 72.133 80.1902C72.1062 80.2745 72.0977 80.3635 72.1081 80.4513C72.1185 80.5391 72.1476 80.6237 72.1934 80.6993C72.3672 80.7367 72.5433 80.7622 72.7206 80.7758C73.4671 80.8321 73.5355 80.2506 73.3907 80.0051Z" stroke="#F6C7BD" stroke-miterlimit="10"/>
</g>
<path d="M68.4406 79.8492L66.6336 79.5635L66.2009 79.7426L68.0321 80.0323L68.4406 79.8492Z" fill="#3598A1"/>
<path d="M66.6798 80.9474L64.8728 80.6616L64.7078 80.7139L66.5409 81.0057L66.6798 80.9474Z" fill="#A7BED6"/>
<path d="M69.9582 81.3165L70.2962 81.1636L67.8131 80.7812L67.4771 80.9322L69.9582 81.3165Z" fill="#F9FAFA"/>
<path d="M68.7571 81.8575L69.0931 81.7066L66.61 81.3242L66.2739 81.4751L68.7571 81.8575Z" fill="#F9FAFA"/>
<path d="M67.7087 82.3307L68.0448 82.1798L65.5636 81.7954L65.2256 81.9483L67.7087 82.3307Z" fill="#F9FAFA"/>
<path d="M62.6112 66.2773C62.6112 66.2773 61.0758 66.5188 61.1784 68.6216C61.1892 68.9499 61.1798 69.2785 61.1503 69.6056C61.102 70.0403 61.3696 70.9981 61.5708 71.4368C61.6261 71.7483 61.6018 72.0688 61.5004 72.3685C61.5004 72.3685 61.0537 73.6805 61.6251 73.9783C61.6251 73.9783 62.0457 74.1976 62.2429 74.089C62.2429 74.089 61.9632 74.6766 62.4079 74.9925C62.5812 75.1033 62.7869 75.1522 62.9915 75.1313C63.0333 75.283 63.1282 75.4147 63.259 75.5022C63.3897 75.5898 63.5476 75.6274 63.7038 75.6082C63.7038 75.6082 63.7501 75.6284 64.0358 75.3849C64.3216 75.1414 65.3961 73.9763 65.3961 73.9763C65.5706 74.3129 65.7265 74.6589 65.863 75.0126C65.9636 75.3346 66.2373 76.4353 66.2775 76.719C66.3178 77.0027 66.2775 78.7836 66.8933 78.8782C66.8933 78.8782 67.5231 79.0371 67.5573 78.5703C67.5915 78.1034 67.2756 75.1394 67.2756 75.1394C67.2756 75.1394 67.0744 73.7147 67.0643 73.4169C67.004 72.8882 66.8929 72.3666 66.7323 71.8594C66.5814 71.3784 65.38 67.8912 65.05 67.3177C64.72 66.7442 63.6515 65.9815 62.6112 66.2773Z" fill="#F6C7BD"/>
<g style="mix-blend-mode:multiply" opacity="0.4">
<path d="M65.2616 73.1726C65.0662 73.5684 64.8033 73.9273 64.4849 74.233L63.189 75.4806C63.3292 75.5809 63.4999 75.6293 63.6719 75.6175C63.6719 75.6175 63.7182 75.6376 64.0019 75.3921C64.2856 75.1466 64.8591 74.5208 65.4105 73.9614C65.9498 73.0418 65.6661 72.3516 65.6661 72.3516L65.2616 73.1726Z" fill="#F6C7BD"/>
</g>
<g style="mix-blend-mode:multiply" opacity="0.4">
<path d="M67.0644 73.4083C67.0042 72.8796 66.893 72.358 66.7324 71.8508C66.5815 71.3698 65.3802 67.8826 65.0502 67.3091C64.8264 66.9731 64.5234 66.6974 64.1679 66.5061C63.8124 66.3149 63.4154 66.214 63.0117 66.2124C63.5631 66.4136 64.696 67.1783 65.523 70.1001C65.523 70.1001 66.5292 71.7401 66.668 73.4868C66.8069 75.2334 67.318 76.2114 67.2476 77.3322C67.1912 78.2075 67.4729 78.6704 67.2476 78.8857C67.3304 78.8798 67.4081 78.8434 67.4657 78.7836C67.5233 78.7237 67.5567 78.6447 67.5595 78.5617C67.5957 78.0949 67.2777 75.1308 67.2777 75.1308C67.2777 75.1308 67.0725 73.7061 67.0644 73.4083Z" fill="#F6C7BD"/>
</g>
<g style="mix-blend-mode:multiply" opacity="0.4">
<path d="M64.5709 72.2496L64.5548 71.9437C64.5472 71.7809 64.5104 71.6207 64.4461 71.4709L64.3536 71.2495C64.3536 71.2495 64.1684 72.638 63.9511 73.0123C63.7338 73.3865 62.8383 75.2861 62.4077 74.9883C62.581 75.0991 62.7867 75.148 62.9913 75.1272C63.4537 74.5394 63.8727 73.9186 64.2449 73.2698C64.4025 72.9474 64.5123 72.6037 64.5709 72.2496Z" fill="#F6C7BD"/>
</g>
<g style="mix-blend-mode:multiply" opacity="0.4">
<path d="M62.8366 70.5439C62.7976 70.8023 62.7815 71.0635 62.7883 71.3247C62.7785 72.0588 62.5818 72.7784 62.2168 73.4155C61.9552 73.8541 61.6675 73.8843 61.4602 73.8179C61.502 73.8805 61.5587 73.9317 61.6252 73.9668C61.6252 73.9668 62.0458 74.1862 62.243 74.0775C62.8949 73.4738 63.066 72.4194 63.1344 71.8499C63.2028 71.2804 62.8366 70.5439 62.8366 70.5439Z" fill="#F6C7BD"/>
</g>
<g style="mix-blend-mode:multiply" opacity="0.4">
<path d="M61.4604 73.8252C61.384 73.624 61.396 73.2497 61.6999 72.5092C61.8799 72.0541 61.9026 71.5519 61.7643 71.0825C61.229 69.5572 61.5067 67.404 61.5631 66.9814C61.3155 67.3316 61.1324 67.8507 61.1606 68.6214C61.1713 68.9497 61.1619 69.2783 61.1324 69.6054C61.0841 70.0401 61.3518 70.9979 61.553 71.4366C61.6082 71.7482 61.584 72.0686 61.4826 72.3683C61.4826 72.3683 61.1566 73.3805 61.4604 73.8252Z" fill="#F6C7BD"/>
</g>
<path d="M62.2428 74.0841C62.0416 74.1928 61.625 73.9735 61.625 73.9735C61.0536 73.6797 61.4983 72.3637 61.4983 72.3637C61.6009 72.0642 61.6258 71.7437 61.5707 71.432C61.3695 70.9933 61.0998 70.0334 61.1501 69.6008C61.1797 69.2737 61.1891 68.9451 61.1783 68.6168C61.1588 68.3034 61.1852 67.9888 61.2568 67.6831L58.8421 69.633C58.617 69.8142 58.4323 70.0404 58.3 70.2972C58.1676 70.554 58.0904 70.8357 58.0734 71.1241C58.0472 71.599 57.9969 72.2127 57.9044 72.8365C57.7031 74.1667 59.2003 75.0943 59.2003 75.0943C60.5424 76.032 61.5144 75.4183 62.1663 74.5168C62.1596 74.3687 62.1858 74.221 62.2428 74.0841Z" fill="#F6C7BD"/>
<g style="mix-blend-mode:multiply" opacity="0.6">
<path d="M58.9907 74.9554C59.1115 75.0479 59.1919 75.0983 59.1919 75.0983C60.5341 76.036 61.5061 75.4222 62.158 74.5207C62.1539 74.3707 62.1827 74.2217 62.2426 74.0841C62.0413 74.1927 61.6248 73.9734 61.6248 73.9734C61.3229 73.8185 61.3048 73.3697 61.3551 73.0015C60.669 74.0418 59.8198 74.9896 58.9907 74.9554Z" fill="#F6C7BD"/>
</g>
<path d="M87.0164 82.0918C85.2476 83.3575 81.5169 83.7479 80.8891 83.76C80.2145 83.7614 79.5457 83.8848 78.915 84.1242C78.463 84.2908 77.9979 84.4194 77.5245 84.5085C76.8987 84.7098 73.9286 85.1927 73.9286 85.1927C73.9286 85.1927 70.5882 85.6153 69.1897 85.5066C68.9751 85.49 68.7616 85.4624 68.5498 85.4241C68.7108 85.7038 69.5559 85.7058 69.5559 85.7058L71.8157 86.2914C71.8157 86.2914 74.7516 87.0158 75.8805 86.9695C77.0094 86.9233 78.5448 87.3318 80.3075 87.8288C82.0703 88.3258 83.1991 87.4666 83.6962 87.2412C84.1932 87.0158 84.9599 87.1507 84.9599 87.1507C86.135 87.1969 86.5858 86.8347 87.0386 86.5188C87.4913 86.2029 87.8072 84.6212 87.4893 83.6272C87.3505 83.1945 87.1754 82.611 87.0164 82.0918Z" fill="#043061"/>
<path d="M83.2529 76.4013H82.788L82.8142 75.0631C82.3475 74.0864 82.0826 73.0256 82.0354 71.9441C81.9751 70.1975 81.9067 67.5393 82.0958 67.0644C83.4802 63.5711 86.1203 63.9936 87.8771 63.8125C88.5009 63.7481 89.2514 64.5792 89.6257 65.0702C89.609 65.0157 89.5881 64.9626 89.5633 64.9112C89.1126 63.9634 88.7947 63.3296 88.7947 63.3296C88.7947 63.3296 88.3922 61.0275 87.8026 60.1683C87.2975 59.4318 86.726 58.4277 86.058 57.9307C86.096 57.9896 86.122 58.0556 86.1345 58.1246C86.1469 58.1937 86.1455 58.2646 86.1304 58.3331C83.0577 59.8383 79.0231 59.3574 75.5901 59.297C72.1572 59.2366 69.8692 58.152 69.8692 58.152C68.8752 58.2124 66.8508 60.1261 66.2472 60.939C65.6435 61.752 64.7581 62.7501 64.0337 63.062C63.3092 63.3739 62.2729 64.3719 61.4177 65.366C60.5625 66.3601 60.8321 67.3078 60.8321 67.3078L60.7617 68.0806L61.2547 67.6781C61.3203 67.3376 61.483 67.0234 61.7234 66.7734C61.9637 66.5234 62.2713 66.3484 62.609 66.2695C63.6493 65.9737 64.7158 66.7303 65.0479 67.3018C65.2853 67.7043 65.9735 69.632 66.3961 70.8555C66.8911 70.288 67.1829 69.3624 67.2895 68.976C67.1145 69.9359 67.4485 72.7168 67.7423 73.2219C68.0582 73.7632 67.9697 75.2543 67.8791 76.2021C67.8509 76.4959 67.8006 76.9305 67.7463 77.3933L74.6846 79.6068L76.0167 79.6873C76.4042 79.8207 76.7578 80.0371 77.0531 80.3212C77.2765 80.5123 77.4704 80.7354 77.6286 80.9832C77.8761 81.4259 78.1538 81.1664 78.1538 81.1664L81.0695 79.5565C82.124 78.9529 83.2307 78.4458 83.2307 78.4458C83.31 77.913 83.3437 77.3744 83.3313 76.8359C83.316 76.6893 83.2898 76.544 83.2529 76.4013Z" fill="#043061"/>
<path d="M88.7645 74.8471L88.8269 76.3443L82.7901 76.4127L82.8163 75.0745C82.3496 74.0978 82.0847 73.037 82.0375 71.9555C81.9772 70.2089 81.9087 67.5506 82.0979 67.0758C83.4823 63.5824 86.1224 64.005 87.8792 63.8239C88.6297 63.7454 89.5654 64.9689 89.8069 65.3291C90.0484 65.6893 89.8069 65.9911 89.988 66.7156C90.1691 67.44 90.9559 73.0361 90.1651 73.6398C89.8069 74.4004 88.7645 74.8471 88.7645 74.8471Z" fill="#043061"/>
<g style="mix-blend-mode:multiply" opacity="0.4">
<path d="M79.8747 49.6036C80.1373 49.3053 80.342 48.9607 80.4784 48.5874C79.6976 49.823 78.943 47.7061 78.943 47.7061L78.6251 48.1085C78.3092 48.7866 76.8462 50.6077 76.0957 51.0444C74.4697 51.9942 74.1095 51.4972 73.3851 51.6783C72.5923 51.8795 72.7996 52.4007 71.4433 52.5355C70.409 52.6401 70.4372 51.9781 70.4372 51.9781C70.4372 51.9781 70.2561 53.3646 73.4777 52.6422C76.6993 51.9197 77.6652 51.1953 78.9591 48.6357C78.9631 48.6397 79.4079 50.159 79.8747 49.6036Z" fill="#F6C7BD"/>
</g>
<g style="mix-blend-mode:multiply" opacity="0.4">
<path d="M80.3032 45.4917C80.3032 45.4917 79.5345 45.8076 79.625 46.532C79.6148 46.6516 79.6342 46.7718 79.6816 46.8821C79.729 46.9923 79.8029 47.0891 79.8967 47.1639C80.2126 47.3893 79.625 47.5664 79.625 47.5664L79.4459 47.9688C79.4459 47.9688 79.1743 47.516 79.2648 47.2464C79.3554 46.9768 79.1743 45.5823 80.3032 45.4917Z" fill="#F6C7BD"/>
</g>
<g style="mix-blend-mode:multiply" opacity="0.4">
<path d="M70.8216 47.5528L70.2743 47.2993C70.1117 47.2231 69.9288 47.2016 69.7529 47.2379C69.577 47.2741 69.4176 47.3662 69.2983 47.5005C69.3835 47.5697 69.4886 47.6099 69.5982 47.6152C70.2018 47.6756 70.3809 47.9472 70.3809 47.9472H70.3991C70.3516 47.9058 70.3097 47.8584 70.2743 47.8063C70.6707 47.9472 70.7894 47.7359 70.8216 47.5528Z" fill="#F6C7BD"/>
</g>
<g style="mix-blend-mode:multiply" opacity="0.4">
<path d="M70.8332 47.333C70.8332 47.333 70.9237 48.0333 70.2798 47.8079C70.3133 47.8724 70.362 47.9278 70.4218 47.9692C70.4815 48.0106 70.5505 48.0368 70.6226 48.0456C70.6948 48.0543 70.768 48.0453 70.8359 48.0193C70.9038 47.9933 70.9643 47.9511 71.0123 47.8965C71.0499 47.8601 71.0789 47.8157 71.097 47.7665C71.1151 47.7174 71.1219 47.6648 71.1169 47.6127C71.1096 47.5403 71.0773 47.4727 71.0255 47.4217C70.9737 47.3706 70.9057 47.3392 70.8332 47.333Z" fill="#F6C7BD"/>
</g>
<g style="mix-blend-mode:multiply" opacity="0.4">
<path d="M89.9861 66.7091C89.8049 65.9847 90.0444 65.6848 89.8049 65.3226C89.5876 64.9987 88.7988 63.9744 88.1046 63.8315C88.5352 64.6908 88.8411 65.4836 88.5694 66.6789C88.1187 68.667 87.3943 69.8402 87.5754 70.6531C87.7565 71.4661 88.4467 73.1383 88.0563 74.0197C87.8551 74.4765 87.6538 75.4504 87.5452 76.3579L88.7203 76.3459V74.8648C89.3065 74.5941 89.808 74.1692 90.1712 73.6353C90.956 73.0357 90.1651 67.4315 89.9861 66.7091Z" fill="#2C3553"/>
</g>
<g style="mix-blend-mode:multiply" opacity="0.4">
<path d="M87.6964 81.4058C88.8696 79.5948 88.7911 79.6833 88.6503 78.7898C88.5094 77.8964 88.0466 74.0288 88.0466 74.0288C87.6562 74.9082 87.296 77.7093 87.4751 78.2546C87.6542 78.7999 87.3845 81.4159 86.3019 81.597C85.2193 81.7781 80.5187 82.6816 80.5187 82.6816L77.9892 83.4865L76.5444 84.6596V84.728C76.8728 84.6702 77.1979 84.595 77.5184 84.5027C77.9918 84.4135 78.4569 84.2849 78.9089 84.1183C79.5395 83.879 80.2083 83.7556 80.8829 83.7541C81.6174 83.738 86.5293 83.2148 87.6964 81.4058Z" fill="#F6C7BD"/>
</g>
<g style="mix-blend-mode:multiply" opacity="0.4">
<path d="M86.0586 57.9438C86.0966 58.0028 86.1227 58.0687 86.1351 58.1378C86.1475 58.2069 86.1461 58.2778 86.131 58.3463C85.9298 58.4429 85.7286 58.5294 85.5273 58.6099C86.2502 59.6161 86.818 60.7252 87.2116 61.9C87.4611 62.5678 87.7583 63.2167 88.101 63.8418C88.6705 63.9565 89.2923 64.6467 89.6223 65.0854C89.6056 65.0309 89.5847 64.9778 89.5599 64.9264C89.1092 63.9787 88.7912 63.3448 88.7912 63.3448C88.7912 63.3448 88.3888 61.0427 87.7992 60.1835C87.2981 59.437 86.7307 58.4328 86.0586 57.9438Z" fill="#2C3553"/>
</g>
<g style="mix-blend-mode:multiply" opacity="0.4">
<path d="M69.4251 74.6297C69.1534 73.9073 68.6202 70.5629 68.6202 70.5629C68.6202 70.5629 68.8013 65.2324 69.8859 62.3428C69.8859 62.3428 67.8515 67.2266 67.27 69.4662C67.2297 70.6595 67.5134 72.7925 67.767 73.2292C68.0829 73.7705 67.9944 75.2616 67.9038 76.2093C67.8756 76.5031 67.8253 76.9378 67.771 77.4006L68.8395 77.7407L69.6827 78.0103C69.6263 76.6078 69.5619 75.0141 69.4251 74.6297Z" fill="#2C3553"/>
</g>
<g style="mix-blend-mode:multiply" opacity="0.4">
<path d="M78.7291 73.6399C79.007 73.6733 79.2745 73.7665 79.513 73.9131C79.7516 74.0596 79.9556 74.2561 80.111 74.489C80.2664 74.7218 80.3696 74.9856 80.4135 75.2621C80.4573 75.5386 80.4408 75.8214 80.365 76.0909L79.0711 80.6688L81.0713 79.5681C81.9044 79.0952 82.7677 78.6787 83.0957 78.5237L83.2386 78.2158L83.2526 76.4048H82.7878L82.814 75.0666L82.4256 74.3563C82.0392 73.646 81.8843 71.3741 82.1539 70.5612C82.4236 69.7482 82.0654 69.0258 81.8843 67.7601C81.7032 66.4944 83.961 64.6894 83.961 64.6894C82.0654 64.2366 81.7032 65.5929 80.7091 68.575C80.0028 70.696 79.0993 71.9235 78.385 72.6157C78.3069 72.6953 78.2523 72.7949 78.2274 72.9036C78.2025 73.0123 78.2082 73.1258 78.2438 73.2314C78.2795 73.3371 78.3437 73.4308 78.4293 73.5022C78.515 73.5736 78.6187 73.6199 78.7291 73.6359V73.6399Z" fill="#2C3553"/>
</g>
<g style="mix-blend-mode:multiply" opacity="0.4">
<path d="M87.4847 83.6189C87.3499 83.1943 87.1748 82.6127 87.0159 82.0835C85.2471 83.3492 81.5163 83.7396 80.8885 83.7517C80.2139 83.7531 79.5451 83.8765 78.9145 84.1159C78.6273 84.2293 78.332 84.3208 78.0311 84.3895C77.8125 85.3034 77.7446 86.2468 77.8298 87.1826C78.5804 87.3415 79.4135 87.5689 80.3049 87.8205C82.0677 88.3175 83.1966 87.4583 83.6936 87.2329C84.1906 87.0075 84.9573 87.1423 84.9573 87.1423C86.1325 87.1886 86.5832 86.8264 87.036 86.5105C87.4887 86.1946 87.8027 84.6129 87.4847 83.6189Z" fill="#2C3553"/>
</g>
<path d="M89.0223 101.007C88.9318 99.3808 88.7205 92.3037 87.1549 88.6293C87.1549 88.6293 86.6418 87.4219 86.672 86.7619V86.7518C86.3017 86.9812 85.8289 87.1724 84.9555 87.1382C84.9555 87.1382 84.1889 87.0034 83.6918 87.2288C83.1948 87.4541 82.0659 88.3134 80.3032 87.8163C78.5404 87.3193 77.0051 86.9128 75.8762 86.9571C74.7473 87.0014 71.8114 86.279 71.8114 86.279L69.5516 85.6934C69.2511 85.6955 68.953 85.6388 68.6742 85.5264L68.4529 87.0034L68.5435 87.6956C68.5435 87.6956 67.6399 89.1706 67.6098 89.9232C67.5796 90.6758 67.6098 92.2433 67.489 92.513C67.3683 92.7826 65.9235 95.1289 66.0804 97.3927C66.2374 99.6565 65.678 105.313 65.678 105.313C65.678 105.313 66.1911 112.511 66.2817 113.022C66.3722 113.533 89.0203 113.173 89.0203 113.173C89.0203 113.173 89.1129 102.637 89.0223 101.007Z" fill="white"/>
<g style="mix-blend-mode:multiply">
<path d="M84.5049 87.0986C84.5049 87.0986 84.5954 88.1812 84.8067 88.6642C85.018 89.1471 86.2817 93.061 86.3421 93.8136C86.4025 94.5662 86.6419 96.5241 86.6419 96.9145C86.6419 97.3049 86.8834 113.214 86.8834 113.214" stroke="#E5EFF9" stroke-miterlimit="10"/>
</g>
<g style="mix-blend-mode:multiply">
<path d="M78.6306 88.6641C78.6306 88.6641 78.2402 89.9278 77.9082 90.4107C77.5762 90.8937 76.5238 96.192 76.7351 98.5121C76.9464 100.832 78.3006 111.703 78.3006 111.703L78.5723 113.359" stroke="#E5EFF9" stroke-miterlimit="10"/>
</g>
<g style="mix-blend-mode:multiply">
<path d="M73.0006 90.4703C73.0489 89.3273 73.4896 87.4338 73.6747 86.6892C73.399 86.6369 73.1314 86.5806 72.8899 86.5303C73.0469 87.0454 72.7531 88.5425 72.6686 89.0537C72.578 89.597 72.4573 90.9814 72.4573 90.9814C72.5197 93.9998 73.391 97.2195 73.391 97.2195C73.1213 96.2214 72.9402 91.9151 73.0006 90.4703Z" fill="#E5EFF9"/>
</g>
<g style="mix-blend-mode:multiply">
<path d="M71.6387 87.6084C71.6387 87.6084 71.188 92.2165 71.52 93.7217C71.852 95.2269 72.0613 96.2511 72.0613 96.2511L73.3854 97.215" stroke="#E5EFF9" stroke-miterlimit="10"/>
</g>
<g style="mix-blend-mode:multiply">
<path d="M69.8692 87.3374C69.8692 87.3374 68.4224 93.662 68.3016 94.3804C68.1809 95.0987 67.2774 101.639 67.3981 103.536C67.5188 105.434 67.3679 113.195 67.3679 113.195" stroke="#E5EFF9" stroke-miterlimit="10"/>
</g>
<g style="mix-blend-mode:multiply">
<path d="M69.7424 85.7459L69.5512 85.6976C69.4261 85.6947 69.3011 85.6853 69.1769 85.6694L69.0542 87.4805L69.6881 87.6817L69.7424 85.7459Z" fill="#E5EFF9"/>
</g>
<g style="mix-blend-mode:multiply">
<path d="M69.7426 85.7456C69.7426 85.7456 70.1008 85.9468 69.8975 85.9227L69.8693 87.7337L69.6882 87.7036L69.7426 85.7456Z" fill="#E5EFF9"/>
</g>
<g style="mix-blend-mode:multiply">
<path d="M77.9325 87.2051L77.8782 88.8451C77.8782 88.8451 78.4517 89.0845 78.5724 88.9638C78.6609 88.8753 78.7012 87.8933 78.7153 87.3902C78.4456 87.3238 78.184 87.2594 77.9325 87.2051Z" fill="#E5EFF9"/>
</g>
<g style="mix-blend-mode:multiply">
<path d="M86.9137 88.0306C86.9137 88.0306 85.7989 88.6021 84.8069 88.6624C83.8148 88.7228 78.6312 88.6624 78.6312 88.6624C78.6312 88.6624 76.3432 88.5115 75.9529 88.5115C75.9529 88.5115 71.9766 87.7066 71.1335 87.4873C70.7242 87.364 70.2966 87.3129 69.8698 87.3364L68.4612 87.0063" stroke="#E5EFF9" stroke-miterlimit="10"/>
</g>
<g style="mix-blend-mode:multiply" opacity="0.4">
<path d="M73.9945 41.3215C73.8516 46.2013 76.373 46.8774 77.3369 47.0786C78.2243 47.2597 79.0533 46.2053 79.0533 46.2053C77.7293 47.8453 75.4695 45.4004 75.1536 44.0059C74.904 42.9032 75.063 39.3535 73.9784 38.4963C72.8938 37.6391 72.0969 39.0376 72.0969 39.0376C74.1152 38.7619 73.9945 41.3215 73.9945 41.3215Z" fill="#2C3553"/>
</g>
<g style="mix-blend-mode:multiply" opacity="0.4">
<path d="M80.0776 49.1528C80.0092 49.2192 79.9468 49.2775 79.8945 49.3238C79.3511 49.8048 78.9628 48.6396 78.9628 48.6396C78.8944 48.7926 78.8239 48.9355 78.7615 49.0743C78.7615 50.7465 78.4879 54.2257 76.4998 56.8316C81.0072 52.2356 80.5203 50.01 80.0776 49.1528Z" fill="#2C3553"/>
</g>
<g style="mix-blend-mode:multiply" opacity="0.4">
<path d="M72.0966 39.0279C72.0966 39.0279 70.0843 38.2431 69.1969 39.8429C68.2975 42.0685 68.9695 45.0989 69.4746 46.3767C69.6296 46.099 69.8187 45.755 69.9878 45.443C70.2956 44.8796 70.199 44.0566 70.199 44.0566L70.0179 42.6118C69.9274 39.8449 72.0966 39.0279 72.0966 39.0279Z" fill="#2C3553"/>
</g>
<g style="mix-blend-mode:multiply" opacity="0.4">
<path d="M76.6695 36.655C76.6695 36.655 76.4964 36.6229 76.2006 36.5987L76.1865 36.7154C86.7268 39.0637 82.9337 51.1695 82.6258 52.4353C82.3179 53.701 80.7101 54.7252 80.7101 54.7252L80.8087 54.7615C82.2998 54.2664 84.2758 53.4857 85.288 51.894C85.288 51.894 87.1554 49.1854 85.9501 45.3903C84.7447 41.5952 82.4568 35.4497 76.6695 36.655Z" fill="#2C3553"/>
</g>
<path d="M74.7713 53.9926C74.6877 53.4597 74.5446 52.938 74.3447 52.4371C74.0771 52.5075 73.7893 52.5759 73.4814 52.6383C70.2618 53.3607 70.4409 51.9742 70.4409 51.9742L70.3805 47.9396C70.3805 47.9396 70.2135 47.6901 69.6682 47.6177C69.6299 48.5051 69.5213 49.9097 69.2054 50.62C68.7244 51.7046 66.9174 54.5339 67.9417 56.7635L68.1207 57.3048C68.1207 57.3048 68.9055 55.9203 69.5676 55.7392C70.2296 55.5581 71.2539 54.8357 73.0609 54.5942C73.6711 54.5343 74.2579 54.3279 74.7713 53.9926Z" fill="#2C3553"/>
<g style="mix-blend-mode:multiply" opacity="0.4">
<path d="M74.7713 53.9926C74.6877 53.4597 74.5446 52.938 74.3447 52.4371C74.0771 52.5075 73.7893 52.5759 73.4814 52.6383C70.2618 53.3607 70.4409 51.9742 70.4409 51.9742L70.3805 47.9396C70.3805 47.9396 70.2135 47.6901 69.6682 47.6177C69.6299 48.5051 69.5213 49.9097 69.2054 50.62C68.7244 51.7046 66.9174 54.5339 67.9417 56.7635L68.1207 57.3048C68.1207 57.3048 68.9055 55.9203 69.5676 55.7392C70.2296 55.5581 71.2539 54.8357 73.0609 54.5942C73.6711 54.5343 74.2579 54.3279 74.7713 53.9926Z" fill="#2C3553"/>
</g>
<g style="mix-blend-mode:multiply" opacity="0.4">
<path d="M72.0973 39.0281C72.0973 39.0281 73.4817 37.0863 76.6752 36.6496C76.6752 36.6496 74.4758 36.543 71.7954 38.9678L72.0973 39.0281Z" fill="#2C3553"/>
</g>
<g style="mix-blend-mode:multiply" opacity="0.6">
<path d="M72.8798 97.9693L72.8194 96.7619C72.5925 96.5581 72.3394 96.3855 72.0668 96.2488L71.4048 92.9668V95.2246C71.4048 96.2186 71.6523 100.082 71.4953 102.453C71.3142 105.163 69.7769 108.324 67.7002 107.332C66.8953 106.95 66.2393 105.956 65.7221 104.877C65.698 105.153 65.6819 105.314 65.6819 105.314C65.6819 105.314 66.1769 112.271 66.2856 112.991V113.023L76.4958 113.204L72.8798 97.9693Z" fill="#E5EFF9"/>
</g>
<g style="mix-blend-mode:multiply" opacity="0.6">
<path d="M86.8069 101.552L86.7626 101.462C86.7626 101.462 85.3178 112.394 81.253 111.941L78.301 111.702C78.301 111.702 76.6449 112.032 75.4617 109.056L76.4859 113.211H87.4769L89.0123 113.189C89.0123 113.189 89.1029 102.649 89.0123 101.023C88.9217 99.397 88.7105 92.3198 87.1449 88.6454C87.1449 88.6454 86.6318 87.438 86.662 86.778V86.7679C86.2917 86.9973 85.8188 87.1885 84.9455 87.1543C84.9455 87.1543 84.1788 87.0195 83.6818 87.2449C83.1848 87.4702 82.0559 88.3295 80.2931 87.8324C78.5304 87.3354 76.995 86.9289 75.8661 86.9732C74.7373 87.0175 71.8014 86.2951 71.8014 86.2951L69.5416 85.7095C69.241 85.7116 68.943 85.6549 68.6642 85.5425L68.4429 87.0195C68.4429 87.0195 72.5861 88.0377 74.6205 88.4442C76.6549 88.8507 80.9894 88.7158 82.7501 91.0179C82.7602 91.0058 85.7041 92.4506 86.8069 101.552Z" fill="#E5EFF9"/>
</g>
<g style="mix-blend-mode:multiply">
<path d="M72.8191 96.7642C72.8191 96.7642 74.8978 109.592 76.4935 113.206" stroke="#E5EFF9" stroke-miterlimit="10"/>
</g>
<g style="mix-blend-mode:multiply">
<path d="M79.2646 87.6697C81.2528 88.694 83.0578 88.1507 83.6313 87.6999C83.7938 87.5679 83.983 87.4726 84.1858 87.4205C84.3887 87.3684 84.6004 87.3607 84.8064 87.3981C86.5289 87.5591 86.6637 86.9272 86.6718 86.7944V86.7582C86.3015 86.9876 85.8287 87.1788 84.9553 87.1445C84.9553 87.1445 84.1887 87.0097 83.6916 87.2351C83.1946 87.4605 82.0657 88.3197 80.303 87.8227C78.5402 87.3256 77.0048 86.9192 75.876 86.9634C74.7471 87.0077 71.8112 86.2853 71.8112 86.2853L69.5514 85.6997C69.2509 85.7019 68.9528 85.6451 68.674 85.5327L68.6499 85.6997C69.8452 86.1263 73.5116 87.1083 75.0489 87.1083C76.8539 87.0983 79.2646 87.6697 79.2646 87.6697Z" fill="#E5EFF9"/>
</g>
<g style="mix-blend-mode:multiply">
<path d="M87.078 88.496C85.9724 88.869 84.8118 89.0527 83.6451 89.0393C81.6127 89.0393 79.7151 88.9488 79.7151 88.9488L79.039 88.993L77.8779 89.0232C77.8779 89.0232 74.9279 88.822 73.9781 88.496L73.302 88.3773L73.3463 88.001L76.8396 88.5423L80.5281 88.6328C80.5281 88.6328 84.776 88.993 86.913 88.1197L87.078 88.496Z" fill="#E5EFF9"/>
</g>
<g style="mix-blend-mode:multiply">
<path d="M72.8935 87.8636C72.8629 88.0068 72.8233 88.148 72.7747 88.2861C72.2417 88.1107 71.6979 87.9695 71.1468 87.8636C70.6961 87.8193 69.9877 87.7288 69.9877 87.7288L68.4665 87.3665L68.4524 87.0063C68.4524 87.0063 69.5813 87.3525 69.861 87.3364C70.5955 87.3933 71.3242 87.5091 72.0403 87.6825L72.8935 87.8636Z" fill="#E5EFF9"/>
</g>
<g style="mix-blend-mode:multiply">
<path d="M87.1465 88.616V88.6039V88.5898V88.5757V88.5617V88.5435V88.5274C87.1454 88.5208 87.1454 88.514 87.1465 88.5073C87.1457 88.5006 87.1457 88.4939 87.1465 88.4872V88.4671L87.1364 88.4429C87.137 88.4356 87.137 88.4282 87.1364 88.4208C87.1369 88.4121 87.1369 88.4033 87.1364 88.3946C87.137 88.3873 87.137 88.3799 87.1364 88.3725L87.1264 88.3443C87.1258 88.337 87.1258 88.3296 87.1264 88.3222C87.1225 88.3104 87.1178 88.299 87.1123 88.288V88.2679C87.1123 88.2558 87.1022 88.2437 87.0982 88.2296V88.2135C87.0982 88.1994 87.0982 88.1833 87.0821 88.1693C87.083 88.1653 87.083 88.1612 87.0821 88.1572C87.072 88.123 87.06 88.0888 87.0479 88.0546C87.047 88.0506 87.047 88.0465 87.0479 88.0425C86.0587 88.6096 84.9161 88.851 83.782 88.7327C83.782 88.7327 84.925 90.9905 84.5044 91.3828C84.0838 91.7752 83.9913 92.0751 84.7157 92.6767C85.4401 93.2784 86.1243 94.2423 86.1605 94.4234C86.1967 94.6045 86.9131 96.17 85.8586 95.4174C85.8586 95.4174 85.595 95.1418 85.2972 94.8601C85.1986 94.7132 84.12 93.8378 84.5265 94.7393C84.6151 94.9083 86.1645 97.2627 86.2209 97.4277C86.6105 98.6721 86.7961 99.9714 86.7702 101.275L86.8064 101.561L86.7622 101.47L86.7018 106.41C86.7018 106.41 86.8185 110.161 86.9453 113.216H87.4846L89.0199 113.194C89.0199 113.194 89.1105 102.654 89.0199 101.028C88.9475 99.7338 88.8006 94.9909 87.9554 91.2641C87.7317 90.379 87.4631 89.5059 87.1505 88.6482V88.6341L87.1465 88.616Z" fill="#E5EFF9"/>
</g>
<g style="mix-blend-mode:multiply">
<path d="M74.385 105.135C74.385 105.135 74.8075 112.782 74.2039 113.146L74.2139 113.166L76.4878 113.206C76.0652 111.577 74.6908 106.302 74.385 105.135Z" fill="#E5EFF9"/>
</g>
<path d="M73.0625 43.9392C73.0662 43.924 73.0654 43.9081 73.06 43.8934C73.0546 43.8787 73.045 43.8659 73.0323 43.8567C72.6438 43.5564 72.1879 43.3554 71.7042 43.2712C71.018 43.2047 70.5954 43.2712 70.535 43.4603C70.4747 43.6495 70.4666 43.9493 70.8288 43.9352C71.4069 43.8547 71.9934 43.8547 72.5715 43.9352L72.992 43.9895C73.0066 43.9915 73.0214 43.9881 73.0336 43.98C73.0458 43.9718 73.0546 43.9595 73.0584 43.9453L73.0625 43.9392Z" fill="#2C3553"/>
<path opacity="0.2" d="M78.0972 58.951L78.7009 57.1399C78.7009 57.1399 80.8942 55.8883 80.8942 56.6047C80.8942 56.6047 80.6306 57.1701 80.8942 57.2828C81.1578 57.3955 81.9124 57.4719 82.0634 57.7738C82.2143 58.0756 82.2143 58.4902 81.7615 58.5666C81.3088 58.6431 80.5542 58.4157 80.1014 58.5666C79.6486 58.7175 79.0832 59.5466 78.5922 59.2448C78.5882 59.2448 78.0972 59.283 78.0972 58.951Z" fill="white" stroke="#FDE5D2" stroke-miterlimit="10"/>
<path opacity="0.2" d="M83.2387 78.2129L84.106 78.5006C84.1775 78.5249 84.2405 78.5693 84.2873 78.6286C84.3341 78.6879 84.3627 78.7595 84.3696 78.8347C84.3763 78.9099 84.3608 78.9855 84.325 79.052C84.2893 79.1185 84.2348 79.1731 84.1684 79.209C84.049 79.2735 83.9162 79.3091 83.7806 79.3129C83.645 79.3168 83.5104 79.2887 83.3876 79.2311L82.4277 78.7844L83.2387 78.2129Z" fill="white"/>
<g style="mix-blend-mode:multiply" opacity="0.4">
<path d="M79.1122 46.0369C79.1122 46.0369 75.5304 46.4997 75.4097 43.4209C75.4097 43.4209 75.4882 46.222 79.243 45.739" fill="#2C3553"/>
</g>
<g style="mix-blend-mode:multiply" opacity="0.4">
<path d="M74.8982 39.8457C74.8982 39.8457 75.5019 41.5622 75.4395 42.6166C75.4395 42.6166 75.681 40.9001 74.8982 39.8457Z" fill="#2C3553"/>
</g>
<g style="mix-blend-mode:multiply" opacity="0.4">
<path d="M79.0539 46.2001C79.0539 46.2001 77.7298 46.5321 77.1865 46.1699C77.6477 46.3961 78.1489 46.5294 78.6615 46.5623L79.0539 46.2001Z" fill="#2C3553"/>
</g>
<g style="mix-blend-mode:multiply" opacity="0.4">
<path d="M80.492 53.2695C79.8435 54.2835 79.0084 55.165 78.031 55.8674H78.0954C78.4717 55.6662 78.8802 55.4649 79.2786 55.2878C79.6589 54.7063 80.156 53.8551 80.492 53.2695Z" fill="#2C3553"/>
</g>
<g style="mix-blend-mode:multiply" opacity="0.4">
<path d="M80.4919 53.2697C80.6227 53.0685 80.7475 52.8451 80.8622 52.6157C80.8602 52.6157 80.7093 52.8854 80.4919 53.2697Z" fill="#2C3553"/>
</g>
<g style="mix-blend-mode:multiply" opacity="0.4">
<path d="M70.3081 53.3804C70.0437 54.0779 69.9513 54.8289 70.0384 55.5697L70.3523 55.4289C70.2095 54.8574 70.0807 54.0183 70.3081 53.3804Z" fill="#2C3553"/>
</g>
<g style="mix-blend-mode:multiply" opacity="0.4">
<path d="M68.9056 53.1572C68.9056 53.1572 67.5192 55.0246 68.1208 57.3126C68.1208 57.3126 68.2295 57.1234 68.3985 56.8739C68.0996 55.615 68.2804 54.29 68.9056 53.1572Z" fill="#2C3553"/>
</g>
<g style="mix-blend-mode:multiply" opacity="0.4">
<path d="M70.1998 44.0603L70.0187 42.6155C69.9704 41.1244 70.5761 40.2008 71.1476 39.6655H71.1335C71.1335 39.6655 68.6644 39.7259 69.9885 45.4488C70.2964 44.8854 70.1998 44.0603 70.1998 44.0603Z" fill="#2C3553"/>
</g>
<path d="M44.3494 75.7036H44.3516" stroke="#01221E" stroke-miterlimit="10"/>
<path d="M41.9636 42.3071V49.332L42.4928 49.2314V42.7136L41.9636 42.3071Z" fill="white"/>
<path d="M42.4927 49.986V49.2314H41.7622L42.4927 49.986Z" fill="#DBE7EF"/>
<path d="M43.2668 53.5681L44.6251 53.4735V53.1455L43.2668 53.2461V53.5681Z" fill="#BBCDE0"/>
<path d="M45.1184 52.552L42.6936 52.7411V52.3125L45.1184 52.1133V52.552Z" fill="#BBCDE0"/>
<path d="M45.843 85.2177C45.4788 85.1271 43.6898 84.453 43.6898 84.453C43.388 84.1935 42.6837 84.453 42.6837 84.453H39.9068C39.2528 84.2518 39.3272 84.453 39.3272 84.453L36.2344 84.3363C36.0835 84.1592 35.2786 84.2096 35.2786 84.2096H29.946L27.5695 84.0586C26.5634 83.8413 26.6016 83.4248 26.4548 82.8513C27.3442 78.6255 27.4468 73.6934 27.4951 73.136C27.5474 72.5444 27.4227 68.4736 27.4045 67.7391C27.3502 68.6024 25.5392 73.4379 25.5392 73.4379C25.5392 73.4379 20.9914 71.1479 20.8707 71.1177C20.75 71.0875 17.8523 69.8842 17.8523 69.8842L18.3654 68.8298L18.5445 67.6224L19.0878 65.0065C19.0878 65.0065 20.8345 58.6235 21.1947 56.9956C21.5549 55.3677 24.1769 54.0456 24.358 53.9551C24.5391 53.8645 29.9581 51.6309 30.4894 51.4116C34.8338 50.2847 44.0521 50.7314 44.0521 50.7314L44.4545 50.8521C45.4486 50.9125 49.0022 51.9066 49.0022 51.9066C52.1937 52.5988 52.8256 57.8991 52.8256 57.8991L53.0972 61.815L53.0368 66.574C52.7068 67.0248 46.7425 68.6809 46.7425 68.6809L46.6821 68.9525C46.8632 70.5784 48.5495 72.9871 48.5495 72.9871C48.5495 72.9871 48.5193 76.2068 48.4308 76.6917C48.3422 77.1767 49.0626 79.7644 49.123 80.2152C49.1833 80.6659 48.8433 83.9761 48.8433 83.9761L47.2556 85.0326C47.2556 85.0326 46.2132 85.3103 45.843 85.2177Z" fill="white"/>
<path d="M37.2288 35.5194C37.2288 35.5194 43.012 35.459 44.2717 34.5555L44.2959 34.6199C44.5416 34.5243 44.7758 34.4015 44.9941 34.2537C47.5839 32.4426 44.6943 29.3156 44.6943 29.3156L44.0906 29.7381C44.0906 29.7381 43.4869 28.4121 43.008 28.231C43.008 28.231 42.2252 29.6778 41.6819 29.9172L41.7423 29.1345C41.7423 29.1345 39.6938 30.5189 38.3093 30.5189C36.9249 30.5189 30.1778 31.3037 31.6829 35.7508L37.2288 35.5194Z" fill="#2C3553"/>
<path d="M44.2714 34.5552L45.5552 38.0847C45.6614 38.376 45.6823 38.6915 45.6155 38.9942L45.4143 39.9159L44.9917 41.0005L45.0521 42.9262L45.7121 44.2C45.7361 44.2462 45.7506 44.2968 45.7546 44.3487C45.7587 44.4006 45.7522 44.4527 45.7357 44.5021C45.7192 44.5515 45.6929 44.597 45.6585 44.636C45.624 44.6751 45.582 44.7067 45.5351 44.7292C45.244 44.8748 44.9419 44.9973 44.6315 45.0954L44.2532 48.5968C44.2405 48.7169 44.19 48.83 44.109 48.9196C44.0281 49.0093 43.9207 49.071 43.8025 49.0958L41.8345 49.4983C41.4997 49.5684 41.1512 49.5267 40.8424 49.3796L36.1579 47.156C35.896 47.0313 35.6718 46.8397 35.5078 46.6004C35.3438 46.3612 35.246 46.0829 35.2242 45.7937L35.0552 43.5239C35.0552 43.5239 33.4272 44.0652 32.7652 42.9202C32.7652 42.9202 31.5015 40.6926 33.1878 40.2097C33.1878 40.2097 34.1516 40.1513 34.6326 41.2339L35.1739 42.6204C35.5727 42.4202 35.9109 42.1173 36.1539 41.743C36.5865 41.079 37.2405 40.0507 37.2807 39.8495C37.3411 39.5476 37.2204 35.513 37.2204 35.513C37.2204 35.513 43.0016 35.4587 44.2714 34.5552Z" fill="#C9887E"/>
<path d="M31.5598 38.2118C31.5613 39.1663 31.7023 40.1154 31.9784 41.029L32.417 42.0875C32.2158 41.4013 32.1836 40.5018 33.1837 40.216C33.1837 40.216 34.1476 40.1557 34.6285 41.2383L35.1718 42.6247L35.7755 42.3229C35.7755 42.3229 37.2203 40.1557 37.2807 39.8538C37.2827 39.8271 37.2827 39.8001 37.2807 39.7734C36.7374 39.218 35.0149 37.8577 31.5598 38.2118Z" fill="#C9887E"/>
<path d="M31.5598 38.2118C31.5613 39.1663 31.7023 40.1154 31.9784 41.029L32.417 42.0875C32.2158 41.4013 32.1836 40.5018 33.1837 40.216C33.1837 40.216 34.1476 40.1557 34.6285 41.2383L35.1718 42.6247L35.7755 42.3229C35.7755 42.3229 37.2203 40.1557 37.2807 39.8538C37.2827 39.8271 37.2827 39.8001 37.2807 39.7734C36.7374 39.218 35.0149 37.8577 31.5598 38.2118Z" fill="url(#paint1_linear_24915_124394)"/>
<path d="M37.2825 39.835C37.2836 39.8442 37.2836 39.8535 37.2825 39.8627C37.2836 39.8535 37.2836 39.8442 37.2825 39.835Z" fill="#2C3553"/>
<path d="M37.2866 39.7778C37.2878 39.792 37.2878 39.8062 37.2866 39.8203C37.2878 39.8062 37.2878 39.792 37.2866 39.7778Z" fill="#2C3553"/>
<path d="M37.2285 35.5186L31.6867 35.758C31.6867 35.758 30.9945 36.7762 31.57 38.211C35.0271 37.8568 36.7476 39.2171 37.2969 39.7745C37.3271 39.1346 37.2285 35.5186 37.2285 35.5186Z" fill="#2C3553"/>
<path d="M37.2825 39.835C37.2836 39.8442 37.2836 39.8535 37.2825 39.8627C37.2836 39.8535 37.2836 39.8442 37.2825 39.835Z" fill="#2C3553"/>
<path d="M37.2825 39.835C37.2836 39.8442 37.2836 39.8535 37.2825 39.8627C37.2836 39.8535 37.2836 39.8442 37.2825 39.835Z" fill="#2C3553"/>
<path d="M37.2866 39.7778C37.2878 39.792 37.2878 39.8062 37.2866 39.8203C37.2878 39.8062 37.2878 39.792 37.2866 39.7778Z" fill="#2C3553"/>
<g style="mix-blend-mode:multiply" opacity="0.4">
<path d="M31.6484 36.0114C32.4533 35.9188 35.353 35.6089 37.2285 35.8746C37.2285 35.6552 37.2184 35.5244 37.2184 35.5244L31.6766 35.7639L31.6484 36.0114Z" fill="#2C3553"/>
</g>
<g style="mix-blend-mode:multiply" opacity="0.4">
<path d="M44.2715 34.5552C43.0078 35.4587 37.2285 35.5191 37.2285 35.5191C37.2285 35.5191 37.2285 35.6499 37.2386 35.8672C37.2386 35.8672 42.5872 35.9034 44.4063 34.9093L44.2715 34.5552Z" fill="#C9887E"/>
</g>
<g style="mix-blend-mode:multiply" opacity="0.4">
<path d="M44.221 40.954C44.3578 41.8877 45.048 42.926 45.048 42.926L44.9877 40.9983L45.2473 40.3322L45.4123 39.9096V39.8774C44.7925 39.9398 44.052 39.811 44.221 40.954Z" fill="#C9887E"/>
</g>
<path d="M45.6096 38.9951L45.4185 39.8785L45.6096 38.9951Z" fill="#C9887E"/>
<g style="mix-blend-mode:multiply" opacity="0.4">
<path d="M43.6332 44.1621C43.6332 44.1621 43.1502 45.0193 44.0256 45.0656C44.0256 45.0656 43.436 45.2487 43.3172 44.6893C43.2892 44.5775 43.3068 44.4592 43.366 44.3603C43.4253 44.2614 43.5214 44.1901 43.6332 44.1621Z" fill="#C9887E"/>
</g>
<path d="M42.535 39.9614C42.535 39.9614 42.8952 39.9775 42.8348 40.1627C42.7745 40.3478 42.6698 40.704 42.6698 40.704C42.6698 40.704 40.7421 40.6436 40.231 40.718L39.5991 40.6738C39.7717 40.4677 39.9754 40.2898 40.2028 40.1466C40.5006 39.9775 41.2995 39.9614 42.535 39.9614Z" fill="#2C3553"/>
<g style="mix-blend-mode:multiply" opacity="0.4">
<path d="M34.4113 41.2919C34.4113 41.2919 34.039 40.6882 33.4172 40.7285C32.7954 40.7687 32.3447 41.473 32.9081 42.4228C32.9081 42.4228 32.7069 41.3644 33.1576 41.0887C33.5601 40.8392 33.8418 40.9438 34.4113 41.2919Z" fill="#C9887E"/>
</g>
<path d="M33.6063 51.5045C33.6024 51.9385 33.701 52.3673 33.8941 52.7561L34.1094 53.1948C34.6125 54.2009 35.7937 53.8468 36.5422 54.698L37.4337 55.4767C37.3874 55.4344 37.7093 57.6902 38.0575 58.1571L38.7799 59.1813L38.9066 58.809C38.9058 58.8144 38.9058 58.8198 38.9066 58.8251C38.9308 58.6239 39.1079 57.2314 39.3554 56.9517C39.6029 56.672 40.1261 55.0078 40.3615 54.8288C40.597 54.6497 43.5952 52.7964 42.575 49.9349L42.6535 49.3312L41.8264 49.5023C41.4919 49.5721 41.1436 49.5312 40.8344 49.3856L36.1498 47.16C35.888 47.0353 35.6637 46.8436 35.4998 46.6044C35.3358 46.3652 35.238 46.0869 35.2161 45.7977L35.0471 43.5278C34.5783 43.6715 34.0799 43.6888 33.6023 43.5781L33.6305 48.0756L33.6063 51.5045Z" fill="#C9887E"/>
<g style="mix-blend-mode:multiply">
<g style="mix-blend-mode:multiply">
<path d="M46.6034 68.749C46.6437 68.5092 46.6437 68.2644 46.6034 68.0246C46.5692 67.753 46.5149 67.4873 46.4646 67.2197C46.4143 66.9521 46.3801 66.6623 46.3539 66.3786C46.3237 66.0445 46.2976 65.7105 46.2915 65.3724C46.2783 64.745 46.339 64.1182 46.4726 63.5051C46.5411 63.2113 46.6376 62.9275 46.7262 62.6398C46.7866 62.4385 46.8429 62.2373 46.9093 62.0542C47.0562 61.6296 47.2856 61.1225 47.7685 61.0118L47.7062 60.9776C47.7399 61.1626 47.7363 61.3524 47.6955 61.5359C47.6547 61.7194 47.5776 61.8929 47.4687 62.0462C47.2425 62.3801 46.998 62.7012 46.7363 63.008C46.604 63.1701 46.4869 63.3439 46.3861 63.5272C46.3791 63.5377 46.3764 63.5504 46.3783 63.5629C46.3803 63.5753 46.3868 63.5866 46.3967 63.5944C46.4066 63.6023 46.419 63.6061 46.4316 63.6052C46.4442 63.6043 46.4559 63.5987 46.4646 63.5896C47.0471 63.1042 47.6775 62.6795 48.3461 62.3218C48.5473 62.2172 48.7485 62.1206 48.9497 62.0301C49.0101 62.0039 48.9497 61.9174 48.8994 61.9435C48.1949 62.2544 47.5285 62.6454 46.9133 63.1086C46.7363 63.2414 46.5612 63.3783 46.3901 63.5111L46.4686 63.5735C46.676 63.2263 46.9159 62.8995 47.185 62.5975C47.4533 62.3026 47.6587 61.9562 47.7887 61.5793C47.8476 61.372 47.8524 61.1531 47.8028 60.9434C47.799 60.9311 47.7906 60.9206 47.7794 60.9143C47.7682 60.9079 47.7549 60.9061 47.7424 60.9092C47.3097 61.0078 47.0602 61.4042 46.9013 61.7866C46.8236 61.9841 46.7564 62.1856 46.7 62.3903C46.6216 62.6478 46.533 62.8994 46.4606 63.1589C46.3026 63.755 46.2155 64.3676 46.201 64.9841C46.1912 65.3244 46.2006 65.665 46.2292 66.0043C46.2533 66.3182 46.2754 66.6341 46.3237 66.944C46.372 67.2539 46.4384 67.5477 46.4867 67.8496C46.5445 68.1318 46.5513 68.4221 46.5069 68.7068C46.4948 68.7712 46.5914 68.7973 46.6055 68.735L46.6034 68.749Z" fill="#E5EFF9"/>
</g>
</g>
<g style="mix-blend-mode:multiply">
<path d="M46.4651 67.471L53.0895 65.4849" stroke="#E5EFF9" stroke-miterlimit="10"/>
</g>
<g style="mix-blend-mode:multiply">
<path d="M18.4575 68.3438L26.1665 71.7787" stroke="#E5EFF9" stroke-miterlimit="10"/>
</g>
<g style="mix-blend-mode:multiply">
<g style="mix-blend-mode:multiply">
<path d="M27.4206 67.9228C27.5062 67.0771 27.4339 66.2228 27.2073 65.4034C27.1066 65.0492 26.943 64.7158 26.7243 64.4194C26.4891 64.12 26.2189 63.8498 25.9194 63.6145C25.5935 63.3509 25.2473 63.1155 24.9032 62.876C24.865 62.8499 24.8187 62.8941 24.8288 62.9324C25.03 63.7152 25.5753 64.341 26.0362 64.9789C26.1649 65.16 26.2897 65.3431 26.4004 65.5342C26.4077 65.5443 26.4185 65.5513 26.4307 65.5539C26.4429 65.5565 26.4556 65.5544 26.4663 65.5481C26.4771 65.5419 26.4852 65.5319 26.489 65.52C26.4928 65.5081 26.492 65.4953 26.4869 65.4839C26.0844 64.7998 25.5291 64.2243 25.1648 63.522C25.0613 63.3268 24.9809 63.1201 24.9254 62.9062L24.8529 62.9626C25.4566 63.3831 26.0885 63.8017 26.5654 64.3712C27.0423 64.9406 27.2576 65.7657 27.324 66.5263C27.3592 66.9905 27.3592 67.4566 27.324 67.9208C27.324 67.9852 27.4206 67.9852 27.4246 67.9208L27.4206 67.9228Z" fill="#E5EFF9"/>
</g>
</g>
<g style="mix-blend-mode:multiply">
<g style="mix-blend-mode:multiply">
<path d="M48.2516 77.5454C47.945 78.3314 47.5671 79.0878 47.1228 79.8051C46.6901 80.5437 46.2414 81.2761 45.8752 82.0508C45.6681 82.4822 45.4965 82.9298 45.362 83.389C45.3597 83.3984 45.3602 83.4083 45.3634 83.4175C45.3666 83.4266 45.3724 83.4347 45.38 83.4406C45.3877 83.4466 45.3969 83.4502 45.4065 83.451C45.4162 83.4519 45.4259 83.4499 45.4345 83.4453C46.567 82.7731 47.5762 81.9122 48.4187 80.8998C48.6581 80.6262 48.8915 80.3464 49.1189 80.0647C49.1592 80.0144 49.0888 79.944 49.0485 79.9943C48.2436 81.0004 47.3683 81.9744 46.3259 82.7471C46.0249 82.9677 45.7103 83.1693 45.3842 83.3508L45.4586 83.4071C45.7139 82.5879 46.0637 81.8011 46.501 81.0628C46.9215 80.3183 47.3783 79.5959 47.7747 78.8493C47.9943 78.4371 48.1866 78.0109 48.3502 77.5735C48.3724 77.5112 48.2738 77.485 48.2516 77.5454Z" fill="#E5EFF9"/>
</g>
</g>
<g style="mix-blend-mode:multiply" opacity="0.4">
<g style="mix-blend-mode:multiply" opacity="0.4">
<path d="M33.6062 43.5796C34.0838 43.6903 34.5822 43.673 35.051 43.5293V44.3342L33.6062 43.5796Z" fill="#C9887E"/>
</g>
<g style="mix-blend-mode:multiply" opacity="0.4">
<path d="M44.4002 46.7378L43.7301 46.768C43.6466 46.7729 43.5658 46.7991 43.4953 46.8442C43.4249 46.8893 43.3671 46.9517 43.3277 47.0255L43.2231 47.2268C43.2102 47.2513 43.2035 47.2785 43.2035 47.3062C43.2035 47.3339 43.2102 47.3612 43.2231 47.3857C43.2361 47.4108 43.2553 47.4321 43.2789 47.4476C43.3025 47.4631 43.3297 47.4723 43.3579 47.4743C43.5853 47.4964 43.8831 47.5487 43.9113 47.6876C43.9555 47.9129 44.1286 48.2268 42.7804 48.8627C41.245 49.5851 35.8239 46.7398 35.7374 46.3333C35.6509 45.9268 35.0613 43.5322 35.0613 43.5322L35.2303 45.8021C35.2521 46.0913 35.35 46.3696 35.5139 46.6088C35.6779 46.848 35.9022 47.0397 36.164 47.1644L40.8486 49.3899C41.1578 49.5356 41.506 49.5765 41.8406 49.5067L43.8086 49.1042C43.927 49.0796 44.0345 49.018 44.1155 48.9283C44.1966 48.8386 44.2469 48.7254 44.2594 48.6052L44.4002 46.7378Z" fill="#C9887E"/>
</g>
</g>
<path d="M35.2163 45.8001C35.2382 46.0893 35.336 46.3676 35.5 46.6069C35.6639 46.8461 35.8882 47.0378 36.15 47.1624L40.8346 49.388C41.1438 49.5336 41.4921 49.5746 41.8266 49.5047L43.7946 49.1023C43.913 49.0777 44.0205 49.0161 44.1015 48.9264C44.1826 48.8367 44.233 48.7235 44.2454 48.6032L44.5975 45.3413C44.181 45.293 43.189 45.1864 42.861 45.2749C42.4585 45.3876 40.245 46.766 40.245 46.766C40.245 46.766 38.9571 46.6292 38.0778 46.11C37.1984 45.5909 36.2486 43.6571 36.2486 43.6571L35.7737 42.3169L35.1701 42.6187L35.0493 43.5222L35.2163 45.8001Z" fill="#2C3553"/>
<g style="mix-blend-mode:multiply" opacity="0.4">
<path d="M44.5934 35.4561C44.7946 36.3193 45.3983 39.2794 44.6276 40.0058L44.5813 40.4082L45.2232 40.3922L45.4104 39.9112L45.6116 38.9896C45.6784 38.6868 45.6574 38.3713 45.5512 38.0801L44.5934 35.4561Z" fill="#C9887E"/>
</g>
<path d="M45.223 40.3969L45.4102 39.9159L45.4303 39.8193C45.1868 39.765 44.4825 39.6483 44.2954 40.0809L44.2048 40.3969H45.223Z" fill="#2C3553"/>
<g style="mix-blend-mode:multiply" opacity="0.4">
<path d="M45.2147 44.7938C45.2147 44.7938 44.0838 44.6127 44.1744 45.4719L44.2206 46.0132L44.5205 46.0736L44.6271 45.0956C44.8346 45.0352 45.0366 44.9571 45.2308 44.8622L45.2147 44.7938Z" fill="#C9887E"/>
</g>
<g style="mix-blend-mode:multiply">
<g style="mix-blend-mode:multiply">
<path d="M48.9941 51.9072C49.0568 51.9386 49.1254 51.9564 49.1954 51.9596C49.131 51.9334 49.0626 51.9173 48.9941 51.9072Z" fill="#FFF2D5"/>
</g>
<g style="mix-blend-mode:multiply">
<path d="M48.8173 51.8525C48.0868 51.6512 45.3059 50.8986 44.4466 50.8463L44.0442 50.7256C44.0442 50.7256 44.4064 51.4098 44.8229 52.1865C46.4307 51.9873 48.1754 51.7498 48.8173 51.8525Z" fill="#E5EFF9"/>
</g>
</g>
<g style="mix-blend-mode:multiply" opacity="0.4">
<path d="M42.6616 49.3333L41.8346 49.5044C41.5 49.5753 41.1515 49.5343 40.8425 49.3877L36.158 47.1621C36.158 47.1621 39.2891 49.4581 41.1383 50.3435C41.306 50.4237 41.455 50.5383 41.5756 50.6797C41.6962 50.8211 41.7858 50.9863 41.8386 51.1645C41.9461 51.4977 42.0948 51.816 42.2813 52.1123C42.2813 52.1123 42.1606 52.4463 42.7622 52.4081C42.8525 51.9558 42.8756 51.4927 42.8307 51.0337C42.8307 50.9613 42.8146 50.8888 42.8045 50.8144V50.7842C42.7944 50.7178 42.7824 50.6514 42.7683 50.583C42.7242 50.3665 42.665 50.1533 42.5912 49.9451L42.6616 49.3333Z" fill="#C9887E"/>
</g>
<g style="mix-blend-mode:multiply" opacity="0.4">
<path d="M33.6062 43.5806L33.6344 48.078L33.6062 51.5049C35.5018 49.0399 33.6062 43.5806 33.6062 43.5806Z" fill="#C9887E"/>
</g>
<path d="M37.2866 39.7778C37.2878 39.792 37.2878 39.8062 37.2866 39.8203C37.2878 39.8062 37.2878 39.792 37.2866 39.7778Z" fill="#2C3553"/>
<g style="mix-blend-mode:multiply" opacity="0.4">
<path d="M36.8801 38.1083L37.2826 39.7745C37.3228 39.1346 37.2142 35.5186 37.2142 35.5186C37.2142 35.5186 36.4052 35.6071 36.8801 38.1083Z" fill="#2C3553"/>
</g>
<g style="mix-blend-mode:multiply" opacity="0.4">
<path d="M42.0078 32.2595C42.0078 32.2595 43.6056 30.7443 44.1287 29.706L44.0845 29.7381C44.0845 29.7381 43.4808 28.4121 43.0019 28.231C43.0019 28.231 44.0845 29.7381 42.0078 32.2595Z" fill="#2C3553"/>
</g>
<g style="mix-blend-mode:multiply" opacity="0.4">
<path d="M40.7417 30.4063C41.0875 30.3037 41.4101 30.1349 41.6915 29.9092H41.6754L41.7358 29.1265C41.7358 29.1265 41.3736 30.0903 40.7417 30.4063Z" fill="#2C3553"/>
</g>
<g style="mix-blend-mode:multiply" opacity="0.4">
<path d="M44.2894 34.6194C44.5351 34.5238 44.7693 34.4009 44.9876 34.2531C45.9938 33.5508 46.1749 32.6433 46.0139 31.8042C45.6316 33.2631 44.2753 34.4201 41.8706 33.5448C38.484 32.3254 37.2183 35.5188 37.2183 35.5188C37.2183 35.5188 43.0015 35.4585 44.2612 34.555L44.2894 34.6194Z" fill="#2C3553"/>
</g>
<g style="mix-blend-mode:multiply" opacity="0.4">
<path d="M33.3788 31.8752C33.5246 31.7711 33.6595 31.6524 33.7813 31.521C32.1715 32.2816 30.9319 33.5836 31.6664 35.7588L33.0327 35.7005L33.6847 35.624C33.6847 35.624 30.5878 33.9076 33.3788 31.8752Z" fill="#2C3553"/>
</g>
<path d="M59.1364 59.6418C59.1364 59.6418 59.1364 58.4707 59.2591 58.1306C59.3819 57.7905 59.7521 56.1827 59.2591 56.0056C59.2591 56.0056 58.4281 55.7239 58.1987 56.7743C57.9693 57.8247 57.7781 58.5954 57.7781 58.5954C57.7781 58.5954 57.3937 59.7243 57.271 60.004C57.1483 60.2837 56.4339 61.8895 56.5204 63.1291C56.5204 63.1291 55.6753 63.934 55.5626 64.8576C55.0319 65.4564 54.3955 65.9523 53.6851 66.3205C52.6166 66.8276 50.5259 67.8237 49.7813 69.194C49.0368 70.5644 47.7691 72.9892 50.5339 74.2428C53.2988 75.4965 55.6169 70.8018 55.6169 70.8018C55.6169 70.8018 57.108 68.0189 58.0819 67.2462C58.0819 67.2462 59.0881 65.4975 59.3859 64.7127C59.6837 63.9279 61.4465 60.1791 61.4465 60.1791L61.6477 58.4344L62.3037 56.2793L62.5049 54.422C62.5127 54.3449 62.4995 54.2672 62.4666 54.197C62.4338 54.1269 62.3825 54.0669 62.3183 54.0236C62.2541 53.9802 62.1794 53.9551 62.1021 53.9508C62.0247 53.9466 61.9477 53.9634 61.8791 53.9994C61.7327 54.0671 61.6146 54.1838 61.5451 54.3294C61.4275 54.7056 61.3632 55.0964 61.3539 55.4905C61.3539 55.4905 60.6798 55.9332 60.6013 56.6013C60.5228 57.2693 60.4383 57.6335 60.4383 57.6335C60.4383 57.6335 59.8346 57.6657 59.6334 58.4787C59.4322 59.2917 59.3638 59.5533 59.3638 59.5533L59.1364 59.6418Z" fill="#C9887E"/>
<g style="mix-blend-mode:multiply" opacity="0.4">
<path d="M61.215 55.7121C61.1808 55.7423 61.4685 55.5652 61.5732 55.7886L61.708 55.6799C61.708 55.6799 61.5329 55.4385 61.215 55.7121Z" fill="#C9887E"/>
</g>
<g style="mix-blend-mode:multiply" opacity="0.4">
<path d="M60.6979 57.8396C60.6875 57.7789 60.6546 57.7245 60.6057 57.6872C60.5568 57.6498 60.4956 57.6324 60.4343 57.6384C60.4693 57.6814 60.4928 57.7325 60.5027 57.7871C60.5125 57.8416 60.5084 57.8977 60.4907 57.9503L60.6979 57.8396Z" fill="#C9887E"/>
</g>
<g style="mix-blend-mode:multiply" opacity="0.4">
<path d="M62.4965 54.4711V54.4187C62.5032 54.3567 62.4961 54.2939 62.4758 54.2348C62.4555 54.1758 62.4226 54.1219 62.3792 54.077C62.3358 54.0321 62.2831 53.9973 62.2248 53.975C62.1665 53.9526 62.104 53.9434 62.0417 53.9479C62.1564 54.0143 62.3999 54.1914 62.3194 54.455L62.4965 54.4711Z" fill="#C9887E"/>
</g>
<g style="mix-blend-mode:multiply" opacity="0.4">
<path d="M59.2588 58.1323C59.3856 57.7922 59.7518 56.1844 59.2588 56.0073C59.2588 56.0073 59.1803 57.4843 58.9509 57.7178C58.7215 57.9512 58.6068 57.9472 58.6068 57.9472C58.6068 57.9472 58.965 58.2973 58.8885 58.6414C58.8236 58.9544 58.8113 59.2761 58.8523 59.5932C58.8825 59.73 58.5887 60.4283 58.4619 60.6999C57.8617 61.5454 57.2134 62.3557 56.5201 63.1267L56.3188 63.3119C57.4276 62.4385 57.9287 61.9657 58.5022 60.9756C58.7383 60.572 58.937 60.1477 59.0958 59.7079L59.136 59.6435V59.5912C59.1964 59.406 59.1622 58.41 59.2588 58.1323Z" fill="#C9887E"/>
</g>
<path d="M53.7244 66.3003L53.696 66.3162L53.7244 66.3003Z" fill="#C9887E"/>
<path d="M50.5377 74.2441C47.7648 72.9904 49.0406 70.5636 49.7851 69.1933C50.5297 67.8229 52.6204 66.8289 53.6889 66.3218L53.0289 66.5733C52.6989 67.0241 46.7345 68.6802 46.7345 68.6802L46.7205 68.7486C46.9037 69.6486 47.1851 70.5258 47.5596 71.3645C47.9117 72.0286 48.2739 72.588 48.443 72.8415C48.9525 73.5442 49.6948 74.0434 50.5377 74.2501V74.2441Z" fill="#C9887E"/>
<g style="mix-blend-mode:multiply" opacity="0.4">
<path d="M61.9793 55.0291C61.9008 55.6911 61.8284 56.814 61.8284 56.814C61.8284 56.814 61.8284 55.6871 61.7419 55.6972C61.6553 55.7072 61.3072 56.2666 61.2831 56.7274C61.2589 57.1883 61.0295 58.7961 61.0295 58.7961C61.0295 58.7961 60.8645 59.1784 60.8283 59.2186L60.6572 59.442L60.6975 57.8322C60.6975 57.8322 60.1562 57.961 60.0616 58.3896C59.967 58.8182 59.8725 60.3314 59.8604 60.5628C59.7976 61.095 59.653 61.6142 59.4318 62.1022C59.3251 62.2833 58.808 63.0098 58.3592 63.8207H58.329C58.329 63.8207 56.6971 66.4024 55.6427 65.8471C55.6427 65.8471 55.9063 67.4327 57.5362 66.5695C57.5592 66.5582 57.5849 66.5534 57.6104 66.5557C57.636 66.558 57.6604 66.5671 57.6811 66.5822C57.7018 66.5974 57.718 66.6178 57.7279 66.6415C57.7378 66.6651 57.7411 66.691 57.7374 66.7164C57.7153 66.9012 57.6308 67.0729 57.498 67.2033C57.1338 67.5313 54.6265 69.3082 53.8437 71.0005C53.0609 72.6928 51.4853 73.5078 51.0466 73.0651C50.608 72.6224 49.9177 71.2661 50.0747 68.7467C49.966 68.8836 49.8685 69.029 49.7829 69.1814C49.7125 69.3142 49.636 69.4551 49.5596 69.6019C49.4771 69.6019 48.2959 69.6925 47.8431 68.3523C47.1831 68.5435 46.7323 68.6683 46.7323 68.6683L46.6941 68.8433C46.8432 69.5542 47.0588 70.2495 47.338 70.92C47.6795 71.6098 48.0668 72.276 48.4971 72.9142C48.6722 73.1536 49.2618 73.8458 50.4912 74.21L50.5355 74.2322C53.3104 75.4838 55.6185 70.7912 55.6185 70.7912C55.6185 70.7912 57.1096 68.0062 58.0835 67.2355C58.0835 67.2355 59.0897 65.4869 59.3875 64.7021C59.6853 63.9173 61.4481 60.1684 61.4481 60.1684L61.6493 58.4238L62.3053 56.2687L62.5065 54.355C62.3636 54.3912 62.0356 54.524 61.9793 55.0291Z" fill="#C9887E"/>
</g>
<g style="mix-blend-mode:multiply">
<g style="mix-blend-mode:multiply">
<path d="M47.6927 62.7427C47.6927 62.7427 47.1514 62.3804 47.572 62.0203C47.9926 61.6601 47.7531 60.9658 47.7531 60.9658C47.7531 60.9658 46.7289 61.4166 46.429 63.5556C46.2484 65.3235 46.3366 67.1085 46.6906 68.8499L46.7289 68.6748C46.7289 68.6748 47.1796 68.5501 47.8396 68.3589C47.6646 67.7687 47.6145 67.1484 47.6927 66.5378C48.0006 63.2236 47.6927 62.7427 47.6927 62.7427Z" fill="#E5EFF9"/>
</g>
</g>
<g style="mix-blend-mode:multiply">
<path d="M53.0472 65.1563L53.0895 61.8099L52.8178 57.894C52.8178 57.894 52.349 53.96 50.1777 52.4287L50.5902 52.9257C50.5902 52.9257 52.4134 55.8214 51.5582 58.4997C51.5112 58.6455 51.4973 58.7998 51.5175 58.9516C51.5377 59.1033 51.5914 59.2487 51.6749 59.3771C52.1386 60.076 52.341 60.9161 52.2463 61.7496C52.1457 62.5223 52.7555 64.5225 53.0472 65.1563Z" fill="#E5EFF9"/>
</g>
<g style="mix-blend-mode:multiply">
<path d="M50.2257 67.6452L47.7587 60.9624C47.7587 60.9624 45.8913 61.6848 45.344 64.9366C45.1065 66.3654 46.6982 75.1469 46.6982 75.1469C46.6982 75.1469 47.2415 78.942 46.6982 80.0246L46.1569 81.1093C46.1569 81.1093 43.9897 85.0835 47.2415 82.0128C47.3694 83.0156 47.3592 84.0311 47.2114 85.0312H47.2415L48.8292 83.9747C48.8292 83.9747 49.1693 80.6666 49.1089 80.2138C49.0486 79.761 48.3262 77.1733 48.4167 76.6903C48.5073 76.2074 48.5354 72.9857 48.5354 72.9857C48.5354 72.9857 46.8492 70.571 46.668 68.9511L46.7284 68.6795C46.7284 68.6795 48.5455 68.1724 50.2257 67.6452Z" fill="#E5EFF9"/>
</g>
<path d="M22.9091 75.8971C22.9091 75.8971 22.2128 73.6152 21.0135 72.7258C19.8142 71.8364 17.4578 71.3735 17.4578 71.3735C17.4578 71.3735 16.1438 70.6008 15.4456 70.3674C15.4456 70.3674 14.4394 68.164 12.5841 68.2807L11.3486 68.2062L10.2277 67.512C10.2277 67.512 8.10077 66.2362 6.97994 65.9263C5.8591 65.6164 5.4325 64.7653 4.96767 64.6123C4.50283 64.4594 3.2673 64.0308 3.11236 64.6123C3.11236 64.6123 2.89905 65.0148 3.382 65.5199L3.88507 65.9223C3.88507 65.9223 3.2673 65.9605 3.42023 66.3469L2.43623 65.4575C2.43623 65.4575 1.56693 65.1295 1.35363 65.1878C1.35363 65.1878 0.562808 64.8598 0.232796 65.053C-0.0972164 65.2462 -0.15356 65.6909 0.580919 66.1738C1.3154 66.6568 2.70789 67.6609 3.32566 68.1459C3.94342 68.6308 5.23329 69.6148 6.59358 70.2326C7.95388 70.8504 9.49327 71.5285 11.1554 71.7981C11.1554 71.7981 12.0831 72.6292 12.4111 72.8606C12.7391 73.092 13.4373 73.9633 13.707 74.4704C13.9766 74.9775 15.9205 76.6155 16.337 77.0401C16.7535 77.4647 18.5988 79.5353 20.2026 79.2254C21.8064 78.9155 22.6958 76.9214 22.9091 75.8971Z" fill="#C9887E"/>
<g style="mix-blend-mode:multiply" opacity="0.4">
<path d="M9.92411 67.3297C9.29628 66.9695 7.84141 66.1606 6.98016 65.9211C5.85932 65.6112 5.43272 64.76 4.96789 64.6071C4.89544 64.5829 4.80288 64.5508 4.69824 64.5186C4.83709 64.6836 5.27576 65.249 5.16106 65.5931C5.16106 65.5931 5.18119 66.0559 5.43071 65.9593C5.58667 65.8969 5.75629 65.8765 5.92261 65.9002C6.08893 65.9238 6.24612 65.9907 6.37849 66.0942C6.66825 66.3457 7.6925 66.4242 8.29216 66.7522C8.80949 67.013 9.35787 67.2071 9.92411 67.3297Z" fill="#C9887E"/>
</g>
<g style="mix-blend-mode:multiply" opacity="0.4">
<path d="M14.9911 69.9792C14.83 69.5841 14.5494 69.2491 14.1887 69.0211C13.8279 68.7931 13.4049 68.6834 12.9788 68.7075C12.836 68.7075 12.6971 68.7276 12.5764 68.7437C11.8419 68.8423 10.9525 68.454 10.4897 68.454C10.0872 68.4644 9.68665 68.396 9.31047 68.2527C9.07906 68.138 8.18964 67.5182 8.18964 67.5182C8.18964 67.5182 7.71474 66.7979 7.44711 66.7979C7.32436 66.7979 7.22576 66.9226 7.15332 67.0574C7.10511 67.1484 7.08385 67.2513 7.09205 67.3539C7.10025 67.4566 7.13756 67.5548 7.1996 67.637C7.37467 67.8704 7.63425 68.2105 7.75498 68.3453C7.95621 68.5465 9.07101 69.5245 9.45737 69.7177C9.84372 69.9108 11.041 70.3354 11.6226 70.7801C12.3308 71.2827 13.1558 71.5958 14.0192 71.6897C14.812 71.746 15.3916 71.0115 15.2165 70.5487C15.1662 70.4199 15.0937 70.2046 14.9911 69.9792Z" fill="#C9887E"/>
</g>
<g style="mix-blend-mode:multiply" opacity="0.4">
<path d="M4.56525 65.9514C4.52623 65.9382 4.48362 65.9404 4.44619 65.9576C4.40875 65.9748 4.37934 66.0057 4.36402 66.044C4.31407 66.197 4.22696 66.3353 4.11048 66.4464C4.09978 66.4542 4.09122 66.4646 4.08559 66.4765C4.07997 66.4885 4.07745 66.5017 4.07828 66.5149C4.07917 66.5281 4.08331 66.5409 4.09033 66.5521C4.09735 66.5633 4.10704 66.5727 4.11852 66.5793C4.34967 66.7059 4.55839 66.8697 4.73629 67.0642C4.98783 67.3741 4.9677 67.4908 5.27759 67.8188C5.52133 68.0607 5.79131 68.2747 6.0825 68.4567C6.23838 68.7173 6.42632 68.9573 6.64191 69.1711C6.84314 69.3059 7.87946 69.8271 8.47912 69.4608C8.47912 69.4608 6.7385 67.6619 6.1972 67.2171C6.18714 67.2171 5.14478 66.1426 4.56525 65.9514Z" fill="#C9887E"/>
</g>
<g style="mix-blend-mode:multiply" opacity="0.4">
<path d="M1.12236 65.9805C0.848688 65.6143 1.28736 65.2621 1.56103 65.1957C1.49456 65.1829 1.42627 65.1829 1.3598 65.1957C1.1858 65.1258 1.00603 65.0713 0.822528 65.0327C0.781138 65.2431 0.722587 65.4497 0.647461 65.6505C0.66677 65.8339 0.748461 66.0051 0.878872 66.1354C1.09217 66.3367 3.76044 68.0873 3.76044 68.0873C3.76044 68.0873 1.47048 66.4433 1.12236 65.9805Z" fill="#C9887E"/>
</g>
<g style="mix-blend-mode:multiply" opacity="0.4">
<path d="M6.11067 68.8101C5.7112 68.6152 5.33517 68.3756 4.98983 68.0957C4.58738 67.7275 3.42227 66.3551 3.42227 66.3551L2.43827 65.4657C2.43827 65.4657 2.26924 65.4033 2.06198 65.3369C2.03179 65.7172 1.57098 65.9285 1.58708 65.9305C2.20485 66.007 2.37992 66.4839 2.41815 66.4517C2.74171 66.787 3.08366 67.1041 3.4424 67.4015C3.4424 67.4015 4.35194 68.1159 4.50689 68.2909C4.66183 68.466 5.58748 69.45 5.89737 69.3735C6.20725 69.2971 6.11067 68.8101 6.11067 68.8101Z" fill="#C9887E"/>
</g>
<path d="M20.867 71.1144C20.7905 71.0962 19.5973 70.6032 18.736 70.2471L18.082 71.5188C18.8648 71.72 20.205 72.1225 21.0139 72.7262C22.2213 73.6156 22.9095 75.8975 22.9095 75.8975C22.6962 76.9218 21.8067 78.9159 20.203 79.2218L20.1044 79.2359C20.5079 79.2871 20.9177 79.2192 21.2831 79.0404C21.6485 78.8616 21.9537 78.5798 22.1609 78.2298C22.9437 76.9258 24.6742 74.004 25.123 73.2353C24.0021 72.6638 20.9656 71.1405 20.867 71.1144Z" fill="#C9887E"/>
<g style="mix-blend-mode:multiply">
<path d="M24.8711 62.9243C24.8711 62.9243 24.7826 68.124 23.0601 72.1949L25.5352 73.4384C25.5352 73.4384 27.1691 69.0758 27.3784 67.8987C27.3784 67.8463 27.3945 67.794 27.4005 67.7397C27.4005 67.7357 27.8835 64.4738 24.8711 62.9243Z" fill="#E5EFF9"/>
</g>
<g style="mix-blend-mode:multiply" opacity="0.4">
<path d="M23.0622 72.1948C22.7949 72.8385 22.4724 73.4579 22.0984 74.0461C21.8271 73.5391 21.4586 73.0905 21.0138 72.7261C19.8064 71.8366 17.4581 71.3738 17.4581 71.3738C17.4581 71.3738 16.1461 70.6031 15.4458 70.3677C15.5488 70.8914 15.6254 71.4199 15.6752 71.9513C15.7336 72.7442 15.965 72.724 17.0093 73.6135C18.0537 74.5029 18.0718 75.3159 18.2066 76.0101C18.3415 76.7043 19.4643 79.4511 21.5128 78.0022C22.2222 77.4064 22.8744 76.7455 23.4607 76.0282C24.1549 74.8591 24.8572 73.6718 25.1188 73.2251L23.0622 72.1948Z" fill="#C9887E"/>
</g>
<g style="mix-blend-mode:multiply">
<g style="mix-blend-mode:multiply" opacity="0.4">
<path d="M26.9201 64.6709L26.8738 64.8721C27.318 65.755 27.5009 66.7463 27.401 67.7296C27.4191 68.464 27.5439 72.5349 27.4915 73.1265C27.4694 73.382 27.3406 74.5532 27.1213 76.1449C27.5813 74.3249 27.9361 72.48 28.1838 70.6192C28.6365 67.3351 26.9201 64.6709 26.9201 64.6709Z" fill="#E5EFF9"/>
</g>
</g>
<path d="M29.6647 104.11L31.2242 104.643C32.7601 105.137 34.3236 105.54 35.9068 105.85L38.3074 99.9341L37.5025 106.124C39.6091 106.45 41.7376 106.614 43.8693 106.613C45.4994 106.612 47.1281 106.517 48.7471 106.327L49.6787 92.0662L47.92 86.2306L44.9419 85.8281C45.0525 85.9448 45.1612 86.0555 45.2598 86.1441C43.3341 86.307 38.6837 86.3453 38.6837 86.3453C38.6837 86.3453 35.4198 86.2648 34.5867 86.2648C33.7536 86.2648 33.6611 85.8905 33.6611 85.8905L27.4794 86.0555L26.932 88.5306C26.932 88.5306 26.4652 91.1606 26.272 91.714C26.107 92.1909 24.7407 99.6645 24.3604 101.745C26.0706 102.657 27.8431 103.447 29.6647 104.11Z" fill="#084E8A"/>
<g style="mix-blend-mode:multiply" opacity="0.4">
<path d="M35.9064 105.849L38.307 99.9332L37.5021 106.123C38.2325 106.236 38.965 106.324 39.7055 106.407L41.0457 97.2166L39.3031 96.1924L35.1799 105.696C35.4174 105.749 35.6629 105.801 35.9064 105.849Z" fill="#084E8A"/>
</g>
<path d="M45.9537 84.4597H43.6899C43.3881 84.2001 42.6838 84.4597 42.6838 84.4597H39.9069C39.2529 84.2585 39.3273 84.4597 39.3273 84.4597L36.2345 84.343C36.0836 84.1659 35.2786 84.2162 35.2786 84.2162H29.9461L27.5696 84.0593C27.3684 84.019 27.5294 84.0774 27.3684 84.019L27.3905 86.0313L33.6286 86.0675C34.0438 86.326 34.5261 86.4562 35.015 86.4418C35.8864 86.4418 39.2911 86.5223 39.2911 86.5223L47.9077 86.2144V84.5764L47.6803 84.6469C47.3976 84.7349 47.0961 84.7432 46.809 84.671L45.9537 84.4597Z" fill="#2C3553"/>
<g style="mix-blend-mode:multiply" opacity="0.4">
<path d="M34.7172 84.2092C34.7172 84.2092 33.0752 84.6117 33.3087 85.4166C33.3626 85.6988 33.5109 85.9543 33.7292 86.141C33.7292 86.141 32.9062 85.9257 33.0068 85.2254C33.1074 84.5251 34.0311 84.1348 34.7172 84.2092Z" fill="#2C3553"/>
</g>
<g style="mix-blend-mode:multiply" opacity="0.4">
<path d="M41.623 85.4434C41.623 85.5078 41.5466 85.5601 41.45 85.5601C41.3534 85.5601 41.2749 85.5078 41.2749 85.4434C41.2749 85.379 41.3534 85.3247 41.45 85.3247C41.5466 85.3247 41.623 85.377 41.623 85.4434Z" fill="#2C3553"/>
</g>
<g style="mix-blend-mode:multiply" opacity="0.4">
<path d="M44.4953 85.3626C44.5049 85.4013 44.5023 85.4419 44.4877 85.479C44.4731 85.516 44.4473 85.5476 44.4139 85.5693C44.3805 85.5909 44.3411 85.6016 44.3014 85.5999C44.2616 85.5981 44.2234 85.584 44.192 85.5594C44.1606 85.5349 44.1377 85.5012 44.1265 85.463C44.1152 85.4248 44.1161 85.384 44.1292 85.3464C44.1422 85.3088 44.1666 85.2762 44.1991 85.2531C44.2315 85.23 44.2704 85.2177 44.3102 85.2177C44.3538 85.2131 44.3975 85.2257 44.432 85.2527C44.4666 85.2798 44.4893 85.3192 44.4953 85.3626Z" fill="#2C3553"/>
</g>
<g style="mix-blend-mode:multiply" opacity="0.4">
<g style="mix-blend-mode:multiply" opacity="0.4">
<path d="M32.5335 88.6615C33.0692 88.4883 33.6205 88.3676 34.1796 88.3013C34.7798 88.2219 35.386 88.1983 35.9906 88.2308C36.3062 88.2475 36.6199 88.2906 36.9283 88.3596L36.9062 88.2751C36.7056 88.4649 36.4742 88.6194 36.222 88.7319C35.9269 88.8691 35.6223 88.9848 35.3105 89.078C34.6545 89.2792 33.9824 89.4302 33.3243 89.6294C33.0028 89.7184 32.6897 89.8356 32.3886 89.9795C32.3303 90.0077 32.3886 90.0962 32.4389 90.066C33.0214 89.8094 33.6281 89.6119 34.25 89.4764C34.9114 89.3251 35.559 89.1185 36.1858 88.8587C36.4765 88.7367 36.743 88.5636 36.9726 88.3476C36.979 88.3416 36.9837 88.334 36.9862 88.3255C36.9886 88.3171 36.9887 88.3081 36.9864 88.2996C36.9841 88.2911 36.9796 88.2834 36.9732 88.2773C36.9669 88.2712 36.959 88.267 36.9505 88.265C36.3803 88.147 35.7975 88.101 35.2159 88.1282C34.6076 88.1439 34.0017 88.2112 33.4048 88.3294C33.1005 88.3903 32.8001 88.4696 32.5053 88.5669C32.445 88.587 32.4711 88.6836 32.5315 88.6635L32.5335 88.6615Z" fill="#3A3B6C"/>
</g>
</g>
<g style="mix-blend-mode:multiply" opacity="0.4">
<g style="mix-blend-mode:multiply" opacity="0.4">
<path d="M38.8726 98.3902C39.0524 98.5353 39.2458 98.6626 39.4501 98.7705C39.6976 98.9093 39.9512 99.0401 40.2007 99.1729C40.458 99.3106 40.7079 99.4617 40.9493 99.6257C41.1641 99.7662 41.3539 99.9417 41.5107 100.145C41.5867 100.242 41.6411 100.354 41.6702 100.474C41.6994 100.593 41.7026 100.718 41.6797 100.839L41.7421 100.803C40.9372 100.503 40.1705 100.109 39.3475 99.8571C39.1089 99.7848 38.8664 99.7263 38.6211 99.682C38.5587 99.67 38.5305 99.7666 38.5949 99.7786C39.4542 99.9336 40.245 100.294 41.0439 100.63C41.2652 100.724 41.4886 100.817 41.716 100.901C41.729 100.905 41.7428 100.903 41.7544 100.896C41.766 100.889 41.7746 100.878 41.7783 100.865C41.887 100.358 41.5349 99.9476 41.1586 99.6579C40.6769 99.3163 40.1682 99.0148 39.6373 98.7564C39.3914 98.6344 39.1588 98.4874 38.9431 98.3177C38.8948 98.2755 38.8223 98.3459 38.8726 98.3881V98.3902Z" fill="#3A3B6C"/>
</g>
</g>
<g style="mix-blend-mode:multiply" opacity="0.4">
<path d="M41.45 86.8013L41.2749 97.1645" stroke="#3A3B6C" stroke-miterlimit="10"/>
</g>
<g style="mix-blend-mode:multiply" opacity="0.4">
<path d="M39.4414 86.4321L39.2905 95.1533C39.2905 95.1533 39.373 96.2097 39.9928 96.5116C40.6126 96.8134 41.2686 97.2159 41.2686 97.2159" stroke="#3A3B6C" stroke-miterlimit="10"/>
</g>
<g style="mix-blend-mode:multiply" opacity="0.4">
<path d="M35.0151 86.4495C34.5262 86.4639 34.0439 86.3337 33.6286 86.0752L27.4791 86.041L27.4167 86.2684H33.6226C33.6226 86.2684 34.4275 86.6849 34.83 86.6548C35.009 86.6317 35.1902 86.6317 35.3692 86.6548L35.5242 86.4535L35.0151 86.4495Z" fill="#084E8A"/>
</g>
<g style="mix-blend-mode:multiply" opacity="0.4">
<path d="M47.9137 86.2222L39.2972 86.53C39.2972 86.53 37.4519 86.4858 36.1299 86.4636V86.6548H39.1362C39.3032 86.7058 39.4753 86.7382 39.6493 86.7514C39.8064 86.7571 39.9624 86.7246 40.1041 86.6568H40.2872L47.96 86.3489L47.9137 86.2222Z" fill="#084E8A"/>
</g>
<path d="M39.9173 84.4546C39.4786 84.3138 39.3679 84.3621 39.3418 84.4084C39.3156 84.4547 39.3418 84.4365 39.3418 84.4546L39.3015 86.5313C39.3015 86.5644 39.3147 86.5961 39.3381 86.6195C39.3615 86.6429 39.3932 86.6561 39.4263 86.6561H39.879C39.9121 86.6561 39.9439 86.6429 39.9673 86.6195C39.9907 86.5961 40.0038 86.5644 40.0038 86.5313V84.4546H39.9173Z" fill="#CEDCEA"/>
<path d="M43.0779 84.3583V85.125H42.5809C42.5275 85.125 42.4764 85.1462 42.4386 85.184C42.4009 85.2217 42.3797 85.2729 42.3797 85.3262C42.3797 85.3796 42.4009 85.4308 42.4386 85.4685C42.4764 85.5063 42.5275 85.5275 42.5809 85.5275H43.0779V85.944C43.078 86.0744 43.0267 86.1997 42.9352 86.2926C42.8437 86.3856 42.7194 86.4389 42.589 86.441L40.458 86.4773C40.4417 86.4773 40.4256 86.4805 40.4105 86.4868C40.3955 86.4931 40.3819 86.5023 40.3705 86.5139C40.359 86.5255 40.35 86.5393 40.344 86.5544C40.3379 86.5695 40.335 86.5857 40.3352 86.602V86.8616C40.3352 86.8949 40.3483 86.9268 40.3716 86.9505C40.395 86.9743 40.4267 86.9878 40.46 86.9884H42.8848C43.0088 86.9882 43.1284 86.9423 43.2208 86.8596L43.422 86.6765C43.4729 86.6305 43.514 86.5747 43.5427 86.5125C43.5714 86.4502 43.5872 86.3828 43.5891 86.3143L43.6233 84.4127C43.4518 84.3373 43.2609 84.3183 43.0779 84.3583Z" fill="#CEDCEA"/>
<g style="mix-blend-mode:multiply" opacity="0.4">
<path d="M35.4173 84.2866C35.4173 84.2866 34.9444 85.7234 35.4756 86.9871L35.4173 84.2866Z" fill="#084E8A"/>
</g>
<path d="M35.2891 84.2089L35.3917 87.0865C35.6745 87.1371 35.9645 87.131 36.2449 87.0683V84.3357C36.2449 84.3357 36.0095 84.1345 35.2891 84.2089Z" fill="#084E8A"/>
<g style="mix-blend-mode:multiply" opacity="0.4">
<path d="M28.7995 86.4883C28.7995 86.4883 27.6244 93.7828 26.8738 97.1211" stroke="#3A3B6C" stroke-miterlimit="10"/>
</g>
<g style="mix-blend-mode:multiply" opacity="0.4">
<path d="M32.2501 86.2681C32.2501 86.2681 31.0629 92.2324 27.8513 92.0654" stroke="#3A3B6C" stroke-miterlimit="10"/>
</g>
<path d="M46.6858 86.3486C46.6858 86.3486 47.8529 91.3431 49.666 92.0655" stroke="#3A3B6C" stroke-miterlimit="10"/>
<path d="M33.6064 51.5051L33.6305 48.0702V47.8589C33.2402 47.9213 32.057 48.1969 32.4795 49.2232C32.7975 49.9979 33.3408 51.2777 33.699 51.9679C33.699 51.9076 33.6064 51.5755 33.6064 51.5051Z" fill="#2C3553"/>
<path d="M42.6495 49.4019L42.5791 49.9432C42.7803 50.5066 42.7039 51.4383 42.6938 51.9554L42.7924 51.7804C42.7924 51.7804 43.2089 49.8989 43.2673 49.6152C43.2673 49.583 43.2794 49.5508 43.2874 49.5206L42.6495 49.4019Z" fill="#2C3553"/>
<path d="M43.4266 49.5376L43.2435 49.5054L42.9336 50.8818C42.9336 50.8818 42.8069 52.1113 41.6397 53.5099C40.992 53.9027 40.3097 54.2355 39.6013 54.5039C39.6013 54.5039 38.6958 54.9567 38.5952 55.9367L38.068 54.5039C37.9473 54.3403 37.79 54.2072 37.6086 54.1153C37.4273 54.0234 37.2269 53.9752 37.0236 53.9747C37.0236 53.9747 35.0496 53.7051 33.8925 52.1113C33.5049 51.5578 33.1904 50.9565 32.9568 50.3224C32.7976 49.7769 32.7229 49.2103 32.7354 48.6422L32.8763 48.0908C32.6756 48.1582 32.4842 48.2509 32.3068 48.3665C31.7675 48.7428 30.2322 51.1072 30.2322 51.1072C30.2322 51.1072 32.2444 55.6348 34.8363 57.2446L36.3455 55.1076C36.3455 55.1076 36.929 55.661 37.0135 55.987C37.098 56.313 37.577 58.7679 37.6172 59.1885C37.6575 59.6091 38.07 61.2953 38.07 61.2953V64.197H40.4102L40.1587 61.6817L39.716 59.3072C39.716 59.3072 40.0822 55.7616 41.0884 54.9567L42.4829 56.1379C42.4829 56.1379 44.8755 54.8058 45.2095 51.4855L43.4266 49.5376Z" fill="#2872B1"/>
<g style="mix-blend-mode:multiply" opacity="0.4">
<path d="M38.2343 54.9424C38.2343 54.9424 37.2564 53.4493 36.3508 55.1095C36.3508 55.1095 36.4555 55.2101 36.5822 55.3489C36.9746 54.9263 37.6809 54.377 38.2343 54.9424Z" fill="#4FA5AD"/>
</g>
<g style="mix-blend-mode:multiply" opacity="0.4">
<path d="M39.4414 54.6051C39.4414 54.6051 40.6729 54.7701 40.8802 55.1906C40.944 55.104 41.0184 55.0256 41.1015 54.9572C40.9027 54.7232 40.6319 54.5617 40.3315 54.498C40.0311 54.4343 39.7181 54.4719 39.4414 54.6051Z" fill="#4FA5AD"/>
</g>
<g style="mix-blend-mode:multiply" opacity="0.4">
<path d="M38.8139 55.2695C38.6942 55.4741 38.6194 55.7019 38.5946 55.9376L38.5664 55.8591C38.5664 55.8591 39.649 58.8956 39.8744 60.105L39.7255 59.3001C39.7255 59.3001 39.7557 59.0103 39.8221 58.5777C39.4216 57.5776 38.7475 55.7746 38.8139 55.2695Z" fill="#4FA5AD"/>
</g>
<path d="M38.2764 62.2769L40.017 63.8706" stroke="#084E8A" stroke-miterlimit="10"/>
<path d="M39.9426 62.2021L38.3489 63.9428" stroke="#084E8A" stroke-miterlimit="10"/>
<path d="M38.1985 61.9595L40.0176 61.875" stroke="#084E8A" stroke-miterlimit="10"/>
<path d="M39.3652 60.34C39.3652 60.4064 39.3455 60.4714 39.3086 60.5267C39.2717 60.5819 39.2192 60.625 39.1578 60.6504C39.0964 60.6759 39.0288 60.6825 38.9636 60.6696C38.8984 60.6566 38.8385 60.6246 38.7915 60.5776C38.7445 60.5306 38.7125 60.4707 38.6996 60.4055C38.6866 60.3403 38.6933 60.2728 38.7187 60.2114C38.7441 60.15 38.7872 60.0975 38.8425 60.0606C38.8977 60.0236 38.9627 60.0039 39.0292 60.0039C39.0734 60.0036 39.1172 60.0122 39.1581 60.0289C39.199 60.0457 39.2361 60.0705 39.2674 60.1017C39.2986 60.133 39.3234 60.1702 39.3402 60.211C39.357 60.2519 39.3655 60.2958 39.3652 60.34V60.34Z" stroke="#084E8A" stroke-miterlimit="10"/>
<path d="M38.7016 58.0591C38.702 58.1289 38.6817 58.1971 38.6432 58.2553C38.6048 58.3135 38.5499 58.3589 38.4856 58.3859C38.4213 58.4129 38.3504 58.4201 38.282 58.4068C38.2136 58.3934 38.1506 58.36 38.1012 58.3109C38.0517 58.2617 38.018 58.1989 38.0042 58.1306C37.9905 58.0622 37.9973 57.9913 38.0239 57.9268C38.0505 57.8624 38.0957 57.8073 38.1536 57.7685C38.2116 57.7297 38.2797 57.709 38.3495 57.709C38.4425 57.709 38.5318 57.7458 38.5978 57.8114C38.6637 57.877 38.7011 57.9661 38.7016 58.0591V58.0591Z" stroke="#084E8A" stroke-miterlimit="10"/>
<path d="M40.1739 55.5684C40.1739 55.6377 40.1533 55.7055 40.1148 55.7631C40.0762 55.8208 40.0214 55.8656 39.9573 55.8921C39.8932 55.9185 39.8227 55.9253 39.7547 55.9117C39.6867 55.898 39.6244 55.8644 39.5755 55.8153C39.5266 55.7661 39.4934 55.7035 39.4801 55.6355C39.4668 55.5674 39.4741 55.497 39.5009 55.433C39.5277 55.3691 39.5729 55.3145 39.6307 55.2763C39.6886 55.2381 39.7564 55.2179 39.8258 55.2183C39.8717 55.218 39.9173 55.2269 39.9598 55.2444C40.0023 55.2619 40.0409 55.2877 40.0733 55.3203C40.1057 55.3529 40.1313 55.3917 40.1485 55.4343C40.1658 55.4768 40.1744 55.5224 40.1739 55.5684Z" stroke="#084E8A" stroke-miterlimit="10"/>
<path d="M37.2693 55.8073L38.1829 55.4692" stroke="#084E8A" stroke-miterlimit="10"/>
<g style="mix-blend-mode:multiply" opacity="0.4">
<path d="M47.1735 91.825C47.2197 93.4851 46.7147 101.965 46.4772 106.531C47.2459 106.482 48.0079 106.415 48.7632 106.329L49.6727 92.0705L47.914 86.2349L46.4551 86.0337L46.4651 86.3355C46.4651 86.3355 47.105 89.2674 47.1735 91.825Z" fill="#084E8A"/>
</g>
<defs>
<filter id="filter0_d_24915_124394" x="48.0752" y="2.41699" width="55.2832" height="47.6152" filterUnits="userSpaceOnUse" color-interpolation-filters="sRGB">
<feFlood flood-opacity="0" result="BackgroundImageFix"/>
<feColorMatrix in="SourceAlpha" type="matrix" values="0 0 0 0 0 0 0 0 0 0 0 0 0 0 0 0 0 0 127 0" result="hardAlpha"/>
<feMorphology radius="2" operator="erode" in="SourceAlpha" result="effect1_dropShadow_24915_124394"/>
<feOffset dx="5" dy="8"/>
<feGaussianBlur stdDeviation="6"/>
<feColorMatrix type="matrix" values="0 0 0 0 0.815686 0 0 0 0 0.870588 0 0 0 0 0.937255 0 0 0 0.9 0"/>
<feBlend mode="normal" in2="BackgroundImageFix" result="effect1_dropShadow_24915_124394"/>
<feBlend mode="normal" in="SourceGraphic" in2="effect1_dropShadow_24915_124394" result="shape"/>
</filter>
<linearGradient id="paint0_linear_24915_124394" x1="78.0134" y1="16.7092" x2="78.973" y2="18.7486" gradientUnits="userSpaceOnUse">
<stop stop-color="#D55B17"/>
<stop offset="1" stop-color="#D99227"/>
</linearGradient>
<linearGradient id="paint1_linear_24915_124394" x1="34.4233" y1="37.6564" x2="34.4233" y2="44.8865" gradientUnits="userSpaceOnUse">
<stop stop-color="#2C2D53"/>
<stop offset="1" stop-color="#2C2D53" stop-opacity="0"/>
</linearGradient>
<clipPath id="clip0_24915_124394">
<rect width="26.4097" height="26.4097" fill="white" transform="matrix(0.859406 0.511293 -0.683401 0.730043 69.3035 0.76123)"/>
</clipPath>
</defs>
</svg>
