<svg width="40" height="40" viewBox="0 0 40 40" fill="none" xmlns="http://www.w3.org/2000/svg">
<rect x="0.75" y="3.75" width="38.5" height="25.5" rx="2.25" stroke="#313840" stroke-width="1.5"/>
<line x1="20.75" y1="30" x2="20.75" y2="37" stroke="#313840" stroke-width="1.5"/>
<line x1="10" y1="37.25" x2="31" y2="37.25" stroke="#313840" stroke-width="1.5"/>
<path d="M28.5545 15.14C28.0457 15.395 27.7066 15.905 27.7066 16.5C27.7066 17.095 28.0457 17.605 28.5545 17.86C28.8936 18.03 29.0632 18.37 28.9784 18.795C28.5545 20.155 27.7914 21.43 26.774 22.45C26.5196 22.705 26.0957 22.79 25.7565 22.535C25.2478 22.195 24.6543 22.195 24.1456 22.535C23.6369 22.79 23.2977 23.385 23.3825 23.98C23.3825 24.32 23.1282 24.66 22.789 24.745C21.9412 24.915 21.2629 25 20.4998 25C19.7367 25 19.0584 24.915 18.2954 24.745C17.9562 24.66 17.7019 24.32 17.7019 23.98C17.7019 23.385 17.4475 22.875 16.9388 22.535C16.4301 22.28 15.7518 22.28 15.3278 22.535C14.9887 22.705 14.5648 22.705 14.3104 22.45C13.293 21.43 12.5299 20.155 12.106 18.795C12.0212 18.455 12.1908 18.03 12.5299 17.86C13.0386 17.605 13.3778 17.095 13.3778 16.5C13.3778 15.905 13.0386 15.395 12.5299 15.14C12.106 14.97 11.9364 14.63 12.0212 14.205C12.4451 12.845 13.2082 11.57 14.2256 10.55C14.48 10.295 14.9039 10.21 15.2431 10.465C15.7518 10.805 16.3453 10.805 16.854 10.465C17.3627 10.21 17.7019 9.615 17.6171 9.02C17.6171 8.68 17.8714 8.34 18.2106 8.255C19.6519 7.915 21.1781 7.915 22.6194 8.255C22.9586 8.34 23.2129 8.68 23.2129 9.02C23.2129 9.615 23.4673 10.125 23.976 10.465C24.4847 10.72 25.163 10.72 25.587 10.465C25.9261 10.295 26.35 10.295 26.6044 10.55C27.6218 11.57 28.3849 12.845 28.8088 14.205C29.0632 14.63 28.8936 14.97 28.5545 15.14V15.14ZM27.2827 14.12C27.0283 13.355 26.6044 12.675 26.0109 11.995C25.0782 12.335 24.1456 12.25 23.2977 11.74C22.4499 11.315 21.9412 10.465 21.7716 9.615C20.9237 9.445 20.0759 9.445 19.3128 9.615C19.0584 10.55 18.5497 11.4 17.7019 11.825C16.854 12.25 15.9214 12.335 14.9887 11.995C14.48 12.675 14.0561 13.355 13.7169 14.12C14.48 14.715 14.9039 15.565 14.9039 16.5C14.9039 17.435 14.48 18.285 13.7169 18.88C13.9713 19.645 14.3952 20.325 14.9887 21.005C15.9214 20.665 16.854 20.75 17.7019 21.26C18.5497 21.685 19.0584 22.535 19.228 23.385C20.0759 23.555 20.9237 23.555 21.6868 23.385C21.8564 22.45 22.4499 21.685 23.2129 21.26C24.0608 20.835 24.9935 20.75 25.9261 21.005C26.4348 20.41 26.8587 19.645 27.1979 18.88C26.4348 18.285 26.0109 17.435 26.0109 16.5C26.0109 15.565 26.5196 14.715 27.2827 14.12V14.12ZM20.4998 19.56C18.8041 19.475 17.4475 18.115 17.5323 16.415C17.6171 14.715 18.9736 13.355 20.6694 13.355C22.3651 13.355 23.7217 14.8 23.7217 16.5C23.6369 18.2 22.1955 19.645 20.4998 19.56V19.56ZM20.4998 14.97C19.6519 14.97 18.9736 15.65 18.9736 16.5C18.9736 17.35 19.6519 18.03 20.4998 18.03C21.3477 18.03 22.0259 17.35 22.0259 16.5C22.1107 15.65 21.3477 14.97 20.4998 14.97Z" fill="url(#paint0_linear)"/>
<defs>
<linearGradient id="paint0_linear" x1="20.4921" y1="10.8204" x2="25.7958" y2="14.8759" gradientUnits="userSpaceOnUse">
<stop stop-color="#D55B17"/>
<stop offset="1" stop-color="#D99227"/>
</linearGradient>
</defs>
</svg>
