<svg width="80" height="80" viewBox="0 0 80 80" fill="none" xmlns="http://www.w3.org/2000/svg">
<path d="M53.4485 27.2699L53.4233 27.2949L53.4485 27.2699C41.5504 15.2895 20.9872 23.7415 20.9872 40.8134V59.9779C19.2485 59.9992 17.8485 61.4358 17.8485 63.1892V68.23C17.8485 68.6774 18.2065 69.0392 18.6508 69.0392H61.3513C61.7955 69.0392 62.1536 68.6774 62.1536 68.23V63.1892C62.1536 61.4357 60.7484 60.0043 59.0149 59.978V40.8134C59.0149 35.7006 57.0371 30.886 53.4485 27.2699ZM19.453 63.184C19.453 62.3021 20.1631 61.5909 21.0366 61.5909H58.9655C59.8389 61.5909 60.5491 62.3071 60.5491 63.184V67.4157H19.453V63.184ZM22.5917 40.8082C22.5917 25.161 41.4275 17.4482 52.3144 28.4083C55.6034 31.7221 57.4104 36.1267 57.4104 40.8082V59.9725H22.5917V40.8134V40.8082Z" fill="#313840" stroke="#313840" stroke-width="0.0784247"/>
<path d="M70.5311 38.5128H63.5322C62.4131 38.5128 62.4131 40.2239 63.5322 40.2239H70.5311C71.6503 40.2239 71.6503 38.5128 70.5311 38.5128Z" fill="#313840"/>
<path d="M16.4799 38.5128H9.46973C8.35059 38.5128 8.35059 40.2239 9.46973 40.2239H16.4799C17.5991 40.2239 17.5991 38.5128 16.4799 38.5128Z" fill="#313840"/>
<path d="M56.1776 23.5923L61.03 18.71C61.8213 17.9115 60.6231 16.7023 59.8318 17.5008L54.9793 22.3831C54.1823 23.1873 55.3919 24.3851 56.1776 23.5923Z" fill="#313840"/>
<path d="M23.8463 23.8432C24.598 23.8432 24.9824 22.9192 24.4454 22.3831L19.5873 17.5008C18.7903 16.7023 17.5977 17.9115 18.389 18.71C22.0121 22.3546 23.3771 23.8432 23.8463 23.8432Z" fill="#313840"/>
<path d="M40.848 16.8824V9.84698C40.848 8.71767 39.1523 8.71767 39.1523 9.84698V16.8824C39.1523 18.0117 40.848 18.0117 40.848 16.8824Z" fill="#313840"/>
<path fill-rule="evenodd" clip-rule="evenodd" d="M36.6181 35.4462C36.3305 33.3804 37.9227 31.5239 39.9967 31.5239L40.0034 31.5171C42.0841 31.5171 43.6764 33.3804 43.382 35.453L41.9971 45.2488C41.9235 45.7484 41.502 46.1197 41.0003 46.1197H38.9798C38.478 46.1197 38.0499 45.7484 37.983 45.2488L36.6181 35.4462ZM36.9583 51.4389C36.9583 49.8052 38.3031 48.4752 39.9556 48.4752C41.5479 48.4752 42.8926 49.7579 42.8926 51.4389C42.8926 53.1199 41.6081 54.4837 39.9556 54.4837C38.3031 54.4837 36.9583 53.0727 36.9583 51.4389Z" fill="url(#paint0_linear_10909_4737)"/>
<defs>
<linearGradient id="paint0_linear_10909_4737" x1="35.2199" y1="33.5854" x2="43.5463" y2="33.828" gradientUnits="userSpaceOnUse">
<stop stop-color="#D55B17"/>
<stop offset="1" stop-color="#D99227"/>
</linearGradient>
</defs>
</svg>
