<svg width="160" height="80" viewBox="0 0 160 80" fill="none" xmlns="http://www.w3.org/2000/svg">
<mask id="mask0" mask-type="alpha" maskUnits="userSpaceOnUse" x="58" y="17" width="81" height="54">
<path d="M70.3715 40.7187C73.538 39.2827 76.9748 38.5394 80.4518 38.5386C86.9205 38.5459 93.1221 41.1181 97.6962 45.6907C102.27 50.2634 104.843 56.4632 104.85 62.93C104.85 63.144 104.765 63.3492 104.614 63.5006C104.463 63.6519 104.257 63.7369 104.043 63.7369L103.222 66.1582L105.792 68.1756L138.08 70.9999L125.568 34.6871L102.563 17.7411L58.9747 41.4698L61.8931 47.4505C61.8789 47.2369 61.9502 47.0265 62.0913 46.8654C64.382 44.2504 67.2051 42.1548 70.3715 40.7187Z" fill="#C4C4C4"/>
</mask>
<g mask="url(#mask0)">
<path fill-rule="evenodd" clip-rule="evenodd" d="M100.338 58.9395V62.9688C100.338 63.1765 100.256 63.3757 100.109 63.5226C99.9622 63.6695 99.763 63.752 99.5553 63.752H94.2192C94.0115 63.752 93.8123 63.6695 93.6654 63.5226C93.5185 63.3757 93.436 63.1765 93.436 62.9688C93.4415 59.1915 94.8604 55.553 97.4135 52.7692C99.9666 49.9853 103.469 48.2577 107.232 47.9262C106.113 47.8057 105.034 47.4451 104.068 46.869C103.102 46.2929 102.272 45.5149 101.635 44.5883C100.997 43.6616 100.567 42.6082 100.374 41.5001C100.182 40.392 100.231 39.2553 100.518 38.1678C100.521 38.1579 100.523 38.1479 100.525 38.1379C100.528 38.1234 100.531 38.109 100.536 38.0953C100.96 36.5151 101.867 35.107 103.131 34.0684C104.395 33.0297 105.952 32.4125 107.585 32.3032C109.217 32.1939 110.842 32.598 112.234 33.4588C113.625 34.3197 114.712 35.5942 115.342 37.1038L115.348 37.113C115.35 37.116 115.35 37.1191 115.35 37.1221C115.351 37.1251 115.351 37.128 115.352 37.1309C115.811 38.2366 116.011 39.4328 115.936 40.6277C115.86 41.8226 115.512 42.9843 114.918 44.0235C114.323 45.0628 113.499 45.952 112.507 46.6227C111.515 47.2935 110.383 47.7279 109.197 47.8927C113.084 48.0619 116.756 49.7235 119.449 52.5316C122.142 55.3397 123.648 59.0781 123.654 62.9688C123.654 63.1765 123.572 63.3757 123.425 63.5226C123.278 63.6695 123.079 63.752 122.871 63.752H117.535C117.327 63.752 117.128 63.6695 116.981 63.5226C116.835 63.3757 116.752 63.1765 116.752 62.9688V58.9395C116.752 58.7318 116.835 58.5326 116.981 58.3857C117.128 58.2388 117.327 58.1563 117.535 58.1563C117.743 58.1563 117.942 58.2388 118.089 58.3857C118.236 58.5326 118.318 58.7318 118.318 58.9395V62.1856H122.066C121.866 58.7352 120.354 55.4918 117.84 53.1196C115.327 50.7475 112.001 49.4261 108.545 49.4261C105.089 49.4261 101.764 50.7475 99.2501 53.1196C96.7365 55.4918 95.225 58.7352 95.025 62.1856H98.7721V58.9395C98.7721 58.7318 98.8546 58.5326 99.0015 58.3857C99.1483 58.2388 99.3476 58.1563 99.5553 58.1563C99.763 58.1563 99.9622 58.2388 100.109 58.3857C100.256 58.5326 100.338 58.7318 100.338 58.9395ZM110.079 36.9273C111.2 37.2631 112.392 37.2767 113.52 36.9663C112.967 36.0198 112.177 35.2343 111.227 34.6879C110.277 34.1415 109.201 33.8534 108.105 33.8521C107.919 33.8521 107.736 33.864 107.554 33.8799C107.469 34.2865 107.345 34.6841 107.185 35.0674C107.956 35.9469 108.959 36.5915 110.079 36.9273ZM105.744 34.4289C105.759 34.3857 105.775 34.3425 105.791 34.2995H105.791C104.331 34.8832 103.142 35.9906 102.457 37.4049C102.732 37.3275 103 37.2269 103.258 37.1042C104.288 36.603 105.12 35.7709 105.621 34.7412C105.67 34.6398 105.707 34.5344 105.744 34.4289ZM101.915 39.1169C101.858 39.4521 101.828 39.7915 101.825 40.1316C101.825 41.029 102.017 41.9161 102.389 42.7331C102.76 43.55 103.303 44.2778 103.979 44.8673C104.656 45.4568 105.451 45.8943 106.312 46.1504C107.172 46.4065 108.077 46.4752 108.966 46.3518C109.855 46.2284 110.707 45.9159 111.465 45.4352C112.223 44.9546 112.869 44.317 113.359 43.5655C113.85 42.8139 114.174 41.966 114.309 41.0787C114.444 40.1915 114.387 39.2856 114.142 38.4221C112.793 38.8292 111.358 38.8646 109.99 38.5248C108.622 38.1849 107.371 37.4823 106.369 36.4909C105.733 37.3496 104.9 38.0433 103.941 38.5138C103.303 38.8227 102.618 39.0264 101.915 39.1169ZM101.612 63.1533C101.465 63.0064 101.382 62.8072 101.382 62.5995C101.382 62.3917 101.465 62.1925 101.612 62.0456C101.759 61.8988 101.958 61.8162 102.166 61.8162H114.925C115.133 61.8162 115.332 61.8988 115.479 62.0456C115.626 62.1925 115.709 62.3917 115.709 62.5995C115.709 62.8072 115.626 63.0064 115.479 63.1533C115.332 63.3002 115.133 63.3827 114.925 63.3827H102.166C101.958 63.3827 101.759 63.3002 101.612 63.1533Z" fill="#313840"/>
</g>
<path fill-rule="evenodd" clip-rule="evenodd" d="M90.6343 22.4126C89.6636 20.0873 87.9887 18.1245 85.845 16.8C83.7014 15.4755 81.1966 14.8559 78.6826 15.0282C76.1687 15.2006 73.7719 16.1562 71.829 17.7608C69.8862 19.3654 68.4948 21.5384 67.8505 23.9745C67.8324 24.0235 67.8194 24.0743 67.8115 24.1259C67.3442 25.9776 67.3232 27.9138 67.7502 29.7751C68.1773 31.6365 69.0402 33.3699 70.2679 34.8327C71.4956 36.2955 73.0531 37.4459 74.8122 38.1893C76.5714 38.9326 78.4819 39.2477 80.3865 39.1086C82.2912 38.9694 84.1356 38.3801 85.768 37.389C87.4005 36.3979 88.7742 35.0333 89.7764 33.4077C90.7785 31.782 91.3803 29.9416 91.5323 28.0379C91.6844 26.1342 91.3822 24.2217 90.6508 22.4575C90.649 22.4529 90.6485 22.4481 90.648 22.4433V22.4433C90.6474 22.4381 90.6469 22.4329 90.6447 22.4279C90.6435 22.4249 90.6415 22.4225 90.6394 22.4201C90.6375 22.4178 90.6356 22.4155 90.6343 22.4126ZM88.8443 22.2939C86.846 22.9641 84.6916 23.014 82.6643 22.4372C80.637 21.8604 78.8316 20.6839 77.4853 19.0621C77.8302 18.293 78.077 17.4835 78.2199 16.6528C80.3572 16.3752 82.5278 16.7691 84.4314 17.7798C86.3349 18.7904 87.8771 20.368 88.8443 22.2939ZM76.5483 16.9965C76.4085 17.57 76.2093 18.1273 75.954 18.6594C75.1073 20.3998 73.7012 21.8058 71.9607 22.6524C71.2396 22.999 70.4731 23.2418 69.6839 23.3735C70.2587 21.8531 71.1775 20.4863 72.3683 19.38C73.5591 18.2737 74.9898 17.458 76.5483 16.9965ZM79.5019 37.571C77.9481 37.5721 76.4135 37.2281 75.0088 36.564C73.6042 35.8999 72.3645 34.9321 71.3793 33.7306C70.3941 32.5291 69.688 31.1239 69.312 29.6163C68.9359 28.1088 68.8993 26.5365 69.2047 25.0131C70.3986 24.9038 71.5633 24.5817 72.6437 24.062C74.2821 23.2622 75.6766 22.0385 76.6825 20.518C78.2644 22.2429 80.3167 23.4669 82.5862 24.039C84.8557 24.611 87.243 24.506 89.4535 23.737C89.9864 25.3154 90.1353 26.9982 89.888 28.6457C89.6407 30.2932 89.0043 31.858 88.0314 33.2104C87.0585 34.5628 85.7773 35.6639 84.2939 36.4222C82.8106 37.1805 81.1678 37.5744 79.5019 37.571ZM80.2054 39.8852C76.8316 39.8859 73.497 40.6074 70.4246 42.0012C67.3522 43.395 64.6129 45.429 62.3903 47.9671C62.2534 48.1234 62.1842 48.3276 62.1979 48.5349C62.2117 48.7422 62.3072 48.9356 62.4635 49.0725C62.6198 49.2094 62.8241 49.2785 63.0314 49.2648C63.2387 49.2511 63.432 49.1555 63.5689 48.9992C66.4871 45.665 70.3399 43.2846 74.6274 42.1667C78.915 41.0489 83.4396 41.2452 87.6143 42.7301C91.7889 44.2151 95.4211 46.9202 98.0396 50.4946C100.658 54.069 102.142 58.3478 102.299 62.7759H95.3535V57.1205C95.3535 56.9128 95.2709 56.7136 95.1241 56.5667C94.9772 56.4198 94.778 56.3373 94.5702 56.3373C94.3625 56.3373 94.1633 56.4198 94.0164 56.5667C93.8695 56.7136 93.787 56.9128 93.787 57.1205V63.5591C93.787 63.7669 93.8695 63.9661 94.0164 64.113C94.1633 64.2598 94.3625 64.3424 94.5702 64.3424H103.096C103.304 64.3424 103.503 64.2598 103.65 64.113C103.797 63.9661 103.879 63.7669 103.879 63.5591C103.872 57.2826 101.376 51.2651 96.9376 46.8269C92.4994 42.3887 86.4819 39.8923 80.2054 39.8852ZM82.7561 44.9259C83.0932 45.4304 83.2731 46.0235 83.2731 46.6303C83.2722 47.4436 82.9487 48.2235 82.3736 48.7986C81.7984 49.3738 81.0186 49.6973 80.2053 49.6981C79.5985 49.6981 79.0054 49.5182 78.5008 49.1811C77.9963 48.844 77.6031 48.3649 77.3709 47.8043C77.1387 47.2437 77.078 46.6269 77.1963 46.0318C77.3147 45.4367 77.6069 44.89 78.0359 44.461C78.465 44.0319 79.0116 43.7397 79.6067 43.6214C80.2019 43.503 80.8187 43.5637 81.3793 43.7959C81.9399 44.0281 82.419 44.4214 82.7561 44.9259ZM78.9569 45.7961C78.7919 46.043 78.7038 46.3333 78.7038 46.6303C78.7042 47.0283 78.8626 47.41 79.144 47.6915C79.4255 47.973 79.8072 48.1313 80.2053 48.1317C80.5022 48.1317 80.7925 48.0436 81.0394 47.8787C81.2863 47.7137 81.4788 47.4792 81.5924 47.2048C81.706 46.9305 81.7358 46.6286 81.6778 46.3374C81.6199 46.0461 81.4769 45.7786 81.2669 45.5686C81.0569 45.3586 80.7894 45.2156 80.4982 45.1577C80.2069 45.0998 79.905 45.1295 79.6307 45.2431C79.3563 45.3568 79.1218 45.5492 78.9569 45.7961ZM67.9765 62.9686C67.9765 63.1763 68.0591 63.3755 68.2059 63.5224C68.3528 63.6693 68.552 63.7518 68.7597 63.7518H91.6505C91.8582 63.7518 92.0574 63.6693 92.2043 63.5224C92.3512 63.3755 92.4337 63.1763 92.4337 62.9686C92.4337 62.7609 92.3512 62.5617 92.2043 62.4148C92.0574 62.2679 91.8582 62.1854 91.6505 62.1854H68.7597C68.552 62.1854 68.3528 62.2679 68.2059 62.4148C68.0591 62.5617 67.9765 62.7609 67.9765 62.9686ZM77.6147 60.1875C77.5119 60.1923 77.4092 60.1767 77.3124 60.1417C77.117 60.0712 76.9576 59.9261 76.8692 59.7381C76.7808 59.5501 76.7706 59.3348 76.8409 59.1393L79.4682 51.8479C79.4704 51.8416 79.4742 51.8365 79.478 51.8314C79.4815 51.8267 79.4849 51.8221 79.4872 51.8166C79.5771 51.6335 79.725 51.4855 79.908 51.3956C79.9136 51.3932 79.9183 51.3897 79.923 51.3863C79.9282 51.3825 79.9334 51.3786 79.9397 51.3763C79.9752 51.3683 80.0111 51.363 80.0474 51.3604C80.1507 51.3293 80.261 51.3294 80.3643 51.3607C80.4 51.3633 80.4355 51.3686 80.4705 51.3764C80.4769 51.3786 80.482 51.3825 80.4871 51.3863C80.4918 51.3897 80.4965 51.3932 80.5021 51.3955C80.6849 51.4858 80.8329 51.6338 80.9231 51.8166C80.9279 51.8283 80.9378 51.836 80.9421 51.8479L83.5694 59.1393C83.6397 59.3348 83.6295 59.5501 83.5411 59.7381C83.4526 59.926 83.2932 60.0711 83.0977 60.1415C82.9023 60.2119 82.687 60.2017 82.499 60.1133C82.3111 60.025 82.1659 59.8655 82.0955 59.6701L80.2051 54.4239L78.3148 59.6701C78.28 59.767 78.2265 59.8561 78.1573 59.9322C78.0881 60.0084 78.0046 60.0701 77.9115 60.1139C77.8183 60.1577 77.7175 60.1827 77.6147 60.1875Z" fill="url(#paint0_linear)"/>
<path fill-rule="evenodd" clip-rule="evenodd" d="M42.9025 58.9394V62.9687C42.9025 63.1764 42.82 63.3756 42.6731 63.5225C42.5262 63.6694 42.327 63.7519 42.1193 63.7519H36.7832C36.5755 63.7519 36.3763 63.6694 36.2294 63.5225C36.0825 63.3756 36 63.1764 36 62.9687C36.0055 59.1914 37.4244 55.5529 39.9775 52.769C42.5306 49.9852 46.033 48.2576 49.7958 47.9261C48.6775 47.8056 47.5984 47.445 46.6324 46.8689C46.0905 46.5457 45.5914 46.1591 45.1451 45.7183C44.6299 46.4551 43.9125 47.0299 43.0769 47.3718C42.1572 47.7481 41.1417 47.8225 40.1769 47.5845C41.6991 46.5299 42.8515 45.0301 43.4801 43.2972C43.2286 42.7237 43.0464 42.1204 42.9384 41.5C42.7457 40.3919 42.7945 39.2552 43.0817 38.1677C43.0847 38.1578 43.0868 38.1478 43.0888 38.1377C43.0918 38.1232 43.0948 38.1088 43.1004 38.0952C43.524 36.515 44.4313 35.1069 45.6952 34.0683C46.9591 33.0296 48.5163 32.4124 50.1486 32.303C51.7809 32.1937 53.4065 32.5978 54.7976 33.4587C56.1887 34.3196 57.2757 35.5941 57.9062 37.1037L57.9125 37.1129C57.9137 37.1159 57.9141 37.1189 57.9144 37.122C57.9147 37.125 57.915 37.1279 57.9161 37.1308C58.3753 38.2365 58.575 39.4327 58.4997 40.6276C58.436 41.6386 58.1769 42.6259 57.7385 43.5354C58.3774 45.275 59.5364 46.7838 61.0666 47.8509C60.0692 48.0979 59.0183 48.0113 58.0747 47.6044C57.231 47.2405 56.5146 46.6385 56.0115 45.8753C55.7184 46.1473 55.4041 46.3973 55.0709 46.6226C54.0792 47.2934 52.9469 47.7278 51.7611 47.8926C55.6481 48.0618 59.3201 49.7234 62.013 52.5315C64.7059 55.3396 66.2122 59.078 66.2185 62.9687C66.2185 63.1764 66.136 63.3756 65.9891 63.5225C65.8422 63.6694 65.643 63.7519 65.4353 63.7519H60.0992C59.8915 63.7519 59.6923 63.6694 59.5454 63.5225C59.3985 63.3756 59.316 63.1764 59.316 62.9687V58.9394C59.316 58.7316 59.3985 58.5324 59.5454 58.3855C59.6923 58.2387 59.8915 58.1562 60.0992 58.1562C60.3069 58.1562 60.5062 58.2387 60.653 58.3855C60.7999 58.5324 60.8824 58.7316 60.8824 58.9394V62.1854H64.6295C64.4296 58.735 62.918 55.4916 60.4044 53.1195C57.8908 50.7474 54.5654 49.426 51.1093 49.426C47.6531 49.426 44.3277 50.7474 41.8141 53.1195C39.3005 55.4916 37.7889 58.735 37.589 62.1854H41.3361V58.9394C41.3361 58.7316 41.4186 58.5324 41.5655 58.3855C41.7123 58.2387 41.9115 58.1562 42.1193 58.1562C42.327 58.1562 42.5262 58.2387 42.6731 58.3855C42.82 58.5324 42.9025 58.7316 42.9025 58.9394ZM52.6434 36.9272C53.7638 37.263 54.956 37.2765 56.0837 36.9662C55.5314 36.0196 54.7411 35.2341 53.7911 34.6878C52.8412 34.1414 51.7648 33.8533 50.6689 33.8519C50.483 33.8519 50.2999 33.8639 50.118 33.8798C50.0328 34.2864 49.9092 34.684 49.7491 35.0673C50.5201 35.9468 51.5231 36.5913 52.6434 36.9272ZM48.3081 34.4287L48.3081 34.4286L48.3081 34.4286C48.3233 34.3854 48.3385 34.3423 48.3545 34.2994H48.3545C46.8953 34.8831 45.7065 35.9905 45.021 37.4047C45.2961 37.3274 45.564 37.2268 45.822 37.1041C46.8517 36.6028 47.6835 35.7708 48.1846 34.7411C48.2338 34.6397 48.2709 34.5342 48.3081 34.4288L48.3081 34.4287ZM44.479 39.1168C44.4217 39.452 44.3917 39.7914 44.3894 40.1314C44.3891 41.0289 44.5811 41.916 44.9527 42.7329C45.3243 43.5499 45.8667 44.2776 46.5434 44.8671C47.2201 45.4567 48.0154 45.8942 48.8755 46.1503C49.7357 46.4064 50.6408 46.4751 51.5297 46.3517C52.4187 46.2283 53.2708 45.9158 54.0287 45.4351C54.7866 44.9544 55.4327 44.3169 55.9232 43.5653C56.4138 42.8138 56.7376 41.9658 56.8726 41.0786C57.0077 40.1913 56.9509 39.2854 56.7062 38.422C55.3566 38.8291 53.9223 38.8645 52.5543 38.5246C51.1863 38.1848 49.9354 37.4821 48.9333 36.4908C48.2971 37.3495 47.4644 38.0431 46.505 38.5137C45.8666 38.8226 45.1825 39.0263 44.479 39.1168ZM44.1759 63.1532C44.029 63.0063 43.9465 62.8071 43.9465 62.5993C43.9465 62.3916 44.029 62.1924 44.1759 62.0455C44.3227 61.8986 44.522 61.8161 44.7297 61.8161H57.4895C57.6972 61.8161 57.8964 61.8986 58.0433 62.0455C58.1902 62.1924 58.2727 62.3916 58.2727 62.5993C58.2727 62.8071 58.1902 63.0063 58.0433 63.1532C57.8964 63.3 57.6972 63.3826 57.4895 63.3826H44.7297C44.522 63.3826 44.3227 63.3 44.1759 63.1532Z" fill="#313840"/>
<defs>
<linearGradient id="paint0_linear" x1="83.0184" y1="23.1859" x2="97.5593" y2="32.5791" gradientUnits="userSpaceOnUse">
<stop stop-color="#D55B17"/>
<stop offset="1" stop-color="#D99227"/>
</linearGradient>
</defs>
</svg>
