<svg width="80" height="80" viewBox="0 0 80 80" fill="none" xmlns="http://www.w3.org/2000/svg">
<path fill-rule="evenodd" clip-rule="evenodd" d="M62.7111 63.1576H72.033C72.2226 63.1576 72.4044 63.0823 72.5385 62.9482C72.6725 62.8141 72.7478 62.6323 72.7478 62.4427C72.7478 62.2532 72.6725 62.0714 72.5385 61.9373C72.4044 61.8032 72.2226 61.7279 72.033 61.7279H62.8136C62.8294 62.0658 62.8376 62.4047 62.838 62.7444C62.838 62.8928 62.7932 63.0365 62.7111 63.1576ZM60.0863 52.0435C61.9375 50.9876 64.0458 50.4198 66.2102 50.4198C69.3646 50.4198 72.3996 51.6258 74.6936 53.7908C76.9877 55.9558 78.3673 58.9159 78.5498 62.065H75.1299V59.1024C75.1299 58.9128 75.0546 58.731 74.9205 58.5969C74.7865 58.4629 74.6047 58.3876 74.4151 58.3876C74.2255 58.3876 74.0437 58.4629 73.9096 58.5969C73.7756 58.731 73.7003 58.9128 73.7003 59.1024V62.7798C73.7003 62.9694 73.7756 63.1512 73.9096 63.2853C74.0437 63.4193 74.2255 63.4946 74.4151 63.4946H79.2852C79.4748 63.4946 79.6566 63.4193 79.7906 63.2853C79.9247 63.1512 80 62.9694 80 62.7798C79.9943 59.2289 78.6195 55.817 76.1617 53.2541C73.704 50.6912 70.3526 49.1747 66.8051 49.0203C67.8874 48.8699 68.9208 48.4734 69.8259 47.8612C70.731 47.2491 71.4837 46.4375 72.0262 45.489C72.5687 44.5405 72.8865 43.4802 72.9552 42.3897C73.024 41.2992 72.8418 40.2074 72.4226 39.1983C72.4216 39.1957 72.4213 39.193 72.421 39.1903V39.1903C72.4207 39.1875 72.4205 39.1847 72.4193 39.182L72.4135 39.1736C71.8381 37.7958 70.8461 36.6326 69.5765 35.8469C68.3068 35.0612 66.8232 34.6924 65.3334 34.7921C63.8437 34.8919 62.4225 35.4552 61.2689 36.4032C60.1154 37.3512 59.2873 38.6363 58.9007 40.0784C58.8957 40.0909 58.8929 40.1041 58.8902 40.1173L58.8902 40.1173C58.8883 40.1265 58.8864 40.1356 58.8837 40.1446C58.6216 41.1372 58.577 42.1746 58.7529 43.1859C58.9289 44.1973 59.3212 45.1587 59.903 46.0044C60.4849 46.8501 61.2426 47.5602 62.1243 48.086C63.0059 48.6118 63.9908 48.9409 65.0114 49.0509C63.0063 49.2275 61.0821 49.8386 59.3641 50.8223C59.618 51.222 59.8588 51.6293 60.0863 52.0435ZM70.7502 39.0481C69.721 39.3313 68.6329 39.319 67.6104 39.0125C66.5879 38.706 65.6724 38.1177 64.9688 37.315C65.115 36.9652 65.2277 36.6023 65.3055 36.2312C65.4715 36.2167 65.6386 36.2058 65.8083 36.2058C66.8085 36.207 67.7909 36.47 68.6579 36.9686C69.5249 37.4673 70.2462 38.1842 70.7502 39.0481ZM63.6537 36.7321L63.6536 36.7322L63.6536 36.7322C63.6197 36.8285 63.5858 36.9248 63.541 37.0173C63.0836 37.9571 62.3244 38.7164 61.3847 39.1739C61.1492 39.2859 60.9047 39.3777 60.6537 39.4483C61.2792 38.1576 62.3642 37.1468 63.696 36.6142H63.696C63.6814 36.6533 63.6675 36.6927 63.6537 36.7321ZM60.0772 41.9369C60.0793 41.6265 60.1066 41.3168 60.159 41.0109C60.801 40.9283 61.4254 40.7424 62.008 40.4605C62.8837 40.031 63.6436 39.3979 64.2242 38.6142C65.1388 39.519 66.2805 40.1602 67.5291 40.4704C68.7776 40.7806 70.0867 40.7483 71.3183 40.3767C71.5417 41.1648 71.5935 41.9916 71.4703 42.8013C71.347 43.6111 71.0515 44.385 70.6038 45.0709C70.1561 45.7568 69.5664 46.3387 68.8747 46.7774C68.183 47.2161 67.4053 47.5014 66.5939 47.614C65.7826 47.7266 64.9566 47.6639 64.1715 47.4302C63.3865 47.1964 62.6607 46.7971 62.0431 46.2591C61.4255 45.721 60.9304 45.0568 60.5913 44.3112C60.2522 43.5656 60.0769 42.756 60.0772 41.9369Z" fill="#313840"/>
<path fill-rule="evenodd" clip-rule="evenodd" d="M49.8633 25.7653C48.9774 23.643 47.4488 21.8516 45.4923 20.6428C43.5358 19.434 41.2498 18.8685 38.9554 19.0258C36.661 19.1831 34.4735 20.0552 32.7003 21.5197C30.9271 22.9842 29.6572 24.9675 29.0692 27.1908C29.0527 27.2355 29.0408 27.2818 29.0336 27.329C28.6071 29.0189 28.5879 30.786 28.9777 32.4849C29.3674 34.1837 30.155 35.7657 31.2755 37.1008C32.396 38.4358 33.8175 39.4858 35.423 40.1642C37.0285 40.8427 38.7721 41.1302 40.5105 41.0032C42.2488 40.8763 43.9322 40.3384 45.422 39.4338C46.9119 38.5293 48.1657 37.2839 49.0803 35.8002C49.9949 34.3165 50.5442 32.6368 50.683 30.8994C50.8217 29.1619 50.5459 27.4164 49.8784 25.8063C49.8768 25.802 49.8763 25.7977 49.8758 25.7933L49.875 25.7869C49.8746 25.7844 49.874 25.7818 49.8729 25.7793C49.8717 25.7765 49.8699 25.7743 49.868 25.7721C49.8663 25.77 49.8645 25.7679 49.8633 25.7653ZM48.2297 25.657C46.4058 26.2686 44.4396 26.3142 42.5894 25.7877C40.7391 25.2613 39.0914 24.1875 37.8626 22.7074C38.1774 22.0054 38.4026 21.2666 38.5331 20.5085C40.4837 20.2551 42.4648 20.6146 44.2021 21.537C45.9394 22.4594 47.3469 23.8992 48.2297 25.657ZM37.0075 20.8222C36.8798 21.3455 36.698 21.8542 36.4651 22.3399C35.6923 23.9283 34.4089 25.2115 32.8205 25.9841C32.1623 26.3005 31.4628 26.522 30.7425 26.6422C31.2671 25.2546 32.1056 24.0072 33.1925 22.9975C34.2793 21.9878 35.585 21.2433 37.0075 20.8222ZM39.7031 39.6C38.285 39.6009 36.8844 39.287 35.6024 38.6809C34.3204 38.0747 33.189 37.1915 32.2898 36.0949C31.3907 34.9984 30.7462 33.7158 30.403 32.3399C30.0598 30.964 30.0264 29.5291 30.3051 28.1387C31.3948 28.039 32.4578 27.745 33.4438 27.2707C34.9391 26.5407 36.2118 25.4239 37.1299 24.0361C38.5737 25.6104 40.4468 26.7275 42.5181 27.2496C44.5893 27.7717 46.7682 27.6759 48.7856 26.974C49.272 28.4146 49.408 29.9504 49.1822 31.4541C48.9565 32.9577 48.3756 34.3859 47.4877 35.6202C46.5998 36.8545 45.4305 37.8593 44.0767 38.5515C42.7228 39.2436 41.2235 39.603 39.7031 39.6ZM40.3452 41.712C37.266 41.7127 34.2226 42.3711 31.4185 43.6432C28.6144 44.9153 26.1144 46.7717 24.0858 49.0882C23.9609 49.2308 23.8977 49.4172 23.9103 49.6064C23.9228 49.7956 24.01 49.9721 24.1526 50.097C24.2953 50.222 24.4817 50.2851 24.6709 50.2726C24.8601 50.26 25.0366 50.1728 25.1615 50.0302C27.8249 46.9871 31.3412 44.8146 35.2543 43.7943C39.1675 42.7741 43.2969 42.9532 47.107 44.3085C50.9172 45.6638 54.2321 48.1327 56.6219 51.395C59.0118 54.6572 60.3662 58.5624 60.5096 62.6038H54.1704V57.4423C54.1704 57.2527 54.0951 57.0709 53.961 56.9368C53.827 56.8028 53.6452 56.7275 53.4556 56.7275C53.266 56.7275 53.0842 56.8028 52.9501 56.9368C52.8161 57.0709 52.7408 57.2527 52.7408 57.4423V63.3186C52.7408 63.5082 52.8161 63.69 52.9501 63.8241C53.0842 63.9581 53.266 64.0334 53.4556 64.0334H61.237C61.4265 64.0334 61.6084 63.9581 61.7424 63.8241C61.8765 63.69 61.9518 63.5082 61.9518 63.3186C61.9453 57.5902 59.6668 52.0982 55.6162 48.0476C51.5656 43.997 46.0736 41.7185 40.3452 41.712ZM42.6731 46.3125C42.9808 46.773 43.145 47.3143 43.145 47.8681C43.1442 48.6104 42.8489 49.3222 42.324 49.8471C41.7991 50.372 41.0874 50.6672 40.345 50.668C39.7913 50.668 39.2499 50.5038 38.7895 50.1962C38.329 49.8885 37.9701 49.4512 37.7582 48.9396C37.5463 48.428 37.4909 47.865 37.5989 47.3218C37.7069 46.7787 37.9736 46.2798 38.3652 45.8882C38.7568 45.4966 39.2557 45.23 39.7988 45.1219C40.3419 45.0139 40.9049 45.0694 41.4165 45.2813C41.9282 45.4932 42.3655 45.8521 42.6731 46.3125ZM39.2057 47.1068C39.0551 47.3321 38.9747 47.5971 38.9747 47.8681C38.9751 48.2314 39.1196 48.5797 39.3765 48.8366C39.6334 49.0935 39.9817 49.238 40.345 49.2384C40.6161 49.2384 40.881 49.158 41.1064 49.0075C41.3317 48.8569 41.5073 48.6429 41.611 48.3925C41.7148 48.1421 41.7419 47.8666 41.689 47.6008C41.6362 47.3349 41.5056 47.0908 41.314 46.8991C41.1224 46.7075 40.8782 46.577 40.6124 46.5241C40.3466 46.4712 40.071 46.4984 39.8206 46.6021C39.5703 46.7058 39.3562 46.8814 39.2057 47.1068ZM29.1842 62.7796C29.1842 62.9692 29.2595 63.151 29.3936 63.2851C29.5276 63.4191 29.7094 63.4945 29.899 63.4945H50.7908C50.9804 63.4945 51.1622 63.4191 51.2962 63.2851C51.4303 63.151 51.5056 62.9692 51.5056 62.7796C51.5056 62.5901 51.4303 62.4082 51.2962 62.2742C51.1622 62.1401 50.9804 62.0648 50.7908 62.0648H29.899C29.7094 62.0648 29.5276 62.1401 29.3936 62.2742C29.2595 62.4082 29.1842 62.5901 29.1842 62.7796ZM37.9807 60.2414C37.8869 60.2457 37.7931 60.2315 37.7048 60.1996C37.5265 60.1353 37.381 60.0028 37.3003 59.8312C37.2196 59.6597 37.2103 59.4631 37.2745 59.2848L39.6723 52.6301C39.6744 52.6243 39.6778 52.6197 39.6813 52.615C39.6844 52.6108 39.6876 52.6065 39.6897 52.6015C39.7717 52.4344 39.9068 52.2993 40.0738 52.2172C40.0789 52.2151 40.0831 52.2119 40.0874 52.2088C40.0922 52.2053 40.0969 52.2018 40.1027 52.1997C40.135 52.1924 40.1679 52.1875 40.2009 52.1851C40.2953 52.1567 40.3959 52.1568 40.4901 52.1854C40.5228 52.1878 40.5552 52.1926 40.5871 52.1997C40.5905 52.2009 40.5935 52.2026 40.5964 52.2045C40.6028 52.2088 40.6085 52.2141 40.616 52.2172C40.7828 52.2996 40.9178 52.4347 41.0002 52.6015C41.0023 52.6066 41.0054 52.6108 41.0086 52.6151C41.012 52.6197 41.0154 52.6244 41.0175 52.6301L43.4154 59.2848C43.4795 59.4631 43.4703 59.6597 43.3895 59.8312C43.3088 60.0027 43.1633 60.1352 42.9849 60.1994C42.8066 60.2636 42.61 60.2544 42.4385 60.1737C42.2669 60.0931 42.1345 59.9476 42.0702 59.7692L40.3449 54.9811L38.6196 59.7692C38.5879 59.8576 38.5391 59.9389 38.4759 60.0084C38.4128 60.0779 38.3365 60.1343 38.2515 60.1743C38.1666 60.2142 38.0745 60.2371 37.9807 60.2414Z" fill="url(#paint0_linear)"/>
<path fill-rule="evenodd" clip-rule="evenodd" d="M6.29972 59.1023V62.7797C6.29972 62.9693 6.22441 63.1511 6.09035 63.2852C5.9563 63.4192 5.77448 63.4945 5.5849 63.4945H0.714822C0.525239 63.4945 0.343421 63.4192 0.209366 63.2852C0.0753111 63.1511 0 62.9693 0 62.7797C0.00502461 59.3323 1.3 56.0115 3.63014 53.4708C5.96027 50.9301 9.15687 49.3533 12.591 49.0508C11.5704 48.9408 10.5855 48.6117 9.70387 48.0859C9.20933 47.7909 8.7538 47.438 8.34643 47.0358C7.87622 47.7082 7.22148 48.2329 6.45884 48.5449C5.61939 48.8883 4.69258 48.9563 3.81201 48.739C5.20137 47.7765 6.25311 46.4076 6.82679 44.826C6.59735 44.3026 6.43103 43.7521 6.33253 43.1858C6.15659 42.1745 6.2012 41.1371 6.46329 40.1445C6.46598 40.1355 6.46789 40.1263 6.46979 40.1172C6.47254 40.104 6.47527 40.0908 6.48034 40.0783C6.86692 38.6362 7.69499 37.3511 8.84854 36.4031C10.0021 35.4551 11.4233 34.8918 12.913 34.792C14.4028 34.6923 15.8864 35.0611 17.1561 35.8468C18.4257 36.6325 19.4177 37.7957 19.9932 39.1734L19.9989 39.1819C20.0001 39.1846 20.0004 39.1874 20.0006 39.1902C20.0009 39.1929 20.0012 39.1956 20.0022 39.1982C20.4214 40.2073 20.6036 41.2991 20.5348 42.3896C20.4767 43.3123 20.2402 44.2133 19.8402 45.0433C20.4233 46.6311 21.4811 48.0082 22.8778 48.9821C21.9674 49.2076 21.0083 49.1285 20.1471 48.7572C19.3771 48.4251 18.7232 47.8755 18.264 47.179C17.9965 47.4273 17.7096 47.6555 17.4055 47.8611C16.5004 48.4733 15.467 48.8698 14.3847 49.0202C17.9323 49.1746 21.2836 50.6911 23.7414 53.254C26.1991 55.8169 27.5739 59.2288 27.5796 62.7797C27.5796 62.9693 27.5043 63.1511 27.3702 63.2852C27.2362 63.4192 27.0544 63.4945 26.8648 63.4945H21.9947C21.8051 63.4945 21.6233 63.4192 21.4892 63.2852C21.3552 63.1511 21.2799 62.9693 21.2799 62.7797V59.1023C21.2799 58.9127 21.3552 58.7309 21.4892 58.5968C21.6233 58.4628 21.8051 58.3875 21.9947 58.3875C22.1843 58.3875 22.3661 58.4628 22.5002 58.5968C22.6342 58.7309 22.7095 58.9127 22.7095 59.1023V62.0649H26.1294C25.9469 58.9158 24.5673 55.9556 22.2733 53.7907C19.9792 51.6257 16.9442 50.4197 13.7898 50.4197C10.6354 50.4197 7.60044 51.6257 5.30636 53.7907C3.01227 55.9556 1.63272 58.9158 1.45024 62.0649H4.87007V59.1023C4.87007 58.9127 4.94538 58.7309 5.07944 58.5968C5.21349 58.4628 5.39531 58.3875 5.58489 58.3875C5.77448 58.3875 5.95629 58.4628 6.09035 58.5968C6.2244 58.7309 6.29972 58.9127 6.29972 59.1023ZM15.19 39.0124C16.2125 39.3189 17.3006 39.3312 18.3298 39.048C17.8258 38.1841 17.1045 37.4672 16.2375 36.9685C15.3705 36.4699 14.3881 36.2069 13.3879 36.2057C13.2182 36.2057 13.0512 36.2166 12.8851 36.2311C12.8073 36.6022 12.6946 36.9651 12.5484 37.3149C13.2521 38.1176 14.1675 38.7059 15.19 39.0124ZM11.2332 36.7321L11.2333 36.732L11.2333 36.732C11.2472 36.6926 11.261 36.6532 11.2757 36.6141H11.2756C9.94382 37.1467 8.85886 38.1575 8.23326 39.4482C8.48426 39.3776 8.72881 39.2858 8.96427 39.1738C9.90402 38.7163 10.6633 37.957 11.1206 37.0172C11.1654 36.9246 11.1993 36.8284 11.2332 36.7321L11.2332 36.7321ZM7.73859 41.0108C7.68624 41.3167 7.65888 41.6264 7.65679 41.9368C7.65646 42.7559 7.83177 43.5655 8.1709 44.3111C8.51003 45.0567 9.00509 45.7209 9.6227 46.259C10.2403 46.797 10.9661 47.1963 11.7512 47.4301C12.5362 47.6638 13.3622 47.7265 14.1735 47.6139C14.9849 47.5013 15.7626 47.216 16.4543 46.7773C17.1461 46.3386 17.7357 45.7567 18.1834 45.0708C18.6312 44.3849 18.9266 43.611 19.0499 42.8012C19.1731 41.9915 19.1213 41.1647 18.898 40.3766C17.6663 40.7481 16.3572 40.7805 15.1087 40.4703C13.8601 40.1601 12.7184 39.5189 11.8038 38.6141C11.2232 39.3978 10.4633 40.0309 9.58764 40.4604C9.00499 40.7423 8.38058 40.9282 7.73859 41.0108ZM7.46195 62.9481C7.3279 62.814 7.25259 62.6322 7.25259 62.4426C7.25259 62.2531 7.3279 62.0712 7.46195 61.9372C7.59601 61.8031 7.77782 61.7278 7.96741 61.7278H19.6129C19.8025 61.7278 19.9843 61.8031 20.1184 61.9372C20.2524 62.0712 20.3277 62.2531 20.3277 62.4426C20.3277 62.6322 20.2524 62.814 20.1184 62.9481C19.9843 63.0821 19.8025 63.1575 19.6129 63.1575H7.96741C7.77782 63.1575 7.59601 63.0821 7.46195 62.9481Z" fill="#313840"/>
<defs>
<linearGradient id="paint0_linear" x1="42.9126" y1="26.4711" x2="56.1836" y2="35.0439" gradientUnits="userSpaceOnUse">
<stop stop-color="#D55B17"/>
<stop offset="1" stop-color="#D99227"/>
</linearGradient>
</defs>
</svg>
