<?xml version="1.0" encoding="utf-8"?>
<!-- Generator: Adobe Illustrator 24.1.0, SVG Export Plug-In . SVG Version: 6.00 Build 0)  -->
<svg version="1.1" id="Layer_1" xmlns="http://www.w3.org/2000/svg" xmlns:xlink="http://www.w3.org/1999/xlink" x="0px" y="0px"
	 width="200px" height="50px" viewBox="0 0 200 50" style="enable-background:new 0 0 200 50;" xml:space="preserve">
<style type="text/css">
	.st0{fill:url(#SVGID_1_);}
	.st1{fill:#97A5A6;}
	.st2{fill:#037E8A;}
	.st3{fill:#BCC4CD;}
	.st4{fill:#4FA5AD;}
	.st5{fill:url(#SVGID_2_);}
	.st6{fill:#FFFFFF;}
	.st7{clip-path:url(#SVGID_5_);fill:url(#SVGID_6_);}
	.st8{clip-path:url(#SVGID_9_);fill:url(#SVGID_10_);}
	.st9{clip-path:url(#SVGID_13_);fill:url(#SVGID_14_);}
</style>
<g>
	<defs>
		<path id="SVGID_3_" d="M39.2,25c0-4,3.3-7.3,7.3-7.3c4,0,7.3,3.3,7.3,7.3c0,4-3.3,7.3-7.3,7.3C42.5,32.4,39.2,29.1,39.2,25
			 M33.2,13.9v24.4h5.3v-2.6c2.2,1.6,4.9,2.6,7.8,2.6c0,0,0.1,0,0.1,0c0,0,0.1,0,0.1,0c7.4,0,13.3-6,13.3-13.3
			c0-7.4-6-13.3-13.3-13.3c-3,0-5.8,1-8,2.7v-0.8c0-4.6,2.6-7.7,7.8-7.7V1.4c0,0,0,0-0.1,0C37.9,1.4,33.2,6.4,33.2,13.9"/>
	</defs>
	<linearGradient id="SVGID_1_" gradientUnits="userSpaceOnUse" x1="33.2226" y1="19.8585" x2="59.8724" y2="19.8585">
		<stop  offset="0" style="stop-color:#037E8A"/>
		<stop  offset="1" style="stop-color:#4FA5AD"/>
	</linearGradient>
	<use xlink:href="#SVGID_3_"  style="overflow:visible;fill:url(#SVGID_1_);"/>
	<clipPath id="SVGID_2_">
		<use xlink:href="#SVGID_3_"  style="overflow:visible;"/>
	</clipPath>
	
		<linearGradient id="SVGID_4_" gradientUnits="userSpaceOnUse" x1="-716.5937" y1="312.6528" x2="-716.0714" y2="312.6528" gradientTransform="matrix(43.4383 75.2374 75.2374 -43.4383 7639.6558 67495.9844)">
		<stop  offset="0" style="stop-color:#037E8A"/>
		<stop  offset="1" style="stop-color:#4FA5AD"/>
	</linearGradient>
	<polygon style="clip-path:url(#SVGID_2_);fill:url(#SVGID_4_);" points="53.2,-10.2 75.9,29.1 39.9,49.9 17.2,10.6 	"/>
</g>
<path class="st1" d="M21.3,25c0,4-3.3,7.3-7.3,7.3c-4,0-7.3-3.3-7.3-7.3c0-4,3.3-7.3,7.3-7.3C18,17.7,21.3,21,21.3,25 M27.3,36.2
	V11.7H22v2.6c-2.2-1.6-4.9-2.6-7.8-2.6c0,0-0.1,0-0.1,0c0,0-0.1,0-0.1,0c-7.4,0-13.3,6-13.3,13.3c0,7.4,6,13.3,13.3,13.3
	c3,0,5.8-1,8-2.7v0.8c0,4.6-2.6,7.7-7.8,7.7v4.6c0,0,0,0,0.1,0C22.6,48.7,27.3,43.7,27.3,36.2"/>
<path class="st1" d="M81.7,21.9c0,2-1.5,3.4-3.3,3.4c-1.9,0-3.3-1.4-3.3-3.4c0-2,1.5-3.4,3.3-3.4C80.2,18.5,81.7,19.8,81.7,21.9
	 M84.7,27.5V16h-3.3v1.6c-0.8-1.1-2.1-1.8-3.8-1.8c-3.3,0-5.8,2.5-5.8,6.1c0,3.6,2.6,6.2,5.9,6.2c1.8,0,3-0.7,3.8-1.8v1.5
	c0,2.2-1.2,3.4-3.4,3.4c-1.3,0-2.8-0.5-3.9-2.1L72,31.1c1.8,2.3,4,2.9,6.1,2.9C82.2,33.9,84.7,31.6,84.7,27.5"/>
<path class="st1" d="M97.2,22.1c0,2.1-1.6,3.5-3.5,3.5c-2,0-3.5-1.4-3.5-3.5c0-2.1,1.6-3.5,3.5-3.5C95.6,18.6,97.2,20,97.2,22.1
	 M100.4,22.1c0-3.7-2.9-6.3-6.7-6.3c-3.8,0-6.7,2.7-6.7,6.3c0,3.7,2.9,6.3,6.7,6.3C97.5,28.4,100.4,25.7,100.4,22.1"/>
<path class="st2" d="M112.6,22c0,2.1-1.6,3.6-3.5,3.6c-2,0-3.5-1.5-3.5-3.6c0-2.1,1.5-3.6,3.5-3.6C111,18.5,112.6,19.9,112.6,22
	 M115.9,22c0-3.7-2.7-6.4-5.9-6.4c-1.8,0-3.2,0.7-4,1.8l0-7h-3.3v17.7h3.3v-1.6c0.9,1.1,2.2,1.8,4,1.8
	C113.2,28.4,115.9,25.7,115.9,22"/>
<path class="st2" d="M123.6,28.4c3.5,0,5.6-1.8,5.6-4.7V16h-3.3v7.5c0,1.5-1,2.1-2.4,2.1c-1.3,0-2.3-0.7-2.3-2.1V16H118v7.7
	C118,26.6,120.1,28.4,123.6,28.4"/>
<path class="st2" d="M136.1,28.4c2.7,0,4.7-1.3,4.7-3.9c0-2.5-1.9-3.3-3.5-3.8c-1.4-0.4-2.7-0.7-2.7-1.6c0-0.6,0.6-1,1.4-1
	c0.9,0,2.1,0.4,3,1l1.4-2.2c-1.3-0.8-2.8-1.3-4.3-1.3c-2.5,0-4.6,1.2-4.6,3.7c0,2.4,2,3.1,3.6,3.6c1.3,0.4,2.5,0.7,2.5,1.7
	c0,0.8-0.6,1.2-1.6,1.2c-1.2,0-2.7-0.6-3.7-1.4l-1.4,2.4C132.3,27.7,134.2,28.4,136.1,28.4"/>
<path class="st2" d="M146.5,16h-3.3v12.2h3.3V16z M146.7,12.1c0-1-0.9-1.9-1.9-1.9c-1,0-1.9,0.8-1.9,1.9c0,1,0.9,1.9,1.9,1.9
	C145.9,14,146.7,13.2,146.7,12.1"/>
<path class="st2" d="M156.6,15.7c-1.6,0-2.9,0.8-3.7,1.9V16h-3.3v12.2h3.3v-6.9c0-1.9,1-2.7,2.4-2.7c1.3,0,2.2,0.6,2.2,2.5v7.2h3.3
	v-7.8C160.8,17.4,159.2,15.7,156.6,15.7"/>
<path class="st2" d="M172.4,20.6h-6.1c0.4-1.5,1.6-2.4,3.2-2.4C171,18.1,172.2,19,172.4,20.6 M175.7,21.9c-0.1-3.8-2.8-6.2-6.3-6.2
	c-3.8,0-6.5,2.8-6.5,6.4c0,3.5,2.7,6.3,6.6,6.3c2.6,0,4.6-1.2,5.6-3.2l-2.6-1.1c-0.6,1.1-1.8,1.7-3,1.7c-1.8,0-3.2-1.2-3.4-3.2h9.5
	L175.7,21.9z"/>
<path class="st2" d="M181.8,28.4c2.7,0,4.7-1.3,4.7-3.9c0-2.5-1.9-3.3-3.5-3.8c-1.4-0.4-2.7-0.7-2.7-1.6c0-0.6,0.6-1,1.4-1
	c0.9,0,2.1,0.4,3,1l1.4-2.2c-1.3-0.8-2.8-1.3-4.3-1.3c-2.5,0-4.6,1.2-4.6,3.7c0,2.4,2,3.1,3.6,3.6c1.3,0.4,2.5,0.7,2.5,1.7
	c0,0.8-0.6,1.2-1.6,1.2c-1.2,0-2.7-0.6-3.7-1.4l-1.4,2.4C178,27.7,179.9,28.4,181.8,28.4"/>
<path class="st2" d="M192.8,28.4c2.7,0,4.7-1.3,4.7-3.9c0-2.5-1.9-3.3-3.5-3.8c-1.4-0.4-2.7-0.7-2.7-1.6c0-0.6,0.6-1,1.4-1
	c0.9,0,2.1,0.4,3,1l1.4-2.2c-1.3-0.8-2.8-1.3-4.3-1.3c-2.5,0-4.6,1.2-4.6,3.7c0,2.4,2,3.1,3.6,3.6c1.3,0.4,2.5,0.7,2.5,1.7
	c0,0.8-0.6,1.2-1.6,1.2c-1.2,0-2.7-0.6-3.7-1.4l-1.4,2.4C189,27.7,190.9,28.4,192.8,28.4"/>
<g>
	<g>
		<g>
			<g>
				<g>
					<path class="st1" d="M123.3,38.3c0,2.6-2,4.6-4.7,4.6c-2.6,0-4.6-2-4.6-4.6s2-4.6,4.6-4.6c1.7,0,3.1,0.8,3.9,2l-1.3,0.7
						c-0.6-0.8-1.5-1.3-2.6-1.3c-1.8,0-3.2,1.4-3.2,3.2c0,1.7,1.3,3.1,3.2,3.1c1.5,0,2.7-0.9,3-2.3h-2.4v-1.3h3.9
						C123.3,38,123.3,38.2,123.3,38.3z"/>
					<path class="st1" d="M125.6,38.3c0-2.6,2-4.6,4.6-4.6c2.6,0,4.7,2,4.7,4.6s-2,4.6-4.7,4.6C127.6,42.9,125.6,40.9,125.6,38.3z
						 M133.4,38.3c0-1.8-1.4-3.2-3.2-3.2c-1.8,0-3.2,1.4-3.2,3.2s1.4,3.2,3.2,3.2C132,41.5,133.4,40.1,133.4,38.3z"/>
					<path class="st1" d="M144.8,33.9l-3.4,8.9h-1.4l-3.4-8.9h1.5l2.6,7l2.6-7H144.8z"/>
					<path class="st1" d="M157.5,40.9h-4.1l-0.7,1.9h-1.5l3.5-8.9h1.6l3.5,8.9h-1.5L157.5,40.9z M157,39.6l-1.6-4.2l-1.6,4.2H157z"
						/>
					<path class="st1" d="M161.7,41.5l0.9-1.1c0.6,0.7,1.4,1.2,2.3,1.2c0.8,0,1.4-0.4,1.4-1.2c0-0.9-0.8-1.2-1.8-1.6
						c-1.2-0.5-2.4-1.1-2.4-2.6c0-1.5,1.2-2.4,2.6-2.4c1.1,0,2.1,0.5,2.8,1.2l-0.8,1c-0.7-0.7-1.4-0.9-2-0.9c-0.6,0-1.2,0.3-1.2,1
						c0,0.8,0.8,1.1,1.9,1.6c1.2,0.5,2.4,1.1,2.4,2.7c0,1.7-1.3,2.5-2.9,2.5C163.7,42.9,162.5,42.3,161.7,41.5z"/>
					<path class="st1" d="M170,41.5l0.9-1.1c0.6,0.7,1.4,1.2,2.3,1.2c0.8,0,1.4-0.4,1.4-1.2c0-0.9-0.8-1.2-1.8-1.6
						c-1.2-0.5-2.4-1.1-2.4-2.6c0-1.5,1.2-2.4,2.6-2.4c1.1,0,2.1,0.5,2.8,1.2l-0.8,1c-0.7-0.7-1.4-0.9-2-0.9c-0.6,0-1.2,0.3-1.2,1
						c0,0.8,0.8,1.1,1.9,1.6c1.2,0.5,2.4,1.1,2.4,2.7c0,1.7-1.3,2.5-2.9,2.5C172,42.9,170.8,42.3,170,41.5z"/>
					<path class="st1" d="M179,33.9h1.5v8.9H179V33.9z"/>
					<path class="st1" d="M183.3,41.5l0.9-1.1c0.6,0.7,1.4,1.2,2.3,1.2c0.8,0,1.4-0.4,1.4-1.2c0-0.9-0.8-1.2-1.8-1.6
						c-1.2-0.5-2.4-1.1-2.4-2.6c0-1.5,1.2-2.4,2.6-2.4c1.1,0,2.1,0.5,2.8,1.2l-0.8,1c-0.7-0.7-1.4-0.9-2-0.9c-0.6,0-1.2,0.3-1.2,1
						c0,0.8,0.8,1.1,1.9,1.6c1.2,0.5,2.4,1.1,2.4,2.7c0,1.7-1.3,2.5-2.9,2.5C185.3,42.9,184.1,42.3,183.3,41.5z"/>
					<path class="st1" d="M197.7,35.2h-2.3v7.5h-1.5v-7.5h-2.3v-1.3h6.2V35.2z"/>
				</g>
			</g>
		</g>
	</g>
</g>
</svg>
