<svg width="40" height="40" viewBox="0 0 40 40" fill="none" xmlns="http://www.w3.org/2000/svg">
<path d="M39.3761 13.1612C39.2958 13.1487 37.4303 12.8435 36.1763 13.9086C35.4721 14.5065 35.1139 15.3847 35.1139 16.5059V18.2498L34.5826 19.5827C34.0699 19.5267 33.5387 19.6637 33.1495 20.0623L29.6965 23.5441C28.4364 24.0486 23.7665 26.3656 23.5874 32.8059C22.8338 33.0799 22.284 33.8024 22.2717 34.6557L22.2223 37.7887C22.2161 38.206 22.5435 38.5485 22.9573 38.5548C23.3774 38.5548 23.7109 38.2309 23.7171 37.8136L23.7665 34.6744C23.7665 34.4066 23.9889 34.1886 24.2607 34.1886L31.9079 34.2696C32.1797 34.2696 32.3959 34.4938 32.3898 34.7678L32.3403 37.9008C32.3342 38.3181 32.6616 38.6607 33.0754 38.6669C33.0816 38.6669 33.0816 38.6669 33.0878 38.6669C33.4955 38.6669 33.829 38.3368 33.8352 37.9257L33.8846 34.7865C33.8908 34.2135 33.6499 33.6965 33.2731 33.3228C33.2731 33.3166 33.2731 33.3166 33.2793 33.3104L33.446 32.3574C33.5696 31.5352 33.9526 30.7629 34.5332 30.1774L37.9244 26.758C38.7213 25.9545 39.2278 24.8957 39.3514 23.7683L39.9876 19.9876C39.9938 19.944 39.9999 19.9066 39.9999 19.863V13.9086C39.9938 13.5349 39.7343 13.2234 39.3761 13.1612ZM38.4989 19.7883L37.8688 23.5316C37.8688 23.5503 37.8627 23.5628 37.8627 23.5814C37.7824 24.3725 37.4241 25.1199 36.862 25.6867L33.4708 29.1061C32.6677 29.9158 32.1303 30.9871 31.9635 32.1083L31.8524 32.7498L25.0884 32.6813C25.317 27.0819 29.4927 25.2258 30.3513 24.9019C30.4502 24.8645 30.5675 24.796 30.6416 24.7213L34.2058 21.1274C34.2923 21.0402 34.6444 21.0776 34.8297 21.2582C34.9347 21.3641 35.015 21.5323 35.0397 21.6817C35.0583 21.7939 35.0397 21.8561 35.0274 21.8686C35.0027 21.8935 34.9718 21.9247 34.9533 21.9558L32.5009 25.3503C32.26 25.6867 32.3342 26.16 32.6677 26.403C33.0013 26.6459 33.4708 26.5711 33.7117 26.2348L36.1331 22.8776C36.4666 22.5101 36.6087 21.9869 36.5222 21.4388C36.4543 20.9904 36.2381 20.5606 35.9354 20.2367L36.5593 18.6734C36.5964 18.5862 36.6149 18.4865 36.6149 18.3931V16.5059C36.6149 15.8394 36.7879 15.366 37.14 15.0608C37.5106 14.7432 38.0603 14.6373 38.5051 14.6186V19.7883H38.4989Z" fill="#313840"/>
<path d="M16.4183 32.8044C16.2452 26.3813 11.5984 24.0575 10.307 23.5404L6.85278 20.0578C6.46349 19.6653 5.93208 19.5282 5.4192 19.5843L4.88778 18.2511V16.5067C4.88778 15.3791 4.52939 14.5068 3.82495 13.9088C2.57057 12.8434 0.704433 13.1487 0.624103 13.1612C0.265707 13.2235 0 13.535 0 13.9025V19.8584C0 19.902 0.00617835 19.9457 0.0123576 19.983L0.64882 23.7647C0.772405 24.8923 1.2791 25.9514 2.07623 26.7551L5.46863 30.1754C6.04948 30.761 6.4326 31.5335 6.55618 32.3746L6.71684 33.3091C6.71684 33.3153 6.71684 33.3153 6.72302 33.3215C6.71066 33.334 6.69212 33.3464 6.67359 33.3651C6.30283 33.7452 6.09892 34.2498 6.1051 34.7918L6.15453 37.9255C6.16071 38.3367 6.49439 38.6669 6.90222 38.6669C6.9084 38.6669 6.9084 38.6669 6.91458 38.6669C7.32859 38.6607 7.65609 38.318 7.64991 37.9006L7.60047 34.7669C7.60047 34.6361 7.64991 34.5115 7.7426 34.418C7.83528 34.3246 7.95887 34.2685 8.08863 34.2685L15.7447 34.1875C16.0104 34.1875 16.2329 34.4055 16.2329 34.6797L16.2823 37.8134C16.2885 38.2308 16.6222 38.5485 17.0424 38.5547C17.4564 38.5485 17.7839 38.2059 17.7777 37.7884L17.7283 34.6547C17.7221 33.8075 17.1783 33.0848 16.4183 32.8044ZM6.52528 29.11L3.13288 25.6897C2.57057 25.1228 2.21835 24.3752 2.13184 23.584C2.13184 23.5653 2.12566 23.5528 2.12566 23.5342L1.50156 19.7899V14.619C1.94646 14.6377 2.49642 14.7436 2.86717 15.0613C3.21939 15.3666 3.39241 15.8401 3.39241 16.5067V18.3944C3.39241 18.4878 3.41094 18.5875 3.44802 18.6747L4.07212 20.2385C3.76934 20.5624 3.55307 20.9985 3.48509 21.4409C3.39859 21.9953 3.54071 22.5124 3.86821 22.88L6.29047 26.238C6.53146 26.5744 7.00109 26.6492 7.33477 26.4062C7.66844 26.1632 7.7426 25.6897 7.50161 25.3533L5.04844 21.958C5.02373 21.9268 4.99901 21.8957 4.97429 21.8707C4.91868 21.8147 4.96193 21.4658 5.17203 21.254C5.35741 21.0671 5.70962 21.0359 5.79613 21.1231L9.36156 24.7179C9.43571 24.7926 9.55312 24.8611 9.65198 24.8985C10.5109 25.2225 14.6881 27.079 14.9167 32.6798L8.14425 32.7484L8.03302 32.1254C7.86618 30.9915 7.33477 29.9199 6.52528 29.11Z" fill="#313840"/>
<path fill-rule="evenodd" clip-rule="evenodd" d="M20.0001 7.11378L22.8044 4.28985C23.7591 3.32712 25.0249 2.79999 26.3725 2.79999C29.1521 2.79999 31.4223 5.07809 31.4223 7.89076C31.4223 9.25251 30.8973 10.5281 29.9405 11.4917L20.5126 20.9855C20.37 21.1291 20.1854 21.2 20.0001 21.2C19.8148 21.2 19.6302 21.1291 19.4876 20.9855L10.0597 11.4917C9.10287 10.5281 8.57788 9.25251 8.57788 7.89076C8.57788 5.07809 10.8482 2.79999 13.6277 2.79999C14.975 2.79999 16.2391 3.32652 17.1958 4.28985L20.0001 7.11378ZM26.3725 4.27691C25.4128 4.27691 24.5075 4.65499 23.8294 5.33781L20.5126 8.67782C20.2281 8.9643 19.7721 8.9643 19.4876 8.67782L16.1708 5.33781C15.4927 4.65499 14.5874 4.27691 13.6277 4.27691C11.6391 4.27691 10.0334 5.90189 10.0334 7.89076C10.0334 8.85207 10.4068 9.76106 11.0847 10.4437L20.0001 19.4215L28.9155 10.4437C29.5934 9.76106 29.9668 8.85207 29.9668 7.89076C29.9668 5.90189 28.3611 4.27691 26.3725 4.27691Z" fill="#D45B17"/>
</svg>
