<svg width="80" height="80" viewBox="0 0 80 80" fill="none" xmlns="http://www.w3.org/2000/svg">
<path fill-rule="evenodd" clip-rule="evenodd" d="M46.464 64.6953H46.4747C46.9733 64.6953 47.489 64.6766 48.0112 64.6369C49.6846 64.5056 52.2707 63.6134 55.6987 61.9853C58.8674 60.4728 62.2736 58.515 65.0455 56.6117C65.3282 56.4164 65.4016 56.0274 65.2063 55.743C65.0891 55.5727 64.8969 55.4711 64.6907 55.4711C64.5641 55.4711 64.4422 55.5102 64.3376 55.582C61.6172 57.4492 58.2737 59.3728 55.1594 60.8572C52.0516 62.3494 49.3438 63.2947 47.9188 63.39C47.4268 63.4259 46.9407 63.4447 46.4751 63.4447C43.6297 63.4431 41.511 62.7634 39.6407 62.1634L39.4157 62.09L39.4136 62.0893C37.4736 61.4661 35.4663 60.8213 32.9391 60.8213H32.9344C30.7532 60.8213 28.386 61.3055 25.6969 62.3025C24.9938 60.7914 23.7094 58.4539 22.3438 56.2008C21.5313 54.8586 20.7391 53.6273 20.0501 52.6398C19.5079 51.8633 19.0532 51.2619 18.6579 50.7977C20.6938 49.632 22.4672 48.682 24.0782 47.8947C26.6891 46.6164 28.8735 45.7836 30.3969 45.4869C31.161 45.3322 32.3141 45.2478 33.6454 45.2478H33.6766C36.5532 45.2478 41.0266 45.6463 44.9516 46.765C46.869 47.3088 48.4705 47.9869 49.583 48.7228C50.7675 49.5062 51.4426 50.3573 51.5884 51.2546C51.5893 51.2625 51.5904 51.2705 51.5916 51.2784V51.2817C51.6199 51.4597 51.6339 51.63 51.6339 51.7878C51.6339 52.0235 51.6052 52.2287 51.5452 52.4135C51.531 52.4564 51.5149 52.4984 51.4971 52.54C51.4926 52.5503 51.4884 52.5607 51.4845 52.5711C51.4553 52.6357 51.4218 52.6978 51.3838 52.7581C51.1511 53.13 50.7246 53.4144 50.1167 53.6081C49.5246 53.7956 48.7261 53.894 47.8074 53.894H47.7824C44.6371 53.894 40.4949 52.7892 38.7261 52.3158C38.6025 52.2832 38.4889 52.2531 38.3877 52.2262L38.2246 52.1829C38.1746 52.1704 38.1214 52.1642 38.0699 52.1642C37.7839 52.1642 37.5355 52.3579 37.4652 52.6345C37.423 52.797 37.448 52.9642 37.5324 53.108C37.6183 53.2517 37.7542 53.3533 37.9152 53.3955C38.0493 53.428 38.2193 53.4736 38.4142 53.5259L38.5339 53.5579L38.5379 53.559C40.3183 54.033 44.4786 55.1406 47.7981 55.1439C49.3013 55.1392 50.3997 54.9314 51.2541 54.4861C51.7664 54.2175 52.1666 53.8611 52.44 53.4267C52.49 53.3482 52.5358 53.2667 52.5775 53.1823C55.605 50.7845 62.2198 47.9663 66.0626 47.4509H66.0657C66.4986 47.3886 66.9487 47.3558 67.3627 47.3558H67.386C68.2674 47.3558 69.0344 47.512 69.5485 47.7948C70.0658 48.0933 70.4266 48.4652 70.5065 49.3073V49.3091C70.508 49.3278 70.508 49.3481 70.508 49.37C70.5112 49.6139 70.3894 49.9638 70.1721 50.3294C69.9346 50.7374 69.558 51.2186 69.083 51.7186C68.9721 51.8358 68.9111 51.9889 68.9127 52.1514C68.9127 52.3234 68.9813 52.4842 69.108 52.6031C69.2236 52.7124 69.3768 52.7734 69.5377 52.7734C69.711 52.7734 69.8719 52.7047 69.9907 52.5781C70.5438 51.9922 70.9565 51.4641 71.2502 50.9625C71.594 50.3719 71.7565 49.8656 71.758 49.3703C71.758 49.3234 71.7566 49.275 71.7533 49.2281V49.2219C71.7174 48.65 71.5454 48.1299 71.2424 47.6781C70.9672 47.2672 70.5876 46.9295 70.1454 46.6984C69.4126 46.3031 68.5032 46.1094 67.3626 46.1063C66.8858 46.1063 66.3905 46.142 65.8922 46.2139H65.8907C62.1782 46.7405 56.4624 49.0327 52.8719 51.4342C52.8622 51.3329 52.85 51.229 52.8331 51.1236C52.8313 51.1112 52.8294 51.0987 52.8275 51.0862C52.8261 51.0772 52.8244 51.0683 52.8226 51.0594C52.6123 49.7961 51.7544 48.6592 50.2719 47.6813C48.4608 46.4906 45.7938 45.5422 42.3405 44.8625C39.5312 44.3141 36.3687 43.9984 33.6624 43.9984C32.2046 43.9998 31.0249 44.0875 30.153 44.2625C28.4812 44.5922 26.3155 45.4141 23.5296 46.7719C21.3351 47.8449 19.2378 49.0214 17.7433 49.8816C17.08 49.3411 16.3859 49.0578 15.7154 49.0578H15.6998C15.0045 49.0592 14.4607 49.3296 14.0998 49.5109C14.0998 49.5109 14.0982 49.5109 14.0982 49.5125C13.9065 49.6068 13.6602 49.7242 13.3772 49.859L13.3404 49.8765L13.2921 49.8994L13.2921 49.8994L13.292 49.8994C12.6536 50.2016 11.8697 50.5727 11.117 50.9765C10.4638 51.3265 9.94822 51.639 9.54197 51.9311C9.1154 52.2451 8.71228 52.5686 8.47478 53.042C8.47478 53.042 8.47478 53.0436 8.47322 53.0436C8.31853 53.3701 8.2404 53.75 8.24197 54.1701C8.24822 54.9248 8.46072 55.6703 8.68572 56.4578C8.77009 56.7531 8.85759 57.0593 8.93259 57.364C9.50759 59.6546 9.51697 62.4781 9.52478 65.2093V65.3734C9.53884 68.1062 9.55447 70.9342 10.306 73.1703C10.3951 73.4264 10.5185 73.7201 10.7513 73.9623C10.9498 74.1764 11.2654 74.3156 11.5545 74.3156C11.5638 74.3156 11.5717 74.3156 11.581 74.3157C11.9013 74.3111 12.1513 74.2079 12.381 74.1017C12.6023 73.9957 12.8251 73.8655 13.0613 73.7274L13.0732 73.7204L13.1217 73.6923C13.7123 73.347 14.9607 72.7564 15.9826 72.2814C16.2141 72.1732 16.4511 72.0635 16.6951 71.9505L16.6958 71.9502C16.8815 71.8642 17.0711 71.7765 17.2654 71.6861C18.881 70.939 20.7123 70.0921 22.281 69.3C23.3935 68.7375 24.242 68.2703 24.8763 67.8718C25.2498 67.6361 25.5435 67.4281 25.7716 67.2359C26.0091 67.0312 26.217 66.8375 26.3591 66.539L26.3623 66.5343C26.5123 66.197 26.5888 65.8126 26.5873 65.3937C26.586 64.8273 26.4559 64.2007 26.1837 63.4564C28.7093 62.5261 30.9252 62.0733 32.939 62.0719C35.2708 62.0719 37.1237 62.6674 39.0824 63.297L39.0968 63.3016L39.2593 63.3547L39.2603 63.355C41.1178 63.9518 43.4317 64.6953 46.464 64.6953ZM24.7921 63.3422C24.7943 63.3474 24.7965 63.3525 24.7989 63.3575C25.1548 64.1772 25.3404 64.882 25.3373 65.3936C25.3373 65.6375 25.2998 65.842 25.2232 66.0186C25.2232 66.0186 25.2232 66.0203 25.2216 66.0203L25.2201 66.0234C25.1982 66.0734 24.9795 66.2937 24.6576 66.5156C23.3935 67.4186 20.5091 68.7982 18.4498 69.7578C17.8498 70.039 17.256 70.314 16.6826 70.5781C14.867 71.4172 13.2998 72.1422 12.4904 72.6125C12.2263 72.7687 12.0107 72.8937 11.8451 72.9718C11.7373 73.025 11.6607 73.0484 11.6217 73.0578C11.6163 73.0514 11.6117 73.0435 11.6068 73.0351L11.5998 73.0234C11.5795 72.9875 11.5373 72.9076 11.4888 72.7672C10.8404 70.8686 10.781 68.2937 10.7748 65.3686C10.7732 65.2295 10.7732 65.0889 10.7732 64.9498L10.7732 64.9447C10.7623 62.2651 10.751 59.4936 10.1451 57.0592C10.0658 56.7546 9.98351 56.4594 9.90424 56.1751L9.90422 56.175L9.9029 56.1703C9.6779 55.3686 9.48415 54.6748 9.4904 54.1701C9.49197 53.9328 9.5279 53.739 9.6029 53.5796L9.60447 53.5781C9.62947 53.5 9.87634 53.2203 10.2717 52.9453C10.7717 52.5859 11.531 52.1515 12.5295 51.6546C12.9877 51.4263 13.4339 51.2145 13.8298 51.0265L13.8529 51.0156C14.1654 50.8687 14.4342 50.7406 14.6545 50.6312L14.6592 50.6296C15.0373 50.4357 15.3592 50.3076 15.6951 50.3076H15.6998C16.0295 50.3107 16.5013 50.4045 17.231 51.0998C17.6569 51.504 18.2885 52.2993 19.0135 53.3383C19.0173 53.3437 19.0211 53.3492 19.0249 53.3547C19.1668 53.5581 19.3112 53.7692 19.4574 53.9866C21.5464 57.0923 24.0078 61.4904 24.792 63.342L24.7921 63.3422ZM66.7233 54.6311C66.8421 54.7811 67.0202 54.867 67.2124 54.867C67.3544 54.867 67.4904 54.8203 67.6012 54.7313C67.8701 54.5155 67.9154 54.1217 67.6997 53.8514C67.5808 53.7031 67.4027 53.617 67.2105 53.617C67.0685 53.617 66.9341 53.6641 66.8216 53.753C66.6919 53.8577 66.6091 54.0061 66.5904 54.1719C66.5716 54.3374 66.6185 54.5014 66.7233 54.6311ZM18.7342 65.7046C17.6545 65.6999 16.7452 64.8876 16.6202 63.814C16.6124 63.7359 16.6077 63.656 16.6077 63.5763C16.6077 62.4921 17.4202 61.5763 18.4999 61.4482H18.5077C18.5795 61.4404 18.6545 61.4357 18.7295 61.4357C19.8186 61.4357 20.7327 62.2515 20.8561 63.3327C20.8655 63.4171 20.8702 63.5015 20.8702 63.5841C20.867 64.653 20.0561 65.5593 18.9842 65.6904C18.9014 65.6998 18.817 65.7046 18.7342 65.7046ZM18.6452 62.6905C18.1967 62.7437 17.8577 63.1235 17.8577 63.5765C17.8577 63.6109 17.8592 63.6452 17.8639 63.6766C17.9061 64.1063 18.2936 64.4546 18.728 64.4546H18.7342C18.7702 64.4546 18.8045 64.453 18.8358 64.4484C19.2795 64.3984 19.6233 64.0187 19.6202 63.5843C19.6202 63.5499 19.6186 63.5157 19.6139 63.4813V63.4766C19.5655 63.0266 19.1858 62.6876 18.7295 62.6876C18.703 62.6874 18.6749 62.6874 18.6452 62.6905Z" fill="#313840"/>
<path fill-rule="evenodd" clip-rule="evenodd" d="M48.3106 16.6657C47.2123 16.6657 46.2059 16.5079 45.3186 16.1985C44.3889 15.8735 43.5873 15.3798 42.9389 14.7298C42.2844 14.0782 41.7873 13.2751 41.4608 12.3423C41.1483 11.4532 40.9905 10.4423 40.992 9.33917C40.992 8.4501 41.0936 7.48604 41.2951 6.4751C41.345 6.22667 41.5389 6.03448 41.7872 5.98448C42.795 5.78448 43.7545 5.68448 44.6405 5.68448H44.6545C45.7561 5.68448 46.7639 5.84229 47.6528 6.15479C48.5841 6.48135 49.3873 6.97979 50.0389 7.63448C50.6905 8.28604 51.1858 9.0876 51.5123 10.0189C51.8233 10.9095 51.9795 11.9173 51.9795 13.0173C51.9795 13.8875 51.8807 14.8266 51.6875 15.8111V25.7218C52.3129 24.0688 53.2228 22.638 54.3951 21.4642C55.6467 20.2173 57.1873 19.2689 58.9763 18.6439C60.7029 18.0407 62.6685 17.7345 64.8215 17.7345H64.834C66.5902 17.7345 68.4918 17.9376 70.4856 18.3361C70.7324 18.3861 70.9262 18.5782 70.9748 18.8267C71.3732 20.8204 71.5748 22.722 71.5748 24.4767C71.5763 26.6314 71.2717 28.5986 70.6685 30.3251C70.0418 32.1157 69.0902 33.6595 67.8402 34.9095C66.5918 36.1611 65.0496 37.1126 63.2574 37.7392C61.5324 38.3407 59.5621 38.647 57.4043 38.647H57.3918C55.6469 38.647 53.7564 38.4485 51.7725 38.0562C51.7437 38.0515 51.7153 38.0449 51.6875 38.0363V44.2407L51.6875 44.2436C51.6875 44.3113 51.6764 44.38 51.6531 44.4473C51.5655 44.6973 51.3281 44.866 51.0625 44.866C50.9922 44.866 50.9234 44.8551 50.8562 44.8317C50.8562 44.8317 50.8517 44.8301 50.8437 44.827C50.5845 44.7379 49.8672 44.4926 48.8158 44.1504C47.6642 43.777 45.8798 43.2129 43.9172 42.649C41.1047 41.8395 35.9594 40.4801 33.1047 40.4801H33.0766C32.5969 40.4801 32.1844 40.5209 31.8859 40.5957C30.2469 41.0035 27.7703 42.1051 25.9812 42.9582C23.8062 43.9926 21.6687 45.1176 20.2594 45.877C19.4635 46.3076 18.9368 46.6012 18.8106 46.6716L18.7812 46.6879C18.6873 46.7392 18.5826 46.7673 18.4764 46.7673C18.2498 46.7673 18.0405 46.6456 17.9295 46.4485C17.8483 46.3032 17.828 46.1345 17.8733 45.9735C17.9186 45.8128 18.0233 45.6782 18.1686 45.597L18.1795 45.5909L18.1796 45.5908C18.3755 45.4814 20.5805 44.2503 23.2655 42.8971C27.0717 40.9846 29.7936 39.8346 31.5842 39.3815C31.9951 39.2799 32.4842 39.2315 33.0811 39.2315C35.3998 39.2362 39.0576 39.9612 44.2608 41.4471C46.9185 42.2093 49.2511 42.9714 50.4375 43.3688V38.4008C49.1324 38.649 47.8871 38.7751 46.7339 38.7751H46.72C45.2231 38.7751 43.8543 38.5611 42.6512 38.1376C41.3965 37.6985 40.3153 37.0282 39.4387 36.1486C38.5606 35.272 37.8934 34.1892 37.4543 32.9329C37.0324 31.7267 36.8184 30.3532 36.8199 28.8517C36.8199 27.6407 36.959 26.3282 37.2324 24.9532C37.2824 24.7032 37.4746 24.511 37.7231 24.461C39.0934 24.1892 40.4012 24.0517 41.6106 24.0501H41.6231C43.1246 24.0501 44.4981 24.2657 45.7059 24.6892C46.9621 25.1282 48.0465 25.797 48.9262 26.6751C49.5321 27.2799 50.0379 27.9825 50.4375 28.7731V16.496C49.699 16.6085 48.9913 16.6657 48.325 16.6657H48.3106ZM42.445 7.13448C42.3108 7.91104 42.2419 8.65323 42.2419 9.33917C42.2451 11.286 42.7762 12.8032 43.8216 13.8454C44.8622 14.8845 46.3762 15.4126 48.3247 15.4157C49.0106 15.4157 49.7512 15.3485 50.5262 15.2142C50.6605 14.4407 50.7294 13.7017 50.7294 13.0173C50.7261 11.0735 50.1966 9.56104 49.1544 8.51729C48.1106 7.46885 46.5919 6.93604 44.6403 6.93448C43.9576 6.93448 43.2186 7.00167 42.445 7.13448ZM66.5904 10.0345C66.5919 11.3548 67.6717 12.4313 68.9967 12.4329C70.3248 12.4313 71.4076 11.3548 71.4109 10.0345C71.4092 9.38602 71.1578 8.77821 70.6998 8.32352C70.2451 7.87196 69.6406 7.62196 68.9969 7.6204H68.9951C68.3594 7.6204 67.7406 7.87665 67.2951 8.32352C66.8467 8.7704 66.5904 9.39384 66.5904 10.0345ZM67.8405 10.0345C67.8436 9.38446 68.3514 8.87352 68.9967 8.8704C69.6483 8.87352 70.1592 9.38446 70.1608 10.0345C70.1591 10.6563 69.6262 11.1829 68.9967 11.1829C68.3608 11.1829 67.842 10.6673 67.8405 10.0345ZM53.1296 37.0308C54.626 37.2739 56.057 37.397 57.3917 37.397C61.5073 37.3939 64.7246 36.2611 66.9557 34.0267C69.1885 31.7923 70.3213 28.5798 70.3246 24.4767C70.3246 22.9236 70.1574 21.2439 69.8293 19.4829C68.0698 19.1517 66.3885 18.9845 64.8338 18.9845C60.7323 18.9861 57.5184 20.1189 55.2778 22.347C53.0465 24.5845 51.9137 27.8017 51.9104 31.9111C51.9104 33.2308 52.0315 34.6432 52.2695 36.1204L58.9011 29.2028L58.3471 22.4079C58.3346 22.2407 58.3861 22.0798 58.4938 21.9517C58.6016 21.8251 58.7532 21.747 58.9189 21.7345C59.2596 21.7079 59.5658 21.9673 59.5938 22.3064L60.0579 27.9962L63.8139 24.0782C63.9327 23.9548 64.0919 23.886 64.2655 23.886C64.4264 23.886 64.5796 23.9485 64.6967 24.0595C64.8172 24.1751 64.8858 24.3314 64.8889 24.4985C64.8935 24.6642 64.8311 24.8235 64.7155 24.9439L56.5353 33.4779L62.317 32.5689C62.6576 32.5157 62.9777 32.7517 63.0309 33.0892C63.0559 33.2532 63.0168 33.4189 62.9184 33.5548C62.8199 33.6892 62.6746 33.7782 62.5106 33.8032L55.106 34.9689L53.1296 37.0308ZM38.3809 25.6095C38.1746 26.7532 38.0699 27.8439 38.0699 28.8517C38.0731 31.6142 38.8309 33.7735 40.3229 35.2657C41.8168 36.7626 43.9729 37.522 46.7339 37.5251C47.525 37.5251 48.3681 37.4606 49.2474 37.3331L44.1963 32.0742L41.242 33.1938C41.1717 33.2204 41.0967 33.2345 41.0217 33.2345C40.7639 33.2345 40.528 33.072 40.4373 32.8298C40.3155 32.5079 40.478 32.147 40.7998 32.0251L43.2553 31.0945L41.5137 29.2814C41.2748 29.0329 41.2841 28.636 41.5325 28.3985C41.6497 28.286 41.8028 28.2235 41.9655 28.2235C42.1373 28.2235 42.2967 28.2923 42.4155 28.4157L47.1512 33.3462L47.3688 30.0188C47.3921 29.6782 47.6907 29.4126 48.0344 29.436C48.3782 29.4595 48.6391 29.7563 48.6171 30.1001L48.3238 34.567L50.1061 36.4226C50.2292 35.5616 50.2918 34.7346 50.2918 33.9564C50.2885 31.2017 49.5325 29.0501 48.0432 27.5595C46.5418 26.0626 44.3776 25.3032 41.6104 25.3017C40.6043 25.3017 39.5184 25.4048 38.3809 25.6095ZM33.0657 24.9954C31.736 24.9939 30.6532 23.9126 30.6516 22.5829C30.6516 21.9392 30.9032 21.3345 31.361 20.8829C31.8172 20.4329 32.4219 20.1845 33.0657 20.1829C33.7078 20.1845 34.311 20.4329 34.7641 20.8845C35.2188 21.336 35.4703 21.9392 35.4719 22.5829C35.4703 23.9126 34.3922 24.9939 33.0657 24.9954ZM33.0657 21.4329C32.4141 21.4345 31.9032 21.9392 31.9016 22.5829C31.9032 23.222 32.425 23.7439 33.0657 23.7454C33.7016 23.7439 34.2203 23.222 34.2219 22.5829C34.2203 21.9392 33.7125 21.4345 33.0657 21.4329ZM54.7514 15.0767C55.1092 15.4329 55.5844 15.6298 56.0889 15.6313C56.5936 15.6298 57.0669 15.4329 57.4219 15.0751C57.7781 14.7188 57.975 14.2438 57.975 13.7376C57.9734 13.236 57.7781 12.7626 57.4248 12.4048C57.0701 12.047 56.5951 11.847 56.0889 11.8454C55.0481 11.8485 54.1998 12.697 54.1983 13.7376C54.1983 14.2438 54.3951 14.7188 54.7514 15.0767ZM55.4467 13.7376C55.4483 13.3907 55.742 13.097 56.0889 13.0954C56.4326 13.097 56.7248 13.3907 56.7248 13.7376C56.7234 14.097 56.4437 14.3798 56.0889 14.3813C55.7264 14.3782 55.45 14.1017 55.4467 13.7376Z" fill="url(#paint0_linear)"/>
<defs>
<linearGradient id="paint0_linear" x1="44.6872" y1="12.5001" x2="57.9685" y2="25.7813" gradientUnits="userSpaceOnUse">
<stop stop-color="#D55B17"/>
<stop offset="1" stop-color="#D99227"/>
</linearGradient>
</defs>
</svg>
