<svg width="80" height="80" viewBox="0 0 80 80" fill="none" xmlns="http://www.w3.org/2000/svg">
<path fill-rule="evenodd" clip-rule="evenodd" d="M46.4641 64.6953H46.4748C46.9734 64.6953 47.4891 64.6765 48.0112 64.6369C49.6847 64.5056 52.2708 63.6134 55.6987 61.9853C58.8675 60.4728 62.2737 58.515 65.0456 56.6117C65.3283 56.4164 65.4017 56.0273 65.2064 55.7429C65.0892 55.5726 64.897 55.4711 64.6908 55.4711C64.5642 55.4711 64.4423 55.5101 64.3376 55.582C61.6173 57.4492 58.2737 59.3728 55.1595 60.8572C52.0517 62.3493 49.3439 63.2947 47.9189 63.39C47.4269 63.4259 46.9408 63.4447 46.4752 63.4447C43.6298 63.4431 41.5111 62.7634 39.6408 62.1634L39.4158 62.09L39.4137 62.0893C37.4737 61.4661 35.4664 60.8212 32.9392 60.8212H32.9345C30.7533 60.8212 28.3861 61.3054 25.697 62.3025C24.9939 60.7914 23.7095 58.4539 22.3439 56.2008C21.5314 54.8586 20.7392 53.6273 20.0501 52.6398C19.508 51.8633 19.0533 51.2619 18.658 50.7976C20.6939 49.632 22.4673 48.682 24.0783 47.8947C26.6892 46.6164 28.8736 45.7836 30.397 45.4869C31.1611 45.3322 32.3142 45.2478 33.6455 45.2478H33.6767C36.5533 45.2478 41.0267 45.6462 44.9517 46.765C46.8691 47.3087 48.4706 47.9868 49.5831 48.7228C50.7676 49.5062 51.4427 50.3573 51.5885 51.2546C51.5894 51.2625 51.5905 51.2705 51.5917 51.2784V51.2817C51.62 51.4596 51.634 51.63 51.634 51.7878C51.634 52.0235 51.6053 52.2287 51.5453 52.4135C51.531 52.4563 51.515 52.4984 51.4972 52.54C51.4927 52.5503 51.4885 52.5606 51.4846 52.5711C51.4554 52.6356 51.4219 52.6978 51.3839 52.7581C51.1512 53.13 50.7246 53.4143 50.1168 53.6081C49.5246 53.7956 48.7262 53.894 47.8075 53.894H47.7825C44.6371 53.894 40.495 52.7892 38.7262 52.3157C38.6026 52.2832 38.489 52.253 38.3878 52.2262L38.2247 52.1829C38.1747 52.1704 38.1215 52.1642 38.07 52.1642C37.784 52.1642 37.5356 52.3579 37.4653 52.6345C37.4231 52.797 37.4481 52.9642 37.5325 53.1079C37.6184 53.2517 37.7543 53.3532 37.9153 53.3954C38.0494 53.428 38.2194 53.4736 38.4143 53.5258L38.534 53.5579L38.538 53.559C40.3184 54.033 44.4787 55.1406 47.7982 55.1439C49.3014 55.1392 50.3998 54.9314 51.2542 54.486C51.7665 54.2175 52.1667 53.861 52.4401 53.4267C52.49 53.3482 52.5359 53.2666 52.5776 53.1822C55.6051 50.7845 62.2199 47.9663 66.0626 47.4509H66.0658C66.4987 47.3886 66.9487 47.3558 67.3628 47.3558H67.3861C68.2675 47.3558 69.0345 47.512 69.5486 47.7948C70.0659 48.0933 70.4267 48.4651 70.5066 49.3073V49.309C70.5081 49.3278 70.5081 49.3481 70.5081 49.37C70.5112 49.6139 70.3895 49.9637 70.1722 50.3294C69.9347 50.7373 69.5581 51.2186 69.0831 51.7186C68.9722 51.8358 68.9112 51.9889 68.9128 52.1514C68.9128 52.3234 68.9814 52.4842 69.1081 52.6031C69.2237 52.7123 69.3769 52.7734 69.5378 52.7734C69.7111 52.7734 69.872 52.7047 69.9908 52.5781C70.5439 51.9922 70.9566 51.464 71.2503 50.9625C71.5941 50.3719 71.7566 49.8656 71.7581 49.3703C71.7581 49.3234 71.7567 49.275 71.7534 49.2281V49.2218C71.7175 48.65 71.5455 48.1298 71.2425 47.6781C70.9673 47.2672 70.5876 46.9295 70.1455 46.6984C69.4126 46.3031 68.5033 46.1093 67.3626 46.1062C66.8859 46.1062 66.3906 46.142 65.8923 46.2139H65.8908C62.1783 46.7404 56.4625 49.0326 52.872 51.4342C52.8623 51.3329 52.8501 51.229 52.8332 51.1236C52.8314 51.1111 52.8295 51.0987 52.8276 51.0862C52.8262 51.0772 52.8245 51.0683 52.8227 51.0594C52.6124 49.796 51.7545 48.6592 50.272 47.6812C48.4609 46.4906 45.7939 45.5422 42.3406 44.8625C39.5312 44.314 36.3687 43.9984 33.6625 43.9984C32.2047 43.9998 31.025 44.0875 30.1531 44.2625C28.4812 44.5922 26.3156 45.414 23.5297 46.7719C21.3352 47.8449 19.2379 49.0214 17.7434 49.8816C17.0801 49.341 16.386 49.0577 15.7155 49.0577H15.6999C15.0046 49.0591 14.4608 49.3296 14.0999 49.5109C14.0999 49.5109 14.0983 49.5109 14.0983 49.5124C13.9066 49.6068 13.6603 49.7241 13.3773 49.859L13.3405 49.8765L13.2922 49.8994L13.2921 49.8994L13.2921 49.8994C12.6537 50.2016 11.8698 50.5727 11.1171 50.9765C10.4639 51.3265 9.94831 51.639 9.54206 51.931C9.11549 52.2451 8.71237 52.5685 8.47487 53.042C8.47487 53.042 8.47487 53.0435 8.47331 53.0435C8.31862 53.3701 8.2405 53.7499 8.24206 54.1701C8.24831 54.9248 8.46081 55.6702 8.68581 56.4577C8.77018 56.7531 8.85768 57.0593 8.93268 57.364C9.50768 59.6546 9.51706 62.4781 9.52487 65.2093V65.3734C9.53893 68.1062 9.55456 70.9342 10.3061 73.1702C10.3952 73.4263 10.5186 73.7201 10.7514 73.9623C10.9499 74.1763 11.2655 74.3156 11.5546 74.3156C11.5639 74.3156 11.5717 74.3156 11.5811 74.3157C11.9014 74.311 12.1514 74.2079 12.3811 74.1017C12.6024 73.9956 12.8252 73.8654 13.0613 73.7274L13.0733 73.7204L13.1217 73.6923C13.7124 73.347 14.9608 72.7563 15.9827 72.2813C16.2142 72.1731 16.4512 72.0634 16.6952 71.9505L16.6959 71.9501C16.8815 71.8642 17.0712 71.7764 17.2655 71.686C18.8811 70.939 20.7124 70.0921 22.2811 69.2999C23.3936 68.7374 24.2421 68.2702 24.8764 67.8718C25.2499 67.636 25.5436 67.4281 25.7717 67.2359C26.0092 67.0312 26.2171 66.8374 26.3592 66.539L26.3624 66.5343C26.5124 66.197 26.5889 65.8126 26.5874 65.3937C26.5861 64.8273 26.456 64.2007 26.1838 63.4564C28.7094 62.5261 30.9253 62.0733 32.9391 62.0719C35.2709 62.0719 37.1238 62.6674 39.0825 63.2969L39.0969 63.3015L39.2594 63.3547L39.2604 63.355C41.1179 63.9518 43.4318 64.6953 46.4641 64.6953ZM24.7922 63.3422C24.7944 63.3473 24.7966 63.3524 24.799 63.3575C25.1548 64.1771 25.3405 64.882 25.3374 65.3935C25.3374 65.6374 25.2999 65.842 25.2233 66.0185C25.2233 66.0185 25.2233 66.0202 25.2217 66.0202L25.2202 66.0234C25.1983 66.0734 24.9796 66.2937 24.6577 66.5156C23.3936 67.4185 20.5092 68.7982 18.4499 69.7577C17.8499 70.039 17.2561 70.314 16.6827 70.5781C14.8671 71.4171 13.2999 72.1421 12.4905 72.6124C12.2264 72.7687 12.0108 72.8937 11.8452 72.9718C11.7374 73.0249 11.6608 73.0484 11.6217 73.0577C11.6164 73.0513 11.6118 73.0434 11.6069 73.0351L11.5999 73.0234C11.5796 72.9874 11.5374 72.9076 11.4889 72.7671C10.8405 70.8685 10.7811 68.2937 10.7749 65.3685C10.7733 65.2295 10.7733 65.0888 10.7733 64.9498L10.7733 64.9447C10.7624 62.265 10.751 59.4935 10.1452 57.0591C10.0659 56.7546 9.98361 56.4593 9.90433 56.175L9.90432 56.175L9.90299 56.1702C9.67799 55.3685 9.48425 54.6748 9.4905 54.1701C9.49206 53.9327 9.52799 53.739 9.60299 53.5796L9.60456 53.5781C9.62956 53.4999 9.87643 53.2202 10.2717 52.9452C10.7717 52.5859 11.5311 52.1515 12.5296 51.6546C12.9878 51.4263 13.434 51.2144 13.8299 51.0265L13.853 51.0156C14.1655 50.8687 14.4342 50.7406 14.6546 50.6312L14.6592 50.6296C15.0374 50.4357 15.3592 50.3076 15.6952 50.3076H15.6999C16.0296 50.3107 16.5014 50.4045 17.2311 51.0998C17.657 51.5039 18.2886 52.2993 19.0136 53.3382C19.0174 53.3437 19.0212 53.3492 19.025 53.3547C19.1669 53.5581 19.3113 53.7691 19.4575 53.9865C21.5465 57.0922 24.0079 61.4904 24.7921 63.342L24.7922 63.3422ZM66.7234 54.6311C66.8422 54.7811 67.0203 54.867 67.2125 54.867C67.3545 54.867 67.4905 54.8203 67.6012 54.7312C67.8701 54.5154 67.9155 54.1217 67.6998 53.8514C67.5809 53.7031 67.4028 53.617 67.2106 53.617C67.0686 53.617 66.9342 53.664 66.8217 53.7529C66.692 53.8576 66.6092 54.0061 66.5905 54.1719C66.5717 54.3373 66.6186 54.5014 66.7234 54.6311ZM18.7343 65.7046C17.6546 65.6999 16.7453 64.8875 16.6203 63.814C16.6124 63.7358 16.6078 63.656 16.6078 63.5763C16.6078 62.4921 17.4203 61.5763 18.4999 61.4482H18.5078C18.5796 61.4404 18.6546 61.4357 18.7296 61.4357C19.8187 61.4357 20.7328 62.2514 20.8562 63.3327C20.8656 63.4171 20.8703 63.5015 20.8703 63.5841C20.8671 64.653 20.0562 65.5593 18.9843 65.6904C18.9015 65.6997 18.8171 65.7046 18.7343 65.7046ZM18.6453 62.6905C18.1968 62.7436 17.8578 63.1235 17.8578 63.5765C17.8578 63.6108 17.8593 63.6452 17.864 63.6766C17.9062 64.1063 18.2937 64.4546 18.7281 64.4546H18.7343C18.7703 64.4546 18.8046 64.453 18.8359 64.4483C19.2796 64.3983 19.6234 64.0186 19.6203 63.5843C19.6203 63.5499 19.6187 63.5157 19.614 63.4813V63.4766C19.5656 63.0266 19.1859 62.6875 18.7296 62.6875C18.7031 62.6874 18.6749 62.6874 18.6453 62.6905Z" fill="#313840"/>
<path fill-rule="evenodd" clip-rule="evenodd" d="M48.3106 16.6657C47.2124 16.6657 46.206 16.5079 45.3186 16.1985C44.3889 15.8735 43.5874 15.3798 42.9389 14.7298C42.2844 14.0782 41.7874 13.2751 41.4608 12.3423C41.1483 11.4532 40.9905 10.4423 40.992 9.33914C40.992 8.45007 41.0936 7.48601 41.2952 6.47507C41.345 6.22664 41.5389 6.03445 41.7872 5.98445C42.795 5.78445 43.7546 5.68445 44.6405 5.68445H44.6546C45.7561 5.68445 46.7639 5.84226 47.6528 6.15476C48.5841 6.48132 49.3874 6.97976 50.0389 7.63445C50.6905 8.28601 51.1858 9.08757 51.5124 10.0188C51.8233 10.9094 51.9796 11.9173 51.9796 13.0173C51.9796 13.8875 51.8808 14.8266 51.6875 15.8111V25.7218C52.313 24.0688 53.2228 22.638 54.3951 21.4642C55.6467 20.2173 57.1873 19.2688 58.9764 18.6438C60.7029 18.0407 62.6686 17.7345 64.8215 17.7345H64.834C66.5903 17.7345 68.4918 17.9376 70.4856 18.336C70.7325 18.386 70.9262 18.5782 70.9748 18.8267C71.3732 20.8204 71.5748 22.722 71.5748 24.4767C71.5764 26.6313 71.2717 28.5985 70.6686 30.3251C70.0418 32.1157 69.0903 33.6595 67.8403 34.9095C66.5918 36.161 65.0497 37.1126 63.2575 37.7392C61.5325 38.3407 59.5622 38.647 57.4044 38.647H57.3918C55.6469 38.647 53.7564 38.4485 51.7725 38.0562C51.7437 38.0515 51.7153 38.0448 51.6875 38.0362V44.2407L51.6875 44.2436C51.6875 44.3112 51.6764 44.3799 51.6531 44.4473C51.5655 44.6973 51.3281 44.866 51.0625 44.866C50.9922 44.866 50.9235 44.8551 50.8563 44.8316C50.8563 44.8316 50.8517 44.8301 50.8438 44.8269C50.5846 44.7379 49.8672 44.4926 48.8158 44.1504C47.6642 43.7769 45.8799 43.2129 43.9172 42.649C41.1047 41.8394 35.9594 40.4801 33.1047 40.4801H33.0766C32.5969 40.4801 32.1844 40.5208 31.886 40.5957C30.2469 41.0035 27.7703 42.1051 25.9813 42.9582C23.8063 43.9926 21.6688 45.1176 20.2594 45.8769C19.4635 46.3076 18.9368 46.6012 18.8106 46.6716L18.7813 46.6879C18.6874 46.7391 18.5827 46.7673 18.4764 46.7673C18.2499 46.7673 18.0405 46.6455 17.9296 46.4485C17.8483 46.3032 17.828 46.1344 17.8733 45.9735C17.9186 45.8127 18.0233 45.6782 18.1686 45.5969L18.1795 45.5908L18.1796 45.5908C18.3755 45.4814 20.5805 44.2503 23.2655 42.8971C27.0717 40.9846 29.7936 39.8346 31.5842 39.3815C31.9952 39.2799 32.4842 39.2315 33.0811 39.2315C35.3999 39.2362 39.0577 39.9612 44.2608 41.4471C46.9185 42.2092 49.2511 42.9714 50.4375 43.3688V38.4008C49.1325 38.649 47.8871 38.7751 46.7339 38.7751H46.72C45.2231 38.7751 43.8544 38.561 42.6512 38.1376C41.3965 37.6985 40.3153 37.0282 39.4387 36.1485C38.5606 35.272 37.8934 34.1891 37.4543 32.9329C37.0325 31.7266 36.8184 30.3532 36.82 28.8516C36.82 27.6407 36.959 26.3282 37.2325 24.9532C37.2825 24.7032 37.4747 24.511 37.7231 24.461C39.0934 24.1891 40.4012 24.0516 41.6106 24.0501H41.6231C43.1247 24.0501 44.4981 24.2657 45.7059 24.6891C46.9622 25.1282 48.0465 25.797 48.9262 26.6751C49.5321 27.2799 50.038 27.9825 50.4375 28.7731V16.4959C49.699 16.6084 48.9914 16.6657 48.325 16.6657H48.3106ZM42.445 7.13445C42.3108 7.91101 42.2419 8.6532 42.2419 9.33914C42.2452 11.286 42.7763 12.8032 43.8216 13.8454C44.8622 14.8844 46.3763 15.4126 48.3247 15.4157C49.0106 15.4157 49.7513 15.3485 50.5263 15.2141C50.6605 14.4407 50.7294 13.7016 50.7294 13.0173C50.7261 11.0735 50.1966 9.56101 49.1544 8.51726C48.1106 7.46882 46.5919 6.93601 44.6403 6.93445C43.9577 6.93445 43.2186 7.00164 42.445 7.13445ZM66.5905 10.0344C66.5919 11.3547 67.6717 12.4313 68.9967 12.4329C70.3249 12.4313 71.4077 11.3547 71.411 10.0344C71.4092 9.38599 71.1578 8.77818 70.6999 8.32349C70.2452 7.87193 69.6406 7.62193 68.9969 7.62037H68.9952C68.3594 7.62037 67.7406 7.87662 67.2952 8.32349C66.8467 8.77037 66.5905 9.39381 66.5905 10.0344ZM67.8405 10.0344C67.8436 9.38443 68.3514 8.87349 68.9967 8.87037C69.6483 8.87349 70.1592 9.38443 70.1608 10.0344C70.1591 10.6563 69.6263 11.1829 68.9967 11.1829C68.3608 11.1829 67.842 10.6672 67.8405 10.0344ZM53.1296 37.0308C54.6261 37.2739 56.057 37.397 57.3917 37.397C61.5073 37.3938 64.7247 36.261 66.9557 34.0267C69.1886 31.7923 70.3214 28.5798 70.3246 24.4767C70.3246 22.9235 70.1575 21.2438 69.8293 19.4829C68.0698 19.1517 66.3886 18.9845 64.8339 18.9845C60.7323 18.986 57.5184 20.1188 55.2778 22.347C53.0465 24.5845 51.9137 27.8017 51.9104 31.911C51.9104 33.2308 52.0315 34.6432 52.2695 36.1204L58.9012 29.2028L58.3471 22.4079C58.3346 22.2407 58.3862 22.0798 58.4938 21.9516C58.6016 21.8251 58.7532 21.7469 58.919 21.7344C59.2596 21.7079 59.5659 21.9673 59.5938 22.3063L60.0579 27.9962L63.814 24.0782C63.9327 23.9548 64.0919 23.886 64.2655 23.886C64.4265 23.886 64.5796 23.9485 64.6968 24.0594C64.8172 24.1751 64.8858 24.3313 64.889 24.4985C64.8935 24.6641 64.8312 24.8235 64.7155 24.9438L56.5353 33.4778L62.317 32.5688C62.6576 32.5157 62.9778 32.7516 63.0309 33.0891C63.0559 33.2532 63.0168 33.4188 62.9184 33.5548C62.82 33.6891 62.6747 33.7782 62.5106 33.8032L55.106 34.9689L53.1296 37.0308ZM38.3809 25.6095C38.1747 26.7532 38.07 27.8438 38.07 28.8516C38.0731 31.6141 38.8309 33.7735 40.3229 35.2657C41.8169 36.7626 43.9729 37.522 46.7339 37.5251C47.525 37.5251 48.3682 37.4606 49.2474 37.3331L44.1963 32.0742L41.2421 33.1938C41.1717 33.2204 41.0967 33.2344 41.0217 33.2344C40.7639 33.2344 40.528 33.0719 40.4374 32.8297C40.3155 32.5079 40.478 32.1469 40.7999 32.0251L43.2553 31.0945L41.5138 29.2813C41.2749 29.0329 41.2841 28.636 41.5325 28.3985C41.6497 28.286 41.8028 28.2235 41.9655 28.2235C42.1374 28.2235 42.2967 28.2923 42.4155 28.4157L47.1512 33.3462L47.3688 30.0188C47.3921 29.6782 47.6907 29.4126 48.0344 29.436C48.3782 29.4594 48.6391 29.7563 48.6171 30.1001L48.3238 34.567L50.1061 36.4226C50.2292 35.5616 50.2919 34.7346 50.2919 33.9563C50.2886 31.2016 49.5325 29.0501 48.0433 27.5595C46.5419 26.0626 44.3776 25.3032 41.6104 25.3016C40.6043 25.3016 39.5184 25.4048 38.3809 25.6095ZM33.0657 24.9954C31.736 24.9938 30.6532 23.9126 30.6516 22.5829C30.6516 21.9391 30.9032 21.3345 31.361 20.8829C31.8173 20.4329 32.4219 20.1845 33.0657 20.1829C33.7079 20.1845 34.311 20.4329 34.7641 20.8845C35.2188 21.336 35.4704 21.9391 35.4719 22.5829C35.4704 23.9126 34.3923 24.9938 33.0657 24.9954ZM33.0657 21.4329C32.4141 21.4345 31.9032 21.9391 31.9016 22.5829C31.9032 23.222 32.4251 23.7438 33.0657 23.7454C33.7016 23.7438 34.2204 23.222 34.2219 22.5829C34.2204 21.9391 33.7126 21.4345 33.0657 21.4329ZM54.7514 15.0766C55.1092 15.4329 55.5844 15.6298 56.0889 15.6313C56.5936 15.6298 57.0669 15.4329 57.4219 15.0751C57.7781 14.7188 57.975 14.2438 57.975 13.7376C57.9734 13.236 57.7781 12.7626 57.4249 12.4048C57.0702 12.0469 56.5952 11.8469 56.0889 11.8454C55.0481 11.8485 54.1999 12.6969 54.1983 13.7376C54.1983 14.2438 54.3952 14.7188 54.7514 15.0766ZM55.4467 13.7376C55.4483 13.3907 55.742 13.0969 56.0889 13.0954C56.4327 13.0969 56.7249 13.3907 56.7249 13.7376C56.7234 14.0969 56.4438 14.3798 56.0889 14.3813C55.7264 14.3782 55.45 14.1016 55.4467 13.7376Z" fill="url(#paint0_linear)"/>
<defs>
<linearGradient id="paint0_linear" x1="44.6873" y1="12.5001" x2="57.9685" y2="25.7813" gradientUnits="userSpaceOnUse">
<stop stop-color="#D55B17"/>
<stop offset="1" stop-color="#D99227"/>
</linearGradient>
</defs>
</svg>
