<svg width="1440" height="454" viewBox="0 0 1440 454" fill="none" xmlns="http://www.w3.org/2000/svg">
<rect width="1440" height="350" fill="url(#paint0_linear)"/>
<g opacity="0.5" clip-path="url(#clip0)">
<path opacity="0.3" d="M1321.57 253.388C1148.58 215.715 937.945 195.412 720.764 195.909C481.85 196.446 251.853 222.118 71.6083 268.263C71.4476 267.676 71.297 267.09 71.1363 266.503C251.522 220.318 481.689 194.626 720.754 194.089H728.296C943.318 194.089 1151.56 214.422 1322.82 251.807C1322.41 252.334 1322 252.871 1321.57 253.388Z" fill="#DBE7EF" stroke="white" stroke-width="1.52954"/>
<path opacity="0.3" d="M1155.44 358.363C1020.8 316.862 872.437 295.104 720.81 295.605C515.131 296.297 315.859 338.018 148.861 414.292C148.45 413.811 148.029 413.29 147.628 412.839C314.967 336.314 514.68 294.462 720.81 293.76H726.044C876.879 293.76 1024.38 315.819 1158.25 357.3L1155.44 358.363Z" fill="#DBE7EF" stroke="white" stroke-width="1.52954"/>
<path opacity="0.5" d="M263.525 508.28C405.257 435.128 562.16 396.575 721.5 395.749H726.787C825.828 395.735 924.336 410.304 1019.17 438.994L1017.51 440.404C923.195 412.001 825.254 397.578 726.787 397.593H721.51C562.894 398.418 406.692 436.692 265.511 509.328L263.525 508.28Z" fill="#DBE7EF" stroke="white" stroke-width="1.52954"/>
<path d="M518.421 15.7295C518.42 16.9665 517.921 18.1489 517.041 19.001C516.162 19.8531 514.978 20.3003 513.767 20.2385C490.711 19.2045 467.756 17.9035 444.902 16.3355C442.291 16.0474 440.336 13.763 440.409 11.0869L441.678 -84.3728C441.614 -85.6019 442.094 -86.7954 442.986 -87.625C443.878 -88.4546 445.087 -88.8329 446.282 -88.6558C468.955 -85.4033 491.752 -82.6849 514.673 -80.5006C517.247 -80.2137 519.201 -78.0049 519.217 -75.365C518.955 -44.9831 518.689 -14.6182 518.421 15.7295Z" fill="#B3D8DC"/>
<path d="M1157.53 75.8305C1157.53 78.732 1155.68 81.1516 1153.28 81.2219C1131.48 81.8109 1109.47 82.3464 1087.25 82.8283C1084.66 82.7302 1082.64 80.5873 1082.72 78.0293L1081.04 -16.6458C1080.92 -19.2574 1082.76 -21.56 1085.36 -22.0471C1107.43 -24.6307 1129.3 -27.5188 1150.96 -30.7115C1153.35 -31.0629 1155.34 -28.9947 1155.39 -26.0831L1157.53 75.8305Z" fill="#BBCDE0"/>
<path d="M1092.62 8.65442C1108.96 7.22849 1125.19 5.68321 1141.3 4.01855" stroke="white" stroke-width="3.05908"/>
<path d="M1092.62 34.1517C1108.96 32.7241 1125.19 31.1788 1141.3 29.5159" stroke="white" stroke-width="3.05908"/>
<path d="M1092.62 52.6952C1108.95 51.2646 1125.18 49.7193 1141.3 48.0593" stroke="white" stroke-width="3.05908"/>
<path d="M161.181 22.7773C161.08 26.8167 158.533 29.8289 155.479 29.4898C127.908 26.3978 100.953 23.03 74.6132 19.3861C71.7215 18.9872 69.4589 14.8978 69.54 10.2699C70.8929 -43.736 72.2457 -97.7419 73.5985 -151.748C73.7101 -156.386 76.1452 -159.148 79.0268 -157.962C105.123 -147.21 131.869 -137.272 159.263 -128.149C162.307 -127.152 164.671 -123.053 164.57 -119.003C163.44 -71.733 162.311 -24.4729 161.181 22.7773Z" fill="#BBCDE0"/>
<path d="M1440.31 78.8938C1440.42 83.06 1438.42 86.5252 1435.87 86.6153C1406.95 87.757 1377.03 88.8119 1346.11 89.78C1342.74 89.8802 1339.91 86.395 1339.81 82.0385C1338.55 30.9355 1337.28 -20.1674 1336.01 -71.2704C1335.91 -75.6369 1338.54 -79.9533 1341.88 -80.9248C1372.13 -89.6044 1401.46 -99.0719 1429.88 -109.327C1433.01 -110.479 1435.65 -107.244 1435.77 -102.116L1440.31 78.8938Z" fill="#B3D8DC"/>
<path d="M1354.55 4.01861C1377.48 0.395813 1399.88 -3.4674 1421.77 -7.57104" stroke="white" stroke-width="3.05908"/>
<path d="M1354.55 36.4697C1377.49 34.2987 1399.89 31.9808 1421.77 29.5159" stroke="white" stroke-width="3.05908"/>
<path d="M364.607 150.402C364.491 153.233 362.28 155.5 359.52 155.619C334.509 156.71 309.758 157.944 285.266 159.319C283.939 159.352 282.661 158.806 281.75 157.817C280.838 156.828 280.378 155.489 280.485 154.133C281.195 118.925 281.901 83.708 282.604 48.4805C282.563 47.1274 283.069 45.8168 284.002 44.8595C284.935 43.9022 286.213 43.3833 287.533 43.4259C311.847 45.286 336.438 46.9473 361.304 48.4098C364.06 48.5496 366.226 50.8777 366.233 53.707L364.607 150.402Z" fill="white"/>
<path d="M296.695 82.8284C315.086 83.6704 333.629 84.4431 352.326 85.1463" stroke="#B3D8DC" stroke-width="3.05908"/>
<path d="M296.695 101.974C315.066 102.392 333.61 102.763 352.326 103.087" stroke="#B3D8DC" stroke-width="3.05908"/>
<path d="M296.695 121.92C315.093 121.318 333.636 120.754 352.326 120.228" stroke="#B3D8DC" stroke-width="3.05908"/>
<path d="M1308.19 265.623C1308.27 268.839 1306.4 271.032 1304.01 270.502C1277.1 264.612 1249.64 259.223 1221.64 254.335C1218.6 253.794 1216.05 250.518 1215.97 247.002C1215.03 205.974 1214.09 164.946 1213.16 123.918C1213.08 120.412 1215.47 117.567 1218.5 117.598C1245.92 117.811 1272.85 118.045 1299.29 118.299C1302.21 118.299 1304.64 121.564 1304.74 125.531C1305.89 172.242 1307.04 218.939 1308.19 265.623Z" fill="white"/>
<path d="M1229.38 161.638C1250.53 163.077 1271.39 164.622 1291.97 166.274" stroke="#B3D8DC" stroke-width="3.05908"/>
<path d="M1229.38 189.453C1250.53 190.894 1271.39 192.439 1291.97 194.089" stroke="#B3D8DC" stroke-width="3.05908"/>
<path d="M1231.7 212.633C1252.84 214.797 1273.71 217.115 1294.28 219.586" stroke="#B3D8DC" stroke-width="3.05908"/>
<path d="M111.803 269.643C111.691 274.529 108.538 279.243 104.784 280.164C70.8369 288.408 37.8868 297.503 6.10654 307.478C2.60705 308.581 -0.0989529 304.767 0.00277648 298.95C1.67114 231.103 3.34628 163.252 5.02821 95.3983C5.17063 89.5915 8.08009 84.9885 11.5694 85.1504C43.0343 86.506 75.6589 87.7402 109.362 88.8732C113.085 89.0047 116.015 93.0816 115.893 97.9779C114.557 155.183 113.194 212.404 111.803 269.643Z" fill="#B3D8DC"/>
<path d="M20.8614 154.684C44.946 153.037 69.6706 151.492 95.0352 150.048" stroke="white" stroke-width="3.05908"/>
<path d="M20.8614 194.089C44.9473 190.788 69.6719 187.698 95.0352 184.817" stroke="white" stroke-width="3.05908"/>
<path d="M20.8614 233.494C44.9515 229.375 69.6761 225.512 95.0352 221.904" stroke="white" stroke-width="3.05908"/>
<path d="M1166.8 396.859C1166.85 399.354 1165.21 400.873 1163.15 400.242C1139.77 393.166 1116.14 386.807 1092.27 381.165C1089.47 380.283 1087.55 377.772 1087.47 374.902C1086.86 341.647 1086.26 308.393 1085.67 275.139C1085.67 272.298 1087.69 270.266 1090.26 270.621C1113.65 273.863 1136.83 277.519 1159.78 281.59C1162.32 282.034 1164.42 284.904 1164.48 287.981C1165.26 324.28 1166.04 360.573 1166.8 396.859Z" fill="#4FA5AD"/>
<path d="M1097.26 305.35C1114.38 308.184 1131.38 311.275 1148.25 314.621" stroke="white" stroke-width="3.05908"/>
<path d="M1097.26 326.211C1114.37 329.044 1131.37 332.134 1148.25 335.483" stroke="white" stroke-width="3.05908"/>
<path d="M1097.26 347.072C1114.41 350.617 1131.41 354.48 1148.25 358.662" stroke="white" stroke-width="3.05908"/>
<path d="M520.771 345.965C520.665 348.609 518.634 350.785 515.98 351.1C492.246 353.697 468.604 356.966 445.054 360.906C443.868 361.14 442.639 360.815 441.73 360.025C440.821 359.236 440.335 358.073 440.416 356.878L441.667 263.148C441.706 260.462 443.718 258.205 446.407 257.833C469.774 255.51 493.257 253.584 516.855 252.054C518.072 251.948 519.277 252.359 520.17 253.185C521.063 254.011 521.559 255.174 521.534 256.383L520.771 345.965Z" fill="#BBCDE0"/>
<path d="M456.632 289.124C473.568 287.345 490.566 285.799 507.627 284.488" stroke="white" stroke-width="3.05908"/>
<path d="M456.632 309.985C473.565 308.202 490.563 306.657 507.627 305.35" stroke="white" stroke-width="3.05908"/>
<path d="M456.632 326.211C473.578 324.426 490.576 322.881 507.627 321.575" stroke="white" stroke-width="3.05908"/>
<path d="M278.131 364.705C277.942 368.183 275.71 371.209 272.466 372.383C244.734 380.658 217.46 389.891 190.646 400.081C187.675 401.213 185.357 399.08 185.436 395.367C186.434 351.756 187.424 308.148 188.408 264.543C188.497 260.81 190.953 257.306 193.875 256.755C220.504 251.63 247.576 246.986 275.09 242.821C278.131 242.371 280.538 244.703 280.468 248.027C279.696 286.926 278.917 325.819 278.131 364.705Z" fill="#4FA5AD"/>
<path d="M201.66 298.396C222.273 293.408 243.134 288.772 264.244 284.488" stroke="white" stroke-width="3.05908"/>
<path d="M199.342 326.211C219.948 320.384 240.81 314.975 261.926 309.986" stroke="white" stroke-width="3.05908"/>
<path d="M199.342 351.708C219.956 345.887 240.817 340.478 261.926 335.483" stroke="white" stroke-width="3.05908"/>
<g style="mix-blend-mode:multiply" opacity="0.6">
<path d="M508.786 329.978C508.851 329.959 508.895 329.9 508.895 329.833C508.895 329.766 508.851 329.707 508.786 329.688C508.721 329.707 508.677 329.766 508.677 329.833C508.677 329.9 508.721 329.959 508.786 329.978Z" fill="#CEDCEA"/>
</g>
<path d="M1357.31 369.064C1357.39 372.724 1359.74 376.256 1362.54 376.945C1387.84 383.122 1412.4 389.935 1436.09 397.407C1438.7 398.234 1440.71 395.376 1440.64 391.019C1439.39 340.192 1438.14 289.363 1436.89 238.531C1436.79 234.181 1434.62 230.733 1432.02 230.854C1408.56 231.87 1384.25 232.794 1359.13 233.643C1356.35 233.741 1354.17 236.796 1354.26 240.464C1355.26 283.318 1356.27 326.184 1357.31 369.064Z" fill="#BBCDE0"/>
<path d="M1425.48 282.376C1407.28 281.299 1388.59 280.289 1369.41 279.345" stroke="white" stroke-width="3.05908"/>
<path d="M1425.48 312.685C1407.28 309.987 1388.59 307.462 1369.41 305.108" stroke="white" stroke-width="3.05908"/>
<path d="M1425.48 341.478C1407.27 338.786 1388.58 336.26 1369.41 333.901" stroke="white" stroke-width="3.05908"/>
</g>
<defs>
<linearGradient id="paint0_linear" x1="-9.68073e-06" y1="191.042" x2="1440" y2="191.042" gradientUnits="userSpaceOnUse">
<stop stop-color="#4E75C7"/>
<stop offset="1" stop-color="#07458E"/>
</linearGradient>
<clipPath id="clip0">
<rect width="1440" height="454" fill="white"/>
</clipPath>
</defs>
</svg>
