<svg width="40" height="40" viewBox="0 0 40 40" fill="none" xmlns="http://www.w3.org/2000/svg">
<path fill-rule="evenodd" clip-rule="evenodd" d="M10 36.25C11.8409 36.25 13.3333 34.7576 13.3333 32.9167V29.1667H35V32.5C35 35.2614 32.7614 37.5 30 37.5H10C7.23858 37.5 5 35.2614 5 32.5V2.5H30V3.75H6.25V32.5C6.25 34.5711 7.92893 36.25 10 36.25ZM13.1457 36.25H29.9999C32.071 36.25 33.7499 34.5711 33.7499 32.5V30.4167H14.5833V32.9167C14.5833 34.23 14.0308 35.4144 13.1457 36.25ZM26.4162 16.1667C27.1823 16.7423 28.1347 17.0833 29.1667 17.0833C30.1987 17.0833 31.151 16.7423 31.9171 16.1667C33.0301 15.3305 33.75 13.9993 33.75 12.5C33.75 9.9687 31.698 7.91667 29.1667 7.91667C26.6354 7.91667 24.5833 9.9687 24.5833 12.5C24.5833 13.9993 25.3032 15.3305 26.4162 16.1667ZM33.3333 16.5825V26.6667L29.1667 25L25 26.6667V16.5825C23.969 15.5304 23.3333 14.0894 23.3333 12.5C23.3333 9.27834 25.945 6.66667 29.1667 6.66667C32.3883 6.66667 35 9.27834 35 12.5C35 14.0894 34.3643 15.5304 33.3333 16.5825ZM32.0833 17.5529C31.2253 18.0493 30.2292 18.3333 29.1667 18.3333C28.1042 18.3333 27.108 18.0493 26.25 17.5529V24.8204L29.1667 23.6537L32.0833 24.8204V17.5529ZM10 11.4583V10.2083H20V11.4583H10ZM10 16.4583V15.2083H20V16.4583H10ZM10 21.4583V20.2083H20V21.4583H10Z" fill="#161A1D"/>
</svg>
