<svg width="80" height="80" viewBox="0 0 80 80" fill="none" xmlns="http://www.w3.org/2000/svg">
<path fill-rule="evenodd" clip-rule="evenodd" d="M19.2 60.8572V18.2H54.5142V19.5857H20.5857V60.8572C20.5857 63.9263 23.0737 66.4143 26.1428 66.4143C28.8832 66.4143 31.1047 64.1928 31.1047 61.4524V56.2952H61.6571V60.8572C61.6571 64.6916 58.5487 67.8 54.7142 67.8H26.1428C22.3084 67.8 19.2 64.6916 19.2 60.8572ZM26.3428 30.5975V29.2118H40.2285V30.5975H26.3428ZM26.3428 37.7408V36.3551H40.2285V37.7408H26.3428ZM26.3428 44.8832V43.4975H40.2285V44.8832H26.3428ZM60.2716 57.6811H32.4906V61.4526C32.4906 63.2715 31.7258 64.9115 30.4997 66.069L30.1338 66.4145H54.7144C57.7836 66.4145 60.2716 63.9264 60.2716 60.8573V57.6811Z" fill="#313840"/>
<path fill-rule="evenodd" clip-rule="evenodd" d="M59.4765 38.118V52.524L53.5241 50.1431L47.5717 52.524V38.118C46.0989 36.615 45.1908 34.5565 45.1908 32.2859C45.1908 27.6835 48.9218 23.9526 53.5241 23.9526C58.1265 23.9526 61.8575 27.6835 61.8575 32.2859C61.8575 34.5565 60.9494 36.615 59.4765 38.118ZM49.5943 37.5239C50.6887 38.3462 52.0492 38.8334 53.5235 38.8334C54.9978 38.8334 56.3583 38.3462 57.4527 37.5239C59.0427 36.3293 60.0711 34.4277 60.0711 32.2858C60.0711 28.6697 57.1397 25.7382 53.5235 25.7382C49.9074 25.7382 46.9759 28.6697 46.9759 32.2858C46.9759 34.4277 48.0043 36.3293 49.5943 37.5239ZM53.5237 40.6191C55.0416 40.6191 56.4646 40.2133 57.6904 39.5042V49.8863L53.5237 48.2196L49.357 49.8863V39.5042C50.5827 40.2133 52.0058 40.6191 53.5237 40.6191Z" fill="url(#paint0_linear)"/>
<defs>
<linearGradient id="paint0_linear" x1="53.5164" y1="28.6926" x2="60.3891" y2="31.7583" gradientUnits="userSpaceOnUse">
<stop stop-color="#D55B17"/>
<stop offset="1" stop-color="#D99227"/>
</linearGradient>
</defs>
</svg>
