<svg width="40" height="40" viewBox="0 0 40 40" fill="none" xmlns="http://www.w3.org/2000/svg">
<path d="M5 2.9H4.9V3V33.1008C4.9 35.8618 7.1382 38.1 9.89915 38.1H30.0604C32.8214 38.1 35.0596 35.8618 35.0596 33.1008V29.8817V29.7817H34.9596H13.4005H13.3005V29.8817V33.5208C13.3005 35.3994 11.7777 36.9222 9.89915 36.9222C7.78869 36.9222 6.07781 35.2113 6.07781 33.1008V4.07781H29.9193H30.0193V3.97781V3V2.9H29.9193H5ZM9.94028 11.7482V11.8482H10.0403H19.8387H19.9387V11.7482V10.7704V10.6704H19.8387H10.0403H9.94028V10.7704V11.7482ZM9.94028 16.7889V16.8889H10.0403H19.8387H19.9387V16.7889V15.8111V15.7111H19.8387H10.0403H9.94028V15.8111V16.7889ZM9.94028 21.8289V21.9289H10.0403H19.8387H19.9387V21.8289V20.8511V20.7511H19.8387H10.0403H9.94028V20.8511V21.8289ZM14.4784 33.5209V30.9596H33.882V33.1009C33.882 35.2114 32.1711 36.9223 30.0606 36.9223H12.967L13.0422 36.8512L12.9736 36.7785L13.0422 36.8512C13.9266 36.0163 14.4784 34.8331 14.4784 33.5209Z" fill="#313840" stroke="#313840" stroke-width="0.2"/>
<path fill-rule="evenodd" clip-rule="evenodd" d="M33.421 17.0551V27.2207L29.2207 25.5405L25.0204 27.2207V17.0551C23.9811 15.9946 23.3403 14.542 23.3403 12.9398C23.3403 9.69209 25.9731 7.05933 29.2207 7.05933C32.4683 7.05933 35.1011 9.69209 35.1011 12.9398C35.1011 14.542 34.4603 15.9946 33.421 17.0551ZM26.4476 16.6359C27.2199 17.2161 28.1799 17.56 29.2203 17.56C30.2606 17.56 31.2206 17.2161 31.9929 16.6359C33.1149 15.793 33.8405 14.451 33.8405 12.9397C33.8405 10.3879 31.772 8.3194 29.2203 8.3194C26.6686 8.3194 24.6 10.3879 24.6 12.9397C24.6 14.451 25.3257 15.793 26.4476 16.6359ZM29.2204 18.82C30.2915 18.82 31.2956 18.5337 32.1606 18.0333V25.3594L29.2204 24.1833L26.2802 25.3594V18.0333C27.1451 18.5337 28.1493 18.82 29.2204 18.82Z" fill="url(#paint0_linear)"/>
<defs>
<linearGradient id="paint0_linear" x1="29.2152" y1="10.4042" x2="34.0649" y2="12.5674" gradientUnits="userSpaceOnUse">
<stop stop-color="#D55B17"/>
<stop offset="1" stop-color="#D99227"/>
</linearGradient>
</defs>
</svg>
