<svg width="16" height="16" viewBox="0 0 16 16" fill="none" xmlns="http://www.w3.org/2000/svg">
<path d="M6.48453 1.0003C6.41309 0.999288 6.34216 1.01249 6.27587 1.03913C6.20958 1.06576 6.14924 1.10531 6.09837 1.15547C6.04749 1.20563 6.00709 1.26541 5.97952 1.33131C5.95194 1.39722 5.93774 1.46796 5.93774 1.5394C5.93774 1.61085 5.95194 1.68158 5.97952 1.74749C6.00709 1.8134 6.04749 1.87317 6.09837 1.92333C6.14924 1.97349 6.20958 2.01304 6.27587 2.03968C6.34216 2.06632 6.41309 2.07951 6.48453 2.0785H11.8426C12.1642 2.0785 12.4063 2.3206 12.4063 2.64222V13.3583C12.4063 13.6799 12.1642 13.922 11.8426 13.922H6.48453C6.41309 13.921 6.34216 13.9342 6.27587 13.9608C6.20958 13.9875 6.14924 14.027 6.09837 14.0772C6.04749 14.1273 6.00709 14.1871 5.97952 14.253C5.95194 14.3189 5.93774 14.3896 5.93774 14.4611C5.93774 14.5325 5.95194 14.6033 5.97952 14.6692C6.00709 14.7351 6.04749 14.7949 6.09837 14.845C6.14924 14.8952 6.20958 14.9347 6.27587 14.9614C6.34216 14.988 6.41309 15.0012 6.48453 15.0002H11.8426C12.7429 15.0002 13.4845 14.2586 13.4845 13.3583V2.64222C13.4845 1.74192 12.7429 1.0003 11.8426 1.0003H6.48453Z" fill="#161A1D"/>
<path fill-rule="evenodd" clip-rule="evenodd" d="M7.01357 4.96202C6.90173 4.96421 6.79334 5.00114 6.70343 5.06769C6.61351 5.13423 6.54652 5.22709 6.51173 5.33341C6.47694 5.43972 6.47609 5.55423 6.50928 5.66105C6.54247 5.76787 6.60807 5.86173 6.69698 5.92961L8.64475 7.46076H0.546782C0.475345 7.45975 0.404418 7.47295 0.338125 7.49959C0.271833 7.52623 0.211496 7.56578 0.160621 7.61594C0.109746 7.6661 0.0693473 7.72587 0.0417734 7.79177C0.0141994 7.85768 0 7.92842 0 7.99986C0 8.0713 0.0141994 8.14204 0.0417734 8.20794C0.0693473 8.27385 0.109746 8.33362 0.160621 8.38378C0.211496 8.43394 0.271833 8.47349 0.338125 8.50013C0.404418 8.52677 0.475345 8.53997 0.546782 8.53896H8.64474L6.69698 10.0701C6.64019 10.1135 6.59258 10.1677 6.55692 10.2296C6.52126 10.2915 6.49826 10.3599 6.48926 10.4308C6.48026 10.5016 6.48544 10.5736 6.50449 10.6425C6.52355 10.7113 6.5561 10.7757 6.60026 10.8319C6.64441 10.8881 6.69929 10.9349 6.76171 10.9697C6.82413 11.0044 6.89283 11.0265 6.96383 11.0345C7.03483 11.0424 7.10672 11.0362 7.1753 11.0162C7.24388 10.9962 7.3078 10.9627 7.36334 10.9178L10.536 8.42367C10.5374 8.42252 10.5387 8.42137 10.54 8.42021C10.5469 8.41451 10.5536 8.40863 10.5602 8.40259C10.5671 8.39671 10.5738 8.39066 10.5803 8.38444C10.5866 8.37803 10.5928 8.37146 10.5988 8.36474C10.6049 8.35828 10.6109 8.35166 10.6167 8.3449C10.6224 8.33786 10.6279 8.33068 10.6333 8.32336C10.6387 8.3163 10.644 8.30909 10.6492 8.30177C10.6541 8.29427 10.6588 8.28665 10.6633 8.27892C10.6681 8.27131 10.6727 8.26358 10.677 8.25574C10.6812 8.24774 10.6852 8.23964 10.6889 8.23144C10.6929 8.22341 10.6967 8.21529 10.7002 8.20708C10.7036 8.19878 10.7067 8.1904 10.7096 8.18194C10.7127 8.17349 10.7157 8.16497 10.7185 8.15637C10.7209 8.14776 10.7232 8.13909 10.7252 8.13037C10.7275 8.12167 10.7296 8.11291 10.7315 8.1041C10.7331 8.09525 10.7345 8.08637 10.7356 8.07745C10.7371 8.06862 10.7383 8.05976 10.7393 8.05087C10.74 8.04184 10.7405 8.0328 10.7407 8.02374C10.7413 8.01485 10.7416 8.00594 10.7417 7.99704C10.7415 7.98802 10.7411 7.979 10.7404 7.97C10.7401 7.96106 10.7395 7.95214 10.7387 7.94323C10.7376 7.93423 10.7363 7.92526 10.7347 7.91633C10.7335 7.90754 10.732 7.89879 10.7304 7.89007C10.7284 7.88119 10.7262 7.87237 10.7237 7.8636C10.7216 7.85498 10.7193 7.84641 10.7168 7.83791C10.7139 7.82937 10.7109 7.82091 10.7076 7.81252C10.7046 7.80405 10.7014 7.79566 10.698 7.78735C10.6944 7.77919 10.6905 7.77113 10.6865 7.76317C10.6826 7.755 10.6786 7.74692 10.6743 7.73894C10.6699 7.73121 10.6652 7.72359 10.6604 7.71609C10.6558 7.70833 10.6509 7.7007 10.6459 7.69318C10.6407 7.68596 10.6354 7.67886 10.6299 7.6719C10.6245 7.66461 10.6188 7.65745 10.6131 7.65044C10.6071 7.6437 10.601 7.63711 10.5948 7.63068C10.5888 7.62408 10.5826 7.61763 10.5762 7.61134C10.5696 7.60514 10.5628 7.5991 10.5558 7.59324C10.5494 7.58735 10.5428 7.58161 10.536 7.57604L7.36334 5.08196C7.26453 5.002 7.14065 4.95952 7.01357 4.96202Z" fill="#161A1D"/>
</svg>
