<svg width="83" height="40" viewBox="0 0 83 40" fill="none" xmlns="http://www.w3.org/2000/svg">
<path d="M0 3C0 1.34315 1.34315 0 3 0H80C81.6569 0 83 1.34315 83 3V37C83 38.6569 81.6569 40 80 40H3C1.34314 40 0 38.6569 0 37V3Z" fill="#037E8A"/>
<path d="M23.1719 22.9209V14H21.415V24.5H26.8428V22.9209H23.1719ZM31.6689 24.6367C33.8633 24.6367 35.5654 23.0303 35.5654 20.877C35.5654 18.7373 33.8633 17.124 31.6689 17.124C29.4678 17.124 27.7725 18.7373 27.7725 20.877C27.7725 23.0303 29.4678 24.6367 31.6689 24.6367ZM31.6621 23.167C30.3906 23.167 29.3789 22.1963 29.3789 20.877C29.3789 19.5645 30.3906 18.5869 31.6621 18.5869C32.9268 18.5869 33.9521 19.5781 33.9521 20.877C33.9521 22.1895 32.9268 23.167 31.6621 23.167ZM40.3643 27.9043C42.791 27.9043 44.1787 26.4688 44.1787 24.2334V17.2607H42.5039V18.2451C41.9912 17.5684 41.2051 17.124 40.125 17.124C38.1426 17.124 36.5908 18.6621 36.5908 20.7539C36.5908 22.8525 38.1426 24.4248 40.1455 24.4248C41.2188 24.4248 42.0049 23.9805 42.5039 23.3105V24.3496C42.5039 25.6689 41.7725 26.5029 40.3301 26.5029C39.4551 26.5029 38.5596 26.1885 37.9375 25.1562L36.8096 26.1133C37.7666 27.501 39.1064 27.9043 40.3643 27.9043ZM40.4326 22.9619C39.2227 22.9619 38.2588 22.0322 38.2588 20.7539C38.2588 19.4824 39.2227 18.5459 40.4326 18.5459C41.6357 18.5459 42.6133 19.4824 42.6133 20.7539C42.6133 22.0322 41.6357 22.9619 40.4326 22.9619ZM50.7275 24.5H52.4844V14H50.7275V24.5ZM58.8828 17.124C57.9258 17.124 57.1738 17.5615 56.7021 18.2793V17.2607H55.0342V24.5H56.7021V20.3711C56.709 19.1475 57.4062 18.5527 58.3359 18.5527C59.2041 18.5527 59.8398 18.9766 59.8398 20.2959V24.5H61.5146V20.0293C61.5146 18.1152 60.4482 17.124 58.8828 17.124Z" fill="white"/>
</svg>
