<svg width="608" height="379" viewBox="0 0 608 379" fill="none" xmlns="http://www.w3.org/2000/svg">
<g clip-path="url(#clip0_4608_68907)">
<path fill-rule="evenodd" clip-rule="evenodd" d="M378.923 399.249C335.096 402.811 296.929 380.423 253.685 373.952C200.747 366.031 138.289 390.612 97.7463 357.173C56.2347 322.936 35.8711 262.193 46.7071 205.36C57.5431 148.527 82.9087 101.543 112.979 65.1315C143.049 28.7203 189.679 20.2148 244.553 13.6324C283.711 8.93512 327.547 20.4686 366.882 20.9145C421.744 21.5362 494.658 -4.09207 525.992 39.0532C557.637 82.627 491.115 140.307 492.693 194.15C494.326 249.837 562.609 301.552 535.139 351.074C508.476 399.142 434.472 394.734 378.923 399.249Z" fill="#EDF4FA"/>
<path opacity="0.3" fill-rule="evenodd" clip-rule="evenodd" d="M176.024 109.74C212.35 81.1566 221.304 19.3551 266.138 8.0609C310.662 -3.15505 350.588 36.8085 392.72 55.152C436.58 74.2477 489.476 79.9284 518.531 117.947C548.33 156.939 550.127 209.979 548.506 258.998C546.907 307.373 542.081 360.111 509.348 395.717C477.677 430.168 426.094 434.582 379.935 442.367C342.633 448.658 306.705 435.278 268.883 436.273C219.434 437.574 164.373 477.838 124.068 449.098C84.938 421.196 106.087 357.592 93.5042 311.218C81.0127 265.18 32.3843 221.884 50.4493 177.777C68.8706 132.8 137.839 139.786 176.024 109.74Z" fill="#D0DEEF"/>
<path d="M115.094 207.29C115.122 207.298 115.15 207.299 115.178 207.294C115.206 207.289 115.233 207.277 115.255 207.26C115.278 207.243 115.296 207.221 115.309 207.195C115.322 207.17 115.328 207.142 115.328 207.113C115.328 207.085 115.322 207.057 115.309 207.031C115.296 207.006 115.278 206.984 115.255 206.967C115.233 206.95 115.206 206.938 115.178 206.933C115.15 206.928 115.122 206.929 115.094 206.937C115.056 206.948 115.022 206.971 114.998 207.003C114.974 207.035 114.961 207.073 114.961 207.113C114.961 207.153 114.974 207.192 114.998 207.224C115.022 207.256 115.056 207.279 115.094 207.29V207.29Z" fill="#FF1D25"/>
<path d="M112.971 206.228H112.801C112.76 206.214 112.715 206.214 112.674 206.228C112.661 206.27 112.661 206.314 112.674 206.355C112.666 206.397 112.666 206.44 112.674 206.483C112.716 206.493 112.759 206.493 112.801 206.483H112.971C113.012 206.498 113.057 206.498 113.098 206.483C113.111 206.441 113.111 206.397 113.098 206.355C113.107 206.335 113.111 206.314 113.111 206.292C113.111 206.27 113.107 206.248 113.098 206.228C113.057 206.212 113.011 206.212 112.971 206.228V206.228Z" fill="#FF1D25"/>
<path d="M110.145 207.643C110.172 207.651 110.201 207.652 110.229 207.647C110.257 207.642 110.283 207.63 110.306 207.613C110.329 207.596 110.347 207.574 110.36 207.548C110.373 207.523 110.379 207.495 110.379 207.466C110.379 207.438 110.373 207.41 110.36 207.384C110.347 207.359 110.329 207.337 110.306 207.32C110.283 207.303 110.257 207.291 110.229 207.286C110.201 207.281 110.172 207.282 110.145 207.29C110.107 207.301 110.073 207.324 110.049 207.356C110.025 207.388 110.012 207.426 110.012 207.466C110.012 207.506 110.025 207.545 110.049 207.577C110.073 207.609 110.107 207.632 110.145 207.643V207.643Z" fill="#FF1D25"/>
<path d="M119.161 283.055C119.199 283.044 119.233 283.021 119.257 282.989C119.281 282.957 119.294 282.918 119.294 282.878C119.294 282.838 119.281 282.8 119.257 282.768C119.233 282.736 119.199 282.713 119.161 282.702C119.122 282.713 119.088 282.736 119.064 282.768C119.04 282.8 119.027 282.838 119.027 282.878C119.027 282.918 119.04 282.957 119.064 282.989C119.088 283.021 119.122 283.044 119.161 283.055V283.055Z" fill="#FF1D25"/>
<path d="M104.975 137.7H104.791H104.565L104.099 137.53C104.054 137.521 104.007 137.53 103.968 137.553C103.929 137.577 103.9 137.614 103.887 137.658C103.877 137.704 103.885 137.753 103.908 137.794C103.932 137.836 103.969 137.868 104.014 137.884L104.494 138.039C104.66 138.089 104.831 138.117 105.003 138.124C105.027 138.124 105.05 138.119 105.071 138.11C105.093 138.1 105.112 138.087 105.128 138.069C105.144 138.052 105.156 138.032 105.164 138.009C105.172 137.987 105.175 137.964 105.173 137.94C105.173 137.918 105.168 137.896 105.16 137.875C105.151 137.855 105.139 137.836 105.123 137.82C105.107 137.805 105.089 137.792 105.068 137.784C105.047 137.775 105.025 137.771 105.003 137.771L104.975 137.7Z" fill="#E5EFF9"/>
<path d="M381.225 250.143L84.2539 324.099V41.2867C84.2556 40.66 84.3872 40.0403 84.6403 39.467C84.8935 38.8936 85.2627 38.3789 85.7247 37.9554C86.1868 37.5319 86.7316 37.2087 87.3248 37.0063C87.9179 36.8038 88.5466 36.7265 89.1712 36.7793L381.225 62.7079V250.143Z" fill="#F6FAFC"/>
<path d="M197.584 291.335L85.957 323.198V40.5125C85.9564 39.8856 86.0865 39.2655 86.3391 38.6918C86.5917 38.1181 86.9611 37.6034 87.4239 37.1805C87.8866 36.7576 88.4325 36.436 89.0266 36.236C89.6207 36.036 90.25 35.9622 90.8743 36.0192L197.514 45.4863L197.584 291.335Z" fill="white"/>
<path d="M382.558 77.6053L86.0392 61.1579V40.514C86.0344 39.8871 86.1612 39.2662 86.4115 38.6915C86.6617 38.1168 87.0299 37.601 87.492 37.1774C87.9541 36.7539 88.5 36.4321 89.0943 36.2328C89.6887 36.0336 90.3183 35.9613 90.9423 36.0206L382.558 61.8927V77.6053Z" fill="white"/>
<path d="M382.558 77.6026L86.0391 61.1553" stroke="#E5EFF9" stroke-width="0.5" stroke-miterlimit="10"/>
<path d="M169.168 80.6568L86.0273 77.0396V113.58L168.999 113.227C170.193 113.219 171.336 112.739 172.178 111.892C173.02 111.045 173.492 109.899 173.492 108.705V85.1784C173.493 84.0127 173.044 82.8916 172.239 82.0491C171.433 81.2066 170.333 80.7078 169.168 80.6568V80.6568Z" fill="#F6FAFC"/>
<path d="M197.586 67.3467V293.625" stroke="#E5EFF9" stroke-width="0.5" stroke-miterlimit="10"/>
<path d="M187.477 146.602C187.479 147.752 187.041 148.86 186.253 149.698C185.465 150.536 184.387 151.041 183.238 151.109L96.6778 156.987C96.0598 157.032 95.4391 156.949 94.8549 156.742C94.2707 156.536 93.7356 156.21 93.2831 155.787C92.8306 155.364 92.4705 154.851 92.2255 154.282C91.9805 153.713 91.8559 153.099 91.8594 152.48V123.315C91.8592 122.135 92.3225 121.001 93.1496 120.158C93.9766 119.315 95.1015 118.83 96.2822 118.808L182.843 117.084C183.443 117.071 184.04 117.178 184.598 117.398C185.156 117.619 185.665 117.949 186.094 118.369C186.523 118.789 186.864 119.29 187.097 119.843C187.329 120.397 187.449 120.991 187.449 121.592L187.477 146.602Z" fill="#F6FAFC"/>
<path d="M189.601 144.482C189.603 145.633 189.166 146.74 188.377 147.578C187.589 148.416 186.511 148.921 185.362 148.99L98.8301 154.854C98.2121 154.898 97.5915 154.815 97.0073 154.608C96.4231 154.402 95.8879 154.077 95.4354 153.653C94.9829 153.23 94.6228 152.718 94.3779 152.149C94.1329 151.579 94.0082 150.966 94.0118 150.346V123.315C94.0116 122.135 94.4748 121.001 95.3019 120.158C96.129 119.315 97.2538 118.83 98.4345 118.808L184.995 117.084C185.595 117.071 186.192 117.178 186.75 117.398C187.309 117.619 187.817 117.949 188.246 118.369C188.676 118.789 189.016 119.29 189.249 119.843C189.482 120.397 189.602 120.991 189.601 121.592V144.482Z" fill="#D0DEEF"/>
<path d="M379.353 116.433L207.899 120.036C207.299 120.045 206.703 119.935 206.145 119.712C205.588 119.489 205.08 119.158 204.651 118.737C204.223 118.317 203.882 117.815 203.649 117.262C203.416 116.709 203.295 116.115 203.293 115.514V85.6149C203.289 85.0458 203.415 84.4832 203.659 83.9693C203.904 83.4555 204.262 83.0036 204.706 82.6476L208.564 79.751L379.424 88.6105L379.353 116.433Z" fill="#DBE7EF"/>
<path d="M176.318 105.878C176.32 106.47 176.205 107.055 175.98 107.602C175.755 108.149 175.425 108.646 175.007 109.065C174.59 109.484 174.094 109.816 173.548 110.042C173.002 110.269 172.416 110.386 171.825 110.386L81.3928 110.781C80.2009 110.785 79.0557 110.318 78.2063 109.482C77.3568 108.646 76.872 107.508 76.8571 106.316L76.5745 78.4379C76.5682 77.8247 76.6867 77.2168 76.9228 76.6509C77.1589 76.085 77.5075 75.573 77.9477 75.1461C78.3878 74.7192 78.9102 74.3863 79.483 74.1676C80.0558 73.9488 80.6671 73.8489 81.2798 73.8739L172.065 77.8303C173.23 77.8813 174.33 78.3801 175.135 79.2226C175.941 80.0651 176.39 81.1862 176.389 82.3519L176.318 105.878Z" fill="#D0DEEF"/>
<path d="M382.173 113.606L210.72 117.209C210.119 117.218 209.523 117.108 208.966 116.885C208.408 116.662 207.9 116.331 207.472 115.91C207.043 115.49 206.703 114.988 206.469 114.435C206.236 113.882 206.115 113.288 206.113 112.687V83.7206C206.111 83.1129 206.232 82.5111 206.468 81.9512C206.704 81.3913 207.051 80.885 207.488 80.4626C207.925 80.0403 208.442 79.7106 209.01 79.4934C209.578 79.2763 210.183 79.1761 210.79 79.199L382.173 85.7836V113.606Z" fill="#D0DEEF"/>
<path d="M327.663 152.877C327.663 154.559 325.897 156.014 323.608 156.198L237.811 163.263C236.62 163.4 235.419 163.125 234.405 162.486C233.983 162.252 233.629 161.91 233.381 161.496C233.133 161.082 232.999 160.609 232.992 160.126L233.345 141.757C233.374 140.266 233.913 138.83 234.871 137.688L236.821 135.172L323.241 130.834C324.348 130.778 325.444 131.07 326.378 131.668C326.755 131.913 327.069 132.245 327.293 132.636C327.516 133.026 327.644 133.465 327.663 133.915V152.877Z" fill="#DBE7EF"/>
<path d="M218.211 90.7461L341.524 93.9112" stroke="#A0C0E0" stroke-width="3" stroke-miterlimit="10"/>
<path d="M292.043 106.303L341.526 106.317" stroke="#A0C0E0" stroke-width="3" stroke-miterlimit="10"/>
<path d="M218.242 106.29L278.153 106.304" stroke="#A0C0E0" stroke-width="3" stroke-miterlimit="10"/>
<path d="M330.488 150.051C330.488 151.733 328.721 153.188 326.432 153.372L240.635 160.437C239.446 160.579 238.244 160.31 237.229 159.674C236.812 159.433 236.464 159.09 236.216 158.677C235.969 158.265 235.831 157.795 235.816 157.314V137.532C235.816 135.752 237.809 134.226 240.324 134.127L326.065 130.834C327.172 130.778 328.269 131.07 329.202 131.668C329.58 131.913 329.893 132.245 330.117 132.636C330.341 133.026 330.468 133.465 330.488 133.915V150.051Z" fill="#518DE0"/>
<g opacity="0.4">
<path opacity="0.4" d="M259.985 146.374C259.904 148.628 258.994 150.772 257.43 152.397C255.866 154.021 253.757 155.011 251.507 155.177C250.425 155.316 249.326 155.225 248.282 154.91C247.238 154.594 246.272 154.061 245.449 153.346C244.625 152.631 243.963 151.749 243.504 150.759C243.046 149.769 242.802 148.694 242.789 147.603C242.875 145.307 243.817 143.127 245.431 141.492C247.045 139.857 249.213 138.887 251.507 138.772C252.574 138.664 253.651 138.779 254.67 139.111C255.689 139.443 256.628 139.984 257.426 140.7C258.224 141.415 258.864 142.29 259.304 143.267C259.745 144.244 259.977 145.302 259.985 146.374V146.374Z" stroke="white" stroke-width="1.5" stroke-miterlimit="10" stroke-linecap="round"/>
<path fill-rule="evenodd" clip-rule="evenodd" d="M253.644 143.81L255.161 143.69C255.555 143.659 255.897 143.974 255.904 144.372L255.988 149.466C255.995 149.883 255.664 150.231 255.27 150.262L248.171 150.821C247.759 150.853 247.435 150.537 247.428 150.14L247.344 145.045C247.337 144.629 247.669 144.28 248.062 144.249L249.561 144.131L249.56 144.112C249.55 143.487 250.047 142.936 250.665 142.887L252.501 142.743C253.119 142.694 253.633 143.166 253.644 143.791L253.644 143.81ZM250.675 143.456C250.356 143.481 250.099 143.766 250.104 144.088L253.101 143.871L253.101 143.853C253.095 143.531 252.829 143.286 252.51 143.311L250.675 143.456ZM252.498 147.105L252.512 147.938L250.751 148.077L250.737 147.224L248.976 147.344L247.914 146.631L247.972 150.097C247.973 150.192 248.05 150.28 248.162 150.272L255.28 149.711C255.373 149.704 255.466 149.621 255.464 149.507L255.407 146.06L254.184 146.991L252.498 147.105ZM247.884 145.97L249.136 146.8L253.969 146.458L255.358 145.401L255.342 144.416C255.341 144.321 255.264 144.232 255.152 144.241L248.053 144.8C247.959 144.807 247.866 144.89 247.868 145.004L247.884 145.97ZM251.96 147.45L251.955 147.166L251.262 147.221L251.267 147.505L251.96 147.45Z" fill="white" fill-opacity="0.6"/>
</g>
<path d="M382.178 238.164L206.09 288.283V182.958L382.178 161.452V238.164Z" stroke="#E5EFF9" stroke-width="0.5" stroke-miterlimit="10"/>
<path opacity="0.4" d="M268.812 145.514L322.888 141.728" stroke="white" stroke-width="3" stroke-miterlimit="10"/>
<g style="mix-blend-mode:multiply" opacity="0.4">
<g style="mix-blend-mode:multiply" opacity="0.6">
<g style="mix-blend-mode:multiply" opacity="0.6">
<path d="M374.293 191.589C374.858 198.399 374.674 205.253 375.268 212.063C375.423 213.886 375.635 215.709 375.946 217.517C375.946 217.63 376.144 217.517 376.116 217.517C374.985 210.862 375.056 204.08 374.802 197.354C374.802 195.446 374.632 193.539 374.477 191.631C374.477 191.518 374.293 191.518 374.293 191.631V191.589Z" fill="#B8D2E8"/>
</g>
</g>
<g style="mix-blend-mode:multiply" opacity="0.4">
<g style="mix-blend-mode:multiply" opacity="0.4">
<path d="M354.105 172.515C355.009 177.771 353.172 183.013 352.339 188.157C351.978 190.788 351.809 193.442 351.83 196.098C351.83 198.994 351.83 201.891 351.83 204.802C351.83 210.539 351.618 216.29 351.138 222.012C350.665 227.522 349.901 233.003 348.849 238.431C347.789 243.956 346.432 249.424 344.864 254.836C344.652 255.515 344.454 256.249 344.242 256.885C344.242 256.998 344.384 257.041 344.412 256.885C346.065 251.431 347.492 245.92 348.651 240.353C349.761 234.979 350.591 229.55 351.138 224.089C351.703 218.437 351.943 212.658 352.014 206.935C352.014 203.982 352.014 201.043 352.014 198.104C351.957 195.298 352.056 192.492 352.31 189.697C352.904 184.525 354.811 179.467 354.501 174.154C354.473 173.551 354.402 172.952 354.289 172.359C354.289 172.246 354.105 172.359 354.119 172.359L354.105 172.515Z" fill="#B8D2E8"/>
</g>
</g>
</g>
<g style="mix-blend-mode:multiply">
<g style="mix-blend-mode:multiply">
<path d="M433.231 263.101C433.269 263.09 433.303 263.067 433.327 263.035C433.351 263.003 433.364 262.965 433.364 262.925C433.364 262.885 433.351 262.846 433.327 262.814C433.303 262.782 433.269 262.759 433.231 262.748C433.193 262.759 433.159 262.782 433.135 262.814C433.111 262.846 433.098 262.885 433.098 262.925C433.098 262.965 433.111 263.003 433.135 263.035C433.159 263.067 433.193 263.09 433.231 263.101V263.101Z" fill="#E5EFF9"/>
</g>
</g>
<path d="M92.9375 93.3159L162.5 93.7116" stroke="#A0C0E0" stroke-width="3" stroke-miterlimit="10"/>
<path d="M109.977 136.457L177.179 133.461" stroke="#A0C0E0" stroke-width="3" stroke-miterlimit="10"/>
<path d="M69 207.458H69.169" stroke="#FF1D25" stroke-width="0.25" stroke-miterlimit="10"/>
<path d="M419.49 174.961C419.49 174.961 415.102 183.31 420.587 188.466C426.073 193.623 422.233 175.389 422.233 175.389L419.49 174.961Z" fill="#2C4153"/>
<path d="M450.362 207.459C448.629 208.183 436.594 208.841 436.418 209.028C435.442 209.993 437.384 213.888 436.418 214.864C436.188 215.084 435.453 206.175 431.931 209.697C431.92 209.795 431.92 209.895 431.931 209.993C431.931 214.217 428.903 218.715 426.764 222.281C424.624 225.846 417.548 235.808 416.429 239.758C414.86 239.44 411.887 239.999 410.757 239.999C409.177 239.999 405.37 238.551 403.955 239.494C403.746 239.637 402.342 251.958 402.112 253.329C401.947 254.327 401.892 256.28 402.539 257.081C403.055 259.945 403.878 264.015 416.648 264.015C416.648 264.015 414.377 267.032 415.068 267.723C415.562 268.217 413.456 271.936 413.214 272.594C411.711 276.588 411.272 281.964 415.551 283.807C419.83 285.65 425.337 280.768 429.594 280.285C433.39 279.868 435.08 282.962 438.272 283.412C442.562 284.026 445.305 280.515 449.298 279.714C450.494 279.473 454.356 280.493 455.135 279.714C464.46 270.4 457.954 254.865 459.249 243.236C459.852 237.75 461.959 233.12 461.959 227.448C461.959 225.089 462.387 222.248 461.871 219.944C460.949 215.797 456.769 215.215 454.86 212.034C454.191 210.926 451.317 207.053 450.362 207.459Z" fill="white"/>
<path d="M429.442 262.38C425.789 265.408 418.581 263.368 416.639 264.015C416.156 264.179 415.772 267.449 414.971 267.668C414.971 267.668 413.446 271.936 413.205 272.594C411.702 276.588 411.263 281.964 415.542 283.807C419.82 285.65 425.328 280.768 429.585 280.285C433.381 279.868 435.07 282.962 438.263 283.412C438.263 283.412 434.609 274.415 437.846 269.083C441.082 263.752 444.977 250.433 444.977 250.433C444.977 250.433 438.219 255.106 429.442 262.38Z" fill="#E5EFF9"/>
<path d="M431.154 414.404C436.711 416.402 442.705 416.857 448.499 415.721L438.922 327.733L423.727 309.422V341.446C423.727 341.446 425.548 344.42 426.371 346.065C427.193 347.711 425.548 352.648 425.877 355.478C426.206 358.309 426.371 362.061 426.864 362.884C427.358 363.707 428.85 378.606 428.85 378.606C428.85 378.606 431.33 397.256 431.154 400.548C430.978 403.839 431.154 414.404 431.154 414.404Z" fill="#2C4153"/>
<g style="mix-blend-mode:multiply" opacity="0.6">
<path d="M431.154 414.404C436.711 416.402 442.705 416.857 448.499 415.721L438.922 327.733L423.727 309.422V341.446C423.727 341.446 425.548 344.42 426.371 346.065C427.193 347.711 425.548 352.648 425.877 355.478C426.206 358.309 426.371 362.061 426.864 362.884C427.358 363.707 428.85 378.606 428.85 378.606C428.85 378.606 431.33 397.256 431.154 400.548C430.978 403.839 431.154 414.404 431.154 414.404Z" fill="#2C4153"/>
</g>
<path d="M452.129 279.518C452.129 279.518 459.402 292.234 460.061 293.879C460.719 295.525 463.857 301.811 461.213 307.593C458.569 313.375 457.746 316.842 457.921 317.467C458.097 318.092 457.592 320.605 456.44 321.099C455.754 321.466 455.225 322.07 454.95 322.799C454.676 323.527 454.675 324.33 454.948 325.059C455.606 326.716 455.935 329.853 455.277 330.545C454.619 331.236 453.961 352.344 453.961 352.344C456.533 357.3 458.212 362.67 458.92 368.208C460.236 377.786 461.333 399.421 462.211 403.546C463.089 407.671 464.548 418.555 464.548 418.555C464.548 418.555 453.972 424.688 444.888 420.892C444.888 420.892 444.723 387.858 442.079 384.226L440.411 379.761C440.411 379.761 436.78 374.813 436.78 371.675C436.78 371.675 432.984 366.552 432.819 363.579C432.655 360.605 429.188 344.423 429.188 344.423C429.188 344.423 428.53 333.638 425.392 326.31C425.392 326.31 424.723 319.815 424.394 317.006C424.065 314.198 423.571 307.132 423.571 307.132C423.571 307.132 421.914 298.871 422.243 297.708C422.572 296.545 419.939 286.978 419.27 285.815C418.601 284.653 419.27 280.868 419.27 280.868L452.129 279.518Z" fill="#2C4153"/>
<g style="mix-blend-mode:multiply" opacity="0.4">
<path d="M445.52 366.406C441.395 357.344 441.724 331.2 441.011 318.495C440.506 309.334 439.563 290.102 439.08 280.096L420.253 280.853C420.253 280.853 419.595 284.649 420.253 285.801C420.912 286.953 423.545 296.542 423.227 297.694C422.909 298.846 424.543 307.118 424.543 307.118C424.543 307.118 425.037 314.216 425.377 316.992C425.717 319.768 426.364 326.295 426.364 326.295C429.502 333.624 430.16 344.409 430.16 344.409C430.16 344.409 433.627 360.646 433.825 363.575C434.022 366.504 437.796 371.672 437.796 371.672C437.796 374.81 441.428 379.758 441.428 379.758L443.073 384.223C445.717 387.854 445.882 420.888 445.882 420.888C449.023 422.108 452.437 422.446 455.756 421.865C454.209 410.63 449.009 374.053 445.52 366.406Z" fill="#2C4153"/>
</g>
<g style="mix-blend-mode:multiply" opacity="0.4">
<path d="M443.99 285.453C446.766 283.585 450.059 282.637 453.403 282.744L453.48 281.888C452.679 280.462 452.131 279.518 452.131 279.518L419.217 280.835C419.217 280.835 418.57 284.631 419.217 285.783C419.372 286.089 419.501 286.409 419.601 286.737C424.275 285.058 432.273 283.226 432.273 283.226C432.273 283.226 439.492 288.558 443.99 285.453Z" fill="#2C4153"/>
</g>
<path d="M424.536 204.626C423.9 204.506 423.582 206.184 423.285 205.592C422.397 203.803 420.992 203.979 420.192 205.592C420.137 205.701 420.038 206.195 419.906 205.998C419.062 204.626 417.482 203.628 416.198 205.559C414.234 208.499 414.695 212.087 414.311 215.542C413.914 219.5 413.022 223.392 411.656 227.128C410.471 230.419 408.573 233.403 407.553 236.761C407.476 236.991 406.335 239.492 406.576 239.613C408.014 240.337 415.002 240.535 416.45 239.81C416.547 238.958 416.577 238.1 416.538 237.243C416.764 234.978 417.194 232.739 417.822 230.551C419.291 224.278 422.206 218.436 426.335 213.491C426.928 212.756 426.818 206.996 426.478 205.998C426.29 205.629 426.014 205.311 425.676 205.072C425.338 204.834 424.947 204.68 424.536 204.626Z" fill="#F6C7BD"/>
<path d="M442.494 187.524C442.416 188.442 442.194 189.341 441.836 190.19C441.232 191.605 439.806 191.463 439.049 192.22C438.599 192.669 439.049 195.884 438.939 196.608C438.577 199.515 435.472 202.949 432.773 204.178C433.805 206.614 435.253 208.94 435.483 211.671C435.549 212.439 435.483 216.378 436.043 216.916C436.043 216.916 438.873 215.566 439.148 215.5C441.41 215.006 443.712 214.719 446.027 214.645C447.409 214.557 453.202 215.028 454.408 214.085C453.432 212.662 452.573 211.161 451.841 209.598C450.962 207.516 450.522 205.275 450.547 203.015C449.888 200.185 449.45 197.244 448.868 194.348C448.583 194.666 448.276 194.886 448.034 194.644C446.4 193.02 446.016 190.256 444.326 188.588C443.415 187.754 441.781 187.195 442.494 187.524Z" fill="#F6C7BD"/>
<g style="mix-blend-mode:multiply" opacity="0.6">
<path d="M441.748 195.906C442.588 193.315 443.118 190.634 443.328 187.919C442.614 187.491 442.011 187.304 442.494 187.524C442.416 188.441 442.194 189.341 441.836 190.19C441.232 191.605 439.806 191.462 439.049 192.219C438.599 192.669 439.049 195.884 438.939 196.608C438.577 199.515 435.472 202.949 432.773 204.178C433.805 206.613 435.253 208.939 435.483 211.671C435.502 213.215 435.608 214.758 435.801 216.29L446.224 208.094L441.748 195.906Z" fill="#F6C7BD"/>
</g>
<path d="M450.362 207.459C448.629 208.183 436.594 208.841 436.418 209.028C435.442 209.993 437.384 213.888 436.418 214.864C436.188 215.084 435.453 206.175 431.931 209.697C431.92 209.795 431.92 209.895 431.931 209.993C431.931 214.217 428.903 218.715 426.764 222.281C424.624 225.846 417.548 235.808 416.429 239.758C414.86 239.44 411.887 239.999 410.757 239.999C409.177 239.999 405.37 238.551 403.955 239.494C403.746 239.637 402.342 251.958 402.112 253.329C401.947 254.327 401.892 256.28 402.539 257.081C403.055 259.945 403.878 264.015 416.648 264.015C416.648 264.015 414.377 267.032 415.068 267.723C415.562 268.217 413.456 271.936 413.214 272.594C411.711 276.588 411.272 281.964 415.551 283.807C419.83 285.65 425.337 280.768 429.594 280.285C433.39 279.868 435.08 282.962 438.272 283.412C442.562 284.026 445.305 280.515 449.298 279.714C450.494 279.473 454.356 280.493 455.135 279.714C464.46 270.4 457.954 254.865 459.249 243.236C459.852 237.75 461.959 233.12 461.959 227.448C461.959 225.089 462.387 222.248 461.871 219.944C460.949 215.797 456.769 215.215 454.86 212.034C454.191 210.926 451.317 207.053 450.362 207.459Z" fill="white"/>
<path d="M429.442 262.38C425.789 265.408 418.581 263.368 416.639 264.015C416.156 264.179 415.772 267.449 414.971 267.668C414.971 267.668 413.446 271.936 413.205 272.594C411.702 276.588 411.263 281.964 415.542 283.807C419.82 285.65 425.328 280.768 429.585 280.285C433.381 279.868 435.07 282.962 438.263 283.412C438.263 283.412 434.609 274.415 437.846 269.083C441.082 263.752 444.977 250.433 444.977 250.433C444.977 250.433 438.219 255.106 429.442 262.38Z" fill="#E5EFF9"/>
<path d="M423.797 227.553C426.232 225.128 434.768 216.011 437.335 214.727C438.641 214.069 440.429 214.552 441.943 214.563C449.502 214.563 450.72 213.959 452.574 212.314L451.883 210.92C448.433 213.029 444.382 213.932 440.363 213.488C439.267 213.354 438.156 213.52 437.146 213.966C436.136 214.412 435.265 215.122 434.625 216.022L423.797 227.553Z" fill="#E5EFF9"/>
<path d="M454.359 224.503C451.967 218.841 446.877 215.517 439.592 219.895C429.422 225.995 428.884 247.322 415.895 247.322L418.561 245.633C418.257 243.607 417.627 241.643 416.695 239.818C415.511 237.832 418.89 235.068 421.687 232.314C430.3 223.866 433.306 221.255 439.384 217.876C451.88 210.92 454.359 224.503 454.359 224.503Z" fill="#E5EFF9"/>
<path d="M442.312 255.32C442.659 256.439 443.134 257.514 443.728 258.524C448.84 266.708 447.184 253.806 447.184 250.844" stroke="#E5EFF9" stroke-width="0.5" stroke-miterlimit="10"/>
<path d="M459.154 264.812C458.583 262.519 456.542 260.599 455.325 258.591C455.325 258.492 453.438 255.464 452.922 256.397C450.98 259.787 456.125 267.368 458.287 269.562" stroke="#E5EFF9" stroke-width="0.5" stroke-miterlimit="10"/>
<path d="M404.914 246.235C407.909 246.235 411.036 246.301 414.053 246.301" stroke="#E5EFF9" stroke-width="0.5" stroke-miterlimit="10"/>
<path d="M444.148 280.038C442.689 279.302 432.53 268.88 435.009 275.452C435.425 276.639 435.966 277.779 436.622 278.853C437.549 280.239 438.595 281.543 439.749 282.747" stroke="#E5EFF9" stroke-width="0.5" stroke-miterlimit="10"/>
<path d="M431.63 212.313C431.739 212.859 431.995 213.365 432.37 213.776C432.745 214.188 433.225 214.49 433.758 214.65H430.895L431.63 212.313Z" fill="#E5EFF9"/>
<path d="M422.13 174.774C419.124 176.969 419.475 182.29 419.848 185.592C420.012 187.161 420.704 187.468 420.945 190.595C420.945 190.88 419.486 194.753 419.541 194.775C424.96 197.485 421.461 205.373 429.524 205.373C430.55 205.213 431.544 204.887 432.465 204.407C435.251 203.31 438.608 199.679 438.992 196.64C439.091 195.883 438.652 192.668 439.102 192.251C439.859 191.494 441.296 191.637 441.889 190.222C442.247 189.373 442.469 188.473 442.547 187.556C439.705 186.206 435.372 185.625 432.969 184.418C428.054 181.96 424.818 179.722 422.316 175.422C422.206 175.223 422.143 175.001 422.13 174.774V174.774Z" fill="#F6C7BD"/>
<g style="mix-blend-mode:multiply" opacity="0.6">
<path d="M422.13 174.774C419.124 176.969 419.475 182.29 419.848 185.592C420.012 187.161 420.704 187.468 420.945 190.595C420.945 190.88 419.486 194.753 419.541 194.775C424.96 197.485 421.461 205.373 429.524 205.373C430.55 205.213 431.544 204.887 432.465 204.407C435.251 203.31 438.608 199.679 438.992 196.64C439.091 195.883 438.652 192.668 439.102 192.251C439.859 191.494 441.296 191.637 441.889 190.222C442.247 189.373 442.469 188.473 442.547 187.556C439.705 186.206 435.372 185.625 432.969 184.418C428.054 181.96 424.818 179.722 422.316 175.422C422.206 175.223 422.143 175.001 422.13 174.774V174.774Z" fill="#F6C7BD"/>
</g>
<path d="M438.807 165.864C434.712 165.869 430.662 166.724 426.914 168.377C424.49 169.364 418.445 173.083 419.926 175.563C422.603 180.105 423.711 182.892 428.977 185.437C432.192 187.028 441.111 187.104 443.569 189.518C445.379 191.295 445.763 194.192 447.529 195.914C448.1 196.474 449.021 194.817 449.186 194.521C450.024 193.206 450.733 191.814 451.303 190.363C451.379 190.541 451.511 190.69 451.68 190.785C451.849 190.88 452.044 190.917 452.236 190.889C451.907 192.7 451.742 194.685 451.501 195.574C450.042 200.851 449.306 206.457 451.621 211.636C453.684 216.222 457.392 219.711 458.829 224.648C460.002 229.307 460.527 234.107 460.387 238.91C460.387 240.27 459.389 244.011 461.484 242.991C468.967 239.305 469.899 229.288 468.067 222.563C467.376 220.051 464.776 218.394 464.205 215.717C463.591 212.722 465.412 210.308 465.983 207.522C466.371 204.5 466.208 201.433 465.5 198.47C464.852 195.3 457.897 186.852 454.265 187.346C454.265 186.578 453.936 185.941 452.993 185.92C453.551 183.335 453.531 180.659 452.933 178.083C452.336 175.507 451.176 173.096 449.537 171.021C448.256 169.405 446.624 168.101 444.765 167.208C442.907 166.315 440.869 165.855 438.807 165.864V165.864Z" fill="#2C4153"/>
<g style="mix-blend-mode:multiply">
<g style="mix-blend-mode:multiply">
<path d="M429.438 262.378C428.826 262.864 428.131 263.235 427.387 263.475C433.047 261.571 438.424 258.91 443.372 255.565C444.337 252.635 444.973 250.474 444.973 250.474C444.973 250.474 438.215 255.104 429.438 262.378Z" fill="#E5EFF9"/>
</g>
</g>
<path d="M416.35 264.475L416.416 264.332L416.328 264.475H416.35Z" fill="#E5EFF9"/>
<path d="M452.578 222.289C452.578 222.289 438.721 251.91 428.573 255.103C418.425 258.296 409.275 258.076 407.629 256.979C405.984 255.882 406.532 246.304 406.532 246.304L407.805 245.635L408.167 239.568C406.565 239.239 404.81 238.91 403.943 239.491C403.735 239.634 402.33 251.954 402.1 253.326C401.935 254.324 401.88 256.277 402.528 257.078C403.043 259.941 403.866 264.012 416.637 264.012C418.578 263.364 425.786 265.405 429.44 262.377C438.217 255.103 444.975 250.484 444.975 250.484L444.854 250.879C450.559 246.952 461.256 237.034 452.578 222.289Z" fill="#E5EFF9"/>
<g style="mix-blend-mode:multiply">
<path d="M424.784 264.012C421.493 264.308 417.916 263.584 416.643 264.012C416.347 264.11 416.095 265.35 415.766 266.359L424.784 264.012Z" fill="#E5EFF9"/>
</g>
<g style="mix-blend-mode:multiply" opacity="0.4">
<path d="M442.504 188.759C442.735 186.18 442.695 183.584 442.384 181.013C441.506 174.025 438.807 168.221 433.19 166.4C431.043 166.867 428.942 167.528 426.914 168.375C424.49 169.362 418.445 173.081 419.926 175.561C422.603 180.103 423.711 182.889 428.977 185.435C431.797 186.872 439.564 187.004 442.504 188.759Z" fill="#2C4153"/>
</g>
<path d="M452.667 352.651C453.347 357.28 450.473 362.031 452.294 366.551C452.306 366.574 452.324 366.593 452.347 366.607C452.369 366.62 452.394 366.627 452.42 366.627C452.446 366.627 452.472 366.62 452.494 366.607C452.516 366.593 452.534 366.574 452.546 366.551C453.504 365.112 454.178 363.503 454.532 361.812C454.938 359.982 455.137 358.112 455.125 356.238C455.116 356.208 455.098 356.182 455.073 356.164C455.049 356.145 455.018 356.135 454.987 356.135C454.956 356.135 454.926 356.145 454.902 356.164C454.877 356.182 454.859 356.208 454.85 356.238C454.859 358.083 454.664 359.922 454.269 361.724C453.923 363.392 453.26 364.979 452.316 366.397H452.557C451.647 364.203 451.954 361.757 452.371 359.431C452.934 357.169 453.123 354.831 452.93 352.508C452.93 352.333 452.634 352.398 452.667 352.574V352.651Z" fill="black"/>
<path d="M454.532 330.673C454.333 329.287 453.663 328.013 452.634 327.063C451.594 326.135 450.47 325.305 449.277 324.584C448.98 324.386 448.706 324.858 449.002 325.056C451.098 326.449 453.621 327.93 453.983 330.673C453.983 331.013 454.576 331.024 454.532 330.673Z" fill="black"/>
<path d="M457.694 317.27C455.5 315.833 452.735 314.868 451.21 312.619L450.837 312.992C452.351 313.727 454.041 313.727 455.653 314.089C455.725 314.108 455.8 314.097 455.864 314.06C455.928 314.023 455.975 313.962 455.993 313.891C456.012 313.82 456.002 313.744 455.965 313.68C455.928 313.616 455.867 313.57 455.796 313.551C454.238 313.178 452.57 313.2 451.111 312.454C450.881 312.344 450.563 312.586 450.738 312.827C452.318 315.175 455.127 316.118 457.42 317.676C457.705 317.874 457.99 317.402 457.694 317.205V317.27Z" fill="black"/>
<g style="mix-blend-mode:multiply" opacity="0.6">
<path d="M409.482 239.829C409.482 239.763 413.004 228.386 414.057 225.446C415.11 222.506 416.109 215.045 416.427 213.115C416.745 211.184 417.809 204.546 417.809 204.546L418.972 205.369L418.786 204.799C417.985 204.283 417.03 204.305 416.197 205.556C414.233 208.496 414.694 212.083 414.31 215.539C413.913 219.497 413.021 223.389 411.655 227.125C410.47 230.416 408.572 233.4 407.551 236.757C407.184 237.58 406.862 238.423 406.586 239.281C407.573 239.423 408.594 239.665 409.482 239.829Z" fill="#F6C7BD"/>
</g>
<path d="M324.169 263.002C323.039 264.597 322.055 266.29 321.228 268.06C318.756 273.374 315.741 278.418 312.232 283.112C311.069 284.571 306.746 288.784 304.552 286.579C303.455 285.482 300.164 279.525 297.97 280.995C296.664 281.862 297.97 283.814 298.727 284.582C301.656 287.501 303.4 293.974 307.087 295.817C308.952 296.738 311.475 297.77 313.669 297.221C316.138 296.607 318.562 291.911 319.967 290.046C324.969 283.376 335.919 276.727 337.367 268.104C337.86 265.153 337.795 261.269 334.185 260.106C332.439 259.62 330.599 259.575 328.831 259.974C326.995 260.463 325.362 261.524 324.169 263.002Z" fill="#F6C7BD"/>
<path d="M296.338 200.06C297.929 201.344 297.15 211.382 295.943 213.807C295.164 215.354 293.65 217.625 291.807 217.998C291.215 218.118 288.274 217.998 287.934 218.371C286.53 219.775 288.911 224.591 287.989 226.424C285.992 230.428 274.319 228.958 271.247 226.906C271.083 226.797 270.918 217.318 270.918 216.22C270.918 206.467 272.981 195.551 282.679 191.042C284.632 190.131 287.232 189.319 289.448 189.813C294.681 190.998 293.42 197.712 296.338 200.06Z" fill="#F6C7BD"/>
<g style="mix-blend-mode:multiply" opacity="0.4">
<path d="M276.712 204.32L271.666 207.194C271.145 210.175 270.895 213.197 270.92 216.223C270.92 217.321 271.084 226.8 271.249 226.909C272.426 227.584 273.71 228.052 275.045 228.292L276.712 228.39V204.32Z" fill="#F6C7BD"/>
</g>
<path d="M281.774 214.082C292.285 214.082 305.176 204.471 300.996 191.043C298.341 182.573 296.059 183.747 291.978 183.692C291.265 182.583 290.277 181.679 289.109 181.067C287.942 180.455 286.635 180.158 285.318 180.203C260.885 179.556 262.509 213.753 284.221 213.753" fill="#2C4153"/>
<path d="M250.752 254.293L239.145 262.642C239.145 262.642 233.363 254.019 226.155 258.615L223.259 262.477C222.942 259.914 223.31 257.313 224.326 254.939C225.342 252.565 226.968 250.502 229.04 248.961C236.303 243.289 249.085 231.594 249.085 231.594C249.085 231.594 257.861 222.532 270.95 223.749C284.038 224.967 296.929 222.257 306.057 230.08C315.185 237.902 337.171 260.283 337.874 263.07C337.874 263.07 326.42 255.39 321.669 267.294L309.327 256.586C309.327 256.586 306.365 277.091 309.151 286.449C311.938 295.807 317.456 307.887 318.082 321.249C318.532 330.125 315.866 395.754 315.866 395.754C315.866 395.754 303.128 405.178 279.727 403.192C256.325 401.207 247.79 395.666 247.79 395.666L245.892 343.005C245.892 343.005 245.409 310.212 252.606 299.285C259.803 288.358 252.804 264.792 252.804 264.792C252.804 264.792 249.907 257.365 250.752 254.293Z" fill="#486985"/>
<path d="M283.592 203.42C284.25 204.012 283.592 202.772 283.373 202.487C282.535 201.447 281.378 200.711 280.081 200.392C276.687 200.663 273.314 201.165 269.988 201.895C264.93 203.793 261.036 212.043 265.534 216.552C267.487 218.494 269.363 217.09 271.173 218C271.809 218.318 272.632 220.271 273.367 220.842C276.428 223.036 283 222.465 285.238 219.339C286.039 218.242 285.775 216.706 286.335 215.532C287.498 213.206 291.118 212.756 289.396 208.708C288.178 205.877 286.104 206.513 284.02 205.493C283.438 205.175 283.066 202.948 283.592 203.42Z" fill="#2C4153"/>
<g style="mix-blend-mode:multiply" opacity="0.4">
<path d="M309.868 288.589L298.699 284.551C298.699 284.551 302.111 301.732 314.3 301.809C312.808 297.014 311.162 292.626 309.868 288.589Z" fill="#486985"/>
</g>
<g style="mix-blend-mode:multiply" opacity="0.6">
<path d="M284.046 205.491C284.046 205.491 283.344 202.485 289.378 194.86C290.717 193.212 291.601 191.242 291.944 189.146C292.287 187.05 292.075 184.901 291.331 182.912C290.599 182.038 289.677 181.343 288.634 180.881C287.592 180.419 286.458 180.202 285.319 180.246C262.279 179.632 262.411 210.044 280.777 213.467C282.664 209.375 284.046 205.491 284.046 205.491Z" fill="#2C4153"/>
</g>
<path d="M283.592 203.42C284.25 204.012 283.592 202.772 283.373 202.487C282.535 201.447 281.378 200.711 280.081 200.392C276.687 200.663 273.314 201.165 269.988 201.895C264.93 203.793 261.036 212.043 265.534 216.552C267.487 218.494 269.363 217.09 271.173 218C271.809 218.318 272.632 220.271 273.367 220.842C274.355 221.494 275.482 221.904 276.658 222.038C277.624 220.425 278.172 218.593 279.05 216.947C280.932 213.228 282.599 209.404 284.042 205.493C283.439 205.175 283.066 202.948 283.592 203.42Z" fill="#2C4153"/>
<g style="mix-blend-mode:multiply" opacity="0.4">
<path d="M283.592 203.42C284.25 204.012 283.592 202.772 283.373 202.487C282.535 201.447 281.378 200.711 280.081 200.392C276.687 200.663 273.314 201.165 269.988 201.895C264.93 203.793 261.036 212.043 265.534 216.552C267.487 218.494 269.363 217.09 271.173 218C271.809 218.318 272.632 220.271 273.367 220.842C274.355 221.494 275.482 221.904 276.658 222.038C277.624 220.425 278.172 218.593 279.05 216.947C280.932 213.228 282.599 209.404 284.042 205.493C283.439 205.175 283.066 202.948 283.592 203.42Z" fill="#2C4153"/>
</g>
<g style="mix-blend-mode:multiply" opacity="0.4">
<g style="mix-blend-mode:multiply" opacity="0.4">
<path d="M226.994 250.826C225.551 252.374 224.465 254.219 223.811 256.232C223.157 258.245 222.952 260.376 223.209 262.477L226.106 258.615C226.573 258.312 227.069 258.055 227.587 257.847C227.086 255.542 226.887 253.182 226.994 250.826V250.826Z" fill="#486985"/>
</g>
</g>
<g style="mix-blend-mode:multiply" opacity="0.4">
<g style="mix-blend-mode:multiply" opacity="0.4">
<path d="M307.578 244.641L309.674 256.84L321.742 267.296C323.596 262.633 326.053 260.187 328.884 259.901L307.578 244.641Z" fill="#486985"/>
</g>
</g>
<g style="mix-blend-mode:multiply" opacity="0.4">
<g style="mix-blend-mode:multiply" opacity="0.4">
<path d="M307.578 244.641L309.674 256.84L321.742 267.296C323.596 262.633 326.053 260.187 328.884 259.901L307.578 244.641Z" fill="#486985"/>
</g>
</g>
<g style="mix-blend-mode:multiply" opacity="0.4">
<path d="M297.636 328.828C290.438 324.253 287.048 316.047 285.469 309.08C284.722 305.785 285.256 302.33 286.964 299.414C288.671 296.499 291.423 294.342 294.662 293.381L307.575 289.552L301.289 280.424C299.795 278.255 298.893 275.734 298.67 273.11C298.446 270.486 298.911 267.849 300.016 265.459L303.779 257.297C303.91 257.015 303.982 256.709 303.991 256.398C304.001 256.087 303.948 255.778 303.835 255.488C303.722 255.198 303.553 254.934 303.336 254.712C303.119 254.489 302.859 254.312 302.572 254.192L289.407 248.761C284.075 242.179 280.005 230.001 276.714 224.076L274.157 223.978H273.74C272.808 223.978 271.875 223.868 270.943 223.78C270.01 223.692 269.33 223.67 268.551 223.67H267.926C267.366 223.67 266.829 223.67 266.269 223.747C265.94 223.747 265.622 223.835 265.293 223.868C264.964 223.901 264.492 223.956 264.108 224.021C263.724 224.087 263.011 224.241 262.55 224.362C262.396 224.362 262.232 224.416 262.078 224.46C259.687 225.076 257.384 225.99 255.221 227.181V227.181C252.984 228.358 250.917 229.835 249.077 231.57C249.077 231.57 247.256 233.237 244.59 235.618L244.459 236.276C244.459 236.276 248.913 235.113 251.283 242.102L252.38 248.235C252.414 248.419 252.389 248.61 252.308 248.78C252.227 248.949 252.095 249.089 251.93 249.178C245.918 252.382 239.094 262.618 239.094 262.618L251.008 254.225L250.635 254.916C250.262 258.273 252.742 264.79 252.742 264.79C252.742 264.79 259.73 288.367 252.544 299.272C245.358 310.177 245.83 343.091 245.83 343.091L247.728 395.752C247.728 395.752 256.242 401.292 279.665 403.278C284.413 403.695 289.191 403.636 293.927 403.103C295.2 399.241 298.316 391.758 298.316 391.758L303.724 341.621C304.015 339.132 303.597 336.611 302.52 334.349C301.443 332.086 299.75 330.173 297.636 328.828V328.828Z" fill="#486985"/>
</g>
<g style="mix-blend-mode:multiply" opacity="0.4">
<path d="M257.939 295.29L260.945 294.292C264.236 291.922 264.499 283.222 264.499 283.222L255.723 285.635C255.723 290.715 254.867 295.718 252.431 299.327L252.168 299.766C253.417 299.535 254.593 299.008 255.597 298.229C256.601 297.451 257.404 296.443 257.939 295.29Z" fill="#486985"/>
</g>
<g style="mix-blend-mode:multiply" opacity="0.4">
<path d="M251.976 249.203C251.482 249.473 251.002 249.77 250.539 250.091C250.841 250.107 251.14 250.031 251.397 249.872C251.654 249.713 251.856 249.48 251.976 249.203V249.203Z" fill="#486985"/>
</g>
<g style="mix-blend-mode:multiply" opacity="0.4">
<path d="M244.55 235.639L244.418 236.297C244.418 236.297 248.872 235.134 251.242 242.134L252.339 248.19C253.963 243.516 252.471 233.675 251.681 229.363C250.737 230.03 249.843 230.763 249.004 231.557C249.004 231.557 247.259 233.258 244.55 235.639Z" fill="#486985"/>
</g>
<path d="M265.182 277.812C264.655 276.309 261.891 279.786 261.09 280.62C258.106 283.604 256.482 285.272 252.313 283.176C241.66 277.855 243.723 262.496 233.3 257.636C230.788 256.462 223.953 257.504 223.426 260.872C222.899 264.24 224.578 267.883 226.509 270.636C231.994 278.503 238.632 283.495 245.895 289.551C248.089 291.383 248.616 294.674 251.304 296.024C256.142 298.437 255.374 293.698 256.252 293.259C257.129 292.82 257.897 293.423 258.742 292.787C260.618 291.383 259.96 289.211 261.189 287.576C263.887 283.988 266.575 281.838 265.182 277.812Z" fill="#F6C7BD"/>
<path d="M324.165 263.004C323.035 264.599 322.051 266.291 321.224 268.062C318.752 273.376 315.737 278.42 312.228 283.114C311.065 284.573 306.743 288.786 304.548 286.581C303.451 285.484 300.16 279.527 297.966 280.997C296.66 281.864 297.966 283.816 298.723 284.584C301.652 287.503 303.396 293.976 307.083 295.819C308.948 296.74 311.471 297.772 313.665 297.223C316.134 296.609 318.558 291.913 319.963 290.048C324.966 283.378 335.915 276.729 337.363 268.106C337.857 265.155 337.791 261.271 334.181 260.108C332.435 259.622 330.595 259.577 328.827 259.976C326.991 260.465 325.358 261.526 324.165 263.004Z" fill="#F6C7BD"/>
<g style="mix-blend-mode:multiply" opacity="0.4">
<path d="M251.318 296.027C252.101 296.496 253.005 296.725 253.918 296.685C254.262 295.838 254.552 294.969 254.784 294.085C249.918 288.402 244.693 283.037 239.14 278.023C233.258 272.691 229.227 265.624 227.631 257.847C227.148 258.045 224.449 255.653 223.945 255.971L223.363 262.312C223.597 265.333 224.694 268.224 226.523 270.639C232.009 278.506 238.646 283.498 245.909 289.554C248.114 291.386 248.63 294.677 251.318 296.027Z" fill="#F6C7BD"/>
</g>
<g style="mix-blend-mode:multiply" opacity="0.4">
<path d="M324.165 263.006C323.035 264.601 322.051 266.294 321.224 268.064C318.752 273.378 315.737 278.422 312.228 283.116C311.065 284.576 306.743 288.789 304.548 286.583C303.451 285.486 300.16 279.529 297.966 280.999C296.66 281.866 297.966 283.819 298.723 284.587C300.445 286.298 301.762 289.249 303.309 291.762C304.029 292.941 304.891 294.028 305.876 294.998C306.244 295.319 306.649 295.595 307.083 295.821C307.565 296.051 308.103 296.304 308.674 296.534C310.67 296.764 312.272 294.877 313.358 291.762C315.289 286.21 321.74 280.889 328.882 273.33C334.203 267.691 328.882 259.935 328.882 259.935C327.02 260.425 325.366 261.502 324.165 263.006Z" fill="#F6C7BD"/>
</g>
<path d="M366.635 161.984C365.702 163.454 364.309 164.792 363.552 166.306C363.245 166.931 364.188 168.698 364.353 169.367C364.638 170.464 360.853 174.699 359.898 175.182C359.229 175.511 362.093 177.135 361.95 177.617C361.017 180.415 360.271 186.263 361.95 188.983C363.047 190.859 366.646 188.468 367.063 188.885C367.135 190.389 367.084 191.897 366.909 193.394C366.909 193.449 365.318 193.449 365.911 194.041C369.608 197.738 376.212 197.892 380.875 196.147C382.431 195.525 383.922 194.753 385.329 193.844C386.296 193.333 387.289 192.871 388.303 192.461C388.303 192.461 384.287 192.999 384.024 191.935C383.157 188.435 385.351 185.824 386.778 182.982C389.202 178.144 390.979 163.64 386.284 159.943C382.696 157.123 376.838 156.652 372.614 157.99C370.925 158.563 369.374 159.482 368.061 160.689C367.548 161.078 367.071 161.511 366.635 161.984Z" fill="#F6C7BD"/>
<g style="mix-blend-mode:multiply" opacity="0.4">
<path d="M377.178 182.695C374.808 178.515 375.039 164.593 375.324 157.462C374.387 157.568 373.462 157.759 372.559 158.032C370.87 158.605 369.319 159.524 368.006 160.731C367.513 161.119 367.054 161.549 366.635 162.015C365.702 163.485 364.309 164.824 363.552 166.338C363.245 166.963 364.188 168.729 364.353 169.398C364.638 170.496 360.853 174.73 359.898 175.213C359.229 175.542 362.093 177.166 361.95 177.649C361.017 180.446 360.271 186.294 361.95 189.015C363.047 190.891 366.646 188.499 367.063 188.916C367.135 190.421 367.084 191.929 366.909 193.425C366.909 193.48 365.318 193.48 365.911 194.072C367.432 195.519 369.335 196.501 371.396 196.903C369.246 187.764 380.414 188.4 377.178 182.695Z" fill="#F6C7BD"/>
</g>
<g style="mix-blend-mode:multiply" opacity="0.4">
<path d="M377.605 183.662C377.605 183.662 368.74 188.335 365.328 189.29C365.328 189.29 375.685 183.695 376.716 181.687L377.605 183.662Z" fill="#F6C7BD"/>
</g>
<path d="M368.825 152.883C367.948 153.26 367.17 153.834 366.551 154.561C365.933 155.288 365.491 156.148 365.259 157.074C363.24 164.117 372.84 161.155 373.18 164.161C373.197 165.983 372.915 167.795 372.346 169.526C372.346 169.745 371.403 171.72 371.6 171.797C373.224 172.609 375.309 167.902 375.309 175.275C375.309 177.195 373.301 183.744 375.122 185.555C375.254 185.686 375.879 185.643 376.044 185.643C378.874 185.643 381.606 186.476 384.382 186.476C384.448 186.476 384.952 186.531 384.985 186.476C388.276 181.55 397.163 169.296 396.329 163.437C395.013 154.232 380.63 154.408 374.003 154.408C372.624 154.551 371.23 154.443 369.889 154.09C369.121 153.793 369.922 152.51 368.825 152.883Z" fill="#2C4153"/>
<path d="M331 182.675C332.163 181.995 333.194 181.172 334.368 180.481C336.145 179.329 338.866 177.771 341.016 177.617C343.913 177.409 347.961 178.55 350.506 176.63C353.677 174.249 357.714 170.157 355.992 168.051C355.685 167.656 354.61 168.051 354.324 168.248C353.227 169.038 347.094 173.13 348.949 169.927C351.088 166.208 357.221 166.109 360.249 166.635C360.786 166.712 361.269 165.538 360.732 165.099C360.38 164.803 358.987 164.759 359.426 164.65C359.865 164.54 363.343 164.551 362.608 163.432C362.169 162.774 360.293 162.697 360.04 162.203C359.942 161.984 363.003 161.391 362.026 160.601C359.7 158.747 353.315 159.427 350.715 160.13C345.964 161.391 344.132 167.305 340.468 170.004C337.078 172.538 330.967 173.558 326.886 174.491C325.525 174.809 322.914 175.094 321.916 176.092C321.51 176.498 322.574 177.804 322.761 178.1C324.099 180.24 326.227 181.765 327.599 183.717C328.652 185.111 330.649 182.917 331 182.675Z" fill="#F6C7BD"/>
<g style="mix-blend-mode:multiply" opacity="0.4">
<path d="M350.75 160.042C346 161.304 344.167 167.217 340.503 169.916C337.113 172.45 331.002 173.471 326.921 174.403C325.56 174.721 322.949 175.007 321.951 176.005C321.545 176.411 322.609 177.716 322.796 178.013C323.126 178.514 323.493 178.991 323.893 179.439L324.595 178.77C324.595 178.77 340.415 172.659 342.335 172.472C344.255 172.286 346.164 166.032 346.164 166.032C346.164 166.032 352.944 158.451 360.108 162.083C360.108 162.083 360.196 161.973 360.372 161.907L362.237 160.645C362.199 160.583 362.151 160.527 362.094 160.481C359.735 158.66 353.405 159.34 350.75 160.042Z" fill="#F6C7BD"/>
</g>
<path d="M353.248 196.544C357.077 195.249 357.637 195.699 362.025 194.459C362.672 194.284 366.414 193.428 366.414 193.428C367.336 194.248 368.331 194.983 369.387 195.622C372.027 196.636 374.887 196.938 377.681 196.5C379.875 196.193 387.774 192.112 388.466 192.43C393.458 195.115 398.015 198.54 401.982 202.589C404.176 204.783 407.358 206.484 408.565 208.952C413.019 217.861 406.601 229.742 405.054 239.013C404.165 244.389 403.957 249.896 403.057 255.305C401.302 265.815 406.469 283.446 399.294 290.621C398.361 291.565 401.4 297.291 399.919 298.762C395.641 303.051 362.464 303.468 356.2 301.899C354.17 301.395 347.126 301.844 345.689 300.396C344.647 299.299 346.995 292.354 346.062 291.883C341.773 289.688 343.177 283.534 343.177 279.101C343.177 266.88 344.801 254.603 344.801 242.392C344.801 238.607 342.508 230.324 344.175 227.033C345.558 224.268 346.819 221.097 348.443 218.256C349.847 215.787 352.952 200.998 352.952 197.707C353.029 197.038 352.535 196.796 353.248 196.544Z" fill="#E7EEF7"/>
<g style="mix-blend-mode:multiply" opacity="0.6">
<path d="M355.245 283.227C355.552 279.113 359.798 240.264 359.798 240.264C359.798 240.264 365.536 207.79 362.738 204.323C359.94 200.856 362.058 194.449 362.058 194.449C357.669 195.688 357.077 195.239 353.281 196.533C352.568 196.786 353.061 197.027 353.061 197.63C353.061 200.922 349.957 215.711 348.552 218.179C346.929 221.01 345.667 224.18 344.285 226.956C342.617 230.247 344.91 238.574 344.91 242.316C344.91 254.526 343.286 266.803 343.286 279.025C343.286 283.413 341.882 289.656 346.172 291.806C347.104 292.278 344.756 299.277 345.799 300.32C347.236 301.768 354.279 301.318 356.309 301.823L359.831 294.911C359.831 294.911 354.949 287.352 355.245 283.227Z" fill="#E7EEF7"/>
</g>
<path d="M398.801 359.049C398.559 357.831 401.609 333.146 401.609 330.996C401.609 328.845 400.929 302.602 400.929 302.602L398.735 299.585C391.307 303.096 362.113 303.359 356.277 301.9C354.423 301.44 348.344 301.769 346.238 300.715L345.722 300.946L342.223 308.988L350.791 350.777V361.045C350.791 361.045 350.67 364.337 354.85 368.221L354.62 376.12C354.62 376.12 352.217 381.265 353.775 385.335L353.687 438.545C353.687 438.545 357.385 444.919 376.935 440.037L377.177 346.783L380.72 374.397L383.408 433.904C383.408 433.904 390.978 446.982 405.164 433.29L402.103 368.561C402.103 368.561 399.053 360.266 398.801 359.049Z" fill="#486985"/>
<path d="M322.621 176.388C322.303 175.51 327.426 182.685 328.424 184.693C329.73 187.304 320.383 186.986 324.65 189.553C325.484 190.047 344.102 193.349 346.834 193.941C349.094 194.391 353.417 195.499 354.371 197.924C357.3 205.253 352.594 224.671 344.804 227.787C344.08 228.083 345.024 234.458 344.08 229.981C343.773 228.511 342.698 223.399 341.985 222.159C340.317 219.241 335.161 216.739 332.187 215.423C323.531 211.572 305.758 204.518 304.003 193.963C302.697 186.152 307.404 184.978 311.825 180.557C312.922 179.46 312.11 177.88 314.656 176.783C315.61 176.377 320.24 173.02 321.392 174.172C321.875 174.588 323.619 179.109 322.621 176.388Z" fill="#D0DEEF"/>
<path d="M415.113 223.701C415.113 223.602 415.036 223.515 415.014 223.416C414.992 223.317 415.014 222.966 415.014 222.747C414.334 217.316 414.597 213.257 409.441 210.931C412.195 219.565 406.566 230.415 405.129 239.017C404.241 244.392 404.032 249.9 403.133 255.309C401.97 262.264 403.846 272.336 403.133 280.433C406.896 278.578 410.516 273.411 412.491 271.14C418.646 264.108 416.462 233.125 415.113 223.701Z" fill="#D0DEEF"/>
<g style="mix-blend-mode:multiply" opacity="0.4">
<path d="M403.166 280.433C406.929 278.578 410.55 273.411 412.525 271.14C412.749 270.881 412.955 270.606 413.139 270.317C412.25 265.687 411.098 259.774 410.199 255.956C408.531 248.891 411.691 212.324 411.691 212.324C411.029 211.758 410.29 211.288 409.496 210.931C412.25 219.565 406.622 230.415 405.185 239.017C404.296 244.392 404.088 249.9 403.188 255.309C401.97 262.264 403.868 272.336 403.166 280.433Z" fill="#D0DEEF"/>
</g>
<g style="mix-blend-mode:multiply" opacity="0.6">
<path d="M373.294 171.858C372.867 171.858 373.964 171.672 374.128 172.374C374.183 172.549 374.688 176.707 375.028 176.016C375.467 175.139 375.938 171.551 375.028 170.86C374.117 170.169 372.362 171.705 372.581 171.957C372.801 172.209 373.36 171.858 373.294 171.858Z" fill="#F6C7BD"/>
</g>
<g style="mix-blend-mode:multiply" opacity="0.4">
<path d="M345.722 300.946L342.223 308.988L350.791 350.777V361.045C350.791 361.045 350.67 364.337 354.85 368.221L354.62 376.12C354.62 376.12 352.217 381.265 353.775 385.335L353.687 438.545C353.687 438.545 355.355 441.409 362.344 441.837C366.425 424.393 362.102 392.873 361.598 386.981C361.06 380.771 361.598 363.942 361.598 363.942L363.331 337.611L371.428 335.79C371.77 335.714 372.078 335.528 372.303 335.259C372.529 334.991 372.659 334.655 372.674 334.305C372.689 333.954 372.588 333.609 372.387 333.322C372.185 333.035 371.894 332.823 371.559 332.718L366.162 330.996C361.598 328.626 361.071 323.766 361.422 318.642C362.058 309.24 356.277 301.944 356.277 301.944C354.423 301.483 348.344 301.813 346.238 300.759L345.722 300.946Z" fill="#486985"/>
</g>
<g style="mix-blend-mode:multiply" opacity="0.4">
<path d="M316.781 194.459C314.225 191.343 323.529 188.469 323.54 188.469C323.54 188.469 318.054 183.795 316.342 180.262C314.631 176.73 321.828 179.055 321.828 179.055L322.552 176.521C322.233 175.685 321.837 174.88 321.367 174.118C320.215 172.966 315.585 176.313 314.631 176.73C312.086 177.827 312.942 179.363 311.801 180.504C307.412 184.892 302.673 186.099 303.978 193.91C305.733 204.464 323.507 211.519 332.163 215.37C335.136 216.686 340.292 219.188 341.96 222.106C342.673 223.368 343.748 228.458 344.055 229.928C344.999 234.427 344.056 228.052 344.78 227.734C352.569 224.618 357.276 205.2 354.346 197.871C354.135 197.376 353.817 196.934 353.414 196.576V196.576C353.414 196.576 319.392 197.586 316.781 194.459Z" fill="#D0DEEF"/>
</g>
<g style="mix-blend-mode:multiply" opacity="0.4">
<path d="M374.005 154.395C372.625 154.538 371.232 154.43 369.891 154.076C369.123 153.758 369.891 152.475 368.793 152.848C367.917 153.225 367.139 153.799 366.52 154.526C365.902 155.253 365.459 156.113 365.228 157.039C363.209 164.082 372.809 161.12 373.149 164.126C373.165 165.948 372.884 167.76 372.315 169.491C372.315 169.71 371.372 171.685 371.569 171.762C373.193 172.574 375.277 167.867 375.277 175.24C375.277 177.16 373.27 183.709 375.091 185.52C375.223 185.651 375.848 185.607 376.012 185.607C376.506 185.607 380.17 186.057 380.653 186.09C381.037 185.278 379.556 185.454 378.459 180.221C377.307 174.735 373.676 162.864 380.094 154.449L374.005 154.395Z" fill="#2C4153"/>
</g>
<g style="mix-blend-mode:multiply" opacity="0.4">
<g style="mix-blend-mode:multiply" opacity="0.4">
<path d="M398.2 359.554C397.103 362.528 394.908 365.04 393.811 367.969C393.804 368.004 393.811 368.04 393.829 368.071C393.847 368.101 393.876 368.124 393.91 368.134C396.39 368.518 398.299 366.686 399.549 364.777C399.648 364.634 399.418 364.491 399.319 364.645C398.112 366.422 396.324 368.233 393.987 367.871L394.075 368.035C395.172 365.062 397.366 362.55 398.463 359.631C398.529 359.467 398.266 359.39 398.2 359.554Z" fill="#486985"/>
</g>
</g>
<g style="mix-blend-mode:multiply" opacity="0.4">
<g style="mix-blend-mode:multiply" opacity="0.4">
<path d="M355.983 369.202C357.497 368.434 358.857 367.403 360.371 366.635L360.185 366.448C358.365 370.001 356.771 373.666 355.412 377.419C355.347 377.584 355.621 377.661 355.676 377.496C357.029 373.744 358.616 370.079 360.426 366.525C360.439 366.498 360.443 366.467 360.438 366.437C360.432 366.408 360.418 366.38 360.396 366.36C360.374 366.339 360.346 366.326 360.316 366.322C360.286 366.318 360.255 366.324 360.229 366.338C358.726 367.106 357.354 368.127 355.84 368.895C355.687 368.972 355.84 369.213 355.983 369.136V369.202Z" fill="#486985"/>
</g>
</g>
<g style="mix-blend-mode:multiply" opacity="0.4">
<path d="M396.247 439.064L393.406 376.759L389.171 363.945L394.503 331.141C394.503 331.141 386.966 325.546 383.324 317.68C383.324 317.68 385.518 327.367 383.324 332.48L377.18 346.808L380.723 374.422L383.411 433.929C383.411 433.929 387.833 441.576 396.247 439.064Z" fill="#486985"/>
</g>
<path d="M197.428 198.462C192.853 198.583 188.542 200.206 184.054 201.435L183.835 201.622L185.689 201.194C184.882 201.32 184.1 201.575 183.374 201.951C181.619 203.278 176.232 207.316 172.732 209.4C170.556 210.585 168.63 212.179 167.06 214.096L164.076 239.68C164.076 239.68 159.501 270.048 161.882 272.89C164.263 275.731 176.309 276.181 176.309 276.181L173.456 296.061V301.744C173.456 301.744 181.915 307.811 195.815 309.577C209.047 311.256 226.205 301.689 227.851 300.8C227.204 296.039 224.626 292.023 222.991 287.13C222.212 284.794 220.292 276.85 222.278 274.865C227.588 274.283 233.567 269.105 233.567 269.105C234.869 267.65 235.902 265.974 236.617 264.157C237.56 261.359 232.547 255.139 232.547 255.139L229.464 245.451C229.464 245.451 228.367 222.96 228.498 219.768C228.477 217.66 227.914 215.594 226.864 213.767C227.292 211.572 225.097 209.28 225.097 209.28L212.821 202.313L212.557 201.655C209.749 200.349 205.865 200.031 202.969 199.208C201.171 198.677 199.302 198.425 197.428 198.462Z" fill="white"/>
<path d="M222.985 287.147C222.832 286.675 222.623 285.962 222.415 285.128C221.471 284.262 220.725 284.262 220.363 285.633C218.674 292.095 216.03 295.024 216.03 295.024L206.628 289.539L199.913 272.884L196.161 241.935L202.963 233.52C202.963 233.52 205.794 211.874 203.72 201.704C199.496 201.145 195.437 200.662 194.515 200.717C192.949 200.935 191.396 201.243 189.864 201.638C188.997 208.473 185.903 230.163 181.899 227.102C178.344 224.359 174.965 215.725 174.899 207.947C174.131 208.451 173.396 208.923 172.705 209.329C170.529 210.514 168.603 212.108 167.033 214.025L164.049 239.609C164.049 239.609 159.474 269.977 161.855 272.819C164.235 275.66 176.282 276.11 176.282 276.11L173.429 295.99V301.673C173.429 301.673 181.888 307.74 195.788 309.506C209.019 311.185 226.178 301.618 227.824 300.729C227.198 296.023 224.62 292.018 222.985 287.147Z" fill="#E5EFF9"/>
<path d="M211.187 162.815C211.889 164.658 216.189 170.637 215.356 172.348C213.94 175.256 214.522 175.047 215.619 177.132C216.54 178.887 216.036 186.227 215.312 189.112C214.807 191.153 211.527 190.144 210.528 191.142C209.53 192.14 211.066 195.53 210.002 196.627C209.936 196.682 205.207 194.181 204.604 193.994C203.222 193.578 198.844 194.082 197.966 193.205C197.473 192.7 197.966 190.275 197.879 189.518C197.703 186.227 196.782 182.936 197.352 179.644C198.334 174.617 200.981 170.068 204.867 166.731C206.128 165.567 207.528 164.565 209.036 163.747C209.519 163.429 211.187 162.804 211.187 162.815Z" fill="#F6C7BD"/>
<path d="M210.896 162.509C213.287 164.034 211.883 171.857 211.883 174.578C211.883 175.049 212.344 177.573 211.971 177.957C211.392 177.421 210.863 176.833 210.391 176.201C210.136 175.845 209.79 175.562 209.39 175.381C208.99 175.201 208.55 175.129 208.113 175.174C207.677 175.218 207.26 175.377 206.905 175.635C206.549 175.892 206.269 176.239 206.09 176.64C205.564 177.737 206.65 179.756 206.354 180.37C205.015 183.047 206.156 186.536 204.5 189.015C203.611 190.365 194.34 194.227 193.046 192.932C188.657 188.489 181.307 175.96 181.932 169.608C182.349 165.526 183.742 159.734 189.403 156.925C195.821 153.743 202.843 152.416 208.46 155.477C210.841 156.782 212.41 156.991 212.41 159.69C212.41 160.567 211.016 160.535 210.918 161.401C210.896 161.599 210.687 162.378 210.896 162.509Z" fill="#2C4153"/>
<path d="M164.23 274.26C164.68 279.932 168.312 288.072 170.714 291.912C171.647 293.404 172.415 295.116 173.391 296.575H173.446V296.026L176.299 276.169C176.299 276.169 168.509 275.883 164.23 274.26Z" fill="#F6C7BD"/>
<path d="M227.65 299.945C227.65 300.231 227.792 300.494 227.836 300.779C226.191 301.712 209.032 311.278 195.801 309.556C182.569 307.834 174.637 302.513 173.782 301.876C170.699 310.521 171.456 323.007 171.456 323.007L173.145 363.172C172.098 364.534 171.398 366.13 171.105 367.823C170.392 371.038 170.655 378.29 170.655 378.29C165.619 389.371 169.657 403.523 169.657 403.523C170.891 408.175 171.486 412.973 171.423 417.786C171.083 424.5 172.52 427.122 172.52 427.122L171.829 432.312C183.326 436.7 189.81 431.061 189.81 431.061C189.81 431.061 189.547 424.259 189.547 423.59C189.547 422.92 188.538 416.118 188.79 414.11C189.042 412.103 189.437 408.526 189.437 408.526V380.21C189.437 380.21 192.059 375.931 192.465 372.892C192.661 370.628 192.498 368.347 191.983 366.134C193.882 360.563 195.421 354.875 196.591 349.107C197.742 342.36 200.035 329.699 200.035 329.699C200.035 329.699 199.311 363.106 199.311 364.093C199.311 365.081 197.578 371.411 198.159 374.209C198.763 376.767 199.094 379.381 199.147 382.009C199.147 384.73 198.236 384.993 199.267 394.571C200.299 404.149 201.615 437.018 201.615 437.018C214.781 439.991 221.956 432.202 221.956 432.202L220.859 422.701C220.859 422.701 218.796 402.712 218.741 396.37C218.686 390.029 216.986 391.335 218.741 386.496C219.792 383.91 220.07 381.075 219.542 378.334L220.507 374.658L219.871 365.651L220.716 357.379C220.716 357.379 222.91 349.326 225.916 337.357C228.922 325.387 228.933 300.187 228.933 300.187L227.65 299.945Z" fill="#2C4153"/>
<g style="mix-blend-mode:multiply">
<g style="mix-blend-mode:multiply">
<path d="M165.363 266.182C168.918 267.959 173.811 271.481 177.925 271.481L176.082 268.826L165.363 266.182Z" fill="#E5EFF9"/>
</g>
<g style="mix-blend-mode:multiply">
<path d="M215.708 266.105C215.708 262.715 212.362 257.986 212.044 254.146C211.462 247.202 214.38 240.817 214.38 234.091L210.946 236.779C211.158 240.371 211.158 243.972 210.946 247.564C210.584 253.049 209.783 257.207 216.026 266.017C218.67 269.758 230.025 260.104 232.099 255.946" fill="#E5EFF9"/>
</g>
<g style="mix-blend-mode:multiply">
<path d="M215.708 266.105C215.708 262.715 212.362 257.986 212.044 254.146C211.462 247.202 214.38 240.817 214.38 234.091L210.946 236.779C211.158 240.371 211.158 243.972 210.946 247.564C210.584 253.049 209.783 257.207 216.026 266.017C218.67 269.758 230.025 260.104 232.099 255.946" fill="#E5EFF9"/>
</g>
<g style="mix-blend-mode:multiply">
<path d="M214.38 234.093C214.38 238.273 213.283 242.321 212.537 246.457C212.35 249.112 212.164 251.855 212.043 254.137C212.328 257.549 215.005 261.674 215.587 264.921C215.817 265.239 216.025 265.536 216.212 265.777L220.6 263.045C220.414 260.16 219.58 247.62 219.295 240.006C218.966 231.383 222.027 215.124 222.027 215.124C219.032 215.124 215.049 229.507 213.743 234.542L214.38 234.093Z" fill="#E5EFF9"/>
</g>
<g style="mix-blend-mode:multiply">
<path d="M223.323 264.601C220.854 266.235 218.462 267.234 216.981 266.729L217.091 266.861L214.645 267.651L217.936 275.155C220.13 276.691 227.81 273.52 227.81 273.52L223.29 264.601H223.323Z" fill="#E5EFF9"/>
</g>
</g>
<g style="mix-blend-mode:multiply">
<path d="M180.57 204.032C180.57 204.032 192.419 200.917 194.515 200.741C196.61 200.565 214.647 203.253 214.647 203.253L213.835 198.404L202.633 196.539H190.565C190.565 196.539 180.998 201.081 180.57 204.032Z" fill="#E5EFF9"/>
</g>
<g style="mix-blend-mode:multiply">
<path d="M180.57 204.032C180.57 204.032 192.419 200.917 194.515 200.741C196.61 200.565 214.647 203.253 214.647 203.253L213.835 198.404L202.633 196.539H190.565C190.565 196.539 180.998 201.081 180.57 204.032Z" fill="#E5EFF9"/>
</g>
<g style="mix-blend-mode:multiply">
<path d="M168.93 217.332C172.221 217.332 177.147 214.15 180.691 213.47C192.649 211.188 206.495 211.583 217.499 217.091" stroke="#E5EFF9" stroke-width="0.75" stroke-miterlimit="10"/>
</g>
<g style="mix-blend-mode:multiply">
<path d="M225.365 212.71C223.818 212.71 219.32 215.892 219.32 217.615" stroke="#E5EFF9" stroke-width="0.75" stroke-miterlimit="10"/>
</g>
<path d="M181.72 202.09C188.906 200.488 195.269 196.956 202.96 199.15C206.251 200.093 210.958 200.247 213.744 202.156C214.786 202.566 215.862 202.885 216.959 203.11C217.529 202.013 216.125 200.433 215.73 199.49C212.954 192.83 216.52 195.902 208.358 193.072C205.735 192.161 190.442 191.547 187.907 193.445C186.492 194.542 184.364 194.257 183.431 195.804C182.762 196.901 182.104 197.998 181.522 199.15C180.91 200.374 180.225 201.561 179.471 202.704C177.748 205.294 183.859 201.201 185.68 201.201" fill="white"/>
<g style="mix-blend-mode:multiply">
<path d="M168.645 238.388C168.655 239.5 168.81 240.606 169.105 241.679L168.645 238.388Z" fill="#E5EFF9"/>
</g>
<g style="mix-blend-mode:multiply">
<path d="M170.236 251.014C168.469 247.25 166.944 244.639 166.944 244.639L168.612 238.386L166.067 222.28L164.037 239.68C164.037 239.68 159.462 270.048 161.843 272.89C162.874 274.13 165.738 274.909 168.645 275.402L170.236 275.633C169.501 272.341 170.093 255.172 170.236 251.014Z" fill="#E5EFF9"/>
</g>
<g style="mix-blend-mode:multiply">
<path d="M176.084 271.487C175.909 271.487 176.018 269.864 176.007 269.688C175.656 265.53 175.382 261.361 175.064 257.203C174.548 250.412 168.668 245.135 168.668 238.388L167 244.641C167 244.641 176.6 261.471 176.084 271.487Z" fill="#E5EFF9"/>
</g>
<path d="M208.357 193.075C205.735 192.165 190.441 191.55 187.907 193.448C187.149 193.919 186.319 194.26 185.449 194.458C185.449 194.458 187.907 198.221 190.123 199.691L190.814 199.537C194.132 198.515 197.636 198.241 201.072 198.736L201.456 198.791H201.566C202.039 198.866 202.505 198.979 202.959 199.131L209.465 193.426L208.357 193.075Z" fill="#E5EFF9"/>
<g style="mix-blend-mode:multiply" opacity="0.4">
<path d="M170.352 275.642C168.27 275.392 166.218 274.929 164.23 274.26C164.68 279.932 168.312 288.072 170.714 291.912C171.647 293.404 172.415 295.116 173.391 296.575H173.446V296.026L174.488 288.742C172.605 284.551 171.217 280.155 170.352 275.642V275.642Z" fill="#F6C7BD"/>
</g>
<g style="mix-blend-mode:multiply" opacity="0.6">
<path d="M198.158 192.203C199.497 191.74 200.805 191.194 202.075 190.569C201.483 181.43 195.196 170.689 193.221 168.561C188.471 163.459 190.939 156.174 190.939 156.174C190.424 156.405 189.908 156.635 189.404 156.887C183.742 159.696 182.349 165.489 181.932 169.57C181.329 175.703 188.109 187.574 192.574 192.39C194.253 192.247 196.206 192.192 198.158 192.203Z" fill="#2C4153"/>
</g>
<g style="mix-blend-mode:multiply" opacity="0.4">
<path d="M194.518 321.147C193.344 318.569 192.982 313.357 192.949 309.145C186.144 308.066 179.628 305.621 173.793 301.958C170.71 310.604 171.467 323.089 171.467 323.089L173.157 363.254C172.11 364.616 171.409 366.213 171.116 367.906C170.403 371.12 170.667 378.372 170.667 378.372C165.631 389.453 169.668 403.606 169.668 403.606C170.903 408.257 171.497 413.056 171.435 417.868C171.094 424.582 172.532 427.204 172.532 427.204L171.841 432.394C183.338 436.782 189.822 431.143 189.822 431.143C189.822 431.143 189.822 430.77 189.822 430.189C189.647 426.042 188.725 409.267 185.499 399.086C181.747 387.401 186.322 370.561 188.155 360.884C189.987 351.208 199.817 331.174 199.839 331.131C199.839 331.131 196.514 325.535 194.518 321.147Z" fill="#2C4153"/>
</g>
<path d="M191.663 365.679C189.293 368.049 186.671 370.364 183.314 371.165L183.467 371.362C186.067 367.665 189.282 364.462 191.882 360.764C191.981 360.611 191.739 360.479 191.641 360.622C189.04 364.319 185.826 367.534 183.226 371.231C183.16 371.329 183.281 371.45 183.379 371.428C186.791 370.649 189.457 368.312 191.86 365.943C191.981 365.811 191.783 365.625 191.663 365.745V365.679Z" fill="black"/>
<path d="M173.035 363.332C173.693 363.826 174.351 364.298 174.977 364.824C175.598 365.343 176.158 365.932 176.644 366.58C176.754 366.711 176.995 366.58 176.886 366.437C176.385 365.772 175.81 365.164 175.174 364.627C174.538 364.089 173.847 363.595 173.177 363.102C173.035 362.992 172.903 363.233 173.035 363.332V363.332Z" fill="black"/>
<g style="mix-blend-mode:multiply" opacity="0.4">
<path d="M227.846 300.778C226.201 301.71 209.042 311.277 195.811 309.555C194.297 309.357 192.86 309.116 191.422 308.83C190.413 312.012 192.947 318.09 194.461 321.118C195.657 323.521 197.171 332.352 198.246 339.385C199.157 334.25 199.991 329.654 199.991 329.654C199.991 329.654 199.267 363.061 199.267 364.048C199.267 365.035 197.533 371.366 198.115 374.163C198.718 376.721 199.049 379.336 199.102 381.964C199.102 384.685 198.192 384.948 199.223 394.526C200.254 404.103 201.571 436.973 201.571 436.973C214.736 439.946 221.911 432.156 221.911 432.156V432.036L217.457 413.187L214.034 384.783L215.8 379.21L214.648 374.58V364.849C214.648 364.849 219.969 330.059 228.395 317.509C228.933 308.315 228.922 300.229 228.922 300.229L227.693 299.944C227.737 300.229 227.803 300.503 227.846 300.778Z" fill="#2C4153"/>
</g>
<path d="M233.288 271.837L233.562 269.083C233.496 269.083 227.572 274.251 222.306 274.843C221.836 278.945 222.07 283.097 222.997 287.12C225.103 293.461 228.833 298.31 227.835 305.244C227.561 307.23 224.752 318.947 226.738 319.934C229.744 321.427 228.032 310.642 230.391 313.001C233.353 315.952 226.771 325.497 228.603 326.726C232.179 329.106 238.378 320.604 238.378 317.773C238.356 301.788 233.288 288.546 233.288 271.837Z" fill="#F6C7BD"/>
<g style="mix-blend-mode:multiply" opacity="0.4">
<path d="M233.449 311.696C233.076 307.527 230.882 299.77 230.158 294.296C229.434 288.821 227.799 273.527 227.547 273.253L227.382 273.154C225.784 274.007 224.051 274.578 222.259 274.844C221.79 278.946 222.023 283.097 222.95 287.121C225.056 293.462 228.786 298.311 227.788 305.245C227.514 307.23 224.705 318.948 226.691 319.935C229.697 321.427 227.986 310.643 230.344 313.001C233.23 315.876 227.053 324.993 228.457 326.594C228.624 326.56 228.777 326.476 228.896 326.353C230.333 324.707 233.811 315.865 233.449 311.696Z" fill="#F6C7BD"/>
</g>
<path d="M215.162 378.851C213.296 380.538 211.174 381.919 208.876 382.943C208.755 382.943 208.81 383.151 208.876 383.195C210.394 383.668 211.986 383.854 213.572 383.744C213.602 383.735 213.628 383.717 213.646 383.692C213.665 383.668 213.675 383.637 213.675 383.606C213.675 383.575 213.665 383.545 213.646 383.521C213.628 383.496 213.602 383.478 213.572 383.469C212.012 383.578 210.446 383.396 208.953 382.932V383.184C211.268 382.148 213.404 380.752 215.283 379.048C215.309 379.023 215.325 378.989 215.326 378.953C215.327 378.917 215.313 378.882 215.289 378.856C215.264 378.83 215.23 378.815 215.194 378.814C215.158 378.813 215.123 378.826 215.097 378.851H215.162Z" fill="black"/>
<path d="M200.513 331.026C201.684 330.186 202.995 329.561 204.386 329.183C205.792 328.857 207.224 328.652 208.665 328.569V328.305C206.345 328.841 204.172 329.882 202.302 331.355C202.159 331.465 202.356 331.663 202.488 331.553C204.33 330.114 206.464 329.095 208.742 328.569C208.771 328.56 208.798 328.542 208.816 328.517C208.835 328.493 208.845 328.463 208.845 328.432C208.845 328.401 208.835 328.37 208.816 328.346C208.798 328.321 208.771 328.303 208.742 328.294C207.264 328.38 205.796 328.589 204.353 328.92C202.942 329.308 201.609 329.939 200.415 330.785C200.272 330.884 200.415 331.125 200.557 331.026H200.513Z" fill="black"/>
<path d="M171.83 328.301C173.608 330.594 175.418 332.963 178.194 334.093L178.27 333.83C177.524 333.578 176.811 333.26 176.076 333.007C175.901 333.007 175.835 333.216 175.999 333.271C176.745 333.523 177.458 333.841 178.194 334.093C178.369 334.148 178.424 333.896 178.27 333.83C175.549 332.733 173.761 330.352 172.017 328.103C171.907 327.961 171.721 328.103 171.83 328.301V328.301Z" fill="black"/>
<path d="M288.546 145.156H258.072C255.938 145.156 254.207 146.886 254.207 149.021V168.436C254.207 170.571 255.938 172.301 258.072 172.301H288.546C290.681 172.301 292.411 170.571 292.411 168.436V149.021C292.411 146.886 290.681 145.156 288.546 145.156Z" fill="#E9BB66"/>
<path d="M281.155 179.228L286.622 168.285H275.68L281.155 179.228Z" fill="#E9BB66"/>
<path d="M266.964 158.729C266.952 158.535 266.98 158.34 267.047 158.157C267.113 157.975 267.217 157.808 267.352 157.667C267.487 157.527 267.649 157.416 267.829 157.341C268.008 157.267 268.201 157.231 268.396 157.235C268.773 157.264 269.126 157.434 269.383 157.712C269.64 157.99 269.783 158.355 269.783 158.733C269.783 159.112 269.64 159.477 269.383 159.754C269.126 160.032 268.773 160.203 268.396 160.232C268.201 160.236 268.007 160.2 267.826 160.125C267.646 160.05 267.483 159.938 267.348 159.796C267.214 159.655 267.11 159.487 267.044 159.303C266.978 159.119 266.951 158.924 266.964 158.729V158.729Z" fill="white"/>
<path d="M271.894 158.729C271.912 158.454 272.01 158.189 272.176 157.968C272.342 157.747 272.57 157.58 272.83 157.487C273.091 157.395 273.372 157.38 273.641 157.446C273.909 157.511 274.153 157.654 274.341 157.857C274.529 158.06 274.653 158.313 274.699 158.585C274.745 158.858 274.71 159.138 274.598 159.391C274.486 159.644 274.302 159.858 274.07 160.008C273.837 160.157 273.566 160.235 273.29 160.233C273.098 160.232 272.907 160.192 272.731 160.114C272.555 160.037 272.397 159.925 272.266 159.784C272.135 159.643 272.035 159.476 271.971 159.295C271.907 159.114 271.881 158.921 271.894 158.729V158.729Z" fill="white"/>
<path d="M276.816 158.729C276.833 158.454 276.931 158.189 277.098 157.968C277.264 157.747 277.492 157.58 277.752 157.487C278.012 157.395 278.294 157.38 278.563 157.446C278.831 157.511 279.075 157.654 279.263 157.857C279.451 158.06 279.575 158.313 279.621 158.585C279.667 158.858 279.631 159.138 279.52 159.391C279.408 159.644 279.224 159.858 278.992 160.008C278.759 160.157 278.488 160.235 278.212 160.233C278.019 160.232 277.829 160.192 277.653 160.114C277.477 160.037 277.319 159.925 277.188 159.784C277.057 159.643 276.956 159.476 276.892 159.295C276.829 159.114 276.802 158.921 276.816 158.729V158.729Z" fill="white"/>
<path d="M401.281 116.525H370.807C368.672 116.525 366.941 118.255 366.941 120.39V139.805C366.941 141.94 368.672 143.671 370.807 143.671H401.281C403.415 143.671 405.146 141.94 405.146 139.805V120.39C405.146 118.255 403.415 116.525 401.281 116.525Z" fill="#E9BB66"/>
<path fill-rule="evenodd" clip-rule="evenodd" d="M385.73 136.657C382.024 136.657 379.02 133.652 379.02 129.946C379.02 126.24 382.024 123.236 385.73 123.236C389.436 123.236 392.44 126.24 392.44 129.946C392.44 133.652 389.436 136.657 385.73 136.657ZM385.73 135.986C389.065 135.986 391.769 133.282 391.769 129.946C391.769 126.611 389.065 123.907 385.73 123.907C382.394 123.907 379.691 126.611 379.691 129.946C379.691 133.282 382.394 135.986 385.73 135.986ZM388.848 127.622L389.322 128.097L384.914 132.505L382.137 129.729L382.612 129.254L384.914 131.556L388.848 127.622Z" fill="white"/>
<path d="M388.848 127.622L389.201 127.268C389.108 127.175 388.98 127.122 388.848 127.122C388.715 127.122 388.588 127.175 388.494 127.268L388.848 127.622ZM389.322 128.097L389.676 128.45C389.871 128.255 389.871 127.938 389.676 127.743L389.322 128.097ZM384.914 132.505L384.56 132.859C384.654 132.952 384.781 133.005 384.914 133.005C385.046 133.005 385.174 132.952 385.267 132.859L384.914 132.505ZM382.137 129.729L381.784 129.375C381.589 129.57 381.589 129.887 381.784 130.082L382.137 129.729ZM382.612 129.254L382.966 128.901C382.872 128.807 382.745 128.754 382.612 128.754C382.479 128.754 382.352 128.807 382.258 128.901L382.612 129.254ZM384.914 131.556L384.56 131.91C384.654 132.003 384.781 132.056 384.914 132.056C385.046 132.056 385.174 132.003 385.267 131.91L384.914 131.556ZM385.73 136.157C382.3 136.157 379.52 133.376 379.52 129.946H378.52C378.52 133.928 381.748 137.157 385.73 137.157V136.157ZM379.52 129.946C379.52 126.516 382.3 123.736 385.73 123.736V122.736C381.748 122.736 378.52 125.964 378.52 129.946H379.52ZM385.73 123.736C389.16 123.736 391.94 126.516 391.94 129.946H392.94C392.94 125.964 389.712 122.736 385.73 122.736V123.736ZM391.94 129.946C391.94 133.376 389.16 136.157 385.73 136.157V137.157C389.712 137.157 392.94 133.928 392.94 129.946H391.94ZM385.73 136.486C389.341 136.486 392.269 133.558 392.269 129.946H391.269C391.269 133.006 388.789 135.486 385.73 135.486V136.486ZM392.269 129.946C392.269 126.335 389.341 123.407 385.73 123.407V124.407C388.789 124.407 391.269 126.887 391.269 129.946H392.269ZM385.73 123.407C382.118 123.407 379.191 126.335 379.191 129.946H380.191C380.191 126.887 382.671 124.407 385.73 124.407V123.407ZM379.191 129.946C379.191 133.558 382.118 136.486 385.73 136.486V135.486C382.671 135.486 380.191 133.006 380.191 129.946H379.191ZM388.494 127.976L388.969 128.45L389.676 127.743L389.201 127.268L388.494 127.976ZM388.969 127.743L384.56 132.151L385.267 132.859L389.676 128.45L388.969 127.743ZM385.267 132.151L382.491 129.375L381.784 130.082L384.56 132.859L385.267 132.151ZM382.491 130.082L382.966 129.608L382.258 128.901L381.784 129.375L382.491 130.082ZM382.258 129.608L384.56 131.91L385.267 131.202L382.966 128.901L382.258 129.608ZM385.267 131.91L389.201 127.976L388.494 127.268L384.56 131.202L385.267 131.91Z" fill="white"/>
<path d="M377.775 150.596L383.251 139.645H372.309L377.775 150.596Z" fill="#E9BB66"/>
<path d="M512.145 169.313H480.717C478.515 169.313 476.73 171.098 476.73 173.299V193.322C476.73 195.524 478.515 197.309 480.717 197.309H512.145C514.346 197.309 516.131 195.524 516.131 193.322V173.299C516.131 171.098 514.346 169.313 512.145 169.313Z" fill="#E9BB66"/>
<path d="M467.149 183.479L478.434 189.126V177.832L467.149 183.479Z" fill="#E9BB66"/>
<mask id="path-148-outside-1_4608_68907" maskUnits="userSpaceOnUse" x="487.09" y="175.058" width="19" height="16" fill="black">
<rect fill="white" x="487.09" y="175.058" width="19" height="16"/>
<path fill-rule="evenodd" clip-rule="evenodd" d="M503.237 178.038L503.76 178.756L496.964 183.706L490.168 178.756L490.691 178.038L496.964 182.608L503.237 178.038ZM488.977 176.945V189.369H504.95V176.945H488.977ZM488.09 176.058H505.838V190.256H488.09V176.058Z"/>
</mask>
<path fill-rule="evenodd" clip-rule="evenodd" d="M503.237 178.038L503.76 178.756L496.964 183.706L490.168 178.756L490.691 178.038L496.964 182.608L503.237 178.038ZM488.977 176.945V189.369H504.95V176.945H488.977ZM488.09 176.058H505.838V190.256H488.09V176.058Z" fill="white"/>
<path d="M503.237 178.038L503.318 177.98L503.259 177.899L503.178 177.958L503.237 178.038ZM503.76 178.756L503.818 178.837L503.899 178.778L503.84 178.697L503.76 178.756ZM496.964 183.706L496.905 183.787L496.964 183.829L497.023 183.787L496.964 183.706ZM490.168 178.756L490.087 178.697L490.028 178.778L490.109 178.837L490.168 178.756ZM490.691 178.038L490.749 177.958L490.669 177.899L490.61 177.98L490.691 178.038ZM496.964 182.608L496.905 182.689L496.964 182.732L497.023 182.689L496.964 182.608ZM488.977 176.945V176.845H488.877V176.945H488.977ZM488.977 189.369H488.877V189.469H488.977V189.369ZM504.95 189.369V189.469H505.05V189.369H504.95ZM504.95 176.945H505.05V176.845H504.95V176.945ZM488.09 176.058V175.958H487.99V176.058H488.09ZM505.838 176.058H505.938V175.958H505.838V176.058ZM505.838 190.256V190.356H505.938V190.256H505.838ZM488.09 190.256H487.99V190.356H488.09V190.256ZM503.156 178.097L503.679 178.815L503.84 178.697L503.318 177.98L503.156 178.097ZM503.701 178.675L496.905 183.625L497.023 183.787L503.818 178.837L503.701 178.675ZM497.023 183.625L490.227 178.675L490.109 178.837L496.905 183.787L497.023 183.625ZM490.249 178.815L490.771 178.097L490.61 177.98L490.087 178.697L490.249 178.815ZM490.632 178.119L496.905 182.689L497.023 182.527L490.749 177.958L490.632 178.119ZM497.023 182.689L503.296 178.119L503.178 177.958L496.905 182.527L497.023 182.689ZM488.877 176.945V189.369H489.077V176.945H488.877ZM488.977 189.469H504.95V189.269H488.977V189.469ZM505.05 189.369V176.945H504.85V189.369H505.05ZM504.95 176.845H488.977V177.045H504.95V176.845ZM488.09 176.158H505.838V175.958H488.09V176.158ZM505.738 176.058V190.256H505.938V176.058H505.738ZM505.838 190.156H488.09V190.356H505.838V190.156ZM488.19 190.256V176.058H487.99V190.256H488.19Z" fill="white" mask="url(#path-148-outside-1_4608_68907)"/>
</g>
<defs>
<clipPath id="clip0_4608_68907">
<rect width="608" height="379" fill="white"/>
</clipPath>
</defs>
</svg>
