<svg width="168" height="72" viewBox="0 0 168 72" fill="none" xmlns="http://www.w3.org/2000/svg" aria-label="ministry of trade and industry singapore"><g clip-path="url(#clip0_11828_34261)"><path d="M68.285 23.9958H66.6719L64.4504 28.2821L62.3304 23.9958H60.4868V24.2493C60.7049 24.2655 60.914 24.3435 61.0894 24.474C61.2649 24.6046 61.3996 24.7825 61.4777 24.9868V28.5632C61.4777 28.7706 61.4501 28.9504 61.4362 29.1071C61.3948 29.379 61.1781 29.4942 60.7311 29.5219V29.7569H62.6161V29.5034C62.1552 29.4758 61.957 29.3606 61.9202 29.0886C61.8885 28.9092 61.8746 28.727 61.8787 28.5448V25.5214L63.9527 29.7754H64.1509L66.2801 25.655H66.3032V28.8029C66.3117 28.9678 66.3024 29.1331 66.2755 29.296C66.2433 29.4435 65.9621 29.485 65.5888 29.5127V29.7569H68.2113V29.5034C67.8379 29.4758 67.5568 29.4343 67.5245 29.2868C67.4955 29.121 67.4847 28.9526 67.4923 28.7845V25.0605C67.4923 24.5259 67.6905 24.2493 68.3034 24.2493V23.9958H68.285Z" fill="white"></path><path d="M70.8518 24.9683C70.8442 24.8002 70.855 24.6317 70.8841 24.466C70.9163 24.3185 71.1975 24.277 71.5708 24.2493V23.9958H68.9668V24.2493C69.3401 24.277 69.6213 24.3185 69.6535 24.466C69.6826 24.6317 69.6934 24.8002 69.6858 24.9683V28.8029C69.6934 28.971 69.6826 29.1395 69.6535 29.3053C69.6213 29.4527 69.3401 29.4942 68.9668 29.5219V29.7569H71.5708V29.5034C71.1975 29.4758 70.9163 29.4343 70.8841 29.2868C70.855 29.121 70.8442 28.9526 70.8518 28.7845V24.9683Z" fill="white"></path><path d="M77.7836 29.7569V25.208C77.7853 25.0336 77.7991 24.8596 77.8251 24.6872C77.8666 24.4153 78.0924 24.3 78.5303 24.2724V23.9958H76.447V24.2493C77.0923 24.277 77.3089 24.3922 77.3319 24.6641C77.3319 24.8208 77.3826 25.0052 77.3826 25.208V28.2406C76.295 26.8948 75.0137 25.3094 73.9997 23.9958H72.0732V24.2493C72.2923 24.2533 72.5061 24.3173 72.6914 24.4343C72.8767 24.5513 73.0263 24.7169 73.1241 24.913V28.5632C73.1237 28.7453 73.1098 28.9271 73.0826 29.1071C73.0503 29.379 72.8245 29.4942 72.3774 29.5219V29.7569H74.4698V29.5034C73.8338 29.4758 73.608 29.3606 73.5481 29.0886C73.5208 28.9086 73.507 28.7269 73.5066 28.5448V25.2587C74.7372 26.7473 76.1336 28.4849 77.1245 29.7754L77.7836 29.7569Z" fill="white"></path><path d="M80.9822 24.9683C80.9746 24.8002 80.9854 24.6317 81.0145 24.466C81.0467 24.3185 81.3279 24.277 81.7012 24.2493V23.9958H79.0972V24.2493C79.4705 24.277 79.7516 24.3185 79.7839 24.466C79.813 24.6317 79.8238 24.8002 79.8162 24.9683V28.8029C79.8238 28.971 79.813 29.1395 79.7839 29.3053C79.7516 29.4527 79.4705 29.4942 79.0972 29.5219V29.7569H81.7012V29.5034C81.3279 29.4758 81.0467 29.4343 81.0145 29.2868C80.9854 29.121 80.9746 28.9526 80.9822 28.7845V24.9683Z" fill="white"></path><path d="M85.8771 25.277V24.1433C85.876 24.1181 85.8676 24.0937 85.8529 24.0732C85.8381 24.0527 85.8177 24.037 85.7941 24.028C85.3509 23.9203 84.8948 23.8753 84.4391 23.8944C83.3007 23.8944 82.5172 24.4751 82.5172 25.277C82.5172 26.0052 83.0288 26.4569 83.6464 26.8533C84.8032 27.6045 85.029 27.9778 85.029 28.5217C85.0309 28.6567 85.0061 28.7907 84.9561 28.9161C84.9061 29.0415 84.832 29.1558 84.7378 29.2525C84.6437 29.3492 84.5314 29.4265 84.4074 29.4798C84.2834 29.5331 84.1501 29.5615 84.0151 29.5633C83.3099 29.5633 82.8398 28.978 82.7016 28.2267H82.4988V29.4803C82.4953 29.5034 82.4993 29.527 82.51 29.5477C82.5208 29.5684 82.5378 29.5851 82.5587 29.5955C83.0584 29.7866 83.5909 29.8774 84.1257 29.8629C85.3056 29.8629 86.3149 29.3144 86.3149 28.3005C86.3149 27.6737 86.0522 27.2082 85.2088 26.5767C84.3654 25.9453 83.757 25.5997 83.757 25.0236C83.7471 24.9142 83.7606 24.8041 83.7966 24.7004C83.8325 24.5967 83.8901 24.5018 83.9655 24.4221C84.0409 24.3423 84.1324 24.2795 84.2339 24.2378C84.3354 24.1961 84.4446 24.1764 84.5543 24.1801C85.2088 24.1801 85.513 24.7424 85.6651 25.2632L85.8771 25.277Z" fill="white"></path><path d="M90.0389 24.3H90.7395C91.4492 24.3 91.6197 24.7379 91.9285 25.2587H92.1498L91.9285 23.9958H86.9878L86.7666 25.2587H86.9878C87.2966 24.7379 87.4764 24.3 88.1769 24.3H88.8729V28.8029C88.8805 28.971 88.8697 29.1395 88.8406 29.3053C88.8083 29.4527 88.5272 29.4942 88.1539 29.5219V29.7569H90.7533V29.5034C90.3846 29.4758 90.1034 29.4343 90.0712 29.2868C90.0421 29.121 90.0313 28.9526 90.0389 28.7845V24.3Z" fill="white"></path><path fill-rule="evenodd" clip-rule="evenodd" d="M94.4817 24.3184H95.0578C95.6293 24.3184 96.0349 24.6226 96.0349 25.5167C96.0349 26.291 95.786 26.8994 95.0578 26.8994H94.4817V24.3184ZM92.6382 24.2493C92.9977 24.2769 93.288 24.3184 93.3203 24.4659C93.3494 24.6317 93.3602 24.8001 93.3526 24.9683V28.8028C93.3602 28.971 93.3494 29.1394 93.3203 29.3052C93.288 29.4527 92.9977 29.4942 92.6382 29.5218V29.7569H95.2376V29.5034C94.8735 29.4757 94.5831 29.4342 94.5509 29.2868C94.5218 29.121 94.511 28.9525 94.5186 28.7844V27.2312H95.1316C95.7814 28.3742 96.2838 29.7753 96.7723 29.7753H97.9614V29.6278C97.5499 29.2642 97.1942 28.8417 96.906 28.3742L96.0626 27.0745C96.4114 26.9716 96.7184 26.7602 96.9389 26.4709C97.1593 26.1817 97.2818 25.8297 97.2885 25.466C97.2885 24.4613 96.4589 24.005 95.5187 24.005H92.6382V24.2585V24.2493Z" fill="white"></path><path d="M102.239 29.5219C101.874 29.4942 101.589 29.4527 101.552 29.3053C101.523 29.1395 101.512 28.971 101.52 28.8029V27.8811C101.521 27.645 101.574 27.412 101.676 27.199L103.059 24.7379C103.266 24.3507 103.478 24.277 103.713 24.277V23.9958H101.934V24.2493C102.423 24.2493 102.722 24.466 102.441 24.9775L101.298 27.0607L100.266 24.9545C100.063 24.4936 100.003 24.2493 100.63 24.2493V23.9958H98.1689V24.2493C98.5515 24.2493 98.8326 24.4245 99.0907 24.9545L100.381 27.5447V28.8029C100.389 28.971 100.378 29.1395 100.349 29.3053C100.312 29.4527 100.026 29.4942 99.6622 29.5219V29.7569H102.262V29.5034L102.239 29.5219Z" fill="white"></path><path fill-rule="evenodd" clip-rule="evenodd" d="M109.801 29.8767C110.217 29.8854 110.63 29.8104 111.016 29.656C111.402 29.5017 111.753 29.2712 112.048 28.9783C112.343 28.6854 112.576 28.3361 112.733 27.9512C112.891 27.5664 112.969 27.1538 112.963 26.7381C112.962 26.3629 112.888 25.9915 112.743 25.6453C112.599 25.299 112.387 24.9847 112.121 24.7205C111.854 24.4563 111.538 24.2473 111.191 24.1055C110.843 23.9637 110.471 23.892 110.096 23.8944C109.69 23.884 109.286 23.9546 108.908 24.102C108.53 24.2495 108.185 24.4708 107.893 24.7532C107.601 25.0355 107.369 25.3732 107.209 25.7464C107.049 26.1197 106.965 26.5211 106.962 26.9271C106.949 27.3088 107.012 27.6893 107.148 28.0461C107.285 28.4028 107.492 28.7285 107.757 29.0037C108.021 29.2789 108.339 29.498 108.69 29.648C109.042 29.7979 109.419 29.8757 109.801 29.8767V29.8767ZM110.018 29.5772C109.096 29.5772 108.239 28.531 108.239 26.5814C108.239 25.1987 108.801 24.194 109.875 24.194C110.76 24.194 111.682 25.0374 111.682 26.9593C111.682 28.4941 111.156 29.5679 110.018 29.5679V29.5772Z" fill="white"></path><path d="M113.807 24.2493C114.18 24.277 114.456 24.3185 114.493 24.466C114.522 24.6317 114.533 24.8002 114.526 24.9683V28.8029C114.533 28.971 114.522 29.1395 114.493 29.3053C114.456 29.4527 114.18 29.4942 113.807 29.5219V29.7569H116.406V29.5034C116.037 29.4758 115.756 29.4343 115.724 29.2868C115.691 29.1216 115.678 28.9528 115.687 28.7845V27.0838H116.475C117.028 27.0838 117.199 27.4571 117.226 27.9088H117.448V25.9869H117.226C117.24 26.0906 117.23 26.1959 117.197 26.2953C117.165 26.3946 117.111 26.4855 117.039 26.5614C116.967 26.6373 116.879 26.6962 116.782 26.7339C116.684 26.7717 116.579 26.7873 116.475 26.7796H115.682V24.3H116.733C117.309 24.3 117.517 24.7379 117.655 25.3232H117.876V23.9958H113.816V24.2493H113.807Z" fill="white"></path><path d="M123.978 24.3H124.679C125.389 24.3 125.564 24.7379 125.868 25.2587H126.094L125.868 23.9958H120.923L120.697 25.2587H120.923C121.227 24.7379 121.407 24.3 122.112 24.3H122.803V28.8029C122.811 28.971 122.8 29.1395 122.771 29.3053C122.738 29.4527 122.457 29.4942 122.084 29.5219V29.7569H124.688V29.5034C124.315 29.4758 124.034 29.4343 124.001 29.2868C123.972 29.121 123.961 28.9526 123.969 28.7845V24.3H123.978Z" fill="white"></path><path fill-rule="evenodd" clip-rule="evenodd" d="M128.426 24.3184H129.007C129.573 24.3184 129.979 24.6226 129.979 25.5167C129.979 26.291 129.73 26.8994 129.007 26.8994H128.426V24.3184ZM126.545 24.2493C126.91 24.2769 127.195 24.3184 127.232 24.4659C127.261 24.6317 127.272 24.8001 127.264 24.9683V28.8028C127.272 28.971 127.261 29.1394 127.232 29.3052C127.195 29.4527 126.91 29.4942 126.545 29.5218V29.7569H129.145V29.5034C128.781 29.4757 128.495 29.4342 128.463 29.2868C128.43 29.1215 128.417 28.9527 128.426 28.7844V27.2312H129.048C129.693 28.3742 130.196 29.7569 130.68 29.7569H131.869V29.6094C131.467 29.2505 131.121 28.8343 130.841 28.3742L129.997 27.0745C130.346 26.9715 130.652 26.7598 130.872 26.4705C131.092 26.1812 131.213 25.8293 131.219 25.466C131.219 24.4613 130.394 24.005 129.454 24.005H126.545V24.2585V24.2493Z" fill="white"></path><path fill-rule="evenodd" clip-rule="evenodd" d="M135.699 27.9364L136.04 28.8996C136.174 29.2637 136.095 29.5218 135.644 29.5218V29.7569H137.948V29.5034C137.593 29.5034 137.344 29.1854 137.178 28.7522C136.874 27.9594 135.874 25.2402 135.381 23.876H134.842C134.15 25.7195 133.141 28.3788 132.846 28.9964C132.786 29.1398 132.686 29.2634 132.559 29.3531C132.432 29.4427 132.282 29.4948 132.127 29.5034V29.7569H133.735V29.5034C133.358 29.5034 133.242 29.2453 133.358 28.8996L133.685 27.9179L135.699 27.9364ZM133.855 27.5631L134.726 25.148L135.542 27.5585L133.855 27.5631Z" fill="white"></path><path fill-rule="evenodd" clip-rule="evenodd" d="M138.492 29.7569H141.192C143.064 29.7569 144.52 28.6738 144.52 26.7013C144.52 25.0006 143.377 23.9774 141.506 23.9774H138.492V24.2309C138.86 24.2586 139.142 24.3 139.178 24.4475C139.207 24.6133 139.218 24.7818 139.211 24.9499V28.7845C139.222 28.9553 139.214 29.1269 139.188 29.296C139.151 29.4435 138.87 29.485 138.501 29.5127V29.7569H138.492ZM140.372 24.2493H140.976C142.469 24.2493 143.28 25.1435 143.28 26.7105C143.28 28.7891 142.317 29.4758 141.142 29.4758C140.506 29.4758 140.391 29.4159 140.391 28.554V24.2678L140.372 24.2493Z" fill="white"></path><path d="M145.359 29.7569H149.751L150 28.2637H149.788C149.438 28.9965 149.281 29.4527 148.235 29.4527C147.557 29.4527 147.253 29.402 147.253 28.7752V26.9179H147.944C148.498 26.9179 148.673 27.2912 148.686 27.7429H148.912V25.821H148.686C148.702 25.9243 148.694 26.0298 148.663 26.1296C148.632 26.2295 148.579 26.321 148.508 26.3973C148.436 26.4736 148.349 26.5327 148.251 26.5702C148.153 26.6077 148.049 26.6225 147.944 26.6137H147.262V24.3093H148.309C148.885 24.3093 149.083 24.7471 149.207 25.3324H149.433V23.9958H145.377V24.2493C145.741 24.277 146.032 24.3185 146.064 24.466C146.095 24.6316 146.107 24.8 146.101 24.9683V28.8029C146.109 28.971 146.098 29.1395 146.069 29.3053C146.036 29.4527 145.746 29.4942 145.382 29.5219V29.7569H145.359Z" fill="white"></path><path d="M2.22159 38.1865C2.09715 39.0483 1.89436 40.03 1.1846 40.1913C0.934725 40.2447 0.679598 40.2694 0.424134 40.2651C0.170647 40.2651 0.0185547 40.3158 0.0185547 40.4448C0.0185547 40.6707 0.221345 40.7213 0.479441 40.7213C1.2906 40.7213 2.50734 40.6476 2.98666 40.6476C3.46598 40.6476 4.58594 40.7213 5.65058 40.7213C6.02851 40.7213 6.25895 40.6707 6.25895 40.4448C6.25895 40.3158 6.07921 40.2651 5.87642 40.2651C5.51804 40.2629 5.16099 40.2212 4.81177 40.1406C4.38315 40.0392 4.05131 39.8088 4.05131 39.3295C4.0599 38.93 4.09222 38.5314 4.14809 38.1358L5.46623 28.047H5.53075C6.45253 29.9504 7.9504 33.1444 8.18085 33.6744C8.48503 34.3842 10.4853 38.2833 11.0936 39.4309C11.5223 40.1913 11.7527 40.6983 11.9832 40.6983C12.2136 40.6983 12.338 40.4679 12.9049 39.2788L18.4356 27.7566H18.537L20.0579 38.9101C20.1593 39.6198 20.0809 39.9471 19.9288 39.9978C19.7767 40.0485 19.6523 40.1499 19.6523 40.2789C19.6523 40.4079 19.8044 40.5047 20.3851 40.5554C21.3991 40.6338 24.8972 40.7075 25.5332 40.7075C25.8881 40.7075 26.1923 40.6338 26.1923 40.431C26.1923 40.2282 26.0125 40.2512 25.7867 40.2512C25.2526 40.2515 24.722 40.1659 24.2151 39.9978C23.4546 39.7719 23.2011 39.0345 22.9707 37.4398L20.6663 21.7697C20.5879 21.2397 20.4358 20.9862 20.2054 20.9862C19.9749 20.9862 19.8228 21.189 19.6477 21.5946L12.7344 36.071L5.82111 21.7835C5.53075 21.1245 5.36483 21 5.16204 21C4.95925 21 4.80716 21.2259 4.73342 21.6591L2.22159 38.1865Z" fill="white"></path><path d="M32.0775 33.3703C32.0775 35.7024 32.0775 37.7072 31.9531 38.7719C31.8747 39.5047 31.7226 40.0623 31.2157 40.1545C30.9132 40.2231 30.604 40.2571 30.2939 40.2559C29.9897 40.2559 29.8883 40.3343 29.8883 40.4587C29.8883 40.5831 30.0681 40.7122 30.3953 40.7122C31.4092 40.7122 33.0085 40.6384 33.5892 40.6384C34.299 40.6384 35.8937 40.7122 37.5713 40.7122C37.8478 40.7122 38.0322 40.6384 38.0322 40.4587C38.0322 40.279 37.9031 40.2559 37.622 40.2559C37.1902 40.2482 36.7592 40.2144 36.3315 40.1545C35.571 40.0531 35.4097 39.4955 35.3406 38.7719C35.2162 37.6842 35.2162 35.6793 35.2162 33.3472V22.9773L38.4101 23.0556C40.6684 23.1063 41.3505 23.8161 41.4012 24.4752L41.4289 24.7517C41.4519 25.1342 41.5026 25.2587 41.7054 25.2587C41.9082 25.2587 41.9082 25.1066 41.9359 24.8531C41.9359 24.194 42.0096 22.4427 42.0096 21.9126C42.0096 21.5301 42.0096 21.3826 41.8068 21.3826C41.0071 21.5537 40.1911 21.6372 39.3733 21.6315H29.3675C28.5287 21.6315 27.5654 21.5808 26.8326 21.5071C26.4596 21.4412 26.0937 21.3394 25.7403 21.2029C25.5882 21.2029 25.5145 21.355 25.4361 21.6638C25.3855 21.885 24.8877 24.194 24.8877 24.5996C24.8877 24.8808 24.9384 25.0052 25.1135 25.0052C25.2887 25.0052 25.344 24.9038 25.3947 24.701C25.487 24.3841 25.6319 24.085 25.8233 23.8161C26.2058 23.2538 26.8142 23.1294 28.2844 23.0787L32.0591 22.9773V33.3703H32.0775Z" fill="white"></path><path d="M46.7018 33.3703C46.7018 35.8314 46.7018 37.8316 46.5727 38.9009C46.499 39.6383 46.3469 40.0669 45.8399 40.1683C45.5374 40.2363 45.2282 40.2703 44.9182 40.2697C44.614 40.2697 44.5126 40.3481 44.5126 40.4725C44.5126 40.5969 44.6877 40.726 45.0196 40.726C46.0335 40.726 47.6328 40.6523 48.2135 40.6523C48.9002 40.6523 50.5179 40.726 52.1679 40.726C52.449 40.726 52.6518 40.6523 52.6518 40.4725C52.6518 40.2928 52.5228 40.2697 52.2462 40.2697C51.8129 40.2622 51.3804 40.2284 50.9512 40.1683C50.1907 40.0669 50.0294 39.6106 49.9372 38.9285C49.8358 37.8362 49.8358 35.836 49.8358 33.3979V28.9089C49.8358 25.0559 49.8358 24.3461 49.8865 23.5349C49.9372 22.6454 50.14 22.2168 50.8083 22.0878C51.0761 22.04 51.3474 22.0153 51.6194 22.014C51.8729 22.014 52.025 21.9633 52.025 21.7605C52.025 21.5577 51.8222 21.5577 51.4904 21.5577C50.5271 21.5577 49.0339 21.6315 48.3978 21.6315C47.665 21.6315 46.0658 21.5577 45.1025 21.5577C44.6969 21.5577 44.4941 21.6084 44.4941 21.7605C44.4941 21.9126 44.6462 22.014 44.8997 22.014C45.21 22.0092 45.5197 22.0433 45.8215 22.1154C46.3792 22.2445 46.6327 22.6731 46.6834 23.5349C46.734 24.3968 46.734 25.0559 46.734 28.9089V33.3703H46.7018Z" fill="white"></path><path d="M0 45.9432H52.6655V51.1374H0V45.9432Z" fill="white"></path><path d="M63.524 47.1138V46.1091C63.5231 46.0862 63.5157 46.0641 63.5027 46.0453C63.4896 46.0265 63.4714 46.0119 63.4503 46.0031C63.0566 45.9092 62.6517 45.8704 62.2474 45.8879C61.2334 45.8879 60.5375 46.3995 60.5375 47.1277C60.5375 47.7729 60.9984 48.1739 61.5422 48.5103C62.57 49.1786 62.782 49.5058 62.782 49.9898C62.7821 50.2303 62.6881 50.4613 62.5202 50.6335C62.3523 50.8058 62.1237 50.9055 61.8833 50.9115C61.2565 50.9115 60.8417 50.3907 60.7172 49.7224H60.519V50.8378C60.519 50.8931 60.519 50.9254 60.5697 50.9392C61.0108 51.1072 61.4806 51.1871 61.9524 51.1742C63.0032 51.1742 63.8973 50.7134 63.8973 49.7916C63.8973 49.2339 63.6623 48.8237 62.911 48.2614C62.1598 47.6992 61.6206 47.395 61.6206 46.8788C61.612 46.7811 61.6243 46.6827 61.6567 46.5902C61.689 46.4976 61.7407 46.413 61.8083 46.342C61.8758 46.2709 61.9577 46.2151 62.0485 46.1781C62.1393 46.1411 62.237 46.1239 62.3349 46.1275C62.911 46.1275 63.183 46.6253 63.3166 47.0908L63.524 47.1138Z" fill="white"></path><path d="M66.2802 46.842C66.2727 46.6878 66.2819 46.5332 66.3079 46.3811C66.3401 46.2474 66.589 46.2105 66.9162 46.1875V45.9617H64.6118V46.1875C64.9437 46.1875 65.1925 46.2474 65.2202 46.3811C65.2502 46.5327 65.2611 46.6876 65.2524 46.842V50.2433C65.2611 50.3977 65.2502 50.5525 65.2202 50.7042C65.1925 50.8378 64.9437 50.8747 64.6118 50.8978V51.1236H66.9162V50.8978C66.589 50.8978 66.3401 50.8378 66.3079 50.7042C66.2819 50.552 66.2727 50.3975 66.2802 50.2433V46.842Z" fill="white"></path><path d="M72.4376 51.1097V47.0539C72.4366 46.8919 72.449 46.73 72.4745 46.57C72.5114 46.3257 72.7096 46.2243 73.0967 46.2013V45.9755H71.2532V46.2013C71.8247 46.2013 72.0136 46.3257 72.0367 46.57C72.0593 46.7304 72.0732 46.892 72.0781 47.0539V49.7455C71.1103 48.5518 69.9719 47.1415 69.0732 45.9755H67.3633V46.2013C67.5562 46.206 67.7441 46.2634 67.9066 46.3675C68.0691 46.4715 68.2 46.618 68.2851 46.7912V50.0174C68.2861 50.1795 68.2737 50.3413 68.2482 50.5014C68.2205 50.741 68.0223 50.847 67.626 50.8701V51.0959H69.4695V50.8701C68.9072 50.8701 68.7091 50.741 68.6722 50.5014C68.6467 50.3413 68.6343 50.1795 68.6353 50.0174V47.0954C69.7276 48.4182 70.9674 49.9806 71.8615 51.1097H72.4376Z" fill="white"></path><path d="M76.5763 48.8744C77.0879 48.9021 77.346 48.9389 77.3736 49.0726C77.4 49.2247 77.4092 49.3793 77.4013 49.5335V49.9944C77.4013 50.7364 77.1616 50.9668 76.4564 50.9668C75.4102 50.9668 74.7834 49.81 74.7834 48.4688C74.7834 47.1277 75.3227 46.1644 76.5809 46.1644C76.9402 46.1471 77.293 46.2647 77.5701 46.494C77.8472 46.7234 78.0286 47.048 78.0788 47.4042H78.2769V46.4225C78.2769 46.3073 78.194 46.2013 77.9912 46.1367C77.55 45.9678 77.081 45.8834 76.6085 45.8879C74.4654 45.8879 73.645 47.3857 73.645 48.5149C73.645 50.3585 74.8848 51.1973 76.5025 51.1973C77.1315 51.1886 77.7546 51.0749 78.3461 50.8608V49.5104C78.3381 49.3563 78.3474 49.2017 78.3737 49.0495C78.406 48.9159 78.6549 48.879 78.9821 48.8514V48.6532H76.5578V48.8836L76.5763 48.8744Z" fill="white"></path><path fill-rule="evenodd" clip-rule="evenodd" d="M82.5538 49.4736L82.8533 50.3309C82.9686 50.6535 82.904 50.8839 82.4985 50.8839V51.1098H84.5448V50.8839C84.2314 50.8839 84.0102 50.6028 83.8627 50.2157C83.5908 49.5105 82.7059 47.0955 82.2634 45.8879H81.8025C81.1849 47.501 80.2908 49.8838 80.0281 50.4323C79.9763 50.5612 79.8891 50.6729 79.7766 50.7544C79.664 50.836 79.5308 50.8841 79.3921 50.8932V51.119H80.8208V50.8932C80.4844 50.8932 80.36 50.6627 80.4844 50.3539L80.7747 49.4828L82.5538 49.4736ZM80.8946 49.1418L81.6873 47.0033L82.4109 49.1418H80.8946Z" fill="white"></path><path d="M86.7018 46.2612H87.1074C87.831 46.2612 88.1306 46.759 88.1306 47.4134C88.1306 48.22 87.7434 48.7039 87.0152 48.727V48.9067C88.338 48.9758 89.2459 48.3721 89.2459 47.3397C89.2459 46.5562 88.7205 45.957 87.4992 45.957H85.0288V46.1829C85.3606 46.1829 85.6095 46.2428 85.6372 46.3764C85.6672 46.5281 85.6781 46.683 85.6694 46.8373V50.2387C85.6781 50.393 85.6672 50.5479 85.6372 50.6996C85.6095 50.8332 85.3606 50.8701 85.0288 50.8931V51.119H87.3332V50.8931C87.006 50.8931 86.7571 50.8332 86.7249 50.6996C86.6989 50.5474 86.6897 50.3928 86.6972 50.2387V46.2612H86.7018Z" fill="white"></path><path fill-rule="evenodd" clip-rule="evenodd" d="M92.3569 51.1973C92.7235 51.2028 93.0876 51.1353 93.4279 50.9988C93.7682 50.8623 94.0779 50.6595 94.3391 50.4021C94.6003 50.1448 94.8077 49.8381 94.9493 49.4998C95.0908 49.1616 95.1637 48.7986 95.1637 48.4319C95.1655 48.0989 95.1015 47.7687 94.9755 47.4605C94.8494 47.1522 94.6638 46.8718 94.4291 46.6355C94.1945 46.3991 93.9155 46.2114 93.6081 46.0831C93.3007 45.9548 92.9711 45.8884 92.638 45.8878C92.2775 45.8787 91.9187 45.9413 91.5826 46.0721C91.2465 46.2029 90.9397 46.3993 90.6802 46.6498C90.4207 46.9002 90.2137 47.1999 90.0711 47.5311C89.9285 47.8624 89.8532 48.2188 89.8497 48.5794C89.8379 48.9186 89.8945 49.2567 90.0161 49.5736C90.1377 49.8904 90.3218 50.1796 90.5575 50.4238C90.7931 50.6681 91.0755 50.8624 91.3878 50.9953C91.7001 51.1282 92.0359 51.1968 92.3753 51.1973H92.3569ZM92.5458 50.9345C91.7163 50.9345 90.9696 50.0128 90.9696 48.2706C90.9696 47.0308 91.4674 46.1506 92.4214 46.1506C93.2049 46.1506 94.0299 46.9018 94.0299 48.6163C94.0299 49.999 93.569 50.9207 92.5458 50.9207V50.9345Z" fill="white"></path><path fill-rule="evenodd" clip-rule="evenodd" d="M97.5834 46.2612H98.0996C98.6066 46.2612 98.966 46.5331 98.966 47.3259C98.966 48.0126 98.7448 48.5656 98.0996 48.5656H97.5834V46.2612ZM95.915 46.2013C96.2376 46.2013 96.4911 46.2612 96.5233 46.3949C96.5493 46.547 96.5586 46.7016 96.551 46.8558V50.2571C96.5586 50.4113 96.5493 50.5658 96.5233 50.718C96.4911 50.8516 96.2376 50.8885 95.915 50.9116V51.1374H98.2194V50.9116C97.8968 50.9116 97.6387 50.8516 97.611 50.718C97.581 50.5663 97.5702 50.4115 97.5788 50.2571V48.8744H98.1226C98.7033 49.8838 99.1504 51.1328 99.5836 51.1328H100.639V50.9576C100.276 50.6338 99.9653 50.2561 99.7173 49.8377L98.9707 48.6855C99.2793 48.5928 99.5504 48.4044 99.7451 48.1477C99.9398 47.8909 100.048 47.5789 100.054 47.2567C100.054 46.3626 99.3209 45.957 98.4867 45.957H95.9058V46.1829L95.915 46.2013Z" fill="white"></path><path d="M101.082 51.1097H104.985L105.202 49.7824H105.004C104.7 50.4322 104.543 50.8378 103.621 50.8378C103.022 50.8378 102.75 50.7917 102.75 50.2341V48.5703H103.358C103.851 48.5703 104.004 48.9021 104.017 49.3031H104.216V47.5978H104.017C104.031 47.6893 104.024 47.7828 103.996 47.8711C103.968 47.9594 103.921 48.0402 103.857 48.1076C103.794 48.175 103.716 48.2272 103.63 48.2602C103.543 48.2933 103.451 48.3063 103.358 48.2983H102.778V46.2474H103.699C104.211 46.2474 104.391 46.6345 104.497 47.1692H104.695V45.9755H101.095V46.2013C101.418 46.2013 101.676 46.2612 101.704 46.3949C101.734 46.5465 101.745 46.7014 101.736 46.8558V50.2571C101.745 50.4115 101.734 50.5663 101.704 50.718C101.676 50.8516 101.418 50.8885 101.095 50.9116V51.1374L101.082 51.1097Z" fill="white"></path><path fill-rule="evenodd" clip-rule="evenodd" d="M64.0631 38.8825L64.4041 39.8503C64.5332 40.2144 64.4594 40.4679 64.0078 40.4679V40.726H66.3122V40.4679C65.9573 40.4679 65.7084 40.1545 65.5425 39.7167C65.2383 38.9239 64.2382 36.2093 63.7405 34.8451H63.2058C62.5099 36.661 61.5052 39.348 61.2056 39.9655C61.1459 40.108 61.0472 40.2308 60.9208 40.3197C60.7944 40.4086 60.6455 40.4599 60.4912 40.4679V40.726H62.0997V40.4679C61.7172 40.4679 61.6019 40.2144 61.7172 39.8688L62.049 38.8825H64.0631ZM62.2195 38.5137L63.1137 36.1033L63.9018 38.5137H62.2195Z" fill="white"></path><path d="M72.258 40.7259V36.1585C72.256 35.9764 72.2699 35.7944 72.2994 35.6147C72.3409 35.3428 72.5621 35.2276 73 35.1999V34.9464H70.9214V35.1999C71.562 35.2276 71.7786 35.3428 71.8017 35.6147C71.8301 35.7947 71.847 35.9764 71.8524 36.1585V39.1912C70.7647 37.8454 69.4834 36.2599 68.4695 34.9464H66.543V35.1999C66.7622 35.2034 66.9762 35.2671 67.1616 35.3842C67.3469 35.5013 67.4965 35.6671 67.5938 35.8636V39.5138C67.5932 39.6958 67.5794 39.8776 67.5523 40.0576C67.52 40.3296 67.2942 40.4448 66.8518 40.4678V40.7259H68.9396V40.4678C68.3036 40.4448 68.0823 40.3296 68.0408 40.0576C68.0115 39.8779 67.9976 39.6959 67.9994 39.5138V36.2092C69.2299 37.6933 70.6264 39.4354 71.6173 40.7259H72.258Z" fill="white"></path><path fill-rule="evenodd" clip-rule="evenodd" d="M73.5713 40.7259H76.2721C78.1433 40.7259 79.5951 39.6428 79.5951 37.6702C79.5951 35.9696 78.4567 34.9464 76.5855 34.9464H73.5713V35.1999C73.94 35.2276 74.2211 35.269 74.2534 35.4165C74.2865 35.5818 74.2989 35.7505 74.2903 35.9189V39.7535C74.2989 39.9218 74.2865 40.0905 74.2534 40.2558C74.2211 40.4033 73.94 40.4448 73.5713 40.4678V40.7259V40.7259ZM75.4517 35.2183H76.0462C77.5395 35.2183 78.3507 36.1078 78.3507 37.6795C78.3507 39.7581 77.3874 40.4448 76.2122 40.4448C75.5761 40.4448 75.4609 40.3849 75.4609 39.523V35.2183H75.4517Z" fill="white"></path><path d="M84.9273 35.9189C84.9187 35.7505 84.931 35.5818 84.9642 35.4165C84.9964 35.269 85.2776 35.2276 85.6463 35.1999V34.9464H83.0469V35.1999C83.4156 35.2276 83.6967 35.269 83.7336 35.4165C83.7627 35.5823 83.7735 35.7507 83.7659 35.9189V39.7535C83.7735 39.9216 83.7627 40.09 83.7336 40.2558C83.6967 40.4033 83.4156 40.4448 83.0469 40.4678V40.7259H85.6463V40.4678C85.2776 40.4448 84.9964 40.4033 84.9642 40.2558C84.931 40.0905 84.9187 39.9218 84.9273 39.7535V35.9189Z" fill="white"></path><path d="M91.8639 40.7259V36.1585C91.8643 35.9765 91.8782 35.7947 91.9054 35.6147C91.9469 35.3428 92.1681 35.2276 92.6059 35.1999V34.9464H90.5273V35.1999C91.168 35.2276 91.3846 35.3428 91.4076 35.6147C91.4361 35.7947 91.453 35.9764 91.4583 36.1585V39.1912C90.366 37.8454 89.0848 36.2599 88.0708 34.9464H86.1489V35.1999C86.3675 35.2037 86.5807 35.2676 86.7653 35.3847C86.9499 35.5018 87.0986 35.6675 87.1951 35.8636V39.5138C87.1969 39.6959 87.183 39.8779 87.1537 40.0576C87.1214 40.3296 86.9002 40.4448 86.4531 40.4678V40.7259H88.5409V40.4678C87.9049 40.4448 87.6837 40.3296 87.6192 40.0576C87.5921 39.8776 87.5782 39.6958 87.5777 39.5138V36.2092C88.8036 37.6933 90.2001 39.4354 91.191 40.7259H91.8639Z" fill="white"></path><path fill-rule="evenodd" clip-rule="evenodd" d="M93.1774 40.7259H95.8644C97.7356 40.7259 99.192 39.6428 99.192 37.6702C99.192 35.9696 98.049 34.9464 96.1778 34.9464H93.1636V35.1999C93.5323 35.2276 93.8134 35.269 93.8503 35.4165C93.8794 35.5823 93.8902 35.7507 93.8826 35.9189V39.7535C93.8902 39.9216 93.8794 40.09 93.8503 40.2558C93.8134 40.4033 93.5323 40.4448 93.1636 40.4678V40.7259H93.1774ZM95.0578 35.2183H95.6616C97.1548 35.2183 97.966 36.1078 97.966 37.6795C97.966 39.7581 97.0028 40.4448 95.8275 40.4448C95.1915 40.4448 95.0762 40.3849 95.0762 39.523V35.2183H95.0578Z" fill="white"></path><path d="M101.893 35.9189C101.884 35.7505 101.896 35.5818 101.929 35.4165C101.962 35.269 102.248 35.2276 102.612 35.1999V34.9464H100.012V35.1999C100.376 35.2276 100.662 35.269 100.699 35.4165C100.728 35.5823 100.739 35.7507 100.731 35.9189V38.4722C100.731 39.9332 101.284 40.8227 103.142 40.8227C104.225 40.8227 105.303 40.1636 105.303 38.5183V36.1585C105.304 35.9765 105.317 35.7947 105.345 35.6147C105.377 35.3428 105.603 35.2276 106.05 35.1999V34.9464H104.114V35.1999C104.552 35.2276 104.778 35.3428 104.819 35.6147C104.819 35.7714 104.861 35.9511 104.861 36.1585V38.4307C104.861 39.7442 104.289 40.3111 103.28 40.3111C102.271 40.3111 101.897 39.5461 101.897 38.5275V35.9189H101.893Z" fill="white"></path><path d="M110.152 36.2093V35.094C110.151 35.0691 110.144 35.0449 110.13 35.0244C110.116 35.0038 110.096 34.988 110.073 34.9788C109.63 34.8713 109.174 34.8263 108.718 34.8451C107.58 34.8451 106.792 35.4258 106.792 36.2278C106.792 36.956 107.303 37.4076 107.925 37.804C109.082 38.5552 109.308 38.9286 109.308 39.4724C109.312 39.6074 109.289 39.7418 109.241 39.8679C109.192 39.994 109.12 40.1093 109.027 40.2073C108.934 40.3054 108.823 40.3841 108.699 40.4391C108.576 40.4941 108.443 40.5242 108.308 40.5278C107.607 40.5278 107.137 39.9425 106.994 39.1913H106.773V40.4449C106.771 40.4673 106.774 40.4901 106.784 40.5105C106.794 40.5309 106.809 40.5481 106.829 40.5601C107.33 40.7492 107.864 40.8384 108.4 40.8228C109.58 40.8228 110.589 40.2789 110.589 39.265C110.589 38.6382 110.322 38.1727 109.483 37.5367C108.644 36.9007 108.027 36.5642 108.027 35.9881C108.017 35.8784 108.031 35.7678 108.067 35.6638C108.103 35.5598 108.161 35.4646 108.237 35.3848C108.313 35.305 108.405 35.2423 108.507 35.2009C108.609 35.1594 108.719 35.1403 108.829 35.1447C109.483 35.1447 109.787 35.707 109.935 36.2278L110.152 36.2093Z" fill="white"></path><path d="M114.328 35.2506H115.028C115.738 35.2506 115.913 35.6884 116.217 36.2092H116.443L116.217 34.9464H111.281L111.074 36.2092H111.295C111.599 35.6884 111.783 35.2506 112.484 35.2506H113.18V39.7535C113.189 39.9218 113.176 40.0905 113.143 40.2558C113.111 40.4033 112.83 40.4448 112.461 40.4678V40.7259H115.06V40.4678C114.687 40.4448 114.406 40.4033 114.374 40.2558C114.345 40.09 114.334 39.9216 114.341 39.7535V35.2506H114.328Z" fill="white"></path><path fill-rule="evenodd" clip-rule="evenodd" d="M118.789 35.2875H119.37C119.941 35.2875 120.342 35.5917 120.342 36.4812C120.342 37.2601 120.098 37.8638 119.37 37.8638H118.793V35.2875H118.789ZM116.904 35.2183C117.268 35.246 117.558 35.2875 117.591 35.435C117.62 35.6007 117.63 35.7692 117.623 35.9373V39.7719C117.63 39.94 117.62 40.1085 117.591 40.2743C117.558 40.4217 117.268 40.4632 116.904 40.4863V40.7444H119.503V40.4863C119.144 40.4632 118.853 40.4217 118.821 40.2743C118.792 40.1085 118.781 39.94 118.789 39.7719V38.1818H119.397C120.052 39.3202 120.554 40.7259 121.043 40.7259H122.232V40.5784C121.832 40.2095 121.489 39.784 121.213 39.3156L120.37 38.0159C120.718 37.9129 121.024 37.7013 121.244 37.4119C121.464 37.1226 121.585 36.7707 121.591 36.4074C121.591 35.3981 120.766 34.9464 119.826 34.9464H116.918V35.1999L116.904 35.2183Z" fill="white"></path><path d="M126.532 40.4679C126.167 40.4448 125.877 40.4034 125.845 40.2559C125.816 40.0901 125.805 39.9216 125.813 39.7535V38.8317C125.814 38.5956 125.867 38.3626 125.969 38.1496L127.352 35.6885C127.555 35.3014 127.771 35.2276 128.002 35.2276V34.9741H126.227V35.2276C126.716 35.2276 127.011 35.4442 126.73 35.9558L125.591 38.039L124.559 35.9328C124.352 35.4719 124.296 35.2276 124.923 35.2276V34.9741H122.462V35.2276C122.84 35.2276 123.121 35.4027 123.384 35.9328L124.647 38.5137V39.7719C124.654 39.9401 124.643 40.1085 124.614 40.2743C124.582 40.4218 124.292 40.4633 123.928 40.4863V40.7444H126.532V40.4863V40.4679Z" fill="white"></path></g><defs><clipPath id="clip0_11828_34261"><rect width="150" height="30.1973" fill="white" transform="translate(0 21)"></rect></clipPath></defs></svg>