<svg width="168" height="72" viewBox="0 0 168 72" fill="none" xmlns="http://www.w3.org/2000/svg" aria-label="government digital services"><path fill-rule="evenodd" clip-rule="evenodd" d="M5.04248 22.9901C5.94236 22.9901 6.67186 23.7117 6.67186 24.6017V47.1636C6.67186 48.0536 5.94236 48.7752 5.04248 48.7752C4.14259 48.7752 3.41309 48.0536 3.41309 47.1636V24.6017C3.41309 23.7117 4.14258 22.9901 5.04248 22.9901Z" fill="white"></path><path fill-rule="evenodd" clip-rule="evenodd" d="M18.3648 14.9312C19.2646 14.9312 19.9942 15.6527 19.9942 16.5427V55.2203C19.9942 56.1104 19.2646 56.8319 18.3648 56.8319C17.4649 56.8319 16.7354 56.1104 16.7354 55.2203V16.5427C16.7354 15.6527 17.4649 14.9312 18.3648 14.9312Z" fill="white"></path><path fill-rule="evenodd" clip-rule="evenodd" d="M25.0269 11.7085C25.9174 11.7085 26.641 12.4151 26.6561 13.2923L27.8673 58.0224C27.8746 58.0948 27.8783 58.1683 27.8783 58.2426C27.8783 58.2761 27.8776 58.3094 27.8761 58.3426L27.8779 58.4115C27.8835 58.617 27.8368 58.8121 27.7498 58.9839C27.4415 59.8432 26.6123 60.4585 25.6379 60.4585C24.8648 60.4585 24.1833 60.0712 23.7806 59.4822C23.5416 59.2018 23.3975 58.8395 23.3975 58.444V13.3201C23.3975 12.43 24.127 11.7085 25.0269 11.7085Z" fill="white"></path><path fill-rule="evenodd" clip-rule="evenodd" d="M31.9397 14.9312C32.7271 14.9312 33.3654 15.5625 33.3654 16.3413V54.9261C33.3654 54.9409 33.3651 54.9555 33.3647 54.97C33.3651 54.9862 33.3654 55.0025 33.3654 55.0189C33.3654 56.0203 32.5447 56.8319 31.5323 56.8319C30.5199 56.8319 29.6992 56.0203 29.6992 55.0189C29.6992 54.9551 29.7026 54.892 29.7091 54.8299L30.514 16.5263V16.3413C30.514 15.5625 31.1523 14.9312 31.9397 14.9312Z" fill="white"></path><path fill-rule="evenodd" clip-rule="evenodd" d="M13.3174 19.767C13.3174 18.877 12.5879 18.1554 11.688 18.1554C10.7881 18.1554 10.0586 18.877 10.0586 19.767V32.2329H13.3174V19.767ZM13.3174 35.456H10.0586V51.9984C10.0586 52.8884 10.7881 53.6099 11.688 53.6099C12.5879 53.6099 13.3174 52.8884 13.3174 51.9984V35.456Z" fill="white"></path><path fill-rule="evenodd" clip-rule="evenodd" d="M38.3481 18.1554C39.248 18.1554 39.9776 18.877 39.9776 19.767V32.2977H36.7188V19.767C36.7188 18.877 37.4483 18.1554 38.3481 18.1554ZM39.9776 38.7407H43.3998V47.1637C43.3998 48.0537 44.1293 48.7752 45.0292 48.7752C45.929 48.7752 46.6586 48.0537 46.6586 47.1637V24.6017C46.6586 23.7117 45.929 22.9901 45.0292 22.9901C44.1293 22.9901 43.3998 23.7117 43.3998 24.6017V35.5175H38.254V35.5208H36.7188V51.9984C36.7188 52.8884 37.4483 53.6099 38.3481 53.6099C39.248 53.6099 39.9776 52.8884 39.9776 51.9984V38.7407Z" fill="white"></path><path d="M62.5572 27.7379C61.9278 27.7379 61.367 27.6182 60.8748 27.3788C60.3906 27.1313 60.0033 26.8001 59.7127 26.3851C59.4222 25.9701 59.2044 25.5112 59.0591 25.0083C58.9139 24.5056 58.8413 23.9708 58.8413 23.4042C58.8413 22.9891 58.8857 22.5781 58.9745 22.1711C59.0713 21.764 59.2205 21.373 59.4222 20.9978C59.624 20.6228 59.8661 20.2955 60.1486 20.0162C60.4309 19.7288 60.7779 19.5014 61.1895 19.3338C61.6091 19.1582 62.065 19.0704 62.5572 19.0704C63.2996 19.0704 63.8967 19.222 64.3486 19.5254C64.8005 19.8206 65.1918 20.2317 65.5227 20.7584L64.2276 21.4886C63.7595 20.8023 63.2028 20.4592 62.5572 20.4592C62.1537 20.4592 61.7987 20.5509 61.492 20.7344C61.1935 20.9101 60.9635 21.1495 60.8021 21.4527C60.6408 21.7481 60.5237 22.0593 60.4511 22.3865C60.3785 22.7137 60.3422 23.053 60.3422 23.4042C60.3422 24.2341 60.5278 24.9325 60.899 25.4992C61.2701 26.0658 61.8229 26.3492 62.5572 26.3492C63.0253 26.3492 63.4125 26.1975 63.7192 25.8943C64.0339 25.5909 64.1913 25.2199 64.1913 24.7808V24.6492H62.7025V23.2964H65.6679V24.4576C65.6679 25.4872 65.3775 26.2933 64.7965 26.8759C64.2155 27.4506 63.469 27.7379 62.5572 27.7379Z" fill="white"></path><path d="M69.8025 27.7381C68.9311 27.7381 68.2412 27.4547 67.7328 26.8881C67.2244 26.3214 66.9702 25.5393 66.9702 24.5416C66.9702 23.544 67.2244 22.7618 67.7328 22.1951C68.2412 21.6206 68.9311 21.3333 69.8025 21.3333C70.6741 21.3333 71.364 21.6206 71.8723 22.1951C72.3888 22.7618 72.647 23.544 72.647 24.5416C72.647 25.5393 72.3929 26.3214 71.8845 26.8881C71.3762 27.4547 70.6821 27.7381 69.8025 27.7381ZM69.8025 26.3972C70.2464 26.3972 70.5934 26.2336 70.8436 25.9064C71.1018 25.5792 71.2308 25.1242 71.2308 24.5416C71.2308 23.959 71.1018 23.5001 70.8436 23.1648C70.5934 22.8297 70.2464 22.6621 69.8025 22.6621C69.3749 22.6621 69.032 22.8337 68.7738 23.1769C68.5156 23.5121 68.3864 23.967 68.3864 24.5416C68.3864 25.1163 68.5115 25.5712 68.7616 25.9064C69.0198 26.2336 69.3668 26.3972 69.8025 26.3972Z" fill="white"></path><path d="M75.7629 27.5933L73.4995 21.4758H74.9398L76.3076 25.2948C76.4044 25.614 76.4609 25.7976 76.477 25.8455C76.5255 25.638 76.582 25.4544 76.6465 25.2948L77.9901 21.4758H79.4304L77.167 27.5933H75.7629Z" fill="white"></path><path d="M83.1374 27.7381C82.2578 27.7381 81.5598 27.4547 81.0433 26.8881C80.535 26.3135 80.2808 25.5272 80.2808 24.5297C80.2808 23.54 80.5391 22.7618 81.0554 22.1951C81.5719 21.6206 82.2658 21.3333 83.1374 21.3333C83.9281 21.3333 84.5737 21.5766 85.074 22.0635C85.5823 22.5503 85.8365 23.2646 85.8365 24.2065C85.8365 24.5337 85.8204 24.821 85.7881 25.0684H81.6849C81.7091 25.4994 81.8583 25.8465 82.1327 26.1099C82.4151 26.3733 82.75 26.505 83.1374 26.505C83.6861 26.505 84.1218 26.2935 84.4446 25.8705L85.3402 26.7803C84.7996 27.4188 84.0653 27.7381 83.1374 27.7381ZM81.6969 23.9071H84.4325C84.4002 23.4682 84.263 23.1369 84.0209 22.9135C83.7789 22.682 83.4844 22.5663 83.1374 22.5663C82.7339 22.5663 82.399 22.678 82.1327 22.9015C81.8745 23.117 81.7292 23.4522 81.6969 23.9071Z" fill="white"></path><path d="M87.2856 27.5944V21.4769H88.7018V22.1114C88.9519 21.5926 89.3756 21.3333 89.9728 21.3333C90.4085 21.3333 90.7918 21.4729 91.1227 21.7523L90.9169 23.0332C90.6103 22.8177 90.2592 22.7099 89.8639 22.7099C89.541 22.7099 89.2667 22.8217 89.0408 23.0452C88.8148 23.2687 88.7018 23.6437 88.7018 24.1705V27.5944H87.2856Z" fill="white"></path><path d="M95.9913 27.5944V24.0867C95.9913 23.1369 95.6081 22.6621 94.8415 22.6621C94.0023 22.6621 93.5827 23.1289 93.5827 24.0627V27.5944H92.1665V21.4769H93.5827V22.0515C93.9862 21.5726 94.5308 21.3333 95.2167 21.3333C95.8622 21.3333 96.3867 21.5328 96.7902 21.9318C97.2018 22.3309 97.4076 22.9653 97.4076 23.8353V27.5944H95.9913Z" fill="white"></path><path d="M106.427 27.5944V24.0867C106.427 23.1369 106.076 22.6621 105.374 22.6621C105.011 22.6621 104.724 22.7858 104.514 23.0332C104.312 23.2727 104.211 23.6318 104.211 24.1107V27.5944H102.795V24.0867C102.795 23.1369 102.445 22.6621 101.742 22.6621C101.379 22.6621 101.093 22.7858 100.883 23.0332C100.681 23.2727 100.58 23.6318 100.58 24.1107V27.5944H99.1636V21.4769H100.58V22.0396C100.935 21.5687 101.439 21.3333 102.094 21.3333C102.851 21.3333 103.392 21.6206 103.715 22.1951C104.111 21.6206 104.732 21.3333 105.58 21.3333C106.273 21.3333 106.822 21.5248 107.226 21.9078C107.637 22.283 107.842 22.8775 107.842 23.6917V27.5944H106.427Z" fill="white"></path><path d="M112.157 27.7381C111.277 27.7381 110.579 27.4547 110.062 26.8881C109.554 26.3135 109.3 25.5272 109.3 24.5297C109.3 23.54 109.558 22.7618 110.074 22.1951C110.591 21.6206 111.284 21.3333 112.157 21.3333C112.947 21.3333 113.593 21.5766 114.093 22.0635C114.601 22.5503 114.856 23.2646 114.856 24.2065C114.856 24.5337 114.839 24.821 114.807 25.0684H110.704C110.728 25.4994 110.878 25.8465 111.152 26.1099C111.435 26.3733 111.769 26.505 112.157 26.505C112.705 26.505 113.141 26.2935 113.464 25.8705L114.36 26.7803C113.819 27.4188 113.085 27.7381 112.157 27.7381ZM110.716 23.9071H113.452C113.419 23.4682 113.283 23.1369 113.04 22.9135C112.798 22.682 112.504 22.5663 112.157 22.5663C111.753 22.5663 111.418 22.678 111.152 22.9015C110.894 23.117 110.748 23.4522 110.716 23.9071Z" fill="white"></path><path d="M120.128 27.5944V24.0867C120.128 23.1369 119.745 22.6621 118.978 22.6621C118.139 22.6621 117.719 23.1289 117.719 24.0627V27.5944H116.304V21.4769H117.719V22.0515C118.123 21.5726 118.668 21.3333 119.353 21.3333C119.999 21.3333 120.524 21.5328 120.927 21.9318C121.338 22.3309 121.544 22.9653 121.544 23.8353V27.5944H120.128Z" fill="white"></path><path d="M125.118 27.7385C124.158 27.7385 123.678 27.2158 123.678 26.1702V22.6984H122.758V21.4773H123.678V19.6217L125.095 18.9513V21.4773H126.523V22.6984H125.095V25.8949C125.095 26.2859 125.268 26.4815 125.615 26.4815C125.929 26.4815 126.252 26.3897 126.583 26.2061L126.413 27.4631C126.058 27.6467 125.627 27.7385 125.118 27.7385Z" fill="white"></path><path d="M59.1445 31.1864H61.7591C62.3319 31.1864 62.8524 31.2663 63.3204 31.4259C63.7885 31.5855 64.1759 31.797 64.4825 32.0604C64.7891 32.3238 65.0432 32.639 65.245 33.0062C65.4548 33.3653 65.6041 33.7444 65.6929 34.1435C65.7896 34.5345 65.8381 34.9456 65.8381 35.3765C65.8381 35.7755 65.7937 36.1667 65.7049 36.5497C65.6242 36.9328 65.479 37.3119 65.2692 37.6871C65.0675 38.0542 64.8133 38.3774 64.5066 38.6568C64.2 38.9281 63.8046 39.1476 63.3204 39.3152C62.8443 39.4828 62.3078 39.5666 61.7106 39.5666H59.1445V31.1864ZM61.9164 38.2138C62.3441 38.2138 62.7193 38.13 63.042 37.9624C63.3729 37.7948 63.627 37.5713 63.8046 37.292C63.9902 37.0047 64.1233 36.7014 64.204 36.3821C64.2928 36.0629 64.3372 35.7277 64.3372 35.3765C64.3372 34.5944 64.1435 33.9279 63.7562 33.3772C63.3689 32.8186 62.8 32.5392 62.0496 32.5392H60.597V38.2138H61.9164Z" fill="white"></path><path d="M68.7944 32.3718C68.633 32.5314 68.4353 32.6113 68.2013 32.6113C67.9674 32.6113 67.7656 32.5314 67.5961 32.3718C67.4348 32.2042 67.354 32.0047 67.354 31.7732C67.354 31.5417 67.4348 31.3462 67.5961 31.1865C67.7656 31.027 67.9674 30.9471 68.2013 30.9471C68.4353 30.9471 68.633 31.027 68.7944 31.1865C68.9558 31.3462 69.0365 31.5417 69.0365 31.7732C69.0365 32.0047 68.9558 32.2042 68.7944 32.3718ZM67.4872 39.5668V33.4492H68.9033V39.5668H67.4872Z" fill="white"></path><path d="M72.8791 41.9591L72.1286 40.8338C72.9758 40.7779 73.5608 40.6462 73.8837 40.4387C74.2145 40.2392 74.38 39.9279 74.38 39.5049V39.1577C74.041 39.5249 73.573 39.7084 72.9758 39.7084C72.2174 39.7084 71.6 39.4331 71.1239 38.8824C70.6559 38.3237 70.4219 37.5296 70.4219 36.5C70.4219 35.5103 70.6559 34.7322 71.1239 34.1656C71.6 33.5909 72.2213 33.3036 72.988 33.3036C73.569 33.3036 74.033 33.4752 74.38 33.8184V33.4472H75.7961V38.9542C75.7961 39.9678 75.5741 40.7021 75.1304 41.157C74.6946 41.6119 73.9441 41.8793 72.8791 41.9591ZM73.2179 38.3676C73.7263 38.3676 74.1136 38.1681 74.38 37.769V35.2311C74.0975 34.8319 73.7101 34.6324 73.2179 34.6324C72.7741 34.6324 72.4312 34.7921 72.1891 35.1113C71.9551 35.4306 71.838 35.8934 71.838 36.5C71.838 37.0747 71.9591 37.5296 72.2012 37.8648C72.4432 38.2 72.7822 38.3676 73.2179 38.3676Z" fill="white"></path><path d="M78.9359 32.3718C78.7745 32.5314 78.5769 32.6113 78.3429 32.6113C78.1089 32.6113 77.9072 32.5314 77.7377 32.3718C77.5763 32.2042 77.4956 32.0047 77.4956 31.7732C77.4956 31.5417 77.5763 31.3462 77.7377 31.1865C77.9072 31.027 78.1089 30.9471 78.3429 30.9471C78.5769 30.9471 78.7745 31.027 78.9359 31.1865C79.0974 31.3462 79.178 31.5417 79.178 31.7732C79.178 32.0047 79.0974 32.2042 78.9359 32.3718ZM77.6287 39.5668V33.4492H79.0448V39.5668H77.6287Z" fill="white"></path><path d="M82.682 39.7104C81.7217 39.7104 81.2416 39.1877 81.2416 38.1422V34.6704H80.3218V33.4492H81.2416V31.5937L82.6578 30.9232V33.4492H84.0861V34.6704H82.6578V37.8668C82.6578 38.2579 82.8313 38.4534 83.1783 38.4534C83.493 38.4534 83.8158 38.3616 84.1466 38.1781L83.9771 39.4351C83.6221 39.6186 83.1904 39.7104 82.682 39.7104Z" fill="white"></path><path d="M88.9635 39.5648V39.074C88.552 39.497 88.0032 39.7084 87.3173 39.7084C86.6556 39.7084 86.115 39.5329 85.6954 39.1817C85.2839 38.8225 85.0781 38.3197 85.0781 37.6732C85.0781 37.0108 85.3121 36.508 85.7801 36.1649C86.2562 35.8216 86.8292 35.6501 87.4989 35.6501C88.088 35.6501 88.5761 35.7578 88.9635 35.9733V35.6501C88.9635 35.259 88.8627 34.9757 88.6609 34.8C88.4672 34.6245 88.1647 34.5367 87.7531 34.5367C87.0834 34.5367 86.47 34.7282 85.9133 35.1113L85.4775 33.974C86.1473 33.5271 86.9542 33.3036 87.8983 33.3036C88.2211 33.3036 88.5035 33.3315 88.7456 33.3874C88.9957 33.4353 89.2499 33.535 89.5081 33.6867C89.7745 33.8384 89.9802 34.0778 90.1255 34.405C90.2708 34.7322 90.3434 35.1393 90.3434 35.6261V39.5648H88.9635ZM87.5836 38.4753C88.1243 38.4753 88.5843 38.2798 88.9635 37.8887V37.0986C88.6084 36.931 88.1969 36.8472 87.7288 36.8472C87.3496 36.8472 87.043 36.9151 86.809 37.0507C86.5749 37.1864 86.458 37.3939 86.458 37.6732C86.458 37.9207 86.5548 38.1162 86.7484 38.2598C86.9421 38.4035 87.2205 38.4753 87.5836 38.4753Z" fill="white"></path><path d="M92.0981 39.5668V31.5817L93.5143 30.9232V39.5668H92.0981Z" fill="white"></path><path d="M61.8556 51.6818C61.081 51.6818 60.4112 51.4903 59.8464 51.1072C59.2896 50.7161 58.8942 50.1853 58.6602 49.515L60.0037 49.0241C60.1812 49.4151 60.4355 49.7304 60.7663 49.9699C61.0971 50.2013 61.4764 50.317 61.904 50.317C62.3479 50.317 62.6989 50.2172 62.9571 50.0177C63.2234 49.8182 63.3565 49.5309 63.3565 49.1557C63.3565 49.0042 63.3202 48.8644 63.2476 48.7367C63.175 48.6011 63.0903 48.4894 62.9934 48.4016C62.9047 48.3137 62.7675 48.226 62.5819 48.1382C62.3963 48.0504 62.2389 47.9825 62.1098 47.9347C61.9807 47.8788 61.7911 47.811 61.5409 47.7311C61.2182 47.6194 60.968 47.5316 60.7905 47.4678C60.621 47.4039 60.3992 47.3002 60.1248 47.1566C59.8585 47.0049 59.6527 46.8532 59.5074 46.7016C59.3703 46.55 59.2452 46.3505 59.1323 46.103C59.0274 45.8476 58.9749 45.5682 58.9749 45.265C58.9749 44.6265 59.2251 44.0918 59.7253 43.6607C60.2256 43.2298 60.9035 43.0143 61.7588 43.0143C62.469 43.0143 63.0579 43.182 63.526 43.5171C63.994 43.8443 64.3087 44.2753 64.4701 44.8101L63.1629 45.241C62.9047 44.6665 62.4044 44.3791 61.662 44.3791C61.2827 44.3791 60.9842 44.4589 60.7663 44.6185C60.5565 44.7702 60.4516 44.9897 60.4516 45.2769C60.4516 45.4685 60.5322 45.6401 60.6937 45.7917C60.8631 45.9434 61.0407 46.0592 61.2262 46.1389C61.4199 46.2107 61.7023 46.3065 62.0735 46.4262C62.3156 46.5141 62.4972 46.5819 62.6182 46.6297C62.7473 46.6697 62.9249 46.7415 63.1507 46.8453C63.3767 46.949 63.5542 47.0448 63.6833 47.1326C63.8124 47.2124 63.9577 47.3241 64.1191 47.4678C64.2885 47.6115 64.4177 47.763 64.5064 47.9227C64.5951 48.0743 64.6718 48.2579 64.7364 48.4734C64.8009 48.6809 64.8332 48.9084 64.8332 49.1557C64.8332 49.938 64.5508 50.5565 63.986 51.0114C63.4292 51.4584 62.7191 51.6818 61.8556 51.6818Z" fill="white"></path><path d="M68.9054 51.6807C68.0258 51.6807 67.3278 51.3973 66.8114 50.8306C66.303 50.2561 66.0488 49.4699 66.0488 48.4722C66.0488 47.4826 66.307 46.7045 66.8235 46.1378C67.34 45.5631 68.0339 45.2758 68.9054 45.2758C69.6962 45.2758 70.3418 45.5192 70.842 46.0061C71.3504 46.4929 71.6046 47.2072 71.6046 48.149C71.6046 48.4762 71.5885 48.7635 71.5561 49.011H67.4529C67.4771 49.4419 67.6264 49.7891 67.9007 50.0525C68.1832 50.3158 68.518 50.4475 68.9054 50.4475C69.4541 50.4475 69.8899 50.2361 70.2126 49.8131L71.1083 50.7229C70.5676 51.3614 69.8334 51.6807 68.9054 51.6807ZM67.465 47.8497H70.2006C70.1682 47.4107 70.0311 47.0795 69.789 46.856C69.5469 46.6246 69.2523 46.5089 68.9054 46.5089C68.5019 46.5089 68.1671 46.6206 67.9007 46.8441C67.6425 47.0596 67.4973 47.3948 67.465 47.8497Z" fill="white"></path><path d="M73.0522 51.537V45.4195H74.4684V46.054C74.7185 45.5351 75.1422 45.2758 75.7394 45.2758C76.1751 45.2758 76.5584 45.4155 76.8892 45.6948L76.6834 46.9758C76.3768 46.7603 76.0258 46.6525 75.6304 46.6525C75.3076 46.6525 75.0333 46.7642 74.8074 46.9877C74.5814 47.2112 74.4684 47.5863 74.4684 48.1131V51.537H73.0522Z" fill="white"></path><path d="M79.6879 51.5373L77.4243 45.4198H78.8648L80.2325 49.2387C80.3294 49.558 80.3858 49.7416 80.402 49.7894C80.4504 49.582 80.5069 49.3984 80.5714 49.2387L81.915 45.4198H83.3553L81.0919 51.5373H79.6879Z" fill="white"></path><path d="M85.8866 44.3424C85.7253 44.502 85.5276 44.5818 85.2936 44.5818C85.0595 44.5818 84.8578 44.502 84.6884 44.3424C84.5269 44.1748 84.4463 43.9752 84.4463 43.7438C84.4463 43.5124 84.5269 43.3168 84.6884 43.1572C84.8578 42.9976 85.0595 42.9177 85.2936 42.9177C85.5276 42.9177 85.7253 42.9976 85.8866 43.1572C86.048 43.3168 86.1287 43.5124 86.1287 43.7438C86.1287 43.9752 86.048 44.1748 85.8866 44.3424ZM84.5795 51.5373V45.4199H85.9956V51.5373H84.5795Z" fill="white"></path><path d="M90.2754 51.6807C89.4281 51.6807 88.7543 51.3973 88.254 50.8306C87.7617 50.264 87.5156 49.4819 87.5156 48.4842C87.5156 47.4866 87.7617 46.7045 88.254 46.1378C88.7543 45.5631 89.4281 45.2758 90.2754 45.2758C91.5503 45.2758 92.3693 45.8385 92.7324 46.9638L91.3889 47.4067C91.1872 46.88 90.8321 46.6166 90.3238 46.6166C89.896 46.6166 89.5612 46.7842 89.3191 47.1194C89.077 47.4547 88.956 47.9096 88.956 48.4842C88.956 49.0508 89.073 49.5018 89.307 49.837C89.5491 50.1643 89.8719 50.3279 90.2754 50.3279C90.8482 50.3279 91.2235 50.0326 91.401 49.4419L92.7567 49.849C92.4016 51.0701 91.5745 51.6807 90.2754 51.6807Z" fill="white"></path><path d="M96.7886 51.6807C95.9091 51.6807 95.2111 51.3973 94.6947 50.8306C94.1863 50.2561 93.9321 49.4699 93.9321 48.4722C93.9321 47.4826 94.1903 46.7045 94.7068 46.1378C95.2232 45.5631 95.9172 45.2758 96.7886 45.2758C97.5795 45.2758 98.225 45.5192 98.7258 46.0061C99.234 46.4929 99.4876 47.2072 99.4876 48.149C99.4876 48.4762 99.4717 48.7635 99.4399 49.011H95.3362C95.3604 49.4419 95.5097 49.7891 95.784 50.0525C96.0665 50.3158 96.4013 50.4475 96.7886 50.4475C97.3373 50.4475 97.7732 50.2361 98.0959 49.8131L98.9913 50.7229C98.4509 51.3614 97.7167 51.6807 96.7886 51.6807ZM95.3483 47.8497H98.0838C98.0515 47.4107 97.9144 47.0795 97.6723 46.856C97.4302 46.6246 97.1356 46.5089 96.7886 46.5089C96.3852 46.5089 96.0504 46.6206 95.784 46.8441C95.5258 47.0596 95.3805 47.3948 95.3483 47.8497Z" fill="white"></path><path d="M102.886 51.6807C102.386 51.6807 101.914 51.5849 101.471 51.3933C101.034 51.2018 100.704 50.9464 100.478 50.6271L101.446 49.8131C101.881 50.244 102.362 50.4595 102.886 50.4595C103.556 50.4595 103.891 50.26 103.891 49.8609C103.891 49.7253 103.831 49.6015 103.709 49.4898C103.596 49.3781 103.472 49.2943 103.334 49.2384C103.205 49.1746 102.991 49.0828 102.693 48.9631C101.983 48.7316 101.462 48.4682 101.131 48.1729C100.808 47.8697 100.647 47.4706 100.647 46.9758C100.647 46.441 100.853 46.0261 101.265 45.7308C101.684 45.4274 102.213 45.2758 102.85 45.2758C103.786 45.2758 104.524 45.591 105.065 46.2216L104.084 47.0117C103.721 46.6686 103.31 46.4969 102.85 46.4969C102.293 46.4969 102.015 46.6645 102.015 46.9997C102.015 47.1673 102.116 47.3109 102.317 47.4307C102.527 47.5504 102.83 47.6742 103.225 47.8019C103.895 48.0252 104.4 48.2887 104.738 48.5919C105.085 48.8952 105.259 49.3183 105.259 49.8609C105.259 50.4435 105.045 50.8945 104.617 51.2137C104.19 51.525 103.613 51.6807 102.886 51.6807Z" fill="white"></path></svg>