<svg width="189.02" height="50" viewBox="0 0 176 86" xmlns="http://www.w3.org/2000/svg"><title>mom-logo-color</title><desc>Created with Sketch.</desc><g fill="none" fill-rule="evenodd"><g><g><path d="M69.98 33.815h1.8v-7.73l.028-.026 2.528 7.755h1.802l2.53-7.756h.024v7.755h1.802v-9.4h-3.01L75.25 31.54h-.027l-2.23-7.125H69.98v9.4zM87.072 33.815v-9.4H85.19v9.4h1.882zM91.734 33.815h1.802v-7.03h.027l3.59 7.03h2.3v-9.4H97.65v7.03h-.026l-3.576-7.03h-2.314v9.4zM106.048 33.815v-9.4h-1.882v9.4h1.882zM115.48 24.59c-.688-.23-1.44-.336-2.246-.336-1.655 0-3.282.767-3.282 2.87 0 3.11 4.114 2.368 4.114 4.16 0 .85-.954 1.212-1.667 1.212-.74 0-1.48-.23-2.125-.58l-.176 1.697c.927.23 1.385.364 2.406.364 1.896 0 3.523-.78 3.523-2.84 0-3.153-4.115-2.465-4.115-4.096 0-1.022.832-1.305 1.48-1.305.656 0 1.316.148 1.907.404l.177-1.55zM120.996 33.815h1.882v-7.918h2.69v-1.482h-7.262v1.482h2.69v7.918zM130.306 25.897h.62c.94 0 1.99.094 1.99 1.226 0 1.17-1.063 1.306-1.99 1.306h-.62v-2.533zm-1.882 7.918h1.882V29.91h.605c.794 0 1.036.27 1.307.97l1.128 2.936h2.098l-1.505-3.677c-.188-.42-.484-.93-.996-.97v-.028c1.198-.16 1.937-1.076 1.937-2.182 0-2.613-2.408-2.545-4.425-2.545h-2.03v9.4zM140.615 33.815h1.882V30.1l3.36-5.685h-1.988l-2.262 3.947-2.217-3.947h-2.203l3.428 5.684v3.715zM157.54 29.09c0 2.88 1.585 4.887 4.598 4.887 2.97 0 4.598-2.046 4.598-4.888 0-2.844-1.653-4.836-4.598-4.836-2.985 0-4.6 1.953-4.6 4.835zm1.962 0c0-1.658.767-3.355 2.636-3.355 1.87 0 2.636 1.698 2.636 3.354 0 1.695-.713 3.406-2.636 3.406-1.924 0-2.636-1.71-2.636-3.407zM170.168 33.815h1.882v-4.12h3.173v-1.482h-3.173v-2.316h3.335v-1.482h-5.217v9.4zM69.98 52.5h2.403V42.193l.035-.036 3.37 10.343h2.403l3.372-10.343h.036V52.5H84V39.965h-4.016l-2.976 9.5h-.036l-2.976-9.5H69.98V52.5zM93.995 47.652h-3.657l1.812-5.173h.036l1.81 5.172zM85.927 52.5h2.6l1.094-2.874h5.075L95.77 52.5h2.78l-4.914-12.535h-2.83L85.925 52.5zM100.317 52.5h2.405v-9.374h.035l4.786 9.374h3.066V39.965h-2.404v9.375h-.034l-4.77-9.375h-3.085V52.5zM116.325 41.94h.88c1.29 0 2.383.502 2.383 1.96 0 1.452-1.13 1.866-2.384 1.866h-.88V41.94zm-2.51 10.56h2.51v-4.76h1.058c2.688 0 4.822-1.06 4.822-3.986 0-3-2.49-3.79-5.217-3.79h-3.174V52.5zM123.645 46.197c0 3.843 2.116 6.52 6.132 6.52 3.962 0 6.132-2.73 6.132-6.52 0-3.79-2.206-6.448-6.133-6.448-3.98 0-6.132 2.604-6.132 6.447zm2.617 0c0-2.21 1.022-4.472 3.515-4.472 2.493 0 3.514 2.262 3.514 4.472 0 2.262-.947 4.542-3.513 4.542-2.564 0-3.515-2.28-3.515-4.543zM140.174 52.5h3.246l2.223-10.02h.036l2.258 10.02h3.226l3.264-12.535h-2.438l-2.35 10.02h-.036l-2.205-10.02h-3.408l-2.132 10.02h-.036l-2.33-10.02h-2.637l3.317 12.535zM156.386 52.5h7.423v-1.976h-4.914v-3.52h4.465V45.03h-4.464v-3.09h4.876v-1.975h-7.386V52.5zM168.905 41.94h.825c1.255 0 2.653.126 2.653 1.635 0 1.562-1.417 1.742-2.653 1.742h-.825V41.94zm-2.51 10.56h2.51v-5.207h.808c1.058 0 1.38.36 1.74 1.29l1.506 3.917h2.796l-2.01-4.902c-.25-.557-.645-1.24-1.325-1.294v-.036c1.597-.215 2.582-1.436 2.582-2.908 0-3.483-3.21-3.394-5.897-3.394h-2.708V52.5z" id="Shape" fill="#231F20"/><path d="M24.235 9.754C10.983 26.936 8.617 51.46 21.172 66.104c-8.098-19.377-.646-39.968 8.873-52.848 1.384-1.75 1.216-3.807-.423-4.944-2.733-1.897-4.793.672-5.387 1.442zM38.093 26.08c-11.16 17.06-12.4 39.3.054 53.157 1.557 1.73 3.357 3.147 5.54 4.557.36.237 1.904.99 3.366 1.456 3.14 1 5.822.318 7.172-.768-2.396.358-5.398.518-8.96-2.33-13.417-10.73-12.49-35.84-1.08-52.852.125-.195 1.545-2.975-1.008-4.657-2.138-1.41-4.084-.092-5.084 1.437zM36.028 10.643C21.99 26.896 12.71 55.46 31.634 76.385 22.626 59.918 22.9 38.54 42.118 15.055c1.15-1.648 1.24-3.742-.67-5.24-1.91-1.503-4.094-.59-5.42.828z" id="Shape" fill="#007CB7"/><path d="M14.005 23.433s-1.295 3.64-1.455 4.368C.61 22.37.797 29.674 4.194 37.45c-4.318-3.75-9.95-20.178 9.81-14.015z" id="Shape" fill="#F7921E"/><path d="M42.128 4.733C42.128 2.12 44.248 0 46.86 0c2.614 0 4.733 2.12 4.733 4.733 0 2.613-2.12 4.73-4.733 4.73-2.613.002-4.732-2.117-4.732-4.73z" id="Shape" fill="#007CB7"/><path d="M44.278 34.76c32.896 21.43 18.78 51.715 5.686 47.35-2.73-.91-4.413-3.14-4.458-3.775 1.425 1.397 3.05 2.32 4.375 2.684 14.308 3.91 17.228-27.355-7.83-41.37.772-2.184 1.773-4.026 2.228-4.89z" fill="#F7921E"/></g></g></g></svg>