<svg width="80" height="80" viewBox="0 0 80 80" fill="none" xmlns="http://www.w3.org/2000/svg">
<path d="M62.8827 58.7384L57.9541 50.4057C57.8811 50.2824 57.7779 50.1804 57.6545 50.1096C57.5312 50.0388 57.3919 50.0016 57.2501 50.0015H51.3489C51.4462 49.7347 51.4974 49.4528 51.5001 49.1683C51.4978 48.8288 51.4279 48.4933 51.2944 48.182C51.161 47.8707 50.9668 47.59 50.7236 47.3569C50.4804 47.1237 50.1932 46.9429 49.8793 46.8253C49.5653 46.7077 49.2312 46.6558 48.897 46.6726C48.7044 46.1155 48.3236 45.6455 47.8221 45.3458C47.3206 45.0462 46.7307 44.9363 46.157 45.0356C45.5832 45.1349 45.0627 45.437 44.6875 45.8884C44.3123 46.3398 44.1067 46.9113 44.1072 47.5017H45.75C45.75 47.2807 45.8366 47.0688 45.9906 46.9125C46.1447 46.7563 46.3536 46.6685 46.5715 46.6685C46.7893 46.6685 46.9983 46.7563 47.1523 46.9125C47.3064 47.0688 47.3929 47.2807 47.3929 47.5017C47.3921 47.5483 47.3883 47.5948 47.3814 47.6409C47.364 47.7954 47.3896 47.9517 47.4552 48.0923C47.5209 48.2328 47.6239 48.3519 47.7528 48.4361C47.8817 48.5202 48.0312 48.5662 48.1845 48.5686C48.3378 48.5711 48.4887 48.53 48.6201 48.45C48.7457 48.3738 48.8895 48.3341 49.0358 48.335C49.2536 48.335 49.4626 48.4228 49.6166 48.5791C49.7707 48.7353 49.8572 48.9473 49.8572 49.1683C49.8572 49.3893 49.7707 49.6012 49.6166 49.7575C49.4626 49.9138 49.2536 50.0015 49.0358 50.0015H30.9642C30.7464 50.0015 30.5374 49.9138 30.3834 49.7575C30.2293 49.6012 30.1428 49.3893 30.1428 49.1683C30.1428 48.9473 30.2293 48.7353 30.3834 48.5791C30.5374 48.4228 30.7464 48.335 30.9642 48.335C31.1105 48.3341 31.2543 48.3738 31.3799 48.45C31.5113 48.53 31.6622 48.5711 31.8155 48.5686C31.9688 48.5662 32.1183 48.5202 32.2472 48.4361C32.3761 48.3519 32.4791 48.2328 32.5448 48.0923C32.6104 47.9517 32.636 47.7954 32.6186 47.6409C32.6117 47.5948 32.6079 47.5483 32.6071 47.5017C32.6071 47.2807 32.6936 47.0688 32.8477 46.9125C33.0017 46.7563 33.2107 46.6685 33.4285 46.6685C33.6464 46.6685 33.8553 46.7563 34.0094 46.9125C34.1634 47.0688 34.25 47.2807 34.25 47.5017H35.8928C35.8933 46.9113 35.6877 46.3398 35.3125 45.8884C34.9373 45.437 34.4168 45.1349 33.843 45.0356C33.2693 44.9363 32.6794 45.0462 32.1779 45.3458C31.6764 45.6455 31.2956 46.1155 31.103 46.6726C30.7689 46.656 30.4348 46.7081 30.121 46.8258C29.8072 46.9434 29.5201 47.1243 29.2769 47.3574C29.0337 47.5905 28.8396 47.8711 28.706 48.1823C28.5725 48.4935 28.5024 48.8289 28.4999 49.1683C28.5026 49.4528 28.5538 49.7347 28.6511 50.0015H22.7499C22.6091 50.0031 22.4712 50.0419 22.3498 50.1141C22.2283 50.1863 22.1276 50.2894 22.0574 50.4132L22.0459 50.4057L17.1173 58.7384C17.0424 58.8648 17.002 59.0091 17.0001 59.1566C16.9982 59.3041 17.0349 59.4494 17.1065 59.5778C17.178 59.7061 17.2819 59.8129 17.4075 59.8873C17.5331 59.9616 17.6759 60.0007 17.8213 60.0008H21.9284V69.1667C21.9284 69.3877 22.015 69.5997 22.169 69.7559C22.3231 69.9122 22.532 70 22.7499 70H57.2501C57.468 70 57.6769 69.9122 57.831 69.7559C57.985 69.5997 58.0716 69.3877 58.0716 69.1667V60.0008H62.1787C62.3241 60.0007 62.4669 59.9616 62.5925 59.8873C62.7181 59.8129 62.8219 59.7061 62.8935 59.5778C62.9651 59.4494 63.0018 59.3041 62.9999 59.1566C62.998 59.0091 62.9576 58.8648 62.8827 58.7384ZM19.2719 58.3342L21.9284 53.8429V58.3342H19.2719ZM33.4285 68.3335H23.5713V51.6681H33.4285V68.3335ZM56.4287 68.3335H35.0714V53.8429L38.4746 59.5966C38.5476 59.7199 38.6508 59.8219 38.7741 59.8927C38.8975 59.9635 39.0368 60.0007 39.1786 60.0008H56.4287V68.3335ZM39.6435 58.3342L35.7006 51.6681H56.7852L60.7281 58.3342H39.6435Z" fill="#313840" stroke="#E5E5E5" stroke-width="0.4"/>
<path d="M55 65H52V67H55V65Z" fill="#313840"/>
<path d="M50 65H48V67H50V65Z" fill="#313840"/>
<path fill-rule="evenodd" clip-rule="evenodd" d="M53.4999 32.5H54.4999V35.5H53.4999V32.5Z" fill="#647283"/>
<path fill-rule="evenodd" clip-rule="evenodd" d="M53.4999 38.5H54.4999V39.5H53.4999V38.5Z" fill="#647283"/>
<path fill-rule="evenodd" clip-rule="evenodd" d="M57.4999 34.5H58.4999V37.5H57.4999V34.5Z" fill="#647283"/>
<path fill-rule="evenodd" clip-rule="evenodd" d="M57.4999 40.5H58.4999V41.5H57.4999V40.5Z" fill="#647283"/>
<path fill-rule="evenodd" clip-rule="evenodd" d="M25.4999 32.4999H26.4999V35.4999H25.4999V32.4999Z" fill="#647283"/>
<path fill-rule="evenodd" clip-rule="evenodd" d="M25.4999 38.4999H26.4999V39.4999H25.4999V38.4999Z" fill="#647283"/>
<path fill-rule="evenodd" clip-rule="evenodd" d="M21.4999 34.4999H22.4999V37.4999H21.4999V34.4999Z" fill="#647283"/>
<path fill-rule="evenodd" clip-rule="evenodd" d="M21.4999 40.4999H22.4999V41.4999H21.4999V40.4999Z" fill="#647283"/>
<path fill-rule="evenodd" clip-rule="evenodd" d="M61.0118 16.7189C57.7995 20.2414 55.8677 24.7445 55.529 29.4999H54.5266C54.8489 24.4746 56.8884 19.7116 60.3031 16.0103L61.0118 16.7189Z" fill="#647283"/>
<path fill-rule="evenodd" clip-rule="evenodd" d="M66.0118 18.719C62.7995 22.2415 60.8677 26.7445 60.529 31.5H59.5266C59.8489 26.4747 61.8884 21.7117 65.3031 18.0103L66.0118 18.719Z" fill="#647283"/>
<path fill-rule="evenodd" clip-rule="evenodd" d="M18.9878 16.7195L19.6971 16.0103C23.1118 19.7116 25.1512 24.4746 25.4736 29.4999H24.4704C24.1233 24.7467 22.1927 20.2465 18.9878 16.7195Z" fill="#647283"/>
<path fill-rule="evenodd" clip-rule="evenodd" d="M13.9878 18.7195L14.6971 18.0103C18.1118 21.7116 20.1512 26.4746 20.4736 31.4999H19.4704C19.1233 26.7467 17.1927 22.2465 13.9878 18.7195Z" fill="#647283"/>
<path fill-rule="evenodd" clip-rule="evenodd" d="M40.0878 11.3525L39.9436 11.269L39.7994 11.3525C38.0308 12.376 36.5733 14.2251 35.5595 16.3325C34.5443 18.4427 33.9593 20.8416 33.9592 22.9976V31.6859L29.3386 37.6L27.9604 39.2038L33.9592 39.2045L45.9275 39.2038H51.9628L50.6544 37.6029L50.6524 37.6003L45.9275 31.6818L45.9275 22.9977C45.9276 20.8416 45.3428 18.4427 44.3277 16.3325C43.3139 14.2251 41.8564 12.376 40.0878 11.3525ZM31.5903 37.4946L33.9592 34.4623V37.4946H31.5903ZM48.3811 37.4946H45.9275V34.4213L48.3811 37.4946ZM35.6048 37.4946H44.2819L44.2821 22.9974C44.2821 21.1131 43.7861 19.097 42.9686 17.3184C42.1874 15.6186 41.1228 14.1578 39.9436 13.2383C38.7644 14.1578 37.6999 15.6186 36.9186 17.3184C36.1011 19.097 35.605 21.1132 35.6048 22.9977L35.6048 37.4946ZM39.91 19.25C38.1937 19.25 36.8021 20.6411 36.8021 22.3579L36.8021 22.4237C36.8021 24.1399 38.1932 25.5316 39.91 25.5316L39.9758 25.5316C41.692 25.5316 43.0837 24.1404 43.0837 22.4237L43.0837 22.3579C43.0837 20.6416 41.6925 19.25 39.9758 19.25L39.91 19.25ZM39.91 20.8956H39.9758C40.7817 20.8956 41.4381 21.5519 41.4381 22.3579V22.4237C41.4381 23.2296 40.7817 23.886 39.9758 23.886H39.91C39.104 23.886 38.4477 23.2296 38.4477 22.4237L38.4477 22.3579C38.4477 21.5519 39.104 20.8956 39.91 20.8956ZM40.802 46V39.7573L39.0897 39.7573V46H40.802ZM43.6845 43.7334V39.7595L41.9075 39.7598L41.9075 43.7338L43.6845 43.7334ZM38.0025 39.7597H36.2253L36.2253 43.7337H38.0025V39.7597Z" fill="url(#paint0_linear)"/>
<defs>
<linearGradient id="paint0_linear" x1="39.9504" y1="17.0309" x2="49.2268" y2="21.9332" gradientUnits="userSpaceOnUse">
<stop stop-color="#D55B17"/>
<stop offset="1" stop-color="#D99227"/>
</linearGradient>
</defs>
</svg>
