<svg width="80" height="80" viewBox="0 0 80 80" fill="none" xmlns="http://www.w3.org/2000/svg">
<path fill-rule="evenodd" clip-rule="evenodd" d="M66.8709 26.5996L66.8717 26.6024L66.8722 26.6042V65.5914C66.8722 66.7533 65.9239 67.7 64.7613 67.7H28.4105C27.2478 67.7 26.2996 66.7533 26.2996 65.5914V59.3H27.569V65.5914C27.569 66.0558 27.9461 66.4329 28.4105 66.4329H64.7636C65.228 66.4329 65.6051 66.0558 65.6051 65.5914V27.2205H52.4919C52.1422 27.2205 51.8583 26.9352 51.8583 26.587V13.5718H28.4105C27.9461 13.5718 27.569 13.9488 27.569 14.4133V29.7H26.2996V14.4109C26.2996 13.2486 27.2482 12.3 28.4105 12.3H52.2165C52.7773 12.3 53.3082 12.5201 53.7145 12.9281L66.6061 26.0563V26.0606L66.6918 26.148C66.7531 26.2107 66.8016 26.3045 66.8357 26.4315L66.8377 26.4382C66.8438 26.4591 66.8479 26.4795 66.8509 26.5053C66.8559 26.5475 66.8666 26.5846 66.8709 26.5996ZM66.6061 25.9382V25.944C66.606 25.9383 66.6061 25.9358 66.6061 25.9382ZM53.1278 14.1324V25.9487H64.7318L53.1278 14.1324Z" fill="#313840"/>
<path fill-rule="evenodd" clip-rule="evenodd" d="M23.6658 40.5341L27.0001 34.2146L30.3344 40.5341C30.6961 41.2198 31.3554 41.6988 32.1192 41.8309L39.1599 43.0491L34.1799 48.1731C33.6396 48.729 33.3878 49.504 33.4982 50.2713L34.5152 57.3438L28.1032 54.191C27.4076 53.8489 26.5926 53.8489 25.897 54.191L19.485 57.3438L20.502 50.2713C20.6124 49.504 20.3606 48.729 19.8203 48.1731L14.8403 43.0491L21.881 41.8309C22.6448 41.6988 23.3041 41.2198 23.6658 40.5341ZM26.1157 32.6764C26.4909 31.9653 27.5093 31.9653 27.8845 32.6764L31.661 39.8342C31.8057 40.1084 32.0694 40.3 32.375 40.3529L40.3494 41.7327C41.1417 41.8698 41.4564 42.8384 40.896 43.415L35.2556 49.2185C35.0395 49.4409 34.9387 49.7509 34.9829 50.0578L36.1349 58.0683C36.2493 58.8642 35.4254 59.4628 34.7038 59.108L27.4413 55.5371C27.1631 55.4002 26.8371 55.4002 26.5589 55.5371L19.2964 59.108C18.5748 59.4628 17.7509 58.8642 17.8653 58.0683L19.0173 50.0578C19.0615 49.7509 18.9607 49.4409 18.7446 49.2185L13.1042 43.415C12.5438 42.8384 12.8585 41.8698 13.6508 41.7327L21.6252 40.3529C21.9308 40.3 22.1945 40.1084 22.3392 39.8342L26.1157 32.6764ZM46.9333 40C46.4179 40 46 40.4179 46 40.9333C46 41.4488 46.4179 41.8667 46.9333 41.8667H56.0667C56.5821 41.8667 57 41.4488 57 40.9333C57 40.4179 56.5821 40 56.0667 40H46.9333ZM46 46.5339C46 46.0185 46.4179 45.6006 46.9333 45.6006H56.0667C56.5821 45.6006 57 46.0185 57 46.5339C57 47.0494 56.5821 47.4673 56.0667 47.4673H46.9333C46.4179 47.4673 46 47.0494 46 46.5339ZM46.9333 51.2002C46.4179 51.2002 46 51.6181 46 52.1335C46 52.649 46.4179 53.0669 46.9333 53.0669H56.0667C56.5821 53.0669 57 52.649 57 52.1335C57 51.6181 56.5821 51.2002 56.0667 51.2002H46.9333Z" fill="url(#paint0_linear)"/>
<defs>
<linearGradient id="paint0_linear" x1="34.8896" y1="36.6339" x2="43.4302" y2="47.2927" gradientUnits="userSpaceOnUse">
<stop stop-color="#D55B17"/>
<stop offset="1" stop-color="#D99227"/>
</linearGradient>
</defs>
</svg>
