<svg width="40" height="40" viewBox="0 0 40 40" fill="none" xmlns="http://www.w3.org/2000/svg">
<path d="M19.5208 13.949H19.8695C19.8733 13.949 19.8767 13.9511 19.8809 13.9511C19.8852 13.9511 19.8881 13.949 19.8923 13.949H20.2411C21.4736 13.949 22.4759 14.9513 22.4759 16.1834C22.4759 16.4747 22.7124 16.7111 23.0037 16.7111C23.2951 16.7111 23.5315 16.4747 23.5315 16.1834C23.5315 14.4256 22.1449 12.9901 20.4087 12.9018V11.5554C20.4087 11.264 20.1723 11.0276 19.8809 11.0276C19.5896 11.0276 19.3532 11.264 19.3532 11.5554V12.9018C17.617 12.9901 16.2304 14.4261 16.2304 16.1834C16.2304 17.9977 17.7065 19.4733 19.5208 19.4733H20.2407C21.4732 19.4733 22.4755 20.4757 22.4755 21.7077C22.4755 22.9398 21.4732 23.9422 20.2407 23.9422H19.8877C19.8852 23.9422 19.8831 23.9409 19.8805 23.9409C19.878 23.9409 19.8759 23.9422 19.8733 23.9422H19.5204C18.2879 23.9422 17.2855 22.9398 17.2855 21.7077C17.2855 21.4164 17.0491 21.18 16.7578 21.18C16.4664 21.18 16.23 21.4164 16.23 21.7077C16.23 23.4655 17.6166 24.901 19.3527 24.9893V26.5962C19.3527 26.8876 19.5892 27.124 19.8805 27.124C20.1719 27.124 20.4083 26.8876 20.4083 26.5962V24.9893C22.1445 24.901 23.5311 23.465 23.5311 21.7077C23.5311 19.8934 22.055 18.4178 20.2407 18.4178H19.5208C18.2883 18.4178 17.286 17.4154 17.286 16.1834C17.286 14.9513 18.2887 13.949 19.5208 13.949Z" fill="#313840"/>
<path d="M27.3489 10.0861C25.1651 8.01426 22.2986 6.96334 19.2857 7.11914C13.6241 7.42441 9.02266 12.2893 9.02857 17.9627C9.02857 21.164 10.4316 24.1846 12.878 26.251C14.3629 27.5062 15.2142 29.3611 15.2142 31.34V31.5258V32.7279C15.2142 34.711 16.466 36.4029 18.2195 37.0671V37.469C18.2195 38.3147 18.9048 39 19.7505 39H20.0055C20.8513 39 21.5365 38.3147 21.5365 37.469V37.0747C23.301 36.4164 24.5635 34.7186 24.5635 32.7274V31.6917C24.5635 31.6326 24.5546 31.576 24.5415 31.5207V31.3396C24.5415 29.3471 25.3771 27.5062 26.835 26.2877C29.3122 24.2141 30.7326 21.1779 30.7326 17.9572C30.7326 14.9518 29.5305 12.1563 27.3489 10.0861ZM19.9203 35.8933H19.8582C18.1123 35.8933 16.6924 34.4733 16.6924 32.7279V31.9734H23.0861V32.7279C23.0857 34.4729 21.6657 35.8933 19.9203 35.8933ZM25.8871 25.1544C24.2502 26.5224 23.2529 28.5204 23.0903 30.7063H16.6649C16.4994 28.5318 15.4894 26.5233 13.8314 25.1215C11.7181 23.3363 10.5059 20.727 10.5059 17.9614C10.5009 13.0603 14.4748 8.85786 19.3638 8.59439C21.9756 8.45548 24.4452 9.36791 26.3313 11.1577C28.2165 12.9463 29.2548 15.3614 29.2548 17.9572C29.2548 20.7397 28.027 23.3629 25.8871 25.1544Z" fill="#313840"/>
<path fill-rule="evenodd" clip-rule="evenodd" d="M20.4081 3.93615C20.4081 4.22748 20.1717 4.46393 19.8803 4.46393C19.589 4.46393 19.3525 4.2279 19.3525 3.93615V1.52778C19.3525 1.23645 19.589 1 19.8803 1C20.1717 1 20.4081 1.23645 20.4081 1.52778V3.93615ZM30.9623 5.89948L29.2595 7.60231C29.0535 7.80835 29.0535 8.14233 29.2595 8.3488C29.3625 8.45182 29.4972 8.50333 29.6328 8.50333C29.7683 8.50333 29.903 8.45182 30.006 8.3488L31.7088 6.64597C31.9149 6.43993 31.9149 6.10595 31.7088 5.89948C31.5028 5.69301 31.1684 5.69301 30.9623 5.89948ZM6.08995 17.1987H3.68159C3.39025 17.1987 3.15381 17.4352 3.15381 17.7265C3.15381 18.0178 3.39025 18.2543 3.68159 18.2543H6.08995C6.38129 18.2543 6.61773 18.0178 6.61773 17.7265C6.61773 17.4352 6.38129 17.1987 6.08995 17.1987ZM36.0797 17.1987H33.6713C33.38 17.1987 33.1436 17.4352 33.1436 17.7265C33.1436 18.0178 33.38 18.2543 33.6713 18.2543H36.0797C36.371 18.2543 36.6075 18.0178 36.6075 17.7265C36.6075 17.4352 36.3714 17.1987 36.0797 17.1987ZM8.05346 28.8087L9.75629 27.1059C9.96233 26.8998 10.2967 26.8994 10.5028 27.1059C10.7088 27.3123 10.7088 27.6463 10.5028 27.8524L8.79995 29.5552C8.69693 29.6582 8.56224 29.7097 8.42671 29.7097C8.29117 29.7097 8.15648 29.6582 8.05346 29.5552C7.84741 29.3487 7.84741 29.0147 8.05346 28.8087ZM30.0057 27.1057C29.7996 26.8997 29.4657 26.8997 29.2592 27.1057C29.0527 27.3118 29.0531 27.6457 29.2592 27.8522L30.962 29.555C31.065 29.658 31.1997 29.7096 31.3353 29.7096C31.4708 29.7096 31.6055 29.658 31.7085 29.555C31.9146 29.349 31.9146 29.015 31.7085 28.8085L30.0057 27.1057ZM10.1297 8.50351C9.99416 8.50351 9.85947 8.45199 9.75645 8.34897L8.05362 6.64614C7.84757 6.43968 7.84715 6.1057 8.05362 5.89965C8.26009 5.69361 8.59406 5.69361 8.80011 5.89965L10.5029 7.60248C10.709 7.80895 10.709 8.14293 10.5029 8.34897C10.3999 8.45199 10.2652 8.50351 10.1297 8.50351Z" fill="url(#paint0_linear)"/>
<path fill-rule="evenodd" clip-rule="evenodd" d="M29.2595 8.3488C29.0535 8.14233 29.0535 7.80835 29.2595 7.60231L30.9623 5.89948C31.1684 5.69301 31.5028 5.69301 31.7088 5.89948C31.9149 6.10595 31.9149 6.43993 31.7088 6.64597L30.006 8.3488C29.903 8.45182 29.7683 8.50333 29.6328 8.50333C29.4972 8.50333 29.3625 8.45182 29.2595 8.3488ZM30.6084 5.54629L28.906 7.24875C28.5045 7.65026 28.505 8.30054 28.9056 8.70199C29.1061 8.90249 29.37 9.00333 29.6328 9.00333C29.8956 9.00333 30.1591 8.90285 30.3596 8.70235L32.0624 6.99952C32.4639 6.59802 32.4634 5.94773 32.0627 5.54629C31.6615 5.1442 31.0098 5.14444 30.6084 5.54629ZM7.69954 29.9084C7.29892 29.5069 7.2984 28.8566 7.69991 28.4551L9.40274 26.7523C9.80358 26.3515 10.4548 26.35 10.8567 26.7527C11.2573 27.1541 11.2578 27.8044 10.8563 28.2059L9.1535 29.9087C8.95301 30.1092 8.68952 30.2097 8.42671 30.2097C8.16389 30.2097 7.90004 30.1089 7.69954 29.9084ZM28.9053 28.2054C28.5051 27.8044 28.5031 27.1538 28.906 26.7518C29.3074 26.3512 29.9577 26.3506 30.3592 26.7522L32.0621 28.455C32.4627 28.8564 32.4636 29.5071 32.0621 29.9086C31.8616 30.1091 31.5981 30.2096 31.3353 30.2096C31.0724 30.2096 30.809 30.1091 30.6085 29.9086L28.9053 28.2054ZM7.6997 6.99933C7.29954 6.59835 7.29755 5.94779 7.70043 5.54574L8.05362 5.89965C7.84715 6.1057 7.84757 6.43968 8.05362 6.64614L9.75645 8.34897C9.85947 8.45199 9.99416 8.50351 10.1297 8.50351C10.2652 8.50351 10.3999 8.45199 10.5029 8.34897C10.709 8.14293 10.709 7.80895 10.5029 7.60248L8.80011 5.89965C8.59406 5.69361 8.26009 5.69361 8.05362 5.89965L7.70043 5.54574C8.10187 5.14511 8.75216 5.14459 9.15366 5.5461L10.8565 7.24893C11.2571 7.65037 11.258 8.30102 10.8565 8.70253C10.656 8.90302 10.3925 9.00351 10.1297 9.00351C9.86689 9.00351 9.60339 8.90302 9.40289 8.70252L7.6997 6.99933ZM20.9081 3.93615C20.9081 4.50362 20.4478 4.96393 19.8803 4.96393C19.3131 4.96393 18.8525 4.5043 18.8525 3.93615V1.52778C18.8525 0.960303 19.3128 0.5 19.8803 0.5C20.4478 0.5 20.9081 0.960304 20.9081 1.52778V3.93615ZM3.68159 16.6987H6.08995C6.65743 16.6987 7.11773 17.159 7.11773 17.7265C7.11773 18.294 6.65743 18.7543 6.08995 18.7543H3.68159C3.11411 18.7543 2.65381 18.294 2.65381 17.7265C2.65381 17.159 3.11411 16.6987 3.68159 16.6987ZM33.6713 16.6987H36.0797C36.6479 16.6987 37.1075 17.1593 37.1075 17.7265C37.1075 18.294 36.6472 18.7543 36.0797 18.7543H33.6713C33.1039 18.7543 32.6436 18.294 32.6436 17.7265C32.6436 17.159 33.1039 16.6987 33.6713 16.6987ZM29.2592 27.8522C29.0531 27.6457 29.0527 27.3118 29.2592 27.1057C29.4657 26.8997 29.7996 26.8997 30.0057 27.1057L31.7085 28.8085C31.9146 29.015 31.9146 29.349 31.7085 29.555C31.6055 29.658 31.4708 29.7096 31.3353 29.7096C31.1997 29.7096 31.065 29.658 30.962 29.555L29.2592 27.8522ZM19.8803 4.46393C20.1717 4.46393 20.4081 4.22748 20.4081 3.93615V1.52778C20.4081 1.23645 20.1717 1 19.8803 1C19.589 1 19.3525 1.23645 19.3525 1.52778V3.93615C19.3525 4.2279 19.589 4.46393 19.8803 4.46393ZM3.68159 17.1987H6.08995C6.38129 17.1987 6.61773 17.4352 6.61773 17.7265C6.61773 18.0178 6.38129 18.2543 6.08995 18.2543H3.68159C3.39025 18.2543 3.15381 18.0178 3.15381 17.7265C3.15381 17.4352 3.39025 17.1987 3.68159 17.1987ZM33.6713 17.1987H36.0797C36.3714 17.1987 36.6075 17.4352 36.6075 17.7265C36.6075 18.0178 36.371 18.2543 36.0797 18.2543H33.6713C33.38 18.2543 33.1436 18.0178 33.1436 17.7265C33.1436 17.4352 33.38 17.1987 33.6713 17.1987ZM9.75629 27.1059L8.05346 28.8087C7.84741 29.0147 7.84741 29.3487 8.05346 29.5552C8.15648 29.6582 8.29117 29.7097 8.42671 29.7097C8.56224 29.7097 8.69693 29.6582 8.79995 29.5552L10.5028 27.8524C10.7088 27.6463 10.7088 27.3123 10.5028 27.1059C10.2967 26.8994 9.96233 26.8998 9.75629 27.1059Z" fill="url(#paint1_linear)"/>
<defs>
<linearGradient id="paint0_linear" x1="19.8646" y1="5.42893" x2="29.4003" y2="13.8849" gradientUnits="userSpaceOnUse">
<stop stop-color="#D55B17"/>
<stop offset="1" stop-color="#D99227"/>
</linearGradient>
<linearGradient id="paint1_linear" x1="19.8646" y1="5.42893" x2="29.4003" y2="13.8849" gradientUnits="userSpaceOnUse">
<stop stop-color="#D55B17"/>
<stop offset="1" stop-color="#D99227"/>
</linearGradient>
</defs>
</svg>
