<svg width="80" height="80" viewBox="0 0 80 80" fill="none" xmlns="http://www.w3.org/2000/svg">
<path d="M56.4476 63.44L57.2876 64.56C57.387 64.6926 57.3598 64.8802 57.2307 64.9841C55.4502 66.4167 54.2833 68.4903 53.9607 70.7342C53.939 70.8853 53.8113 71 53.6587 71H52.0765C51.9239 71 51.7961 70.8853 51.7744 70.7342C51.4518 68.4903 50.285 66.4167 48.5045 64.9841C48.3754 64.8802 48.3482 64.6926 48.4476 64.56L49.2876 63.44C49.387 63.3075 49.5753 63.2803 49.7049 63.3835C50.2905 63.8504 50.8189 64.3768 51.2901 64.9475C51.4771 65.174 51.8676 65.0467 51.8676 64.753V61.3C51.8676 61.1343 52.0019 61 52.1676 61H53.5676C53.7333 61 53.8676 61.1343 53.8676 61.3V64.7542C53.8676 65.0478 54.2577 65.175 54.4446 64.9486C54.9161 64.3775 55.4444 63.8507 56.0303 63.3835C56.1598 63.2803 56.3482 63.3075 56.4476 63.44Z" fill="#313840"/>
<path d="M32.18 63.44L33.02 64.56C33.1194 64.6926 33.0922 64.8802 32.9631 64.9841C31.1826 66.4167 30.0157 68.4903 29.6932 70.7342C29.6714 70.8853 29.5437 71 29.3911 71H27.8089C27.6563 71 27.5286 70.8853 27.5069 70.7342C27.1843 68.4903 26.0174 66.4167 24.2369 64.9841C24.1078 64.8802 24.0806 64.6926 24.18 64.56L25.02 63.44C25.1194 63.3075 25.3078 63.2803 25.4373 63.3835C26.0229 63.8504 26.5513 64.3768 27.0225 64.9475C27.2095 65.174 27.6 65.0467 27.6 64.753V61.3C27.6 61.1343 27.7343 61 27.9 61H29.3C29.4657 61 29.6 61.1343 29.6 61.3V64.7542C29.6 65.0478 29.9901 65.175 30.177 64.9486C30.6485 64.3775 31.1768 63.8507 31.7627 63.3835C31.8923 63.2803 32.0806 63.3075 32.18 63.44Z" fill="#313840"/>
<path d="M18 70.2283C18 69.7986 18.3484 69.4502 18.7781 69.4502H22.1156C22.5453 69.4502 22.8937 69.7986 22.8937 70.2283C22.8937 70.6581 22.5453 71.0064 22.1156 71.0064H18.7781C18.3484 71.0064 18 70.6581 18 70.2283Z" fill="#313840"/>
<path d="M58 70.2283C58 69.7986 58.3484 69.4502 58.7781 69.4502H62.1156C62.5453 69.4502 62.8937 69.7986 62.8937 70.2283C62.8937 70.6581 62.5453 71.0064 62.1156 71.0064H58.7781C58.3484 71.0064 58 70.6581 58 70.2283Z" fill="#313840"/>
<path fill-rule="evenodd" clip-rule="evenodd" d="M40.75 8C41.1642 8 41.5 8.33579 41.5 8.75L41.5 12.25C41.5 12.6642 41.1642 13 40.75 13C40.3358 13 40 12.6642 40 12.25L40 8.75C40 8.33579 40.3358 8 40.75 8Z" fill="#313840"/>
<path fill-rule="evenodd" clip-rule="evenodd" d="M40.75 25C41.1642 25 41.5 25.3358 41.5 25.75L41.5 30.25C41.5 30.6642 41.1642 31 40.75 31C40.3358 31 40 30.6642 40 30.25L40 25.75C40 25.3358 40.3358 25 40.75 25Z" fill="#313840"/>
<path fill-rule="evenodd" clip-rule="evenodd" d="M40.75 43C41.1642 43 41.5 43.3358 41.5 43.75L41.5 70.25C41.5 70.6642 41.1642 71 40.75 71C40.3358 71 40 70.6642 40 70.25L40 43.75C40 43.3358 40.3358 43 40.75 43Z" fill="#313840"/>
<path fill-rule="evenodd" clip-rule="evenodd" d="M33 70.25C33 69.8358 33.3358 69.5 33.75 69.5H47.25C47.6642 69.5 48 69.8358 48 70.25C48 70.6642 47.6642 71 47.25 71H33.75C33.3358 71 33 70.6642 33 70.25Z" fill="#313840"/>
<path fill-rule="evenodd" clip-rule="evenodd" d="M22.9519 19L27.5315 13.5H53.5V24.5H27.5315L22.9519 19ZM26.5287 12.3601C26.7187 12.1319 27.0003 12 27.2972 12H54C54.5523 12 55 12.4477 55 13V25C55 25.5523 54.5523 26 54 26H27.2972C27.0003 26 26.7187 25.8681 26.5287 25.6399L21.5328 19.6399C21.2241 19.2691 21.2241 18.7309 21.5328 18.3601L26.5287 12.3601ZM34.6 16H31.4C30.6268 16 30 16.6268 30 17.4V20.6C30 21.3732 30.6268 22 31.4 22H34.6C35.3732 22 36 21.3732 36 20.6V17.4C36 16.6268 35.3732 16 34.6 16ZM31 17.4C31 17.1791 31.1791 17 31.4 17H34.6C34.8209 17 35 17.1791 35 17.4V20.6C35 20.8209 34.8209 21 34.6 21H31.4C31.1791 21 31 20.8209 31 20.6V17.4ZM38 17.5C38 17.2239 38.2239 17 38.5 17H49.5C49.7761 17 50 17.2239 50 17.5C50 17.7761 49.7761 18 49.5 18H38.5C38.2239 18 38 17.7761 38 17.5ZM42.5 20C42.2239 20 42 20.2239 42 20.5C42 20.7761 42.2239 21 42.5 21L49.5 21C49.7761 21 50 20.7761 50 20.5C50 20.2239 49.7761 20 49.5 20L42.5 20ZM38 20.5C38 20.2239 38.2239 20 38.5 20H39.5C39.7761 20 40 20.2239 40 20.5C40 20.7761 39.7761 21 39.5 21H38.5C38.2239 21 38 20.7761 38 20.5ZM58.0481 37L53.4685 31.5H27.5V42.5H53.4685L58.0481 37ZM54.4713 30.3601C54.2813 30.1319 53.9997 30 53.7028 30H27C26.4477 30 26 30.4477 26 31V43C26 43.5523 26.4477 44 27 44H53.7028C53.9997 44 54.2813 43.8681 54.4713 43.6399L59.4672 37.6399C59.7759 37.2691 59.7759 36.7309 59.4672 36.3601L54.4713 30.3601ZM31 35.5C31 35.2239 31.2239 35 31.5 35H46.5C46.7761 35 47 35.2239 47 35.5C47 35.7761 46.7761 36 46.5 36H31.5C31.2239 36 31 35.7761 31 35.5ZM31 38.5C31 38.2239 31.2239 38 31.5 38H46.5C46.7761 38 47 38.2239 47 38.5C47 38.7761 46.7761 39 46.5 39H31.5C31.2239 39 31 38.7761 31 38.5ZM50.5 35C50.2239 35 50 35.2239 50 35.5C50 35.7761 50.2239 36 50.5 36H51.5C51.7761 36 52 35.7761 52 35.5C52 35.2239 51.7761 35 51.5 35H50.5ZM50 38.5C50 38.2239 50.2239 38 50.5 38H51.5C51.7761 38 52 38.2239 52 38.5C52 38.7761 51.7761 39 51.5 39H50.5C50.2239 39 50 38.7761 50 38.5ZM21.4141 54.8125C20.0844 54.8109 19.0016 53.7297 19 52.4C19 51.7562 19.2516 51.1516 19.7094 50.7C20.1656 50.25 20.7703 50.0016 21.4141 50C22.0562 50.0016 22.6594 50.25 23.1125 50.7016C23.5672 51.1531 23.8187 51.7562 23.8203 52.4C23.8187 53.7297 22.7406 54.8109 21.4141 54.8125ZM21.4141 51.25C20.7625 51.2516 20.2516 51.7562 20.25 52.4C20.2516 53.0391 20.7734 53.5609 21.4141 53.5625C22.05 53.5609 22.5688 53.0391 22.5703 52.4C22.5688 51.7562 22.0609 51.2516 21.4141 51.25ZM58 51.4141C58.0014 52.7344 59.0813 53.8109 60.4063 53.8125C61.7344 53.8109 62.8172 52.7344 62.8205 51.4141C62.8188 50.7656 62.5674 50.1578 62.1094 49.7031C61.6547 49.2516 61.0502 49.0016 60.4064 49H60.4047C59.7689 49 59.1502 49.2562 58.7047 49.7031C58.2563 50.15 58 50.7734 58 51.4141ZM59.25 51.4141C59.2531 50.7641 59.7609 50.2531 60.4063 50.25C61.0578 50.2531 61.5688 50.7641 61.5703 51.4141C61.5686 52.0359 61.0358 52.5625 60.4063 52.5625C59.7703 52.5625 59.2516 52.0469 59.25 51.4141ZM34.8906 59.7859C34.3861 59.7844 33.9109 59.5875 33.5531 59.2313C33.1969 58.8734 33 58.3984 33 57.8922C33.0016 56.8516 33.8498 56.0031 34.8906 56C35.3969 56.0016 35.8719 56.2016 36.2266 56.5594C36.5798 56.9172 36.7752 57.3906 36.7767 57.8922C36.7767 58.3984 36.5798 58.8734 36.2236 59.2297C35.8686 59.5875 35.3953 59.7844 34.8906 59.7859ZM34.8906 57.25C34.5438 57.2516 34.25 57.5453 34.2484 57.8922C34.2517 58.2562 34.5281 58.5328 34.8906 58.5359C35.2455 58.5344 35.5252 58.2516 35.5266 57.8922C35.5266 57.5453 35.2344 57.2516 34.8906 57.25Z" fill="url(#paint0_linear)"/>
<defs>
<linearGradient id="paint0_linear" x1="41.3866" y1="18.1072" x2="53.2699" y2="30.6519" gradientUnits="userSpaceOnUse">
<stop stop-color="#D55B17"/>
<stop offset="1" stop-color="#D99227"/>
</linearGradient>
</defs>
</svg>
