<svg width="90" height="90" viewBox="0 0 90 90" fill="none" xmlns="http://www.w3.org/2000/svg">
<g clip-path="url(#clip0_11335_17750)">
<rect x="38" width="52" height="16" rx="2.32639" fill="#CDE5E8"/>
<rect x="63" y="22" width="27" height="12" rx="2.32639" fill="#E9BB66"/>
<rect x="63" y="40" width="27" height="12" rx="2.32639" fill="#CDE5E8"/>
<path d="M52 16V43C52 44.6569 53.3431 46 55 46H63" stroke="#CDE5E8" stroke-width="2" stroke-linejoin="round"/>
<path d="M52 16V25C52 26.6569 53.3431 28 55 28H63" stroke="#E9BB66" stroke-width="2" stroke-linejoin="round"/>
<path d="M47.6711 40.2821C47.6711 42.4867 49.2292 44.2708 51.1476 44.2708C53.066 44.2708 54.624 42.4867 54.624 40.2821C54.624 38.0775 53.0695 36.2969 51.1476 36.2969C49.2257 36.2969 47.6711 38.081 47.6711 40.2821Z" fill="url(#paint0_linear_11335_17750)"/>
<path d="M47.6711 40.2821C47.6711 42.4867 49.2292 44.2708 51.1476 44.2708C53.066 44.2708 54.624 42.4867 54.624 40.2821C54.624 38.0775 53.0695 36.2969 51.1476 36.2969C49.2257 36.2969 47.6711 38.081 47.6711 40.2821Z" fill="url(#paint1_linear_11335_17750)"/>
<path d="M32.6312 60.2438L31.8328 61.0882C31.8328 60.3816 31.8328 59.6503 31.8328 58.9189L32.6135 59.5902L32.6771 60.1202L32.6312 60.2438Z" fill="#7172D0"/>
<path d="M22.0004 65.8323C17.4464 73.3116 20.7356 76.6998 20.7356 76.6998C22.0744 77.6531 23.6853 78.1488 25.3285 78.1129V91.397C16.9659 92.4144 12.2918 93.7252 12.2918 93.7252C6.3675 94.3152 0.404329 94.4097 -5.53566 94.0078L-5.58865 80.9358L-6.03027 70.0648C-6.03027 70.0648 -4.53229 54.9048 -1.53985 50.2801C1.45258 45.6555 5.62856 45.8003 5.62856 45.8003L5.9324 45.8957L5.59676 47.3584C5.59676 47.3584 8.5468 52.3681 15.8424 50.6758L16.1957 48.9906C16.4519 49.0135 16.7097 49.0135 16.9659 48.9906C18.266 48.8775 20.8698 49.5594 21.5199 50.0787C21.799 50.3049 23.8905 52.089 26.187 54.0498C24.9752 58.7133 23.1451 64.6488 23.1451 64.6488L22.0004 65.8323Z" fill="#81BFC4"/>
<path d="M32.6312 60.2438L31.8328 61.0882C31.8328 60.3816 31.8328 59.6503 31.8328 58.9189L32.6135 59.5902L32.6771 60.1202L32.6312 60.2438Z" fill="#7172D0"/>
<path d="M22.0004 65.8333C17.4464 73.3126 20.7356 76.7007 20.7356 76.7007C22.0744 77.6541 23.6853 78.1498 25.3285 78.1139L24.7491 93.659C16.3865 94.6765 12.2918 95.4255 12.2918 95.4255C6.35582 96.1397 0.366162 96.2982 -5.59925 95.899V80.9227L-6.03027 70.0658C-6.03027 70.0658 -4.53229 54.9058 -1.53985 50.2811C1.45258 45.6564 5.62856 45.8013 5.62856 45.8013L5.9324 45.8967L5.59677 47.3593C5.59677 47.3593 8.54681 52.3691 15.8424 50.6768L16.1957 48.9916C16.4519 49.0145 16.7097 49.0145 16.9659 48.9916C18.266 48.8785 20.8698 49.5604 21.5199 50.0797C21.799 50.3058 23.8905 52.09 26.187 54.0508C24.9752 58.7143 23.1451 64.6497 23.1451 64.6497L22.0004 65.8333Z" fill="white"/>
<path d="M17.4889 76.6826L13.1751 75.1563C9.6209 73.8527 4.5864 70.892 2.48428 66.5995C0.382154 62.3069 2.13098 59.0672 2.13098 55.8698C2.17555 53.7333 2.50588 51.6123 3.11315 49.5634L6.74152 49.1395L2.75985 46.4368C1.48798 46.4085 0.0783156 49.03 -1.54686 50.2877C-6.03728 53.75 -8.96612 66.5995 -8.96612 66.5995L-10.7326 80.7914L-12.6016 98.4563C-4.10121 99.0216 10.3628 95.63 12.306 95.4356C12.306 95.4356 12.0516 87.331 11.7548 85.9743C11.4581 84.6177 10.8645 82.9254 11.0482 80.6077C11.2319 78.2901 17.4889 76.6826 17.4889 76.6826Z" fill="#CEDCEA"/>
<path d="M21.4812 50.0889C21.4812 50.0889 24.9047 57.01 23.6399 62.7652L26.2472 67.2415L33.0305 60.0024C33.0305 60.0024 23.336 50.8273 21.4812 50.0889Z" fill="#CEDCEA"/>
<path d="M6.88989 76.7103C6.88989 76.7103 22.3467 77.9221 23.5726 77.9221C24.7986 77.9221 19.5062 73.6825 19.5062 73.6825L6.92522 73.0996L6.88989 76.7103Z" fill="#3598A1"/>
<g style="mix-blend-mode:multiply" opacity="0.6">
<g style="mix-blend-mode:multiply" opacity="0.6">
<path d="M7.47991 66.0794C7.89327 67.8459 7.55057 69.6124 7.20434 71.3789C6.85811 73.1453 6.49774 74.8447 6.81571 76.5829C6.98176 77.5156 7.16901 78.4413 7.31739 79.374C7.46578 80.3067 7.5753 81.2111 7.67069 82.1332C7.85087 84.0516 7.87207 85.9771 7.88267 87.9026C7.89327 89.8281 7.92153 91.7182 8.33842 93.5765C8.38789 93.8062 8.44441 94.0358 8.508 94.2619C8.51214 94.2721 8.51979 94.2805 8.52956 94.2855C8.53934 94.2906 8.5506 94.2919 8.56129 94.2894C8.57198 94.2868 8.5814 94.2805 8.58783 94.2716C8.59426 94.2626 8.59727 94.2517 8.59633 94.2408C8.07698 92.3859 7.99572 90.4499 7.97453 88.535C7.95333 86.6201 7.97453 84.6487 7.80848 82.7056C7.65233 80.8712 7.3964 79.0466 7.04182 77.2401C6.94157 76.7793 6.86609 76.3134 6.81571 75.8445C6.78392 75.4094 6.78392 74.9725 6.81571 74.5373C6.88795 73.6382 7.01895 72.7449 7.20787 71.8629C7.5435 70.1741 7.94273 68.4394 7.70249 66.7118C7.67069 66.4892 7.6283 66.2702 7.57884 66.0547C7.57352 66.0462 7.56559 66.0397 7.55626 66.0362C7.54693 66.0326 7.53669 66.0322 7.52711 66.035C7.51753 66.0378 7.50912 66.0437 7.50315 66.0517C7.49719 66.0597 7.49399 66.0694 7.49404 66.0794H7.47991Z" fill="#CEDCEA"/>
</g>
</g>
<path d="M23.5479 28.8066C24.1556 29.1988 25.1696 30.3329 24.0496 33.2547C24.0496 33.2547 23.2512 30.8204 22.7283 29.6122C23.0344 29.3794 23.3098 29.1087 23.5479 28.8066V28.8066Z" fill="#2C2D53"/>
<path d="M6.09499 33.2548C6.09499 33.2548 2.72452 22.9597 13.2669 21.2426C23.8094 19.5256 27.1728 27.39 21.9015 30.121C19.1915 30.6825 16.4257 30.9291 13.6591 30.8559C9.60677 30.6686 6.82632 32.1348 6.09499 33.2548Z" fill="#2C2D53"/>
<path d="M7.19375 34.4988C8.92491 34.8521 9.21815 36.7705 9.21815 36.7705L11.0694 33.2552L11.3026 30.941C12.0847 30.8509 12.8729 30.826 13.6591 30.8669C16.4257 30.9401 19.1915 30.6935 21.9016 30.132C22.2256 29.9665 22.5321 29.7688 22.8166 29.542C23.3748 31.0329 24.5584 34.3574 24.357 35.2583C24.0991 36.4278 22.0499 42.5292 20.9265 43.9424C20.0185 45.0871 18.7607 47.0302 18.312 47.7298C18.261 47.811 18.1908 47.8786 18.1077 47.9266C18.0246 47.9747 17.931 48.0017 17.8351 48.0053C17.0614 48.0407 15.0829 48.1113 14.5353 48.0053C13.9877 47.8993 10.8645 45.0094 9.39127 43.6386C9.15171 43.4161 8.96061 43.1466 8.82992 42.8469C8.69922 42.5472 8.63173 42.2238 8.63168 41.8968V39.8548C8.63168 39.8548 7.10543 40.2434 6.15859 38.4416C5.21175 36.6397 5.46259 34.1313 7.19375 34.4988Z" fill="#C9887E"/>
<path d="M13.44 30.8563C13.3835 31.8526 13.3411 33.4247 13.5106 33.6826C13.5106 33.6826 11.9985 33.778 11.6558 34.5094C11.3131 35.2407 10.8256 38.4168 10.8256 38.4168H9.41238C9.41238 38.4168 8.88243 35.6364 7.94619 35.0004C7.19366 34.4846 6.45527 34.3327 6.25742 34.626C6.11257 34.845 6.09137 33.9194 6.19736 33.0997C7.04174 32.0363 9.67382 30.7291 13.44 30.8563Z" fill="#C9887E"/>
<path d="M13.44 30.8563C13.3835 31.8526 13.3411 33.4247 13.5106 33.6826C13.5106 33.6826 11.9985 33.778 11.6558 34.5094C11.3131 35.2407 10.8256 38.4168 10.8256 38.4168H9.41238C9.41238 38.4168 8.88243 35.6364 7.94619 35.0004C7.19366 34.4846 6.45527 34.3327 6.25742 34.626C6.11257 34.845 6.09137 33.9194 6.19736 33.0997C7.04174 32.0363 9.67382 30.7291 13.44 30.8563Z" fill="url(#paint2_linear_11335_17750)"/>
<path d="M7.35984 39.6699C7.75379 39.8641 8.2002 39.9248 8.63171 39.843V41.8851C8.63177 42.212 8.69925 42.5355 8.82995 42.8352C8.96065 43.1348 9.15174 43.4044 9.3913 43.6269C10.8646 44.9977 14.016 47.8664 14.5353 47.9936C15.1359 48.0593 15.7406 48.0794 16.3442 48.0537L15.8213 50.6752C8.53279 52.3675 5.57568 47.3577 5.57568 47.3577L7.35984 39.6699Z" fill="#C9887E"/>
<path d="M31.6314 67.722C31.7798 66.4571 31.8292 63.9205 31.8328 61.087L32.6312 60.2426C32.6312 60.2426 35.8109 49.9016 36.5705 45.7998H41.2022C41.3082 50.057 41.5096 60.285 41.1528 63.3022C40.697 67.139 38.8775 72.4102 38.0296 72.9932C37.1817 73.5761 33.5781 74.4064 30.6104 72.5162C31.0764 70.9475 31.4178 69.3444 31.6314 67.722V67.722Z" fill="#C9887E"/>
<g style="mix-blend-mode:multiply" opacity="0.4">
<path d="M32.0943 72.1346C32.0943 72.1346 34.4614 68.2943 35.1397 66.5985C35.705 65.1853 37.6128 50.6047 38.2488 45.7998H36.5706C35.8145 49.9016 32.6313 60.2426 32.6313 60.2426L31.8329 61.087C31.8329 63.9134 31.7799 66.4571 31.6315 67.722C31.4168 69.3445 31.0742 70.9476 30.6069 72.5162C30.9942 72.761 31.4035 72.9691 31.8293 73.138C31.8994 72.799 31.9878 72.464 32.0943 72.1346Z" fill="#C9887E"/>
</g>
<path d="M37.9272 69.9342L43.5164 68.0229V53.8203L37.9272 54.7919V69.9342Z" fill="#025057"/>
<path d="M38.4357 44.6528C38.6477 45.4513 39.1178 46.1573 39.7728 46.6608C40.4278 47.1644 41.2309 47.4372 42.057 47.4368H47.0986V32.7891H40.8664C40.3827 32.7899 39.9128 32.9503 39.5295 33.2454C39.1462 33.5405 38.8711 33.9539 38.7466 34.4213L38.4393 35.5731C37.6432 38.5471 37.642 41.6781 38.4357 44.6528V44.6528Z" fill="#025057"/>
<path d="M43.9297 33.9085C44.3525 33.5167 44.8515 33.216 45.3954 33.0252C45.9394 32.8343 46.5168 32.7574 47.0917 32.7991L63.407 33.9968C64.2452 34.0592 65.0289 34.4361 65.6009 35.052C66.1729 35.6679 66.491 36.4773 66.4913 37.3178V43.4581C66.4921 44.0969 66.2534 44.7129 65.8224 45.1844C65.3914 45.6559 64.7994 45.9488 64.1631 46.0054L58.694 46.4965C58.2403 46.5379 57.7872 46.4105 57.4215 46.1386C57.0558 45.8668 56.8032 45.4697 56.712 45.0232L56.5354 44.1541C56.5111 44.0391 56.4479 43.936 56.3566 43.862C56.2652 43.788 56.1512 43.7477 56.0337 43.7478H55.91C55.799 43.7481 55.6911 43.7844 55.6026 43.8513C55.514 43.9182 55.4496 44.0121 55.419 44.1188L54.9915 45.6203C54.8893 45.9815 54.6799 46.3033 54.391 46.543C54.1021 46.7827 53.7473 46.9291 53.3734 46.9628L48.4766 47.4009C47.7299 47.4681 46.9773 47.3791 46.2669 47.1394C45.5565 46.8997 44.9037 46.5147 44.3503 46.0088C43.7969 45.5029 43.355 44.8873 43.0526 44.2012C42.7503 43.5151 42.5942 42.7735 42.5942 42.0237V36.9786C42.5938 36.4026 42.7122 35.8326 42.942 35.3044C43.1718 34.7761 43.508 34.3009 43.9297 33.9085V33.9085Z" fill="#3598A1"/>
<path d="M48.5932 35.6494H51.1334C48.9041 35.6494 47.0988 37.7233 47.0988 40.2776C47.0988 42.832 48.9041 44.9129 51.1334 44.9129H48.5932C46.3604 44.9129 44.5515 42.839 44.5515 40.2776C44.5515 37.7162 46.3604 35.6494 48.5932 35.6494Z" fill="#025057"/>
<path d="M47.0989 40.2815C47.0989 42.8394 48.9042 44.9097 51.1335 44.9097C53.3628 44.9097 55.1717 42.8394 55.1717 40.2815C55.1717 37.7236 53.3628 35.6533 51.1335 35.6533C48.9042 35.6533 47.0989 37.7272 47.0989 40.2815Z" fill="#81BFC4"/>
<path d="M47.6711 40.2821C47.6711 42.4867 49.2292 44.2708 51.1476 44.2708C53.066 44.2708 54.624 42.4867 54.624 40.2821C54.624 38.0775 53.0695 36.2969 51.1476 36.2969C49.2257 36.2969 47.6711 38.081 47.6711 40.2821Z" fill="#025057"/>
<path d="M61.3791 36.0811H63.3293C61.3084 36.0811 59.6726 37.9606 59.6726 40.2782C59.6726 42.5959 61.3084 44.4754 63.3293 44.4754H61.3791C59.3546 44.4754 57.7153 42.5959 57.7153 40.2747C57.7153 37.9535 59.3546 36.0811 61.3791 36.0811Z" fill="#025057"/>
<path d="M59.6831 40.2818C59.6831 42.5994 61.3189 44.4789 63.3397 44.4789C65.3606 44.4789 66.9999 42.5994 66.9999 40.2818C66.9999 37.9641 65.3535 36.0811 63.3291 36.0811C61.3047 36.0811 59.6831 37.9641 59.6831 40.2818Z" fill="#81BFC4"/>
<path d="M60.1179 40.2819C60.1179 42.3169 61.5558 43.9668 63.3294 43.9668C65.103 43.9668 66.5444 42.3169 66.5444 40.2819C66.5444 38.247 65.1065 36.6006 63.3294 36.6006C61.5523 36.6006 60.1179 38.2505 60.1179 40.2819Z" fill="#025057"/>
<path d="M55.91 43.7481H56.0337C56.1512 43.748 56.2652 43.7883 56.3566 43.8623C56.4479 43.9362 56.511 44.0394 56.5354 44.1544L56.712 45.0235C56.7793 45.3568 56.9372 45.6652 57.1685 45.9145C57.3998 46.1639 57.6954 46.3446 58.0227 46.4367V46.4367L54.9915 45.6206L55.4189 44.1049C55.4516 44.0006 55.517 43.9095 55.6054 43.8452C55.6939 43.781 55.8007 43.7469 55.91 43.7481V43.7481Z" fill="#026770"/>
<path d="M39.093 33.6895C38.93 33.9086 38.8101 34.1568 38.7397 34.4208L38.4323 35.5725C37.6374 38.5469 37.6374 41.6779 38.4323 44.6523C38.6123 45.3291 38.9797 45.9414 39.4922 46.4188L18.7006 42.4654C18.144 42.3593 17.6419 42.0623 17.2807 41.6257C16.9196 41.1891 16.722 40.6402 16.7222 40.0735V37.8902C16.7215 37.2805 16.9494 36.6928 17.3608 36.2428C17.7721 35.7929 18.3372 35.5134 18.9444 35.4595L39.093 33.6895Z" fill="#026770"/>
<path d="M37.9519 38.1615C37.8836 38.7728 37.8471 39.3871 37.8424 40.0022L16.6445 38.0167C16.6064 38.0125 16.5695 38.0007 16.5361 37.9819C16.5027 37.963 16.4735 37.9376 16.4502 37.9071C16.4269 37.8768 16.4102 37.842 16.401 37.8049C16.3919 37.7678 16.3906 37.7293 16.3972 37.6916C16.4181 37.5885 16.4752 37.4963 16.5581 37.4315C16.641 37.3667 16.7443 37.3337 16.8494 37.3383L37.9519 38.1615Z" fill="#025057"/>
<path d="M53.3734 46.977C53.8192 46.9351 54.2346 46.733 54.5428 46.4082V52.3012H51.5999V47.136L53.3734 46.977Z" fill="#3598A1"/>
<path d="M51.0133 52.3008H53.9562L33.0304 56.4838H28.9392L51.0133 52.3008Z" fill="white" stroke="#025057" stroke-width="0.356814" stroke-miterlimit="10"/>
<path d="M53.3735 46.9767C53.5748 46.9563 53.7716 46.9039 53.9564 46.8213V52.3009H51.0134V47.1887L53.3735 46.9767Z" fill="#3598A1"/>
<path d="M33.6135 55.2122L54.5429 51.0186V52.301L33.6135 56.4841V55.2122Z" fill="#3598A1"/>
<path d="M29.5222 55.0778L50.9392 51.1562H54.3026L33.0305 56.484L29.5222 55.0778Z" fill="#3598A1"/>
<path d="M29.5222 39.2256L33.6134 39.6142V56.4842H29.5222V39.2256Z" fill="#3598A1"/>
<path d="M28.9392 39.2256L33.0304 39.6142V56.4842H28.9392V39.2256Z" fill="#025057"/>
<path d="M43.4597 65.8779L47.8441 67.436L42.7708 69.1742L35.8956 71.672H32.5181L37.9271 65.8779" fill="#025057"/>
<path d="M46.311 65.041L51.1476 66.5991L45.6185 68.3373L35.8958 71.6724L40.7218 66.7545" fill="#3598A1"/>
<path d="M40.7217 69.9342L46.3108 68.0229V53.8203L40.7217 54.7919V69.9342Z" fill="#3598A1"/>
<path d="M35.8958 75.1555L50.6919 69.584V66.5986L35.8958 71.672V75.1555Z" fill="#3598A1"/>
<path d="M51.1441 66.5986H50.6919V69.5416H51.1441V66.5986Z" fill="#3598A1"/>
<path d="M36.4927 75.1555L51.1475 69.5416V66.5986L36.4927 71.672V75.1555Z" fill="#3598A1"/>
<path d="M36.4928 71.0469H35.8958V75.1592H36.4928V71.0469Z" fill="#025057"/>
<path d="M5.98199 45.6201L5.58277 47.3513C5.99088 47.9734 6.49395 48.5277 7.07368 48.9941C3.17681 46.5175 5.98199 45.6201 5.98199 45.6201Z" fill="#02737D"/>
<path d="M51.6386 36.4941C53.0518 37.01 54.0516 38.5079 54.0516 40.2815C54.0511 40.5781 54.0215 40.8739 53.9633 41.1647H52.1015L50.5222 38.4302L51.6386 36.4941Z" fill="#02737D"/>
<path d="M47.6711 40.6953H48.8618L49.9994 42.6173L49.3705 43.7301C48.8797 43.3822 48.4726 42.9293 48.1787 42.4043C47.8847 41.8794 47.7114 41.2956 47.6711 40.6953V40.6953Z" fill="#02737D"/>
<path d="M60.2556 41.3377L61.1989 41.1787L62.6121 42.9028L62.2871 43.7649C61.7818 43.548 61.3346 43.2153 60.9817 42.7937C60.6288 42.372 60.3801 41.8733 60.2556 41.3377V41.3377Z" fill="#02737D"/>
<path d="M53.444 40.2821C53.444 38.3107 52.1934 36.6749 50.5505 36.3569C50.7423 36.3174 50.9376 36.2973 51.1335 36.2969C53.0554 36.2969 54.6099 38.0634 54.6099 40.2821C54.6099 42.5008 53.0554 44.2708 51.1335 44.2708C50.9377 44.2687 50.7426 44.2486 50.5505 44.2107C52.1934 43.8892 53.444 42.257 53.444 40.2821Z" fill="#025057"/>
<path d="M64.1523 36.8193C64.8105 37.1273 65.3628 37.623 65.74 38.2441C66.1172 38.8652 66.3023 39.5839 66.2721 40.3099C66.2681 40.547 66.2445 40.7833 66.2015 41.0165H64.5092L63.1172 38.6035L64.1523 36.8193Z" fill="#02737D"/>
<path d="M65.6646 40.32C65.6823 38.4475 64.474 36.893 62.8983 36.6492C63.0406 36.6239 63.1848 36.6109 63.3293 36.6104C65.0958 36.6104 66.5443 38.2603 66.5443 40.2917C66.5443 42.3232 65.1064 43.9766 63.3293 43.9766C63.1814 43.9743 63.0338 43.9614 62.8877 43.9378C64.4422 43.6798 65.6505 42.1607 65.6646 40.32Z" fill="#025057"/>
<g style="mix-blend-mode:multiply" opacity="0.4">
<path d="M7.19375 34.4986C8.92491 34.8519 9.21462 36.7703 9.21462 36.7703L11.0694 33.255L11.3026 30.9409C12.0847 30.8507 12.8729 30.8259 13.6591 30.8667C14.1043 30.8879 14.553 30.895 14.9981 30.8914C14.9981 30.9374 14.9804 30.9833 14.9698 31.0328C14.5643 31.6934 14.3497 32.4534 14.3497 33.2285C14.3497 34.0036 14.5643 34.7636 14.9698 35.4242C16.383 37.6924 14.6554 39.6638 14.6554 39.6638L13.5107 41.1724V46.8817L13.2281 47.0513C12.0339 46.0585 10.3558 44.5181 9.39127 43.6208C9.15171 43.3983 8.96061 43.1287 8.82992 42.829C8.69922 42.5294 8.63173 42.2059 8.63168 41.879V39.8369C8.63168 39.8369 7.10543 40.2256 6.15859 38.4237C5.21175 36.6219 5.46259 34.1312 7.19375 34.4986Z" fill="#C9887E"/>
</g>
<g style="mix-blend-mode:multiply" opacity="0.6">
<path d="M8.63173 39.843V41.8851C8.63179 42.212 8.69928 42.5355 8.82997 42.8352C8.96067 43.1348 9.15176 43.4044 9.39132 43.6269C10.642 44.7892 13.0974 47.0397 14.1291 47.7604C13.4225 48.0078 12.5957 48.4105 12.2954 49.0217C12.0076 49.6442 11.7517 50.281 11.5288 50.9295C10.3408 50.7909 9.19596 50.4006 8.17066 49.7847C7.14536 49.1688 6.26312 48.3414 5.58276 47.3577L7.34926 39.6699C7.74629 39.8664 8.19682 39.9272 8.63173 39.843V39.843Z" fill="#C9887E"/>
</g>
<g style="mix-blend-mode:multiply" opacity="0.4">
<path d="M10.0554 23.7332C17.1567 20.5889 15.0016 30.5236 15.0016 30.5236L14.8497 30.8769C14.454 30.8769 14.0583 30.8769 13.6626 30.8522C9.61027 30.6543 6.82981 32.1205 6.09848 33.2405C5.56252 31.4112 5.45373 29.4833 5.78051 27.6054C6.77945 25.9107 8.27047 24.5601 10.0554 23.7332V23.7332Z" fill="#C9887E"/>
</g>
<path d="M14.1289 50.6233L14.5387 52.2874L16.1498 51.708L15.8212 49.7295L14.1289 50.6233Z" fill="#C9887E"/>
<path d="M6.28221 44.5596L3.10254 45.404C3.86351 46.1369 4.69149 46.7969 5.57562 47.3754C5.86808 46.452 6.10405 45.5116 6.28221 44.5596Z" fill="black"/>
<path d="M14.5388 52.2872L14.4187 51.6583C14.507 51.1178 14.4576 50.5066 13.7121 50.6408H13.5708V51.0895C13.5708 51.0895 13.7651 52.4674 13.8746 52.9337C13.9347 53.1917 16.595 59.6817 16.701 60.2152C17.503 60.3707 19.0681 61.9817 19.8807 62.1266L16.1251 51.7219L14.5388 52.2872Z" fill="#02737D"/>
<path d="M16.3442 48.0508L18.3085 48.4429L17.3263 50.6228L16.1499 51.7074L15.8213 50.6758L16.3442 48.0508Z" fill="black"/>
<path d="M19.9055 51.1567L18.3086 48.4434L17.3264 50.6232L18.3086 50.7963L19.9055 51.1567Z" fill="#02737D"/>
<g style="mix-blend-mode:multiply" opacity="0.4">
<path d="M13.1751 75.1562C11.7638 74.6307 10.4038 73.9767 9.11213 73.2024L6.92522 73.1035L6.88989 76.7248C6.88989 76.7248 11.1295 77.0569 15.3231 77.3714C16.5137 76.9333 17.4888 76.6824 17.4888 76.6824L13.1751 75.1562Z" fill="#3598A1"/>
</g>
<g style="mix-blend-mode:multiply">
<g style="mix-blend-mode:multiply">
<path d="M6.66369 72.8242C4.93607 71.7183 3.48402 70.1568 1.59387 69.3265C1.12298 69.1144 0.620546 68.9807 0.106487 68.9308C0.10063 68.9303 0.0947353 68.931 0.0891767 68.933C0.083618 68.9349 0.0785197 68.9379 0.0742008 68.9419C0.0698818 68.9459 0.0664355 68.9507 0.0640875 68.9561C0.0617394 68.9615 0.0605414 68.9673 0.0605618 68.9732C0.0589933 69.4339 0.180997 69.8865 0.41386 70.2839C0.647666 70.6594 0.951051 70.9868 1.3077 71.2485C2.05669 71.8314 2.92934 72.2271 3.72073 72.75C4.15386 73.0168 4.53363 73.3618 4.84068 73.7675C4.87248 73.8134 4.9502 73.7675 4.91841 73.7215C4.39906 72.9902 3.57587 72.538 2.81628 72.0999C2.05669 71.6618 1.15932 71.1884 0.618773 70.4359C0.313416 70.0095 0.15023 69.4977 0.152417 68.9732L0.110023 69.0191C1.07689 69.1486 1.99744 69.5125 2.79155 70.079C3.67126 70.6443 4.48385 71.312 5.31057 71.9515C5.73806 72.2801 6.16908 72.6051 6.62483 72.8948C6.67076 72.9266 6.71669 72.8489 6.66723 72.8206L6.66369 72.8242Z" fill="#DBE7EF"/>
</g>
</g>
<path d="M23.6751 62.2987C24.4981 60.9017 25.1527 59.4122 25.6253 57.8612L25.4558 57.8365C25.6074 59.2663 25.5021 60.7117 25.1449 62.1044C25.0387 62.5077 24.9077 62.9042 24.7527 63.2914C24.7138 63.3939 24.8799 63.4398 24.9187 63.3374C25.4518 61.97 25.7146 60.5122 25.6925 59.0448C25.6925 58.642 25.6677 58.2393 25.6289 57.8365C25.6263 57.8171 25.6174 57.7992 25.6035 57.7854C25.5897 57.7717 25.5716 57.7629 25.5523 57.7604C25.5329 57.758 25.5132 57.7621 25.4964 57.772C25.4796 57.782 25.4665 57.7972 25.4593 57.8153C24.9906 59.3559 24.3419 60.8358 23.5267 62.2245C23.4667 62.3199 23.6151 62.4047 23.6751 62.3128V62.2987Z" fill="#DBE7EF"/>
<g style="mix-blend-mode:multiply">
<g style="mix-blend-mode:multiply">
<path d="M2.36414 57.3809C3.04174 58.5327 3.54646 59.7778 3.86212 61.0764C3.95398 61.4297 4.03877 61.783 4.12003 62.1363L4.19422 62.0939C3.44011 61.2497 2.73247 60.3652 2.07444 59.4442C2.03911 59.3982 1.97551 59.4618 2.01084 59.5042C2.66799 60.4259 3.37567 61.3105 4.13062 62.1539C4.13625 62.1638 4.14555 62.171 4.15648 62.174C4.16741 62.1769 4.17908 62.1755 4.18892 62.1698C4.19876 62.1642 4.20596 62.1549 4.20894 62.144C4.21192 62.1331 4.21044 62.1214 4.20482 62.1115C3.93741 60.8122 3.52623 59.5467 2.97888 58.3383C2.81734 57.9994 2.63809 57.6692 2.44186 57.3491C2.41007 57.3032 2.33587 57.3491 2.36414 57.395V57.3809Z" fill="#DBE7EF"/>
</g>
</g>
<path d="M-7.91675 85.6598H-3.0589L57.0194 65.0908H54.2779L-7.91675 85.6598Z" fill="white"/>
<path d="M-3.27808 85.6386L57.0193 65.0166V67.9313L-3.27808 90.818V85.6386Z" fill="#EEF5FB"/>
<path d="M41.9583 74.804L40.7854 75.2562V74.1822L41.9619 73.6699L41.9583 74.804Z" fill="#BBCDE0"/>
<path d="M56.1116 68.278L57.1184 67.9141V68.9598L56.1116 69.3485V68.278Z" fill="#BBCDE0"/>
<path d="M52.6103 70.6984L51.6741 71.0587V70.0059L52.6103 69.5996V70.6984Z" fill="#BBCDE0"/>
<path d="M47.6571 72.6054L46.6326 73.0011V71.9659L47.6606 71.5137L47.6571 72.6054Z" fill="#BBCDE0"/>
<path d="M35.4896 77.298L34.1294 77.8209V76.6868L35.4967 76.1074L35.4896 77.298Z" fill="#BBCDE0"/>
<path d="M4.48755 95.436V87.8719L7.51178 86.7236V95.2982C6.61087 95.3476 5.59691 95.3936 4.48755 95.436Z" fill="#BBCDE0"/>
<path d="M7.51172 95.2975V86.7654L9.72336 85.8574L9.69509 95.1527C9.07682 95.1986 8.3455 95.2516 7.51172 95.2975Z" fill="white"/>
<path d="M56.1116 91.5497V68.2674L57.1184 67.9141V91.6133L56.1116 91.5497Z" fill="white"/>
<path d="M51.6741 91.3868V69.9981L52.6103 69.5918L52.575 91.408L51.6741 91.3868Z" fill="white"/>
<path d="M44.6152 91.3231V72.6407L46.6326 71.874V91.3054C45.9507 91.3125 45.2794 91.316 44.6152 91.3231Z" fill="#BBCDE0"/>
<path d="M49.6567 91.3416V70.7266L51.6741 69.96V91.3875L49.6567 91.3416Z" fill="#BBCDE0"/>
<path d="M54.2954 91.4794V68.9672L56.1114 68.2783V91.5501C55.5002 91.5289 54.896 91.5006 54.2954 91.4794Z" fill="#BBCDE0"/>
<path d="M46.6326 91.3135V71.9704L47.6607 71.5146L47.6006 91.3205L46.6326 91.3135Z" fill="white"/>
<path d="M38.5667 91.4783V74.944L40.7854 74.0996V91.4112C40.0328 91.4182 39.2909 91.4465 38.5667 91.4783Z" fill="#BBCDE0"/>
<path d="M40.7854 91.3984V74.1822L41.9619 73.6699L41.8877 91.3701L40.7854 91.3984Z" fill="white"/>
<path d="M31.5078 91.9028V77.6154L34.1293 76.6191V91.7191C33.2319 91.7792 32.3557 91.8463 31.5078 91.9028Z" fill="#BBCDE0"/>
<path d="M34.1292 91.7187V76.6858L35.4929 76.1064L35.4399 91.6516L34.1292 91.7187Z" fill="white"/>
<path d="M15.1677 94.1992V83.8158L17.9941 82.7559V93.6692C16.9342 93.8459 15.9732 94.0225 15.1677 94.1992Z" fill="#BBCDE0"/>
<path d="M17.9941 93.6698V82.8235L19.8348 82.0498L19.7924 93.3553C19.16 93.4472 18.5594 93.5497 17.9941 93.6698Z" fill="white"/>
<path d="M24.2476 92.6867V80.3707L26.6677 79.4521V92.3935C25.8303 92.4889 25.0213 92.5878 24.2476 92.6867Z" fill="#BBCDE0"/>
<path d="M26.6675 92.3946V79.4851L28.2679 78.8174L28.2397 92.2215L26.6675 92.3946Z" fill="white"/>
<path d="M28.2679 80.0812L26.6675 80.696V79.4841L28.2679 78.8164V80.0812Z" fill="#BBCDE0"/>
<path d="M19.835 83.3313L17.9978 84.0379V82.8226L19.8385 82.0488L19.835 83.3313Z" fill="#BBCDE0"/>
<path d="M7.51172 86.7654L9.72336 85.8574L9.71983 87.2282L7.51172 88.0797V86.7654Z" fill="#BBCDE0"/>
<path d="M43.4597 65.8779L47.8441 67.436L42.7708 69.1742L35.8956 71.672H32.5181L37.9271 65.8779" fill="#025057"/>
<path d="M46.3107 65.041L51.1474 66.5991L45.6183 68.3373L35.8955 71.6724L40.7215 66.7545" fill="#3598A1"/>
<path d="M40.7217 69.9342L46.3108 68.0229V53.8203L40.7217 54.7919V69.9342Z" fill="#3598A1"/>
<path d="M35.8955 75.1555L50.6916 69.584V66.5986L35.8955 71.672V75.1555Z" fill="#3598A1"/>
<path d="M51.1441 66.5986H50.6919V69.5416H51.1441V66.5986Z" fill="#3598A1"/>
<path d="M36.4927 75.1555L51.1475 69.5416V66.5986L36.4927 71.672V75.1555Z" fill="#3598A1"/>
<path d="M2.94703 56.1134C5.69216 51.8739 10.9634 55.0076 10.9634 55.0076C12.0939 55.4634 23.1062 64.3099 23.1062 64.3099L22.0004 65.4794C17.4464 72.9587 20.7356 76.3468 20.7356 76.3468C21.1194 76.6231 21.5301 76.8598 21.9615 77.0534H20.7356C11.7265 75.4918 5.47665 70.5457 3.65363 68.2704C1.83061 65.9952 0.205439 60.3424 2.94703 56.1134Z" fill="#EEF5FB"/>
<path d="M19.7958 70.7324C19.7675 70.7324 22.018 65.4576 22.0004 65.4788C15.8848 73.4846 2.12735 58.7132 2.12735 58.7132L2.53011 56.8301C0.389127 60.9637 1.93304 66.1289 3.6536 68.2805C5.47662 70.5557 10.5712 76.106 20.7356 77.0635H21.9615C21.5301 76.8699 21.1193 76.6331 20.7356 76.3569C20.7356 76.3569 19.0079 74.5621 19.7958 70.7324Z" fill="#CEDCEA"/>
<path d="M20.6403 62.3417L20.0397 61.8648L19.9054 61.7588C17.188 66.0268 15.5164 70.876 15.0264 75.9119C15.3797 76.0462 15.7612 76.1733 16.1393 76.297C16.3866 70.9269 20.8876 62.5431 20.8911 62.5396L20.6403 62.3417Z" fill="#3598A1"/>
<path d="M31.6314 47.9804C31.6314 47.9804 32.0872 63.5255 31.6314 67.3694C31.1757 71.2132 29.3527 76.4774 28.5083 77.0639C27.6639 77.6503 23.7635 78.5583 20.7357 76.3573C20.7357 76.3573 17.4465 72.9691 22.0005 65.4898L23.1064 64.3204C23.1064 64.3204 27.141 51.213 27.2046 48.6587C27.2046 48.6587 27.4025 47.9698 26.7524 46.9735C26.1023 45.9772 24.1486 41.2253 23.9543 40.8331C23.76 40.441 23.3254 38.7875 23.6398 38.088C23.9543 37.3885 25.0813 35.5761 25.636 34.6716C25.726 34.5141 25.849 34.3779 25.9966 34.2724C26.1441 34.1669 26.3128 34.0946 26.4909 34.0604C26.8373 33.9915 27.1958 34.0159 27.5296 34.1311L29.3527 32.6508C29.4476 32.5751 29.5573 32.5201 29.6747 32.489C29.792 32.458 29.9146 32.4517 30.0345 32.4706C30.3136 32.5165 30.6245 32.6296 30.5892 32.9122C30.5892 32.9122 31.7622 32.8309 31.4336 33.4845L30.727 34.2971C30.727 34.2971 31.6385 34.1982 31.1156 35.0461C30.5927 35.894 29.9462 37.1271 29.9462 37.1271C29.7196 37.5371 29.5451 37.9739 29.4269 38.4272C29.3597 38.8829 29.554 40.4445 29.9462 40.9639C30.3384 41.4832 31.8399 42.9176 31.8399 42.9176C31.8399 42.9176 32.5394 44.4015 31.6314 47.9804Z" fill="#C9887E"/>
<g style="mix-blend-mode:multiply" opacity="0.4">
<path d="M27.6604 38.2564C27.6604 38.2564 28.526 35.9529 29.1619 35.476C29.7978 34.999 30.7906 34.2041 30.7906 34.2041" stroke="#C9887E" stroke-width="0.356814" stroke-miterlimit="10"/>
</g>
<g style="mix-blend-mode:multiply" opacity="0.4">
<path d="M26.2471 38.1337C26.2471 38.1337 27.148 35.756 27.3458 35.6218C27.5437 35.4875 29.395 34.0143 29.395 34.0143L30.5891 32.9014" stroke="#C9887E" stroke-width="0.356814" stroke-miterlimit="10"/>
</g>
<g style="mix-blend-mode:multiply" opacity="0.4">
<path d="M25.332 37.4417L26.2471 35.1735L29.5116 32.499" stroke="#C9887E" stroke-width="0.356814" stroke-miterlimit="10"/>
</g>
<g style="mix-blend-mode:multiply" opacity="0.4">
<path d="M23.1064 64.3099C23.1064 64.3099 27.141 51.2025 27.2046 48.6482C27.2046 48.6482 27.4025 47.9593 26.7524 46.963C26.1023 45.9667 24.1486 41.2148 23.9543 40.8226C23.76 40.4305 23.3254 38.777 23.6398 38.0775C23.9543 37.378 25.0813 35.5656 25.636 34.6611C25.7265 34.5041 25.8497 34.3682 25.9972 34.2628C26.1447 34.1574 26.313 34.0848 26.491 34.0499C26.8373 33.981 27.1958 34.0054 27.5297 34.1206L29.3527 32.6438C29.4469 32.5668 29.5564 32.5106 29.6739 32.4789C29.7914 32.4472 29.9143 32.4408 30.0345 32.4601C30.3136 32.506 30.6245 32.6191 30.5892 32.9017C30.5892 32.9017 31.7622 32.8204 31.4336 33.474L30.727 34.2866C30.727 34.2866 31.0803 34.3714 31.1721 34.3785L28.9464 36.9717C27.4272 41.0346 29.123 42.7198 29.9285 46.0832C30.7341 49.4466 26.6923 62.9956 26.6923 62.9956C22.8732 74.983 25.1308 77.7529 25.1308 77.7529C23.5571 77.7471 22.0241 77.2533 20.7428 76.3397C20.7428 76.3397 17.4536 72.9516 22.0076 65.4722L23.1064 64.3099Z" fill="#C9887E"/>
</g>
<g style="mix-blend-mode:multiply" opacity="0.6">
<g style="mix-blend-mode:multiply" opacity="0.6">
<path d="M24 59.706C24.2212 59.0442 24.3716 58.3609 24.4487 57.6675C24.5618 56.9002 24.5618 56.1206 24.4487 55.3534C24.4014 55.0047 24.281 54.67 24.0954 54.3712C24.0915 54.3638 24.0857 54.3576 24.0785 54.3533C24.0714 54.349 24.0631 54.3467 24.0548 54.3467C24.0464 54.3467 24.0382 54.349 24.0311 54.3533C24.0239 54.3576 24.0181 54.3638 24.0142 54.3712C23.7456 55.4805 24.0954 56.6217 24.0989 57.7381C24.097 57.7449 24.0967 57.7521 24.098 57.7591C24.0993 57.7661 24.1022 57.7727 24.1064 57.7784C24.1107 57.7841 24.1163 57.7887 24.1226 57.7918C24.129 57.795 24.136 57.7967 24.1431 57.7967C24.1502 57.7967 24.1572 57.795 24.1636 57.7918C24.17 57.7887 24.1755 57.7841 24.1798 57.7784C24.1841 57.7727 24.187 57.7661 24.1883 57.7591C24.1896 57.7521 24.1892 57.7449 24.1873 57.7381C24.1873 56.6288 23.834 55.4947 24.0989 54.3959H24.0177C24.3957 54.9471 24.4452 55.689 24.4523 56.3355C24.4503 57.1124 24.3662 57.8869 24.2014 58.6461C24.1328 58.99 24.0408 59.3288 23.9258 59.66C23.9046 59.713 23.993 59.7378 24.0106 59.6848L24 59.706Z" fill="#CEDCEA"/>
</g>
</g>
<path d="M2.94703 56.1134C5.69216 51.8739 10.9634 55.0076 10.9634 55.0076C12.0939 55.4634 23.1062 64.3099 23.1062 64.3099L22.0004 65.4794C17.4464 72.9587 20.7356 76.3468 20.7356 76.3468C21.1194 76.6231 21.5301 76.8598 21.9615 77.0534H20.7356C11.7265 75.4918 5.47665 70.5457 3.65363 68.2704C1.83061 65.9952 0.205439 60.3424 2.94703 56.1134Z" fill="#EEF5FB"/>
<path d="M23.1062 64.3096C23.1062 64.3096 12.0939 55.4771 10.9633 55.0073C10.9633 55.0073 7.74126 50.6476 4.84775 49.3545L3.10953 49.5594C2.50225 51.6083 2.17193 53.7292 2.12736 55.8658C2.12736 58.0315 1.33244 60.2184 1.46669 62.7339C2.13089 65.2988 2.97881 67.4328 3.65361 68.2771C5.47663 70.5524 11.7265 75.4985 20.7356 77.0601H21.9615C21.5301 76.8665 21.1194 76.6298 20.7356 76.3535C20.7356 76.3535 17.4464 72.9654 22.0004 65.4861L23.1062 64.3096Z" fill="#EEF5FB"/>
<path d="M19.7959 70.7324C19.7677 70.7324 22.0182 65.4576 22.0005 65.4788C15.8849 73.4846 1.48801 56.8301 1.48801 56.8301C-0.656509 60.9637 1.93317 66.1289 3.65373 68.2805C5.47675 70.5557 10.5713 76.106 20.7357 77.0635H21.9616C21.5302 76.8699 21.1195 76.6331 20.7357 76.3569C20.7357 76.3569 19.0081 74.5621 19.7959 70.7324Z" fill="#CEDCEA"/>
<path d="M20.6403 62.3417L20.0397 61.8648L19.9054 61.7588C17.188 66.0268 15.5164 70.876 15.0264 75.9119C15.3797 76.0462 15.7612 76.1733 16.1393 76.297C16.3866 70.9269 20.8876 62.5431 20.8911 62.5396L20.6403 62.3417Z" fill="#3598A1"/>
<path d="M31.6314 47.9804C31.6314 47.9804 32.0872 63.5255 31.6314 67.3694C31.1757 71.2132 29.3527 76.4774 28.5083 77.0639C27.6639 77.6503 23.7635 78.5583 20.7357 76.3573C20.7357 76.3573 17.4465 72.9691 22.0005 65.4898L23.1064 64.3204C23.1064 64.3204 27.141 51.213 27.2046 48.6587C27.2046 48.6587 27.4025 47.9698 26.7524 46.9735C26.1023 45.9772 24.1486 41.2253 23.9543 40.8331C23.76 40.441 23.3254 38.7875 23.6398 38.088C23.9543 37.3885 25.0813 35.5761 25.636 34.6716C25.726 34.5141 25.849 34.3779 25.9966 34.2724C26.1441 34.1669 26.3128 34.0946 26.4909 34.0604C26.8373 33.9915 27.1958 34.0159 27.5296 34.1311L29.3527 32.6508C29.4476 32.5751 29.5573 32.5201 29.6747 32.489C29.792 32.458 29.9146 32.4517 30.0345 32.4706C30.3136 32.5165 30.6245 32.6296 30.5892 32.9122C30.5892 32.9122 31.7622 32.8309 31.4336 33.4845L30.727 34.2971C30.727 34.2971 31.6385 34.1982 31.1156 35.0461C30.5927 35.894 29.9462 37.1271 29.9462 37.1271C29.7196 37.5371 29.5451 37.9739 29.4269 38.4272C29.3597 38.8829 29.554 40.4445 29.9462 40.9639C30.3384 41.4832 31.8399 42.9176 31.8399 42.9176C31.8399 42.9176 32.5394 44.4015 31.6314 47.9804Z" fill="#C9887E"/>
<g style="mix-blend-mode:multiply" opacity="0.4">
<path d="M27.6604 38.2564C27.6604 38.2564 28.526 35.9529 29.1619 35.476C29.7978 34.999 30.7906 34.2041 30.7906 34.2041" stroke="#C9887E" stroke-width="0.356814" stroke-miterlimit="10"/>
</g>
<g style="mix-blend-mode:multiply" opacity="0.4">
<path d="M26.2471 38.1337C26.2471 38.1337 27.148 35.756 27.3458 35.6218C27.5437 35.4875 29.395 34.0143 29.395 34.0143L30.5891 32.9014" stroke="#C9887E" stroke-width="0.356814" stroke-miterlimit="10"/>
</g>
<g style="mix-blend-mode:multiply" opacity="0.4">
<path d="M25.332 37.4417L26.2471 35.1735L29.5116 32.499" stroke="#C9887E" stroke-width="0.356814" stroke-miterlimit="10"/>
</g>
<g style="mix-blend-mode:multiply" opacity="0.4">
<path d="M23.1064 64.3099C23.1064 64.3099 27.141 51.2025 27.2046 48.6482C27.2046 48.6482 27.4025 47.9593 26.7524 46.963C26.1023 45.9667 24.1486 41.2148 23.9543 40.8226C23.76 40.4305 23.3254 38.777 23.6398 38.0775C23.9543 37.378 25.0813 35.5656 25.636 34.6611C25.7265 34.5041 25.8497 34.3682 25.9972 34.2628C26.1447 34.1574 26.313 34.0848 26.491 34.0499C26.8373 33.981 27.1958 34.0054 27.5297 34.1206L29.3527 32.6438C29.4469 32.5668 29.5564 32.5106 29.6739 32.4789C29.7914 32.4472 29.9143 32.4408 30.0345 32.4601C30.3136 32.506 30.6245 32.6191 30.5892 32.9017C30.5892 32.9017 31.7622 32.8204 31.4336 33.474L30.727 34.2866C30.727 34.2866 31.0803 34.3714 31.1721 34.3785L28.9464 36.9717C27.4272 41.0346 29.123 42.7198 29.9285 46.0832C30.7341 49.4466 26.6923 62.9956 26.6923 62.9956C22.8732 74.983 25.1308 77.7529 25.1308 77.7529C23.5571 77.7471 22.0241 77.2533 20.7428 76.3397C20.7428 76.3397 17.4536 72.9516 22.0076 65.4722L23.1064 64.3099Z" fill="#C9887E"/>
</g>
<g style="mix-blend-mode:multiply" opacity="0.6">
<g style="mix-blend-mode:multiply" opacity="0.6">
<path d="M24 59.706C24.2212 59.0442 24.3716 58.3609 24.4487 57.6675C24.5618 56.9002 24.5618 56.1206 24.4487 55.3534C24.4014 55.0047 24.281 54.67 24.0954 54.3712C24.0915 54.3638 24.0857 54.3576 24.0785 54.3533C24.0714 54.349 24.0631 54.3467 24.0548 54.3467C24.0464 54.3467 24.0382 54.349 24.0311 54.3533C24.0239 54.3576 24.0181 54.3638 24.0142 54.3712C23.7456 55.4805 24.0954 56.6217 24.0989 57.7381C24.097 57.7449 24.0967 57.7521 24.098 57.7591C24.0993 57.7661 24.1022 57.7727 24.1064 57.7784C24.1107 57.7841 24.1163 57.7887 24.1226 57.7918C24.129 57.795 24.136 57.7967 24.1431 57.7967C24.1502 57.7967 24.1572 57.795 24.1636 57.7918C24.17 57.7887 24.1755 57.7841 24.1798 57.7784C24.1841 57.7727 24.187 57.7661 24.1883 57.7591C24.1896 57.7521 24.1892 57.7449 24.1873 57.7381C24.1873 56.6288 23.834 55.4947 24.0989 54.3959H24.0177C24.3957 54.9471 24.4452 55.689 24.4523 56.3355C24.4503 57.1124 24.3662 57.8869 24.2014 58.6461C24.1328 58.99 24.0408 59.3288 23.9258 59.66C23.9046 59.713 23.993 59.7378 24.0106 59.6848L24 59.706Z" fill="#CEDCEA"/>
</g>
</g>
<path d="M20.6403 62.3417L20.0397 61.8648L19.9054 61.7588C17.188 66.0268 15.5164 70.876 15.0264 75.9119C15.3797 76.0462 15.7612 76.1733 16.1393 76.297C16.3866 70.9269 20.8876 62.5431 20.8911 62.5396L20.6403 62.3417Z" fill="#3598A1"/>
<path d="M31.6314 47.9804C31.6314 47.9804 32.0872 63.5255 31.6314 67.3694C31.1757 71.2132 29.3527 76.4774 28.5083 77.0639C27.6639 77.6503 23.7635 78.5583 20.7357 76.3573C20.7357 76.3573 17.4465 72.9691 22.0005 65.4898L23.1064 64.3204C23.1064 64.3204 27.141 51.213 27.2046 48.6587C27.2046 48.6587 27.4025 47.9698 26.7524 46.9735C26.1023 45.9772 24.1486 41.2253 23.9543 40.8331C23.76 40.441 23.3254 38.7875 23.6398 38.088C23.9543 37.3885 25.0813 35.5761 25.636 34.6716C25.726 34.5141 25.849 34.3779 25.9966 34.2724C26.1441 34.1669 26.3128 34.0946 26.4909 34.0604C26.8373 33.9915 27.1958 34.0159 27.5296 34.1311L29.3527 32.6508C29.4476 32.5751 29.5573 32.5201 29.6747 32.489C29.792 32.458 29.9146 32.4517 30.0345 32.4706C30.3136 32.5165 30.6245 32.6296 30.5892 32.9122C30.5892 32.9122 31.7622 32.8309 31.4336 33.4845L30.727 34.2971C30.727 34.2971 31.6385 34.1982 31.1156 35.0461C30.5927 35.894 29.9462 37.1271 29.9462 37.1271C29.7196 37.5371 29.5451 37.9739 29.4269 38.4272C29.3597 38.8829 29.554 40.4445 29.9462 40.9639C30.3384 41.4832 31.8399 42.9176 31.8399 42.9176C31.8399 42.9176 32.5394 44.4015 31.6314 47.9804Z" fill="#C9887E"/>
<g style="mix-blend-mode:multiply" opacity="0.4">
<path d="M27.6604 38.2564C27.6604 38.2564 28.526 35.9529 29.1619 35.476C29.7978 34.999 30.7906 34.2041 30.7906 34.2041" stroke="#C9887E" stroke-width="0.356814" stroke-miterlimit="10"/>
</g>
<g style="mix-blend-mode:multiply" opacity="0.4">
<path d="M26.2471 38.1337C26.2471 38.1337 27.148 35.756 27.3458 35.6218C27.5437 35.4875 29.395 34.0143 29.395 34.0143L30.5891 32.9014" stroke="#C9887E" stroke-width="0.356814" stroke-miterlimit="10"/>
</g>
<g style="mix-blend-mode:multiply" opacity="0.4">
<path d="M25.332 37.4417L26.2471 35.1735L29.5116 32.499" stroke="#C9887E" stroke-width="0.356814" stroke-miterlimit="10"/>
</g>
<g style="mix-blend-mode:multiply" opacity="0.4">
<path d="M23.1064 64.3099C23.1064 64.3099 27.141 51.2025 27.2046 48.6482C27.2046 48.6482 27.4025 47.9593 26.7524 46.963C26.1023 45.9667 24.1486 41.2148 23.9543 40.8226C23.76 40.4305 23.3254 38.777 23.6398 38.0775C23.9543 37.378 25.0813 35.5656 25.636 34.6611C25.7265 34.5041 25.8497 34.3682 25.9972 34.2628C26.1447 34.1574 26.313 34.0848 26.491 34.0499C26.8373 33.981 27.1958 34.0054 27.5297 34.1206L29.3527 32.6438C29.4469 32.5668 29.5564 32.5106 29.6739 32.4789C29.7914 32.4472 29.9143 32.4408 30.0345 32.4601C30.3136 32.506 30.6245 32.6191 30.5892 32.9017C30.5892 32.9017 31.7622 32.8204 31.4336 33.474L30.727 34.2866C30.727 34.2866 31.0803 34.3714 31.1721 34.3785L28.9464 36.9717C27.4272 41.0346 29.123 42.7198 29.9285 46.0832C30.7341 49.4466 26.6923 62.9956 26.6923 62.9956C22.8732 74.983 25.1308 77.7529 25.1308 77.7529C23.5571 77.7471 22.0241 77.2533 20.7428 76.3397C20.7428 76.3397 17.4536 72.9516 22.0076 65.4722L23.1064 64.3099Z" fill="#C9887E"/>
</g>
<g style="mix-blend-mode:multiply" opacity="0.6">
<g style="mix-blend-mode:multiply" opacity="0.6">
<path d="M24 59.706C24.2212 59.0442 24.3716 58.3609 24.4487 57.6675C24.5618 56.9002 24.5618 56.1206 24.4487 55.3534C24.4014 55.0047 24.281 54.67 24.0954 54.3712C24.0915 54.3638 24.0857 54.3576 24.0785 54.3533C24.0714 54.349 24.0631 54.3467 24.0548 54.3467C24.0464 54.3467 24.0382 54.349 24.0311 54.3533C24.0239 54.3576 24.0181 54.3638 24.0142 54.3712C23.7456 55.4805 24.0954 56.6217 24.0989 57.7381C24.097 57.7449 24.0967 57.7521 24.098 57.7591C24.0993 57.7661 24.1022 57.7727 24.1064 57.7784C24.1107 57.7841 24.1163 57.7887 24.1226 57.7918C24.129 57.795 24.136 57.7967 24.1431 57.7967C24.1502 57.7967 24.1572 57.795 24.1636 57.7918C24.17 57.7887 24.1755 57.7841 24.1798 57.7784C24.1841 57.7727 24.187 57.7661 24.1883 57.7591C24.1896 57.7521 24.1892 57.7449 24.1873 57.7381C24.1873 56.6288 23.834 55.4947 24.0989 54.3959H24.0177C24.3957 54.9471 24.4452 55.689 24.4523 56.3355C24.4503 57.1124 24.3662 57.8869 24.2014 58.6461C24.1328 58.99 24.0408 59.3288 23.9258 59.66C23.9046 59.713 23.993 59.7378 24.0106 59.6848L24 59.706Z" fill="#CEDCEA"/>
</g>
</g>
<g style="mix-blend-mode:multiply" opacity="0.4">
<path d="M18.4675 67.7432C17.9458 67.8397 17.4145 67.8741 16.8847 67.8456C15.9109 70.4401 15.286 73.1524 15.0264 75.9114L15.5528 76.0951C15.7471 76.1517 15.9449 76.2011 16.1428 76.2541C16.27 73.6821 17.3617 70.4353 18.4675 67.7432Z" fill="#3598A1"/>
</g>
<path d="M3.1097 45.3877L1.92969 48.3342L12.0128 54.7289C12.0128 54.7289 12.7759 55.2906 12.6169 54.093C12.458 52.8953 12.8431 51.4644 13.3235 51.2065L13.8146 50.9451L14.2351 50.7578" fill="#02737D"/>
<path d="M6.64617 76.915C6.11378 76.3937 5.5207 75.9382 4.87968 75.5583C4.244 75.1664 3.55828 74.8622 2.84115 74.6539C2.82461 74.6498 2.80725 74.6507 2.79118 74.6563C2.7751 74.6619 2.76099 74.672 2.75054 74.6855C2.74009 74.6989 2.73374 74.7151 2.73227 74.732C2.73079 74.749 2.73425 74.766 2.74222 74.7811C3.64667 76.3144 4.78782 77.6816 5.85831 79.0984C6.16215 79.4976 6.46245 79.9039 6.74509 80.3172C6.80869 80.4091 6.96414 80.3172 6.89701 80.2289C5.89364 78.7698 4.73129 77.4273 3.71732 75.9893C3.42762 75.5724 3.14852 75.145 2.89061 74.7069L2.79168 74.8376C3.49457 75.0419 4.16619 75.3414 4.78782 75.7279C5.41641 76.0978 5.99773 76.5426 6.51898 77.0528C6.60024 77.134 6.72743 77.0068 6.64617 76.9291V76.915Z" fill="#CEDCEA"/>
<g style="mix-blend-mode:multiply">
<g style="mix-blend-mode:multiply">
<path d="M7.0419 77.4918C7.48705 77.6154 7.93574 77.7214 8.36677 77.8875C8.80967 78.0208 9.20152 78.2857 9.49025 78.6471L9.51498 78.5835C8.85339 78.6533 8.1848 78.6127 7.53651 78.4633C7.47999 78.4633 7.45879 78.5411 7.51532 78.5517C8.17937 78.6997 8.86305 78.7391 9.53972 78.6683C9.54613 78.6665 9.55203 78.6633 9.55697 78.6589C9.56191 78.6544 9.56573 78.6489 9.56814 78.6427C9.57055 78.6365 9.57146 78.6298 9.57082 78.6232C9.57018 78.6166 9.568 78.6103 9.56445 78.6046C9.28696 78.2464 8.90953 77.9784 8.47982 77.8345C8.02054 77.6507 7.54005 77.5412 7.06663 77.4034C7.05516 77.4009 7.04315 77.4028 7.03307 77.4089C7.02299 77.4149 7.01561 77.4246 7.01244 77.4359C7.00928 77.4472 7.01056 77.4593 7.01604 77.4697C7.02152 77.4801 7.03077 77.488 7.0419 77.4918V77.4918Z" fill="#DBE7EF"/>
</g>
</g>
</g>
<defs>
<linearGradient id="paint0_linear_11335_17750" x1="54.6134" y1="40.2821" x2="47.6605" y2="40.2821" gradientUnits="userSpaceOnUse">
<stop stop-color="white"/>
<stop offset="1" stop-color="white" stop-opacity="0"/>
</linearGradient>
<linearGradient id="paint1_linear_11335_17750" x1="-14922.8" y1="1787.29" x2="-15137.3" y2="1779.71" gradientUnits="userSpaceOnUse">
<stop stop-color="white"/>
<stop offset="1" stop-color="white" stop-opacity="0"/>
</linearGradient>
<linearGradient id="paint2_linear_11335_17750" x1="9.8222" y1="30.1179" x2="9.8222" y2="38.3038" gradientUnits="userSpaceOnUse">
<stop stop-color="#2C2D53"/>
<stop offset="1" stop-color="#2C2D53" stop-opacity="0"/>
</linearGradient>
<clipPath id="clip0_11335_17750">
<rect width="90" height="90" fill="white"/>
</clipPath>
</defs>
</svg>
