<svg width="40" height="40" viewBox="0 0 40 40" fill="none" xmlns="http://www.w3.org/2000/svg">
<path fill-rule="evenodd" clip-rule="evenodd" d="M20.1738 1.07691L20.0409 1L19.908 1.07691C18.2785 2.01995 16.9356 3.72364 16.0015 5.66534C15.0662 7.60956 14.5272 9.81984 14.5271 11.8064V19.8115L10.2698 25.2605L9 26.7382L14.5271 26.7388L25.5543 26.7382H31.115L29.9095 25.2632L29.9076 25.2608L25.5543 19.8077V11.8064C25.5544 9.81985 25.0155 7.60956 24.0802 5.66534C23.1462 3.72364 21.8033 2.01995 20.1738 1.07691ZM12.3444 25.1634L14.5271 22.3695V25.1634H12.3444ZM27.8149 25.1634H25.5543L25.5543 22.3317L27.8149 25.1634ZM16.0433 25.1634H24.0381L24.0383 11.8062C24.0383 10.07 23.5812 8.2124 22.8281 6.5737C22.1082 5.00753 21.1273 3.66156 20.0409 2.81443C18.9545 3.66156 17.9736 5.00754 17.2537 6.57373C16.5005 8.21245 16.0434 10.0701 16.0433 11.8064L16.0433 25.1634ZM20.0099 8.35337C18.4286 8.35337 17.1464 9.63511 17.1464 11.2169L17.1464 11.2775C17.1464 12.8588 18.4281 14.141 20.0099 14.141L20.0705 14.141C21.6518 14.141 22.934 12.8593 22.934 11.2775L22.934 11.2169C22.934 9.63557 21.6523 8.35337 20.0705 8.35337L20.0099 8.35337ZM20.0099 9.86958H20.0705C20.8131 9.86958 21.4178 10.4743 21.4178 11.2169V11.2775C21.4178 12.0201 20.8131 12.6248 20.0705 12.6248H20.0099C19.2673 12.6248 18.6626 12.0201 18.6626 11.2775L18.6626 11.2169C18.6626 10.4743 19.2673 9.86958 20.0099 9.86958ZM20.8318 33V27.2481L19.2541 27.2481V33H20.8318ZM23.4877 30.9117V27.2502L21.8504 27.2505L21.8504 30.912L23.4877 30.9117ZM18.2524 27.2504H16.6149L16.6149 30.9119H18.2524V27.2504Z" fill="url(#paint0_linear)"/>
<path d="M31.0872 37.5004H36.1205C37.2932 37.5004 37.2932 39 36.1205 39H15.7947H13.5742H3.94116C2.69826 39 2.69826 37.5004 3.87079 37.5004H8.90541C8.81033 37.2603 8.76037 37.0067 8.75771 36.7507C8.76013 36.4453 8.82864 36.1435 8.95913 35.8635C9.08961 35.5835 9.27938 35.331 9.51701 35.1212C9.75465 34.9114 10.0352 34.7487 10.3419 34.6428C10.6486 34.5369 10.9751 34.4901 11.3016 34.5051C11.4899 34.0037 11.862 33.5808 12.3521 33.3112C12.8422 33.0416 13.4186 32.9427 13.9793 33.0321C14.54 33.1214 15.0487 33.3933 15.4154 33.7994C15.782 34.2056 15.9829 34.7198 15.9825 35.2511H14.377C14.377 35.0522 14.2924 34.8615 14.1419 34.7209C13.9913 34.5803 13.7871 34.5013 13.5742 34.5013C13.3613 34.5013 13.1572 34.5803 13.0066 34.7209C12.8561 34.8615 12.7715 35.0522 12.7715 35.2511C12.7722 35.293 12.776 35.3348 12.7827 35.3763C12.7997 35.5153 12.7747 35.656 12.7106 35.7824C12.6464 35.9089 12.5457 36.016 12.4197 36.0918C12.2938 36.1675 12.1477 36.2089 11.9979 36.2111C11.8481 36.2133 11.7006 36.1763 11.5722 36.1043C11.4494 36.0358 11.309 36 11.166 36.0009C10.9531 36.0009 10.7489 36.0799 10.5983 36.2205C10.4478 36.3611 10.3632 36.5518 10.3632 36.7507C10.3632 36.9495 10.4478 37.1402 10.5983 37.2808C10.7489 37.4214 10.9531 37.5004 11.166 37.5004H28.8266C29.0395 37.5004 29.2437 37.4214 29.3943 37.2808C29.5448 37.1402 29.6294 36.9495 29.6294 36.7507C29.6294 36.5518 29.5448 36.3611 29.3943 36.2205C29.2437 36.0799 29.0395 36.0009 28.8266 36.0009C28.6836 36 28.5431 36.0358 28.4204 36.1043C28.292 36.1763 28.1445 36.2133 27.9947 36.2111C27.8449 36.2089 27.6988 36.1675 27.5728 36.0918C27.4469 36.016 27.3461 35.9089 27.282 35.7824C27.2178 35.656 27.1929 35.5153 27.2099 35.3763C27.2166 35.3348 27.2204 35.293 27.2211 35.2511C27.2211 35.0522 27.1365 34.8615 26.986 34.7209C26.8354 34.5803 26.6313 34.5013 26.4183 34.5013C26.2054 34.5013 26.0012 34.5803 25.8507 34.7209C25.7002 34.8615 25.6156 35.0522 25.6156 35.2511H24.0101C24.0096 34.7198 24.2105 34.2056 24.5772 33.7994C24.9438 33.3933 25.4526 33.1214 26.0132 33.0321C26.5739 32.9427 27.1504 33.0416 27.6405 33.3112C28.1306 33.5808 28.5027 34.0037 28.691 34.5051C29.0176 34.4899 29.3441 34.5366 29.6509 34.6424C29.9577 34.7482 30.2384 34.9109 30.4761 35.1207C30.7138 35.3305 30.9035 35.5831 31.0339 35.8632C31.1643 36.1433 31.2327 36.4452 31.2349 36.7507C31.2322 37.0067 31.1823 37.2603 31.0872 37.5004Z" fill="#313840"/>
<defs>
<linearGradient id="paint0_linear" x1="20.0472" y1="6.30881" x2="28.5942" y2="10.8256" gradientUnits="userSpaceOnUse">
<stop stop-color="#D55B17"/>
<stop offset="1" stop-color="#D99227"/>
</linearGradient>
</defs>
</svg>
