<svg width="55" height="55" viewBox="0 0 55 55" fill="none" xmlns="http://www.w3.org/2000/svg">
<mask id="mask0_194_3115" style="mask-type:alpha" maskUnits="userSpaceOnUse" x="0" y="0" width="55" height="55">
<circle cx="27.5" cy="27.5" r="27.5" fill="white"/>
</mask>
<g mask="url(#mask0_194_3115)">
<circle cx="27.5" cy="27.5" r="23.5" fill="#94C8D1" stroke="#6BB3BA" stroke-width="8"/>
<path d="M49.2286 18.4643H38.1776C38.0386 18.4643 37.9009 18.4917 37.7725 18.545C37.6441 18.5983 37.5275 18.6764 37.4293 18.7748C37.3311 18.8732 37.2533 18.99 37.2003 19.1185C37.1474 19.2471 37.1203 19.3848 37.1206 19.5238V28.0484C37.1206 28.329 37.2319 28.5981 37.43 28.7967C37.6282 28.9954 37.8971 29.1073 38.1776 29.1079H47.608L49.8398 31.227C49.8775 31.2619 49.9247 31.2852 49.9754 31.2938C50.0261 31.3025 50.0783 31.2962 50.1255 31.2758C50.1728 31.2554 50.213 31.2216 50.2415 31.1787C50.2699 31.1358 50.2852 31.0856 50.2856 31.0341V19.5238C50.2859 19.3848 50.2588 19.2471 50.2059 19.1185C50.1529 18.99 50.0751 18.8732 49.9769 18.7748C49.8787 18.6764 49.7621 18.5983 49.6337 18.545C49.5053 18.4917 49.3676 18.4643 49.2286 18.4643Z" fill="white"/>
<path fill-rule="evenodd" clip-rule="evenodd" d="M39.2856 22H47.9321V22.7857H39.2856V22Z" fill="#03727D"/>
<path fill-rule="evenodd" clip-rule="evenodd" d="M39.2856 25.1429H47.9321V25.9286H39.2856V25.1429Z" fill="#03727D"/>
<path d="M27.6658 7.56957C26.5557 5.38677 17.8283 3.5145 12.555 8.89995C7.28177 14.2854 7.75153 19.7533 7.75153 23.487C7.75153 27.2207 7.96575 29.9349 5.67057 38.9226C3.3754 47.9102 9.83346 48.2825 10.8495 50.6183C12.9803 55.517 22.8344 53.4511 27.9208 54.8769C29.7841 56.2874 30.8839 55.3712 31.4504 52.9704C33.2516 53.1042 30.136 52.1172 32.5383 52.1172C37.6505 34.5688 31.9225 38.6624 33.1795 29.8638C34.3418 21.8373 34.5805 17.0905 32.1772 12.0798C30.1803 7.91626 28.6581 7.49423 27.6658 7.56957Z" fill="#2C2D53"/>
<g style="mix-blend-mode:multiply" opacity="0.4">
<path d="M26.1384 9.65328C24.1858 5.22942 6.37686 5.29462 10.1887 29.093C10.9108 33.6011 11.1239 42.6169 9.66307 43.6222C9.66307 43.6222 28.5884 46.0841 30.5769 42.0533C32.5654 38.0226 28.5217 33.2938 30.2007 28.295C31.8796 23.2963 32.6936 12.387 26.1384 12.387C19.5831 12.387 26.1384 9.65328 26.1384 9.65328Z" fill="#2C2D53"/>
</g>
<path d="M16.4197 34.0439C16.9899 36.3983 16.0835 38.8319 15.4552 39.6173C14.8269 40.4026 13.848 41.9063 10.3923 42.8487L21.5447 62.3261L30.8736 41.8854C30.8736 41.8854 27.3565 41.188 26.7282 39.6173C25.9585 37.6695 26.2026 35.8096 26.7282 34.2646C27.2538 32.7195 16.4197 34.0439 16.4197 34.0439Z" fill="#F2BD99"/>
<path d="M16.4257 33.9141C16.4257 33.9141 16.8279 35.2604 16.402 37.3425C15.9762 39.4246 13.7459 40.8478 17.1942 41.7098C20.6425 42.5719 24.1318 38.8291 24.8735 37.37C25.6152 35.911 25.8261 35.1646 25.8261 35.1646L16.4257 33.9141Z" fill="#E79C77"/>
<path d="M29.9347 23.3129C29.9347 23.3129 31.2554 21.5444 31.8745 22.8936C32.1976 23.9944 30.9053 27.2624 29.2495 27.4688L29.9347 23.3129Z" fill="#E79C77"/>
<path d="M22.6274 11.041C22.6274 11.041 18.1979 12.5614 15.8418 14.8547C13.4856 17.148 12.9885 20.9211 12.9885 24.0783C12.9885 27.2355 13.4562 29.54 13.8078 30.7156C14.3711 32.5993 16.9149 34.6762 18.4797 35.8758C20.0444 37.0753 21.8168 38.3297 24.4304 37.2368C26.7487 35.8758 28.4283 33.2178 29.4613 31.1562C29.7755 30.1509 30.7482 27.0156 30.7482 24.4396C30.7482 21.8635 30.9901 20.6825 30.1873 17.9759C29.3325 15.0941 27.444 13.6517 26.3556 13.4228C26.3556 13.4228 23.7269 11.041 22.6274 11.041Z" fill="#F2BD99"/>
<path d="M16.2665 39.3461C16.2665 39.3461 14.3188 41.2781 9.60649 42.6918C4.89422 44.1054 2.27567 44.2849 0.547841 46.9552C-1.17999 49.6255 -1.33707 57.1651 -1.49414 58.1075L39.8169 63.9166C39.8169 63.9166 40.7174 47.4505 39.2558 45.1097C38.4975 43.8951 36.1337 42.8607 35.197 42.8342C34.2604 42.8078 32.1809 42.1998 31.0473 41.6708C28.6912 40.5712 27.2775 40.5712 26.4921 39.0005C26.4921 39.0005 26.5707 40.8069 28.4556 41.2781C28.4556 41.2781 22.2668 75.0179 21.4814 78.6307C21.4814 78.6307 15.968 46.5401 14.0831 41.5137C14.0831 41.5137 16.0309 40.6812 16.2665 39.3461Z" fill="#0C5FA6"/>
<path d="M16.1983 37.7394C15.2891 40.7243 16.0908 42.3195 18.3545 43.6525C19.329 44.2264 20.915 44.4521 21.7501 45.6255C21.7501 45.6255 22.4508 45.0567 22.8102 44.6482C25.6113 43.2442 27.4918 41.1237 26.3828 38.291C26.3828 38.291 27.5411 38.8575 27.8861 40.0029L30.1738 41.1726C21.3526 96.7766 20.8123 71.6849 13.4659 41.1726C13.4659 41.1726 14.4898 40.8351 15.0458 39.4364C15.3095 38.9294 15.6203 38.4484 15.9741 37.9995L16.1983 37.7394Z" fill="white"/>
<path d="M16.1529 38.6138C16.1529 38.6138 14.8914 39.9424 11.614 41.6074L11.9286 50.7018L16.995 61.1855L13.6949 65.5836C13.6949 65.5836 19.2203 63.2766 23.0658 68.3009C22.8644 56.1619 16.593 47.9068 16.1529 38.6138Z" fill="#084E8A"/>
<path d="M27.4255 39.1052C27.4255 39.1052 28.5338 40.2131 31.5968 41.5011L31.9504 45.7922L32.4186 50.512L28.1251 61.3274L29.3817 65.7255H21.2468C21.2625 65.7255 29.1533 46.8019 27.4255 39.1052Z" fill="#084E8A"/>
<g style="mix-blend-mode:multiply" opacity="0.4">
<path d="M22.1192 46.0652C22.6926 49.9714 23.2516 54.7939 23.2516 58.6687C23.344 64.0067 23.2517 69.7552 23.2517 69.7552C23.2517 69.7552 23.5927 75.0931 22.9888 76.1463C22.3849 77.1996 22.1425 80.0369 22.4095 81.4104C22.6766 82.7839 22.9292 83.9377 22.3089 85.1059L21.7398 86.6662" stroke="#89A5D8" stroke-width="0.5" stroke-miterlimit="10"/>
</g>
<g style="mix-blend-mode:multiply" opacity="0.4">
<path d="M20.7128 46.8975C20.4455 46.1637 21.1964 46.1306 21.2705 46.7381C21.3191 47.1077 20.8614 47.3036 20.7128 46.8975Z" stroke="#89A5D8" stroke-width="0.5" stroke-miterlimit="10"/>
</g>
<path d="M16.3995 37.3186C16.3297 38.3079 16.481 38.7531 16.5438 39.4374C16.8688 40.9848 16.7243 42.6534 18.3754 43.6257C18.398 43.638 19.5335 44.4329 19.5581 44.4493C15.4684 47.3971 14.1622 47.2432 14.1622 47.2432C14.5504 46.6273 13.7687 42.8331 13.7831 41.4781C13.8374 40.7851 13.9704 40.1004 14.1795 39.4374C14.2535 39.4148 14.7722 39.1048 14.8441 39.0863C15.0935 38.607 15.4558 37.6806 15.7055 37.4533C15.9553 37.226 16.3995 37.3186 16.3995 37.3186Z" fill="#E4EEFF"/>
<g style="mix-blend-mode:multiply" opacity="0.4">
<path d="M-4.27231 69.47C-3.96007 69.4043 -3.93131 67.6346 -3.66837 67.1583C-3.18973 66.2898 -3.07675 67.1254 -2.49335 66.7086C-2.30436 64.9225 -2.177 63.0624 -1.79081 61.307C-1.39865 59.5732 -0.90409 57.8641 -0.309711 56.1887C0.226441 54.6387 -1.1079 50.3633 -0.62105 48.7866C0.36087 45.6023 2.88872 45.2439 6.13029 43.895C7.64836 43.2627 9.48484 42.8172 10.7297 41.6736C11.8698 40.6265 12.7191 39.7964 14.2104 39.4063C13.3608 41.1452 14.9367 45.9871 14.15 47.2395C15.3825 47.0506 16.6541 46.4839 17.5066 45.5518C19.8569 42.9821 21.7607 45.6232 21.7607 45.6232C21.7607 45.6232 21.0974 45.6278 19.4252 45.8906C16.9602 46.2786 12.9133 49.1447 13.1147 48.4734C13.4988 47.1881 13.9363 45.018 13.4228 43.7328C11.2638 44.5541 9.13973 45.2644 6.86365 45.6894C7.99347 50.2061 10.288 59.1062 16.3131 58.9214C15.4914 60.108 14.567 61.4261 14.1849 62.8222C13.9343 63.7399 14.6738 64.054 15.0456 64.8239C15.8673 66.5382 15.5243 67.9959 15.4914 69.7862C15.4606 71.4738 16.0933 73.2312 16.3233 74.9045C16.5596 76.6332 16.0666 77.9964 16.0748 79.6902C16.0748 80.6879 16.1344 81.6857 16.2063 82.6815C16.2309 83.0449 16.4117 83.6649 16.309 84.0201L14.9593 88.6662C14.6635 89.6927 14.2835 90.6556 14.2589 91.7191L14.1541 96.515C11.9333 95.7381 9.83579 94.6463 7.92568 93.2732C6.76915 92.4643 4.45404 91.4255 4.63892 89.8467C5.18945 85.2806 5.52634 80.5791 6.52675 76.0911C7.08139 73.5987 7.68122 71.1843 7.77572 68.6159C7.80653 67.7249 7.80037 66.8339 7.76545 65.947C7.68123 65.6246 7.47786 65.3803 7.37926 65.0477V65.138C7.3551 65.0209 7.33863 64.9022 7.32995 64.7829C7.32995 64.7829 7.32995 64.7685 7.32995 64.7623C7.32995 64.7562 7.32995 64.7623 7.32995 64.7521C7.32068 64.5893 7.32068 64.4262 7.32995 64.2634L7.35255 64.1362C7.42034 63.5675 7.597 63.009 7.66685 62.4424C7.6956 62.1981 7.72231 61.9517 7.74902 61.7033C7.60522 62.4116 7.48402 62.8899 7.48402 62.8899L5.91665 66.5855C5.91665 66.5855 5.26957 68.0411 4.96554 68.9034L5.83037 69.7472L5.36406 70.5171C5.88994 70.9831 5.29627 71.3383 5.0436 71.6996C4.79093 72.061 4.81558 72.8206 4.36982 73.1614C3.92405 73.5022 3.84393 73.7322 3.84393 73.7322C3.68227 73.5785 3.51219 73.4338 3.33449 73.299C3.34681 73.26 3.40639 73.0937 3.40639 73.0937C3.18876 72.8599 2.91517 72.6854 2.6114 72.5866L3.40639 72.3936L2.43063 70.4124H4.50334C4.31419 69.2115 4.49173 67.9816 5.01279 66.8832C5.88789 64.9676 7.28271 55.6529 7.28271 55.6529C7.36688 55.688 7.44516 55.7358 7.51484 55.7946C6.96225 53.8257 5.10112 52.3885 4.52799 50.3663C2.99143 52.7458 1.68494 55.5687 1.54731 58.4471C1.48568 59.7693 1.63564 60.5782 0.984451 61.8244C0.450353 62.8509 -0.248082 64.0171 -1.19713 64.7315C-1.82778 65.212 -1.47856 67.5586 -1.55457 68.4435C-1.61825 69.1785 -1.75999 70.1352 -2.34339 70.6485C-2.71931 70.977 -3.21233 70.9338 -3.64372 70.7388C-4.32161 70.3754 -4.27231 70.2686 -4.27231 69.47Z" fill="#89A5D8"/>
</g>
<g style="mix-blend-mode:multiply" opacity="0.6">
<path d="M17.2748 46.3584C15.5492 47.6088 14.0723 47.2392 14.0723 47.2392L14.2777 46.9497C14.2511 47.0514 14.2103 47.1489 14.1565 47.2392C15.389 47.0503 16.6606 46.4837 17.5131 45.5516C19.1542 43.8187 20.5244 44.401 21.45 45.2748C20.6344 44.7944 18.9367 45.1553 17.2748 46.3584Z" fill="#A8BBDB"/>
</g>
<g style="mix-blend-mode:multiply" opacity="0.4">
<path d="M21.8093 45.6294C22.2715 45.0279 23.0193 44.5681 22.9803 44.6174L23.2535 44.4572C23.3893 44.3799 23.4645 44.3573 23.5844 44.2571C23.8432 44.0113 24.6567 44.1123 25.0026 44.0242C25.8798 43.0593 27.2623 41.3162 27.328 39.5444C27.2746 39.2981 27.2273 39.0599 27.1821 38.8259C27.5152 39.1385 27.7633 39.5306 27.9032 39.9653L29.3247 40.3759C29.3247 44.0078 28.1579 45.7816 29.2056 47.188C28.4829 47.3687 27.7247 47.3503 27.0116 47.1346C26.6656 47.0673 26.3454 46.9045 26.0872 46.6645C25.7812 46.377 25.3662 45.9233 25.2553 45.4819C25.0807 44.8023 22.7809 44.5865 21.8093 45.6294Z" fill="#B8C9E8"/>
</g>
<g style="mix-blend-mode:multiply" opacity="0.6">
<path d="M22.9761 44.6133L23.4958 44.3854C25.1166 42.9627 25.704 44.3921 26.3223 45.6609C26.7517 46.5416 27.9657 46.827 28.6724 46.9215C28.1141 46.9918 27.5472 46.9407 27.0105 46.7716C26.6647 46.7049 26.3444 46.5427 26.0861 46.3035C25.78 46.0161 24.9194 45.2087 24.8084 44.7653C24.679 44.2479 22.7309 45.0597 21.8065 45.6263C21.9811 45.4046 22.9905 44.5928 22.9761 44.6133Z" fill="#A8BBDB"/>
</g>
<path d="M26.2964 37.9141C27.4637 38.6871 28.5436 39.8182 28.7305 41.8795C28.9667 44.491 28.1494 45.5664 29.197 46.9727C29.197 46.9727 26.9374 46.9399 26.3211 45.667C25.7048 44.3941 24.1201 43.6145 22.4993 45.0372L21.7586 45.667C23.4412 43.5429 26.452 43.3638 26.5984 39.5632C26.4875 39.0335 26.3433 38.4962 26.2964 37.9141Z" fill="#E4EEFF"/>
<path d="M26.402 13.4258C17.7299 15.0971 15.2058 23.2704 12.5271 22.7263C12.5271 22.7263 11.2638 17.8881 13.3731 13.4622C15.3879 9.23476 22.8591 6.23848 26.402 9.66337V13.4258Z" fill="#2C2D53"/>
<g style="mix-blend-mode:multiply" opacity="0.4">
<path d="M13.397 31.14L13.149 31.1719L13.149 31.1719L13.397 31.14ZM17.9069 12.2549C18.0283 12.1891 18.18 12.2343 18.2457 12.3557C18.3115 12.4772 18.2663 12.6289 18.1449 12.6946L17.9069 12.2549ZM13.645 31.1081C14.0952 34.6083 13.9405 36.6876 13.4641 38.267C12.9926 39.83 12.197 40.9067 11.4484 42.3207L11.0065 42.0867C11.7953 40.5968 12.5324 39.6242 12.9854 38.1226C13.4334 36.6375 13.5947 34.6369 13.149 31.1719L13.645 31.1081ZM18.1449 12.6946C16.3015 13.6923 15.0515 14.9026 14.2208 16.2576C13.3892 17.614 12.9697 19.1284 12.8073 20.7451C12.4808 23.995 13.1936 27.5988 13.645 31.1081L13.149 31.1719C12.7045 27.716 11.9758 24.0201 12.3098 20.6951C12.4777 19.0243 12.914 17.4325 13.7945 15.9963C14.6759 14.5586 15.9944 13.29 17.9069 12.2549L18.1449 12.6946Z" fill="#2B2746"/>
</g>
<path d="M12.7404 23.0593C12.7404 23.0593 11.4196 21.2908 10.8005 22.64C10.4775 23.7408 11.7698 27.0088 13.4255 27.2152L12.7404 23.0593Z" fill="#F2BD99"/>
<path fill-rule="evenodd" clip-rule="evenodd" d="M25.2092 24.6874C25.666 23.7946 26.4609 22.5053 27.8293 22.5053C29.8461 22.5053 30.7307 24.2654 30.7307 24.2654C30.0748 24.4158 30.0385 23.4304 27.7382 23.4304C26.7621 23.4304 26.3054 23.4304 25.2092 24.6874Z" fill="#E39073"/>
<path d="M27.6755 23.8132C26.5798 23.7724 25.6015 24.2454 25.2092 24.6874C25.6502 23.8436 26.3081 23.0571 27.3718 22.9551C29.0833 22.7909 29.8734 23.6085 30.2474 23.8817C30.6238 24.1566 30.8996 24.2778 30.8996 24.2778C30.8996 24.2778 30.3503 24.7508 29.7967 24.6789C29.5442 24.2708 28.7712 23.854 27.6755 23.8132Z" fill="#2B2746"/>
<path opacity="0.8" d="M25.5626 20.059C25.9337 19.9359 26.329 19.858 26.7359 19.8278C27.4544 19.7746 30.5068 19.8278 31.1477 21.2841C30.7688 21.1927 30.3896 21.0438 30.0142 20.9502C29.4891 20.833 28.9565 20.746 28.4207 20.6901C27.4352 20.6079 26.4536 20.6987 25.5452 20.9563C25.4887 20.9662 25.4295 20.9669 25.3711 20.9584C25.3127 20.9499 25.2563 20.9324 25.2049 20.9068C25.1535 20.8813 25.1083 20.8482 25.0718 20.8095C24.6597 20.3727 25.1845 20.1348 25.5626 20.059Z" fill="#2C2D53"/>
<path fill-rule="evenodd" clip-rule="evenodd" d="M20.8403 24.6885C20.3394 23.7964 19.4676 22.5082 17.9668 22.5082C15.755 22.5082 14.7848 24.2668 14.7848 24.2668C15.5041 24.4171 15.444 23.3218 17.9668 23.3218C19.0374 23.3218 20.0782 23.8104 20.8403 24.6885Z" fill="#E39073"/>
<path d="M18.0279 23.8834C19.2296 23.8426 20.4102 24.2468 20.8403 24.6885C20.3567 23.8453 19.6352 23.0595 18.4686 22.9576C16.5915 22.7936 15.725 23.6104 15.3148 23.8834C14.902 24.1581 14.5996 24.2792 14.5996 24.2792C14.5996 24.2792 15.202 24.7518 15.8091 24.68C16.086 24.2722 16.8262 23.9242 18.0279 23.8834Z" fill="#2B2746"/>
<path opacity="0.8" d="M20.4723 20.059C20.0649 19.936 19.6311 19.8581 19.1844 19.8278C18.3958 19.7746 15.036 19.8279 14.3418 21.2842C14.7578 21.1928 15.1739 21.0439 15.586 20.9503C16.1624 20.833 16.747 20.7461 17.3351 20.6902C18.4168 20.6079 19.4943 20.6988 20.4914 20.9564C20.5534 20.9662 20.6184 20.9669 20.6825 20.9584C20.7466 20.9499 20.8086 20.9324 20.8649 20.9069C20.9213 20.8813 20.971 20.8482 21.0111 20.8095C21.4633 20.3728 20.8873 20.1348 20.4723 20.059Z" fill="#2C2D53"/>
<g style="mix-blend-mode:multiply" opacity="0.4">
<path d="M23.2478 29.8989C23.2478 29.8989 24.8178 29.6135 24.8148 29.3682C24.8119 29.1229 24.6829 28.8263 24.3224 29.026C23.9619 29.2256 22.5854 29.1487 22.2483 29.0261C21.7119 28.8321 21.1257 29.0917 21.6064 29.5594C21.6094 29.548 21.9054 30.0215 23.2478 29.8989Z" fill="#E09980"/>
</g>
<g style="mix-blend-mode:multiply" opacity="0.4">
<path d="M22.7292 29.5688C22.7758 29.4054 21.9542 28.7985 21.8281 29.1767C21.6857 29.6062 22.6264 29.9306 22.7292 29.5688Z" fill="#E09980"/>
</g>
<g style="mix-blend-mode:multiply" opacity="0.4">
<path d="M23.6869 29.5688C23.6402 29.4054 24.4618 28.7985 24.5879 29.1767C24.7303 29.6062 23.7896 29.9306 23.6869 29.5688Z" fill="#E09980"/>
</g>
<path d="M18.7263 31.4146C18.7263 31.4146 19.9057 34.6778 23.0036 34.6778C25.6002 34.6778 26.5239 31.4146 26.5239 31.4146C23.7489 30.6398 23.329 30.9164 23.2178 30.9164C23.1065 30.9165 21.4652 30.6398 18.7263 31.4146Z" fill="#DA736C"/>
<path d="M26.3181 31.5471C24.9773 32.9024 24.3101 33.2803 23.2178 33.2803C22.1254 33.2803 20.4095 32.9757 19.0354 31.5471C22.7238 31.8506 23.8055 31.8428 26.3181 31.5471Z" fill="white"/>
</g>
</svg>
