<svg width="90" height="90" viewBox="0 0 90 90" fill="none" xmlns="http://www.w3.org/2000/svg">
<g clip-path="url(#clip0_11422_3624)">
<g clip-path="url(#clip1_11422_3624)">
<rect x="36" width="54" height="40" rx="2.31" fill="#CDE5E8"/>
<rect x="36" width="73.92" height="8" fill="#DBDFE4"/>
<circle cx="40" cy="4" r="2" fill="#DC3545"/>
<circle cx="45" cy="4" r="2" fill="#FFC107"/>
<circle cx="50" cy="4" r="2" fill="#28A745"/>
</g>
<path d="M47.6719 40.2821C47.6719 42.4867 49.2299 44.2708 51.1483 44.2708C53.0667 44.2708 54.6248 42.4867 54.6248 40.2821C54.6248 38.0775 53.0703 36.2969 51.1483 36.2969C49.2264 36.2969 47.6719 38.081 47.6719 40.2821Z" fill="url(#paint0_linear_11422_3624)"/>
<path d="M47.6719 40.2821C47.6719 42.4867 49.2299 44.2708 51.1483 44.2708C53.0667 44.2708 54.6248 42.4867 54.6248 40.2821C54.6248 38.0775 53.0703 36.2969 51.1483 36.2969C49.2264 36.2969 47.6719 38.081 47.6719 40.2821Z" fill="url(#paint1_linear_11422_3624)"/>
<path d="M32.6305 60.2433L31.832 61.0877C31.832 60.3811 31.832 59.6498 31.832 58.9185L32.6128 59.5897L32.6764 60.1197L32.6305 60.2433Z" fill="#7172D0"/>
<path d="M22.0014 65.8323C17.4474 73.3116 20.7366 76.6998 20.7366 76.6998C22.0754 77.6531 23.6862 78.1488 25.3294 78.1129V91.3969C16.9669 92.4145 12.2927 93.7252 12.2927 93.7252C6.36847 94.3152 0.405305 94.4097 -5.53468 94.0078L-5.58767 80.9358L-6.0293 70.0648C-6.0293 70.0648 -4.53131 54.9048 -1.53888 50.2801C1.45356 45.6555 5.62954 45.8003 5.62954 45.8003L5.93337 45.8957L5.59774 47.3584C5.59774 47.3584 8.54778 52.3681 15.8434 50.6758L16.1967 48.9906C16.4529 49.0135 16.7106 49.0135 16.9669 48.9906C18.267 48.8775 20.8708 49.5594 21.5209 50.0787C21.8 50.3049 23.8915 52.089 26.1879 54.0498C24.9761 58.7133 23.1461 64.6488 23.1461 64.6488L22.0014 65.8323Z" fill="#81BFC4"/>
<path d="M32.6305 60.2433L31.832 61.0877C31.832 60.3811 31.832 59.6498 31.832 58.9185L32.6128 59.5897L32.6764 60.1197L32.6305 60.2433Z" fill="#7172D0"/>
<path d="M21.9994 65.8328C17.4454 73.3121 20.7346 76.7003 20.7346 76.7003C22.0734 77.6536 23.6843 78.1493 25.3275 78.1134L24.7481 93.6586C16.3855 94.6761 12.2908 95.425 12.2908 95.425C6.35484 96.1392 0.365185 96.2977 -5.60023 95.8985V80.9222L-6.03125 70.0653C-6.03125 70.0653 -4.53326 54.9053 -1.54083 50.2806C1.45161 45.6559 5.62759 45.8008 5.62759 45.8008L5.93142 45.8962L5.59579 47.3588C5.59579 47.3588 8.54583 52.3686 15.8414 50.6763L16.1947 48.9911C16.451 49.014 16.7087 49.014 16.9649 48.9911C18.2651 48.878 20.8689 49.5599 21.5189 50.0792C21.798 50.3053 23.8896 52.0895 26.186 54.0503C24.9742 58.7138 23.1441 64.6492 23.1441 64.6492L21.9994 65.8328Z" fill="white"/>
<path d="M17.4889 76.6826L13.1751 75.1563C9.6209 73.8527 4.5864 70.892 2.48428 66.5995C0.382154 62.3069 2.13098 59.0672 2.13098 55.8698C2.17555 53.7333 2.50588 51.6123 3.11315 49.5634L6.74152 49.1395L2.75985 46.4368C1.48798 46.4085 0.0783157 49.03 -1.54686 50.2877C-6.03728 53.75 -8.96612 66.5995 -8.96612 66.5995L-10.7326 80.7914L-12.6016 98.4563C-4.10121 99.0216 10.3628 95.63 12.306 95.4356C12.306 95.4356 12.0516 87.331 11.7548 85.9743C11.4581 84.6177 10.8645 82.9254 11.0482 80.6077C11.2319 78.2901 17.4889 76.6826 17.4889 76.6826Z" fill="#CEDCEA"/>
<path d="M21.4805 50.0894C21.4805 50.0894 24.9039 57.0105 23.6391 62.7657L26.2465 67.242L33.0298 60.0029C33.0298 60.0029 23.3353 50.8277 21.4805 50.0894Z" fill="#CEDCEA"/>
<path d="M6.89062 76.7103C6.89062 76.7103 22.3474 77.9221 23.5734 77.9221C24.7993 77.9221 19.5069 73.6825 19.5069 73.6825L6.92595 73.0996L6.89062 76.7103Z" fill="#3598A1"/>
<g style="mix-blend-mode:multiply" opacity="0.6">
<g style="mix-blend-mode:multiply" opacity="0.6">
<path d="M7.4804 66.0794C7.89376 67.8459 7.55106 69.6124 7.20483 71.3789C6.8586 73.1453 6.49823 74.8447 6.8162 76.5829C6.98225 77.5156 7.1695 78.4413 7.31788 79.374C7.46627 80.3067 7.57579 81.2111 7.67118 82.1332C7.85136 84.0516 7.87256 85.9771 7.88316 87.9026C7.89376 89.8281 7.92202 91.7182 8.33891 93.5765C8.38837 93.8062 8.4449 94.0358 8.50849 94.2619C8.51262 94.2721 8.52027 94.2805 8.53005 94.2855C8.53983 94.2906 8.55108 94.2919 8.56178 94.2894C8.57247 94.2868 8.58189 94.2805 8.58832 94.2716C8.59475 94.2626 8.59776 94.2517 8.59682 94.2408C8.07747 92.3859 7.99621 90.4499 7.97502 88.535C7.95382 86.6201 7.97501 84.6487 7.80896 82.7056C7.65282 80.8712 7.39689 79.0466 7.04231 77.2401C6.94206 76.7793 6.86658 76.3134 6.8162 75.8445C6.78441 75.4094 6.78441 74.9725 6.8162 74.5373C6.88844 73.6382 7.01944 72.7449 7.20836 71.8629C7.54399 70.1741 7.94322 68.4394 7.70297 66.7118C7.67118 66.4892 7.62879 66.2702 7.57932 66.0547C7.574 66.0462 7.56608 66.0397 7.55675 66.0362C7.54741 66.0326 7.53718 66.0322 7.5276 66.035C7.51802 66.0378 7.50961 66.0437 7.50364 66.0517C7.49767 66.0597 7.49447 66.0694 7.49453 66.0794H7.4804Z" fill="#CEDCEA"/>
</g>
</g>
<path d="M23.5482 28.8066C24.1558 29.1988 25.1698 30.3329 24.0499 33.2547C24.0499 33.2547 23.2514 30.8204 22.7285 29.6122C23.0347 29.3794 23.3101 29.1087 23.5482 28.8066Z" fill="#2C2D53"/>
<path d="M6.09474 33.2548C6.09474 33.2548 2.72428 22.9597 13.2667 21.2426C23.8091 19.5256 27.1725 27.39 21.9013 30.121C19.1913 30.6825 16.4255 30.9291 13.6589 30.8559C9.60652 30.6686 6.82607 32.1348 6.09474 33.2548Z" fill="#2C2D53"/>
<path d="M7.19351 34.4988C8.92467 34.8521 9.21791 36.7705 9.21791 36.7705L11.0692 33.2552L11.3024 30.941C12.0844 30.8509 12.8727 30.826 13.6589 30.8669C16.4255 30.9401 19.1913 30.6935 21.9013 30.132C22.2253 29.9665 22.5319 29.7688 22.8164 29.542C23.3746 31.0329 24.5581 34.3574 24.3567 35.2583C24.0988 36.4278 22.0497 42.5292 20.9262 43.9424C20.0182 45.0871 18.7605 47.0302 18.3118 47.7298C18.2607 47.811 18.1906 47.8786 18.1075 47.9266C18.0243 47.9747 17.9308 48.0017 17.8349 48.0053C17.0611 48.0407 15.0827 48.1113 14.535 48.0053C13.9874 47.8993 10.8643 45.0094 9.39102 43.6386C9.15146 43.4161 8.96037 43.1466 8.82967 42.8469C8.69898 42.5472 8.63149 42.2238 8.63143 41.8968V39.8548C8.63143 39.8548 7.10518 40.2434 6.15834 38.4416C5.21151 36.6397 5.46234 34.1313 7.19351 34.4988Z" fill="#C9887E"/>
<path d="M13.44 30.8563C13.3835 31.8526 13.3411 33.4247 13.5106 33.6826C13.5106 33.6826 11.9985 33.778 11.6558 34.5094C11.3131 35.2407 10.8256 38.4168 10.8256 38.4168H9.41238C9.41238 38.4168 8.88243 35.6364 7.94619 35.0004C7.19366 34.4846 6.45527 34.3327 6.25742 34.626C6.11257 34.845 6.09137 33.9194 6.19736 33.0997C7.04174 32.0363 9.67382 30.7291 13.44 30.8563Z" fill="#C9887E"/>
<path d="M13.44 30.8563C13.3835 31.8526 13.3411 33.4247 13.5106 33.6826C13.5106 33.6826 11.9985 33.778 11.6558 34.5094C11.3131 35.2407 10.8256 38.4168 10.8256 38.4168H9.41238C9.41238 38.4168 8.88243 35.6364 7.94619 35.0004C7.19366 34.4846 6.45527 34.3327 6.25742 34.626C6.11257 34.845 6.09137 33.9194 6.19736 33.0997C7.04174 32.0363 9.67382 30.7291 13.44 30.8563Z" fill="url(#paint2_linear_11422_3624)"/>
<path d="M7.36032 39.6704C7.75428 39.8646 8.20069 39.9253 8.6322 39.8435V41.8856C8.63226 42.2125 8.69974 42.536 8.83044 42.8356C8.96113 43.1353 9.15223 43.4049 9.39179 43.6274C10.865 44.9981 14.0165 47.8669 14.5358 47.9941C15.1364 48.0598 15.7411 48.0799 16.3447 48.0542L15.8218 50.6757C8.53328 52.368 5.57617 47.3582 5.57617 47.3582L7.36032 39.6704Z" fill="#C9887E"/>
<path d="M31.6324 67.722C31.7807 66.4571 31.8302 63.9205 31.8337 61.087L32.6322 60.2426C32.6322 60.2426 35.8119 49.9016 36.5715 45.7998H41.2032C41.3092 50.057 41.5106 60.285 41.1537 63.3022C40.698 67.139 38.8785 72.4102 38.0306 72.9932C37.1827 73.5761 33.579 74.4064 30.6113 72.5162C31.0774 70.9475 31.4188 69.3444 31.6324 67.722Z" fill="#C9887E"/>
<g style="mix-blend-mode:multiply" opacity="0.4">
<path d="M32.0948 72.1346C32.0948 72.1346 34.4619 68.2943 35.1402 66.5985C35.7055 65.1853 37.6133 50.6047 38.2492 45.7998H36.5711C35.815 49.9016 32.6318 60.2426 32.6318 60.2426L31.8334 61.087C31.8334 63.9134 31.7804 66.4571 31.632 67.722C31.4173 69.3445 31.0747 70.9476 30.6074 72.5162C30.9947 72.761 31.4039 72.9691 31.8298 73.138C31.8999 72.799 31.9883 72.464 32.0948 72.1346Z" fill="#C9887E"/>
</g>
<path d="M37.9277 69.9342L43.5169 68.0229V53.8203L37.9277 54.7919V69.9342Z" fill="#025057"/>
<path d="M38.4362 44.6523C38.6482 45.4508 39.1183 46.1568 39.7733 46.6603C40.4283 47.1639 41.2314 47.4367 42.0575 47.4363H47.0991V32.7886H40.8669C40.3832 32.7894 39.9133 32.9498 39.53 33.2449C39.1467 33.54 38.8715 33.9534 38.7471 34.4208L38.4397 35.5726C37.6437 38.5466 37.6425 41.6776 38.4362 44.6523Z" fill="#025057"/>
<path d="M43.9292 33.9085C44.3521 33.5167 44.851 33.216 45.3949 33.0252C45.9389 32.8343 46.5163 32.7574 47.0912 32.7991L63.4065 33.9968C64.2448 34.0592 65.0284 34.4361 65.6004 35.052C66.1724 35.6679 66.4905 36.4773 66.4908 37.3178V43.4581C66.4916 44.0969 66.2529 44.7129 65.8219 45.1844C65.3909 45.6559 64.7989 45.9488 64.1626 46.0054L58.6935 46.4965C58.2398 46.5379 57.7867 46.4105 57.421 46.1386C57.0553 45.8668 56.8027 45.4697 56.7115 45.0232L56.5349 44.1541C56.5106 44.0391 56.4474 43.936 56.3561 43.862C56.2648 43.788 56.1508 43.7477 56.0332 43.7478H55.9096C55.7986 43.7481 55.6907 43.7844 55.6021 43.8513C55.5135 43.9182 55.4491 44.0121 55.4185 44.1188L54.991 45.6203C54.8888 45.9815 54.6794 46.3033 54.3905 46.543C54.1016 46.7827 53.7468 46.9291 53.3729 46.9628L48.4762 47.4009C47.7294 47.4681 46.9768 47.3791 46.2664 47.1394C45.556 46.8997 44.9033 46.5147 44.3498 46.0088C43.7964 45.5029 43.3545 44.8873 43.0521 44.2012C42.7498 43.5151 42.5937 42.7735 42.5938 42.0237V36.9786C42.5934 36.4026 42.7117 35.8326 42.9415 35.3044C43.1713 34.7761 43.5075 34.3009 43.9292 33.9085Z" fill="#3598A1"/>
<path d="M48.5925 35.6499H51.1327C48.9034 35.6499 47.0981 37.7238 47.0981 40.2781C47.0981 42.8325 48.9034 44.9134 51.1327 44.9134H48.5925C46.3597 44.9134 44.5508 42.8395 44.5508 40.2781C44.5508 37.7167 46.3597 35.6499 48.5925 35.6499Z" fill="#025057"/>
<path d="M47.0996 40.282C47.0996 42.8399 48.905 44.9102 51.1343 44.9102C53.3636 44.9102 55.1725 42.8399 55.1725 40.282C55.1725 37.7241 53.3636 35.6538 51.1343 35.6538C48.905 35.6538 47.0996 37.7277 47.0996 40.282Z" fill="#81BFC4"/>
<path d="M47.6719 40.2821C47.6719 42.4867 49.2299 44.2708 51.1483 44.2708C53.0667 44.2708 54.6248 42.4867 54.6248 40.2821C54.6248 38.0775 53.0703 36.2969 51.1483 36.2969C49.2264 36.2969 47.6719 38.081 47.6719 40.2821Z" fill="#025057"/>
<path d="M61.3786 36.0806H63.3288C61.3079 36.0806 59.6721 37.9601 59.6721 40.2777C59.6721 42.5954 61.3079 44.4749 63.3288 44.4749H61.3786C59.3542 44.4749 57.7148 42.5954 57.7148 40.2742C57.7148 37.953 59.3542 36.0806 61.3786 36.0806Z" fill="#025057"/>
<path d="M59.6836 40.2813C59.6836 42.5989 61.3194 44.4785 63.3402 44.4785C65.3611 44.4785 67.0004 42.5989 67.0004 40.2813C67.0004 37.9636 65.354 36.0806 63.3296 36.0806C61.3052 36.0806 59.6836 37.9636 59.6836 40.2813Z" fill="#81BFC4"/>
<path d="M60.1172 40.2819C60.1172 42.3169 61.5551 43.9668 63.3287 43.9668C65.1022 43.9668 66.5437 42.3169 66.5437 40.2819C66.5437 38.247 65.1058 36.6006 63.3287 36.6006C61.5516 36.6006 60.1172 38.2505 60.1172 40.2819Z" fill="#025057"/>
<path d="M55.9108 43.7481H56.0344C56.152 43.748 56.266 43.7883 56.3573 43.8623C56.4486 43.9362 56.5118 44.0394 56.5361 44.1544L56.7127 45.0235C56.78 45.3568 56.938 45.6652 57.1692 45.9145C57.4005 46.1639 57.6961 46.3446 58.0235 46.4367L54.9922 45.6206L55.4197 44.1049C55.4523 44.0006 55.5177 43.9095 55.6062 43.8452C55.6946 43.781 55.8014 43.7469 55.9108 43.7481Z" fill="#026770"/>
<path d="M39.0935 33.689C38.9304 33.9081 38.8105 34.1563 38.7402 34.4203L38.4328 35.572C37.6379 38.5464 37.6379 41.6774 38.4328 44.6518C38.6128 45.3287 38.9802 45.941 39.4927 46.4183L18.7011 42.4649C18.1445 42.3588 17.6424 42.0618 17.2812 41.6252C16.92 41.1886 16.7225 40.6397 16.7227 40.0731V37.8897C16.722 37.28 16.9499 36.6923 17.3612 36.2423C17.7726 35.7924 18.3376 35.5129 18.9449 35.459L39.0935 33.689Z" fill="#026770"/>
<path d="M37.9514 38.162C37.8831 38.7732 37.8466 39.3876 37.8419 40.0027L16.644 38.0171C16.6059 38.013 16.569 38.0012 16.5356 37.9824C16.5022 37.9635 16.473 37.9381 16.4497 37.9076C16.4264 37.8773 16.4097 37.8425 16.4006 37.8054C16.3914 37.7683 16.3901 37.7297 16.3967 37.6921C16.4176 37.589 16.4747 37.4968 16.5576 37.432C16.6405 37.3672 16.7438 37.3342 16.8489 37.3388L37.9514 38.162Z" fill="#025057"/>
<path d="M53.3732 46.977C53.8189 46.9351 54.2344 46.733 54.5426 46.4082V52.3012H51.5996V47.136L53.3732 46.977Z" fill="#3598A1"/>
<path d="M51.0135 52.3013H53.9565L33.0306 56.4843H28.9395L51.0135 52.3013Z" fill="white" stroke="#025057" stroke-width="0.356814" stroke-miterlimit="10"/>
<path d="M53.3737 46.9767C53.5751 46.9563 53.7719 46.9039 53.9566 46.8213V52.3009H51.0137V47.1887L53.3737 46.9767Z" fill="#3598A1"/>
<path d="M33.6133 55.2117L54.5426 51.0181V52.3005L33.6133 56.4836V55.2117Z" fill="#3598A1"/>
<path d="M29.5215 55.0778L50.9384 51.1562H54.3018L33.0297 56.484L29.5215 55.0778Z" fill="#3598A1"/>
<path d="M29.5215 39.2256L33.6127 39.6142V56.4842H29.5215V39.2256Z" fill="#3598A1"/>
<path d="M28.9395 39.2256L33.0306 39.6142V56.4842H28.9395V39.2256Z" fill="#025057"/>
<path d="M43.4592 65.8779L47.8436 67.436L42.7703 69.1742L35.8951 71.672H32.5176L37.9266 65.8779" fill="#025057"/>
<path d="M46.3117 65.041L51.1483 66.5991L45.6192 68.3373L35.8965 71.6724L40.7225 66.7545" fill="#3598A1"/>
<path d="M40.7227 69.9342L46.3118 68.0229V53.8203L40.7227 54.7919V69.9342Z" fill="#3598A1"/>
<path d="M35.8965 75.1555L50.6926 69.584V66.5986L35.8965 71.672V75.1555Z" fill="#3598A1"/>
<path d="M51.1436 66.5986H50.6914V69.5416H51.1436V66.5986Z" fill="#3598A1"/>
<path d="M36.4922 75.1555L51.147 69.5416V66.5986L36.4922 71.672V75.1555Z" fill="#3598A1"/>
<path d="M36.4935 71.0469H35.8965V75.1592H36.4935V71.0469Z" fill="#025057"/>
<path d="M5.98273 45.6206L5.5835 47.3518C5.99161 47.9739 6.49468 48.5282 7.07441 48.9946C3.17754 46.518 5.98273 45.6206 5.98273 45.6206Z" fill="#02737D"/>
<path d="M51.6379 36.4941C53.0511 37.01 54.0509 38.5079 54.0509 40.2815C54.0504 40.5781 54.0208 40.8739 53.9626 41.1647H52.1007L50.5215 38.4302L51.6379 36.4941Z" fill="#02737D"/>
<path d="M47.6719 40.6953H48.8625L50.0001 42.6173L49.3712 43.7301C48.8805 43.3822 48.4733 42.9293 48.1794 42.4043C47.8855 41.8794 47.7121 41.2956 47.6719 40.6953Z" fill="#02737D"/>
<path d="M60.2559 41.3377L61.1992 41.1787L62.6123 42.9028L62.2873 43.7649C61.782 43.548 61.3349 43.2153 60.982 42.7937C60.6291 42.372 60.3803 41.8733 60.2559 41.3377Z" fill="#02737D"/>
<path d="M53.4443 40.2821C53.4443 38.3107 52.1936 36.6749 50.5508 36.3569C50.7426 36.3174 50.9379 36.2973 51.1337 36.2969C53.0557 36.2969 54.6102 38.0634 54.6102 40.2821C54.6102 42.5008 53.0557 44.2708 51.1337 44.2708C50.938 44.2687 50.7428 44.2486 50.5508 44.2107C52.1936 43.8892 53.4443 42.257 53.4443 40.2821Z" fill="#025057"/>
<path d="M64.1523 36.8198C64.8105 37.1278 65.3628 37.6235 65.74 38.2446C66.1172 38.8657 66.3023 39.5844 66.2721 40.3104C66.2681 40.5475 66.2445 40.7838 66.2015 41.017H64.5092L63.1172 38.604L64.1523 36.8198Z" fill="#02737D"/>
<path d="M65.6636 40.3205C65.6813 38.448 64.473 36.8935 62.8973 36.6497C63.0396 36.6244 63.1838 36.6114 63.3283 36.6108C65.0948 36.6108 66.5434 38.2607 66.5434 40.2922C66.5434 42.3237 65.1054 43.9771 63.3283 43.9771C63.1804 43.9748 63.0328 43.9618 62.8867 43.9382C64.4412 43.6803 65.6495 42.1611 65.6636 40.3205Z" fill="#025057"/>
<g style="mix-blend-mode:multiply" opacity="0.4">
<path d="M7.19351 34.4986C8.92467 34.8519 9.21437 36.7703 9.21437 36.7703L11.0692 33.255L11.3024 30.9409C12.0844 30.8507 12.8727 30.8259 13.6589 30.8667C14.104 30.8879 14.5527 30.895 14.9979 30.8914C14.9979 30.9374 14.9802 30.9833 14.9696 31.0328C14.5641 31.6934 14.3494 32.4534 14.3494 33.2285C14.3494 34.0036 14.5641 34.7636 14.9696 35.4242C16.3828 37.6924 14.6552 39.6638 14.6552 39.6638L13.5105 41.1724V46.8817L13.2278 47.0513C12.0337 46.0585 10.3555 44.5181 9.39102 43.6208C9.15146 43.3983 8.96037 43.1287 8.82967 42.829C8.69898 42.5294 8.63149 42.2059 8.63143 41.879V39.8369C8.63143 39.8369 7.10518 40.2256 6.15834 38.4237C5.21151 36.6219 5.46234 34.1312 7.19351 34.4986Z" fill="#C9887E"/>
</g>
<g style="mix-blend-mode:multiply" opacity="0.6">
<path d="M8.631 39.8435V41.8856C8.63106 42.2125 8.69855 42.536 8.82924 42.8356C8.95994 43.1353 9.15103 43.4048 9.39059 43.6273C10.6413 44.7897 13.0967 47.0402 14.1283 47.7609C13.4217 48.0082 12.595 48.411 12.2947 49.0222C12.0068 49.6447 11.751 50.2814 11.5281 50.93C10.34 50.7914 9.19523 50.4011 8.16993 49.7852C7.14463 49.1693 6.26239 48.3419 5.58203 47.3582L7.34853 39.6704C7.74556 39.8669 8.19608 39.9277 8.631 39.8435Z" fill="#C9887E"/>
</g>
<g style="mix-blend-mode:multiply" opacity="0.4">
<path d="M10.0549 23.7337C17.1562 20.5894 15.0011 30.5241 15.0011 30.5241L14.8492 30.8774C14.4535 30.8774 14.0578 30.8774 13.6621 30.8527C9.60978 30.6548 6.82932 32.121 6.09799 33.241C5.56203 31.4117 5.45324 29.4838 5.78002 27.6059C6.77896 25.9112 8.26999 24.5606 10.0549 23.7337Z" fill="#C9887E"/>
</g>
<path d="M14.1289 50.6228L14.5387 52.2869L16.1498 51.7075L15.8212 49.729L14.1289 50.6228Z" fill="#C9887E"/>
<path d="M6.28319 44.5601L3.10352 45.4044C3.86449 46.1374 4.69247 46.7974 5.5766 47.3758C5.86906 46.4525 6.10503 45.5121 6.28319 44.5601Z" fill="black"/>
<path d="M14.5384 52.2872L14.4182 51.6583C14.5066 51.1178 14.4571 50.5066 13.7116 50.6408H13.5703V51.0895C13.5703 51.0895 13.7646 52.4674 13.8741 52.9337C13.9342 53.1917 16.5945 59.6817 16.7005 60.2152C17.5025 60.3707 19.0676 61.9817 19.8802 62.1266L16.1247 51.7219L14.5384 52.2872Z" fill="#02737D"/>
<path d="M16.3451 48.0508L18.3095 48.4429L17.3273 50.6228L16.1508 51.7074L15.8223 50.6758L16.3451 48.0508Z" fill="black"/>
<path d="M19.9052 51.1562L18.3083 48.4429L17.3262 50.6227L18.3083 50.7958L19.9052 51.1562Z" fill="#02737D"/>
<g style="mix-blend-mode:multiply" opacity="0.4">
<path d="M13.1758 75.1562C11.7645 74.6307 10.4045 73.9767 9.11287 73.2024L6.92595 73.1035L6.89062 76.7248C6.89062 76.7248 11.1302 77.0569 15.3238 77.3714C16.5145 76.9333 17.4896 76.6824 17.4896 76.6824L13.1758 75.1562Z" fill="#3598A1"/>
</g>
<g style="mix-blend-mode:multiply">
<g style="mix-blend-mode:multiply">
<path d="M6.66369 72.8242C4.93607 71.7183 3.48402 70.1568 1.59387 69.3265C1.12298 69.1144 0.620546 68.9807 0.106487 68.9308C0.10063 68.9303 0.0947354 68.931 0.0891767 68.933C0.083618 68.9349 0.0785197 68.9379 0.0742008 68.9419C0.0698818 68.9459 0.0664355 68.9507 0.0640875 68.9561C0.0617394 68.9615 0.0605414 68.9673 0.0605618 68.9732C0.0589933 69.4339 0.180997 69.8865 0.41386 70.2839C0.647666 70.6594 0.951051 70.9868 1.3077 71.2485C2.05669 71.8314 2.92934 72.2271 3.72073 72.75C4.15386 73.0168 4.53363 73.3618 4.84068 73.7675C4.87248 73.8134 4.9502 73.7675 4.91841 73.7215C4.39906 72.9902 3.57587 72.538 2.81628 72.0999C2.05669 71.6618 1.15932 71.1884 0.618773 70.4359C0.313416 70.0095 0.15023 69.4977 0.152417 68.9732L0.110023 69.0191C1.07689 69.1486 1.99744 69.5125 2.79155 70.079C3.67126 70.6443 4.48385 71.312 5.31057 71.9515C5.73806 72.2801 6.16908 72.6051 6.62483 72.8948C6.67076 72.9266 6.71669 72.8489 6.66723 72.8206L6.66369 72.8242Z" fill="#DBE7EF"/>
</g>
</g>
<path d="M23.6761 62.2992C24.4991 60.9022 25.1537 59.4127 25.6263 57.8617L25.4567 57.837C25.6084 59.2668 25.5031 60.7121 25.1458 62.1049C25.0396 62.5082 24.9087 62.9047 24.7537 63.2919C24.7148 63.3944 24.8809 63.4403 24.9197 63.3379C25.4528 61.9705 25.7155 60.5127 25.6934 59.0453C25.6934 58.6425 25.6687 58.2398 25.6299 57.837C25.6273 57.8176 25.6184 57.7997 25.6045 57.7859C25.5907 57.7721 25.5726 57.7634 25.5532 57.7609C25.5339 57.7585 25.5142 57.7626 25.4974 57.7725C25.4806 57.7824 25.4675 57.7977 25.4603 57.8158C24.9916 59.3564 24.3429 60.8363 23.5277 62.225C23.4677 62.3204 23.616 62.4052 23.6761 62.3133V62.2992Z" fill="#DBE7EF"/>
<g style="mix-blend-mode:multiply">
<g style="mix-blend-mode:multiply">
<path d="M2.36365 57.3809C3.04125 58.5327 3.54597 59.7778 3.86163 61.0764C3.95349 61.4297 4.03828 61.783 4.11954 62.1363L4.19373 62.0939C3.43962 61.2497 2.73198 60.3652 2.07395 59.4442C2.03862 59.3982 1.97502 59.4618 2.01035 59.5042C2.6675 60.4259 3.37518 61.3105 4.13014 62.1539C4.13576 62.1638 4.14506 62.171 4.15599 62.174C4.16692 62.1769 4.17859 62.1755 4.18843 62.1698C4.19827 62.1642 4.20547 62.1549 4.20846 62.144C4.21144 62.1331 4.20995 62.1214 4.20433 62.1115C3.93692 60.8122 3.52574 59.5467 2.97839 58.3383C2.81686 57.9994 2.6376 57.6692 2.44137 57.3491C2.40958 57.3032 2.33539 57.3491 2.36365 57.395V57.3809Z" fill="#DBE7EF"/>
</g>
</g>
<path d="M-7.91602 85.6589H-3.05817L57.0202 65.0898H54.2786L-7.91602 85.6589Z" fill="white"/>
<path d="M-3.27734 85.6381L57.02 65.0161V67.9308L-3.27734 90.8175V85.6381Z" fill="#EEF5FB"/>
<path d="M41.96 74.803L40.7871 75.2553V74.1812L41.9636 73.6689L41.96 74.803Z" fill="#BBCDE0"/>
<path d="M56.1113 68.2775L57.1182 67.9136V68.9593L56.1113 69.348V68.2775Z" fill="#BBCDE0"/>
<path d="M52.6101 70.6974L51.6738 71.0578V70.0049L52.6101 69.5986V70.6974Z" fill="#BBCDE0"/>
<path d="M47.6573 72.6054L46.6328 73.0011V71.9659L47.6609 71.5137L47.6573 72.6054Z" fill="#BBCDE0"/>
<path d="M35.491 77.2976L34.1309 77.8204V76.6863L35.4981 76.1069L35.491 77.2976Z" fill="#BBCDE0"/>
<path d="M4.49023 95.435V87.8709L7.51447 86.7227V95.2972C6.61356 95.3466 5.59959 95.3926 4.49023 95.435Z" fill="#BBCDE0"/>
<path d="M7.51367 95.2975V86.7654L9.72531 85.8574L9.69705 95.1527C9.07878 95.1986 8.34745 95.2516 7.51367 95.2975Z" fill="white"/>
<path d="M56.1133 91.5492V68.2669L57.1202 67.9136V91.6128L56.1133 91.5492Z" fill="white"/>
<path d="M51.6758 91.3863V69.9976L52.612 69.5913L52.5767 91.4075L51.6758 91.3863Z" fill="white"/>
<path d="M44.6172 91.3231V72.6407L46.6345 71.874V91.3054C45.9527 91.3125 45.2814 91.316 44.6172 91.3231Z" fill="#BBCDE0"/>
<path d="M49.6582 91.3406V70.7256L51.6755 69.959V91.3865L49.6582 91.3406Z" fill="#BBCDE0"/>
<path d="M54.2969 91.4784V68.9663L56.1128 68.2773V91.5491C55.5016 91.5279 54.8975 91.4996 54.2969 91.4784Z" fill="#BBCDE0"/>
<path d="M46.6348 91.3125V71.9694L47.6629 71.5137L47.6028 91.3196L46.6348 91.3125Z" fill="white"/>
<path d="M38.5684 91.4783V74.944L40.7871 74.0996V91.4112C40.0345 91.4182 39.2926 91.4465 38.5684 91.4783Z" fill="#BBCDE0"/>
<path d="M40.7871 91.3979V74.1817L41.9636 73.6694L41.8894 91.3697L40.7871 91.3979Z" fill="white"/>
<path d="M31.5098 91.9023V77.615L34.1312 76.6187V91.7186C33.2339 91.7787 32.3577 91.8458 31.5098 91.9023Z" fill="#BBCDE0"/>
<path d="M34.1309 91.7187V76.6858L35.4946 76.1064L35.4416 91.6516L34.1309 91.7187Z" fill="white"/>
<path d="M15.1699 94.1987V83.8153L17.9963 82.7554V93.6688C16.9364 93.8454 15.9754 94.0221 15.1699 94.1987Z" fill="#BBCDE0"/>
<path d="M17.9961 93.6688V82.8226L19.8368 82.0488L19.7944 93.3544C19.162 93.4462 18.5614 93.5487 17.9961 93.6688Z" fill="white"/>
<path d="M24.25 92.6867V80.3707L26.6701 79.4521V92.3935C25.8328 92.4889 25.0237 92.5878 24.25 92.6867Z" fill="#BBCDE0"/>
<path d="M26.6699 92.3937V79.4841L28.2704 78.8164L28.2421 92.2205L26.6699 92.3937Z" fill="white"/>
<path d="M28.2684 80.0807L26.668 80.6955V79.4837L28.2684 78.8159V80.0807Z" fill="#BBCDE0"/>
<path d="M19.8352 83.3313L17.998 84.0379V82.8226L19.8387 82.0488L19.8352 83.3313Z" fill="#BBCDE0"/>
<path d="M7.51172 86.7649L9.72336 85.8569L9.71983 87.2277L7.51172 88.0792V86.7649Z" fill="#BBCDE0"/>
<path d="M43.4592 65.8779L47.8436 67.436L42.7703 69.1742L35.8951 71.672H32.5176L37.9266 65.8779" fill="#025057"/>
<path d="M46.3117 65.041L51.1483 66.5991L45.6192 68.3373L35.8965 71.6724L40.7225 66.7545" fill="#3598A1"/>
<path d="M40.7227 69.9342L46.3118 68.0229V53.8203L40.7227 54.7919V69.9342Z" fill="#3598A1"/>
<path d="M35.8965 75.1555L50.6926 69.584V66.5986L35.8965 71.672V75.1555Z" fill="#3598A1"/>
<path d="M51.1436 66.5986H50.6914V69.5416H51.1436V66.5986Z" fill="#3598A1"/>
<path d="M36.4922 75.1555L51.147 69.5416V66.5986L36.4922 71.672V75.1555Z" fill="#3598A1"/>
<path d="M2.94703 56.113C5.69216 51.8734 10.9634 55.0071 10.9634 55.0071C12.0939 55.4629 23.1062 64.3095 23.1062 64.3095L22.0004 65.4789C17.4464 72.9582 20.7356 76.3463 20.7356 76.3463C21.1194 76.6226 21.5301 76.8593 21.9615 77.0529H20.7356C11.7265 75.4913 5.47665 70.5452 3.65363 68.2699C1.83061 65.9947 0.205439 60.3419 2.94703 56.113Z" fill="#EEF5FB"/>
<path d="M19.7963 70.7324C19.768 70.7324 22.0185 65.4576 22.0009 65.4788C15.8853 73.4846 2.12784 58.7132 2.12784 58.7132L2.5306 56.8301C0.389616 60.9637 1.93353 66.1289 3.65409 68.2805C5.47711 70.5557 10.5717 76.106 20.7361 77.0635H21.962C21.5306 76.8699 21.1198 76.6331 20.7361 76.3569C20.7361 76.3569 19.0084 74.5621 19.7963 70.7324Z" fill="#CEDCEA"/>
<path d="M20.6412 62.3417L20.0406 61.8648L19.9064 61.7588C17.189 66.0268 15.5173 70.876 15.0273 75.9119C15.3806 76.0462 15.7622 76.1733 16.1402 76.297C16.3875 70.9269 20.8886 62.5431 20.8921 62.5396L20.6412 62.3417Z" fill="#3598A1"/>
<path d="M31.6322 47.9799C31.6322 47.9799 32.0879 63.525 31.6322 67.3689C31.1764 71.2127 29.3534 76.4769 28.509 77.0634C27.6646 77.6498 23.7642 78.5578 20.7365 76.3568C20.7365 76.3568 17.4472 72.9686 22.0013 65.4893L23.1071 64.3199C23.1071 64.3199 27.1418 51.2126 27.2053 48.6582C27.2053 48.6582 27.4032 47.9693 26.7531 46.973C26.103 45.9767 24.1493 41.2248 23.955 40.8327C23.7607 40.4405 23.3261 38.7871 23.6406 38.0875C23.955 37.388 25.082 35.5756 25.6367 34.6711C25.7267 34.5136 25.8497 34.3775 25.9973 34.272C26.1449 34.1665 26.3135 34.0941 26.4917 34.0599C26.8381 33.991 27.1965 34.0154 27.5304 34.1306L29.3534 32.6503C29.4484 32.5746 29.558 32.5196 29.6754 32.4885C29.7928 32.4575 29.9153 32.4512 30.0353 32.4701C30.3144 32.516 30.6253 32.6291 30.5899 32.9117C30.5899 32.9117 31.7629 32.8305 31.4343 33.4841L30.7277 34.2966C30.7277 34.2966 31.6392 34.1977 31.1164 35.0456C30.5935 35.8936 29.9469 37.1266 29.9469 37.1266C29.7203 37.5366 29.5458 37.9734 29.4276 38.4267C29.3605 38.8825 29.5548 40.444 29.9469 40.9634C30.3391 41.4827 31.8406 42.9171 31.8406 42.9171C31.8406 42.9171 32.5401 44.401 31.6322 47.9799Z" fill="#C9887E"/>
<g style="mix-blend-mode:multiply" opacity="0.4">
<path d="M27.6602 38.2569C27.6602 38.2569 28.5257 35.9534 29.1617 35.4765C29.7976 34.9995 30.7904 34.2046 30.7904 34.2046" stroke="#C9887E" stroke-width="0.356814" stroke-miterlimit="10"/>
</g>
<g style="mix-blend-mode:multiply" opacity="0.4">
<path d="M26.248 38.1337C26.248 38.1337 27.149 35.756 27.3468 35.6218C27.5447 35.4875 29.3959 34.0143 29.3959 34.0143L30.5901 32.9014" stroke="#C9887E" stroke-width="0.356814" stroke-miterlimit="10"/>
</g>
<g style="mix-blend-mode:multiply" opacity="0.4">
<path d="M25.332 37.4417L26.2471 35.1735L29.5116 32.499" stroke="#C9887E" stroke-width="0.356814" stroke-miterlimit="10"/>
</g>
<g style="mix-blend-mode:multiply" opacity="0.4">
<path d="M23.1059 64.3099C23.1059 64.3099 27.1405 51.2025 27.2041 48.6482C27.2041 48.6482 27.402 47.9593 26.7519 46.963C26.1018 45.9667 24.1481 41.2148 23.9538 40.8226C23.7595 40.4305 23.3249 38.777 23.6393 38.0775C23.9538 37.378 25.0808 35.5656 25.6355 34.6611C25.726 34.5041 25.8492 34.3682 25.9967 34.2628C26.1442 34.1574 26.3126 34.0848 26.4905 34.0499C26.8368 33.981 27.1953 34.0054 27.5292 34.1206L29.3522 32.6438C29.4464 32.5668 29.5559 32.5106 29.6734 32.4789C29.791 32.4472 29.9139 32.4408 30.034 32.4601C30.3131 32.506 30.624 32.6191 30.5887 32.9017C30.5887 32.9017 31.7617 32.8204 31.4331 33.474L30.7265 34.2866C30.7265 34.2866 31.0798 34.3714 31.1717 34.3785L28.9459 36.9717C27.4267 41.0346 29.1225 42.7198 29.9281 46.0832C30.7336 49.4466 26.6918 62.9956 26.6918 62.9956C22.8727 74.983 25.1303 77.7529 25.1303 77.7529C23.5566 77.7471 22.0236 77.2533 20.7423 76.3397C20.7423 76.3397 17.4531 72.9516 22.0071 65.4722L23.1059 64.3099Z" fill="#C9887E"/>
</g>
<g style="mix-blend-mode:multiply" opacity="0.6">
<g style="mix-blend-mode:multiply" opacity="0.6">
<path d="M23.9993 59.706C24.2205 59.0442 24.3709 58.3609 24.448 57.6675C24.5611 56.9002 24.5611 56.1206 24.448 55.3534C24.4007 55.0047 24.2803 54.67 24.0947 54.3712C24.0908 54.3638 24.0849 54.3576 24.0778 54.3533C24.0706 54.349 24.0624 54.3467 24.0541 54.3467C24.0457 54.3467 24.0375 54.349 24.0303 54.3533C24.0232 54.3576 24.0173 54.3638 24.0134 54.3712C23.7449 55.4805 24.0947 56.6217 24.0982 57.7381C24.0963 57.7449 24.0959 57.7521 24.0972 57.7591C24.0985 57.7661 24.1014 57.7727 24.1057 57.7784C24.11 57.7841 24.1155 57.7887 24.1219 57.7918C24.1283 57.795 24.1353 57.7967 24.1424 57.7967C24.1495 57.7967 24.1565 57.795 24.1629 57.7918C24.1692 57.7887 24.1748 57.7841 24.1791 57.7784C24.1833 57.7727 24.1862 57.7661 24.1875 57.7591C24.1888 57.7521 24.1885 57.7449 24.1865 57.7381C24.1865 56.6288 23.8332 55.4947 24.0982 54.3959H24.017C24.395 54.9471 24.4445 55.689 24.4515 56.3355C24.4496 57.1124 24.3655 57.8869 24.2007 58.6461C24.1321 58.99 24.04 59.3288 23.9251 59.66C23.9039 59.713 23.9922 59.7378 24.0099 59.6848L23.9993 59.706Z" fill="#CEDCEA"/>
</g>
</g>
<path d="M2.94703 56.113C5.69216 51.8734 10.9634 55.0071 10.9634 55.0071C12.0939 55.4629 23.1062 64.3095 23.1062 64.3095L22.0004 65.4789C17.4464 72.9582 20.7356 76.3463 20.7356 76.3463C21.1194 76.6226 21.5301 76.8593 21.9615 77.0529H20.7356C11.7265 75.4913 5.47665 70.5452 3.65363 68.2699C1.83061 65.9947 0.205439 60.3419 2.94703 56.113Z" fill="#EEF5FB"/>
<path d="M23.106 64.3091C23.106 64.3091 12.0937 55.4767 10.9631 55.0068C10.9631 55.0068 7.74102 50.6471 4.84751 49.354L3.10928 49.5589C2.50201 51.6078 2.17169 53.7288 2.12711 55.8653C2.12711 58.031 1.33219 60.2179 1.46645 62.7334C2.13065 65.2983 2.97856 67.4323 3.65336 68.2766C5.47638 70.5519 11.7262 75.4981 20.7353 77.0596H21.9613C21.5299 76.866 21.1191 76.6293 20.7353 76.353C20.7353 76.353 17.4461 72.9649 22.0001 65.4856L23.106 64.3091Z" fill="#EEF5FB"/>
<path d="M19.7957 70.7324C19.7674 70.7324 22.0179 65.4576 22.0002 65.4788C15.8847 73.4846 1.48777 56.8301 1.48777 56.8301C-0.656753 60.9637 1.93292 66.1289 3.65348 68.2805C5.4765 70.5557 10.5711 76.106 20.7354 77.0635H21.9614C21.53 76.8699 21.1192 76.6331 20.7354 76.3569C20.7354 76.3569 19.0078 74.5621 19.7957 70.7324Z" fill="#CEDCEA"/>
<path d="M20.6412 62.3417L20.0406 61.8648L19.9064 61.7588C17.189 66.0268 15.5173 70.876 15.0273 75.9119C15.3806 76.0462 15.7622 76.1733 16.1402 76.297C16.3875 70.9269 20.8886 62.5431 20.8921 62.5396L20.6412 62.3417Z" fill="#3598A1"/>
<path d="M31.6322 47.9799C31.6322 47.9799 32.0879 63.525 31.6322 67.3689C31.1764 71.2127 29.3534 76.4769 28.509 77.0634C27.6646 77.6498 23.7642 78.5578 20.7365 76.3568C20.7365 76.3568 17.4472 72.9686 22.0013 65.4893L23.1071 64.3199C23.1071 64.3199 27.1418 51.2126 27.2053 48.6582C27.2053 48.6582 27.4032 47.9693 26.7531 46.973C26.103 45.9767 24.1493 41.2248 23.955 40.8327C23.7607 40.4405 23.3261 38.7871 23.6406 38.0875C23.955 37.388 25.082 35.5756 25.6367 34.6711C25.7267 34.5136 25.8497 34.3775 25.9973 34.272C26.1449 34.1665 26.3135 34.0941 26.4917 34.0599C26.8381 33.991 27.1965 34.0154 27.5304 34.1306L29.3534 32.6503C29.4484 32.5746 29.558 32.5196 29.6754 32.4885C29.7928 32.4575 29.9153 32.4512 30.0353 32.4701C30.3144 32.516 30.6253 32.6291 30.5899 32.9117C30.5899 32.9117 31.7629 32.8305 31.4343 33.4841L30.7277 34.2966C30.7277 34.2966 31.6392 34.1977 31.1164 35.0456C30.5935 35.8936 29.9469 37.1266 29.9469 37.1266C29.7203 37.5366 29.5458 37.9734 29.4276 38.4267C29.3605 38.8825 29.5548 40.444 29.9469 40.9634C30.3391 41.4827 31.8406 42.9171 31.8406 42.9171C31.8406 42.9171 32.5401 44.401 31.6322 47.9799Z" fill="#C9887E"/>
<g style="mix-blend-mode:multiply" opacity="0.4">
<path d="M27.6602 38.2569C27.6602 38.2569 28.5257 35.9534 29.1617 35.4765C29.7976 34.9995 30.7904 34.2046 30.7904 34.2046" stroke="#C9887E" stroke-width="0.356814" stroke-miterlimit="10"/>
</g>
<g style="mix-blend-mode:multiply" opacity="0.4">
<path d="M26.248 38.1337C26.248 38.1337 27.149 35.756 27.3468 35.6218C27.5447 35.4875 29.3959 34.0143 29.3959 34.0143L30.5901 32.9014" stroke="#C9887E" stroke-width="0.356814" stroke-miterlimit="10"/>
</g>
<g style="mix-blend-mode:multiply" opacity="0.4">
<path d="M25.332 37.4417L26.2471 35.1735L29.5116 32.499" stroke="#C9887E" stroke-width="0.356814" stroke-miterlimit="10"/>
</g>
<g style="mix-blend-mode:multiply" opacity="0.4">
<path d="M23.1059 64.3099C23.1059 64.3099 27.1405 51.2025 27.2041 48.6482C27.2041 48.6482 27.402 47.9593 26.7519 46.963C26.1018 45.9667 24.1481 41.2148 23.9538 40.8226C23.7595 40.4305 23.3249 38.777 23.6393 38.0775C23.9538 37.378 25.0808 35.5656 25.6355 34.6611C25.726 34.5041 25.8492 34.3682 25.9967 34.2628C26.1442 34.1574 26.3126 34.0848 26.4905 34.0499C26.8368 33.981 27.1953 34.0054 27.5292 34.1206L29.3522 32.6438C29.4464 32.5668 29.5559 32.5106 29.6734 32.4789C29.791 32.4472 29.9139 32.4408 30.034 32.4601C30.3131 32.506 30.624 32.6191 30.5887 32.9017C30.5887 32.9017 31.7617 32.8204 31.4331 33.474L30.7265 34.2866C30.7265 34.2866 31.0798 34.3714 31.1717 34.3785L28.9459 36.9717C27.4267 41.0346 29.1225 42.7198 29.9281 46.0832C30.7336 49.4466 26.6918 62.9956 26.6918 62.9956C22.8727 74.983 25.1303 77.7529 25.1303 77.7529C23.5566 77.7471 22.0236 77.2533 20.7423 76.3397C20.7423 76.3397 17.4531 72.9516 22.0071 65.4722L23.1059 64.3099Z" fill="#C9887E"/>
</g>
<g style="mix-blend-mode:multiply" opacity="0.6">
<g style="mix-blend-mode:multiply" opacity="0.6">
<path d="M23.9993 59.706C24.2205 59.0442 24.3709 58.3609 24.448 57.6675C24.5611 56.9002 24.5611 56.1206 24.448 55.3534C24.4007 55.0047 24.2803 54.67 24.0947 54.3712C24.0908 54.3638 24.0849 54.3576 24.0778 54.3533C24.0706 54.349 24.0624 54.3467 24.0541 54.3467C24.0457 54.3467 24.0375 54.349 24.0303 54.3533C24.0232 54.3576 24.0173 54.3638 24.0134 54.3712C23.7449 55.4805 24.0947 56.6217 24.0982 57.7381C24.0963 57.7449 24.0959 57.7521 24.0972 57.7591C24.0985 57.7661 24.1014 57.7727 24.1057 57.7784C24.11 57.7841 24.1155 57.7887 24.1219 57.7918C24.1283 57.795 24.1353 57.7967 24.1424 57.7967C24.1495 57.7967 24.1565 57.795 24.1629 57.7918C24.1692 57.7887 24.1748 57.7841 24.1791 57.7784C24.1833 57.7727 24.1862 57.7661 24.1875 57.7591C24.1888 57.7521 24.1885 57.7449 24.1865 57.7381C24.1865 56.6288 23.8332 55.4947 24.0982 54.3959H24.017C24.395 54.9471 24.4445 55.689 24.4515 56.3355C24.4496 57.1124 24.3655 57.8869 24.2007 58.6461C24.1321 58.99 24.04 59.3288 23.9251 59.66C23.9039 59.713 23.9922 59.7378 24.0099 59.6848L23.9993 59.706Z" fill="#CEDCEA"/>
</g>
</g>
<path d="M20.6412 62.3417L20.0406 61.8648L19.9064 61.7588C17.189 66.0268 15.5173 70.876 15.0273 75.9119C15.3806 76.0462 15.7622 76.1733 16.1402 76.297C16.3875 70.9269 20.8886 62.5431 20.8921 62.5396L20.6412 62.3417Z" fill="#3598A1"/>
<path d="M31.6322 47.9799C31.6322 47.9799 32.0879 63.525 31.6322 67.3689C31.1764 71.2127 29.3534 76.4769 28.509 77.0634C27.6646 77.6498 23.7642 78.5578 20.7365 76.3568C20.7365 76.3568 17.4472 72.9686 22.0013 65.4893L23.1071 64.3199C23.1071 64.3199 27.1418 51.2126 27.2053 48.6582C27.2053 48.6582 27.4032 47.9693 26.7531 46.973C26.103 45.9767 24.1493 41.2248 23.955 40.8327C23.7607 40.4405 23.3261 38.7871 23.6406 38.0875C23.955 37.388 25.082 35.5756 25.6367 34.6711C25.7267 34.5136 25.8497 34.3775 25.9973 34.272C26.1449 34.1665 26.3135 34.0941 26.4917 34.0599C26.8381 33.991 27.1965 34.0154 27.5304 34.1306L29.3534 32.6503C29.4484 32.5746 29.558 32.5196 29.6754 32.4885C29.7928 32.4575 29.9153 32.4512 30.0353 32.4701C30.3144 32.516 30.6253 32.6291 30.5899 32.9117C30.5899 32.9117 31.7629 32.8305 31.4343 33.4841L30.7277 34.2966C30.7277 34.2966 31.6392 34.1977 31.1164 35.0456C30.5935 35.8936 29.9469 37.1266 29.9469 37.1266C29.7203 37.5366 29.5458 37.9734 29.4276 38.4267C29.3605 38.8825 29.5548 40.444 29.9469 40.9634C30.3391 41.4827 31.8406 42.9171 31.8406 42.9171C31.8406 42.9171 32.5401 44.401 31.6322 47.9799Z" fill="#C9887E"/>
<g style="mix-blend-mode:multiply" opacity="0.4">
<path d="M27.6602 38.2569C27.6602 38.2569 28.5257 35.9534 29.1617 35.4765C29.7976 34.9995 30.7904 34.2046 30.7904 34.2046" stroke="#C9887E" stroke-width="0.356814" stroke-miterlimit="10"/>
</g>
<g style="mix-blend-mode:multiply" opacity="0.4">
<path d="M26.248 38.1337C26.248 38.1337 27.149 35.756 27.3468 35.6218C27.5447 35.4875 29.3959 34.0143 29.3959 34.0143L30.5901 32.9014" stroke="#C9887E" stroke-width="0.356814" stroke-miterlimit="10"/>
</g>
<g style="mix-blend-mode:multiply" opacity="0.4">
<path d="M25.332 37.4417L26.2471 35.1735L29.5116 32.499" stroke="#C9887E" stroke-width="0.356814" stroke-miterlimit="10"/>
</g>
<g style="mix-blend-mode:multiply" opacity="0.4">
<path d="M23.1059 64.3099C23.1059 64.3099 27.1405 51.2025 27.2041 48.6482C27.2041 48.6482 27.402 47.9593 26.7519 46.963C26.1018 45.9667 24.1481 41.2148 23.9538 40.8226C23.7595 40.4305 23.3249 38.777 23.6393 38.0775C23.9538 37.378 25.0808 35.5656 25.6355 34.6611C25.726 34.5041 25.8492 34.3682 25.9967 34.2628C26.1442 34.1574 26.3126 34.0848 26.4905 34.0499C26.8368 33.981 27.1953 34.0054 27.5292 34.1206L29.3522 32.6438C29.4464 32.5668 29.5559 32.5106 29.6734 32.4789C29.791 32.4472 29.9139 32.4408 30.034 32.4601C30.3131 32.506 30.624 32.6191 30.5887 32.9017C30.5887 32.9017 31.7617 32.8204 31.4331 33.474L30.7265 34.2866C30.7265 34.2866 31.0798 34.3714 31.1717 34.3785L28.9459 36.9717C27.4267 41.0346 29.1225 42.7198 29.9281 46.0832C30.7336 49.4466 26.6918 62.9956 26.6918 62.9956C22.8727 74.983 25.1303 77.7529 25.1303 77.7529C23.5566 77.7471 22.0236 77.2533 20.7423 76.3397C20.7423 76.3397 17.4531 72.9516 22.0071 65.4722L23.1059 64.3099Z" fill="#C9887E"/>
</g>
<g style="mix-blend-mode:multiply" opacity="0.6">
<g style="mix-blend-mode:multiply" opacity="0.6">
<path d="M23.9993 59.706C24.2205 59.0442 24.3709 58.3609 24.448 57.6675C24.5611 56.9002 24.5611 56.1206 24.448 55.3534C24.4007 55.0047 24.2803 54.67 24.0947 54.3712C24.0908 54.3638 24.0849 54.3576 24.0778 54.3533C24.0706 54.349 24.0624 54.3467 24.0541 54.3467C24.0457 54.3467 24.0375 54.349 24.0303 54.3533C24.0232 54.3576 24.0173 54.3638 24.0134 54.3712C23.7449 55.4805 24.0947 56.6217 24.0982 57.7381C24.0963 57.7449 24.0959 57.7521 24.0972 57.7591C24.0985 57.7661 24.1014 57.7727 24.1057 57.7784C24.11 57.7841 24.1155 57.7887 24.1219 57.7918C24.1283 57.795 24.1353 57.7967 24.1424 57.7967C24.1495 57.7967 24.1565 57.795 24.1629 57.7918C24.1692 57.7887 24.1748 57.7841 24.1791 57.7784C24.1833 57.7727 24.1862 57.7661 24.1875 57.7591C24.1888 57.7521 24.1885 57.7449 24.1865 57.7381C24.1865 56.6288 23.8332 55.4947 24.0982 54.3959H24.017C24.395 54.9471 24.4445 55.689 24.4515 56.3355C24.4496 57.1124 24.3655 57.8869 24.2007 58.6461C24.1321 58.99 24.04 59.3288 23.9251 59.66C23.9039 59.713 23.9922 59.7378 24.0099 59.6848L23.9993 59.706Z" fill="#CEDCEA"/>
</g>
</g>
<g style="mix-blend-mode:multiply" opacity="0.4">
<path d="M18.4685 67.7437C17.9468 67.8402 17.4155 67.8746 16.8857 67.8461C15.9119 70.4406 15.287 73.1529 15.0273 75.9119L15.5538 76.0956C15.7481 76.1522 15.9459 76.2016 16.1438 76.2546C16.2709 73.6826 17.3626 70.4358 18.4685 67.7437Z" fill="#3598A1"/>
</g>
<path d="M3.1097 45.3872L1.92969 48.3337L12.0128 54.7284C12.0128 54.7284 12.7759 55.2902 12.6169 54.0925C12.458 52.8948 12.8431 51.4639 13.3235 51.206L13.8146 50.9446L14.2351 50.7573" fill="#02737D"/>
<path d="M6.64666 76.915C6.11427 76.3937 5.52119 75.9382 4.88017 75.5583C4.24448 75.1664 3.55877 74.8622 2.84163 74.6539C2.82509 74.6498 2.80774 74.6507 2.79167 74.6563C2.77559 74.6619 2.76148 74.672 2.75103 74.6855C2.74058 74.6989 2.73423 74.7151 2.73275 74.732C2.73128 74.749 2.73474 74.766 2.74271 74.7811C3.64715 76.3144 4.78831 77.6816 5.8588 79.0984C6.16264 79.4976 6.46294 79.9039 6.74558 80.3172C6.80918 80.4091 6.96462 80.3172 6.8975 80.2289C5.89413 78.7698 4.73178 77.4273 3.71781 75.9893C3.42811 75.5724 3.149 75.145 2.8911 74.7069L2.79217 74.8376C3.49506 75.0419 4.16667 75.3414 4.78831 75.7279C5.4169 76.0978 5.99822 76.5426 6.51947 77.0528C6.60073 77.134 6.72792 77.0068 6.64666 76.9291V76.915Z" fill="#CEDCEA"/>
<g style="mix-blend-mode:multiply">
<g style="mix-blend-mode:multiply">
<path d="M7.04092 77.4913C7.48608 77.6149 7.93477 77.7209 8.36579 77.887C8.8087 78.0203 9.20055 78.2852 9.48927 78.6466L9.51401 78.583C8.85242 78.6528 8.18382 78.6122 7.53554 78.4628C7.47901 78.4628 7.45781 78.5406 7.51434 78.5512C8.1784 78.6992 8.86208 78.7386 9.53874 78.6678C9.54515 78.666 9.55106 78.6628 9.55599 78.6584C9.56093 78.6539 9.56476 78.6484 9.56716 78.6422C9.56957 78.636 9.57049 78.6294 9.56985 78.6227C9.56921 78.6161 9.56702 78.6098 9.56347 78.6042C9.28598 78.2459 8.90855 77.9779 8.47885 77.834C8.01956 77.6503 7.53907 77.5407 7.06566 77.4029C7.05419 77.4004 7.04218 77.4023 7.0321 77.4084C7.02202 77.4144 7.01463 77.4241 7.01147 77.4354C7.0083 77.4467 7.00959 77.4588 7.01507 77.4692C7.02055 77.4796 7.0298 77.4875 7.04092 77.4913Z" fill="#DBE7EF"/>
</g>
</g>
</g>
<defs>
<linearGradient id="paint0_linear_11422_3624" x1="54.6142" y1="40.2821" x2="47.6613" y2="40.2821" gradientUnits="userSpaceOnUse">
<stop stop-color="white"/>
<stop offset="1" stop-color="white" stop-opacity="0"/>
</linearGradient>
<linearGradient id="paint1_linear_11422_3624" x1="-14922.8" y1="1787.29" x2="-15137.3" y2="1779.71" gradientUnits="userSpaceOnUse">
<stop stop-color="white"/>
<stop offset="1" stop-color="white" stop-opacity="0"/>
</linearGradient>
<linearGradient id="paint2_linear_11422_3624" x1="9.8222" y1="30.1179" x2="9.8222" y2="38.3038" gradientUnits="userSpaceOnUse">
<stop stop-color="#2C2D53"/>
<stop offset="1" stop-color="#2C2D53" stop-opacity="0"/>
</linearGradient>
<clipPath id="clip0_11422_3624">
<rect width="90" height="90" fill="white"/>
</clipPath>
<clipPath id="clip1_11422_3624">
<rect x="36" width="54" height="40" rx="2.31" fill="white"/>
</clipPath>
</defs>
</svg>
