<svg width="36" height="40" viewBox="0 0 36 40" fill="none" xmlns="http://www.w3.org/2000/svg">
<path fill-rule="evenodd" clip-rule="evenodd" d="M7.02393 10.4019C7.01595 10.3993 7.00797 10.3966 7 10.394C7.38026 4.58916 12.1488 0 17.9756 0C17.9796 0 17.9837 2.24482e-06 17.9878 6.7333e-06C17.9918 2.24467e-06 17.9959 0 18 0C24.0751 0 29 4.98883 29 11.1429C29 16.6656 27.2581 20.8744 24.5681 23.3787L34.2188 29.8125C35.3316 30.5544 36 31.8033 36 33.1407V40H0V33.1407C0 31.8033 0.668405 30.5544 1.7812 29.8125L11.4319 23.3787C8.7419 20.8744 7 16.6656 7 11.1429C7 10.8939 7.00806 10.6468 7.02393 10.4019ZM9.00392 10.8701C9.00131 10.9607 9 11.0516 9 11.1429C9 19.0448 12.8626 24 18 24C23.1374 24 27 19.0448 27 11.1429C27 11.0086 26.9972 10.8751 26.9915 10.7423C24.0907 10.4582 21.4928 9.14118 19.5706 7.16388C17.3792 9.52355 14.2498 11 10.7756 11C10.1736 11 9.58206 10.9557 9.00392 10.8701ZM15.1749 38H20.6251L18.9585 33H16.8415L15.1749 38ZM22.7333 38H34V33.1407C34 32.472 33.6658 31.8476 33.1094 31.4766L22.8773 24.6553C21.4075 25.5369 19.7516 26 18 26C16.2484 26 14.5925 25.5369 13.1227 24.6553L2.8906 31.4766C2.3342 31.8476 2 32.472 2 33.1407V38H13.0667L15.4 31H20.4L22.7333 38ZM17.9756 2C13.7934 2 10.2435 4.9106 9.25143 8.88488C9.75171 8.96125 10.2607 9 10.7756 9C13.5956 9 16.2231 7.82936 18.1051 5.8029L19.5374 4.26053L21.0046 5.76977C22.5235 7.33214 24.4943 8.35381 26.6468 8.68386C25.5881 4.81965 22.0952 2 17.9756 2Z" fill="#313840"/>
</svg>
