<svg width="60" height="60" viewBox="0 0 60 60" fill="none" xmlns="http://www.w3.org/2000/svg">
<path fill-rule="evenodd" clip-rule="evenodd" d="M54.5041 35.8616C54.73 36.2005 55.1016 36.3837 55.4802 36.3837C55.7037 36.3835 55.9294 36.3198 56.1292 36.1862C58.5529 34.5707 60 31.8669 60 28.9539V16.5197C60 15.6236 59.5092 14.8042 58.7191 14.3812C57.9288 13.9584 56.9746 14.0048 56.2294 14.5019L53.7173 16.1765C53.1787 16.5356 53.0332 17.2631 53.3922 17.8017C53.7513 18.3403 54.4788 18.4858 55.0173 18.1267L57.5294 16.4522C57.5467 16.4407 57.5707 16.4249 57.6131 16.4479C57.6562 16.4709 57.6562 16.4993 57.6562 16.5199V28.9541C57.6562 31.0815 56.5994 33.0564 54.8292 34.2365C54.2906 34.5955 54.1451 35.323 54.5041 35.8616ZM3.87066 36.187C4.07039 36.3204 4.29629 36.3841 4.51965 36.3841C4.89818 36.3841 5.26988 36.2006 5.49586 35.8624C5.85467 35.3238 5.70932 34.5963 5.17073 34.2372C3.40053 33.0571 2.34374 31.0824 2.34374 28.9549V16.5207V16.5207C2.34374 16.5001 2.34374 16.4714 2.38685 16.4487C2.42977 16.4261 2.4532 16.4415 2.47029 16.4528L2.47054 16.4529L4.98255 18.1276C5.52114 18.4869 6.24865 18.3413 6.60768 17.8025C6.96656 17.2639 6.82098 16.5362 6.28263 16.1773L3.77084 14.5027C3.02483 14.0056 2.07091 13.959 1.28107 14.3821C0.490763 14.8048 0 15.6242 0 16.5204V28.9547C0 31.8675 1.44703 34.571 3.87066 36.187Z" fill="url(#paint0_linear)"/>
<path fill-rule="evenodd" clip-rule="evenodd" d="M20.4534 47.6068C23.3236 49.4639 26.6247 50.4455 29.9999 50.4455C33.3752 50.4455 36.6761 49.4637 39.5465 47.6068L51.9442 39.5846C52.2781 39.3686 52.4795 38.9982 52.4795 38.6008V18.8863C52.4795 18.239 51.955 17.7145 51.3076 17.7145C47.3115 17.7145 41.5253 15.6403 35.0151 11.8744C33.4609 10.9753 31.7266 10.5 29.9999 10.5C28.2733 10.5 26.5392 10.9753 24.9846 11.8744C18.4747 15.6403 12.6887 17.7145 8.69233 17.7145C8.04529 17.7145 7.52051 18.239 7.52051 18.8863V38.6008C7.52051 38.9982 7.72204 39.3686 8.05579 39.5846L20.4534 47.6068ZM21.7266 45.6387L9.86422 37.9632V20.0126C15.2752 19.6042 21.6352 16.5197 26.1582 13.9031C27.3564 13.2099 28.6849 12.8435 29.9999 12.8435C31.3153 12.8435 32.6435 13.2101 33.8416 13.9031C38.3643 16.5194 44.725 19.6038 50.1357 20.0126V37.9632L38.2734 45.6387C35.7831 47.2501 32.9224 48.1018 29.9999 48.1018C27.0776 48.1018 24.2168 47.2501 21.7266 45.6387ZM17.2886 23.8145C17.4466 24.3143 17.9081 24.6339 18.4059 24.6337C18.5229 24.6337 18.6419 24.6161 18.7593 24.5791C18.8244 24.5585 25.3387 22.5184 30.0001 22.5184C34.6546 22.5184 41.1762 24.5587 41.2414 24.5793C41.8571 24.7727 42.5166 24.4316 42.7114 23.8143C42.9061 23.1974 42.564 22.5391 41.9469 22.3444C41.6661 22.2557 35.0188 20.1747 29.9999 20.1747C24.981 20.1747 18.3337 22.2557 18.0531 22.3444C17.436 22.5391 17.0936 23.1972 17.2886 23.8145ZM30 40.0266C24.9809 40.0266 18.3338 37.9455 18.0533 37.857C17.4362 37.6622 17.094 37.0039 17.2887 36.387C17.4833 35.7697 18.1412 35.4279 18.7588 35.622C18.8242 35.6426 25.3454 37.6829 29.9998 37.6829C34.6613 37.6829 41.1757 35.6429 41.2408 35.6222C41.8589 35.4272 42.5165 35.7699 42.7111 36.3868C42.9061 37.0041 42.5636 37.6622 41.9465 37.857C41.6662 37.9455 35.0189 40.0266 30 40.0266ZM18.7197 31.6446H41.2808C41.9282 31.6446 42.4527 31.1201 42.4527 30.4727C42.4527 29.8253 41.9282 29.3009 41.2808 29.3009H18.7197C18.0726 29.3009 17.5479 29.8253 17.5479 30.4727C17.5479 31.1201 18.0726 31.6446 18.7197 31.6446Z" fill="#313840"/>
<defs>
<linearGradient id="paint0_linear" x1="29.9721" y1="17.7918" x2="35.637" y2="29.4517" gradientUnits="userSpaceOnUse">
<stop stop-color="#D55B17"/>
<stop offset="1" stop-color="#D99227"/>
</linearGradient>
</defs>
</svg>
