<svg width="60" height="60" viewBox="0 0 60 60" fill="none" xmlns="http://www.w3.org/2000/svg">
<path fill-rule="evenodd" clip-rule="evenodd" d="M30.1554 6C36.688 6.04114 42.608 8.70857 46.9166 12.9966C46.9326 13.0103 46.9554 13.0171 46.9714 13.0309C46.9874 13.0491 46.9943 13.072 47.0103 13.088C51.3257 17.4286 54 23.4057 54 30C54 36.5897 51.328 42.5646 47.0149 46.9074C47.008 46.9143 47.0034 46.9234 46.9989 46.9303L46.9874 46.9486C46.9829 46.9554 46.9783 46.9646 46.9714 46.9714C46.9531 46.992 46.9257 46.9966 46.9074 47.0149C42.5646 51.328 36.5897 54 30 54C23.4103 54 17.4354 51.328 13.0949 47.0149C13.0743 46.9966 13.0491 46.992 13.0286 46.9714C13.024 46.9669 13.0194 46.96 13.0171 46.9554L12.9966 46.9234C12.9943 46.9189 12.9897 46.912 12.9851 46.9074C8.672 42.5646 6 36.5897 6 30C6 23.4057 8.67429 17.4286 12.992 13.088C13.008 13.072 13.0126 13.0491 13.0286 13.0309C13.0469 13.0171 13.0674 13.0103 13.0857 12.9966C17.4263 8.67429 23.4057 6 30 6H30.1554ZM46.1166 44.5006L41.2709 39.6549C40.8251 39.2091 40.1006 39.2091 39.6549 39.6549C39.2091 40.1006 39.2091 40.8251 39.6549 41.2709L44.5006 46.1166C40.9189 49.344 36.2674 51.3897 31.1429 51.6571V44.7977C31.1429 44.1669 30.6331 43.6549 30 43.6549C29.3691 43.6549 28.8571 44.1669 28.8571 44.7977V51.6571C23.7326 51.3897 19.0834 49.344 15.4994 46.1166L20.3474 41.2709C20.7931 40.8251 20.7931 40.1006 20.3474 39.6549C19.8994 39.2091 19.1771 39.2091 18.7314 39.6549L13.8834 44.5006C10.656 40.9189 8.61257 36.2674 8.34514 31.1429H15.2046C15.8354 31.1429 16.3474 30.6331 16.3474 30C16.3474 29.3691 15.8354 28.8571 15.2046 28.8571H8.34514C8.61257 23.7326 10.656 19.0834 13.8834 15.4994L18.7314 20.3474C18.9531 20.5691 19.2457 20.6811 19.5383 20.6811C19.8309 20.6811 20.1234 20.5691 20.3474 20.3474C20.7931 19.8994 20.7931 19.1771 20.3474 18.7314L15.4994 13.8834C19.0811 10.656 23.7326 8.61257 28.8571 8.34514V15.2069C28.8571 15.8377 29.3691 16.3497 30 16.3497C30.6331 16.3497 31.1429 15.8377 31.1429 15.2069V8.34514C36.2674 8.61257 40.9189 10.656 44.5006 13.8834L39.6549 18.7314C39.2091 19.1771 39.2091 19.8994 39.6549 20.3474C39.8789 20.5691 40.1691 20.6811 40.4617 20.6811C40.7543 20.6811 41.0469 20.5691 41.2709 20.3474L46.1166 15.4994C49.344 19.0834 51.3874 23.7326 51.6571 28.8571H44.7954C44.1646 28.8571 43.6526 29.3691 43.6526 30C43.6526 30.6331 44.1646 31.1429 44.7954 31.1429H51.6571C51.3874 36.2674 49.344 40.9189 46.1166 44.5006Z" fill="#313840"/>
<path fill-rule="evenodd" clip-rule="evenodd" d="M26.8229 26.2586L36.7383 21.7512C37.1772 21.5546 37.6846 21.6483 38.0206 21.9843C38.3566 22.3203 38.4503 22.8323 38.2515 23.2621L33.7463 33.1798C33.7357 33.205 33.7174 33.224 33.6995 33.2427L33.6994 33.2427C33.6865 33.2562 33.6736 33.2696 33.664 33.2849C33.616 33.3649 33.5612 33.4335 33.4949 33.4975C33.4309 33.5638 33.3623 33.6186 33.2846 33.6643C33.2675 33.6744 33.253 33.6885 33.2387 33.7025C33.2205 33.7202 33.2025 33.7377 33.1795 33.7466L23.264 38.2518C23.1109 38.3226 22.9509 38.3569 22.7909 38.3569C22.4938 38.3569 22.2012 38.2403 21.9818 38.0186C21.6458 37.6849 21.552 37.1729 21.7509 36.7409L26.256 26.8255C26.266 26.8019 26.2826 26.7844 26.2995 26.7667C26.3136 26.7518 26.3279 26.7368 26.3383 26.7181C26.3863 26.6381 26.4412 26.5718 26.5052 26.5055C26.5715 26.4438 26.6378 26.3912 26.7178 26.3409C26.7353 26.3306 26.75 26.3165 26.7647 26.3026C26.7826 26.2856 26.8003 26.2687 26.8229 26.2586ZM29.2709 27.6552L32.3474 30.7295L34.912 25.0906L29.2709 27.6552ZM25.0926 34.91L27.6549 29.2712L30.7292 32.3478L25.0926 34.91Z" fill="url(#paint0_linear)"/>
<defs>
<linearGradient id="paint0_linear" x1="29.9934" y1="24.4212" x2="35.2059" y2="28.407" gradientUnits="userSpaceOnUse">
<stop stop-color="#D55B17"/>
<stop offset="1" stop-color="#D99227"/>
</linearGradient>
</defs>
</svg>
