<svg width="60" height="60" viewBox="0 0 60 60" fill="none" xmlns="http://www.w3.org/2000/svg">
<rect x="0.75" y="5.25" width="58.5" height="39" rx="2.25" stroke="#313840" stroke-width="1.5"/>
<line x1="30.75" y1="45" x2="30.75" y2="55.5" stroke="#313840" stroke-width="1.5"/>
<line x1="15" y1="56.25" x2="46.5" y2="56.25" stroke="#313840" stroke-width="1.5"/>
<path d="M42.8317 22.71C42.0686 23.0925 41.5599 23.8575 41.5599 24.75C41.5599 25.6425 42.0686 26.4075 42.8317 26.79C43.3404 27.045 43.5948 27.555 43.4676 28.1925C42.8317 30.2325 41.6871 32.145 40.1609 33.675C39.7794 34.0575 39.1435 34.185 38.6348 33.8025C37.8717 33.2925 36.9815 33.2925 36.2184 33.8025C35.4553 34.185 34.9466 35.0775 35.0738 35.97C35.0738 36.48 34.6922 36.99 34.1835 37.1175C32.9117 37.3725 31.8943 37.5 30.7497 37.5C29.6051 37.5 28.5876 37.3725 27.443 37.1175C26.9343 36.99 26.5528 36.48 26.5528 35.97C26.5528 35.0775 26.1712 34.3125 25.4082 33.8025C24.6451 33.42 23.6277 33.42 22.9918 33.8025C22.4831 34.0575 21.8472 34.0575 21.4656 33.675C19.9395 32.145 18.7949 30.2325 18.159 28.1925C18.0318 27.6825 18.2862 27.045 18.7949 26.79C19.5579 26.4075 20.0667 25.6425 20.0667 24.75C20.0667 23.8575 19.5579 23.0925 18.7949 22.71C18.159 22.455 17.9046 21.945 18.0318 21.3075C18.6677 19.2675 19.8123 17.355 21.3384 15.825C21.72 15.4425 22.3559 15.315 22.8646 15.6975C23.6277 16.2075 24.5179 16.2075 25.281 15.6975C26.0441 15.315 26.5528 14.4225 26.4256 13.53C26.4256 13.02 26.8071 12.51 27.3159 12.3825C29.4779 11.8725 31.7671 11.8725 33.9292 12.3825C34.4379 12.51 34.8194 13.02 34.8194 13.53C34.8194 14.4225 35.201 15.1875 35.964 15.6975C36.7271 16.08 37.7445 16.08 38.3804 15.6975C38.8891 15.4425 39.525 15.4425 39.9066 15.825C41.4327 17.355 42.5773 19.2675 43.2132 21.3075C43.5948 21.945 43.3404 22.455 42.8317 22.71ZM40.924 21.18C40.5425 20.0325 39.9066 19.0125 39.0163 17.9925C37.6174 18.5025 36.2184 18.375 34.9466 17.61C33.6748 16.9725 32.9117 15.6975 32.6574 14.4225C31.3856 14.1675 30.1138 14.1675 28.9692 14.4225C28.5876 15.825 27.8246 17.1 26.5528 17.7375C25.281 18.375 23.882 18.5025 22.4831 17.9925C21.72 19.0125 21.0841 20.0325 20.5754 21.18C21.72 22.0725 22.3559 23.3475 22.3559 24.75C22.3559 26.1525 21.72 27.4275 20.5754 28.32C20.9569 29.4675 21.5928 30.4875 22.4831 31.5075C23.882 30.9975 25.281 31.125 26.5528 31.89C27.8246 32.5275 28.5876 33.8025 28.842 35.0775C30.1138 35.3325 31.3856 35.3325 32.5302 35.0775C32.7846 33.675 33.6748 32.5275 34.8194 31.89C36.0912 31.2525 37.4902 31.125 38.8891 31.5075C39.6522 30.615 40.2881 29.4675 40.7968 28.32C39.6522 27.4275 39.0163 26.1525 39.0163 24.75C39.0163 23.3475 39.7794 22.0725 40.924 21.18ZM30.7497 29.34C28.2061 29.2125 26.1712 27.1725 26.2984 24.6225C26.4256 22.0725 28.4605 20.0325 31.0041 20.0325C33.5476 20.0325 35.5825 22.2 35.5825 24.75C35.4553 27.3 33.2933 29.4675 30.7497 29.34ZM30.7497 22.455C29.4779 22.455 28.4605 23.475 28.4605 24.75C28.4605 26.025 29.4779 27.045 30.7497 27.045C32.0215 27.045 33.0389 26.025 33.0389 24.75C33.1661 23.475 32.0215 22.455 30.7497 22.455Z" fill="url(#paint0_linear)"/>
<defs>
<linearGradient id="paint0_linear" x1="30.7381" y1="16.2305" x2="38.6938" y2="22.3139" gradientUnits="userSpaceOnUse">
<stop stop-color="#D55B17"/>
<stop offset="1" stop-color="#D99227"/>
</linearGradient>
</defs>
</svg>
