<svg width="60" height="60" viewBox="0 0 60 60" fill="none" xmlns="http://www.w3.org/2000/svg">
<path d="M59.0639 19.7417C58.9434 19.723 56.1452 19.2652 54.2642 20.8629C53.208 21.7598 52.6706 23.0771 52.6706 24.7588V27.3748L51.8737 29.3741C51.1047 29.29 50.3078 29.4956 49.7241 30.0935L44.5446 35.3161C42.6544 36.0729 35.6496 39.5484 35.3808 49.2088C34.2504 49.6199 33.4258 50.7036 33.4073 51.9836L33.3331 56.683C33.3239 57.309 33.815 57.8228 34.4358 57.8322C35.0658 57.8322 35.5662 57.3463 35.5754 56.7204L35.6495 52.0116C35.6495 51.6099 35.9831 51.2829 36.3908 51.2829L47.8617 51.4043C48.2694 51.4043 48.5937 51.7407 48.5844 52.1518L48.5103 56.8512C48.501 57.4771 48.9921 57.991 49.6129 58.0003C49.6221 58.0003 49.6222 58.0003 49.6314 58.0003C50.243 58.0003 50.7433 57.5052 50.7526 56.8885L50.8267 52.1798C50.836 51.3203 50.4746 50.5448 49.9094 49.9842C49.9094 49.9749 49.9094 49.9749 49.9187 49.9656L50.1688 48.5361C50.3541 47.3029 50.9286 46.1444 51.7996 45.2661L56.8864 40.137C58.0817 38.9318 58.8415 37.3435 59.0268 35.6524L59.9811 29.9814C59.9904 29.916 59.9997 29.8599 59.9997 29.7945V20.8629C59.9904 20.3023 59.6013 19.8352 59.0639 19.7417ZM57.7481 29.6824L56.803 35.2974C56.803 35.3254 56.7938 35.3441 56.7938 35.3722C56.6733 36.5587 56.1359 37.6798 55.2927 38.53L50.2059 43.6592C49.0014 44.8737 48.1952 46.4807 47.9451 48.1624L47.7783 49.1247L37.6324 49.0219C37.9752 40.6228 44.2388 37.8387 45.5267 37.3528C45.675 37.2968 45.851 37.194 45.9622 37.0819L51.3085 31.6911C51.4382 31.5603 51.9664 31.6164 52.2443 31.8873C52.4018 32.0461 52.5223 32.2984 52.5594 32.5226C52.5872 32.6908 52.5594 32.7842 52.5408 32.8029C52.5038 32.8403 52.4574 32.887 52.4296 32.9337L48.7512 38.0255C48.3898 38.53 48.501 39.2401 49.0014 39.6044C49.5017 39.9688 50.2059 39.8567 50.5672 39.3522L54.1994 34.3164C54.6997 33.7652 54.9128 32.9804 54.7831 32.1583C54.6812 31.4856 54.3569 30.8409 53.9029 30.3551L54.8387 28.0101C54.8943 27.8793 54.9221 27.7298 54.9221 27.5896V24.7588C54.9221 23.7591 55.1815 23.0491 55.7097 22.5913C56.2656 22.1148 57.0903 21.956 57.7574 21.9279V29.6824H57.7481Z" fill="#313840"/>
<path d="M24.6274 49.2066C24.3679 39.5719 17.3977 36.0862 15.4605 35.3106L10.2792 30.0867C9.69524 29.498 8.89811 29.2924 8.1288 29.3765L7.33168 27.3766V24.76C7.33168 23.0686 6.79408 21.7603 5.73743 20.8632C3.85585 19.2651 1.05665 19.7231 0.936154 19.7417C0.39856 19.8352 0 20.3024 0 20.8538V29.7877C0 29.8531 0.00926753 29.9185 0.0185364 29.9746L0.973231 35.647C1.15861 37.3384 1.91866 38.9271 3.11434 40.1326L8.20295 45.263C9.07422 46.1415 9.64889 47.3003 9.83427 48.5618L10.0753 49.9636C10.0753 49.9729 10.0753 49.9729 10.0845 49.9823C10.066 50.001 10.0382 50.0197 10.0104 50.0477C9.45425 50.6177 9.14837 51.3747 9.15764 52.1877L9.23179 56.8883C9.24106 57.505 9.74158 58.0003 10.3533 58.0003C10.3626 58.0003 10.3626 58.0003 10.3719 58.0003C10.9929 57.991 11.4841 57.477 11.4749 56.8509L11.4007 52.1503C11.4007 51.9541 11.4749 51.7672 11.6139 51.627C11.7529 51.4868 11.9383 51.4027 12.1329 51.4027L23.6171 51.2812C24.0156 51.2812 24.3493 51.6083 24.3493 52.0195L24.4235 56.7201C24.4327 57.3462 24.9333 57.8228 25.5635 57.8321C26.1846 57.8228 26.6758 57.3088 26.6665 56.6827L26.5924 51.9821C26.5831 50.7112 25.7675 49.6272 24.6274 49.2066ZM9.78793 43.665L4.69932 38.5346C3.85585 37.6842 3.32752 36.5628 3.19776 35.376C3.19776 35.348 3.18849 35.3293 3.18849 35.3012L2.25233 29.6849V21.9285C2.91969 21.9565 3.74462 22.1154 4.30076 22.592C4.82908 23.0499 5.08861 23.7601 5.08861 24.76V27.5916C5.08861 27.7317 5.11642 27.8813 5.17203 28.0121L6.10818 30.3577C5.65401 30.8436 5.3296 31.4978 5.22764 32.1613C5.09788 32.993 5.31106 33.7686 5.80231 34.32L9.43571 39.357C9.79719 39.8616 10.5016 39.9737 11.0021 39.6093C11.5027 39.2448 11.6139 38.5346 11.2524 38.03L7.57267 32.9369C7.53559 32.8902 7.49852 32.8435 7.46144 32.8061C7.37802 32.722 7.4429 32.1987 7.75804 31.8809C8.03611 31.6006 8.56444 31.5539 8.6942 31.6847L14.0423 37.0768C14.1536 37.1889 14.3297 37.2917 14.478 37.3478C15.7663 37.8337 22.0321 40.6186 22.3751 49.0197L12.2164 49.1225L12.0495 48.188C11.7993 46.4872 11.0021 44.8799 9.78793 43.665Z" fill="#313840"/>
<path d="M33.6392 5.87109L33.6393 5.87089C35.2213 4.27568 37.3237 3.4 39.5589 3.4C44.1753 3.4 47.9337 7.18059 47.9337 11.8362C47.9337 14.0893 47.0631 16.2056 45.4786 17.8012L31.3367 32.042C30.9675 32.4138 30.4841 32.6 30.0003 32.6C29.5166 32.6 29.0332 32.4138 28.6639 32.042L14.5221 17.8012C12.9375 16.2056 12.067 14.0893 12.067 11.8362C12.067 7.18059 15.8253 3.4 20.4418 3.4C22.6768 3.4 24.7771 4.27557 26.3615 5.87109L29.7165 9.24955L30.0003 9.53536L30.2842 9.24955L33.6392 5.87109ZM29.7165 27.7111L30.0003 27.9969L30.2842 27.7111L42.8058 15.1019C43.6734 14.2282 44.1503 13.0676 44.1503 11.8362C44.1503 9.28941 42.0947 7.21538 39.5589 7.21538C38.3335 7.21538 37.1796 7.69673 36.3119 8.57045L31.3367 13.5805C30.5971 14.3252 29.4035 14.3252 28.6639 13.5805L23.6887 8.57045C22.8211 7.69673 21.6672 7.21538 20.4418 7.21538C17.906 7.21538 15.8503 9.28941 15.8503 11.8362C15.8503 13.0676 16.3273 14.2282 17.1948 15.1019L29.7165 27.7111Z" fill="#D45B17" stroke="white" stroke-width="0.8"/>
</svg>
