<svg width="60" height="60" viewBox="0 0 60 60" fill="none" xmlns="http://www.w3.org/2000/svg">
<path d="M7.5 4.4H7.4V4.5V49.6512C7.4 53.7651 10.7349 57.1 14.8487 57.1H45.0906C49.2046 57.1 52.5395 53.7651 52.5395 49.6512V44.8225V44.7225H52.4395H20.1007H20.0007V44.8225V50.2813C20.0007 53.1267 17.6941 55.4333 14.8487 55.4333C11.6554 55.4333 9.06672 52.8446 9.06672 49.6512V6.06672H44.8789H44.9789V5.96672V4.5V4.4H44.8789H7.5ZM14.9604 17.6224V17.7224H15.0604H29.758H29.858V17.6224V16.1555V16.0555H29.758H15.0604H14.9604V16.1555V17.6224ZM14.9604 25.1833V25.2833H15.0604H29.758H29.858V25.1833V23.7166V23.6166H29.758H15.0604H14.9604V23.7166V25.1833ZM14.9604 32.7433V32.8433H15.0604H29.758H29.858V32.7433V31.2766V31.1766H29.758H15.0604H14.9604V31.2766V32.7433ZM21.6677 50.2814V46.3895H50.873V49.6514C50.873 52.8447 48.2843 55.4334 45.0908 55.4334H19.3247L19.529 55.2405L19.4604 55.1678L19.529 55.2405C20.846 53.9972 21.6677 52.2354 21.6677 50.2814Z" fill="#313840" stroke="#313840" stroke-width="0.2"/>
<path fill-rule="evenodd" clip-rule="evenodd" d="M50.1317 25.5826V40.8309L43.8313 38.3107L37.5308 40.8309V25.5826C35.9719 23.9917 35.0107 21.8129 35.0107 19.4095C35.0107 14.538 38.9599 10.5889 43.8313 10.5889C48.7028 10.5889 52.6519 14.538 52.6519 19.4095C52.6519 21.8129 51.6907 23.9917 50.1317 25.5826ZM39.6717 24.9538C40.8301 25.824 42.2701 26.3398 43.8306 26.3398C45.3911 26.3398 46.8312 25.824 47.9896 24.9538C49.6725 23.6893 50.7611 21.6764 50.7611 19.4094C50.7611 15.5818 47.6583 12.479 43.8306 12.479C40.0031 12.479 36.9002 15.5818 36.9002 19.4094C36.9002 21.6764 37.9887 23.6893 39.6717 24.9538ZM43.8308 28.2299C45.4375 28.2299 46.9437 27.8004 48.2412 27.0498V38.039L43.8308 36.2748L39.4205 38.039V27.0498C40.7179 27.8004 42.2242 28.2299 43.8308 28.2299Z" fill="url(#paint0_linear)"/>
<defs>
<linearGradient id="paint0_linear" x1="43.8231" y1="15.6061" x2="51.0977" y2="18.8509" gradientUnits="userSpaceOnUse">
<stop stop-color="#D55B17"/>
<stop offset="1" stop-color="#D99227"/>
</linearGradient>
</defs>
</svg>
