<svg width="60" height="60" viewBox="0 0 60 60" fill="none" xmlns="http://www.w3.org/2000/svg">
<path d="M51.3749 6.58734C51.3749 6.58734 51.3749 6.58734 51.3636 6.58734L39.8526 5.66994C39.23 5.61967 38.6867 6.14749 38.6528 6.83868C38.6075 7.52988 39.0716 8.12053 39.6941 8.1708L48.2736 8.84943L32.7671 22.246L21.1995 12.1295C20.758 11.7399 20.1242 11.7776 19.7167 12.2049L7.92273 24.7594C7.46998 25.237 7.45866 26.0413 7.88877 26.5314C8.10383 26.7828 8.39811 26.921 8.70371 26.921C8.998 26.921 9.28096 26.7953 9.4847 26.5691L20.5656 14.7686L32.0653 24.8223C32.4728 25.1742 33.0501 25.1867 33.4575 24.8223L49.9488 10.5963L49.3262 19.6195C49.281 20.3107 49.745 20.9139 50.3676 20.9642C50.4015 20.9642 50.4241 20.9642 50.4581 20.9642C51.0467 20.9642 51.5447 20.4615 51.59 19.808L52.4162 7.93203C52.4615 7.24083 51.9974 6.63761 51.3749 6.58734Z" fill="url(#paint0_linear)"/>
<path fill-rule="evenodd" clip-rule="evenodd" d="M40.2508 30.1657C40.2508 29.7282 40.5469 29.4718 40.8714 29.4718H48.07C48.4261 29.4718 48.7472 29.7603 48.7472 30.1657V52.4697H52.2013C52.508 52.4697 52.8332 52.7574 52.8332 53.2264C52.8332 53.692 52.4998 53.9831 52.2013 53.9831H7.79837C7.49991 53.9831 7.1665 53.692 7.1665 53.2264C7.1665 52.7609 7.49991 52.4697 7.79837 52.4697H11.2638V39.5282C11.2638 39.0889 11.6183 38.7715 11.941 38.7715H19.1623C19.4546 38.7715 19.7828 39.0558 19.7828 39.5282V52.4697H25.763V34.179C25.7724 33.6992 26.1086 33.3854 26.4291 33.3676H33.6104C33.9245 33.3763 34.2611 33.6843 34.2706 34.1791V52.4697H40.2508V30.1657ZM47.4834 30.9852H41.5032V52.4697H47.4834V30.9852ZM32.9956 34.8811H27.0154V52.4697H32.9956V34.8811ZM18.5078 40.2849H12.5276V52.4697H18.5078V40.2849Z" fill="#313840"/>
<defs>
<linearGradient id="paint0_linear" x1="29.976" y1="9.19279" x2="36.1297" y2="19.121" gradientUnits="userSpaceOnUse">
<stop stop-color="#D55B17"/>
<stop offset="1" stop-color="#D99227"/>
</linearGradient>
</defs>
</svg>
