<svg width="80" height="80" viewBox="0 0 80 80" fill="none" xmlns="http://www.w3.org/2000/svg">
<rect x="6.75" y="13.75" width="66.5" height="45.75" rx="2.25" stroke="#313840" stroke-width="1.5"/>
<line x1="40.75" y1="60.2495" x2="40.75" y2="72.4995" stroke="#313840" stroke-width="1.5"/>
<line x1="23" y1="73.5" x2="58.7" y2="73.5" stroke="#313840" stroke-width="1.5"/>
<path d="M41 11C40.5 12.5 39.4 15.6 39 16L51.5 15.5L49.5 12L41 11Z" fill="white"/>
<path fill-rule="evenodd" clip-rule="evenodd" d="M41.6888 6.53669C42.7733 5.31006 44.2293 4.46467 45.9313 5.13727L45.9343 5.13845C47.1305 5.61628 48.3101 6.58509 48.9469 7.68816L51.952 12.8932C54.5935 11.944 57.5903 13.0364 59.0153 15.5045C60.4665 18.0181 59.8843 21.1259 57.7629 22.9579L60.7733 28.1719C61.3892 29.2387 61.6357 30.7456 61.4521 32.0161L61.4516 32.0194C61.3235 32.8821 60.9489 33.5865 60.3653 34.1188C59.7957 34.6385 59.0727 34.9534 58.3003 35.1374C56.7745 35.501 54.8531 35.4 52.9247 35.1275C50.9764 34.8521 48.9195 34.3853 47.0887 33.9533C46.8399 33.8946 46.596 33.8368 46.3575 33.7802C44.9673 33.4504 43.762 33.1644 42.8465 33.0116L42.5488 33.1835L51.4621 42.0535L51.4863 42.082C52.1564 42.8728 51.9979 44.0952 51.0706 44.6306L45.3166 47.9527C44.6418 48.3423 43.7596 48.2439 43.2342 47.6085L33.8431 38.2097L31.3643 39.6408C29.4449 40.749 27.0302 40.1047 25.9128 38.1694L22.8357 32.8397C21.7455 30.9514 22.3605 28.4952 24.2872 27.3828L35.769 20.7538C35.9815 20.1763 36.2438 19.3243 36.5646 18.2823C36.6786 17.9122 36.8 17.518 36.9291 17.1037C37.4724 15.3604 38.1356 13.3228 38.9153 11.435C39.6879 9.56451 40.6065 7.76072 41.6888 6.53669ZM38.9591 21.7305L43.6182 29.8003C44.3844 29.939 45.4228 30.1748 46.573 30.4361C46.7494 30.4762 46.9285 30.5169 47.1097 30.5579C48.7305 30.9249 50.5597 31.3299 52.2922 31.6225C54.0395 31.9177 55.6225 32.0865 56.7694 32.0093C57.3481 31.9703 57.7354 31.8729 57.963 31.7557C58.1571 31.6556 58.1669 31.5845 58.1726 31.5424L58.1752 31.5239L58.1783 31.5062C58.2884 30.8928 58.1755 30.175 57.9576 29.7976L46.1313 9.31378C45.8944 8.90351 45.354 8.47647 44.7093 8.21721L44.7053 8.21559L44.7042 8.21515C44.6659 8.19951 44.6005 8.17278 44.4184 8.2906C44.2036 8.42963 43.9261 8.71752 43.6039 9.20116C42.9654 10.1596 42.3227 11.6199 41.7074 13.2858C41.0973 14.9376 40.5362 16.7293 40.0458 18.3204C39.9947 18.4861 39.9442 18.6502 39.8944 18.812C39.5426 19.9556 39.2248 20.9888 38.9591 21.7305ZM25.9449 30.2541C25.6024 30.4518 25.4994 30.8593 25.691 31.1911L28.7682 36.5209C28.9598 36.8528 29.3642 36.9673 29.7066 36.7696L40.3027 30.6519L36.541 24.1364L25.9449 30.2541ZM53.673 15.8739L56.0346 19.9643C56.6053 19.1462 56.6792 18.0524 56.1599 17.1531C55.6373 16.2479 54.6522 15.7719 53.673 15.8739ZM29.8217 30.3391C30.268 30.4247 30.6615 30.6998 30.9124 31.1344L31.428 32.0274C31.6777 32.46 31.7311 32.9376 31.5904 33.3738C31.456 33.7902 31.1658 34.1063 30.8349 34.2973C30.5041 34.4883 30.0853 34.5816 29.6575 34.4898C29.2093 34.3936 28.8224 34.1085 28.5727 33.676L28.0571 32.7829C27.8061 32.3483 27.7646 31.87 27.9137 31.4407C28.0548 31.0342 28.3454 30.7288 28.6673 30.5429C28.9893 30.357 29.3991 30.2581 29.8217 30.3391ZM33.5638 28.1786C34.0101 28.2641 34.4037 28.5392 34.6546 28.9738L35.1702 29.8669C35.4199 30.2995 35.4733 30.7771 35.3326 31.2133C35.1982 31.6297 34.9079 31.9457 34.5771 32.1367C34.2463 32.3277 33.8274 32.4211 33.3997 32.3292C32.9515 32.233 32.5646 31.948 32.3148 31.5154L31.7992 30.6224C31.5483 30.1878 31.5068 29.7094 31.6559 29.2801C31.797 28.8737 32.0876 28.5682 32.4095 28.3824C32.7315 28.1965 33.1413 28.0976 33.5638 28.1786ZM36.7932 36.5065L44.7508 44.451L47.5554 42.8317L39.5978 34.8873L36.7932 36.5065Z" fill="url(#paint0_linear)" stroke="white"/>
<defs>
<linearGradient id="paint0_linear" x1="36.4566" y1="16.469" x2="51.6796" y2="18.8341" gradientUnits="userSpaceOnUse">
<stop stop-color="#D55B17"/>
<stop offset="1" stop-color="#D99227"/>
</linearGradient>
</defs>
</svg>
