<svg width="80" height="80" viewBox="0 0 80 80" fill="none" xmlns="http://www.w3.org/2000/svg">
<mask id="path-1-inside-1" fill="white">
<path fill-rule="evenodd" clip-rule="evenodd" d="M11.1929 28.2993H13.4895V29.7993H11.1929C10.9167 29.7993 10.6929 30.0232 10.6929 30.2993V64.7291L10.1115 66.4087C9.66175 67.7079 10.6266 69.063 12.0014 69.063L11.1929 69.063C10.0883 69.063 9.19287 68.1675 9.19287 67.063V30.2993C9.19287 29.1947 10.0883 28.2993 11.1929 28.2993ZM60.9737 34.9096V30.2993C60.9737 29.1947 60.0783 28.2993 58.9737 28.2993H55.3549V29.7993H58.9737C59.2499 29.7993 59.4737 30.0232 59.4737 30.2993V34.9096H60.9737Z"/>
</mask>
<path fill-rule="evenodd" clip-rule="evenodd" d="M11.1929 28.2993H13.4895V29.7993H11.1929C10.9167 29.7993 10.6929 30.0232 10.6929 30.2993V64.7291L10.1115 66.4087C9.66175 67.7079 10.6266 69.063 12.0014 69.063L11.1929 69.063C10.0883 69.063 9.19287 68.1675 9.19287 67.063V30.2993C9.19287 29.1947 10.0883 28.2993 11.1929 28.2993ZM60.9737 34.9096V30.2993C60.9737 29.1947 60.0783 28.2993 58.9737 28.2993H55.3549V29.7993H58.9737C59.2499 29.7993 59.4737 30.0232 59.4737 30.2993V34.9096H60.9737Z" fill="#C4C4C4"/>
<path d="M13.4895 28.2993H14.9895V26.7993H13.4895V28.2993ZM13.4895 29.7993V31.2993H14.9895V29.7993H13.4895ZM10.6929 64.7291L12.1104 65.2198L12.1929 64.9814V64.7291H10.6929ZM10.1115 66.4087L11.5289 66.8994H11.5289L10.1115 66.4087ZM11.1929 69.063V70.563H11.1929L11.1929 69.063ZM60.9737 34.9096V36.4096H62.4737V34.9096H60.9737ZM55.3549 28.2993V26.7993H53.8549V28.2993H55.3549ZM55.3549 29.7993H53.8549V31.2993H55.3549V29.7993ZM59.4737 34.9096H57.9737V36.4096H59.4737V34.9096ZM13.4895 26.7993H11.1929V29.7993H13.4895V26.7993ZM14.9895 29.7993V28.2993H11.9895V29.7993H14.9895ZM11.1929 31.2993H13.4895V28.2993H11.1929V31.2993ZM12.1929 30.2993C12.1929 30.8516 11.7452 31.2993 11.1929 31.2993V28.2993C10.0883 28.2993 9.19287 29.1947 9.19287 30.2993H12.1929ZM12.1929 64.7291V30.2993H9.19287V64.7291H12.1929ZM9.27539 64.2385L8.69398 65.9181L11.5289 66.8994L12.1104 65.2198L9.27539 64.2385ZM8.69399 65.9181C7.90699 68.1916 9.59554 70.563 12.0014 70.563V67.563C11.6577 67.563 11.4165 67.2242 11.5289 66.8994L8.69399 65.9181ZM11.1929 70.563L12.0014 70.563L12.0014 67.563L11.1929 67.563L11.1929 70.563ZM7.69287 67.063C7.69287 68.996 9.25987 70.563 11.1929 70.563V67.563C10.9167 67.563 10.6929 67.3391 10.6929 67.063H7.69287ZM7.69287 30.2993V67.063H10.6929V30.2993H7.69287ZM11.1929 26.7993C9.25988 26.7993 7.69287 28.3663 7.69287 30.2993H10.6929C10.6929 30.0232 10.9167 29.7993 11.1929 29.7993V26.7993ZM62.4737 34.9096V30.2993H59.4737V34.9096H62.4737ZM62.4737 30.2993C62.4737 28.3663 60.9067 26.7993 58.9737 26.7993V29.7993C59.2499 29.7993 59.4737 30.0232 59.4737 30.2993H62.4737ZM58.9737 26.7993H55.3549V29.7993H58.9737V26.7993ZM53.8549 28.2993V29.7993H56.8549V28.2993H53.8549ZM55.3549 31.2993H58.9737V28.2993H55.3549V31.2993ZM58.9737 31.2993C58.4214 31.2993 57.9737 30.8516 57.9737 30.2993H60.9737C60.9737 29.1947 60.0783 28.2993 58.9737 28.2993V31.2993ZM57.9737 30.2993V34.9096H60.9737V30.2993H57.9737ZM60.9737 33.4096H59.4737V36.4096H60.9737V33.4096Z" fill="#313840" mask="url(#path-1-inside-1)"/>
<mask id="path-3-inside-2" fill="white">
<path fill-rule="evenodd" clip-rule="evenodd" d="M55.7875 34.9096C54.9351 34.9096 54.1764 35.4499 53.8976 36.2554L52.4566 40.4182H20.5325C19.6801 40.4182 18.9213 40.9585 18.6425 41.764L10.1116 66.4087C9.66193 67.7079 10.6268 69.0629 12.0016 69.0629H59.5496C60.402 69.0629 61.1607 68.5227 61.4396 67.7172L69.9704 43.0724C70.4202 41.7733 69.4553 40.4182 68.0805 40.4182H66.7789L67.767 37.5638C68.2167 36.2647 67.2518 34.9096 65.877 34.9096H55.7875Z"/>
</mask>
<path d="M53.8976 36.2554L52.4801 35.7647V35.7647L53.8976 36.2554ZM52.4566 40.4182V41.9182H53.5247L53.8741 40.9089L52.4566 40.4182ZM18.6425 41.764L20.06 42.2547L18.6425 41.764ZM10.1116 66.4087L11.5291 66.8994H11.5291L10.1116 66.4087ZM61.4396 67.7172L62.8571 68.2078L61.4396 67.7172ZM69.9704 43.0724L71.3879 43.5631V43.5631L69.9704 43.0724ZM66.7789 40.4182L65.3615 39.9275L64.6724 41.9182H66.7789V40.4182ZM67.767 37.5638L66.3495 37.0732V37.0732L67.767 37.5638ZM55.315 36.7461C55.3847 36.5447 55.5744 36.4096 55.7875 36.4096V33.4096C54.2958 33.4096 52.968 34.3551 52.4801 35.7647L55.315 36.7461ZM53.8741 40.9089L55.315 36.7461L52.4801 35.7647L51.0391 39.9275L53.8741 40.9089ZM20.5325 41.9182H52.4566V38.9182H20.5325V41.9182ZM20.06 42.2547C20.1297 42.0533 20.3194 41.9182 20.5325 41.9182V38.9182C19.0408 38.9182 17.713 39.8637 17.225 41.2733L20.06 42.2547ZM11.5291 66.8994L20.06 42.2547L17.225 41.2733L8.69417 65.9181L11.5291 66.8994ZM12.0016 67.5629C11.6579 67.5629 11.4167 67.2242 11.5291 66.8994L8.69417 65.918C7.90717 68.1916 9.59572 70.5629 12.0016 70.5629V67.5629ZM59.5496 67.5629H12.0016V70.5629H59.5496V67.5629ZM60.0221 67.2265C59.9524 67.4279 59.7627 67.5629 59.5496 67.5629V70.5629C61.0413 70.5629 62.3691 69.6175 62.8571 68.2078L60.0221 67.2265ZM68.553 42.5818L60.0221 67.2265L62.8571 68.2078L71.3879 43.5631L68.553 42.5818ZM68.0805 41.9182C68.4242 41.9182 68.6654 42.257 68.553 42.5818L71.3879 43.5631C72.1749 41.2896 70.4864 38.9182 68.0805 38.9182V41.9182ZM66.7789 41.9182H68.0805V38.9182H66.7789V41.9182ZM66.3495 37.0732L65.3615 39.9275L68.1964 40.9089L69.1845 38.0545L66.3495 37.0732ZM65.877 36.4096C66.2207 36.4096 66.4619 36.7484 66.3495 37.0732L69.1845 38.0545C69.9715 35.7809 68.2829 33.4096 65.877 33.4096V36.4096ZM55.7875 36.4096H65.877V33.4096H55.7875V36.4096Z" fill="#313840" mask="url(#path-3-inside-2)"/>
<path fill-rule="evenodd" clip-rule="evenodd" d="M17.2584 10.2866C15.9549 10.2866 14.8666 11.3131 14.8666 12.6032V48.8468L16.8442 43.8891L16.8442 13.1334L16.8442 12.6054C16.8442 12.4068 17.0164 12.2213 17.2584 12.2213H39.1576V19.1151V23.7418C39.1576 24.2869 39.614 24.7069 40.1453 24.7069H52.2225V33.9736H53.7704C53.7845 33.9858 53.7986 33.9979 53.8126 34.0101V33.9736H54.198V23.7026L54.1873 23.6657C54.178 23.6145 54.1522 23.4825 54.1078 23.3526C54.0828 23.2796 54.0421 23.177 53.9771 23.0879C53.942 23.04 53.8685 22.9534 53.7517 22.9047L41.5767 10.9709L41.5753 10.9695C41.1166 10.5262 40.5157 10.2866 39.8836 10.2866H17.2584ZM41.1353 19.6453V13.2664L50.0938 22.0469L50.8338 22.7723H41.1353V19.6453Z" fill="url(#paint0_linear)"/>
<defs>
<linearGradient id="paint0_linear" x1="34.514" y1="16.6839" x2="46.6046" y2="26.114" gradientUnits="userSpaceOnUse">
<stop stop-color="#D55B17"/>
<stop offset="1" stop-color="#D99227"/>
</linearGradient>
</defs>
</svg>
