<svg width="80" height="80" viewBox="0 0 80 80" fill="none" xmlns="http://www.w3.org/2000/svg">
<path d="M66.9456 23.8994L66.9427 23.8913C66.3466 22.2364 64.8016 21.0994 63.0223 21.0994H37.333C35.5427 21.0994 34.0083 22.2569 33.4152 23.8842L33.4125 23.8918L33.4098 23.8994L30.2764 32.717L29.7927 34.0783L29.7242 34.1551L28.8074 35.1833C28.7828 35.2076 28.7543 35.2369 28.7234 35.2713C27.6303 36.3914 27.0176 37.9128 27.0176 39.4856V46.1458H26.9914L27.0076 48.1539V51.8829V54.6331V54.6411L27.0076 54.6491C27.0258 56.9261 28.8142 58.9005 31.1969 58.9005H33.8482C36.2368 58.9005 38.0192 56.9094 38.0374 54.6492L38.0375 54.6412V54.6331V52.4917V52.3922H62.9606V52.4917V54.6331V54.6411L62.9606 54.6491C62.9788 56.9261 64.7672 58.9005 67.1499 58.9005H69.8012C72.1839 58.9005 73.9723 56.9261 73.9904 54.6491L73.9905 54.6411V54.6331V51.8829V48.1538V48.1458V48.1061V39.874C73.9905 38.1905 73.2885 36.5666 72.048 35.4349L72.0388 35.4253L72.0172 35.4041L70.6514 34.0604L70.5051 33.9165L70.0789 32.7171L66.9456 23.8994ZM28.9784 35.0318C28.9952 35.0182 29.0023 35.013 28.9939 35.0196L28.9936 35.0198L28.9799 35.0306C28.9794 35.031 28.9789 35.0314 28.9784 35.0318Z" fill="white" stroke="white" stroke-width="4"/>
<path d="M29.1591 35.4634L29.1677 35.454L30.192 34.3203L30.2589 34.2463L30.2922 34.1523L33.8871 24.0238L29.1591 35.4634ZM29.1591 35.4634L29.1501 35.4724M29.1591 35.4634L29.1501 35.4724M29.1501 35.4724C28.1017 36.5202 27.5086 37.967 27.499 39.4875M29.1501 35.4724L70.0621 34.1369M70.0621 34.1369L70.1465 34.2185L71.6228 35.6462L71.6302 35.6534L71.638 35.6602C72.814 36.707 73.499 38.2493 73.499 39.874V54.6321C73.4895 56.7913 71.8151 58.5 69.8012 58.5H67.1499C65.1359 58.5 63.4616 56.7913 63.452 54.6322V52.4917V51.9917H62.952H38.046H37.546V52.4917L37.546 54.6311C37.546 54.6314 37.546 54.6317 37.546 54.632C37.5366 56.7912 35.8622 58.5 33.8482 58.5H31.1969C29.1829 58.5 27.5085 56.7912 27.499 54.632C27.499 54.6317 27.499 54.6314 27.499 54.6311L27.499 39.4875M70.0621 34.1369L70.0228 34.0261M70.0621 34.1369L70.0228 34.0261M27.499 39.4875V39.4856H26.999L27.499 39.4887C27.499 39.4883 27.499 39.4879 27.499 39.4875ZM70.0228 34.0261L66.4783 24.0238C66.4782 24.0235 66.4781 24.0232 66.478 24.023C65.932 22.4989 64.5456 21.5 63.0223 21.5H37.333C35.8113 21.5 34.4342 22.4973 33.8875 24.0225L70.0228 34.0261ZM65.5314 24.3996L65.5321 24.4016L68.6655 33.2193L68.9026 33.8867H68.1943H48.1289H47.6944L47.6338 33.4564C47.2209 30.5231 45.0202 28.2399 42.2482 27.8135L42.2471 27.8134C38.7768 27.2717 35.5125 29.7758 34.9961 33.4562L34.9357 33.8867H34.5009H32.161H31.4527L31.6898 33.2193L34.8232 24.4016L34.8246 24.3978C35.2139 23.3297 36.2075 22.5994 37.333 22.5994H63.0223C64.145 22.5994 65.1414 23.3167 65.5314 24.3996ZM36.5497 33.8867H35.9383L36.0596 33.2875C36.4984 31.1206 38.1159 29.4168 40.2071 28.9517L40.2089 28.9513C43.1411 28.3104 45.987 30.2719 46.5906 33.2886L46.7103 33.8867H46.1003H36.5497ZM64.4606 54.6371V54.6331V52.4917V51.9917H64.9606H69.8012C70.5192 51.9917 71.2082 51.8099 71.7095 51.4693L72.4905 50.9387V51.8829L72.4905 54.6331L72.4905 54.6371C72.4784 56.1511 71.3007 57.4006 69.8012 57.4006H67.1499C65.6503 57.4006 64.4726 56.1511 64.4606 54.6371ZM28.5076 54.6371V54.6331V51.8829V50.9387L29.2886 51.4693C29.7898 51.8099 30.4789 51.9917 31.1969 51.9917H36.0375H36.5375V52.4917L36.5375 54.6331L36.5375 54.6372C36.5254 56.1391 35.3492 57.4006 33.8482 57.4006H31.1969C29.6974 57.4006 28.5197 56.1511 28.5076 54.6371ZM28.5076 48.1499L28.5035 47.6459H28.5176V39.4856C28.5176 38.286 28.9911 37.1303 29.8236 36.2918C29.8392 36.273 29.8537 36.2581 29.8651 36.247C29.8724 36.2399 29.8794 36.2335 29.8856 36.228L30.8438 35.1534L30.9929 34.9862H31.217H69.2488H69.4535L69.5995 35.1298L70.9653 36.4734L70.9707 36.4787L70.9759 36.4842L70.996 36.5052L71.002 36.5115C71.9456 37.3536 72.4905 38.5867 72.4905 39.874L72.4905 48.1459L72.4905 48.1498C72.4784 49.6666 71.2874 50.9041 69.7991 50.8923H31.199C29.7091 50.9041 28.5197 49.6546 28.5076 48.1499Z" fill="black" stroke="black"/>
<path d="M54.2634 44.5H44.9236C44.6931 44.5 44.4567 44.7096 44.4567 45.0206C44.4567 45.3315 44.6931 45.5411 44.9236 45.5411H54.2634C54.4939 45.5411 54.7302 45.3315 54.7302 45.0206C54.7302 44.7096 54.4939 44.5 54.2634 44.5Z" fill="black" stroke="black"/>
<path d="M54.2634 39.5H44.9236C44.6931 39.5 44.4567 39.7096 44.4567 40.0206C44.4567 40.3315 44.6931 40.5411 44.9236 40.5411H54.2634C54.4939 40.5411 54.7302 40.3315 54.7302 40.0206C54.7302 39.7096 54.4939 39.5 54.2634 39.5Z" fill="black" stroke="black"/>
<rect x="59.999" y="40" width="7" height="5" rx="1" stroke="black" stroke-width="2"/>
<rect x="32.999" y="40" width="7" height="5" rx="1" stroke="black" stroke-width="2"/>
<path d="M55.9456 23.8994L55.9427 23.8913C55.3466 22.2364 53.8016 21.0994 52.0223 21.0994H26.333C24.5427 21.0994 23.0083 22.2569 22.4152 23.8842L22.4125 23.8918L22.4098 23.8994L19.2764 32.717L18.7927 34.0783L18.7242 34.1551L17.8074 35.1833C17.7828 35.2076 17.7543 35.2369 17.7234 35.2713C16.6303 36.3914 16.0176 37.9128 16.0176 39.4856V46.1458H15.9914L16.0076 48.1539V51.8829V54.6331V54.6411L16.0076 54.6491C16.0258 56.9261 17.8142 58.9005 20.1969 58.9005H22.8482C25.2368 58.9005 27.0192 56.9094 27.0374 54.6492L27.0375 54.6412V54.6331V52.4917V52.3922H51.9606V52.4917V54.6331V54.6411L51.9606 54.6491C51.9788 56.9261 53.7672 58.9005 56.1499 58.9005H58.8012C61.1839 58.9005 62.9723 56.9261 62.9904 54.6491L62.9905 54.6411V54.6331V51.8829V48.1538V48.1458V48.1061V39.874C62.9905 38.1905 62.2885 36.5666 61.048 35.4349L61.0388 35.4253L61.0172 35.4041L59.6514 34.0604L59.5051 33.9165L59.0789 32.7171L55.9456 23.8994ZM17.9784 35.0318C17.9952 35.0182 18.0023 35.013 17.9939 35.0196L17.9936 35.0198L17.9799 35.0306C17.9794 35.031 17.9789 35.0314 17.9784 35.0318Z" fill="white" stroke="white" stroke-width="4"/>
<path d="M18.1591 35.4634L18.1677 35.454L19.192 34.3203L19.2589 34.2463L19.2922 34.1523L22.8871 24.0238L18.1591 35.4634ZM18.1591 35.4634L18.1501 35.4724M18.1591 35.4634L18.1501 35.4724M18.1501 35.4724C17.1017 36.5202 16.5086 37.967 16.499 39.4875M18.1501 35.4724L59.0621 34.1369M59.0621 34.1369L59.1465 34.2185L60.6228 35.6462L60.6302 35.6534L60.638 35.6602C61.814 36.707 62.499 38.2493 62.499 39.874V54.6321C62.4895 56.7913 60.8151 58.5 58.8012 58.5H56.1499C54.1359 58.5 52.4616 56.7913 52.452 54.6322V52.4917V51.9917H51.952H27.046H26.546V52.4917L26.546 54.6311C26.546 54.6314 26.546 54.6317 26.546 54.632C26.5366 56.7912 24.8622 58.5 22.8482 58.5H20.1969C18.1829 58.5 16.5085 56.7912 16.499 54.632C16.499 54.6317 16.499 54.6314 16.499 54.6311L16.499 39.4875M59.0621 34.1369L59.0228 34.0261M59.0621 34.1369L59.0228 34.0261M16.499 39.4875V39.4856H15.999L16.499 39.4887C16.499 39.4883 16.499 39.4879 16.499 39.4875ZM59.0228 34.0261L55.4783 24.0238C55.4782 24.0235 55.4781 24.0232 55.478 24.023C54.932 22.4989 53.5456 21.5 52.0223 21.5H26.333C24.8113 21.5 23.4342 22.4973 22.8875 24.0225L59.0228 34.0261ZM54.5314 24.3996L54.5321 24.4016L57.6655 33.2193L57.9026 33.8867H57.1943H37.1289H36.6944L36.6338 33.4564C36.2209 30.5231 34.0202 28.2399 31.2482 27.8135L31.2471 27.8134C27.7768 27.2717 24.5125 29.7758 23.9961 33.4562L23.9357 33.8867H23.5009H21.161H20.4527L20.6898 33.2193L23.8232 24.4016L23.8246 24.3978C24.2139 23.3297 25.2075 22.5994 26.333 22.5994H52.0223C53.145 22.5994 54.1414 23.3167 54.5314 24.3996ZM25.5497 33.8867H24.9383L25.0596 33.2875C25.4984 31.1206 27.1159 29.4168 29.2071 28.9517L29.2089 28.9513C32.1411 28.3104 34.987 30.2719 35.5906 33.2886L35.7103 33.8867H35.1003H25.5497ZM53.4606 54.6371V54.6331V52.4917V51.9917H53.9606H58.8012C59.5192 51.9917 60.2082 51.8099 60.7095 51.4693L61.4905 50.9387V51.8829L61.4905 54.6331L61.4905 54.6371C61.4784 56.1511 60.3007 57.4006 58.8012 57.4006H56.1499C54.6503 57.4006 53.4726 56.1511 53.4606 54.6371ZM17.5076 54.6371V54.6331V51.8829V50.9387L18.2886 51.4693C18.7898 51.8099 19.4789 51.9917 20.1969 51.9917H25.0375H25.5375V52.4917L25.5375 54.6331L25.5375 54.6372C25.5254 56.1391 24.3492 57.4006 22.8482 57.4006H20.1969C18.6974 57.4006 17.5197 56.1511 17.5076 54.6371ZM17.5076 48.1499L17.5035 47.6459H17.5176V39.4856C17.5176 38.286 17.9911 37.1303 18.8236 36.2918C18.8392 36.273 18.8537 36.2581 18.8651 36.247C18.8724 36.2399 18.8794 36.2335 18.8856 36.228L19.8438 35.1534L19.9929 34.9862H20.217H58.2488H58.4535L58.5995 35.1298L59.9653 36.4734L59.9707 36.4787L59.9759 36.4842L59.996 36.5052L60.002 36.5115C60.9456 37.3536 61.4905 38.5867 61.4905 39.874L61.4905 48.1459L61.4905 48.1498C61.4784 49.6666 60.2874 50.9041 58.7991 50.8923H20.199C18.7091 50.9041 17.5197 49.6546 17.5076 48.1499Z" fill="black" stroke="black"/>
<path d="M43.2634 44.5H33.9236C33.6931 44.5 33.4567 44.7096 33.4567 45.0206C33.4567 45.3315 33.6931 45.5411 33.9236 45.5411H43.2634C43.4939 45.5411 43.7302 45.3315 43.7302 45.0206C43.7302 44.7096 43.4939 44.5 43.2634 44.5Z" fill="black" stroke="black"/>
<path d="M43.2634 39.5H33.9236C33.6931 39.5 33.4567 39.7096 33.4567 40.0206C33.4567 40.3315 33.6931 40.5411 33.9236 40.5411H43.2634C43.4939 40.5411 43.7302 40.3315 43.7302 40.0206C43.7302 39.7096 43.4939 39.5 43.2634 39.5Z" fill="black" stroke="black"/>
<rect x="48.999" y="40" width="7" height="5" rx="1" stroke="black" stroke-width="2"/>
<rect x="21.999" y="40" width="7" height="5" rx="1" stroke="black" stroke-width="2"/>
<path d="M44.9456 23.8994L44.9427 23.8913C44.3466 22.2364 42.8016 21.0994 41.0223 21.0994H15.333C13.5427 21.0994 12.0083 22.2569 11.4152 23.8842L11.4125 23.8918L11.4098 23.8994L8.27643 32.717L7.79272 34.0783L7.72423 34.1551L6.80743 35.1833C6.7828 35.2076 6.75431 35.2369 6.72338 35.2713C5.63026 36.3914 5.01761 37.9128 5.01761 39.4856V46.1458H4.99142L5.00757 48.1539V51.8829V54.6331V54.6411L5.00763 54.6491C5.02579 56.9261 6.81416 58.9005 9.19688 58.9005H11.8482C14.2368 58.9005 16.0192 56.9094 16.0374 54.6492L16.0375 54.6412V54.6331V52.4917V52.3922H40.9606V52.4917V54.6331V54.6411L40.9606 54.6491C40.9788 56.9261 42.7672 58.9005 45.1499 58.9005H47.8012C50.1839 58.9005 51.9723 56.9261 51.9904 54.6491L51.9905 54.6411V54.6331V51.8829V48.1538V48.1458V48.1061V39.874C51.9905 38.1905 51.2885 36.5666 50.048 35.4349L50.0388 35.4253L50.0172 35.4041L48.6514 34.0604L48.5051 33.9165L48.0789 32.7171L44.9456 23.8994ZM6.97842 35.0318C6.99518 35.0182 7.00226 35.013 6.99389 35.0196L6.9936 35.0198L6.97991 35.0306C6.97943 35.031 6.97894 35.0314 6.97842 35.0318Z" fill="white" stroke="white" stroke-width="4"/>
<path fill-rule="evenodd" clip-rule="evenodd" d="M6.79667 35.1188L7.82103 33.9851L11.4163 23.8552C12.0289 22.1442 13.5856 21 15.333 21H41.0223C42.7697 21 44.3364 22.1442 44.949 23.8552L48.4941 33.8591L49.9704 35.2867C51.2559 36.4309 51.999 38.1105 51.999 39.874V54.6331C51.989 57.0475 50.111 59 47.8012 59H45.1499C42.84 59 40.9621 57.0475 40.952 54.6331V52.4917H16.046V54.6331C16.036 57.0475 14.158 59 11.8482 59H9.19688C6.88705 59 5.00907 57.0475 4.99902 54.6331V39.4856C5.00907 37.8376 5.6518 36.263 6.79667 35.1188ZM43.061 24.5691C42.7396 23.6768 41.9262 23.0994 41.0223 23.0994H15.333C14.4291 23.0994 13.6157 23.6873 13.2943 24.5691L10.161 33.3867H12.5009C13.0533 29.4503 16.5582 26.7315 20.3242 27.3193C23.327 27.7812 25.6871 30.2481 26.1289 33.3867H46.1943L43.061 24.5691ZM14.5497 33.3867H24.1003C23.548 30.626 20.9569 28.8624 18.3157 29.4398C16.4277 29.8597 14.9514 31.4028 14.5497 33.3867ZM42.9606 54.6331C42.9706 55.8928 43.9447 56.9006 45.1499 56.9006H47.8012C49.0063 56.9006 49.9804 55.8928 49.9905 54.6331V51.8829C49.3879 52.2923 48.5945 52.4917 47.8012 52.4917H42.9606V54.6331ZM7.00757 54.6331C7.01761 55.8928 7.99176 56.9006 9.19688 56.9006H11.8482C13.0533 56.9006 14.0274 55.8823 14.0375 54.6331V52.4917H9.19688C8.40351 52.4917 7.61013 52.2923 7.00757 51.8829V54.6331ZM7.00757 48.1459C7.01761 49.395 8.0018 50.4028 9.19688 50.3923H47.8012C48.9962 50.4028 49.9804 49.4055 49.9905 48.1459V39.874C49.9905 38.7193 49.4984 37.6171 48.6548 36.8718L48.6146 36.8298L47.2488 35.4862H9.21697L8.25287 36.5674C8.24785 36.5779 8.2378 36.5858 8.22776 36.5936C8.21772 36.6015 8.20768 36.6094 8.20266 36.6199C7.44945 37.3652 7.01761 38.4044 7.01761 39.4856V48.1459H7.00757ZM22.9236 44H32.2634C32.7951 44 33.2302 44.4593 33.2302 45.0206C33.2302 45.5819 32.7951 46.0411 32.2634 46.0411H22.9236C22.3918 46.0411 21.9567 45.5819 21.9567 45.0206C21.9567 44.4593 22.3918 44 22.9236 44ZM32.2634 39H22.9236C22.3918 39 21.9567 39.4593 21.9567 40.0206C21.9567 40.5819 22.3918 41.0411 22.9236 41.0411H32.2634C32.7951 41.0411 33.2302 40.5819 33.2302 40.0206C33.2302 39.4593 32.7951 39 32.2634 39ZM43.999 41H38.999V44H43.999V41ZM38.999 39C37.8945 39 36.999 39.8954 36.999 41V44C36.999 45.1046 37.8945 46 38.999 46H43.999C45.1036 46 45.999 45.1046 45.999 44V41C45.999 39.8954 45.1036 39 43.999 39H38.999ZM11.999 41H16.999V44H11.999V41ZM9.99902 41C9.99902 39.8954 10.8945 39 11.999 39H16.999C18.1036 39 18.999 39.8954 18.999 41V44C18.999 45.1046 18.1036 46 16.999 46H11.999C10.8945 46 9.99902 45.1046 9.99902 44V41Z" fill="url(#paint0_linear)"/>
<defs>
<linearGradient id="paint0_linear" x1="28.5209" y1="27.3043" x2="16.2552" y2="38.9048" gradientUnits="userSpaceOnUse">
<stop stop-color="#D55B17"/>
<stop offset="1" stop-color="#D99227"/>
</linearGradient>
</defs>
</svg>
