<svg width="60" height="60" viewBox="0 0 60 60" fill="none" xmlns="http://www.w3.org/2000/svg">
<path d="M56.835 31.9603C56.8358 31.9543 56.8366 31.9485 56.8374 31.9429C56.8449 31.8908 56.8499 31.856 56.8499 31.8151V23.7779C56.8421 23.3431 56.5417 22.9872 56.1331 22.9156C56.1327 22.9155 56.1323 22.9154 56.1319 22.9154L56.1308 22.9152C56.0585 22.9039 55.4249 22.8044 54.605 22.876C53.7663 22.9492 52.7485 23.2001 51.9351 23.8909L51.9351 23.8909C51.0252 24.6635 50.5537 25.803 50.5537 27.2829V29.6373V29.6661L50.543 29.6928L49.8258 31.4923L49.7836 31.5982L49.6702 31.5858C49.0147 31.5142 48.3464 31.6899 47.8592 32.189L47.8583 32.1898L43.1968 36.8901L43.1749 36.9122L43.146 36.9238C41.4659 37.5964 35.2322 40.6875 34.9929 49.2921L34.99 49.3941L34.8942 49.4289C33.9332 49.7784 33.2324 50.7 33.2167 51.7874L33.2167 51.7876L33.15 56.0169C33.15 56.017 33.15 56.017 33.15 56.017C33.1429 56.499 33.52 56.8913 33.9936 56.899C34.4797 56.8983 34.861 56.5255 34.8681 56.0461L34.8681 56.046L34.9348 51.8105C34.9348 51.8101 34.9348 51.8097 34.9348 51.8092C34.9354 51.3629 35.3051 51.0046 35.7519 51.0046H35.7535L46.0757 51.1139C46.076 51.1139 46.0763 51.1139 46.0766 51.1139C46.5288 51.1144 46.886 51.4876 46.8761 51.9395C46.8761 51.9397 46.8761 51.9398 46.8761 51.94L46.8094 56.1683C46.8094 56.1683 46.8094 56.1684 46.8094 56.1684M56.835 31.9603L47.6518 57.2003C47.093 57.1919 46.6511 56.7294 46.6594 56.1661L46.8094 56.1684M56.835 31.9603L55.9764 37.0623L55.9761 37.0623L55.9752 37.0709C55.8121 38.559 55.1433 39.957 54.0914 41.0177L49.5133 45.6339C48.7069 46.447 48.1757 47.5183 48.004 48.6585M56.835 31.9603L48.004 48.6585M46.8094 56.1684C46.8023 56.6503 47.1793 57.0425 47.6528 57.0503M46.8094 56.1684L47.6528 57.0503M47.6528 57.0503H47.6528H47.6529H47.6529H47.653H47.653H47.6531H47.6531H47.6531H47.6532H47.6532H47.6533H47.6533H47.6534H47.6534H47.6534H47.6535H47.6535H47.6536H47.6536H47.6537H47.6537H47.6537H47.6538H47.6538H47.6539H47.6539H47.6539H47.654H47.654H47.6541H47.6541H47.6541H47.6542H47.6542H47.6543H47.6543H47.6543H47.6544H47.6544H47.6545H47.6545H47.6545H47.6546H47.6546H47.6546H47.6547H47.6547H47.6548H47.6548H47.6548H47.6549H47.6549H47.6549H47.655H47.655H47.6551H47.6551H47.6551H47.6552H47.6552H47.6552H47.6553H47.6553H47.6553H47.6554H47.6554H47.6554H47.6555H47.6555H47.6556H47.6556H47.6556H47.6557H47.6557H47.6557H47.6558H47.6558H47.6558H47.6559H47.6559H47.6559H47.656H47.656H47.656H47.6561H47.6561H47.6561H47.6562H47.6562H47.6562H47.6562H47.6563H47.6563H47.6563H47.6564H47.6564H47.6564H47.6565H47.6565H47.6565H47.6566H47.6566H47.6566H47.6567H47.6567H47.6567H47.6567H47.6568H47.6568H47.6568H47.6569H47.6569H47.6569H47.657H47.657H47.657H47.657H47.6571H47.6571H47.6571H47.6572H47.6572H47.6572H47.6573H47.6573H47.6573H47.6573H47.6574H47.6574H47.6574H47.6575H47.6575H47.6575H47.6576H47.6576H47.6576H47.6577H47.6578H47.6578H47.6579H47.6579H47.658H47.658H47.6581H47.6581H47.6582H47.6582H47.6583H47.6584H47.6584H47.6585H47.6585H47.6586H47.6586H47.6587H47.6587H47.6588H47.6588H47.6589H47.6589H47.659H47.659H47.6591H47.6591H47.6592H47.6592H47.6593H47.6593H47.6594H47.6594H47.6595H47.6595H47.6596H47.6596H47.6597H47.6597H47.6598H47.6598H47.6599H47.6599H47.66H47.66H47.6601H47.6601H47.6602H47.6602H47.6603H47.6603H47.6604H47.6604H47.6604H47.6605H47.6605H47.6606H47.6606H47.6607H47.6607H47.6608H47.6608H47.6609H47.6609H47.661H47.661H47.6611H47.6611H47.6612H47.6612H47.6613H47.6613H47.6614H47.6614H47.6615H47.6615H47.6616H47.6617H47.6617H47.6618H47.6618H47.6619H47.6619H47.662H47.662H47.6621H47.6621H47.6622H47.6622H47.6623H47.6623H47.6624H47.6625H47.6625H47.6626H47.6626H47.6627H47.6627H47.6628H47.6628H47.6628H47.6628H47.6629H47.6629H47.6629H47.663H47.663H47.663H47.663H47.6631H47.6631H47.6631H47.6632H47.6632H47.6632H47.6633H47.6633H47.6633H47.6633H47.6634H47.6634H47.6634H47.6635H47.6635H47.6635H47.6636H47.6636H47.6636H47.6636H47.6637H47.6637H47.6637H47.6638H47.6638H47.6638H47.6639H47.6639H47.6639H47.664H47.664H47.664H47.6641H47.6641H47.6641H47.6642H47.6642H47.6642H47.6643H47.6643H47.6643H47.6644H47.6644H47.6644H47.6645H47.6645H47.6645H47.6646H47.6646H47.6646H47.6647H47.6647H47.6647H47.6648H47.6648H47.6648H47.6649H47.6649H47.6649H47.665H47.665H47.665H47.6651H47.6651H47.6652H47.6652H47.6652H47.6653H47.6653H47.6653H47.6654H47.6654H47.6655H47.6655H47.6655H47.6656H47.6656H47.6656H47.6657H47.6657H47.6658H47.6658H47.6658H47.6659H47.6659H47.6659H47.666H47.666H47.6661H47.6661H47.6661H47.6662H47.6662H47.6663H47.6663H47.6663H47.6664H47.6664H47.6665H47.6665H47.6666H47.6666H47.6666H47.6667H47.6667H47.6668H47.6668H47.6668H47.6669H47.6669H47.667H47.667H47.6671H47.6671H47.6672H47.6672H47.6672H47.6673H47.6673H47.6674H47.6674H47.6675H47.6675H47.6676H47.6676H47.6676H47.6677H47.6677H47.6678H47.6678H47.6679H47.6679H47.668H47.668H47.6681H47.6681H47.6682H47.6682H47.6683H47.6683H47.6683H47.6684H47.6684C48.136 57.0503 48.5204 56.6713 48.5275 56.1975L48.5275 56.1973L48.5942 51.9602L48.744 51.9618L48.5942 51.9595L48.5942 51.9598C48.6019 51.2306 48.2955 50.5709 47.813 50.0923L47.7686 50.0483V49.9858L47.7687 49.9801C47.7687 49.9781 47.7688 49.9747 47.7691 49.9706C47.7692 49.9691 47.7693 49.9676 47.7695 49.966C47.7709 49.9519 47.7746 49.9328 47.7846 49.9121M47.6528 57.0503L47.7792 49.9432L47.7846 49.9121M47.7846 49.9121L48.004 48.6585M47.7846 49.9121L48.004 48.6585M55.1003 31.8642H55.1318V31.7142V24.7352V24.5787L54.9755 24.5853C54.3647 24.611 53.5805 24.7561 53.0413 25.2183L53.0406 25.2188C52.5204 25.6697 52.2801 26.3587 52.2801 27.2829V29.8307C52.2801 29.9384 52.2585 30.0528 52.217 30.1504L52.2169 30.1504L52.2157 30.1535L51.3734 32.264L51.3382 32.3525L51.4032 32.422C51.792 32.8381 52.0697 33.3908 52.1567 33.9649L52.1568 33.9658C52.2674 34.6667 52.0846 35.3257 51.6685 35.784L51.6629 35.7902L51.658 35.7971L48.389 40.3292L48.3887 40.3296C48.1122 40.7158 47.5728 40.8018 47.1897 40.5228C46.8068 40.2439 46.7204 39.6983 46.998 39.3105C46.9981 39.3104 46.9981 39.3104 46.9982 39.3103L50.3084 34.7282L50.3089 34.7285L50.3158 34.7171C50.3295 34.694 50.3566 34.6654 50.3934 34.6283C50.4219 34.5996 50.4355 34.5651 50.4421 34.5458C50.4503 34.5216 50.4562 34.4944 50.4598 34.4654C50.467 34.407 50.4661 34.3336 50.4516 34.2459C50.4137 34.0169 50.2926 33.7604 50.1266 33.593L50.1266 33.593L50.1248 33.5912C49.9718 33.4421 49.7593 33.3588 49.5744 33.3269C49.4808 33.3108 49.3875 33.3066 49.3051 33.3168C49.2286 33.3262 49.136 33.3512 49.0713 33.4164L44.2597 38.2681C44.1784 38.3501 44.04 38.4323 43.9212 38.4773C42.7427 38.9218 37.0317 41.4628 36.7195 49.1136L36.7131 49.2682L36.8678 49.2698L45.9991 49.3622L46.1266 49.3635L46.1484 49.2379L46.2985 48.3718L46.2986 48.3718L46.2991 48.3683C46.5195 46.8865 47.2303 45.4694 48.292 44.3989L52.8701 39.7827C53.6527 38.9936 54.1518 37.9529 54.2638 36.8501L54.2646 36.8426V36.8374C54.2648 36.8363 54.2651 36.8341 54.2659 36.8305C54.2675 36.8225 54.2712 36.805 54.2724 36.7829L55.1003 31.8642Z" fill="#313840" stroke="white" stroke-width="0.3"/>
<path d="M3.84254 22.7676L3.86553 22.9158C3.86655 22.9157 3.86782 22.9155 3.86933 22.9152C3.94172 22.9039 4.57553 22.8044 5.3957 22.876C6.23475 22.9493 7.25291 23.2001 8.06659 23.8912L8.0666 23.8912C8.97688 24.664 9.44851 25.7955 9.44851 27.2841V29.639V29.6678L9.45917 29.6945L10.1766 31.4944L10.2188 31.6004L10.3322 31.588C10.9881 31.5163 11.6572 31.6922 12.1448 32.1837L16.8079 36.8852L16.8298 36.9072L16.8587 36.9188C18.5809 37.6083 24.7835 40.7084 25.0147 49.29L25.0174 49.3916L25.1127 49.4267C26.083 49.7846 26.7753 50.7065 26.7831 51.785L26.7832 51.7863L26.8499 56.0166C26.857 56.4984 26.4804 56.8906 26.0072 56.8989C25.5176 56.8905 25.1382 56.5231 25.1311 56.0459L25.1311 56.0457L25.0644 51.8176C25.0644 51.8172 25.0644 51.8168 25.0644 51.8164C25.0637 51.3639 24.6964 51.0031 24.2554 51.0031L24.2538 51.0032L13.9197 51.1125C13.9193 51.1125 13.919 51.1125 13.9187 51.1125C13.7001 51.1127 13.4963 51.2072 13.346 51.3587C13.1921 51.5139 13.1106 51.7205 13.1106 51.9353L13.1107 51.9377L13.1774 56.168C13.1845 56.6501 12.8074 57.0425 12.3336 57.0503H12.3336H12.3336H12.3335H12.3335H12.3334H12.3334H12.3333H12.3333H12.3333H12.3332H12.3332H12.3331H12.3331H12.333H12.333H12.333H12.3329H12.3329H12.3328H12.3328H12.3327H12.3327H12.3327H12.3326H12.3326H12.3325H12.3325H12.3325H12.3324H12.3324H12.3323H12.3323H12.3323H12.3322H12.3322H12.3321H12.3321H12.3321H12.332H12.332H12.3319H12.3319H12.3319H12.3318H12.3318H12.3318H12.3317H12.3317H12.3316H12.3316H12.3316H12.3315H12.3315H12.3315H12.3314H12.3314H12.3314H12.3313H12.3313H12.3312H12.3312H12.3312H12.3311H12.3311H12.3311H12.331H12.331H12.331H12.3309H12.3309H12.3309H12.3308H12.3308H12.3308H12.3307H12.3307H12.3307H12.3306H12.3306H12.3306H12.3305H12.3305H12.3305H12.3304H12.3304H12.3304H12.3303H12.3303H12.3303H12.3302H12.3302H12.3302H12.3301H12.3301H12.3301H12.33H12.33H12.33H12.3299H12.3299H12.3299H12.3298H12.3298H12.3298H12.3298H12.3297H12.3297H12.3297H12.3296H12.3296H12.3296H12.3295H12.3295H12.3295H12.3295H12.3294H12.3294H12.3294H12.3293H12.3293H12.3293H12.3292H12.3292H12.3292H12.3292H12.3291H12.3291H12.3291H12.329H12.329H12.329H12.329H12.3289H12.3289H12.3288H12.3288H12.3287H12.3287H12.3286H12.3286H12.3285H12.3285H12.3284H12.3284H12.3283H12.3282H12.3282H12.3281H12.3281H12.328H12.328H12.3279H12.3279H12.3278H12.3278H12.3277H12.3277H12.3276H12.3276H12.3275H12.3275H12.3274H12.3274H12.3273H12.3273H12.3272H12.3272H12.3271H12.3271H12.327H12.327H12.3269H12.3269H12.3268H12.3268H12.3267H12.3267H12.3266H12.3266H12.3265H12.3265H12.3264H12.3264H12.3263H12.3263H12.3262H12.3262H12.3261H12.3261H12.326H12.326H12.3259H12.3259H12.3258H12.3258H12.3257H12.3257H12.3257H12.3256H12.3256H12.3255H12.3255H12.3254H12.3254H12.3253H12.3253H12.3252H12.3252H12.3251H12.325H12.325H12.3249H12.3249H12.3248H12.3248H12.3247H12.3247H12.3246H12.3246H12.3245H12.3245H12.3244H12.3244H12.3243H12.3243H12.3242H12.3242H12.3241H12.324H12.324H12.3239H12.3239H12.3238H12.3238H12.3237H12.3237H12.3237H12.3236H12.3236H12.3236H12.3235H12.3235H12.3235H12.3235H12.3234H12.3234H12.3234H12.3233H12.3233H12.3233H12.3232H12.3232H12.3232H12.3232H12.3231H12.3231H12.3231H12.323H12.323H12.323H12.3229H12.3229H12.3229H12.3229H12.3228H12.3228H12.3228H12.3227H12.3227H12.3227H12.3226H12.3226H12.3226H12.3225H12.3225H12.3225H12.3224H12.3224H12.3224H12.3224H12.3223H12.3223H12.3223H12.3222H12.3222H12.3222H12.3221H12.3221H12.3221H12.322H12.322H12.322H12.3219H12.3219H12.3218H12.3218H12.3218H12.3217H12.3217H12.3217H12.3216H12.3216H12.3216H12.3215H12.3215H12.3215H12.3214H12.3214H12.3214H12.3213H12.3213H12.3212H12.3212H12.3212H12.3211H12.3211H12.3211H12.321H12.321H12.321H12.3209H12.3209H12.3208H12.3208H12.3208H12.3207H12.3207H12.3207H12.3206H12.3206H12.3205H12.3205H12.3205H12.3204H12.3204H12.3203H12.3203H12.3203H12.3202H12.3202H12.3201H12.3201H12.3201H12.32H12.32H12.3199H12.3199H12.3198H12.3198H12.3198H12.3197H12.3197H12.3196H12.3196H12.3196H12.3195H12.3195H12.3194H12.3194H12.3193H12.3193H12.3192H12.3192H12.3192H12.3191H12.3191H12.319H12.319H12.3189H12.3189H12.3188H12.3188H12.3188H12.3187H12.3187H12.3186H12.3186H12.3185H12.3185H12.3184H12.3184H12.3183H12.3183H12.3182H12.3182H12.3181H12.3181H12.318H12.318C11.8502 57.0503 11.4657 56.6712 11.4586 56.1972L11.4586 56.1971L11.3919 51.9673C11.3919 51.9672 11.3919 51.9671 11.3919 51.9671C11.384 51.2753 11.6439 50.6326 12.1162 50.1482C12.123 50.1414 12.1305 50.1349 12.1413 50.1261C12.1497 50.1191 12.1676 50.1048 12.1826 50.0897L12.2873 49.9841L12.2093 49.9054L11.999 48.6821C11.8273 47.5165 11.296 46.4446 10.4892 45.6311L5.9094 41.0137C4.85713 39.9528 4.18815 38.5545 4.02501 37.066L4.02526 37.066L4.02383 37.0574L3.16467 31.9527C3.16466 31.9526 3.16465 31.9525 3.16463 31.9524C3.15658 31.9037 3.15 31.8549 3.15 31.8089V23.7684C3.15 23.3458 3.45565 22.9871 3.86823 22.9154L3.84254 22.7676ZM3.84254 22.7676C3.3587 22.8517 3 23.2722 3 23.7684V31.8089C3 31.8678 3.00834 31.9267 3.01668 31.9771L9.59851 29.639V27.2841C9.59851 25.7617 9.11467 24.5843 8.16369 23.7769C6.48727 22.3531 4.00149 22.7427 3.84653 22.767C3.84496 22.7672 3.84363 22.7674 3.84254 22.7676ZM11.7026 44.4042L11.703 44.4046C12.7726 45.4748 13.4755 46.8917 13.6962 48.3911L13.6961 48.3911L13.6969 48.3956L13.8471 49.2367L13.8694 49.3616L13.9963 49.3603L23.1391 49.2678L23.2937 49.2662L23.2874 49.1117C22.975 41.459 17.2621 38.9174 16.0832 38.4727C15.9644 38.4278 15.8259 38.3455 15.7446 38.2635L10.9313 33.4106C10.8672 33.3461 10.7756 33.3203 10.6989 33.31C10.6165 33.299 10.523 33.3022 10.429 33.3178C10.2432 33.3486 10.0293 33.4324 9.87574 33.5872C9.70998 33.7544 9.61399 33.9703 9.56872 34.1517C9.54595 34.2429 9.53464 34.3308 9.53546 34.4053C9.53586 34.4424 9.53931 34.4802 9.54783 34.5152C9.55554 34.5469 9.5714 34.5934 9.6088 34.6311C9.63464 34.6572 9.66205 34.6913 9.6958 34.7339L13.0052 39.3144C13.0053 39.3144 13.0053 39.3145 13.0054 39.3145C13.2831 39.7025 13.1967 40.2482 12.8136 40.5271C12.4303 40.8062 11.8908 40.7202 11.6141 40.3339L11.6138 40.3335L8.34373 35.8003L8.33921 35.794L8.33407 35.7882C7.92526 35.3294 7.74237 34.678 7.85309 33.9683L7.85314 33.968C7.9402 33.4014 8.21826 32.8403 8.60695 32.4244L8.67198 32.3548L8.63668 32.2664L7.79414 30.1553L7.79418 30.1553L7.79287 30.1522C7.75136 30.0546 7.72975 29.9402 7.72975 29.8324V27.2841C7.72975 26.3596 7.48931 25.6705 6.96892 25.2195L6.96829 25.2189C6.4289 24.7567 5.64441 24.6115 5.0334 24.5858L4.8771 24.5792V24.7357V31.7164V31.7288L4.87914 31.7411L5.72008 36.7862C5.72128 36.807 5.72462 36.8237 5.72636 36.8323L5.72668 36.834C5.72739 36.8376 5.72778 36.8397 5.72798 36.8408V36.8466L5.72887 36.8547C5.8493 37.9561 6.33953 38.997 7.12289 39.7868L11.7026 44.4042Z" fill="#313840" stroke="white" stroke-width="0.3"/>
<path fill-rule="evenodd" clip-rule="evenodd" d="M30 33C22.268 33 16 26.732 16 19C16 11.268 22.268 5 30 5C37.732 5 44 11.268 44 19C44 26.732 37.732 33 30 33ZM30 35C21.1634 35 14 27.8366 14 19C14 10.1634 21.1634 3 30 3C38.8366 3 46 10.1634 46 19C46 27.8366 38.8366 35 30 35ZM32.0801 22.6001C32.0801 21.4956 31.1846 20.6001 30.0801 20.6001C27.2082 20.6001 24.8801 18.272 24.8801 15.4001C24.8801 13.1161 26.3526 11.1761 28.4001 10.4775V8.60013H31.6001V10.4258C33.7304 11.0759 35.2801 13.0571 35.2801 15.4001H32.0801C32.0801 14.2956 31.1846 13.4001 30.0801 13.4001C28.9755 13.4001 28.0801 14.2956 28.0801 15.4001C28.0801 16.5047 28.9755 17.4001 30.0801 17.4001C32.952 17.4001 35.2801 19.7282 35.2801 22.6001C35.2801 24.9432 33.7304 26.9243 31.6001 27.5745V29.4001H28.4001V27.5228C26.3526 26.8242 24.8801 24.8841 24.8801 22.6001H28.0801C28.0801 23.7047 28.9755 24.6001 30.0801 24.6001C31.1846 24.6001 32.0801 23.7047 32.0801 22.6001Z" fill="url(#paint0_linear)"/>
<defs>
<linearGradient id="paint0_linear" x1="29.9851" y1="8.30878" x2="39.9686" y2="15.943" gradientUnits="userSpaceOnUse">
<stop stop-color="#D55B17"/>
<stop offset="1" stop-color="#D99227"/>
</linearGradient>
</defs>
</svg>
