<svg width="60" height="60" viewBox="0 0 60 60" fill="none" xmlns="http://www.w3.org/2000/svg">
<path d="M33.3 56C33.3 56.4 33.6 56.7 34 56.7C34.4 56.7 34.7 56.4 34.7 56L34.8 51.8C34.8 51.3 35.2 50.8 35.8 50.8L46.1 51C46.3 51 46.6 51.1 46.8 51.3C47 51.5 47.1 51.7 47.1 52L47 56.2C47 56.6 47.3001 56.9 47.7001 56.9C48.1001 56.9 48.4 56.6 48.4 56.2L48.5 52C48.5 51.4 48.3 50.7 47.8 50.3L47.5 50L47.7001 49.9L47.9 48.7C48.1 47.5 48.6 46.4 49.5 45.6L54.1 41C55.1 40 55.8 38.6 56 37.1L56.9 32V31.9V23.9C56.9 23.5 56.7 23.2 56.3 23.2C56.2 23.2 55.8 23.1 55.4 23.1C54.5 23.1 53.2001 23.3 52.2001 24.1C51.3001 24.8 50.9 25.9 50.9 27.4V29.8L50.2001 31.6L50.1 31.8H49.9C49.8 31.8 49.7 31.8 49.6 31.8C49.2 31.8 48.6001 31.9 48.2001 32.4L43.3 37C41.5 37.7 35.5 40.8 35.2 49.2V49.4L35 49.5C34.1 49.8 33.4 50.7 33.4 51.7L33.3 56ZM36.6 49.4V49.1C36.9 41.3 42.7 38.8 43.9 38.3C44 38.3 44.1001 38.2 44.2001 38.1L49 33.3C49.1 33.2 49.2 33.1 49.4 33.1C49.6 33.1 50.0001 33.2 50.2001 33.4C50.5001 33.7 50.7 34.4 50.5 34.7C50.5 34.7 50.5 34.8 50.4 34.8L47.1 39.4C46.9 39.7 46.9 40.2 47.3 40.4C47.4 40.5 47.6001 40.5 47.7001 40.5C47.9001 40.5 48.1 40.4 48.3 40.2L51.6 35.6C52 35.2 52.1 34.6 52.1 33.9C52 33.4 51.8 32.8 51.4 32.4L51.3 32.3L51.4 32.1L52.3 30C52.3 29.9 52.3 29.8 52.3 29.7V27.2C52.3 26.2 52.6 25.5 53.1 25C53.7 24.5 54.5 24.4 55.1 24.3H55.4V31.7L54.6 36.7V36.8C54.5 37.9 54.0001 39 53.2001 39.8L48.6 44.4C47.6 45.4 46.9 46.8 46.6 48.3L46.3 49.3V49.5H46L36.9 49.4H36.6Z" fill="#313840"/>
<path d="M26.6 51.8C26.6 50.8 26 49.9 25 49.6L24.8 49.5V49.3C24.6 40.9 18.6 37.8 16.7 37.1L12 32.4C11.5 31.9 11 31.8 10.6 31.8C10.5 31.8 10.4 31.8 10.3 31.8H10.1L10 31.6L9.30005 29.8V27.4C9.30005 26 8.80005 24.9 8.00005 24.1C7.00005 23.3 5.70005 23.1 4.80005 23.1C4.30005 23.1 4.00005 23.1 3.90005 23.2C3.50005 23.1 3.30005 23.4 3.30005 23.8V31.8V31.9L4.20005 37C4.40005 38.5 5.00005 39.8 6.10005 40.9L10.7 45.5C11.5 46.3 12.1 47.4 12.3 48.6V49.8L12.5 50L12.3 50.2C11.8 50.7 11.6 51.3 11.6 51.9L11.7 56.1C11.7 56.5 12 56.8 12.4 56.8C12.8 56.8 13.1 56.5 13.1 56.1L13 51.9C13 51.6 13.1 51.4 13.3 51.2C13.5 51 13.7 50.9 14 50.9L24.3 50.8C24.8 50.8 25.3 51.2 25.3 51.8V56C25.3 56.4 25.6 56.7 26 56.7C26.4 56.7 26.7 56.4 26.7 56L26.6 51.8ZM23.1 49.4L14 49.5H13.7V49.3L13.5 48.5C13.3 47 12.6 45.6 11.5 44.6L6.90005 40C6.10005 39.2 5.60005 38.1 5.50005 37V36.9L4.70005 31.9V24.5H5.00005C5.60005 24.5 6.40005 24.7 7.00005 25.2C7.50005 25.7 7.80005 26.4 7.80005 27.4V29.9C7.80005 30 7.80005 30.1 7.80005 30.2L8.70005 32.3L8.80005 32.5L8.70005 32.6C8.30005 32.9 8.10005 33.5 8.00005 34C7.90005 34.7 8.10005 35.3 8.50005 35.7L11.8 40.3C11.9 40.5 12.1 40.6 12.4 40.6C12.6 40.6 12.7 40.6 12.8 40.5C13.1 40.3 13.2 39.8 13 39.5L9.70005 34.9C9.70005 34.9 9.70005 34.8 9.60005 34.8C9.40005 34.5 9.50005 33.9 9.90005 33.5C10.1 33.3 10.5 33.2 10.7 33.2C10.9 33.2 11 33.3 11.1 33.4L15.9 38.2C16 38.3 16.1 38.3 16.2 38.4C17.4 38.8 23.2 41.4 23.5 49.2V49.5L23.1 49.4Z" fill="#313840"/>
<path fill-rule="evenodd" clip-rule="evenodd" d="M30 33C22.3 33 16 26.7 16 19C16 11.3 22.3 5 30 5C37.7 5 44 11.3 44 19C44 26.7 37.7 33 30 33ZM30 35C21.2 35 14 27.8 14 19C14 10.2 21.2 3 30 3C38.8 3 46 10.2 46 19C46 27.8 38.8 35 30 35ZM32.1 22.6C32.1 21.5 31.2 20.6 30.1 20.6C27.2 20.6 24.9 18.3 24.9 15.4C24.9 13.1 26.4 11.2 28.4 10.5V8.6H31.6V10.4C33.7 11.1 35.3 13 35.3 15.4H32.1C32.1 14.3 31.2 13.4 30.1 13.4C29 13.4 28.1 14.3 28.1 15.4C28.1 16.5 29 17.4 30.1 17.4C33 17.4 35.3 19.7 35.3 22.6C35.3 24.9 33.8 26.9 31.6 27.6V29.4H28.4V27.5C26.4 26.8 24.9 24.9 24.9 22.6H28.1C28.1 23.7 29 24.6 30.1 24.6C31.2 24.6 32.1 23.7 32.1 22.6Z" fill="url(#paint0_linear)"/>
<defs>
<linearGradient id="paint0_linear" x1="24.8318" y1="15.0479" x2="34.8153" y2="22.6822" gradientUnits="userSpaceOnUse">
<stop stop-color="#D55B17"/>
<stop offset="1" stop-color="#D99227"/>
</linearGradient>
</defs>
</svg>
