<svg width="71" height="60" viewBox="0 0 71 60" fill="none" xmlns="http://www.w3.org/2000/svg">
<path fill-rule="evenodd" clip-rule="evenodd" d="M46.4969 13.5303L48.1495 10.2894C42.5023 3.08084 33.57 -0.751672 24.4548 0.122981C15.3394 0.997634 7.29888 6.45876 3.12558 14.6097H6.85259C11.013 7.75731 18.3678 3.48585 26.3813 3.26789C34.395 3.04996 41.971 6.91534 46.4978 13.5314M53.9017 26.8751C53.9037 23.6467 53.3208 20.4446 52.1813 17.4239L50.0452 21.6158C52.471 32.1919 47.3726 43.0593 37.6887 47.9541C28.0047 52.8492 16.231 50.5103 9.15327 42.2857H5.02727C11.7508 51.8951 23.9312 56.0319 35.1161 52.505C46.3011 48.978 53.9053 38.6024 53.9004 26.8744" fill="#278C37"/>
<path fill-rule="evenodd" clip-rule="evenodd" d="M53.7991 11.199H49.2454L38.0108 32.9812L33.461 24.2001C32.733 25.6242 31.6892 27.6677 31.2005 28.6382L38.0231 41.8073L40.2955 37.3916L53.7991 11.199Z" fill="#A0C522"/>
<path fill-rule="evenodd" clip-rule="evenodd" d="M38.6874 11.199H34.1337L22.8991 32.9812L19.3645 26.1588C19.2961 26.4839 19.2179 26.8073 19.1207 27.1267C18.7888 28.2339 18.228 29.259 17.4747 30.1358C17.3514 30.2793 17.2113 30.4112 17.0768 30.5458L22.9112 41.8065L25.1835 37.3908L38.6874 11.199Z" fill="#278C37"/>
<path fill-rule="evenodd" clip-rule="evenodd" d="M70.3853 21.5374C70.3853 21.3602 70.2415 21.2166 70.0644 21.2166H65.4593C65.2822 21.2166 65.1387 21.073 65.1384 20.8959V16.2651C65.1384 16.088 64.9949 15.9444 64.8178 15.9443H62.1866C62.0095 15.9444 61.866 16.088 61.8657 16.2651V20.8959C61.8657 21.073 61.7222 21.2166 61.5451 21.2166H56.9143C56.7372 21.2167 56.5937 21.3603 56.5934 21.5374V24.1945C56.5937 24.3716 56.7372 24.5152 56.9143 24.5154H61.5451C61.7222 24.5154 61.8657 24.6589 61.8657 24.836V29.4418C61.866 29.6189 62.0095 29.7624 62.1866 29.7624H64.8178C64.9949 29.7624 65.1384 29.6189 65.1384 29.4418V24.836C65.1387 24.6589 65.2822 24.5154 65.4593 24.5154H70.0644C70.2415 24.5154 70.3853 24.3716 70.3853 24.1945V21.5374Z" fill="#FBBA00"/>
<path fill-rule="evenodd" clip-rule="evenodd" d="M8.95606 27.4998C9.51493 27.5015 10.0729 27.4554 10.624 27.3624C11.1264 27.2834 11.6073 27.1019 12.0367 26.8295C12.4565 26.5506 12.7944 26.1649 13.0158 25.7122C13.5074 24.4994 13.5074 23.1431 13.0158 21.9303C12.7944 21.4775 12.4565 21.0917 12.0367 20.8126C11.607 20.5407 11.1263 20.3594 10.624 20.2797C10.0729 20.187 9.51491 20.1411 8.95606 20.1423H5.03965V27.4998H8.95606ZM10.3363 15.9476C11.5895 15.9134 12.836 16.1419 13.9957 16.6183C14.9359 17.0179 15.7748 17.6229 16.4509 18.3888C17.0808 19.1201 17.5509 19.975 17.8311 20.8986C18.4091 22.7981 18.4091 24.8268 17.8311 26.7263C17.2682 28.6651 15.8582 30.2451 13.9957 31.0242C12.836 31.5004 11.5895 31.7287 10.3363 31.6944H5.03965V40.4962H0V15.9476H10.3363Z" fill="#FBBA00"/>
<path fill-rule="evenodd" clip-rule="evenodd" d="M32.6716 58.688C33.0267 58.8737 33.4599 58.8188 33.7577 58.5506C33.8585 58.4624 33.9261 58.3424 33.9491 58.2105L34.7585 58.0608C34.7313 58.4255 34.5768 58.7692 34.3222 59.0319C34.0639 59.2652 33.743 59.4177 33.3991 59.4709C33.1564 59.5194 32.9069 59.5213 32.6635 59.4763C32.4455 59.4353 32.2395 59.3464 32.0597 59.2165C31.88 59.0837 31.7292 58.9158 31.6168 58.7227C31.4924 58.5096 31.4072 58.2759 31.3651 58.0327C31.3188 57.7943 31.3166 57.5496 31.3587 57.3106C31.4356 56.8612 31.6954 56.4637 32.0764 56.2133C32.2794 56.0796 32.5077 55.9894 32.7471 55.9484C33.0039 55.8946 33.2699 55.9038 33.5223 55.9756C33.7474 56.043 33.954 56.1617 34.1254 56.3228C34.299 56.4876 34.439 56.6845 34.5375 56.9026C34.6433 57.1346 34.7118 57.3817 34.7401 57.6352L32.3259 58.0821C32.36 58.3206 32.4837 58.5372 32.6723 58.6876M33.3853 56.7343C33.2277 56.6294 33.0328 56.5976 32.85 56.6465C32.7234 56.6656 32.6031 56.7143 32.4989 56.7887C32.417 56.8493 32.349 56.927 32.2998 57.0163C32.2568 57.0956 32.2296 57.1825 32.2199 57.2722C32.2114 57.3479 32.2109 57.4243 32.2186 57.5003L33.7141 57.2233C33.652 57.0332 33.5385 56.8642 33.386 56.735M29.238 59.928L27.797 56.6314L28.7745 56.5508L29.6809 58.8081L29.6939 58.807L30.2182 56.4319L31.1434 56.3555L30.2737 59.8424L29.238 59.928ZM27.578 56.5903L27.5999 59.9941L26.665 60L26.643 56.5963L27.578 56.5903ZM26.6397 56.0695L26.6349 55.2992L27.5698 55.2933L27.5747 56.0636L26.6397 56.0695ZM23.8542 59.0016C23.8883 59.0752 23.9381 59.1403 24.0004 59.1921C24.0652 59.245 24.1389 59.2858 24.2183 59.3124C24.3035 59.3416 24.3919 59.36 24.4817 59.367C24.5513 59.3725 24.6211 59.3706 24.6902 59.3611C24.7602 59.3528 24.8285 59.3341 24.893 59.3054C24.954 59.2779 25.0082 59.2373 25.0514 59.1862C25.0978 59.1287 25.1243 59.058 25.1276 58.9843C25.1392 58.8445 25.055 58.7319 24.8748 58.6465C24.6283 58.537 24.3742 58.4453 24.1145 58.3724C23.9813 58.3307 23.8521 58.2838 23.7265 58.2313C23.6076 58.1832 23.4961 58.1183 23.3953 58.0388C23.3018 57.9646 23.2259 57.8703 23.1737 57.763C23.1188 57.6425 23.098 57.5095 23.1131 57.378C23.121 57.1899 23.1805 57.0078 23.2854 56.8513C23.3793 56.7207 23.5051 56.6162 23.6506 56.5478C23.804 56.4764 23.9686 56.4321 24.1371 56.4161C24.3173 56.3976 24.4988 56.3961 24.6792 56.4113C24.8588 56.4257 25.0365 56.458 25.2097 56.5078C25.3703 56.5528 25.522 56.6257 25.6576 56.7231C25.7869 56.8179 25.8931 56.9408 25.9682 57.0824C26.0513 57.2481 26.0917 57.432 26.086 57.6172L25.2002 57.5441C25.2167 57.3951 25.1502 57.249 25.0269 57.1634C24.8978 57.0859 24.7519 57.0407 24.6015 57.0317C24.5445 57.0273 24.4872 57.026 24.4301 57.0275C24.372 57.0284 24.3145 57.0383 24.2594 57.0565C24.208 57.0736 24.1615 57.1026 24.1235 57.141C24.0827 57.1855 24.0592 57.2435 24.0577 57.304C24.0489 57.3822 24.0766 57.4599 24.1327 57.515C24.1988 57.5786 24.2765 57.6286 24.3617 57.6627C24.4696 57.7079 24.58 57.7469 24.6924 57.7792C24.8171 57.8159 24.9437 57.8549 25.0725 57.8964C25.2042 57.9377 25.3337 57.9859 25.4603 58.0406C25.5795 58.0915 25.6903 58.1595 25.7895 58.2429C25.883 58.3222 25.9583 58.4207 26.0101 58.532C26.0649 58.6593 26.0854 58.7988 26.0693 58.9365C26.0566 59.3117 25.8415 59.6504 25.5075 59.8218C25.3479 59.9043 25.1746 59.9563 24.9961 59.9754C24.8061 59.9971 24.6145 60.0002 24.4238 59.9844C24.2298 59.9688 24.0377 59.9328 23.8512 59.8775C23.6765 59.8277 23.5119 59.7469 23.3655 59.6394C23.2263 59.5354 23.1131 59.4004 23.0348 59.2455C22.9487 59.0648 22.9116 58.8647 22.9272 58.6652L23.813 58.7383C23.8033 58.828 23.8174 58.9189 23.854 59.0016M20.2547 58.4457C20.2802 58.5225 20.3225 58.5928 20.3785 58.6514C20.4369 58.7115 20.5056 58.7604 20.5815 58.7958C20.6628 58.8344 20.7485 58.8627 20.8368 58.8798C20.9053 58.893 20.9749 58.8989 21.0446 58.8974C21.1151 58.897 21.1852 58.886 21.2524 58.8649C21.3162 58.8445 21.3746 58.8103 21.4234 58.7644C21.4758 58.7126 21.5102 58.6454 21.5217 58.5726C21.5492 58.4347 21.4782 58.3132 21.3086 58.208C21.0761 58.0715 20.8341 57.9517 20.5844 57.8499C20.4567 57.7932 20.3334 57.732 20.2146 57.6659C20.1019 57.6047 19.9984 57.5277 19.9073 57.4373C19.8228 57.3528 19.7582 57.2505 19.7184 57.1379C19.6774 57.0122 19.6715 56.8776 19.7015 56.7488C19.7305 56.5625 19.8104 56.3878 19.9323 56.244C20.0405 56.1248 20.1772 56.0353 20.3296 55.9837C20.4902 55.9304 20.6586 55.9047 20.8278 55.908C21.0089 55.91 21.1894 55.9289 21.367 55.9644C21.5438 55.9991 21.7167 56.0515 21.8832 56.1205C22.0377 56.183 22.1801 56.2721 22.3039 56.3838C22.4216 56.4929 22.5131 56.6268 22.5719 56.776C22.6358 56.95 22.6553 57.1373 22.6285 57.3207L21.7566 57.148C21.7897 57.0016 21.7401 56.8489 21.6273 56.7499C21.5078 56.6586 21.368 56.5976 21.2197 56.5719C21.1636 56.5609 21.1069 56.553 21.0499 56.5482C20.992 56.5425 20.9336 56.5458 20.8767 56.5576C20.8239 56.569 20.7744 56.5925 20.7323 56.6263C20.6867 56.6658 20.6568 56.7203 20.648 56.78C20.6306 56.8566 20.6493 56.9371 20.6987 56.9981C20.7572 57.0688 20.8289 57.1274 20.9096 57.1706C21.0116 57.2279 21.1168 57.2793 21.2248 57.3242C21.3446 57.3747 21.4661 57.4278 21.5893 57.4836C21.7154 57.5395 21.8386 57.6021 21.9583 57.6708C22.0713 57.7346 22.174 57.815 22.2635 57.9091C22.3476 57.9984 22.4112 58.1049 22.4499 58.2212C22.49 58.354 22.4946 58.4949 22.463 58.6299C22.408 59.0012 22.156 59.3135 21.8046 59.4458C21.6369 59.5097 21.4587 59.5415 21.2792 59.5398C21.0876 59.5402 20.8965 59.5216 20.7086 59.484C20.5176 59.4465 20.331 59.3892 20.1518 59.3133C19.9838 59.2441 19.8295 59.1454 19.6962 59.0218C19.5693 58.9029 19.4717 58.756 19.4109 58.593C19.3459 58.4038 19.3316 58.2006 19.3696 58.0042L20.2416 58.1769C20.2215 58.2653 20.2252 58.3575 20.2523 58.4442M16.7408 57.5172C16.9664 57.8486 17.3743 58.0044 17.7633 57.908C17.8938 57.8777 18.0099 57.8036 18.0925 57.6982L18.8769 57.9475C18.681 58.2565 18.3828 58.487 18.0344 58.5985C17.6967 58.6825 17.3417 58.6656 17.0134 58.5504C16.7766 58.4789 16.5555 58.363 16.362 58.2087C16.1892 58.0698 16.0492 57.8944 15.9521 57.6949C15.8562 57.493 15.8024 57.2738 15.7941 57.0506C15.7849 56.8039 15.8199 56.5576 15.8974 56.3235C15.9689 56.0915 16.0823 55.8747 16.2321 55.6837C16.5115 55.3236 16.9279 55.0955 17.3819 55.0543C17.6239 55.0321 17.8679 55.0604 18.0985 55.137C18.3503 55.2105 18.5805 55.3442 18.7692 55.5264C18.9362 55.6918 19.0623 55.894 19.1377 56.1167C19.2129 56.3439 19.2435 56.5835 19.2276 56.8223C19.2119 57.0769 19.1556 57.3271 19.0611 57.5639L16.7207 56.8199C16.6381 57.0464 16.6453 57.2959 16.7408 57.5172ZM18.2903 56.1306C18.201 55.964 18.0441 55.8439 17.8599 55.8014C17.7391 55.7581 17.6097 55.7443 17.4824 55.7607C17.3816 55.7757 17.2851 55.8121 17.1998 55.8678C17.1243 55.9172 17.0594 55.9811 17.0086 56.0557C16.9654 56.1185 16.929 56.1856 16.9002 56.2561L18.3487 56.717C18.3834 56.5201 18.3629 56.3175 18.2894 56.1317M15.194 54.1527L14.9443 54.7332L14.9563 54.7385C15.0389 54.6586 15.133 54.5914 15.2355 54.5396C15.3384 54.4872 15.4485 54.4501 15.5623 54.4299C15.6754 54.4097 15.7908 54.4051 15.9051 54.4163C16.0208 54.4277 16.134 54.4573 16.2405 54.5041C16.3039 54.5322 16.3631 54.569 16.416 54.6138L16.0726 55.4122C16.0357 55.3868 15.9905 55.3589 15.9365 55.3286C15.8849 55.2992 15.8317 55.2726 15.7772 55.2492C15.6416 55.1862 15.4936 55.1544 15.3441 55.1561C15.2191 55.1601 15.097 55.195 14.9888 55.2577C14.8794 55.3231 14.7845 55.4105 14.7101 55.5141C14.6255 55.6306 14.5545 55.7564 14.4985 55.8889L13.8924 57.2981L13.0334 56.9288L14.3787 53.8018L15.194 54.1527ZM12.0227 56.749C11.899 56.886 11.7444 56.9913 11.5717 57.0563C11.3622 57.1307 11.1383 57.1553 10.9177 57.1283C10.6014 57.0835 10.2978 56.9733 10.0264 56.8045C9.87726 56.7192 9.73871 56.6165 9.61362 56.4986C9.48738 56.3818 9.38047 56.246 9.29692 56.0957C9.21671 55.9508 9.16829 55.7904 9.15493 55.6253C9.14297 55.4482 9.17922 55.2713 9.25983 55.1133L10.0673 55.5713C10.0162 55.7188 10.0323 55.8812 10.1111 56.0158C10.1949 56.1444 10.3095 56.2499 10.4445 56.323C10.6257 56.4477 10.8561 56.4767 11.0625 56.4009C11.2573 56.3118 11.4153 56.1582 11.5098 55.966L11.7306 55.5764L11.7192 55.5698C11.5485 55.6752 11.3483 55.7221 11.1486 55.7037C10.9458 55.6866 10.7492 55.6256 10.5725 55.5248C10.3723 55.4179 10.1992 55.2667 10.0664 55.0826C9.95307 54.9206 9.87994 54.7339 9.85306 54.5379C9.82753 54.3357 9.84245 54.1305 9.89695 53.9341C9.95401 53.719 10.0385 53.5123 10.1485 53.3187C10.2542 53.1313 10.3878 52.9612 10.5448 52.8139C10.6929 52.6728 10.8657 52.5602 11.0546 52.4821C11.239 52.4071 11.4375 52.3737 11.6362 52.3842C11.8532 52.3981 12.0638 52.4632 12.2507 52.5741C12.4299 52.6706 12.5842 52.8074 12.7015 52.9737C12.8119 53.1451 12.8682 53.3457 12.8633 53.5496L12.8747 53.5562L13.0988 53.1611L13.872 53.6001L12.3019 56.3693C12.222 56.505 12.1285 56.6318 12.0227 56.7484M11.4672 55.1315C11.5776 55.1361 11.6875 55.1157 11.7888 55.0716C11.8915 55.0262 11.9852 54.9628 12.0655 54.8842C12.1509 54.801 12.2238 54.706 12.2821 54.6022C12.3486 54.4861 12.403 54.3634 12.4443 54.2361C12.4819 54.122 12.4986 54.0019 12.4937 53.8819C12.4881 53.7684 12.4543 53.6582 12.3954 53.5612C12.3231 53.45 12.2232 53.3591 12.1055 53.2979C12.0045 53.2369 11.8894 53.2028 11.7714 53.1993C11.6636 53.1985 11.5571 53.2222 11.4598 53.2685C11.3569 53.3176 11.2643 53.3859 11.1868 53.4695C11.1027 53.5593 11.0298 53.6589 10.9695 53.7662C10.9088 53.8729 10.859 53.9855 10.8207 54.102C10.7829 54.2131 10.7653 54.33 10.7687 54.4472C10.7724 54.5596 10.802 54.6698 10.8551 54.7688C10.9182 54.8791 11.0118 54.9689 11.1247 55.0275C11.2287 55.0894 11.3463 55.1247 11.4672 55.1309M7.41586 50.5315C7.79572 50.2835 8.26492 50.2135 8.70063 50.3399C8.93829 50.4088 9.16059 50.5225 9.35552 50.6748C9.55565 50.8221 9.72616 51.0058 9.8581 51.2162C10.1003 51.6012 10.1612 52.073 10.0247 52.5069C9.94984 52.7481 9.83216 52.9737 9.67726 53.173C9.52824 53.3753 9.34358 53.5489 9.13232 53.6852C8.94329 53.8062 8.73094 53.8861 8.50903 53.9194C8.28796 53.9506 8.06274 53.9337 7.84887 53.8696C7.6113 53.7978 7.38904 53.6826 7.19332 53.5301C6.99411 53.3839 6.82391 53.2017 6.6914 52.9933C6.57315 52.805 6.49666 52.5936 6.4671 52.3733C6.43907 52.1505 6.4583 51.9244 6.5235 51.7098C6.59724 51.4695 6.71433 51.2447 6.86895 51.0466C7.01864 50.8433 7.20394 50.6686 7.41586 50.5315ZM7.40533 51.9523C7.34998 52.0651 7.31512 52.1869 7.3024 52.312C7.29061 52.4312 7.3088 52.5515 7.35529 52.6619C7.41248 52.787 7.50202 52.8947 7.6147 52.9737C7.72226 53.0611 7.85093 53.1188 7.98779 53.1407C8.10734 53.157 8.2291 53.1427 8.34158 53.099C8.45851 53.0525 8.56625 52.9856 8.65981 52.9015C8.76013 52.8131 8.85123 52.7148 8.93173 52.6079C9.01333 52.5005 9.08404 52.3851 9.14286 52.2637C9.19884 52.1512 9.23374 52.0293 9.24579 51.9043C9.25571 51.7844 9.23666 51.6639 9.19026 51.5531C9.13373 51.426 9.04385 51.3167 8.93019 51.2366C8.7287 51.0674 8.45085 51.022 8.20595 51.1181C8.08857 51.1638 7.98066 51.2307 7.88772 51.3156C7.78678 51.4052 7.69496 51.5044 7.6136 51.6119C7.53268 51.7184 7.4627 51.8329 7.40467 51.9534M6.88804 48.7538L6.4603 49.2191L6.46995 49.2278C6.57431 49.1798 6.68527 49.1477 6.79915 49.1326C6.91374 49.117 7.03001 49.1183 7.14416 49.137C7.25751 49.1552 7.36784 49.189 7.47204 49.2373C7.57741 49.2862 7.6745 49.3514 7.75977 49.4304C7.80992 49.4783 7.853 49.5329 7.88772 49.5928L7.29932 50.2323C7.27299 50.1961 7.23941 50.1549 7.19859 50.1086C7.15954 50.0638 7.11815 50.0212 7.07459 49.9808C6.96757 49.8764 6.8384 49.7974 6.69666 49.7497C6.57743 49.7118 6.45062 49.7043 6.32774 49.7278C6.20279 49.7535 6.08441 49.8044 5.97988 49.8775C5.86145 49.9593 5.75284 50.0546 5.65616 50.1612L4.61764 51.2904L3.92961 50.6575L6.23402 48.152L6.88804 48.7538ZM5.89692 45.9189C6.07085 46.1072 6.20617 46.3276 6.29526 46.5679C6.36448 46.7606 6.39075 46.9662 6.37229 47.1701C6.35271 47.3573 6.29282 47.5382 6.19671 47.6999C6.0024 48.028 5.70849 48.2859 5.35769 48.4356C5.18418 48.5108 4.99629 48.547 4.80726 48.5418C4.60261 48.5334 4.40226 48.4805 4.22018 48.3866C3.99321 48.267 3.79189 48.1039 3.62762 47.9069L2.9115 47.09L1.64406 48.2012L0.962616 47.4238L4.49759 44.3247L5.89692 45.9189ZM4.0468 47.1644C4.12215 47.2509 4.20427 47.3312 4.29239 47.4045C4.371 47.4717 4.46195 47.5228 4.56014 47.5551C4.65524 47.5845 4.7565 47.588 4.85335 47.5649C5.09404 47.4886 5.29176 47.3147 5.39851 47.0858C5.43391 46.9928 5.44376 46.8918 5.42704 46.7937C5.40781 46.6921 5.36906 46.5953 5.31292 46.5084C5.25157 46.4116 5.18266 46.3197 5.10684 46.2336L4.57748 45.6297L3.51789 46.5584L4.0468 47.1644Z" fill="#FBBA00"/>
<path fill-rule="evenodd" clip-rule="evenodd" d="M51.9664 47.4284C52.0465 47.4411 52.1284 47.4357 52.206 47.4128C52.2861 47.3885 52.361 47.3498 52.4273 47.2987C52.4988 47.2443 52.5633 47.1811 52.6191 47.1104C52.6623 47.056 52.6994 46.9972 52.7301 46.9348C52.762 46.8718 52.7841 46.8047 52.796 46.7351C52.8072 46.6693 52.8034 46.6019 52.7852 46.5376C52.7519 46.4274 52.6647 46.342 52.5539 46.3109C52.4431 46.2797 52.3241 46.3074 52.2383 46.384C52.0101 46.5279 51.7926 46.6879 51.5876 46.8633C51.4789 46.9511 51.3681 47.0325 51.2546 47.1073C51.1484 47.1793 51.0325 47.2359 50.9105 47.2754C50.7968 47.3119 50.6763 47.3224 50.5581 47.3062C50.4275 47.2849 50.3052 47.2283 50.2043 47.1427C50.0522 47.0312 49.9337 46.8802 49.8617 46.7059C49.8055 46.5552 49.7888 46.3927 49.8127 46.2336C49.8389 46.0666 49.8933 45.9051 49.9738 45.7563C50.0588 45.5963 50.1584 45.4444 50.2714 45.3029C50.3834 45.1617 50.5091 45.032 50.6467 44.9157C50.7736 44.8071 50.9184 44.7217 51.0747 44.6631C51.2255 44.6085 51.3865 44.5885 51.5461 44.6047C51.73 44.628 51.9054 44.6967 52.0561 44.8047L51.5026 45.5002C51.3879 45.4034 51.2292 45.3775 51.0896 45.4326C50.9535 45.4969 50.8352 45.593 50.7444 45.7131C50.7091 45.758 50.6759 45.8048 50.6456 45.8533C50.614 45.902 50.5901 45.9551 50.5745 46.0111C50.5603 46.0631 50.5585 46.118 50.5692 46.1709C50.5835 46.2297 50.6186 46.2815 50.668 46.3166C50.7281 46.3673 50.808 46.3877 50.8851 46.3717C50.9746 46.3521 51.0595 46.3153 51.135 46.2635C51.2327 46.199 51.3264 46.1289 51.4157 46.0535C51.5156 45.9703 51.6185 45.8869 51.7245 45.8028C51.8321 45.7166 51.944 45.636 52.0601 45.5614C52.1685 45.4903 52.2868 45.4356 52.4112 45.3994C52.5291 45.3659 52.6531 45.3584 52.7742 45.3775C52.9105 45.4027 53.0378 45.4633 53.1434 45.5531C53.4482 45.7721 53.6102 46.1393 53.5665 46.5121C53.5461 46.6903 53.4926 46.8633 53.4089 47.022C53.3214 47.1921 53.2174 47.3529 53.0982 47.5026C52.9773 47.6553 52.8407 47.7951 52.6911 47.9196C52.5524 48.0372 52.3939 48.1292 52.2229 48.1909C52.059 48.2486 51.8841 48.2677 51.7116 48.2468C51.5136 48.2176 51.3266 48.1371 51.1695 48.0133L51.723 47.3176C51.7921 47.376 51.8753 47.415 51.9644 47.4306M49.5099 50.1314C49.9082 50.0855 50.2361 49.7967 50.3313 49.4071C50.3651 49.2774 50.3535 49.1403 50.2986 49.018L50.8842 48.4397C51.0666 48.7569 51.132 49.128 51.0688 49.4883C50.986 49.8263 50.8061 50.1327 50.5513 50.3697C50.3779 50.546 50.1725 50.6875 49.946 50.7867C49.7425 50.8752 49.5219 50.9175 49.3003 50.9109C49.0771 50.9019 48.8581 50.8475 48.6566 50.7509C48.434 50.6445 48.2321 50.499 48.0607 50.3214C47.8887 50.1503 47.7495 49.949 47.6501 49.7278C47.4616 49.3128 47.4537 48.8381 47.6282 48.4169C47.7212 48.1926 47.8595 47.9898 48.0344 47.8213C48.2166 47.6325 48.4419 47.4907 48.691 47.4084C48.9151 47.3373 49.1528 47.3198 49.385 47.3567C49.6211 47.3957 49.8476 47.48 50.0517 47.6051C50.2697 47.7374 50.465 47.9036 50.6307 48.0974L48.884 49.8235C49.0459 50.0021 49.27 50.1121 49.5105 50.1307M49.0036 48.1143C48.8142 48.1154 48.6346 48.1983 48.5109 48.3416C48.4167 48.4288 48.3443 48.5367 48.2995 48.657C48.2659 48.7531 48.2534 48.8556 48.2629 48.957C48.2716 49.0468 48.298 49.1339 48.3405 49.2136C48.3759 49.2812 48.4185 49.3446 48.4674 49.403L49.5492 48.3339C49.3911 48.2117 49.2022 48.1358 49.0036 48.1145M48.7867 52.2879C48.866 52.4547 48.9041 52.6382 48.8978 52.8227C48.8859 53.0448 48.8225 53.261 48.7125 53.4541C48.5495 53.7289 48.3311 53.9666 48.071 54.152C47.9348 54.257 47.7866 54.3454 47.6295 54.4154C47.4734 54.487 47.3069 54.5333 47.1361 54.5526C46.9715 54.571 46.8047 54.5541 46.6471 54.5028C46.4792 54.4457 46.33 54.3441 46.215 54.2091L46.9482 53.6398C47.0646 53.7438 47.2206 53.7921 47.3753 53.7715C47.5259 53.7434 47.6672 53.678 47.7864 53.5816C47.971 53.462 48.0862 53.2608 48.0961 53.0411C48.0886 52.8269 48.0076 52.6219 47.8665 52.4608L47.5919 52.107L47.5816 52.1152C47.6132 52.3136 47.5792 52.5168 47.4851 52.6943C47.3913 52.875 47.2594 53.0328 47.0984 53.157C46.9228 53.3007 46.7165 53.4026 46.4955 53.4541C46.3023 53.4963 46.1018 53.4919 45.9106 53.4414C45.7142 53.3874 45.5305 53.295 45.37 53.1693C45.1934 53.0328 45.0351 52.8741 44.8993 52.697C44.7667 52.5273 44.6607 52.3384 44.585 52.1367C44.5119 51.9457 44.4748 51.7429 44.4753 51.5386C44.477 51.3396 44.5225 51.1434 44.6087 50.9641C44.7048 50.7689 44.8462 50.5993 45.0207 50.4694C45.1785 50.3408 45.3641 50.2508 45.5627 50.206C45.7636 50.1702 45.9703 50.1955 46.1566 50.2787L46.1669 50.2705L45.8884 49.9117L46.5907 49.3665L48.544 51.8838C48.6381 52.0096 48.7191 52.145 48.7854 52.2874M47.0795 52.1777C47.1262 52.0776 47.1495 51.9683 47.148 51.8579C47.146 51.7456 47.1236 51.6347 47.0821 51.5303C47.0382 51.4199 46.9785 51.3165 46.9052 51.223C46.8236 51.117 46.7314 51.0196 46.6298 50.9324C46.5392 50.8539 46.4351 50.7924 46.3225 50.7507C46.2157 50.7121 46.1009 50.7009 45.9887 50.718C45.8584 50.742 45.7363 50.7992 45.6345 50.8844C45.5393 50.9542 45.4638 51.0472 45.415 51.1548C45.3727 51.254 45.3536 51.3615 45.3589 51.4693C45.3648 51.5832 45.392 51.6949 45.4394 51.7985C45.4901 51.9106 45.554 52.0164 45.6297 52.1134C45.705 52.2104 45.7897 52.2995 45.8825 52.3798C45.9705 52.4573 46.0715 52.5183 46.181 52.5605C46.2859 52.6002 46.3985 52.6151 46.5102 52.6044C46.6364 52.5886 46.7553 52.5368 46.8528 52.4551C46.9498 52.3829 47.0279 52.2881 47.0799 52.1788M43.8796 53.9152C43.9145 53.9765 43.9461 54.0397 43.9738 54.1044C44.0104 54.1894 44.03 54.2807 44.0313 54.3733C44.0317 54.4797 44.0047 54.5844 43.9527 54.6775C43.875 54.8041 43.7644 54.9075 43.633 54.9766C43.5706 55.0141 43.5048 55.0459 43.4365 55.0714C43.3746 55.0953 43.309 55.1072 43.2427 55.1067C43.1806 55.1054 43.1201 55.0876 43.0672 55.0554C43.0057 55.0161 42.9548 54.9623 42.9195 54.8985C42.8782 54.8355 42.8534 54.7633 42.8473 54.6882C42.844 54.6252 42.8547 54.5625 42.8789 54.5043C42.9052 54.4431 42.9412 54.3864 42.9857 54.3366C43.0327 54.2828 43.083 54.2322 43.1365 54.1847C43.1936 54.1351 43.2522 54.0873 43.3121 54.0414C43.3716 53.9956 43.4269 53.9495 43.4787 53.9032C43.5278 53.8595 43.5739 53.8125 43.6169 53.7627C43.6549 53.7201 43.6839 53.6701 43.7019 53.6159L43.8796 53.9152ZM42.2944 53.6519C42.2176 53.5206 42.2011 53.3626 42.2494 53.2184C42.3153 53.0791 42.4248 52.9649 42.5613 52.8932C42.6282 52.8526 42.698 52.8172 42.7702 52.7872C42.8328 52.7606 42.8997 52.7464 42.9677 52.7455C43.0325 52.7459 43.0961 52.7635 43.1519 52.7964C43.2215 52.8418 43.2785 52.9042 43.3178 52.9772C43.3689 53.0435 43.3839 53.1309 43.3577 53.2103C43.3233 53.2968 43.2702 53.3745 43.2024 53.4379C43.1148 53.5237 43.0211 53.6029 42.9221 53.6749C42.8121 53.7561 42.7024 53.8422 42.5929 53.9332C42.4834 54.0245 42.3789 54.1218 42.2799 54.2245C42.1847 54.3217 42.1068 54.4345 42.0499 54.5581C41.9955 54.6814 41.9709 54.8157 41.9782 54.9503C41.9918 55.1146 42.046 55.2731 42.136 55.4111C42.2128 55.547 42.3186 55.6644 42.4459 55.755C42.5573 55.8321 42.6857 55.8815 42.82 55.8992C42.9579 55.9164 43.0975 55.9056 43.2311 55.8679C43.3788 55.8264 43.5202 55.7649 43.6512 55.685C43.8309 55.5773 43.9938 55.4434 44.134 55.2878C44.2745 55.1328 44.3728 54.9441 44.4193 54.7402C44.4518 54.7863 44.4873 54.8302 44.5253 54.8719C44.5626 54.9132 44.6026 54.952 44.6449 54.9882L45.4583 54.5008C45.363 54.4439 45.2809 54.3678 45.2169 54.2771C45.1262 54.1608 45.043 54.0388 44.9675 53.9122L44.057 52.3932C43.9738 52.2376 43.8425 52.113 43.6828 52.0379C43.5388 51.9782 43.3823 51.9545 43.2272 51.9692C43.0599 51.9855 42.8962 52.0278 42.7421 52.095C42.5821 52.163 42.4268 52.242 42.2775 52.3313C42.1153 52.4286 41.9632 52.5416 41.8234 52.6687C41.6889 52.7889 41.5754 52.9309 41.4879 53.0887C41.4054 53.2391 41.3586 53.4063 41.3509 53.5775C41.3472 53.771 41.3955 53.9622 41.4907 54.1308L42.2944 53.6519ZM40.2332 57.3291L38.3019 54.6564L38.2896 54.6612L38.7546 57.9227L37.783 58.3127L34.8768 54.4137L35.8361 54.0285L37.7187 56.7209L37.731 56.7159L37.2965 53.4423L38.1948 53.0817L40.148 55.7886L40.1603 55.7838L39.6683 52.4907L40.6093 52.113L41.1874 56.9465L40.2332 57.3291Z" fill="#9FC422"/>
</svg>
