<svg width="54" height="60" viewBox="0 0 54 60" fill="none" xmlns="http://www.w3.org/2000/svg">
<path fill-rule="evenodd" clip-rule="evenodd" d="M46.4235 13.5183L48.0726 10.2802C42.4323 3.07824 33.5111 -0.750832 24.4069 0.122813C15.3028 0.996458 7.27193 6.45227 3.10333 14.5956H6.82585C10.9813 7.74925 18.3273 3.48159 26.3313 3.26383C34.3351 3.04607 41.9022 6.90803 46.4235 13.5183ZM53.8186 26.8501C53.8206 23.6246 53.2384 20.4253 52.1002 17.4073L49.9667 21.5954C52.3896 32.162 47.2975 43.0196 37.6258 47.9103C27.9538 52.8012 16.1943 50.465 9.12487 42.2482H5.00383C11.7192 51.8491 23.885 55.9822 35.0565 52.4582C46.228 48.9345 53.823 38.5681 53.8181 26.8506" fill="#278C37"/>
<path fill-rule="evenodd" clip-rule="evenodd" d="M53.7219 11.1864H49.1737L37.9526 32.9493L33.4083 24.176C32.6812 25.5988 31.6387 27.6405 31.1505 28.6101L37.9649 41.7676L40.2345 37.3558L53.7219 11.1864Z" fill="#A0C522"/>
<path fill-rule="evenodd" clip-rule="evenodd" d="M38.6241 11.1864H34.0758L22.8548 32.9493L19.3245 26.133C19.2561 26.4577 19.178 26.7809 19.0809 27.1C18.7494 28.2062 18.1893 29.2304 17.4369 30.1064C17.3137 30.2498 17.1739 30.3816 17.0395 30.516L22.8664 41.7668L25.136 37.355L38.6241 11.1864Z" fill="#278C37"/>
<path fill-rule="evenodd" clip-rule="evenodd" d="M8.94527 27.4777C9.50348 27.4795 10.0608 27.4334 10.6112 27.3405C11.113 27.2615 11.5933 27.0802 12.0222 26.8081C12.4415 26.5294 12.779 26.1441 13.0001 25.6917C13.4911 24.48 13.4911 23.1249 13.0001 21.9132C12.779 21.4608 12.4415 21.0753 12.0222 20.7965C11.593 20.5248 11.1129 20.3437 10.6112 20.2641C10.0608 20.1715 9.50346 20.1256 8.94527 20.1268H5.03358V27.4777H8.94527ZM10.3238 15.9358C11.5756 15.9017 12.8206 16.1299 13.9789 16.6059C14.9179 17.0052 15.7558 17.6096 16.4311 18.3748C17.0602 19.1055 17.5298 19.9596 17.8097 20.8824C18.3869 22.7802 18.3869 24.8072 17.8097 26.705C17.2474 28.6421 15.8391 30.2206 13.9789 30.9991C12.8205 31.4749 11.5755 31.7029 10.3238 31.6687H5.03358V40.4627H0V15.9358H10.3238Z" fill="#FBBA00"/>
<path fill-rule="evenodd" clip-rule="evenodd" d="M32.6352 58.6893C32.9899 58.8748 33.4226 58.82 33.72 58.5521C33.8207 58.4639 33.8882 58.344 33.9112 58.2122L34.7196 58.0626C34.6924 58.4271 34.5381 58.7705 34.2838 59.0329C34.0258 59.266 33.7054 59.4184 33.3619 59.4715C33.1194 59.5199 32.8702 59.5219 32.6271 59.477C32.4094 59.436 32.2036 59.3471 32.0241 59.2173C31.8445 59.0847 31.6939 58.9169 31.5817 58.724C31.4574 58.5111 31.3724 58.2775 31.3303 58.0346C31.284 57.7964 31.2818 57.552 31.3239 57.3132C31.4006 56.8641 31.6604 56.4672 32.0407 56.2168C32.2435 56.0833 32.4715 55.9931 32.7106 55.9521C32.9671 55.8984 33.2328 55.9076 33.4848 55.9793C33.71 56.0466 33.916 56.1653 34.0872 56.3262C34.2606 56.4909 34.4005 56.6876 34.4989 56.9055C34.6045 57.1373 34.6729 57.3842 34.7012 57.6375L32.29 58.0839C32.3239 58.3223 32.4476 58.5387 32.6359 58.6889M33.3481 56.7374C33.1907 56.6325 32.996 56.6007 32.8134 56.6496C32.6869 56.6687 32.5668 56.7174 32.4627 56.7917C32.3809 56.8523 32.313 56.9299 32.2639 57.0191C32.2209 57.0983 32.1937 57.1851 32.1841 57.2748C32.1755 57.3504 32.1751 57.4268 32.1828 57.5026L33.6764 57.2259C33.6144 57.036 33.5011 56.8672 33.3487 56.738M29.2058 59.9282L27.7665 56.6345L28.7428 56.554L29.6481 58.8093L29.661 58.8082L30.1847 56.4352L31.1089 56.3589L30.2386 59.8427L29.2058 59.9282ZM27.5477 56.5935L27.5696 59.9942L26.6358 60.0001L26.6139 56.5994L27.5477 56.5935ZM26.6106 56.0732L26.6058 55.3035L27.5396 55.2976L27.5444 56.0673L26.6106 56.0732ZM23.83 59.0029C23.864 59.0763 23.9137 59.1415 23.976 59.1932C24.0407 59.2461 24.1145 59.2869 24.1937 59.3134C24.2787 59.3425 24.367 59.361 24.4567 59.368C24.5262 59.3735 24.5959 59.3715 24.6649 59.3621C24.7349 59.3537 24.803 59.3351 24.8675 59.3064C24.9284 59.279 24.9826 59.2384 25.0258 59.1873C25.072 59.1299 25.0988 59.0592 25.1018 58.9856C25.1134 58.8459 25.0293 58.7334 24.8493 58.6481C24.6031 58.5387 24.3493 58.447 24.09 58.3742C23.9569 58.3326 23.8276 58.2856 23.7024 58.2332C23.5836 58.1852 23.4723 58.1203 23.3716 58.0409C23.2783 57.9668 23.2024 57.8725 23.1502 57.7653C23.0954 57.6449 23.0746 57.5121 23.0897 57.3807C23.0976 57.1928 23.157 57.0106 23.2618 56.8544C23.3556 56.724 23.4812 56.6196 23.6266 56.5512C23.78 56.4799 23.9442 56.4354 24.1126 56.4196C24.2925 56.4012 24.4738 56.3997 24.654 56.4148C24.8333 56.4293 25.0108 56.4615 25.1838 56.5113C25.3443 56.5562 25.4957 56.629 25.6312 56.7264C25.7603 56.8211 25.8664 56.9439 25.9414 57.0853C26.0245 57.2509 26.0648 57.4346 26.0591 57.6197L25.1744 57.5467C25.1908 57.3978 25.1244 57.2518 25.0012 57.1663C24.8723 57.0888 24.7265 57.0437 24.5764 57.0347C24.5194 57.0303 24.4622 57.029 24.4052 57.0305C24.3471 57.0314 24.2897 57.0413 24.2346 57.0595C24.1834 57.0766 24.1369 57.1055 24.099 57.1439C24.0582 57.1884 24.0347 57.2463 24.0332 57.3068C24.0244 57.3849 24.0521 57.4625 24.1082 57.5175C24.1741 57.5811 24.2517 57.6311 24.3368 57.6651C24.4446 57.7103 24.5549 57.7493 24.6671 57.7815C24.7916 57.8182 24.9181 57.8572 25.0468 57.8986C25.1783 57.9399 25.3077 57.9881 25.4341 58.0427C25.5532 58.0936 25.6639 58.1615 25.7629 58.2449C25.8561 58.3242 25.9308 58.4227 25.9821 58.5336C26.0369 58.6608 26.0573 58.8003 26.0413 58.9378C26.0286 59.3125 25.8138 59.6511 25.4802 59.8223C25.3208 59.9048 25.1476 59.9567 24.9694 59.9758C24.7796 59.9975 24.5882 60.0006 24.3977 59.9848C24.204 59.9692 24.0122 59.9333 23.8258 59.878C23.6513 59.8282 23.4869 59.7475 23.3407 59.6401C23.2018 59.5362 23.0886 59.4013 23.0104 59.2465C22.9245 59.066 22.8874 58.8661 22.903 58.6667L23.7877 58.7398C23.778 58.8294 23.7921 58.9202 23.8287 59.0029M20.2337 58.4475C20.2593 58.5242 20.3016 58.5944 20.3574 58.6529C20.4156 58.713 20.4843 58.7619 20.5601 58.7972C20.6413 58.8358 20.7269 58.8641 20.8151 58.8812C20.8835 58.8944 20.953 58.9003 21.0227 58.8987C21.0931 58.8983 21.1631 58.8873 21.2302 58.8663C21.2939 58.8459 21.3522 58.8117 21.401 58.7659C21.4533 58.7141 21.4877 58.647 21.4992 58.5742C21.5267 58.4365 21.4557 58.315 21.2864 58.21C21.0541 58.0736 20.8124 57.9539 20.563 57.8521C20.4354 57.7956 20.3123 57.7344 20.1936 57.6684C20.081 57.6072 19.9777 57.5302 19.8867 57.4399C19.8023 57.3555 19.7378 57.2533 19.698 57.1408C19.6571 57.0152 19.6512 56.8808 19.6811 56.752C19.7101 56.5659 19.7899 56.3913 19.9117 56.2477C20.0198 56.1286 20.1563 56.0392 20.3085 55.9877C20.4689 55.9344 20.6371 55.9087 20.8061 55.912C20.987 55.914 21.1673 55.9328 21.3447 55.9684C21.5213 56.003 21.694 56.0554 21.8602 56.1243C22.0146 56.1868 22.1568 56.2758 22.2804 56.3874C22.3979 56.4961 22.4893 56.6301 22.5481 56.7792C22.6119 56.9531 22.6314 57.1402 22.6046 57.3235L21.7338 57.1509C21.7669 57.0047 21.7173 56.852 21.6046 56.7531C21.4852 56.6619 21.3455 56.6007 21.1974 56.5753C21.1414 56.5643 21.0848 56.5565 21.0279 56.5516C20.9701 56.5459 20.9118 56.5492 20.855 56.5611C20.8022 56.5725 20.7528 56.5959 20.7107 56.6297C20.6652 56.6692 20.6353 56.7235 20.6266 56.7832C20.6091 56.8597 20.6278 56.9402 20.6772 57.0011C20.7356 57.0717 20.8072 57.1303 20.8878 57.1735C20.9897 57.2307 21.0948 57.282 21.2026 57.327C21.3223 57.3774 21.4437 57.4305 21.5667 57.4862C21.6926 57.5421 21.8156 57.6046 21.9352 57.6732C22.0481 57.737 22.1507 57.8173 22.2401 57.9113C22.3241 58.0006 22.3876 58.1069 22.4262 58.2232C22.4663 58.3558 22.4709 58.4966 22.4394 58.6314C22.3843 59.0025 22.1327 59.3145 21.7818 59.4467C21.6142 59.5105 21.4362 59.5423 21.257 59.5405C21.066 59.5408 20.8755 59.5221 20.6881 59.4849C20.4974 59.4474 20.311 59.3901 20.132 59.3143C19.9642 59.2452 19.8101 59.1465 19.677 59.0231C19.5502 58.9042 19.4527 58.7575 19.392 58.5946C19.327 58.4056 19.3128 58.2025 19.3508 58.0063L20.2217 58.1789C20.2016 58.2672 20.2054 58.3593 20.2324 58.4459M16.7252 57.5197C16.9504 57.8508 17.3579 58.0065 17.7464 57.9102C17.8767 57.88 17.9927 57.8059 18.0752 57.7006L18.8587 57.9497C18.663 58.2585 18.3652 58.4887 18.0171 58.6001C17.6798 58.6841 17.3254 58.6672 16.9974 58.5521C16.7608 58.4806 16.54 58.3648 16.3468 58.2107C16.1741 58.0719 16.0343 57.8967 15.9373 57.6973C15.8416 57.4956 15.7879 57.2766 15.7795 57.0535C15.7704 56.8071 15.8053 56.5611 15.8828 56.3271C15.9541 56.0953 16.0674 55.8787 16.217 55.6879C16.4961 55.3281 16.9121 55.1003 17.3655 55.059C17.6072 55.0369 17.8508 55.0652 18.0812 55.1417C18.3327 55.2152 18.5626 55.3487 18.751 55.5307C18.9178 55.696 19.0439 55.898 19.1191 56.1205C19.1943 56.3475 19.2248 56.5869 19.209 56.8255C19.1932 57.0796 19.137 57.3298 19.0426 57.5664L16.705 56.8231C16.6225 57.0494 16.6297 57.2987 16.7252 57.5197ZM18.2727 56.1343C18.1836 55.9679 18.0269 55.848 17.8429 55.8054C17.7222 55.7622 17.593 55.7484 17.4658 55.7649C17.3651 55.7798 17.2688 55.8162 17.1835 55.8719C17.1082 55.9212 17.0433 55.985 16.9926 56.0596C16.9494 56.1223 16.9131 56.1894 16.8843 56.2598L18.331 56.7202C18.3658 56.5236 18.3453 56.3212 18.2719 56.1354M15.1793 54.158L14.9299 54.738L14.9419 54.7433C15.0244 54.6635 15.1184 54.5964 15.2208 54.5446C15.3235 54.4922 15.4335 54.4551 15.5472 54.435C15.6601 54.4148 15.7753 54.4102 15.8896 54.4214C16.0051 54.4328 16.1181 54.4624 16.2245 54.5091C16.2879 54.5372 16.3469 54.574 16.3999 54.6187L16.0568 55.4164C16.02 55.391 15.9748 55.3632 15.9209 55.3329C15.8693 55.3035 15.8162 55.277 15.7618 55.2535C15.6264 55.1906 15.4786 55.1588 15.3293 55.1606C15.2044 55.1645 15.0824 55.1994 14.9744 55.2621C14.865 55.3274 14.7703 55.4147 14.696 55.5182C14.6115 55.6346 14.5406 55.7603 14.4847 55.8927L13.8792 57.3007L13.0213 56.9316L14.365 53.8074L15.1793 54.158ZM12.0118 56.752C11.8883 56.8889 11.7339 56.9941 11.5614 57.059C11.3522 57.1334 11.1285 57.1579 10.9081 57.131C10.5922 57.0862 10.289 56.9761 10.018 56.8075C9.86894 56.7222 9.73047 56.6196 9.60541 56.5019C9.47944 56.3852 9.37275 56.2493 9.28932 56.0993C9.2092 55.9545 9.16085 55.7943 9.1475 55.6294C9.13555 55.4524 9.17176 55.2757 9.25228 55.1178L10.0587 55.5754C10.0077 55.7228 10.0238 55.885 10.1026 56.0195C10.1863 56.1479 10.3007 56.2534 10.4355 56.3264C10.6165 56.451 10.8466 56.4799 11.0528 56.4043C11.2474 56.3153 11.4052 56.1618 11.4996 55.9697L11.7201 55.5805L11.7087 55.5739C11.5382 55.6791 11.3382 55.7261 11.1387 55.7076C10.9362 55.6905 10.7399 55.6296 10.5633 55.5289C10.3634 55.4221 10.1905 55.2711 10.0579 55.0871C9.94466 54.9253 9.87164 54.7387 9.84479 54.5429C9.81927 54.3409 9.83415 54.1359 9.88863 53.9396C9.94658 53.7243 10.0321 53.5173 10.1431 53.3239C10.2487 53.1367 10.3822 52.9667 10.539 52.8196C10.6869 52.6786 10.8595 52.5661 11.0482 52.488C11.2323 52.4131 11.4306 52.3797 11.6291 52.3902C11.8458 52.4041 12.0561 52.4692 12.2429 52.5799C12.4218 52.6764 12.5759 52.813 12.6931 52.9792C12.8034 53.1505 12.8596 53.3509 12.8547 53.5546L12.8661 53.5612L13.0899 53.1665L13.8621 53.605L12.29 56.3727C12.2103 56.5082 12.1168 56.6349 12.0112 56.7514M11.4564 55.136C11.5666 55.1406 11.6764 55.1202 11.7775 55.0761C11.8801 55.0307 11.9738 54.9674 12.0539 54.8889C12.1392 54.8058 12.212 54.7108 12.2703 54.6071C12.3367 54.4911 12.391 54.3685 12.4323 54.2414C12.4698 54.1273 12.4865 54.0074 12.4816 53.8875C12.476 53.7741 12.4422 53.664 12.3834 53.5671C12.3112 53.4559 12.2114 53.3651 12.0938 53.304C11.993 53.243 11.878 53.209 11.7602 53.2055C11.6525 53.2046 11.5461 53.2283 11.4489 53.2746C11.3462 53.3237 11.2537 53.3919 11.1762 53.4754C11.0923 53.5651 11.0194 53.6647 10.9592 53.7719C10.8986 53.8785 10.8488 53.9909 10.8106 54.1074C10.7729 54.2183 10.7553 54.3352 10.7586 54.4523C10.7624 54.5646 10.7919 54.6744 10.845 54.7735C10.908 54.8838 11.0015 54.9735 11.1142 55.0321C11.2181 55.0939 11.3356 55.1294 11.4564 55.1353M7.40987 50.54C7.78929 50.2922 8.2579 50.2223 8.69309 50.3486C8.93046 50.4174 9.1525 50.531 9.34719 50.6832C9.54708 50.8303 9.71738 51.0139 9.84917 51.2242C10.091 51.6088 10.1519 52.0802 10.0155 52.5137C9.94091 52.7547 9.82335 52.9801 9.66855 53.1792C9.51973 53.3814 9.33527 53.5548 9.12426 53.691C8.93546 53.8118 8.72336 53.8916 8.50172 53.9249C8.28092 53.9561 8.05597 53.9392 7.84236 53.8752C7.60507 53.8035 7.38308 53.6883 7.18759 53.536C6.98865 53.3899 6.81863 53.2079 6.68628 52.9996C6.56817 52.8115 6.49178 52.6003 6.46225 52.3802C6.43426 52.1576 6.45346 51.9317 6.51858 51.7173C6.59224 51.4772 6.70918 51.2527 6.86361 51.0546C7.01313 50.8516 7.1982 50.6771 7.40987 50.54ZM7.39935 51.9596C7.34406 52.0723 7.30925 52.194 7.29654 52.319C7.28479 52.438 7.30294 52.5582 7.34937 52.6685C7.40649 52.7935 7.49593 52.9012 7.60847 52.9801C7.7159 53.0674 7.84442 53.125 7.98111 53.147C8.10054 53.1632 8.22213 53.1489 8.33447 53.1053C8.45126 53.0588 8.55887 52.9919 8.65232 52.908C8.75251 52.8196 8.84351 52.7214 8.92391 52.6146C9.00541 52.5073 9.07606 52.392 9.13478 52.2707C9.1907 52.1583 9.22556 52.0366 9.23759 51.9116C9.24752 51.7918 9.22849 51.6715 9.18213 51.5607C9.12566 51.4338 9.0359 51.3246 8.92238 51.2445C8.72112 51.0755 8.44361 51.0301 8.199 51.1261C8.08177 51.1717 7.97401 51.2386 7.88116 51.3235C7.78034 51.4129 7.68863 51.5121 7.60737 51.6195C7.52655 51.7258 7.45665 51.8403 7.39869 51.9607M6.88268 48.7639L6.45545 49.2288L6.4651 49.2375C6.56935 49.1895 6.68018 49.1575 6.7939 49.1424C6.90835 49.1268 7.02449 49.1281 7.13849 49.1467C7.25173 49.1649 7.36191 49.1987 7.46598 49.247C7.57125 49.2959 7.6682 49.361 7.75336 49.4399C7.80345 49.4877 7.84648 49.5423 7.88116 49.6022L7.29347 50.2411C7.26717 50.205 7.23363 50.1637 7.19286 50.1175C7.15386 50.0727 7.11252 50.0302 7.06901 49.9899C6.96212 49.8855 6.83312 49.8065 6.69154 49.759C6.57244 49.721 6.44579 49.7136 6.32305 49.737C6.19826 49.7627 6.08005 49.8136 5.97562 49.8866C5.85736 49.9684 5.74885 50.0635 5.65229 50.1701L4.61502 51.2983L3.92781 50.6659L6.22945 48.1626L6.88268 48.7639ZM5.89276 45.9315C6.06648 46.1197 6.20164 46.3398 6.29061 46.5799C6.35973 46.7724 6.38599 46.9779 6.36755 47.1816C6.34791 47.3687 6.28809 47.5491 6.19219 47.7109C5.99793 48.0388 5.70433 48.2962 5.35395 48.446C5.18065 48.5212 4.99299 48.5573 4.80419 48.5521C4.59978 48.5437 4.39967 48.4909 4.21782 48.3971C3.99151 48.2773 3.79081 48.1146 3.62706 47.9177L2.9118 47.1016L1.6459 48.2118L0.96637 47.4351L4.49709 44.3387L5.89276 45.9315ZM4.04487 47.1759C4.12014 47.2623 4.20215 47.3426 4.29016 47.4158C4.36863 47.4829 4.45938 47.534 4.55737 47.5662C4.65241 47.5956 4.75362 47.5991 4.85044 47.5761C5.09087 47.4998 5.28832 47.3261 5.39495 47.0974C5.4303 47.0044 5.44014 46.9036 5.42344 46.8056C5.40424 46.704 5.36553 46.6073 5.30946 46.5205C5.24819 46.4238 5.17936 46.3319 5.10362 46.246L4.5749 45.6425L3.51659 46.5705L4.04487 47.1759Z" fill="#FBBA00"/>
<path fill-rule="evenodd" clip-rule="evenodd" d="M51.9087 47.3412C51.9887 47.354 52.0705 47.3485 52.1481 47.3257C52.2281 47.3013 52.3029 47.2627 52.3691 47.2117C52.4405 47.1573 52.505 47.0941 52.5606 47.0235C52.6038 46.9691 52.6409 46.9104 52.6716 46.8481C52.7034 46.7852 52.7255 46.7181 52.7373 46.6486C52.7485 46.5828 52.7448 46.5155 52.7266 46.4512C52.6933 46.3411 52.6062 46.2558 52.4955 46.2247C52.3848 46.1936 52.266 46.2212 52.1803 46.2977C51.9524 46.4416 51.7351 46.6014 51.5304 46.7766C51.4219 46.8643 51.311 46.9457 51.1979 47.0204C51.0918 47.0924 50.976 47.1489 50.8541 47.1884C50.7406 47.2248 50.6203 47.2353 50.5021 47.2191C50.3717 47.1978 50.2496 47.1413 50.1487 47.0557C49.9968 46.9446 49.8785 46.7935 49.8066 46.6194C49.7505 46.4688 49.7338 46.3065 49.7577 46.1475C49.7838 45.9804 49.8381 45.8193 49.9186 45.6706C50.0034 45.5107 50.1029 45.359 50.2158 45.2176C50.3276 45.0766 50.4532 44.947 50.5907 44.8308C50.7174 44.7222 50.862 44.6369 51.0181 44.5784C51.1687 44.5238 51.3296 44.5038 51.489 44.5201C51.6727 44.5433 51.8478 44.6119 51.9984 44.7198L51.4456 45.4147C51.3309 45.318 51.1724 45.2921 51.033 45.3472C50.8971 45.4114 50.779 45.5075 50.6882 45.6274C50.6529 45.6723 50.6198 45.7191 50.5896 45.7675C50.558 45.8162 50.5341 45.8693 50.5185 45.9252C50.5043 45.9771 50.5025 46.032 50.5133 46.0848C50.5275 46.1436 50.5626 46.1953 50.6119 46.2304C50.672 46.2811 50.7518 46.3014 50.8287 46.2854C50.9182 46.2659 51.003 46.2291 51.0784 46.1773C51.1759 46.1129 51.2695 46.0429 51.3588 45.9675C51.4585 45.8844 51.5613 45.8011 51.6672 45.7171C51.7746 45.6309 51.8864 45.5504 52.0023 45.4759C52.1106 45.4048 52.2288 45.3502 52.3531 45.3141C52.4708 45.2805 52.5946 45.2731 52.7156 45.2921C52.8518 45.3173 52.9789 45.3779 53.0843 45.4675C53.3886 45.6866 53.5504 46.0532 53.5069 46.4258C53.4866 46.6038 53.4331 46.7766 53.3496 46.9351C53.2621 47.1051 53.1582 47.2658 53.0392 47.4154C52.9184 47.568 52.782 47.7076 52.6325 47.832C52.494 47.9495 52.3357 48.0414 52.165 48.103C52.0012 48.1607 51.8265 48.1797 51.6542 48.1589C51.4565 48.1297 51.2698 48.0493 51.1128 47.9256L51.6656 47.2305C51.7347 47.2888 51.8178 47.3279 51.9068 47.3434M49.4552 50.0418C49.853 49.996 50.1805 49.7074 50.2757 49.3182C50.3094 49.1886 50.2978 49.0516 50.243 48.9294L50.8278 48.3517C51.01 48.6685 51.0753 49.0393 51.0122 49.3993C50.9296 49.737 50.7498 50.0431 50.4953 50.28C50.3221 50.456 50.117 50.5975 49.8907 50.6966C49.6875 50.7849 49.4672 50.8273 49.2458 50.8207C49.0229 50.8117 48.8041 50.7573 48.6029 50.6608C48.3806 50.5545 48.179 50.4091 48.0078 50.2317C47.8359 50.0607 47.6969 49.8596 47.5976 49.6386C47.4094 49.2239 47.4015 48.7496 47.5757 48.3289C47.6687 48.1048 47.8068 47.9021 47.9815 47.7337C48.1634 47.5452 48.3885 47.4035 48.6373 47.3213C48.8611 47.2502 49.0985 47.2327 49.3305 47.2695C49.5663 47.3086 49.7925 47.3928 49.9964 47.5178C50.2141 47.65 50.4092 47.816 50.5747 48.0096L48.8313 49.734C48.9931 49.9124 49.2169 50.0223 49.4572 50.0409M48.9508 48.0263C48.7616 48.0273 48.5823 48.1102 48.4587 48.2534C48.3644 48.3403 48.2921 48.4484 48.2476 48.5685C48.2141 48.6646 48.2016 48.767 48.211 48.8683C48.2198 48.9579 48.2461 49.045 48.2886 49.1246C48.3239 49.1921 48.3664 49.2555 48.4153 49.3138L49.4957 48.2457C49.3379 48.1236 49.1492 48.0477 48.9508 48.0265M48.7342 52.1962C48.8134 52.3628 48.8515 52.5461 48.8451 52.7306C48.8333 52.9525 48.77 53.1684 48.6601 53.3614C48.4973 53.6359 48.2792 53.8734 48.0194 54.0587C47.8833 54.1635 47.7353 54.2519 47.5784 54.3218C47.4223 54.3933 47.2559 54.4396 47.0854 54.4589C46.921 54.4773 46.7546 54.4602 46.5972 54.4091C46.4295 54.3521 46.2805 54.2506 46.1656 54.1157L46.898 53.5469C47.0141 53.6511 47.17 53.6991 47.3245 53.6785C47.4749 53.6504 47.6161 53.5851 47.7351 53.4888C47.9194 53.3693 48.0345 53.1682 48.0444 52.9487C48.0369 52.7347 47.956 52.5299 47.8151 52.369L47.5409 52.0155L47.5306 52.0236C47.5619 52.2218 47.5282 52.4249 47.4341 52.6023C47.3405 52.7827 47.2088 52.9404 47.0479 53.0645C46.8725 53.2084 46.6665 53.3099 46.4457 53.3614C46.2528 53.4035 46.0525 53.3991 45.8616 53.3487C45.6654 53.2947 45.4819 53.2024 45.3217 53.0768C45.1452 52.9404 44.9871 52.7819 44.8515 52.6049C44.7191 52.4354 44.6132 52.2466 44.5376 52.0451C44.4646 51.8543 44.4275 51.6517 44.428 51.4476C44.4297 51.2487 44.4751 51.0527 44.5612 50.8735C44.6572 50.6786 44.7984 50.5091 44.9727 50.3793C45.1305 50.2508 45.3157 50.1609 45.5141 50.1162C45.7147 50.0804 45.9212 50.1056 46.1073 50.1887L46.1176 50.1806L45.8392 49.8217L46.5406 49.277L48.4916 51.7921C48.5856 51.9179 48.6665 52.053 48.7327 52.1953M47.0288 52.0857C47.0755 51.9857 47.0987 51.8765 47.0972 51.7662C47.0952 51.6539 47.0729 51.5432 47.0314 51.4388C46.9876 51.3285 46.928 51.2252 46.8548 51.1318C46.7732 51.0259 46.6812 50.9286 46.5797 50.8415C46.4891 50.763 46.3852 50.7016 46.2728 50.66C46.166 50.6214 46.0514 50.6102 45.9394 50.6273C45.8092 50.6512 45.6873 50.7084 45.5856 50.7935C45.4904 50.8632 45.415 50.9562 45.3664 51.0636C45.3241 51.1627 45.305 51.2702 45.3103 51.3779C45.3162 51.4917 45.3434 51.6033 45.3907 51.7068C45.4411 51.8188 45.5049 51.9245 45.5808 52.0214C45.6559 52.1183 45.7406 52.2074 45.8333 52.2876C45.9212 52.365 46.022 52.4262 46.1314 52.4681C46.2362 52.5078 46.3486 52.5227 46.4602 52.5119C46.5862 52.4962 46.705 52.4444 46.8024 52.3628C46.8993 52.2907 46.9773 52.196 47.0293 52.0868M43.8328 53.8217C43.8677 53.8828 43.8992 53.946 43.9269 54.0107C43.9635 54.0955 43.983 54.1868 43.9843 54.2793C43.9847 54.3856 43.9578 54.4902 43.9058 54.5832C43.8282 54.7097 43.7177 54.813 43.5864 54.8821C43.5237 54.9198 43.4578 54.9514 43.3892 54.9768C43.3273 55.0007 43.2618 55.0125 43.1956 55.0121C43.1336 55.0108 43.0731 54.993 43.0202 54.9608C42.9586 54.9215 42.908 54.8678 42.8725 54.804C42.8315 54.7411 42.8067 54.6689 42.8006 54.5939C42.7973 54.531 42.808 54.4683 42.8322 54.4102C42.8585 54.349 42.8944 54.2924 42.9389 54.2427C42.9858 54.1889 43.036 54.1383 43.0895 54.0909C43.1465 54.0414 43.205 53.9936 43.2649 53.9477C43.3243 53.9019 43.3795 53.8559 43.4312 53.8096C43.4803 53.766 43.5264 53.719 43.5693 53.6693C43.6073 53.6267 43.6362 53.5767 43.654 53.5226L43.8328 53.8217ZM42.2495 53.5585C42.1728 53.4274 42.1563 53.2695 42.2046 53.1255C42.2703 52.9862 42.3797 52.8722 42.5161 52.8005C42.5829 52.7599 42.6526 52.7246 42.7247 52.6946C42.7872 52.6681 42.8541 52.6538 42.922 52.6529C42.9867 52.6534 43.0503 52.6709 43.1059 52.7038C43.1754 52.7492 43.2324 52.8115 43.2717 52.8845C43.3227 52.9507 43.3376 53.038 43.3116 53.1174C43.2771 53.2037 43.2243 53.2814 43.1564 53.3447C43.0689 53.4305 42.9753 53.5096 42.8764 53.5816C42.7666 53.6627 42.657 53.7486 42.5476 53.8396C42.4382 53.9309 42.3339 54.028 42.235 54.1306C42.1399 54.2278 42.0621 54.3405 42.0053 54.4639C41.9507 54.5869 41.9262 54.7213 41.9336 54.8558C41.9472 55.02 42.0014 55.1783 42.0912 55.3162C42.168 55.452 42.2736 55.5693 42.4008 55.6598C42.5119 55.7366 42.6395 55.7859 42.7734 55.8039C42.9111 55.821 43.0505 55.8103 43.184 55.7725C43.3315 55.7311 43.4727 55.6697 43.6035 55.5899C43.7831 55.4822 43.9455 55.3485 44.0858 55.193C44.2261 55.0382 44.3243 54.8496 44.3707 54.6459C44.4032 54.692 44.4387 54.7358 44.4766 54.7775C44.5139 54.8187 44.5538 54.8575 44.5961 54.8937L45.4085 54.4067C45.3133 54.3499 45.2313 54.2738 45.1673 54.1832C45.0768 54.067 44.9937 53.9451 44.9183 53.8186L44.0088 52.301C43.9262 52.1455 43.7953 52.021 43.6362 51.946C43.4924 51.8864 43.3361 51.8627 43.1811 51.8774C43.0141 51.8936 42.8506 51.9359 42.6967 52.003C42.5369 52.071 42.3817 52.1499 42.2326 52.2392C42.0706 52.3363 41.9187 52.4492 41.7791 52.5762C41.6447 52.6963 41.5314 52.8382 41.4439 52.9959C41.3615 53.1461 41.3148 53.3132 41.3072 53.4842C41.3034 53.6776 41.3517 53.8686 41.4468 54.037L42.2495 53.5585ZM40.1881 57.2331L38.2591 54.5628L38.2468 54.5676L38.7113 57.8263L37.7409 58.2159L34.8395 54.3203L35.7977 53.9355L37.678 56.6255L37.6903 56.6205L37.2563 53.3498L38.1535 52.9895L40.1033 55.694L40.1156 55.6892L39.6241 52.399L40.564 52.0216L41.1414 56.8509L40.1881 57.2331Z" fill="#9FC422"/>
</svg>
