<svg width="845" height="150" viewBox="0 0 845 150" fill="none" xmlns="http://www.w3.org/2000/svg">
<path fill-rule="evenodd" clip-rule="evenodd" d="M558.492 36.5706L562.348 29.0086C549.172 12.1886 528.33 3.24611 507.061 5.28695C485.792 7.3278 467.031 20.0704 457.293 39.0891H465.989C475.697 23.1003 492.858 13.1336 511.556 12.625C530.255 12.1165 547.932 21.1357 558.494 36.5732M575.77 67.7083C575.775 60.1754 574.415 52.7038 571.756 45.6556L566.772 55.4366C572.432 80.1142 560.535 105.471 537.94 116.892C515.344 128.314 487.872 122.857 471.358 103.666H461.73C477.418 126.088 505.839 135.74 531.937 127.511C558.035 119.281 575.778 95.0718 575.767 67.7067" fill="#278C37"/>
<path fill-rule="evenodd" clip-rule="evenodd" d="M575.531 31.1309H564.905L538.691 81.9558L528.075 61.4666C526.377 64.7895 523.941 69.5576 522.801 71.8221L538.72 102.55L544.022 92.2468L575.531 31.1309Z" fill="#A0C522"/>
<path fill-rule="evenodd" clip-rule="evenodd" d="M540.27 31.1309H529.645L503.431 81.9558L495.184 66.037C495.024 66.7954 494.842 67.5502 494.615 68.2953C493.84 70.8788 492.532 73.2707 490.774 75.3165C490.486 75.6515 490.16 75.9592 489.846 76.2731L503.459 102.548L508.761 92.2447L540.27 31.1309Z" fill="#278C37"/>
<path fill-rule="evenodd" clip-rule="evenodd" d="M614.232 55.2537C614.232 54.8403 613.896 54.5051 613.483 54.5051H602.738C602.324 54.5051 601.99 54.1702 601.989 53.7569V42.9518C601.989 42.5385 601.654 42.2034 601.241 42.2031H595.101C594.688 42.2034 594.353 42.5384 594.353 42.9518V53.7569C594.353 54.1701 594.018 54.5051 593.605 54.5051H582.799C582.386 54.5054 582.051 54.8404 582.051 55.2537V61.4536C582.051 61.8669 582.386 62.2018 582.799 62.2023H593.605C594.018 62.2023 594.353 62.5372 594.353 62.9505V73.6972C594.353 74.1104 594.688 74.4453 595.101 74.4453H601.241C601.654 74.4453 601.989 74.1104 601.989 73.6972V62.9505C601.99 62.5372 602.324 62.2023 602.738 62.2023H613.483C613.896 62.2023 614.232 61.8669 614.232 61.4536V55.2537Z" fill="#FBBA00"/>
<path fill-rule="evenodd" clip-rule="evenodd" d="M470.897 69.1658C472.201 69.1699 473.503 69.0624 474.789 68.8452C475.962 68.6609 477.083 68.2374 478.086 67.6019C479.065 66.951 479.853 66.0513 480.37 64.9948C481.517 62.165 481.517 59.0003 480.37 56.1705C479.853 55.1138 479.065 54.2137 478.086 53.5624C477.083 52.928 475.961 52.5049 474.789 52.3191C473.503 52.1029 472.201 51.9956 470.897 51.9985H461.759V69.1658H470.897ZM474.118 42.2109C477.042 42.1312 479.951 42.6643 482.656 43.7759C484.85 44.7083 486.808 46.1198 488.385 47.9069C489.855 49.6133 490.952 51.608 491.606 53.7632C492.954 58.1953 492.954 62.9291 491.606 67.3612C490.292 71.885 487.002 75.5715 482.656 77.3895C479.95 78.5007 477.042 79.0333 474.118 78.9534H461.759V99.4907H450V42.2109H474.118Z" fill="#FBBA00"/>
<path fill-rule="evenodd" clip-rule="evenodd" d="M526.233 141.938C527.062 142.371 528.073 142.243 528.768 141.618C529.003 141.412 529.16 141.132 529.214 140.824L531.103 140.475C531.039 141.326 530.679 142.128 530.085 142.741C529.482 143.285 528.733 143.641 527.931 143.765C527.365 143.878 526.782 143.882 526.214 143.778C525.706 143.682 525.225 143.474 524.806 143.171C524.386 142.861 524.034 142.47 523.772 142.019C523.482 141.522 523.283 140.976 523.185 140.409C523.077 139.853 523.072 139.282 523.17 138.724C523.349 137.675 523.956 136.748 524.845 136.164C525.318 135.852 525.851 135.641 526.41 135.546C527.009 135.42 527.629 135.442 528.218 135.609C528.744 135.766 529.226 136.043 529.625 136.419C530.031 136.804 530.357 137.263 530.587 137.772C530.834 138.314 530.994 138.89 531.06 139.482L525.427 140.524C525.506 141.081 525.795 141.586 526.235 141.937M527.899 137.379C527.531 137.135 527.076 137.06 526.65 137.175C526.354 137.219 526.074 137.333 525.83 137.506C525.639 137.648 525.481 137.829 525.366 138.037C525.266 138.222 525.202 138.425 525.18 138.635C525.16 138.811 525.159 138.989 525.176 139.167L528.666 138.52C528.521 138.077 528.256 137.683 527.9 137.381M518.222 144.831L514.859 137.139L517.14 136.951L519.255 142.218L519.285 142.216L520.509 136.674L522.668 136.496L520.638 144.632L518.222 144.831ZM514.348 137.044L514.399 144.986L512.218 144.999L512.167 137.057L514.348 137.044ZM512.159 135.828L512.148 134.031L514.329 134.017L514.341 135.815L512.159 135.828ZM505.66 142.67C505.739 142.841 505.855 142.993 506.001 143.114C506.152 143.238 506.324 143.333 506.509 143.395C506.708 143.463 506.914 143.506 507.124 143.522C507.286 143.535 507.449 143.531 507.61 143.509C507.774 143.489 507.933 143.446 508.083 143.379C508.226 143.315 508.352 143.22 508.453 143.101C508.561 142.966 508.623 142.801 508.631 142.629C508.658 142.303 508.461 142.04 508.041 141.841C507.466 141.586 506.873 141.372 506.267 141.202C505.956 141.104 505.655 140.995 505.362 140.872C505.084 140.76 504.824 140.609 504.589 140.423C504.371 140.25 504.194 140.03 504.072 139.78C503.944 139.498 503.895 139.188 503.93 138.881C503.949 138.443 504.088 138.018 504.332 137.652C504.551 137.348 504.845 137.104 505.184 136.944C505.542 136.778 505.926 136.674 506.32 136.637C506.74 136.594 507.164 136.59 507.585 136.626C508.003 136.659 508.418 136.735 508.822 136.851C509.197 136.956 509.551 137.126 509.868 137.353C510.169 137.575 510.417 137.861 510.592 138.192C510.786 138.578 510.88 139.007 510.867 139.44L508.8 139.269C508.839 138.921 508.684 138.58 508.396 138.381C508.095 138.2 507.754 138.094 507.403 138.073C507.27 138.063 507.137 138.06 507.003 138.064C506.868 138.066 506.734 138.089 506.605 138.131C506.485 138.171 506.377 138.239 506.288 138.328C506.193 138.432 506.138 138.568 506.134 138.709C506.114 138.891 506.178 139.072 506.309 139.201C506.464 139.349 506.645 139.466 506.844 139.546C507.096 139.651 507.353 139.742 507.615 139.818C507.906 139.903 508.202 139.994 508.502 140.091C508.81 140.187 509.112 140.3 509.407 140.427C509.685 140.546 509.944 140.705 510.175 140.9C510.393 141.084 510.569 141.314 510.69 141.574C510.818 141.871 510.866 142.197 510.828 142.518C510.798 143.393 510.297 144.184 509.517 144.584C509.145 144.776 508.74 144.897 508.324 144.942C507.881 144.993 507.434 145 506.989 144.963C506.536 144.927 506.088 144.843 505.652 144.714C505.245 144.597 504.861 144.409 504.519 144.158C504.195 143.915 503.93 143.6 503.748 143.239C503.547 142.817 503.46 142.35 503.497 141.885L505.563 142.055C505.541 142.265 505.574 142.477 505.659 142.67M497.261 141.373C497.32 141.552 497.419 141.716 497.55 141.853C497.686 141.993 497.846 142.107 498.023 142.19C498.213 142.28 498.413 142.346 498.619 142.386C498.779 142.416 498.941 142.43 499.104 142.427C499.268 142.426 499.432 142.4 499.589 142.351C499.738 142.303 499.874 142.223 499.988 142.116C500.11 141.995 500.19 141.839 500.217 141.669C500.281 141.347 500.116 141.063 499.72 140.818C499.177 140.5 498.613 140.22 498.03 139.982C497.732 139.85 497.444 139.707 497.167 139.553C496.904 139.41 496.663 139.231 496.45 139.02C496.253 138.823 496.102 138.584 496.009 138.321C495.914 138.028 495.9 137.714 495.97 137.413C496.038 136.978 496.224 136.571 496.509 136.235C496.761 135.957 497.08 135.748 497.435 135.628C497.81 135.504 498.203 135.444 498.598 135.451C499.021 135.456 499.442 135.5 499.856 135.583C500.269 135.664 500.672 135.786 501.061 135.947C501.421 136.093 501.753 136.301 502.042 136.562C502.317 136.816 502.53 137.129 502.668 137.477C502.817 137.883 502.862 138.32 502.8 138.748L500.765 138.345C500.842 138.003 500.727 137.647 500.463 137.416C500.185 137.203 499.858 137.06 499.513 137.001C499.381 136.975 499.249 136.956 499.116 136.945C498.981 136.932 498.845 136.94 498.712 136.967C498.589 136.994 498.473 137.049 498.375 137.127C498.269 137.22 498.199 137.347 498.179 137.486C498.138 137.665 498.181 137.853 498.297 137.995C498.433 138.16 498.6 138.297 498.789 138.397C499.027 138.531 499.272 138.651 499.524 138.756C499.804 138.874 500.087 138.998 500.375 139.128C500.669 139.258 500.956 139.404 501.236 139.565C501.499 139.714 501.739 139.901 501.948 140.121C502.144 140.329 502.293 140.577 502.383 140.849C502.477 141.159 502.487 141.487 502.414 141.802C502.285 142.669 501.697 143.398 500.877 143.706C500.486 143.855 500.07 143.93 499.651 143.926C499.204 143.927 498.758 143.883 498.32 143.795C497.874 143.708 497.439 143.574 497.021 143.397C496.629 143.236 496.269 143.005 495.958 142.717C495.662 142.439 495.434 142.097 495.292 141.716C495.14 141.275 495.107 140.801 495.196 140.342L497.23 140.745C497.183 140.952 497.192 141.167 497.255 141.369M489.062 139.206C489.588 139.979 490.54 140.343 491.448 140.118C491.752 140.047 492.023 139.874 492.216 139.629L494.046 140.21C493.589 140.931 492.893 141.469 492.08 141.729C491.292 141.925 490.464 141.886 489.698 141.617C489.145 141.45 488.629 141.18 488.178 140.82C487.775 140.496 487.448 140.086 487.221 139.621C486.998 139.15 486.872 138.638 486.853 138.117C486.831 137.542 486.913 136.967 487.094 136.421C487.261 135.88 487.525 135.374 487.875 134.928C488.527 134.088 489.498 133.556 490.558 133.459C491.122 133.408 491.692 133.474 492.23 133.652C492.817 133.824 493.354 134.136 493.795 134.561C494.184 134.947 494.479 135.419 494.654 135.938C494.83 136.468 494.901 137.028 494.864 137.585C494.827 138.179 494.696 138.763 494.476 139.315L489.015 137.579C488.822 138.108 488.839 138.69 489.062 139.206ZM492.677 135.971C492.469 135.582 492.103 135.302 491.673 135.203C491.391 135.102 491.089 135.069 490.792 135.108C490.557 135.143 490.332 135.228 490.133 135.358C489.957 135.473 489.805 135.622 489.687 135.796C489.586 135.943 489.501 136.099 489.434 136.264L492.813 137.339C492.894 136.88 492.847 136.407 492.675 135.973M485.453 131.356L484.87 132.71L484.898 132.723C485.091 132.536 485.31 132.379 485.549 132.259C485.789 132.136 486.046 132.05 486.312 132.003C486.576 131.955 486.845 131.945 487.112 131.971C487.382 131.997 487.646 132.067 487.894 132.176C488.042 132.241 488.18 132.327 488.304 132.432L487.502 134.295C487.416 134.235 487.311 134.17 487.185 134.1C487.065 134.031 486.94 133.969 486.813 133.914C486.497 133.767 486.152 133.693 485.803 133.697C485.511 133.706 485.226 133.788 484.974 133.934C484.718 134.087 484.497 134.291 484.323 134.532C484.126 134.804 483.96 135.098 483.83 135.407L482.415 138.695L480.411 137.833L483.55 130.537L485.453 131.356ZM478.053 137.414C477.764 137.733 477.403 137.979 477.001 138.131C476.512 138.304 475.989 138.362 475.475 138.299C474.736 138.194 474.028 137.937 473.395 137.543C473.047 137.344 472.724 137.104 472.432 136.829C472.137 136.557 471.888 136.24 471.693 135.889C471.506 135.551 471.393 135.177 471.361 134.792C471.333 134.379 471.418 133.966 471.606 133.597L473.49 134.666C473.371 135.01 473.408 135.389 473.593 135.703C473.788 136.003 474.055 136.249 474.37 136.42C474.793 136.711 475.331 136.778 475.812 136.602C476.267 136.394 476.636 136.035 476.856 135.587L477.371 134.678L477.345 134.662C476.946 134.908 476.479 135.018 476.013 134.975C475.54 134.935 475.081 134.792 474.669 134.557C474.202 134.308 473.798 133.955 473.488 133.525C473.224 133.148 473.053 132.712 472.99 132.254C472.931 131.783 472.966 131.304 473.093 130.846C473.226 130.344 473.423 129.861 473.68 129.41C473.926 128.972 474.238 128.576 474.604 128.232C474.95 127.903 475.353 127.64 475.794 127.458C476.224 127.283 476.687 127.205 477.151 127.229C477.657 127.262 478.149 127.414 478.585 127.672C479.003 127.898 479.363 128.217 479.637 128.605C479.894 129.005 480.026 129.473 480.014 129.949L480.041 129.964L480.564 129.042L482.368 130.066L478.704 136.528C478.518 136.844 478.3 137.14 478.053 137.412M476.757 133.64C477.014 133.65 477.271 133.603 477.507 133.5C477.747 133.394 477.965 133.246 478.153 133.063C478.352 132.868 478.522 132.647 478.658 132.404C478.813 132.134 478.94 131.847 479.037 131.55C479.124 131.284 479.163 131.004 479.152 130.724C479.139 130.459 479.06 130.202 478.922 129.976C478.754 129.716 478.521 129.504 478.246 129.361C478.01 129.219 477.742 129.139 477.467 129.131C477.215 129.129 476.966 129.184 476.739 129.293C476.499 129.407 476.283 129.566 476.102 129.762C475.906 129.971 475.736 130.204 475.595 130.454C475.454 130.703 475.338 130.966 475.248 131.237C475.16 131.497 475.119 131.77 475.127 132.043C475.135 132.305 475.204 132.562 475.329 132.793C475.476 133.051 475.694 133.26 475.957 133.397C476.2 133.541 476.475 133.624 476.757 133.638M467.304 122.906C468.19 122.328 469.285 122.164 470.301 122.459C470.856 122.62 471.375 122.885 471.829 123.241C472.296 123.584 472.694 124.013 473.002 124.504C473.567 125.402 473.709 126.503 473.391 127.516C473.216 128.078 472.942 128.605 472.58 129.07C472.232 129.542 471.802 129.947 471.309 130.265C470.868 130.547 470.372 130.734 469.854 130.811C469.338 130.884 468.813 130.845 468.314 130.695C467.76 130.528 467.241 130.259 466.784 129.903C466.32 129.562 465.922 129.137 465.613 128.65C465.337 128.211 465.159 127.718 465.09 127.204C465.024 126.684 465.069 126.156 465.221 125.656C465.393 125.095 465.667 124.571 466.027 124.108C466.377 123.634 466.809 123.226 467.304 122.906ZM467.279 126.222C467.15 126.485 467.069 126.769 467.039 127.061C467.011 127.339 467.054 127.62 467.162 127.877C467.296 128.169 467.505 128.42 467.768 128.605C468.019 128.809 468.319 128.943 468.638 128.994C468.917 129.032 469.201 128.999 469.464 128.897C469.736 128.789 469.988 128.632 470.206 128.436C470.44 128.23 470.653 128.001 470.841 127.751C471.031 127.501 471.196 127.231 471.333 126.948C471.464 126.685 471.545 126.401 471.573 126.109C471.597 125.83 471.552 125.549 471.444 125.29C471.312 124.994 471.102 124.739 470.837 124.552C470.367 124.157 469.719 124.051 469.147 124.275C468.873 124.382 468.621 124.538 468.405 124.736C468.169 124.945 467.955 125.176 467.765 125.427C467.576 125.676 467.413 125.943 467.277 126.224M466.072 118.758L465.074 119.844L465.096 119.864C465.34 119.752 465.599 119.678 465.865 119.642C466.132 119.606 466.403 119.609 466.67 119.652C466.934 119.695 467.192 119.774 467.435 119.886C467.681 120.001 467.907 120.153 468.106 120.337C468.223 120.449 468.324 120.576 468.405 120.716L467.032 122.208C466.97 122.124 466.892 122.028 466.797 121.919C466.706 121.815 466.609 121.716 466.507 121.621C466.258 121.378 465.956 121.193 465.625 121.082C465.347 120.994 465.051 120.976 464.765 121.031C464.473 121.091 464.197 121.21 463.953 121.38C463.677 121.571 463.423 121.793 463.198 122.042L460.774 124.677L459.169 123.2L464.546 117.354L466.072 118.758ZM463.759 112.144C464.165 112.583 464.481 113.097 464.689 113.658C464.85 114.108 464.912 114.587 464.869 115.063C464.823 115.5 464.683 115.922 464.459 116.299C464.006 117.065 463.32 117.667 462.501 118.016C462.096 118.191 461.658 118.276 461.217 118.264C460.739 118.244 460.272 118.121 459.847 117.902C459.317 117.623 458.848 117.242 458.464 116.782L456.793 114.876L453.836 117.469L452.246 115.655L460.494 108.424L463.759 112.144ZM459.443 115.05C459.618 115.252 459.81 115.439 460.016 115.61C460.199 115.767 460.411 115.886 460.64 115.961C460.862 116.03 461.098 116.038 461.324 115.984C461.886 115.806 462.347 115.401 462.596 114.866C462.679 114.649 462.702 114.414 462.663 114.185C462.618 113.948 462.528 113.722 462.397 113.519C462.254 113.293 462.093 113.079 461.916 112.878L460.681 111.469L458.208 113.636L459.443 115.05Z" fill="#FBBA00"/>
<path fill-rule="evenodd" clip-rule="evenodd" d="M571.254 115.666C571.441 115.695 571.632 115.683 571.814 115.629C572 115.573 572.175 115.482 572.33 115.363C572.497 115.236 572.647 115.089 572.777 114.924C572.878 114.797 572.965 114.66 573.036 114.514C573.111 114.367 573.162 114.21 573.19 114.048C573.216 113.894 573.207 113.737 573.165 113.587C573.087 113.33 572.884 113.131 572.625 113.058C572.367 112.986 572.089 113.05 571.889 113.229C571.356 113.565 570.849 113.938 570.37 114.347C570.117 114.552 569.858 114.742 569.594 114.917C569.346 115.085 569.075 115.217 568.791 115.309C568.525 115.394 568.244 115.418 567.968 115.381C567.664 115.331 567.378 115.199 567.143 114.999C566.788 114.739 566.511 114.387 566.343 113.98C566.212 113.628 566.173 113.249 566.229 112.878C566.29 112.488 566.417 112.111 566.605 111.764C566.803 111.391 567.036 111.036 567.299 110.706C567.561 110.377 567.854 110.074 568.175 109.803C568.471 109.549 568.809 109.35 569.174 109.213C569.526 109.086 569.901 109.039 570.274 109.077C570.703 109.132 571.112 109.292 571.464 109.544L570.172 111.167C569.904 110.941 569.534 110.88 569.209 111.009C568.891 111.159 568.615 111.383 568.403 111.663C568.321 111.768 568.243 111.877 568.173 111.991C568.099 112.104 568.043 112.228 568.007 112.359C567.973 112.48 567.969 112.608 567.994 112.732C568.028 112.869 568.11 112.99 568.225 113.072C568.365 113.19 568.552 113.237 568.731 113.2C568.94 113.155 569.138 113.068 569.315 112.948C569.542 112.797 569.761 112.634 569.97 112.458C570.203 112.263 570.443 112.069 570.69 111.873C570.941 111.671 571.202 111.484 571.473 111.309C571.726 111.144 572.002 111.016 572.292 110.932C572.567 110.853 572.857 110.836 573.139 110.88C573.457 110.939 573.754 111.081 574.001 111.29C574.712 111.801 575.09 112.658 574.988 113.528C574.94 113.944 574.815 114.347 574.62 114.717C574.416 115.114 574.173 115.49 573.895 115.839C573.613 116.195 573.295 116.521 572.945 116.812C572.622 117.086 572.252 117.301 571.853 117.445C571.47 117.579 571.062 117.624 570.66 117.575C570.198 117.507 569.762 117.319 569.395 117.031L570.686 115.407C570.848 115.543 571.042 115.635 571.25 115.671M565.523 121.973C566.452 121.866 567.217 121.192 567.439 120.283C567.518 119.98 567.491 119.66 567.363 119.375L568.729 118.026C569.155 118.765 569.307 119.631 569.16 120.472C568.967 121.261 568.547 121.976 567.952 122.529C567.548 122.94 567.069 123.27 566.54 123.502C566.065 123.708 565.551 123.807 565.033 123.792C564.513 123.771 564.002 123.644 563.532 123.418C563.012 123.17 562.541 122.83 562.141 122.416C561.74 122.017 561.415 121.547 561.183 121.031C560.743 120.063 560.725 118.955 561.132 117.972C561.349 117.449 561.672 116.976 562.08 116.582C562.505 116.142 563.031 115.811 563.612 115.619C564.135 115.453 564.689 115.412 565.231 115.498C565.782 115.589 566.311 115.786 566.787 116.078C567.295 116.387 567.751 116.774 568.138 117.227L564.062 121.254C564.44 121.671 564.963 121.928 565.524 121.971M564.341 117.266C563.899 117.269 563.48 117.462 563.191 117.797C562.972 118 562.803 118.252 562.698 118.532C562.62 118.757 562.591 118.996 562.613 119.233C562.633 119.442 562.695 119.645 562.794 119.831C562.877 119.989 562.976 120.137 563.09 120.273L565.614 117.779C565.245 117.493 564.805 117.316 564.341 117.267M563.835 127.005C564.02 127.394 564.109 127.822 564.094 128.252C564.067 128.771 563.919 129.275 563.662 129.726C563.282 130.367 562.772 130.921 562.165 131.354C561.847 131.599 561.502 131.805 561.135 131.969C560.771 132.136 560.382 132.244 559.984 132.289C559.6 132.332 559.21 132.292 558.843 132.173C558.451 132.039 558.103 131.802 557.835 131.487L559.545 130.159C559.817 130.402 560.181 130.514 560.542 130.466C560.893 130.401 561.223 130.248 561.501 130.023C561.932 129.744 562.201 129.275 562.224 128.762C562.206 128.262 562.017 127.784 561.688 127.408L561.047 126.583L561.023 126.601C561.097 127.064 561.018 127.539 560.798 127.953C560.579 128.374 560.272 128.743 559.896 129.032C559.486 129.368 559.005 129.605 558.489 129.726C558.038 129.824 557.57 129.814 557.124 129.696C556.666 129.57 556.237 129.354 555.863 129.061C555.451 128.743 555.082 128.372 554.765 127.959C554.455 127.563 554.208 127.122 554.031 126.652C553.861 126.206 553.774 125.733 553.775 125.256C553.779 124.792 553.885 124.334 554.087 123.916C554.311 123.46 554.641 123.064 555.048 122.761C555.416 122.461 555.849 122.251 556.313 122.147C556.781 122.063 557.264 122.122 557.698 122.316L557.722 122.297L557.073 121.46L558.711 120.188L563.269 126.062C563.488 126.355 563.677 126.671 563.832 127.003M559.852 126.747C559.961 126.514 560.015 126.259 560.011 126.001C560.007 125.739 559.955 125.481 559.858 125.237C559.755 124.979 559.616 124.738 559.445 124.52C559.255 124.272 559.039 124.045 558.802 123.842C558.591 123.658 558.348 123.515 558.085 123.418C557.836 123.328 557.568 123.302 557.307 123.342C557.002 123.397 556.718 123.531 556.48 123.73C556.258 123.893 556.082 124.11 555.968 124.361C555.869 124.592 555.825 124.843 555.837 125.094C555.851 125.36 555.914 125.621 556.025 125.863C556.143 126.124 556.292 126.371 556.469 126.597C556.644 126.824 556.842 127.032 557.059 127.219C557.264 127.4 557.5 127.542 557.755 127.641C558 127.733 558.263 127.768 558.523 127.743C558.818 127.706 559.095 127.585 559.323 127.395C559.549 127.226 559.731 127.005 559.853 126.75M552.385 130.802C552.467 130.945 552.541 131.092 552.605 131.243C552.691 131.441 552.736 131.654 552.739 131.87C552.74 132.119 552.677 132.363 552.556 132.58C552.375 132.876 552.117 133.117 551.81 133.278C551.664 133.366 551.511 133.44 551.351 133.499C551.207 133.555 551.054 133.583 550.899 133.582C550.754 133.579 550.613 133.537 550.49 133.462C550.346 133.37 550.227 133.245 550.145 133.096C550.049 132.949 549.991 132.78 549.976 132.605C549.969 132.458 549.994 132.312 550.05 132.176C550.112 132.033 550.196 131.901 550.3 131.785C550.409 131.659 550.526 131.541 550.651 131.43C550.785 131.315 550.921 131.203 551.061 131.096C551.2 130.989 551.329 130.882 551.45 130.773C551.564 130.672 551.672 130.562 551.772 130.446C551.861 130.346 551.929 130.23 551.971 130.103L552.385 130.802ZM548.687 130.187C548.507 129.881 548.469 129.512 548.582 129.176C548.735 128.851 548.991 128.584 549.309 128.417C549.465 128.322 549.628 128.24 549.797 128.17C549.943 128.108 550.099 128.074 550.258 128.072C550.409 128.073 550.557 128.114 550.687 128.191C550.85 128.297 550.983 128.442 551.074 128.613C551.194 128.768 551.229 128.971 551.168 129.157C551.087 129.359 550.963 129.54 550.805 129.688C550.601 129.888 550.382 130.073 550.151 130.241C549.895 130.43 549.639 130.631 549.383 130.844C549.127 131.057 548.884 131.284 548.653 131.523C548.43 131.75 548.249 132.013 548.116 132.302C547.989 132.589 547.932 132.903 547.949 133.217C547.98 133.6 548.107 133.97 548.317 134.292C548.496 134.609 548.743 134.883 549.04 135.094C549.3 135.274 549.6 135.389 549.913 135.431C550.235 135.471 550.56 135.446 550.872 135.358C551.217 135.261 551.547 135.118 551.852 134.931C552.272 134.68 552.652 134.367 552.979 134.004C553.307 133.643 553.536 133.202 553.645 132.727C553.72 132.834 553.803 132.937 553.892 133.034C553.979 133.13 554.072 133.221 554.171 133.305L556.069 132.168C555.847 132.035 555.655 131.858 555.506 131.646C555.294 131.375 555.1 131.09 554.924 130.794L552.799 127.25C552.605 126.887 552.299 126.596 551.926 126.421C551.59 126.282 551.225 126.227 550.863 126.261C550.473 126.299 550.091 126.398 549.731 126.554C549.358 126.713 548.995 126.897 548.647 127.106C548.269 127.333 547.914 127.596 547.588 127.893C547.274 128.174 547.009 128.505 546.805 128.873C546.612 129.224 546.503 129.614 546.485 130.014C546.476 130.465 546.589 130.911 546.811 131.305L548.687 130.187ZM543.877 138.767L539.371 132.531L539.342 132.542L540.427 140.152L538.16 141.062L531.379 131.965L533.617 131.066L538.01 137.348L538.039 137.336L537.025 129.698L539.121 128.857L543.678 135.173L543.707 135.162L542.559 127.478L544.755 126.596L546.104 137.875L543.877 138.767Z" fill="#9FC422"/>
<g clip-path="url(#clip0_8996_109393)">
<path fill-rule="evenodd" clip-rule="evenodd" d="M345.322 36.5426L349.169 28.9872C336.009 12.1826 315.193 3.24806 293.949 5.28656C272.707 7.32507 253.968 20.0553 244.241 39.0563H252.927C262.623 23.0816 279.764 13.1237 298.44 12.6156C317.115 12.1075 334.772 21.1187 345.322 36.5426ZM362.577 67.6503C362.581 60.1241 361.223 52.659 358.567 45.617L353.589 55.3893C359.242 80.0447 347.361 105.379 324.793 116.791C302.226 128.203 274.787 122.752 258.291 103.579H248.676C264.345 125.981 292.732 135.625 318.798 127.403C344.865 119.181 362.587 94.9923 362.576 67.6513" fill="#278C37"/>
<path fill-rule="evenodd" clip-rule="evenodd" d="M362.351 31.1016H351.739L325.556 81.8817L314.953 61.4105C313.256 64.7306 310.824 69.4944 309.685 71.7569L325.585 102.458L330.881 92.1636L362.351 31.1016Z" fill="#A0C522"/>
<path fill-rule="evenodd" clip-rule="evenodd" d="M327.123 31.1016H316.51L290.328 81.8818L282.09 65.9769C281.931 66.7347 281.749 67.4888 281.522 68.2333C280.749 70.8145 279.442 73.2043 277.686 75.2483C277.399 75.583 277.072 75.8905 276.759 76.2041L290.355 102.456L295.651 92.1616L327.123 31.1016Z" fill="#278C37"/>
<path fill-rule="evenodd" clip-rule="evenodd" d="M257.872 69.1147C259.175 69.1188 260.475 69.0114 261.76 68.7944C262.93 68.6102 264.051 68.1871 265.052 67.5522C266.03 66.9019 266.818 66.0029 267.334 64.9474C268.479 62.1201 268.479 58.9582 267.334 56.1308C266.818 55.0751 266.03 54.1758 265.052 53.5251C264.05 52.8913 262.93 52.4685 261.76 52.2828C260.475 52.0668 259.175 51.9597 257.872 51.9625H248.745V69.1147H257.872ZM261.089 42.1836C264.01 42.1039 266.915 42.6365 269.617 43.7471C271.809 44.6787 273.764 46.089 275.339 47.8745C276.807 49.5795 277.903 51.5724 278.556 53.7256C279.903 58.1539 279.903 62.8835 278.556 67.3117C277.244 71.8315 273.958 75.5148 269.617 77.3311C266.915 78.4414 264.01 78.9735 261.089 78.8937H248.745V99.413H237V42.1836H261.089Z" fill="#FBBA00"/>
<path fill-rule="evenodd" clip-rule="evenodd" d="M313.149 141.942C313.976 142.375 314.986 142.247 315.68 141.621C315.915 141.416 316.072 141.136 316.126 140.828L318.012 140.479C317.949 141.33 317.589 142.131 316.996 142.743C316.394 143.287 315.646 143.643 314.844 143.767C314.279 143.88 313.697 143.884 313.13 143.78C312.622 143.684 312.142 143.477 311.723 143.174C311.304 142.864 310.953 142.473 310.691 142.023C310.401 141.526 310.202 140.981 310.104 140.414C309.996 139.858 309.991 139.288 310.089 138.731C310.268 137.683 310.874 136.757 311.762 136.173C312.235 135.861 312.767 135.651 313.325 135.555C313.923 135.43 314.543 135.451 315.131 135.618C315.657 135.775 316.137 136.052 316.537 136.428C316.941 136.812 317.268 137.271 317.497 137.78C317.744 138.32 317.904 138.896 317.969 139.487L312.343 140.529C312.423 141.085 312.711 141.59 313.15 141.941M314.812 137.387C314.445 137.143 313.991 137.068 313.565 137.182C313.27 137.227 312.989 137.341 312.746 137.514C312.556 137.655 312.397 137.836 312.282 138.045C312.182 138.229 312.119 138.432 312.096 138.641C312.076 138.818 312.075 138.996 312.093 139.173L315.578 138.527C315.434 138.084 315.169 137.69 314.814 137.389M305.147 144.833L301.788 137.147L304.067 136.959L306.179 142.222L306.209 142.219L307.431 136.682L309.587 136.504L307.557 144.633L305.147 144.833ZM301.278 137.052L301.329 144.987L299.15 145L299.099 137.065L301.278 137.052ZM299.091 135.837L299.08 134.042L301.259 134.028L301.27 135.824L299.091 135.837ZM292.603 142.673C292.683 142.845 292.799 142.997 292.944 143.118C293.095 143.241 293.267 143.336 293.452 143.398C293.65 143.466 293.856 143.509 294.066 143.525C294.228 143.538 294.39 143.533 294.552 143.511C294.715 143.492 294.874 143.449 295.024 143.382C295.166 143.318 295.293 143.223 295.393 143.104C295.501 142.97 295.564 142.805 295.571 142.633C295.598 142.307 295.402 142.045 294.982 141.846C294.407 141.59 293.815 141.376 293.21 141.207C292.899 141.109 292.598 141 292.306 140.878C292.028 140.765 291.769 140.614 291.534 140.429C291.316 140.256 291.139 140.036 291.017 139.786C290.889 139.505 290.841 139.195 290.876 138.888C290.895 138.45 291.033 138.025 291.278 137.66C291.497 137.356 291.79 137.112 292.129 136.953C292.487 136.786 292.87 136.683 293.263 136.646C293.683 136.603 294.106 136.599 294.526 136.635C294.944 136.668 295.359 136.744 295.762 136.86C296.137 136.965 296.49 137.134 296.806 137.362C297.107 137.583 297.355 137.869 297.53 138.199C297.724 138.585 297.818 139.014 297.805 139.446L295.74 139.276C295.779 138.928 295.624 138.587 295.336 138.388C295.035 138.207 294.695 138.102 294.345 138.081C294.212 138.071 294.078 138.068 293.945 138.071C293.81 138.073 293.676 138.096 293.548 138.139C293.428 138.179 293.319 138.246 293.231 138.336C293.136 138.44 293.081 138.575 293.077 138.716C293.057 138.898 293.121 139.079 293.252 139.208C293.406 139.356 293.587 139.473 293.786 139.552C294.038 139.657 294.295 139.748 294.557 139.824C294.847 139.909 295.142 140 295.443 140.097C295.749 140.193 296.051 140.306 296.346 140.433C296.624 140.552 296.882 140.71 297.114 140.905C297.331 141.09 297.505 141.32 297.625 141.579C297.753 141.875 297.8 142.201 297.763 142.521C297.733 143.396 297.232 144.186 296.454 144.585C296.082 144.778 295.678 144.899 295.262 144.944C294.819 144.994 294.373 145.001 293.928 144.965C293.476 144.928 293.028 144.844 292.594 144.715C292.186 144.599 291.803 144.411 291.462 144.16C291.137 143.918 290.874 143.603 290.691 143.242C290.49 142.821 290.404 142.354 290.44 141.889L292.505 142.059C292.482 142.269 292.515 142.481 292.6 142.673M284.212 141.377C284.272 141.557 284.37 141.72 284.501 141.857C284.636 141.997 284.797 142.111 284.974 142.193C285.163 142.284 285.363 142.35 285.569 142.389C285.728 142.42 285.89 142.434 286.053 142.43C286.217 142.429 286.38 142.404 286.537 142.355C286.686 142.307 286.822 142.227 286.936 142.12C287.058 142 287.138 141.843 287.165 141.673C287.229 141.352 287.063 141.068 286.668 140.823C286.126 140.505 285.562 140.226 284.98 139.988C284.683 139.856 284.395 139.714 284.118 139.56C283.856 139.417 283.615 139.237 283.402 139.026C283.205 138.829 283.055 138.591 282.962 138.329C282.867 138.035 282.853 137.722 282.923 137.421C282.99 136.987 283.177 136.58 283.461 136.245C283.713 135.967 284.031 135.758 284.386 135.638C284.761 135.514 285.153 135.454 285.548 135.461C285.97 135.466 286.39 135.51 286.804 135.593C287.216 135.674 287.619 135.796 288.007 135.957C288.367 136.102 288.699 136.31 288.988 136.571C289.262 136.824 289.475 137.137 289.612 137.485C289.761 137.891 289.807 138.327 289.744 138.755L287.712 138.352C287.789 138.011 287.674 137.655 287.411 137.424C287.132 137.211 286.806 137.068 286.461 137.009C286.33 136.983 286.198 136.965 286.065 136.954C285.93 136.94 285.794 136.948 285.662 136.976C285.538 137.002 285.423 137.057 285.325 137.136C285.219 137.228 285.149 137.355 285.129 137.494C285.088 137.673 285.132 137.86 285.247 138.003C285.383 138.167 285.55 138.304 285.738 138.405C285.976 138.538 286.221 138.658 286.473 138.763C286.752 138.881 287.035 139.004 287.322 139.134C287.616 139.265 287.903 139.411 288.182 139.571C288.446 139.72 288.685 139.907 288.894 140.126C289.09 140.335 289.238 140.583 289.328 140.854C289.421 141.164 289.432 141.492 289.359 141.807C289.23 142.672 288.643 143.4 287.824 143.709C287.433 143.858 287.018 143.932 286.6 143.928C286.154 143.928 285.709 143.885 285.272 143.798C284.827 143.71 284.392 143.577 283.975 143.4C283.583 143.239 283.224 143.009 282.913 142.72C282.617 142.443 282.39 142.101 282.248 141.721C282.096 141.28 282.063 140.806 282.152 140.348L284.184 140.751C284.137 140.957 284.146 141.172 284.209 141.374M276.025 139.213C276.551 139.985 277.502 140.349 278.408 140.124C278.712 140.053 278.983 139.88 279.176 139.635L281.004 140.216C280.547 140.936 279.852 141.474 279.04 141.734C278.253 141.929 277.426 141.89 276.661 141.621C276.109 141.455 275.593 141.185 275.143 140.825C274.74 140.501 274.413 140.092 274.187 139.627C273.964 139.156 273.838 138.645 273.819 138.125C273.798 137.55 273.879 136.976 274.06 136.43C274.226 135.889 274.491 135.384 274.84 134.938C275.491 134.099 276.461 133.567 277.519 133.471C278.083 133.419 278.652 133.485 279.189 133.664C279.776 133.835 280.313 134.147 280.752 134.572C281.142 134.957 281.436 135.429 281.611 135.948C281.787 136.477 281.858 137.036 281.821 137.593C281.784 138.186 281.653 138.77 281.433 139.322L275.978 137.587C275.786 138.115 275.803 138.697 276.025 139.213ZM279.636 135.98C279.428 135.592 279.063 135.312 278.633 135.213C278.352 135.112 278.05 135.08 277.754 135.118C277.519 135.153 277.294 135.238 277.095 135.368C276.919 135.483 276.768 135.632 276.649 135.806C276.549 135.952 276.464 136.109 276.397 136.273L279.772 137.347C279.853 136.888 279.806 136.416 279.634 135.983M272.418 131.369L271.836 132.722L271.865 132.734C272.057 132.548 272.276 132.392 272.515 132.271C272.755 132.148 273.012 132.062 273.277 132.015C273.54 131.968 273.809 131.957 274.076 131.983C274.345 132.01 274.609 132.079 274.857 132.188C275.005 132.253 275.143 132.339 275.266 132.444L274.466 134.305C274.38 134.246 274.275 134.181 274.149 134.11C274.028 134.042 273.905 133.98 273.777 133.925C273.462 133.778 273.117 133.704 272.768 133.708C272.477 133.717 272.192 133.799 271.94 133.945C271.685 134.097 271.464 134.301 271.291 134.542C271.093 134.814 270.928 135.107 270.798 135.416L269.385 138.702L267.383 137.84L270.518 130.551L272.418 131.369ZM265.028 137.421C264.739 137.741 264.379 137.986 263.977 138.138C263.488 138.311 262.967 138.368 262.452 138.306C261.715 138.201 261.008 137.944 260.375 137.551C260.028 137.352 259.704 137.112 259.413 136.838C259.119 136.565 258.87 136.248 258.675 135.898C258.488 135.561 258.375 135.187 258.344 134.802C258.316 134.389 258.401 133.977 258.589 133.608L260.47 134.676C260.351 135.02 260.389 135.398 260.573 135.712C260.768 136.012 261.035 136.258 261.35 136.428C261.772 136.719 262.309 136.786 262.79 136.61C263.244 136.402 263.612 136.044 263.832 135.596L264.347 134.688L264.32 134.672C263.923 134.918 263.456 135.027 262.99 134.984C262.518 134.945 262.06 134.802 261.648 134.568C261.181 134.318 260.778 133.966 260.468 133.537C260.204 133.159 260.034 132.724 259.971 132.267C259.912 131.795 259.946 131.317 260.073 130.859C260.209 130.357 260.408 129.874 260.667 129.422C260.914 128.986 261.225 128.589 261.591 128.246C261.936 127.917 262.339 127.654 262.779 127.472C263.209 127.297 263.672 127.219 264.135 127.244C264.64 127.276 265.131 127.428 265.567 127.686C265.984 127.912 266.344 128.23 266.617 128.618C266.875 129.018 267.006 129.485 266.994 129.961L267.021 129.976L267.543 129.055L269.345 130.078L265.677 136.536C265.491 136.852 265.273 137.148 265.026 137.42M263.732 133.651C263.989 133.661 264.245 133.614 264.481 133.511C264.72 133.405 264.939 133.257 265.126 133.074C265.325 132.88 265.495 132.659 265.631 132.417C265.786 132.146 265.912 131.86 266.009 131.563C266.096 131.297 266.135 131.017 266.124 130.737C266.111 130.473 266.032 130.216 265.895 129.99C265.726 129.73 265.493 129.519 265.219 129.376C264.984 129.234 264.715 129.154 264.44 129.146C264.189 129.144 263.941 129.199 263.714 129.307C263.474 129.422 263.259 129.581 263.078 129.776C262.882 129.985 262.712 130.218 262.572 130.468C262.43 130.716 262.314 130.979 262.225 131.251C262.137 131.509 262.096 131.782 262.104 132.055C262.112 132.317 262.181 132.574 262.305 132.805C262.452 133.062 262.67 133.272 262.933 133.408C263.176 133.552 263.45 133.635 263.732 133.649M254.29 122.927C255.175 122.349 256.268 122.185 257.284 122.48C257.838 122.641 258.356 122.906 258.81 123.261C259.277 123.604 259.674 124.032 259.981 124.523C260.546 125.42 260.688 126.52 260.37 127.532C260.195 128.094 259.921 128.62 259.56 129.085C259.213 129.557 258.782 129.961 258.29 130.279C257.849 130.561 257.355 130.747 256.837 130.825C256.322 130.898 255.797 130.858 255.299 130.709C254.745 130.541 254.227 130.273 253.771 129.917C253.307 129.576 252.91 129.152 252.601 128.666C252.326 128.227 252.147 127.734 252.079 127.22C252.013 126.701 252.058 126.174 252.21 125.674C252.382 125.113 252.655 124.59 253.015 124.128C253.364 123.654 253.796 123.246 254.29 122.927ZM254.265 126.239C254.136 126.502 254.055 126.786 254.025 127.078C253.998 127.355 254.04 127.636 254.149 127.893C254.282 128.185 254.491 128.436 254.753 128.62C255.004 128.824 255.304 128.958 255.623 129.01C255.901 129.047 256.185 129.014 256.447 128.912C256.72 128.804 256.971 128.648 257.189 128.452C257.423 128.246 257.635 128.016 257.822 127.767C258.013 127.517 258.177 127.248 258.315 126.965C258.445 126.703 258.526 126.419 258.554 126.127C258.578 125.848 258.533 125.567 258.425 125.308C258.293 125.012 258.084 124.757 257.819 124.571C257.349 124.176 256.702 124.07 256.131 124.294C255.857 124.401 255.606 124.557 255.389 124.755C255.154 124.964 254.94 125.195 254.751 125.445C254.562 125.694 254.399 125.961 254.264 126.242M253.06 118.782L252.063 119.867L252.085 119.888C252.329 119.776 252.587 119.701 252.852 119.666C253.12 119.629 253.39 119.632 253.657 119.676C253.921 119.718 254.178 119.797 254.421 119.91C254.666 120.024 254.892 120.176 255.091 120.36C255.208 120.471 255.308 120.599 255.389 120.738L254.018 122.229C253.957 122.145 253.878 122.049 253.783 121.941C253.692 121.836 253.596 121.737 253.494 121.643C253.245 121.399 252.944 121.215 252.614 121.104C252.336 121.016 252.04 120.998 251.754 121.053C251.463 121.113 251.187 121.232 250.943 121.402C250.667 121.593 250.414 121.815 250.189 122.064L247.768 124.696L246.165 123.22L251.535 117.38L253.06 118.782ZM250.75 112.174C251.155 112.613 251.471 113.126 251.678 113.686C251.839 114.136 251.901 114.615 251.858 115.09C251.812 115.527 251.672 115.948 251.448 116.326C250.995 117.09 250.31 117.691 249.493 118.041C249.088 118.216 248.65 118.3 248.21 118.288C247.733 118.269 247.266 118.145 246.842 117.926C246.314 117.647 245.845 117.267 245.463 116.808L243.794 114.904L240.84 117.494L239.255 115.682L247.493 108.457L250.75 112.174ZM246.438 115.077C246.614 115.279 246.805 115.466 247.01 115.637C247.193 115.793 247.405 115.913 247.634 115.988C247.856 116.056 248.092 116.065 248.318 116.011C248.879 115.833 249.339 115.428 249.588 114.894C249.671 114.677 249.694 114.442 249.655 114.213C249.61 113.976 249.52 113.75 249.389 113.548C249.246 113.322 249.085 113.108 248.908 112.907L247.675 111.499L245.205 113.664L246.438 115.077Z" fill="#FBBA00"/>
<path fill-rule="evenodd" clip-rule="evenodd" d="M358.12 115.463C358.307 115.493 358.498 115.48 358.679 115.427C358.866 115.37 359.04 115.28 359.194 115.161C359.361 115.034 359.512 114.886 359.641 114.722C359.742 114.595 359.829 114.458 359.9 114.312C359.974 114.165 360.026 114.009 360.054 113.847C360.08 113.693 360.071 113.536 360.029 113.386C359.951 113.129 359.748 112.93 359.49 112.858C359.231 112.785 358.954 112.849 358.754 113.028C358.222 113.364 357.715 113.737 357.238 114.145C356.984 114.35 356.726 114.54 356.462 114.714C356.214 114.882 355.944 115.014 355.66 115.106C355.395 115.191 355.114 115.216 354.838 115.178C354.534 115.128 354.249 114.996 354.014 114.797C353.659 114.537 353.383 114.185 353.215 113.779C353.084 113.427 353.045 113.048 353.101 112.678C353.162 112.288 353.289 111.912 353.477 111.565C353.675 111.192 353.907 110.838 354.17 110.508C354.431 110.179 354.724 109.876 355.045 109.605C355.34 109.352 355.678 109.153 356.042 109.016C356.394 108.889 356.769 108.842 357.141 108.88C357.569 108.934 357.978 109.095 358.33 109.346L357.04 110.968C356.772 110.742 356.402 110.682 356.077 110.81C355.76 110.96 355.484 111.184 355.272 111.464C355.19 111.569 355.113 111.678 355.042 111.791C354.969 111.904 354.913 112.028 354.877 112.159C354.843 112.28 354.839 112.408 354.864 112.531C354.898 112.668 354.979 112.789 355.094 112.871C355.235 112.989 355.421 113.037 355.6 112.999C355.809 112.954 356.007 112.868 356.183 112.747C356.41 112.597 356.629 112.433 356.837 112.257C357.07 112.064 357.31 111.869 357.557 111.673C357.807 111.472 358.068 111.284 358.339 111.11C358.591 110.945 358.867 110.817 359.157 110.733C359.432 110.655 359.721 110.637 360.003 110.682C360.321 110.74 360.617 110.882 360.863 111.091C361.573 111.602 361.951 112.458 361.85 113.327C361.802 113.742 361.677 114.145 361.482 114.515C361.278 114.912 361.036 115.287 360.758 115.636C360.476 115.992 360.158 116.318 359.809 116.608C359.486 116.882 359.117 117.097 358.718 117.24C358.336 117.375 357.929 117.419 357.527 117.371C357.065 117.303 356.629 117.115 356.263 116.826L357.553 115.205C357.714 115.341 357.908 115.432 358.116 115.468M352.395 121.764C353.324 121.657 354.088 120.984 354.31 120.076C354.389 119.773 354.362 119.454 354.234 119.169L355.598 117.821C356.023 118.56 356.176 119.425 356.028 120.265C355.836 121.053 355.416 121.767 354.822 122.32C354.418 122.731 353.94 123.061 353.412 123.292C352.938 123.498 352.424 123.597 351.907 123.582C351.387 123.561 350.876 123.434 350.407 123.209C349.888 122.96 349.418 122.621 349.018 122.207C348.617 121.808 348.293 121.339 348.061 120.823C347.622 119.856 347.603 118.749 348.01 117.767C348.227 117.244 348.549 116.772 348.957 116.379C349.381 115.939 349.907 115.608 350.487 115.416C351.009 115.251 351.563 115.21 352.104 115.296C352.655 115.387 353.183 115.583 353.658 115.875C354.166 116.183 354.621 116.571 355.008 117.022L350.94 121.046C351.317 121.462 351.839 121.719 352.4 121.762M351.219 117.061C350.777 117.064 350.359 117.257 350.07 117.591C349.85 117.794 349.682 118.046 349.578 118.327C349.499 118.551 349.47 118.79 349.492 119.026C349.513 119.235 349.574 119.438 349.673 119.624C349.756 119.782 349.855 119.93 349.969 120.066L352.49 117.573C352.122 117.288 351.681 117.111 351.219 117.062M350.713 126.791C350.898 127.18 350.987 127.608 350.972 128.038C350.944 128.556 350.797 129.06 350.54 129.51C350.16 130.151 349.651 130.705 349.045 131.137C348.728 131.382 348.382 131.588 348.016 131.751C347.652 131.918 347.264 132.026 346.866 132.071C346.482 132.114 346.094 132.074 345.727 131.955C345.336 131.822 344.988 131.585 344.72 131.27L346.429 129.943C346.7 130.186 347.063 130.298 347.424 130.25C347.775 130.184 348.104 130.032 348.382 129.807C348.812 129.528 349.081 129.059 349.104 128.547C349.086 128.048 348.897 127.57 348.569 127.194L347.929 126.37L347.905 126.388C347.978 126.851 347.899 127.325 347.68 127.739C347.461 128.16 347.154 128.528 346.778 128.817C346.369 129.153 345.888 129.39 345.373 129.51C344.923 129.608 344.456 129.598 344.01 129.48C343.552 129.354 343.124 129.139 342.751 128.846C342.339 128.528 341.97 128.158 341.653 127.745C341.344 127.349 341.097 126.909 340.921 126.439C340.751 125.993 340.664 125.521 340.665 125.044C340.669 124.58 340.775 124.123 340.976 123.705C341.2 123.25 341.53 122.855 341.936 122.552C342.304 122.252 342.737 122.042 343.2 121.938C343.668 121.854 344.149 121.913 344.584 122.107L344.608 122.088L343.958 121.251L345.595 119.98L350.147 125.848C350.366 126.142 350.555 126.457 350.71 126.789M346.734 126.533C346.843 126.3 346.897 126.045 346.893 125.788C346.889 125.526 346.837 125.267 346.74 125.024C346.638 124.767 346.499 124.526 346.328 124.308C346.137 124.06 345.923 123.833 345.686 123.63C345.475 123.447 345.232 123.304 344.97 123.207C344.721 123.117 344.453 123.09 344.192 123.13C343.888 123.186 343.604 123.32 343.366 123.518C343.144 123.681 342.968 123.898 342.855 124.148C342.756 124.38 342.712 124.63 342.724 124.882C342.738 125.147 342.801 125.408 342.912 125.649C343.029 125.911 343.178 126.157 343.355 126.383C343.531 126.609 343.728 126.817 343.944 127.004C344.149 127.185 344.385 127.328 344.64 127.426C344.884 127.518 345.147 127.553 345.407 127.528C345.701 127.491 345.978 127.37 346.206 127.18C346.432 127.012 346.614 126.791 346.735 126.536M339.277 130.584C339.358 130.727 339.432 130.874 339.496 131.025C339.581 131.223 339.627 131.436 339.63 131.652C339.631 131.9 339.568 132.144 339.447 132.361C339.266 132.656 339.008 132.897 338.702 133.058C338.555 133.146 338.401 133.22 338.241 133.279C338.097 133.335 337.944 133.363 337.79 133.362C337.645 133.358 337.504 133.317 337.381 133.242C337.237 133.15 337.119 133.025 337.036 132.876C336.94 132.729 336.882 132.561 336.868 132.386C336.86 132.239 336.885 132.093 336.942 131.957C337.003 131.814 337.087 131.682 337.191 131.566C337.3 131.441 337.417 131.323 337.542 131.212C337.675 131.097 337.812 130.985 337.951 130.878C338.09 130.771 338.219 130.664 338.34 130.556C338.454 130.454 338.562 130.344 338.662 130.228C338.75 130.129 338.818 130.012 338.859 129.886L339.277 130.584ZM335.582 129.97C335.403 129.664 335.365 129.296 335.477 128.959C335.631 128.635 335.886 128.368 336.204 128.201C336.36 128.107 336.523 128.024 336.691 127.954C336.837 127.892 336.993 127.859 337.151 127.857C337.302 127.858 337.451 127.899 337.581 127.976C337.743 128.081 337.876 128.227 337.967 128.397C338.086 128.552 338.121 128.755 338.06 128.94C337.98 129.142 337.857 129.323 337.698 129.471C337.494 129.671 337.276 129.856 337.045 130.024C336.789 130.213 336.533 130.414 336.278 130.626C336.023 130.839 335.779 131.065 335.548 131.305C335.326 131.531 335.145 131.794 335.012 132.082C334.885 132.369 334.828 132.683 334.845 132.997C334.877 133.38 335.003 133.749 335.213 134.071C335.392 134.388 335.638 134.662 335.935 134.873C336.194 135.052 336.492 135.167 336.805 135.209C337.126 135.249 337.451 135.224 337.763 135.136C338.107 135.039 338.436 134.896 338.742 134.71C339.16 134.459 339.539 134.146 339.867 133.784C340.194 133.422 340.423 132.982 340.532 132.507C340.607 132.615 340.69 132.717 340.779 132.814C340.866 132.91 340.959 133.001 341.058 133.085L342.953 131.949C342.731 131.816 342.54 131.639 342.39 131.428C342.179 131.156 341.985 130.872 341.809 130.577L339.687 127.036C339.494 126.673 339.189 126.382 338.818 126.207C338.482 126.068 338.118 126.013 337.756 126.047C337.366 126.085 336.985 126.184 336.626 126.34C336.253 126.499 335.891 126.683 335.543 126.891C335.165 127.118 334.81 127.382 334.485 127.678C334.171 127.958 333.907 128.289 333.702 128.657C333.51 129.008 333.401 129.397 333.383 129.796C333.375 130.248 333.487 130.693 333.709 131.086L335.582 129.97ZM330.772 138.544L326.271 132.313L326.243 132.324L327.326 139.928L325.062 140.837L318.292 131.747L320.528 130.849L324.915 137.126L324.944 137.114L323.931 129.483L326.025 128.642L330.574 134.953L330.603 134.942L329.456 127.264L331.649 126.384L332.997 137.652L330.772 138.544Z" fill="#9FC422"/>
</g>
<defs>
<clipPath id="clip0_8996_109393">
<rect width="140" height="140" fill="white" transform="translate(230 5)"/>
</clipPath>
</defs>
</svg>
