<svg width="126" height="140" viewBox="0 0 126 140" fill="none" xmlns="http://www.w3.org/2000/svg">
<path fill-rule="evenodd" clip-rule="evenodd" d="M108.322 31.5426L112.169 23.9872C99.0086 7.18256 78.1925 -1.75194 56.9494 0.286564C35.7065 2.32507 16.9678 15.0553 7.24109 34.0563H15.927C25.6231 18.0816 42.7637 8.12371 61.4396 7.61561C80.1152 7.1075 97.7718 16.1187 108.322 31.5426ZM125.577 62.6503C125.581 55.1241 124.223 47.659 121.567 40.617L116.589 50.3893C122.242 75.0447 110.361 100.379 87.7934 111.791C65.2256 123.203 37.7868 117.752 21.2913 98.5791H11.6756C27.3449 120.981 55.7316 130.625 81.7984 122.403C107.865 114.181 125.587 89.9923 125.576 62.6513" fill="#278C37"/>
<path fill-rule="evenodd" clip-rule="evenodd" d="M125.351 26.1016H114.739L88.5562 76.8817L77.9528 56.4105C76.2562 59.7306 73.8236 64.4944 72.6846 66.7569L88.5848 97.4578L93.8806 87.1636L125.351 26.1016Z" fill="#A0C522"/>
<path fill-rule="evenodd" clip-rule="evenodd" d="M90.1228 26.1016H79.5102L53.3277 76.8818L45.0904 60.9769C44.9308 61.7347 44.7487 62.4888 44.5222 63.2333C43.7487 65.8145 42.4417 68.2043 40.6861 70.2483C40.3986 70.583 40.0723 70.8905 39.7588 71.2041L53.3548 97.4558L58.6507 87.1616L90.1228 26.1016Z" fill="#278C37"/>
<path fill-rule="evenodd" clip-rule="evenodd" d="M20.8723 64.1147C22.1748 64.1188 23.4752 64.0114 24.7595 63.7944C25.9304 63.6102 27.051 63.1871 28.0519 62.5522C29.0301 61.9019 29.8176 61.0029 30.3336 59.9474C31.4793 57.1201 31.4793 53.9582 30.3336 51.1308C29.8177 50.0751 29.0301 49.1758 28.0519 48.5251C27.0503 47.8913 25.93 47.4685 24.7595 47.2828C23.4751 47.0668 22.1747 46.9597 20.8723 46.9625H11.745V64.1147H20.8723ZM24.089 37.1836C27.0097 37.1039 29.9147 37.6365 32.6173 38.7471C34.8085 39.6787 36.7636 41.089 38.3392 42.8745C39.8072 44.5795 40.9029 46.5724 41.5559 48.7256C42.9028 53.1539 42.9028 57.8835 41.5559 62.3117C40.2439 66.8315 36.9579 70.5148 32.6173 72.3311C29.9146 73.4414 27.0096 73.9735 24.089 73.8937H11.745V94.413H0V37.1836H24.089Z" fill="#FBBA00"/>
<path fill-rule="evenodd" clip-rule="evenodd" d="M76.1488 136.942C76.9764 137.375 77.986 137.247 78.6801 136.621C78.9149 136.416 79.0724 136.136 79.1261 135.828L81.0125 135.479C80.949 136.33 80.589 137.131 79.9956 137.743C79.3936 138.287 78.6459 138.643 77.8444 138.767C77.2787 138.88 76.6971 138.884 76.1299 138.78C75.622 138.684 75.1417 138.477 74.7228 138.174C74.3039 137.864 73.9526 137.473 73.6907 137.023C73.4007 136.526 73.2022 135.981 73.104 135.414C72.9961 134.858 72.991 134.288 73.0892 133.731C73.2682 132.683 73.8743 131.757 74.7617 131.173C75.2348 130.861 75.7668 130.651 76.3248 130.555C76.9232 130.43 77.5431 130.451 78.1313 130.618C78.6566 130.775 79.1374 131.052 79.5368 131.428C79.9414 131.812 80.2677 132.271 80.4974 132.78C80.7439 133.32 80.9035 133.896 80.9695 134.487L75.3433 135.529C75.4225 136.085 75.711 136.59 76.1504 136.941M77.8121 132.387C77.4449 132.143 76.9907 132.068 76.5647 132.182C76.2695 132.227 75.9893 132.341 75.7463 132.514C75.5555 132.655 75.397 132.836 75.2824 133.045C75.1821 133.229 75.1187 133.432 75.0962 133.641C75.0763 133.818 75.0752 133.996 75.0931 134.173L78.5783 133.527C78.4336 133.084 78.1692 132.69 77.8137 132.389M68.1468 139.833L64.7884 132.147L67.0666 131.959L69.1789 137.222L69.2091 137.219L70.431 131.682L72.5874 131.504L70.5569 139.633L68.1468 139.833ZM64.278 132.052L64.3291 139.987L62.1502 140L62.0991 132.065L64.278 132.052ZM62.0914 130.837L62.0802 129.042L64.2591 129.028L64.2703 130.824L62.0914 130.837ZM55.6033 137.673C55.6826 137.845 55.7987 137.997 55.944 138.118C56.0949 138.241 56.2672 138.336 56.4519 138.398C56.6503 138.466 56.8565 138.509 57.0657 138.525C57.2278 138.538 57.3904 138.533 57.5516 138.511C57.7147 138.492 57.8738 138.449 58.0242 138.382C58.1664 138.318 58.2927 138.223 58.3935 138.104C58.5014 137.97 58.5638 137.805 58.5709 137.633C58.598 137.307 58.4016 137.045 57.9817 136.846C57.4073 136.59 56.815 136.376 56.21 136.207C55.8995 136.109 55.5977 136 55.3057 135.878C55.0285 135.765 54.7686 135.614 54.5339 135.429C54.316 135.256 54.139 135.036 54.0173 134.786C53.8894 134.505 53.8408 134.195 53.8761 133.888C53.8945 133.45 54.0331 133.025 54.2776 132.66C54.4965 132.356 54.7896 132.112 55.1287 131.953C55.4867 131.786 55.8698 131.683 56.2626 131.646C56.6826 131.603 57.1056 131.599 57.526 131.635C57.9444 131.668 58.3587 131.744 58.7622 131.86C59.1366 131.965 59.4901 132.134 59.8061 132.362C60.1074 132.583 60.355 132.869 60.5299 133.199C60.7237 133.585 60.8178 134.014 60.8046 134.446L58.7402 134.276C58.7786 133.928 58.6236 133.587 58.3362 133.388C58.0354 133.207 57.6953 133.102 57.3449 133.081C57.2119 133.071 57.0784 133.068 56.9455 133.071C56.8099 133.073 56.6759 133.096 56.5475 133.139C56.4278 133.179 56.3194 133.246 56.2309 133.336C56.1358 133.44 56.0811 133.575 56.0775 133.716C56.057 133.898 56.1215 134.079 56.2524 134.208C56.4064 134.356 56.5874 134.473 56.7859 134.552C57.0375 134.657 57.2948 134.748 57.5567 134.824C57.8472 134.909 58.1423 135 58.4426 135.097C58.7494 135.193 59.0512 135.306 59.3463 135.433C59.6241 135.552 59.8824 135.71 60.1135 135.905C60.3309 136.09 60.5053 136.32 60.625 136.579C60.7529 136.875 60.8005 137.201 60.7631 137.521C60.7335 138.396 60.2322 139.186 59.4537 139.585C59.0819 139.778 58.6778 139.899 58.262 139.944C57.8191 139.994 57.3725 140.001 56.9281 139.965C56.4759 139.928 56.0284 139.844 55.5936 139.715C55.1865 139.599 54.8029 139.411 54.4617 139.16C54.1375 138.918 53.8735 138.603 53.6909 138.242C53.4904 137.821 53.404 137.354 53.4403 136.889L55.5046 137.059C55.4821 137.269 55.5149 137.481 55.6003 137.673M47.2121 136.377C47.2718 136.557 47.3703 136.72 47.5005 136.857C47.6365 136.997 47.7968 137.111 47.9737 137.193C48.163 137.284 48.3628 137.35 48.5685 137.389C48.7281 137.42 48.8904 137.434 49.0529 137.43C49.2172 137.429 49.3805 137.404 49.5372 137.355C49.6858 137.307 49.8219 137.227 49.9357 137.12C50.0578 137 50.138 136.843 50.1648 136.673C50.2289 136.352 50.0634 136.068 49.6682 135.823C49.1263 135.505 48.5622 135.226 47.9803 134.988C47.6826 134.856 47.3953 134.714 47.1185 134.56C46.8558 134.417 46.6147 134.237 46.4024 134.026C46.2053 133.829 46.0549 133.591 45.962 133.329C45.8665 133.035 45.8529 132.722 45.9226 132.421C45.9904 131.987 46.1765 131.58 46.4607 131.245C46.7128 130.967 47.0314 130.758 47.3865 130.638C47.7607 130.514 48.1533 130.454 48.5475 130.461C48.9696 130.466 49.3903 130.51 49.8042 130.593C50.2163 130.674 50.6193 130.796 51.0072 130.957C51.3673 131.102 51.6993 131.31 51.9877 131.571C52.2619 131.824 52.4752 132.137 52.6122 132.485C52.7611 132.891 52.8066 133.327 52.7442 133.755L50.7121 133.352C50.7894 133.011 50.6738 132.655 50.4109 132.424C50.1322 132.211 49.8061 132.068 49.4605 132.009C49.3298 131.983 49.1978 131.965 49.0652 131.954C48.9303 131.94 48.7942 131.948 48.6616 131.976C48.5385 132.002 48.4233 132.057 48.3251 132.136C48.2188 132.228 48.1491 132.355 48.1286 132.494C48.088 132.673 48.1316 132.86 48.2468 133.003C48.3832 133.167 48.55 133.304 48.7383 133.405C48.976 133.538 49.2212 133.658 49.4728 133.763C49.7521 133.881 50.0353 134.004 50.3224 134.134C50.6162 134.265 50.9032 134.411 51.1822 134.571C51.4456 134.72 51.6849 134.907 51.8936 135.126C52.0895 135.335 52.2378 135.583 52.3279 135.854C52.4215 136.164 52.4322 136.492 52.3585 136.807C52.2302 137.672 51.643 138.4 50.8241 138.709C50.4331 138.858 50.0179 138.932 49.5996 138.928C49.154 138.928 48.7094 138.885 48.2724 138.798C47.8272 138.71 47.3924 138.577 46.9748 138.4C46.5832 138.239 46.2235 138.009 45.9129 137.72C45.6172 137.443 45.3897 137.101 45.248 136.721C45.0965 136.28 45.0633 135.806 45.1519 135.348L47.1839 135.751C47.1372 135.957 47.1458 136.172 47.209 136.374M39.0254 134.213C39.551 134.985 40.5017 135.349 41.4084 135.124C41.7123 135.053 41.983 134.88 42.1756 134.635L44.0036 135.216C43.547 135.936 42.8521 136.474 42.04 136.734C41.253 136.929 40.4259 136.89 39.6606 136.621C39.1087 136.455 38.5935 136.185 38.1426 135.825C37.7397 135.501 37.4134 135.092 37.1871 134.627C36.9637 134.156 36.8384 133.645 36.8189 133.125C36.7975 132.55 36.8791 131.976 37.0598 131.43C37.2263 130.889 37.4907 130.384 37.8398 129.938C38.491 129.099 39.4615 128.567 40.5194 128.471C41.0834 128.419 41.652 128.485 42.1894 128.664C42.7763 128.835 43.3127 129.147 43.7525 129.572C44.1416 129.957 44.4357 130.429 44.6112 130.948C44.7866 131.477 44.8578 132.036 44.8209 132.593C44.7842 133.186 44.6531 133.77 44.4327 134.322L38.9783 132.587C38.7859 133.115 38.8027 133.697 39.0254 134.213ZM42.6364 130.98C42.4283 130.592 42.0627 130.312 41.6334 130.213C41.3518 130.112 41.0503 130.08 40.7537 130.118C40.5186 130.153 40.2939 130.238 40.0949 130.368C39.9191 130.483 39.7677 130.632 39.6494 130.806C39.5486 130.952 39.4639 131.109 39.3967 131.273L42.7725 132.347C42.8535 131.888 42.8057 131.416 42.6344 130.983M35.4185 126.369L34.8364 127.722L34.8645 127.734C35.0569 127.548 35.2762 127.392 35.5151 127.271C35.755 127.148 36.0116 127.062 36.2767 127.015C36.5403 126.968 36.8092 126.957 37.0756 126.983C37.3453 127.01 37.609 127.079 37.8572 127.188C38.005 127.253 38.1428 127.339 38.2664 127.444L37.4659 129.305C37.38 129.246 37.2746 129.181 37.1488 129.11C37.0285 129.042 36.9045 128.98 36.7775 128.925C36.4616 128.778 36.1167 128.704 35.7683 128.708C35.4769 128.717 35.1923 128.799 34.9402 128.945C34.6851 129.097 34.464 129.301 34.2907 129.542C34.0934 129.814 33.928 130.107 33.7976 130.416L32.3849 133.702L30.383 132.84L33.5183 125.551L35.4185 126.369ZM28.0276 132.421C27.7394 132.741 27.379 132.986 26.9766 133.138C26.4884 133.311 25.9665 133.368 25.4524 133.306C24.7151 133.201 24.0077 132.944 23.3753 132.551C23.0275 132.352 22.7045 132.112 22.4127 131.838C22.1187 131.565 21.8698 131.248 21.6751 130.898C21.4882 130.561 21.3753 130.187 21.3442 129.802C21.3163 129.389 21.4008 128.977 21.5887 128.608L23.4704 129.676C23.3514 130.02 23.3888 130.398 23.5727 130.712C23.768 131.012 24.0351 131.258 24.3496 131.428C24.7719 131.719 25.3088 131.786 25.7899 131.61C26.2439 131.402 26.6121 131.044 26.8323 130.596L27.3469 129.688L27.3203 129.672C26.9225 129.918 26.4558 130.027 25.9904 129.984C25.5179 129.945 25.0597 129.802 24.6478 129.568C24.1813 129.318 23.7779 128.966 23.4683 128.537C23.2042 128.159 23.0338 127.724 22.9712 127.267C22.9117 126.795 22.9464 126.317 23.0735 125.859C23.2087 125.357 23.4083 124.874 23.6673 124.422C23.9137 123.986 24.2252 123.589 24.591 123.246C24.936 122.917 25.3389 122.654 25.7792 122.472C26.2087 122.297 26.6715 122.219 27.1346 122.244C27.6402 122.276 28.131 122.428 28.5667 122.686C28.9842 122.912 29.3438 123.23 29.6173 123.618C29.8745 124.018 30.0058 124.485 29.9943 124.961L30.0209 124.976L30.5431 124.055L32.345 125.078L28.6767 131.536C28.4906 131.852 28.2726 132.148 28.0261 132.42M26.7316 128.651C26.9887 128.661 27.2449 128.614 27.4809 128.511C27.7203 128.405 27.9388 128.257 28.1258 128.074C28.3248 127.88 28.4948 127.659 28.6307 127.417C28.7856 127.146 28.9123 126.86 29.0086 126.563C29.0962 126.297 29.1352 126.017 29.1237 125.737C29.1107 125.473 29.0319 125.216 28.8946 124.99C28.7262 124.73 28.4934 124.519 28.2189 124.376C27.9836 124.234 27.7154 124.154 27.4405 124.146C27.1893 124.144 26.941 124.199 26.7142 124.307C26.4744 124.422 26.2585 124.581 26.0779 124.776C25.882 124.985 25.712 125.218 25.5715 125.468C25.4302 125.716 25.314 125.979 25.2247 126.251C25.1368 126.509 25.0958 126.782 25.1035 127.055C25.1122 127.317 25.1811 127.574 25.3051 127.805C25.4521 128.062 25.6702 128.272 25.9331 128.408C26.1757 128.552 26.4498 128.635 26.7316 128.649M17.2897 117.927C18.175 117.349 19.2685 117.185 20.2839 117.48C20.8378 117.641 21.3558 117.906 21.8101 118.261C22.2766 118.604 22.6739 119.032 22.9814 119.523C23.5458 120.42 23.6877 121.52 23.3696 122.532C23.1955 123.094 22.9212 123.62 22.56 124.085C22.2127 124.557 21.7823 124.961 21.29 125.279C20.8494 125.561 20.3545 125.747 19.8374 125.825C19.3222 125.898 18.7973 125.858 18.2989 125.709C17.7452 125.541 17.2272 125.273 16.7711 124.917C16.3069 124.576 15.9102 124.152 15.6013 123.666C15.3257 123.227 15.1475 122.734 15.0786 122.22C15.0133 121.701 15.0581 121.174 15.2101 120.674C15.3819 120.113 15.6548 119.59 16.0151 119.128C16.364 118.654 16.7958 118.246 17.2897 117.927ZM17.2652 121.239C17.1362 121.502 17.0549 121.786 17.0253 122.078C16.9979 122.355 17.0402 122.636 17.1485 122.893C17.2818 123.185 17.4905 123.436 17.7531 123.62C18.0038 123.824 18.3037 123.958 18.6226 124.01C18.9013 124.047 19.185 124.014 19.4471 123.912C19.7196 123.804 19.9707 123.648 20.1888 123.452C20.4226 123.246 20.6349 123.016 20.8225 122.767C21.0126 122.517 21.1775 122.248 21.3145 121.965C21.445 121.703 21.5263 121.419 21.5544 121.127C21.5776 120.848 21.5332 120.567 21.425 120.308C21.2932 120.012 21.0838 119.757 20.8189 119.571C20.3493 119.176 19.7018 119.07 19.131 119.294C18.8575 119.401 18.606 119.557 18.3894 119.755C18.1542 119.964 17.9402 120.195 17.7506 120.445C17.562 120.694 17.3989 120.961 17.2636 121.242M16.0596 113.782L15.0627 114.867L15.0853 114.888C15.3285 114.776 15.5871 114.701 15.8525 114.666C16.1195 114.629 16.3905 114.632 16.6565 114.676C16.9207 114.718 17.1778 114.797 17.4206 114.91C17.6663 115.024 17.8925 115.176 18.0912 115.36C18.2081 115.471 18.3085 115.599 18.3894 115.738L17.0181 117.229C16.9567 117.145 16.8785 117.049 16.7834 116.941C16.6924 116.836 16.5959 116.737 16.4944 116.643C16.245 116.399 15.944 116.215 15.6136 116.104C15.3357 116.016 15.0402 115.998 14.7538 116.053C14.4626 116.113 14.1868 116.232 13.9431 116.402C13.6672 116.593 13.414 116.815 13.1887 117.064L10.7684 119.696L9.16492 118.22L14.5354 112.38L16.0596 113.782ZM13.7498 107.174C14.1551 107.613 14.4705 108.126 14.6781 108.686C14.8394 109.136 14.9007 109.615 14.8576 110.09C14.8118 110.527 14.6722 110.948 14.4485 111.326C13.9952 112.09 13.3101 112.691 12.4926 113.041C12.0882 113.216 11.6503 113.3 11.2098 113.288C10.7328 113.269 10.2659 113.145 9.8416 112.926C9.31355 112.647 8.84524 112.267 8.46317 111.808L6.79423 109.904L3.84046 112.494L2.25488 110.682L10.4932 103.457L13.7498 107.174ZM9.43805 110.077C9.61369 110.279 9.80503 110.466 10.0104 110.637C10.1935 110.793 10.4052 110.913 10.6339 110.988C10.8557 111.056 11.0918 111.065 11.3177 111.011C11.8787 110.833 12.3394 110.428 12.5882 109.894C12.6707 109.677 12.6937 109.442 12.6547 109.213C12.6099 108.976 12.5196 108.75 12.3888 108.548C12.2458 108.322 12.0852 108.108 11.9085 107.907L10.6748 106.499L8.20539 108.664L9.43805 110.077Z" fill="#FBBA00"/>
<path fill-rule="evenodd" clip-rule="evenodd" d="M121.12 110.463C121.307 110.493 121.498 110.48 121.679 110.427C121.866 110.37 122.04 110.28 122.194 110.161C122.361 110.034 122.512 109.886 122.641 109.722C122.742 109.595 122.829 109.458 122.9 109.312C122.974 109.165 123.026 109.009 123.054 108.847C123.08 108.693 123.071 108.536 123.029 108.386C122.951 108.129 122.748 107.93 122.49 107.858C122.231 107.785 121.954 107.849 121.754 108.028C121.222 108.364 120.715 108.737 120.238 109.145C119.984 109.35 119.726 109.54 119.462 109.714C119.214 109.882 118.944 110.014 118.66 110.106C118.395 110.191 118.114 110.216 117.838 110.178C117.534 110.128 117.249 109.996 117.014 109.797C116.659 109.537 116.383 109.185 116.215 108.779C116.084 108.427 116.045 108.048 116.101 107.678C116.162 107.288 116.289 106.912 116.477 106.565C116.675 106.192 116.907 105.838 117.17 105.508C117.431 105.179 117.724 104.876 118.045 104.605C118.34 104.352 118.678 104.153 119.042 104.016C119.394 103.889 119.769 103.842 120.141 103.88C120.569 103.934 120.978 104.095 121.33 104.346L120.04 105.968C119.772 105.742 119.402 105.682 119.077 105.81C118.76 105.96 118.484 106.184 118.272 106.464C118.19 106.569 118.113 106.678 118.042 106.791C117.969 106.904 117.913 107.028 117.877 107.159C117.843 107.28 117.839 107.408 117.864 107.531C117.898 107.668 117.979 107.789 118.094 107.871C118.235 107.989 118.421 108.037 118.6 107.999C118.809 107.954 119.007 107.868 119.183 107.747C119.41 107.597 119.629 107.433 119.837 107.257C120.07 107.064 120.31 106.869 120.557 106.673C120.807 106.472 121.068 106.284 121.339 106.11C121.591 105.945 121.867 105.817 122.157 105.733C122.432 105.655 122.721 105.637 123.003 105.682C123.321 105.74 123.617 105.882 123.863 106.091C124.573 106.602 124.951 107.458 124.85 108.327C124.802 108.742 124.677 109.145 124.482 109.515C124.278 109.912 124.036 110.287 123.758 110.636C123.476 110.992 123.158 111.318 122.809 111.608C122.486 111.882 122.117 112.097 121.718 112.24C121.336 112.375 120.929 112.419 120.527 112.371C120.065 112.303 119.629 112.115 119.263 111.826L120.553 110.205C120.714 110.341 120.908 110.432 121.116 110.468M115.395 116.764C116.324 116.657 117.088 115.984 117.31 115.076C117.389 114.773 117.362 114.454 117.234 114.169L118.598 112.821C119.023 113.56 119.176 114.425 119.028 115.265C118.836 116.053 118.416 116.767 117.822 117.32C117.418 117.731 116.94 118.061 116.412 118.292C115.938 118.498 115.424 118.597 114.907 118.582C114.387 118.561 113.876 118.434 113.407 118.209C112.888 117.96 112.418 117.621 112.018 117.207C111.617 116.808 111.293 116.339 111.061 115.823C110.622 114.856 110.603 113.749 111.01 112.767C111.227 112.244 111.549 111.772 111.957 111.379C112.381 110.939 112.907 110.608 113.487 110.416C114.009 110.251 114.563 110.21 115.104 110.296C115.655 110.387 116.183 110.583 116.658 110.875C117.166 111.183 117.621 111.571 118.008 112.022L113.94 116.046C114.317 116.462 114.839 116.719 115.4 116.762M114.219 112.061C113.777 112.064 113.359 112.257 113.07 112.591C112.85 112.794 112.682 113.046 112.578 113.327C112.499 113.551 112.47 113.79 112.492 114.026C112.513 114.235 112.574 114.438 112.673 114.624C112.756 114.782 112.855 114.93 112.969 115.066L115.49 112.573C115.122 112.288 114.681 112.111 114.219 112.062M113.713 121.791C113.898 122.18 113.987 122.608 113.972 123.038C113.944 123.556 113.797 124.06 113.54 124.51C113.16 125.151 112.651 125.705 112.045 126.137C111.728 126.382 111.382 126.588 111.016 126.751C110.652 126.918 110.264 127.026 109.866 127.071C109.482 127.114 109.094 127.074 108.727 126.955C108.336 126.822 107.988 126.585 107.72 126.27L109.429 124.943C109.7 125.186 110.063 125.298 110.424 125.25C110.775 125.184 111.104 125.032 111.382 124.807C111.812 124.528 112.081 124.059 112.104 123.547C112.086 123.048 111.897 122.57 111.569 122.194L110.929 121.37L110.905 121.388C110.978 121.851 110.899 122.325 110.68 122.739C110.461 123.16 110.154 123.528 109.778 123.817C109.369 124.153 108.888 124.39 108.373 124.51C107.923 124.608 107.456 124.598 107.01 124.48C106.552 124.354 106.124 124.139 105.751 123.846C105.339 123.528 104.97 123.158 104.653 122.745C104.344 122.349 104.097 121.909 103.921 121.439C103.751 120.993 103.664 120.521 103.665 120.044C103.669 119.58 103.775 119.123 103.976 118.705C104.2 118.25 104.53 117.855 104.936 117.552C105.304 117.252 105.737 117.042 106.2 116.938C106.668 116.854 107.149 116.913 107.584 117.107L107.608 117.088L106.958 116.251L108.595 114.98L113.147 120.848C113.366 121.142 113.555 121.457 113.71 121.789M109.734 121.533C109.843 121.3 109.897 121.045 109.893 120.788C109.889 120.526 109.837 120.267 109.74 120.024C109.638 119.767 109.499 119.526 109.328 119.308C109.137 119.06 108.923 118.833 108.686 118.63C108.475 118.447 108.232 118.304 107.97 118.207C107.721 118.117 107.453 118.09 107.192 118.13C106.888 118.186 106.604 118.32 106.366 118.518C106.144 118.681 105.968 118.898 105.855 119.148C105.756 119.38 105.712 119.63 105.724 119.882C105.738 120.147 105.801 120.408 105.912 120.649C106.029 120.911 106.178 121.157 106.355 121.383C106.531 121.609 106.728 121.817 106.944 122.004C107.149 122.185 107.385 122.328 107.64 122.426C107.884 122.518 108.147 122.553 108.407 122.528C108.701 122.491 108.978 122.37 109.206 122.18C109.432 122.012 109.614 121.791 109.735 121.536M102.277 125.584C102.358 125.727 102.432 125.874 102.496 126.025C102.581 126.223 102.627 126.436 102.63 126.652C102.631 126.9 102.568 127.144 102.447 127.361C102.266 127.656 102.008 127.897 101.702 128.058C101.555 128.146 101.401 128.22 101.241 128.279C101.097 128.335 100.944 128.363 100.79 128.362C100.645 128.358 100.504 128.317 100.381 128.242C100.237 128.15 100.119 128.025 100.036 127.876C99.9401 127.729 99.8823 127.561 99.868 127.386C99.8603 127.239 99.8854 127.093 99.9417 126.957C100.003 126.814 100.087 126.682 100.191 126.566C100.3 126.441 100.417 126.323 100.542 126.212C100.675 126.097 100.812 125.985 100.951 125.878C101.09 125.771 101.219 125.664 101.34 125.556C101.454 125.454 101.562 125.344 101.662 125.228C101.75 125.129 101.818 125.012 101.859 124.886L102.277 125.584ZM98.5822 124.97C98.4032 124.664 98.3648 124.296 98.4773 123.959C98.6308 123.635 98.886 123.368 99.2041 123.201C99.3601 123.107 99.5228 123.024 99.691 122.954C99.8368 122.892 99.9928 122.859 100.151 122.857C100.302 122.858 100.451 122.899 100.581 122.976C100.743 123.081 100.876 123.227 100.967 123.397C101.086 123.552 101.121 123.755 101.06 123.94C100.98 124.142 100.857 124.323 100.698 124.471C100.494 124.671 100.276 124.856 100.045 125.024C99.7887 125.213 99.533 125.414 99.2778 125.626C99.0226 125.839 98.7791 126.065 98.5484 126.305C98.3264 126.531 98.1449 126.794 98.0124 127.082C97.885 127.369 97.8277 127.683 97.8451 127.997C97.8768 128.38 98.0032 128.749 98.2129 129.071C98.3919 129.388 98.6384 129.662 98.9351 129.873C99.1944 130.052 99.4921 130.167 99.8046 130.209C100.126 130.249 100.451 130.224 100.763 130.136C101.107 130.039 101.436 129.896 101.742 129.71C102.16 129.459 102.539 129.146 102.867 128.784C103.194 128.422 103.423 127.982 103.532 127.507C103.607 127.615 103.69 127.717 103.779 127.814C103.866 127.91 103.959 128.001 104.058 128.085L105.953 126.949C105.731 126.816 105.54 126.639 105.39 126.428C105.179 126.156 104.985 125.872 104.809 125.577L102.687 122.036C102.494 121.673 102.189 121.382 101.818 121.207C101.482 121.068 101.118 121.013 100.756 121.047C100.366 121.085 99.9846 121.184 99.6256 121.34C99.2527 121.499 98.8906 121.683 98.5428 121.891C98.1648 122.118 97.8103 122.382 97.4845 122.678C97.171 122.958 96.9066 123.289 96.7025 123.657C96.5102 124.008 96.4012 124.397 96.3833 124.796C96.3746 125.248 96.4872 125.693 96.7091 126.086L98.5822 124.97ZM93.7722 133.544L89.2713 127.313L89.2426 127.324L90.3264 134.928L88.0621 135.837L81.2922 126.747L83.5279 125.849L87.9153 132.126L87.944 132.114L86.9313 124.483L89.0247 123.642L93.5743 129.953L93.603 129.942L92.4562 122.264L94.6494 121.384L95.9967 132.652L93.7722 133.544Z" fill="#9FC422"/>
</svg>
