<svg width="165" height="140" viewBox="0 0 165 140" fill="none" xmlns="http://www.w3.org/2000/svg">
<path fill-rule="evenodd" clip-rule="evenodd" d="M108.492 31.5706L112.348 24.0086C99.1717 7.18859 78.3296 -1.75389 57.061 0.286953C35.7918 2.3278 17.0306 15.0704 7.29297 34.0891H15.9893C25.697 18.1003 42.8581 8.1336 61.5561 7.62505C80.2545 7.11654 97.9319 16.1357 108.494 31.5732M125.77 62.7083C125.775 55.1754 124.415 47.7038 121.756 40.6556L116.772 50.4366C122.432 75.1142 110.535 100.471 87.94 111.892C65.344 123.314 37.8721 117.857 21.3575 98.6662H11.7302C27.4183 121.088 55.8391 130.74 81.9373 122.511C108.035 114.281 125.778 90.0718 125.767 62.7067" fill="#278C37"/>
<path fill-rule="evenodd" clip-rule="evenodd" d="M125.531 26.1309H114.905L88.6915 76.9558L78.0753 56.4666C76.3767 59.7895 73.9412 64.5576 72.8008 66.8221L88.7201 97.55L94.0223 87.2468L125.531 26.1309Z" fill="#A0C522"/>
<path fill-rule="evenodd" clip-rule="evenodd" d="M90.2702 26.1309H79.6448L53.4309 76.9558L45.1837 61.037C45.024 61.7954 44.8417 62.5502 44.6148 63.2953C43.8404 65.8788 42.5319 68.2707 40.7741 70.3165C40.4863 70.6515 40.1596 70.9592 39.8457 71.2731L53.4591 97.548L58.7613 87.2447L90.2702 26.1309Z" fill="#278C37"/>
<path fill-rule="evenodd" clip-rule="evenodd" d="M164.232 50.2537C164.232 49.8403 163.896 49.5051 163.483 49.5051H152.738C152.324 49.5051 151.99 49.1702 151.989 48.7569V37.9518C151.989 37.5385 151.654 37.2034 151.241 37.2031H145.101C144.688 37.2034 144.353 37.5384 144.353 37.9518V48.7569C144.353 49.1701 144.018 49.5051 143.605 49.5051H132.799C132.386 49.5054 132.051 49.8404 132.051 50.2537V56.4536C132.051 56.8669 132.386 57.2018 132.799 57.2023H143.605C144.018 57.2023 144.353 57.5372 144.353 57.9505V68.6972C144.353 69.1104 144.688 69.4453 145.101 69.4453H151.241C151.654 69.4453 151.989 69.1104 151.989 68.6972V57.9505C151.99 57.5372 152.324 57.2023 152.738 57.2023H163.483C163.896 57.2023 164.232 56.8669 164.232 56.4536V50.2537Z" fill="#FBBA00"/>
<path fill-rule="evenodd" clip-rule="evenodd" d="M20.8974 64.1658C22.2014 64.1699 23.5034 64.0624 24.7893 63.8452C25.9615 63.6609 27.0835 63.2374 28.0856 62.6019C29.065 61.951 29.8534 61.0513 30.37 59.9948C31.5171 57.165 31.5171 54.0003 30.37 51.1705C29.8535 50.1138 29.065 49.2137 28.0856 48.5624C27.0828 47.928 25.9612 47.5049 24.7893 47.3191C23.5033 47.1029 22.2014 46.9956 20.8974 46.9985H11.7591V64.1658H20.8974ZM24.1179 37.2109C27.0421 37.1312 29.9506 37.6643 32.6565 38.7759C34.8503 39.7083 36.8078 41.1198 38.3853 42.9069C39.855 44.6133 40.9519 46.608 41.6058 48.7632C42.9543 53.1953 42.9543 57.9291 41.6058 62.3612C40.2922 66.885 37.0023 70.5715 32.6565 72.3895C29.9505 73.5007 27.042 74.0333 24.1179 73.9534H11.7591V94.4907H0V37.2109H24.1179Z" fill="#FBBA00"/>
<path fill-rule="evenodd" clip-rule="evenodd" d="M76.2334 136.938C77.062 137.371 78.0728 137.243 78.7677 136.618C79.0028 136.412 79.1605 136.132 79.2143 135.824L81.1029 135.475C81.0394 136.326 80.6788 137.128 80.0848 137.741C79.4821 138.285 78.7334 138.641 77.931 138.765C77.3646 138.878 76.7823 138.882 76.2144 138.778C75.7059 138.682 75.2251 138.474 74.8057 138.171C74.3863 137.861 74.0345 137.47 73.7723 137.019C73.4819 136.522 73.2832 135.976 73.1849 135.409C73.0769 134.853 73.0717 134.282 73.1701 133.724C73.3493 132.675 73.9556 131.748 74.8446 131.164C75.3183 130.852 75.8509 130.641 76.4095 130.546C77.0087 130.42 77.6293 130.442 78.2182 130.609C78.7437 130.766 79.2255 131.043 79.6255 131.419C80.0305 131.804 80.3573 132.263 80.5872 132.772C80.834 133.313 80.9938 133.89 81.0598 134.482L75.4268 135.524C75.5062 136.081 75.795 136.586 76.2349 136.937M77.8987 132.379C77.531 132.135 77.0763 132.06 76.6497 132.175C76.3542 132.219 76.0736 132.333 75.8304 132.506C75.6394 132.648 75.4806 132.829 75.3659 133.037C75.2655 133.222 75.202 133.425 75.1795 133.635C75.1595 133.811 75.1585 133.989 75.1764 134.167L78.6658 133.52C78.5209 133.077 78.2561 132.683 77.9002 132.381M68.2217 139.831L64.8594 132.139L67.1402 131.951L69.2551 137.218L69.2853 137.216L70.5087 131.674L72.6677 131.496L70.6383 139.632L68.2217 139.831ZM64.3483 132.044L64.3995 139.986L62.218 139.999L62.1668 132.057L64.3483 132.044ZM62.1591 130.828L62.1478 129.031L64.3293 129.017L64.3406 130.815L62.1591 130.828ZM55.6597 137.67C55.739 137.841 55.8553 137.993 56.0007 138.114C56.1518 138.238 56.3238 138.333 56.5092 138.395C56.7079 138.463 56.9143 138.506 57.1237 138.522C57.2861 138.535 57.4489 138.531 57.6102 138.509C57.7736 138.489 57.9328 138.446 58.0834 138.379C58.2257 138.315 58.3522 138.22 58.4531 138.101C58.5612 137.966 58.6231 137.801 58.6308 137.629C58.6579 137.303 58.4613 137.041 58.0409 136.841C57.4658 136.586 56.8728 136.372 56.267 136.202C55.9562 136.104 55.6545 135.995 55.3616 135.872C55.0841 135.76 54.8239 135.609 54.5889 135.423C54.3707 135.25 54.1935 135.03 54.0717 134.78C53.9436 134.498 53.895 134.188 53.9303 133.881C53.9488 133.443 54.0875 133.018 54.3323 132.652C54.5515 132.348 54.8449 132.104 55.1844 131.944C55.5424 131.778 55.9265 131.674 56.3197 131.637C56.7402 131.594 57.1637 131.59 57.5846 131.626C58.0035 131.659 58.4183 131.735 58.8223 131.851C59.1972 131.956 59.551 132.126 59.8675 132.353C60.1691 132.575 60.417 132.861 60.5921 133.192C60.7862 133.578 60.8804 134.007 60.8671 134.44L58.8003 134.269C58.8387 133.921 58.6835 133.58 58.3958 133.381C58.0946 133.2 57.7541 133.094 57.4033 133.073C57.2702 133.063 57.1365 133.06 57.0034 133.064C56.8677 133.066 56.7335 133.089 56.605 133.131C56.4851 133.171 56.3766 133.239 56.288 133.328C56.1927 133.432 56.1379 133.568 56.1344 133.709C56.1139 133.891 56.1784 134.072 56.3095 134.201C56.4636 134.349 56.6449 134.466 56.8436 134.546C57.0956 134.651 57.3531 134.742 57.6153 134.818C57.9062 134.903 58.2017 134.994 58.5023 135.091C58.8095 135.187 59.1117 135.3 59.4071 135.427C59.6852 135.546 59.9438 135.705 60.1753 135.9C60.3934 136.084 60.5691 136.314 60.6899 136.574C60.8179 136.871 60.8656 137.197 60.8282 137.518C60.7985 138.393 60.2966 139.184 59.5172 139.584C59.1449 139.776 58.7404 139.897 58.3241 139.942C57.8806 139.993 57.4335 140 56.9885 139.963C56.5358 139.927 56.0878 139.843 55.6525 139.714C55.2449 139.597 54.8608 139.409 54.5192 139.158C54.1946 138.915 53.9303 138.6 53.7475 138.239C53.5468 137.817 53.4602 137.35 53.4966 136.885L55.5634 137.055C55.5408 137.265 55.5736 137.477 55.6591 137.67M47.2609 136.373C47.3203 136.552 47.4189 136.716 47.5497 136.853C47.6858 136.993 47.8463 137.107 48.0234 137.19C48.2129 137.28 48.413 137.346 48.6189 137.386C48.7787 137.416 48.9412 137.43 49.1039 137.427C49.2684 137.426 49.4319 137.4 49.5888 137.351C49.7376 137.303 49.8739 137.223 49.9877 137.116C50.11 136.995 50.1903 136.839 50.2172 136.669C50.2813 136.347 50.1156 136.063 49.7199 135.818C49.1774 135.5 48.6126 135.22 48.03 134.982C47.732 134.85 47.4443 134.707 47.1672 134.553C46.9041 134.41 46.6627 134.231 46.4502 134.02C46.2529 133.823 46.1023 133.584 46.0093 133.321C45.9137 133.028 45.9 132.714 45.9699 132.413C46.0377 131.978 46.2241 131.571 46.5086 131.235C46.761 130.957 47.0799 130.748 47.4355 130.628C47.8101 130.504 48.2032 130.444 48.5979 130.451C49.0205 130.456 49.4417 130.5 49.8561 130.583C50.2687 130.664 50.6721 130.786 51.0606 130.947C51.4211 131.093 51.7534 131.301 52.0422 131.562C52.3167 131.816 52.5303 132.129 52.6675 132.477C52.8165 132.883 52.8621 133.32 52.7996 133.748L50.7651 133.345C50.8425 133.003 50.7267 132.647 50.4635 132.416C50.1846 132.203 49.8584 132.06 49.5125 132.001C49.3815 131.975 49.2492 131.956 49.1162 131.945C48.9811 131.932 48.8449 131.94 48.7121 131.967C48.5889 131.994 48.4735 132.049 48.3752 132.127C48.2688 132.22 48.199 132.347 48.1785 132.486C48.1378 132.665 48.1814 132.853 48.2968 132.995C48.4333 133.16 48.6004 133.297 48.7889 133.397C49.0269 133.531 49.2724 133.651 49.5243 133.756C49.8039 133.874 50.0874 133.998 50.3749 134.128C50.6691 134.258 50.9564 134.404 51.2357 134.565C51.4994 134.714 51.7391 134.901 51.948 135.121C52.1442 135.329 52.2927 135.577 52.3828 135.849C52.4765 136.159 52.4873 136.487 52.4135 136.802C52.285 137.669 51.6971 138.398 50.8772 138.706C50.4858 138.855 50.07 138.93 49.6513 138.926C49.2042 138.927 48.7583 138.883 48.3199 138.795C47.8742 138.708 47.4388 138.574 47.0207 138.397C46.6286 138.236 46.2686 138.005 45.9576 137.717C45.6616 137.439 45.4337 137.097 45.2919 136.716C45.1402 136.275 45.107 135.801 45.1956 135.342L47.2301 135.745C47.1833 135.952 47.192 136.167 47.2552 136.369M39.0618 134.206C39.5881 134.979 40.5399 135.343 41.4476 135.118C41.752 135.047 42.023 134.874 42.2158 134.629L44.046 135.21C43.5889 135.931 42.8931 136.469 42.0801 136.729C41.292 136.925 40.4639 136.886 39.6978 136.617C39.1452 136.45 38.6293 136.18 38.1779 135.82C37.7745 135.496 37.4479 135.086 37.2213 134.621C36.9977 134.15 36.8722 133.638 36.8526 133.117C36.8312 132.542 36.9129 131.967 37.0938 131.421C37.2605 130.88 37.5252 130.374 37.8748 129.928C38.5267 129.088 39.4983 128.556 40.5576 128.459C41.1223 128.408 41.6915 128.474 42.2296 128.652C42.8172 128.824 43.3543 129.136 43.7945 129.561C44.1842 129.947 44.4785 130.419 44.6543 130.938C44.8299 131.468 44.9012 132.028 44.8643 132.585C44.8275 133.179 44.6962 133.763 44.4756 134.315L39.0147 132.579C38.822 133.108 38.8389 133.69 39.0618 134.206ZM42.6771 130.971C42.4688 130.582 42.1028 130.302 41.6729 130.203C41.391 130.102 41.0891 130.069 40.7921 130.108C40.5568 130.143 40.3318 130.228 40.1326 130.358C39.9566 130.473 39.805 130.622 39.6865 130.796C39.5857 130.943 39.5008 131.099 39.4336 131.264L42.8134 132.339C42.8945 131.88 42.8466 131.407 42.6751 130.973M35.4526 126.356L34.8698 127.71L34.898 127.723C35.0906 127.536 35.3102 127.379 35.5494 127.259C35.7895 127.136 36.0465 127.05 36.3119 127.003C36.5758 126.955 36.845 126.945 37.1118 126.971C37.3817 126.997 37.6458 127.067 37.8942 127.176C38.0423 127.241 38.1803 127.327 38.3039 127.432L37.5025 129.295C37.4164 129.235 37.311 129.17 37.185 129.1C37.0645 129.031 36.9404 128.969 36.8132 128.914C36.4969 128.767 36.1517 128.693 35.8028 128.697C35.5111 128.706 35.2262 128.788 34.9738 128.934C34.7183 129.087 34.497 129.291 34.3234 129.532C34.126 129.804 33.9604 130.098 33.8298 130.407L32.4154 133.695L30.4111 132.833L33.5502 125.537L35.4526 126.356ZM28.0529 132.414C27.7643 132.733 27.4035 132.979 27.0005 133.131C26.5118 133.304 25.9894 133.362 25.4745 133.299C24.7364 133.194 24.0281 132.937 23.3949 132.543C23.0468 132.344 22.7236 132.104 22.4317 131.829C22.1371 131.557 21.8877 131.24 21.6927 130.889C21.5056 130.551 21.3926 130.177 21.3614 129.792C21.3335 129.379 21.4181 128.966 21.6062 128.597L23.4902 129.666C23.371 130.01 23.4085 130.389 23.5926 130.703C23.788 131.003 24.0555 131.249 24.3704 131.42C24.7933 131.711 25.3308 131.778 25.8125 131.602C26.267 131.394 26.6356 131.035 26.8561 130.587L27.3713 129.678L27.3447 129.662C26.9465 129.908 26.4792 130.018 26.0132 129.975C25.5402 129.935 25.0814 129.792 24.669 129.557C24.2019 129.308 23.7979 128.955 23.4881 128.525C23.2237 128.148 23.0531 127.712 22.9904 127.254C22.9308 126.783 22.9656 126.304 23.0928 125.846C23.2259 125.344 23.4232 124.861 23.6796 124.41C23.9263 123.972 24.2382 123.576 24.6045 123.232C24.9499 122.903 25.3531 122.64 25.7941 122.458C26.2241 122.283 26.6874 122.205 27.1511 122.229C27.6573 122.262 28.1486 122.414 28.5849 122.672C29.0029 122.898 29.3629 123.217 29.6368 123.605C29.8943 124.005 30.0257 124.473 30.0142 124.949L30.0408 124.964L30.5637 124.042L32.3678 125.066L28.7043 131.528C28.518 131.844 28.2997 132.14 28.0529 132.412M26.7568 128.64C27.0142 128.65 27.2707 128.603 27.507 128.5C27.7466 128.394 27.9654 128.246 28.1527 128.063C28.3519 127.868 28.5221 127.647 28.6582 127.404C28.8133 127.134 28.9402 126.847 29.0366 126.55C29.1243 126.284 29.1633 126.004 29.1518 125.724C29.1388 125.459 29.0599 125.202 28.9224 124.976C28.7538 124.716 28.5207 124.504 28.2459 124.361C28.0103 124.219 27.7418 124.139 27.4665 124.131C27.215 124.129 26.9664 124.184 26.7394 124.293C26.4994 124.407 26.2832 124.566 26.1023 124.762C25.9062 124.971 25.736 125.204 25.5954 125.454C25.4538 125.703 25.3375 125.966 25.2482 126.237C25.1601 126.497 25.119 126.77 25.1268 127.043C25.1354 127.305 25.2045 127.562 25.3286 127.793C25.4758 128.051 25.6941 128.26 25.9574 128.397C26.2002 128.541 26.4747 128.624 26.7568 128.638M17.3036 117.906C18.1899 117.328 19.2847 117.164 20.3014 117.459C20.8559 117.62 21.3746 117.885 21.8294 118.241C22.2964 118.584 22.6943 119.013 23.0021 119.504C23.5672 120.402 23.7093 121.503 23.3908 122.516C23.2162 123.078 22.9416 123.605 22.5802 124.07C22.2325 124.542 21.8016 124.947 21.3087 125.265C20.8676 125.547 20.3721 125.734 19.8543 125.811C19.3385 125.884 18.813 125.845 18.3139 125.695C17.7596 125.528 17.241 125.259 16.7843 124.903C16.3195 124.562 15.9224 124.137 15.6132 123.65C15.3373 123.211 15.1588 122.718 15.0898 122.204C15.0244 121.684 15.0693 121.156 15.2214 120.656C15.3935 120.095 15.6667 119.571 16.0275 119.108C16.3768 118.634 16.8091 118.226 17.3036 117.906ZM17.279 121.222C17.1499 121.485 17.0685 121.769 17.0388 122.061C17.0113 122.339 17.0538 122.62 17.1623 122.877C17.2957 123.169 17.5046 123.42 17.7675 123.605C18.0185 123.809 18.3188 123.943 18.6381 123.994C18.917 124.032 19.2011 123.999 19.4636 123.897C19.7364 123.789 19.9878 123.632 20.2061 123.436C20.4402 123.23 20.6528 123.001 20.8406 122.751C21.031 122.501 21.196 122.231 21.3332 121.948C21.4639 121.685 21.5453 121.401 21.5734 121.109C21.5965 120.83 21.5521 120.549 21.4438 120.29C21.3119 119.994 21.1022 119.739 20.837 119.552C20.3669 119.157 19.7186 119.051 19.1471 119.275C18.8733 119.382 18.6215 119.538 18.4046 119.736C18.1691 119.945 17.9548 120.176 17.765 120.427C17.5762 120.676 17.4129 120.943 17.2775 121.224M16.072 113.758L15.074 114.844L15.0965 114.864C15.34 114.752 15.5989 114.678 15.8646 114.642C16.132 114.606 16.4033 114.609 16.6696 114.652C16.9341 114.695 17.1916 114.774 17.4347 114.886C17.6805 115.001 17.9071 115.153 18.106 115.337C18.2231 115.449 18.3236 115.576 18.4046 115.716L17.0317 117.208C16.9702 117.124 16.8919 117.028 16.7966 116.919C16.7055 116.815 16.6089 116.716 16.5073 116.621C16.2576 116.378 15.9562 116.193 15.6255 116.082C15.3473 115.994 15.0514 115.976 14.7647 116.031C14.4731 116.091 14.1969 116.21 13.953 116.38C13.6767 116.571 13.4232 116.793 13.1977 117.042L10.7744 119.677L9.16904 118.2L14.546 112.354L16.072 113.758ZM13.7594 107.144C14.1653 107.583 14.481 108.097 14.6889 108.658C14.8504 109.108 14.9117 109.587 14.8686 110.063C14.8229 110.5 14.6832 110.922 14.4589 111.299C14.0055 112.065 13.3197 112.667 12.5012 113.016C12.0964 113.191 11.658 113.276 11.2169 113.264C10.7394 113.244 10.2719 113.121 9.84705 112.902C9.31745 112.623 8.84771 112.242 8.46441 111.782L6.79346 109.876L3.83613 112.469L2.24609 110.655L10.4943 103.424L13.7594 107.144ZM9.4425 110.05C9.6183 110.252 9.80993 110.439 10.0155 110.61C10.199 110.767 10.4112 110.886 10.6403 110.961C10.8622 111.03 11.0984 111.038 11.3244 110.984C11.886 110.806 12.3474 110.401 12.5965 109.866C12.6791 109.649 12.7021 109.414 12.663 109.185C12.6182 108.948 12.5277 108.722 12.3967 108.519C12.2536 108.293 12.0928 108.079 11.9159 107.878L10.6807 106.469L8.20836 108.636L9.4425 110.05Z" fill="#FBBA00"/>
<path fill-rule="evenodd" clip-rule="evenodd" d="M121.254 110.666C121.441 110.695 121.632 110.683 121.814 110.629C122 110.573 122.175 110.482 122.33 110.363C122.497 110.236 122.647 110.089 122.777 109.924C122.878 109.797 122.965 109.66 123.036 109.514C123.111 109.367 123.162 109.21 123.19 109.048C123.216 108.894 123.207 108.737 123.165 108.587C123.087 108.33 122.884 108.131 122.625 108.058C122.367 107.986 122.089 108.05 121.889 108.229C121.356 108.565 120.849 108.938 120.37 109.347C120.117 109.552 119.858 109.742 119.594 109.917C119.346 110.085 119.075 110.217 118.791 110.309C118.525 110.394 118.244 110.418 117.968 110.381C117.664 110.331 117.378 110.199 117.143 109.999C116.788 109.739 116.511 109.387 116.343 108.98C116.212 108.628 116.173 108.249 116.229 107.878C116.29 107.488 116.417 107.111 116.605 106.764C116.803 106.391 117.036 106.036 117.299 105.706C117.561 105.377 117.854 105.074 118.175 104.803C118.471 104.549 118.809 104.35 119.174 104.213C119.526 104.086 119.901 104.039 120.274 104.077C120.703 104.132 121.112 104.292 121.464 104.544L120.172 106.167C119.904 105.941 119.534 105.88 119.209 106.009C118.891 106.159 118.615 106.383 118.403 106.663C118.321 106.768 118.243 106.877 118.173 106.991C118.099 107.104 118.043 107.228 118.007 107.359C117.973 107.48 117.969 107.608 117.994 107.732C118.028 107.869 118.11 107.99 118.225 108.072C118.365 108.19 118.552 108.237 118.731 108.2C118.94 108.155 119.138 108.068 119.315 107.948C119.542 107.797 119.761 107.634 119.97 107.458C120.203 107.263 120.443 107.069 120.69 106.873C120.941 106.671 121.202 106.484 121.473 106.309C121.726 106.144 122.002 106.016 122.292 105.932C122.567 105.853 122.857 105.836 123.139 105.88C123.457 105.939 123.754 106.081 124.001 106.29C124.712 106.801 125.09 107.658 124.988 108.528C124.94 108.944 124.815 109.347 124.62 109.717C124.416 110.114 124.173 110.49 123.895 110.839C123.613 111.195 123.295 111.521 122.945 111.812C122.622 112.086 122.252 112.301 121.853 112.445C121.47 112.579 121.062 112.624 120.66 112.575C120.198 112.507 119.762 112.319 119.395 112.031L120.686 110.407C120.848 110.543 121.042 110.635 121.25 110.671M115.523 116.973C116.452 116.866 117.217 116.192 117.439 115.283C117.518 114.98 117.491 114.66 117.363 114.375L118.729 113.026C119.155 113.765 119.307 114.631 119.16 115.472C118.967 116.261 118.547 116.976 117.952 117.529C117.548 117.94 117.069 118.27 116.54 118.502C116.065 118.708 115.551 118.807 115.033 118.792C114.513 118.771 114.002 118.644 113.532 118.418C113.012 118.17 112.541 117.83 112.141 117.416C111.74 117.017 111.415 116.547 111.183 116.031C110.743 115.063 110.725 113.955 111.132 112.972C111.349 112.449 111.672 111.976 112.08 111.582C112.505 111.142 113.031 110.811 113.612 110.619C114.135 110.453 114.689 110.412 115.231 110.498C115.782 110.589 116.311 110.786 116.787 111.078C117.295 111.387 117.751 111.774 118.138 112.227L114.062 116.254C114.44 116.671 114.963 116.928 115.524 116.971M114.341 112.266C113.899 112.269 113.48 112.462 113.191 112.797C112.972 113 112.803 113.252 112.698 113.532C112.62 113.757 112.591 113.996 112.613 114.233C112.633 114.442 112.695 114.645 112.794 114.831C112.877 114.989 112.976 115.137 113.09 115.273L115.614 112.779C115.245 112.493 114.805 112.316 114.341 112.267M113.835 122.004C114.02 122.394 114.109 122.822 114.094 123.252C114.067 123.771 113.919 124.275 113.662 124.726C113.282 125.367 112.772 125.921 112.165 126.354C111.847 126.599 111.502 126.805 111.135 126.969C110.771 127.136 110.382 127.244 109.984 127.289C109.6 127.332 109.21 127.292 108.843 127.173C108.451 127.039 108.103 126.802 107.835 126.487L109.545 125.159C109.817 125.402 110.181 125.514 110.542 125.466C110.893 125.401 111.223 125.248 111.501 125.023C111.932 124.744 112.201 124.275 112.224 123.762C112.206 123.262 112.017 122.784 111.688 122.408L111.047 121.583L111.023 121.601C111.097 122.064 111.018 122.539 110.798 122.953C110.579 123.374 110.272 123.743 109.896 124.032C109.486 124.368 109.005 124.605 108.489 124.726C108.038 124.824 107.57 124.814 107.124 124.696C106.666 124.57 106.237 124.354 105.863 124.061C105.451 123.743 105.082 123.372 104.765 122.959C104.455 122.563 104.208 122.122 104.031 121.652C103.861 121.206 103.774 120.733 103.775 120.256C103.779 119.792 103.885 119.334 104.087 118.916C104.311 118.46 104.641 118.064 105.048 117.761C105.416 117.461 105.849 117.251 106.313 117.147C106.781 117.063 107.264 117.122 107.698 117.316L107.722 117.297L107.073 116.46L108.711 115.188L113.269 121.062C113.488 121.355 113.677 121.671 113.832 122.003M109.852 121.747C109.961 121.514 110.015 121.259 110.011 121.001C110.007 120.739 109.955 120.481 109.858 120.237C109.755 119.979 109.616 119.738 109.445 119.52C109.255 119.272 109.039 119.045 108.802 118.842C108.591 118.658 108.348 118.515 108.085 118.418C107.836 118.328 107.568 118.302 107.307 118.342C107.002 118.397 106.718 118.531 106.48 118.73C106.258 118.893 106.082 119.11 105.968 119.361C105.869 119.592 105.825 119.843 105.837 120.094C105.851 120.36 105.914 120.621 106.025 120.863C106.143 121.124 106.292 121.371 106.469 121.597C106.644 121.824 106.842 122.032 107.059 122.219C107.264 122.4 107.5 122.542 107.755 122.641C108 122.733 108.263 122.768 108.523 122.743C108.818 122.706 109.095 122.585 109.323 122.395C109.549 122.226 109.731 122.005 109.853 121.75M102.385 125.802C102.467 125.945 102.541 126.092 102.605 126.243C102.691 126.441 102.736 126.654 102.739 126.87C102.74 127.119 102.677 127.363 102.556 127.58C102.375 127.876 102.117 128.117 101.81 128.278C101.664 128.366 101.511 128.44 101.351 128.499C101.207 128.555 101.054 128.583 100.899 128.582C100.754 128.579 100.613 128.537 100.49 128.462C100.346 128.37 100.227 128.245 100.145 128.096C100.049 127.949 99.9908 127.78 99.9765 127.605C99.9688 127.458 99.9939 127.312 100.05 127.176C100.112 127.033 100.196 126.901 100.3 126.785C100.409 126.659 100.526 126.541 100.651 126.43C100.785 126.315 100.921 126.203 101.061 126.096C101.2 125.989 101.329 125.882 101.45 125.773C101.564 125.672 101.672 125.562 101.772 125.446C101.861 125.346 101.929 125.23 101.971 125.103L102.385 125.802ZM98.6865 125.187C98.5073 124.881 98.4689 124.512 98.5816 124.176C98.7352 123.851 98.9907 123.584 99.3092 123.417C99.4654 123.322 99.6283 123.24 99.7967 123.17C99.9427 123.108 100.099 123.074 100.258 123.072C100.409 123.073 100.557 123.114 100.687 123.191C100.85 123.297 100.983 123.442 101.074 123.613C101.194 123.768 101.229 123.971 101.168 124.157C101.087 124.359 100.963 124.54 100.805 124.688C100.601 124.888 100.382 125.073 100.151 125.241C99.8946 125.43 99.6385 125.631 99.383 125.844C99.1274 126.057 98.8837 126.284 98.6527 126.523C98.4305 126.75 98.2487 127.013 98.1161 127.302C97.9891 127.589 97.9317 127.903 97.9486 128.217C97.9804 128.6 98.1068 128.97 98.3168 129.292C98.496 129.609 98.7429 129.883 99.0399 130.094C99.3 130.274 99.5996 130.389 99.913 130.431C100.235 130.471 100.56 130.446 100.872 130.358C101.217 130.261 101.547 130.118 101.852 129.931C102.272 129.68 102.652 129.367 102.979 129.004C103.307 128.643 103.536 128.202 103.645 127.727C103.72 127.834 103.803 127.937 103.892 128.034C103.979 128.13 104.072 128.221 104.171 128.305L106.069 127.168C105.847 127.035 105.655 126.858 105.506 126.646C105.294 126.375 105.1 126.09 104.924 125.794L102.799 122.25C102.605 121.887 102.299 121.596 101.926 121.421C101.59 121.282 101.225 121.227 100.863 121.261C100.473 121.299 100.091 121.398 99.7312 121.554C99.3579 121.713 98.9953 121.897 98.6471 122.106C98.2687 122.333 97.9138 122.596 97.5876 122.893C97.2737 123.174 97.0089 123.505 96.8046 123.873C96.6121 124.224 96.503 124.614 96.4851 125.014C96.4764 125.465 96.589 125.911 96.8113 126.305L98.6865 125.187ZM93.877 133.767L89.3706 127.531L89.3419 127.542L90.427 135.152L88.16 136.062L81.3789 126.965L83.6173 126.066L88.01 132.348L88.0386 132.336L87.0247 124.698L89.1207 123.857L93.6783 130.173L93.707 130.162L92.5589 122.478L94.7547 121.596L96.1035 132.875L93.877 133.767Z" fill="#9FC422"/>
</svg>
