<svg width="60" height="60" viewBox="0 0 60 60" fill="none" xmlns="http://www.w3.org/2000/svg">
<path fill-rule="evenodd" clip-rule="evenodd" d="M5 47.6571V5H40.3142V6.3857H6.3857V47.6571C6.3857 50.7263 8.8737 53.2143 11.9428 53.2143C14.6832 53.2143 16.9047 50.9928 16.9047 48.2524V43.0952H47.4571V47.6571C47.4571 51.4916 44.3487 54.6 40.5142 54.6H11.9428C8.1084 54.6 5 51.4916 5 47.6571ZM12.1428 17.3975V16.0117H23.0285V17.3975H12.1428ZM12.1428 24.5408V23.1551H23.0285V24.5408H12.1428ZM12.1428 31.6832V30.2975H23.0285V31.6832H12.1428ZM46.0716 44.4811H18.2906V48.2525C18.2906 50.0715 17.5258 51.7115 16.2997 52.869L15.9338 53.2144H40.5144C43.5836 53.2144 46.0716 50.7264 46.0716 47.6573V44.4811Z" fill="#313840"/>
<path fill-rule="evenodd" clip-rule="evenodd" d="M40.8 37.8C33.6203 37.8 27.8 31.9797 27.8 24.8C27.8 17.6203 33.6203 11.8 40.8 11.8C47.9798 11.8 53.8 17.6203 53.8 24.8C53.8 31.9797 47.9798 37.8 40.8 37.8ZM40.8 39.8C32.5158 39.8 25.8 33.0843 25.8 24.8C25.8 16.5157 32.5158 9.79999 40.8 9.79999C49.0843 9.79999 55.8 16.5157 55.8 24.8C55.8 33.0843 49.0843 39.8 40.8 39.8ZM42.75 28.1751C42.75 27.1396 41.9105 26.3001 40.875 26.3001C38.1826 26.3001 36 24.1175 36 21.4251C36 19.2839 37.3805 17.4651 39.3 16.8101V15.0501H42.3V16.7617C44.2972 17.3712 45.75 19.2285 45.75 21.4251H42.75C42.75 20.3896 41.9105 19.5501 40.875 19.5501C39.8395 19.5501 39 20.3896 39 21.4251C39 22.4606 39.8395 23.3001 40.875 23.3001C43.5674 23.3001 45.75 25.4827 45.75 28.1751C45.75 30.3717 44.2972 32.229 42.3 32.8385V34.5501H39.3V32.7901C37.3805 32.1352 36 30.3164 36 28.1751H39C39 29.2106 39.8395 30.0501 40.875 30.0501C41.9105 30.0501 42.75 29.2106 42.75 28.1751Z" fill="url(#paint0_linear)"/>
<defs>
<linearGradient id="paint0_linear" x1="40.7861" y1="14.7771" x2="50.1456" y2="21.934" gradientUnits="userSpaceOnUse">
<stop stop-color="#D55B17"/>
<stop offset="1" stop-color="#D99227"/>
</linearGradient>
</defs>
</svg>
