<svg width="60" height="60" viewBox="0 0 60 60" fill="none" xmlns="http://www.w3.org/2000/svg">
<g clip-path="url(#clip0)">
<path fill-rule="evenodd" clip-rule="evenodd" d="M6.6864 1.71443H53.3133V1.71436C54.3332 1.71436 55.2768 2.03152 56.0618 2.57161C55.3025 2.04922 54.3949 1.73539 53.4133 1.71538C53.3889 1.71489 53.3645 1.71457 53.34 1.71444H53.3133H6.6864C3.9665 1.71444 1.71411 3.89391 1.71411 6.69343V6.69342C1.71411 3.8939 3.9665 1.71443 6.6864 1.71443ZM6.6864 1.81444H53.3397C55.989 1.82901 58.1106 4.03107 58.1856 6.69478V53.3068C58.1856 56.0502 55.9788 58.1858 53.3133 58.1858L6.68641 58.1828C3.947 58.1828 1.81411 55.9732 1.81411 53.3038V6.69343C1.81411 3.95001 4.02086 1.81444 6.6864 1.81444ZM56.754 53.4074H56.8316V6.6939C56.8316 4.77245 55.2328 3.17123 53.3136 3.17123H6.68671C4.76752 3.17123 3.16865 4.77245 3.16865 6.6939V53.3074C3.16865 55.2288 4.76752 56.83 6.68671 56.83H53.2374C55.1232 56.83 56.6997 55.284 56.754 53.4074Z" fill="#313840"/>
<path fill-rule="evenodd" clip-rule="evenodd" d="M47.6122 27.6841C47.8403 27.5348 48.1425 27.5348 48.3707 27.6841C48.5988 27.8334 48.75 28.1343 48.75 28.3597V48.4445C48.75 48.8953 48.4478 49.1939 47.9915 49.1939H13.0996C12.7203 49.1939 12.4181 48.9685 12.3411 48.6699C12.264 48.3684 12.4181 47.9937 12.7203 47.8444L13.5559 47.3174V12.6956C13.5559 12.2448 13.8581 11.9462 14.3144 11.9462H21.8226C22.2789 11.9462 22.5811 12.2448 22.5811 12.6956V42.148L25.9944 40.1223C25.4709 38.7902 25.5363 36.9474 25.6122 34.811L25.6152 34.7272C25.6152 34.287 25.6336 33.8285 25.6525 33.3607C25.6721 32.8735 25.6922 32.3762 25.6922 31.8788C25.6922 28.583 26.2996 25.2106 27.3603 23.3371C26.7559 23.3371 26.2996 22.8892 26.2996 22.2891V20.9396C26.2996 20.4156 26.7529 19.8916 27.3603 19.8916C26.6018 19.4408 26.0714 18.7675 25.8433 17.942C25.3099 16.2942 27.9647 11.5723 28.8003 10.1497C29.0285 9.85107 29.4077 9.70177 29.787 9.85107C29.7887 9.85192 29.7907 9.85294 29.7931 9.85412C30.0008 9.95797 32.7466 11.3306 32.9722 16.0717C33.0492 17.8691 32.5158 19.2186 31.4551 19.9681C32.0595 19.9681 32.5158 20.4159 32.5158 21.016V22.3656C32.5158 22.8895 32.0625 23.4135 31.4551 23.4135C32.4418 25.2867 32.9722 28.7322 32.9722 31.9553C32.9722 32.368 32.9914 32.78 33.0107 33.1921C33.0299 33.6041 33.0492 34.0161 33.0492 34.4289V36.1531L36.4596 34.0571V14.9473C36.4596 14.9092 36.4788 14.8719 36.4981 14.8346C36.5173 14.7972 36.5366 14.7599 36.5366 14.7218V14.6457C36.6136 14.6457 36.6136 14.5696 36.6136 14.5696L39.9499 9.92391C40.1781 9.54921 40.8625 9.54921 41.1647 9.92391L44.424 14.6428C44.5011 14.6428 44.5011 14.719 44.5011 14.719V14.7951C44.5781 14.8712 44.5781 14.9444 44.5781 15.0205V29.4083L47.6122 27.6841ZM21.064 42.4466V13.4454V13.3721H15.0729V16.2204H17.1974C17.6537 16.2204 17.9559 16.519 17.9559 16.9698C17.9559 17.4206 17.6537 17.7192 17.1974 17.7192H15.0729V19.3673H16.0596C16.5159 19.3673 16.8181 19.6659 16.8181 20.1167C16.8181 20.5675 16.5159 20.8661 16.0596 20.8661H15.0729V22.5142H16.0596C16.5159 22.5142 16.8181 22.8128 16.8181 23.2636C16.8181 23.7145 16.5159 24.013 16.0596 24.013H15.0729V25.6611H17.1974C17.6537 25.6611 17.9559 25.9597 17.9559 26.4105C17.9559 26.8614 17.6537 27.16 17.1974 27.16H15.0729V28.7349H16.0596C16.5159 28.7349 16.8181 29.0335 16.8181 29.4843C16.8181 29.9351 16.5159 30.2337 16.0596 30.2337H15.0729V31.8818H16.0596C16.5159 31.8818 16.8181 32.1804 16.8181 32.6312C16.8181 33.082 16.5159 33.3806 16.0596 33.3806H15.0729V35.0287H17.1974C17.6537 35.0287 17.9559 35.3273 17.9559 35.7781C17.9559 36.2289 17.6537 36.5275 17.1974 36.5275H15.0729V38.1756H16.0596C16.5159 38.1756 16.8181 38.4742 16.8181 38.925C16.8181 39.3758 16.5159 39.6744 16.0596 39.6744H15.0729V41.3225H16.0596C16.5159 41.3225 16.8181 41.6211 16.8181 42.0719C16.8181 42.5228 16.5159 42.8213 16.0596 42.8213H15.0729V46.1937L21.064 42.4466ZM41.3157 15.7693V31.3577L43.0609 30.3063V15.7693H41.3157ZM42.3764 14.3439L40.5572 11.721L38.6609 14.3439H42.3764ZM39.7987 15.7695H37.9794V33.3044L39.7987 32.2564V15.7695ZM30.9249 21.3901H27.8138V21.914H30.9249V21.3901ZM31.4553 16.0678C31.3042 13.4448 30.3175 12.1714 29.7101 11.5713C28.3471 14.0449 27.1324 16.8172 27.2864 17.4934C27.4375 18.0174 27.8168 18.4682 28.3472 18.7668C28.8775 18.9922 29.4849 19.0654 30.0153 18.9161C31.3042 18.5414 31.5323 17.1919 31.4553 16.0678ZM27.2863 31.8815C27.2863 32.9294 27.2863 33.9042 27.2093 34.8029C27.2074 34.8494 27.2055 34.8957 27.2036 34.9418C27.1287 36.7578 27.063 38.3505 27.3664 39.3725L31.4612 36.975V36.8257C31.5115 36.3858 31.4961 35.8809 31.4793 35.3331C31.4705 35.0425 31.4612 34.7397 31.4612 34.4282C31.3842 33.6057 31.3842 32.7801 31.3842 31.8814C31.3842 26.2612 30.0182 23.3397 29.4108 23.3397C28.8034 23.3397 27.2863 26.337 27.2863 31.8814V31.8815ZM15.9051 47.7684H47.2327L47.2328 29.7067L44.1988 31.4309L37.6003 35.2541L15.9051 47.7684ZM42.7773 35.7877C43.0278 35.6218 43.3595 35.6218 43.61 35.7877V35.7877C43.8604 35.8723 44.0263 36.2041 44.0263 36.4545V43.7825C44.0263 44.2834 43.6945 44.6152 43.1936 44.6152H30.8695C30.4532 44.6152 30.1215 44.3647 30.0369 44.033C29.9523 43.6979 30.1215 43.2816 30.4532 43.1157L42.7773 35.7877ZM33.8688 42.9498H42.361V37.8693L33.8688 42.9498Z" fill="url(#paint0_linear)"/>
</g>
<defs>
<linearGradient id="paint0_linear" x1="30.5944" y1="16.4276" x2="42.7363" y2="25.1346" gradientUnits="userSpaceOnUse">
<stop stop-color="#D55B17"/>
<stop offset="1" stop-color="#D99227"/>
</linearGradient>
<clipPath id="clip0">
<rect width="60" height="60" fill="white"/>
</clipPath>
</defs>
</svg>
